  0
SECTION
  2
HEADER
  9
$ACADVER
  1
AC1032
  9
$ACADMAINTVER
 90
       55
  9
$DWGCODEPAGE
  3
ANSI_1252
  9
$LASTSAVEDBY
  1
cipulot
  9
$REQUIREDVERSIONS
160
                 0
  9
$INSBASE
 10
0.0
 20
0.0
 30
0.0
  9
$EXTMIN
 10
1.000000000000000E+20
 20
1.000000000000000E+20
 30
1.000000000000000E+20
  9
$EXTMAX
 10
-1.000000000000000E+20
 20
-1.000000000000000E+20
 30
-1.000000000000000E+20
  9
$LIMMIN
 10
0.0
 20
0.0
  9
$LIMMAX
 10
12.0
 20
9.0
  9
$ORTHOMODE
 70
     0
  9
$REGENMODE
 70
     1
  9
$FILLMODE
 70
     1
  9
$QTEXTMODE
 70
     0
  9
$MIRRTEXT
 70
     1
  9
$LTSCALE
 40
1.0
  9
$ATTMODE
 70
     1
  9
$TEXTSIZE
 40
0.2
  9
$TRACEWID
 40
0.05
  9
$TEXTSTYLE
  7
STANDARD
  9
$CLAYER
  8
0
  9
$CELTYPE
  6
BYBLOCK
  9
$CECOLOR
 62
   256
  9
$CELTSCALE
 40
1.0
  9
$DISPSILH
 70
     0
  9
$DIMSCALE
 40
1.0
  9
$DIMASZ
 40
0.18
  9
$DIMEXO
 40
0.0625
  9
$DIMDLI
 40
0.38
  9
$DIMRND
 40
0.0
  9
$DIMDLE
 40
0.0
  9
$DIMEXE
 40
0.18
  9
$DIMTP
 40
0.0
  9
$DIMTM
 40
0.0
  9
$DIMTXT
 40
0.18
  9
$DIMCEN
 40
0.09
  9
$DIMTSZ
 40
0.0
  9
$DIMTOL
 70
     0
  9
$DIMLIM
 70
     0
  9
$DIMTIH
 70
     1
  9
$DIMTOH
 70
     1
  9
$DIMSE1
 70
     0
  9
$DIMSE2
 70
     0
  9
$DIMTAD
 70
     0
  9
$DIMZIN
 70
     0
  9
$DIMBLK
  1

  9
$DIMASO
 70
     1
  9
$DIMSHO
 70
     1
  9
$DIMPOST
  1

  9
$DIMAPOST
  1

  9
$DIMALT
 70
     0
  9
$DIMALTD
 70
     2
  9
$DIMALTF
 40
25.4
  9
$DIMLFAC
 40
1.0
  9
$DIMTOFL
 70
     0
  9
$DIMTVP
 40
0.0
  9
$DIMTIX
 70
     0
  9
$DIMSOXD
 70
     0
  9
$DIMSAH
 70
     0
  9
$DIMBLK1
  1

  9
$DIMBLK2
  1

  9
$DIMSTYLE
  2
Standard
  9
$DIMCLRD
 70
     0
  9
$DIMCLRE
 70
     0
  9
$DIMCLRT
 70
     0
  9
$DIMTFAC
 40
1.0
  9
$DIMGAP
 40
0.09
  9
$DIMJUST
 70
     0
  9
$DIMSD1
 70
     0
  9
$DIMSD2
 70
     0
  9
$DIMTOLJ
 70
     1
  9
$DIMTZIN
 70
     0
  9
$DIMALTZ
 70
     0
  9
$DIMALTTZ
 70
     0
  9
$DIMUPT
 70
     0
  9
$DIMDEC
 70
     4
  9
$DIMTDEC
 70
     4
  9
$DIMALTU
 70
     2
  9
$DIMALTTD
 70
     2
  9
$DIMTXSTY
  7
STANDARD
  9
$DIMAUNIT
 70
     0
  9
$DIMADEC
 70
     0
  9
$DIMALTRND
 40
0.0
  9
$DIMAZIN
 70
     0
  9
$DIMDSEP
 70
    46
  9
$DIMATFIT
 70
     3
  9
$DIMFRAC
 70
     0
  9
$DIMLDRBLK
  1

  9
$DIMLUNIT
 70
     2
  9
$DIMLWD
 70
    -2
  9
$DIMLWE
 70
    -2
  9
$DIMTMOVE
 70
     2
  9
$DIMFXL
 40
1.0
  9
$DIMFXLON
 70
     0
  9
$DIMJOGANG
 40
0.7853981633974483
  9
$DIMTFILL
 70
     0
  9
$DIMTFILLCLR
 70
     0
  9
$DIMARCSYM
 70
     0
  9
$DIMLTYPE
  6

  9
$DIMLTEX1
  6

  9
$DIMLTEX2
  6

  9
$DIMTXTDIRECTION
 70
     0
  9
$LUNITS
 70
     2
  9
$LUPREC
 70
     4
  9
$SKETCHINC
 40
0.1
  9
$FILLETRAD
 40
0.0
  9
$AUNITS
 70
     0
  9
$AUPREC
 70
     0
  9
$MENU
  1
.
  9
$ELEVATION
 40
0.0
  9
$PELEVATION
 40
0.0
  9
$THICKNESS
 40
0.0
  9
$LIMCHECK
 70
     0
  9
$CHAMFERA
 40
0.0
  9
$CHAMFERB
 40
0.0
  9
$CHAMFERC
 40
0.0
  9
$CHAMFERD
 40
0.0
  9
$SKPOLY
 70
     0
  9
$TDCREATE
 40
0.0
  9
$TDUCREATE
 40
0.0
  9
$TDUPDATE
 40
2460882.111329352
  9
$TDUUPDATE
 40
2460882.069662685
  9
$TDINDWG
 40
0.0
  9
$TDUSRTIMER
 40
0.0
  9
$USRTIMER
 70
     1
  9
$ANGBASE
 50
0.0
  9
$ANGDIR
 70
     0
  9
$PDMODE
 70
     0
  9
$PDSIZE
 40
0.0
  9
$PLINEWID
 40
0.0
  9
$SPLFRAME
 70
     0
  9
$SPLINETYPE
 70
     6
  9
$SPLINESEGS
 70
     8
  9
$HANDSEED
  5
1005D
  9
$SURFTAB1
 70
     6
  9
$SURFTAB2
 70
     6
  9
$SURFTYPE
 70
     6
  9
$SURFU
 70
     6
  9
$SURFV
 70
     6
  9
$UCSBASE
  2

  9
$UCSNAME
  2

  9
$UCSORG
 10
0.0
 20
0.0
 30
0.0
  9
$UCSXDIR
 10
1.0
 20
0.0
 30
0.0
  9
$UCSYDIR
 10
0.0
 20
1.0
 30
0.0
  9
$UCSORTHOREF
  2

  9
$UCSORTHOVIEW
 70
     0
  9
$UCSORGTOP
 10
0.0
 20
0.0
 30
0.0
  9
$UCSORGBOTTOM
 10
0.0
 20
0.0
 30
0.0
  9
$UCSORGLEFT
 10
0.0
 20
0.0
 30
0.0
  9
$UCSORGRIGHT
 10
0.0
 20
0.0
 30
0.0
  9
$UCSORGFRONT
 10
0.0
 20
0.0
 30
0.0
  9
$UCSORGBACK
 10
0.0
 20
0.0
 30
0.0
  9
$PUCSBASE
  2

  9
$PUCSNAME
  2

  9
$PUCSORG
 10
0.0
 20
0.0
 30
0.0
  9
$PUCSXDIR
 10
1.0
 20
0.0
 30
0.0
  9
$PUCSYDIR
 10
0.0
 20
1.0
 30
0.0
  9
$PUCSORTHOREF
  2

  9
$PUCSORTHOVIEW
 70
     0
  9
$PUCSORGTOP
 10
0.0
 20
0.0
 30
0.0
  9
$PUCSORGBOTTOM
 10
0.0
 20
0.0
 30
0.0
  9
$PUCSORGLEFT
 10
0.0
 20
0.0
 30
0.0
  9
$PUCSORGRIGHT
 10
0.0
 20
0.0
 30
0.0
  9
$PUCSORGFRONT
 10
0.0
 20
0.0
 30
0.0
  9
$PUCSORGBACK
 10
0.0
 20
0.0
 30
0.0
  9
$USERI1
 70
     0
  9
$USERI2
 70
     0
  9
$USERI3
 70
     0
  9
$USERI4
 70
     0
  9
$USERI5
 70
     0
  9
$USERR1
 40
0.0
  9
$USERR2
 40
0.0
  9
$USERR3
 40
0.0
  9
$USERR4
 40
0.0
  9
$USERR5
 40
0.0
  9
$WORLDVIEW
 70
     1
  9
$SHADEDGE
 70
     3
  9
$SHADEDIF
 70
    70
  9
$TILEMODE
 70
     1
  9
$MAXACTVP
 70
    64
  9
$PINSBASE
 10
0.0
 20
0.0
 30
0.0
  9
$PLIMCHECK
 70
     0
  9
$PEXTMIN
 10
1.000000000000000E+20
 20
1.000000000000000E+20
 30
1.000000000000000E+20
  9
$PEXTMAX
 10
-1.000000000000000E+20
 20
-1.000000000000000E+20
 30
-1.000000000000000E+20
  9
$PLIMMIN
 10
0.0
 20
0.0
  9
$PLIMMAX
 10
12.0
 20
9.0
  9
$UNITMODE
 70
     0
  9
$VISRETAIN
 70
     1
  9
$PLINEGEN
 70
     0
  9
$PSLTSCALE
 70
     1
  9
$TREEDEPTH
 70
  3020
  9
$CMLSTYLE
  2
Standard
  9
$CMLJUST
 70
     0
  9
$CMLSCALE
 40
1.0
  9
$PROXYGRAPHICS
 70
     1
  9
$MEASUREMENT
 70
     0
  9
$CELWEIGHT
370
    -1
  9
$ENDCAPS
280
     0
  9
$JOINSTYLE
280
     0
  9
$LWDISPLAY
290
     0
  9
$INSUNITS
 70
     4
  9
$HYPERLINKBASE
  1

  9
$STYLESHEET
  1

  9
$XEDIT
290
     1
  9
$CEPSNTYPE
380
     0
  9
$PSTYLEMODE
290
     1
  9
$FINGERPRINTGUID
  2
{c2675bd4-ace8-714f-867c-52902af2545c}
  9
$VERSIONGUID
  2
{761EE105-10A7-4197-8F40-8572ED00C67A}
  9
$EXTNAMES
290
     1
  9
$PSVPSCALE
 40
0.0
  9
$OLESTARTUP
290
     0
  9
$SORTENTS
280
   127
  9
$INDEXCTL
280
     0
  9
$HIDETEXT
280
     1
  9
$XCLIPFRAME
280
     2
  9
$HALOGAP
280
     0
  9
$OBSCOLOR
 70
   257
  9
$OBSLTYPE
280
     0
  9
$INTERSECTIONDISPLAY
280
     0
  9
$INTERSECTIONCOLOR
 70
   257
  9
$DIMASSOC
280
     2
  9
$PROJECTNAME
  1

  9
$CAMERADISPLAY
290
     0
  9
$LENSLENGTH
 40
50.0
  9
$CAMERAHEIGHT
 40
0.0
  9
$STEPSPERSEC
 40
2.0
  9
$STEPSIZE
 40
6.0
  9
$3DDWFPREC
 40
2.0
  9
$PSOLWIDTH
 40
0.25
  9
$PSOLHEIGHT
 40
4.0
  9
$LOFTANG1
 40
1.570796326794897
  9
$LOFTANG2
 40
1.570796326794897
  9
$LOFTMAG1
 40
0.0
  9
$LOFTMAG2
 40
0.0
  9
$LOFTPARAM
 70
     7
  9
$LOFTNORMALS
280
     1
  9
$LATITUDE
 40
37.795
  9
$LONGITUDE
 40
-122.394
  9
$NORTHDIRECTION
 40
0.0
  9
$TIMEZONE
 70
 -8000
  9
$LIGHTGLYPHDISPLAY
280
     1
  9
$TILEMODELIGHTSYNCH
280
     1
  9
$CMATERIAL
347
1001C
  9
$SOLIDHIST
280
     0
  9
$SHOWHIST
280
     1
  9
$DWFFRAME
280
     2
  9
$DGNFRAME
280
     2
  9
$REALWORLDSCALE
290
     1
  9
$INTERFERECOLOR
 62
   256
  9
$CSHADOW
280
     0
  9
$SHADOWPLANELOCATION
 40
0.0
  0
ENDSEC
  0
SECTION
  2
CLASSES
  0
CLASS
  1
ACDBDICTIONARYWDFLT
  2
AcDbDictionaryWithDefault
  3
ObjectDBX Classes
 90
        0
 91
        3
280
     0
281
     0
  0
CLASS
  1
SCALE
  2
AcDbScale
  3
ObjectDBX Classes
 90
     1153
 91
        3
280
     0
281
     0
  0
CLASS
  1
MATERIAL
  2
AcDbMaterial
  3
ObjectDBX Classes
 90
     1153
 91
        3
280
     0
281
     0
  0
CLASS
  1
VISUALSTYLE
  2
AcDbVisualStyle
  3
ObjectDBX Classes
 90
     4095
 91
        3
280
     0
281
     0
  0
CLASS
  1
TABLESTYLE
  2
AcDbTableStyle
  3
ObjectDBX Classes
 90
     4095
 91
        3
280
     0
281
     0
  0
CLASS
  1
MLEADERSTYLE
  2
AcDbMLeaderStyle
  3
ACDB_MLEADERSTYLE_CLASS
 90
     4095
 91
        3
280
     0
281
     0
  0
CLASS
  1
DICTIONARYVAR
  2
AcDbDictionaryVar
  3
ObjectDBX Classes
 90
        0
 91
        3
280
     0
281
     0
  0
CLASS
  1
CELLSTYLEMAP
  2
AcDbCellStyleMap
  3
ObjectDBX Classes
 90
     1152
 91
        3
280
     0
281
     0
  0
CLASS
  1
SUN
  2
AcDbSun
  3
SCENEOE
 90
     1153
 91
        3
280
     0
281
     0
  0
CLASS
  1
MENTALRAYRENDERSETTINGS
  2
AcDbMentalRayRenderSettings
  3
SCENEOE
 90
     1024
 91
        3
280
     0
281
     0
  0
CLASS
  1
ACDBDETAILVIEWSTYLE
  2
AcDbDetailViewStyle
  3
ObjectDBX Classes
 90
     1025
 91
        3
280
     0
281
     0
  0
CLASS
  1
ACDBSECTIONVIEWSTYLE
  2
AcDbSectionViewStyle
  3
ObjectDBX Classes
 90
     1025
 91
        3
280
     0
281
     0
  0
CLASS
  1
RASTERVARIABLES
  2
AcDbRasterVariables
  3
ISM
 90
        0
 91
        3
280
     0
281
     0
  0
CLASS
  1
LAYOUT
  2
AcDbLayout
  3
ObjectDBX Classes
 90
        0
 91
        1
280
     0
281
     0
  0
CLASS
  1
ACDBPLACEHOLDER
  2
AcDbPlaceHolder
  3
ObjectDBX Classes
 90
        0
 91
        1
280
     0
281
     0
  0
ENDSEC
  0
SECTION
  2
TABLES
  0
TABLE
  2
VPORT
  5
8
330
0
100
AcDbSymbolTable
 70
     1
  0
VPORT
  5
10001
330
8
100
AcDbSymbolTableRecord
100
AcDbViewportTableRecord
  2
*Active
 70
     0
 10
0.0
 20
0.0
 11
1.0
 21
1.0
 12
10.42990654205607
 22
4.5
 13
0.0
 23
0.0
 14
0.5
 24
0.5
 15
0.5
 25
0.5
 16
0.0
 26
0.0
 36
1.0
 17
0.0
 27
0.0
 37
0.0
 40
9.0
 41
1.972972972850329
 42
50.0
 43
0.0
 44
0.0
 50
0.0
 51
0.0
 71
     0
 72
   100
 73
     1
 74
     3
 75
     0
 76
     0
 77
     0
 78
     0
281
     0
 65
     1
110
0.0
120
0.0
130
0.0
111
1.0
121
0.0
131
0.0
112
0.0
122
1.0
132
0.0
 79
     0
146
0.0
348
10024
 60
     3
 61
     5
292
     1
282
     1
141
0.0
142
0.0
 63
   250
  0
ENDTAB
  0
TABLE
  2
LTYPE
  5
5
330
0
100
AcDbSymbolTable
 70
     2
  0
LTYPE
  5
14
330
5
100
AcDbSymbolTableRecord
100
AcDbLinetypeTableRecord
  2
BYBLOCK
 70
     0
  3

 72
    65
 73
     0
 40
0.0
  0
LTYPE
  5
15
330
5
100
AcDbSymbolTableRecord
100
AcDbLinetypeTableRecord
  2
BYLAYER
 70
     0
  3

 72
    65
 73
     0
 40
0.0
  0
LTYPE
  5
FFFF
330
5
100
AcDbSymbolTableRecord
100
AcDbLinetypeTableRecord
  2
Continuous
 70
     0
  3
Solid line
 72
    65
 73
     0
 40
0.0
  0
LTYPE
  5
16
330
5
100
AcDbSymbolTableRecord
100
AcDbLinetypeTableRecord
  2
DASHED
 70
     0
  3
Dashed __ __ __ __ __ __ __ __ __ __ __ __ __ _
 72
    65
 73
     2
 40
0.75
 49
0.5
 74
     0
 49
-0.25
 74
     0
  0
ENDTAB
  0
TABLE
  2
LAYER
  5
2
330
0
100
AcDbSymbolTable
 70
     2
  0
LAYER
  5
50
330
2
100
AcDbSymbolTableRecord
100
AcDbLayerTableRecord
  2
0
 70
     0
 62
     7
  6
Continuous
370
    -3
390
10005
347
1001E
348
0
  0
LAYER
  5
1004A
330
2
100
AcDbSymbolTableRecord
100
AcDbLayerTableRecord
  2
Defpoints
 70
     0
 62
     7
  6
Continuous
290
     0
370
    -3
390
10005
347
1001E
348
0
  0
ENDTAB
  0
TABLE
  2
STYLE
  5
3
330
0
100
AcDbSymbolTable
 70
     1
  0
STYLE
  5
11
330
3
100
AcDbSymbolTableRecord
100
AcDbTextStyleTableRecord
  2
STANDARD
 70
     0
 40
0.2
 41
1.0
 50
0.0
 71
     0
 42
0.2
  3

  4

  0
ENDTAB
  0
TABLE
  2
VIEW
  5
6
330
0
100
AcDbSymbolTable
 70
     0
  0
ENDTAB
  0
TABLE
  2
UCS
  5
7
330
0
100
AcDbSymbolTable
 70
     0
  0
ENDTAB
  0
TABLE
  2
APPID
  5
9
330
0
100
AcDbSymbolTable
 70
     3
  0
APPID
  5
12
330
9
100
AcDbSymbolTableRecord
100
AcDbRegAppTableRecord
  2
ACAD
 70
     0
  0
APPID
  5
10056
330
9
100
AcDbSymbolTableRecord
100
AcDbRegAppTableRecord
  2
HATCHBACKGROUNDCOLOR
 70
     0
  0
APPID
  5
10057
330
9
100
AcDbSymbolTableRecord
100
AcDbRegAppTableRecord
  2
EZDXF
 70
     0
  0
ENDTAB
  0
TABLE
  2
DIMSTYLE
  5
A
330
0
100
AcDbSymbolTable
 70
     1
100
AcDbDimStyleTable
  0
DIMSTYLE
105
10000
330
A
100
AcDbSymbolTableRecord
100
AcDbDimStyleTableRecord
  2
Standard
 70
     0
 41
2.5
 42
0.625
 43
3.75
 44
1.25
 49
2.5
 73
     0
 74
     0
 77
     1
 78
     8
 79
     3
140
2.5
141
2.5
143
0.03937007874
147
0.625
171
     3
172
     1
178
     0
179
     2
271
     2
272
     2
274
     3
278
    44
283
     0
284
     8
340
11
  0
ENDTAB
  0
TABLE
  2
BLOCK_RECORD
  5
1
330
0
100
AcDbSymbolTable
 70
     0
  0
BLOCK_RECORD
  5
1F
330
1
100
AcDbSymbolTableRecord
100
AcDbBlockTableRecord
  2
*MODEL_SPACE
340
10019
 70
     0
280
     1
281
     0
  0
BLOCK_RECORD
  5
1B
330
1
100
AcDbSymbolTableRecord
100
AcDbBlockTableRecord
  2
*PAPER_SPACE
340
1001A
 70
     0
280
     1
281
     0
  0
ENDTAB
  0
ENDSEC
  0
SECTION
  2
BLOCKS
  0
BLOCK
  5
20
330
1F
100
AcDbEntity
  8
0
100
AcDbBlockBegin
  2
*MODEL_SPACE
 70
     0
 10
0.0
 20
0.0
 30
0.0
  3
*MODEL_SPACE
  1

  0
ENDBLK
  5
21
330
1F
100
AcDbEntity
  8
0
100
AcDbBlockEnd
  0
BLOCK
  5
1C
330
1B
100
AcDbEntity
 67
     1
  8
0
100
AcDbBlockBegin
  2
*PAPER_SPACE
 70
     0
 10
0.0
 20
0.0
 30
0.0
  3
*PAPER_SPACE
  1

  0
ENDBLK
  5
1D
330
1B
100
AcDbEntity
 67
     1
  8
0
100
AcDbBlockEnd
  0
ENDSEC
  0
SECTION
  2
ENTITIES
  0
POINT
  5
100
330
1F
100
AcDbEntity
  8
0
100
AcDbPoint
 10
0.0
 20
0.0
 30
0.0
  0
POINT
  5
101
330
1F
100
AcDbEntity
  8
0
100
AcDbPoint
 10
0.0
 20
0.0
 30
0.0
  0
POINT
  5
102
330
1F
100
AcDbEntity
  8
0
100
AcDbPoint
 10
0.0
 20
0.0
 30
0.0
  0
LWPOLYLINE
  5
103
330
1F
100
AcDbEntity
  8
0
100
AcDbPolyline
 90
        8
 70
     1
 43
0.0
 10
118.042084
 20
-24.616439
 10
115.339232
 20
-37.332358
 42
0.4142136841652426
 10
115.724349
 20
-37.925388
 10
129.027157
 20
-40.752987
 42
0.4142134405809533
 10
129.620186
 20
-40.367869
 10
132.323038
 20
-27.65195
 42
0.4142136841652854
 10
131.937921
 20
-27.05892
 10
118.635113
 20
-24.231321
 42
0.414212294612423
  0
LWPOLYLINE
  5
104
330
1F
100
AcDbEntity
  8
0
100
AcDbPolyline
 90
        8
 70
     1
 43
0.0
 10
116.424349
 20
-57.555388
 10
129.727157
 20
-60.382987
 42
0.4142134405809346
 10
130.320186
 20
-59.99786899999999
 10
133.023038
 20
-47.28194999999999
 42
0.4142136841652539
 10
132.637921
 20
-46.68892
 10
119.335113
 20
-43.861321
 42
0.4142122946124309
 10
118.742084
 20
-44.246439
 10
116.039232
 20
-56.962358
 42
0.4142136841652754
  0
LWPOLYLINE
  5
105
330
1F
100
AcDbEntity
  8
0
100
AcDbPolyline
 90
        8
 70
     1
 43
0.0
 10
166.858527
 20
-84.30005100000001
 42
0.4142122946124279
 10
166.473409
 20
-84.89308
 10
168.909718
 20
-96.35501400000001
 10
172.204264
 20
-97.42543
 10
197.636102
 20
-92.01972699999999
 10
200.210442
 20
-89.70183999999998
 10
197.774132
 20
-78.23990599999999
 42
0.4142134405809467
 10
197.181103
 20
-77.854788
  0
CIRCLE
  5
106
330
1F
100
AcDbEntity
  8
0
100
AcDbCircle
 10
144.34401
 20
-95.28187600000001
 30
0.0
 40
1.000002
  0
CIRCLE
  5
107
330
1F
100
AcDbEntity
  8
0
100
AcDbCircle
 10
146.539123
 20
-76.27291799999998
 30
0.0
 40
1.000003
  0
LWPOLYLINE
  5
108
330
1F
100
AcDbEntity
  8
0
100
AcDbPolyline
 90
        8
 70
     1
 43
0.0
 10
154.676961
 20
-67.891949
 10
157.379813
 20
-80.60786800000001
 42
0.414212294612436
 10
157.972842
 20
-80.992986
 10
171.27565
 20
-78.165387
 42
0.414213684165263
 10
171.660767
 20
-77.572357
 10
168.957915
 20
-64.856438
 42
0.4142134405809376
 10
168.364886
 20
-64.47131999999999
 10
155.062078
 20
-67.298919
 42
0.4142118434221443
  0
CIRCLE
  5
109
330
1F
100
AcDbEntity
  8
0
100
AcDbCircle
 10
159.212005
 20
-54.102521
 30
0.0
 40
0.9999980000000002
  0
CIRCLE
  5
110
330
1F
100
AcDbEntity
  8
0
100
AcDbCircle
 10
168.925366
 20
-98.352419
 30
0.0
 40
1.0
  0
CIRCLE
  5
111
330
1F
100
AcDbEntity
  8
0
100
AcDbCircle
 10
172.485762
 20
-70.75179199999998
 30
0.0
 40
1.000001
  0
LWPOLYLINE
  5
112
330
1F
100
AcDbEntity
  8
0
100
AcDbPolyline
 90
        8
 70
     1
 43
0.0
 10
162.739813
 20
-59.997868
 42
0.414212294612433
 10
163.332842
 20
-60.38298599999999
 10
176.63565
 20
-57.55538700000001
 42
0.4142136841652521
 10
177.0207669999999
 20
-56.962357
 10
174.317915
 20
-44.246438
 42
0.4142134405809376
 10
173.724886
 20
-43.86132
 10
160.422078
 20
-46.688919
 42
0.4142118434221238
 10
160.036961
 20
-47.281949
  0
LWPOLYLINE
  5
113
330
1F
100
AcDbEntity
  8
0
100
AcDbPolyline
 90
        8
 70
     1
 43
0.0
 10
173.69579
 20
-63.33820100000001
 42
0.4142118434221238
 10
173.310673
 20
-63.931231
 10
176.013525
 20
-76.64715
 42
0.4142122946124239
 10
176.606554
 20
-77.032268
 10
189.909362
 20
-74.204669
 42
0.414213684165263
 10
190.294479
 20
-73.611639
 10
187.591627
 20
-60.89572
 42
0.4142134405809641
 10
186.998598
 20
-60.51060200000001
  0
LWPOLYLINE
  5
114
330
1F
100
AcDbEntity
  8
0
100
AcDbPolyline
 90
        8
 70
     1
 43
0.0
 10
117.036474
 20
-76.647151
 10
119.739326
 20
-63.93123199999999
 42
0.4142136841652589
 10
119.354209
 20
-63.33820199999999
 10
106.051401
 20
-60.510603
 42
0.41421229461242
 10
105.458372
 20
-60.89572099999999
 10
102.75552
 20
-73.61164
 42
0.4142136841652528
 10
103.140637
 20
-74.20467
 10
116.443445
 20
-77.03226900000001
 42
0.4142134405809386
  0
LWPOLYLINE
  5
115
330
1F
100
AcDbEntity
  8
0
100
AcDbPolyline
 90
        8
 70
     1
 43
0.0
 10
124.685113
 20
-64.47132100000002
 42
0.4142122946124305
 10
124.092084
 20
-64.85643899999998
 10
121.389232
 20
-77.57235800000001
 42
0.4142136841652589
 10
121.774349
 20
-78.16538800000001
 10
135.077157
 20
-80.992987
 42
0.4142134405809131
 10
135.670186
 20
-80.607869
 10
138.373038
 20
-67.89195
 42
0.4142136841652376
 10
137.987921
 20
-67.29891999999998
  0
CIRCLE
  5
116
330
1F
100
AcDbEntity
  8
0
100
AcDbCircle
 10
133.848036
 20
-54.102517
 30
0.0
 40
1.0
  0
CIRCLE
  5
117
330
1F
100
AcDbEntity
  8
0
100
AcDbCircle
 10
120.56427
 20
-70.75179
 30
0.0
 40
0.9999970000000001
  0
LWPOLYLINE
  5
118
330
1F
100
AcDbEntity
  8
0
100
AcDbPolyline
 90
        8
 70
     1
 43
0.0
 10
126.584209
 20
-6.448201999999999
 10
113.281401
 20
-3.620603
 42
0.4142122946124269
 10
112.688372
 20
-4.005720999999999
 10
109.98552
 20
-16.72164
 42
0.414213684165264
 10
110.370637
 20
-17.31467
 10
123.673445
 20
-20.142269
 42
0.4142134405809341
 10
124.266474
 20
-19.757151
 10
126.969326
 20
-7.041231999999999
 42
0.4142136841652534
  0
LWPOLYLINE
  5
119
330
1F
100
AcDbEntity
  8
0
100
AcDbPolyline
 90
        8
 70
     1
 43
0.0
 10
172.753525
 20
-38.38715
 42
0.4142122946124184
 10
173.346554
 20
-38.772268
 10
186.649362
 20
-35.94466899999999
 42
0.4142136841652599
 10
187.034479
 20
-35.351639
 10
184.331627
 20
-22.63572
 42
0.4142134405809189
 10
183.738598
 20
-22.250602
 10
170.43579
 20
-25.078201
 42
0.4142118434221198
 10
170.050673
 20
-25.671231
  0
CIRCLE
  5
120
330
1F
100
AcDbEntity
  8
0
100
AcDbCircle
 10
169.225253
 20
-32.491899
 30
0.0
 40
0.9999990000000001
  0
LWPOLYLINE
  5
121
330
1F
100
AcDbEntity
  8
0
100
AcDbPolyline
 90
        8
 70
     1
 43
0.0
 10
168.01565
 20
-39.905387
 42
0.4142136841652364
 10
168.400767
 20
-39.31235700000001
 10
165.697915
 20
-26.596438
 42
0.4142134405809548
 10
165.104886
 20
-26.21132
 10
151.802078
 20
-29.038919
 42
0.4142118434221218
 10
151.416961
 20
-29.631949
 10
154.119813
 20
-42.34786800000001
 42
0.4142122946124349
 10
154.712842
 20
-42.732986
  0
LWPOLYLINE
  5
122
330
1F
100
AcDbEntity
  8
0
100
AcDbPolyline
 90
        8
 70
     1
 43
0.0
 10
142.307157
 20
-24.102987
 42
0.4142134405809579
 10
142.900186
 20
-23.717869
 10
145.603038
 20
-11.00195
 42
0.4142136841652763
 10
145.217921
 20
-10.40892
 10
131.915113
 20
-7.581321000000001
 42
0.414212294612434
 10
131.322084
 20
-7.966439000000001
 10
128.619232
 20
-20.682358
 42
0.4142136841652507
 10
129.004349
 20
-21.275388
  0
LWPOLYLINE
  5
123
330
1F
100
AcDbEntity
  8
0
100
AcDbPolyline
 90
        8
 70
     1
 43
0.0
 10
159.479813
 20
-21.737868
 42
0.4142122946124177
 10
160.072842
 20
-22.122986
 10
173.37565
 20
-19.295387
 42
0.4142136841652643
 10
173.760767
 20
-18.702357
 10
171.057915
 20
-5.986437999999998
 42
0.4142134405809313
 10
170.464886
 20
-5.601319999999999
 10
157.162078
 20
-8.428919
 42
0.4142118434221116
 10
156.776961
 20
-9.021949
  0
LWPOLYLINE
  5
124
330
1F
100
AcDbEntity
  8
0
100
AcDbPolyline
 90
        8
 70
     1
 43
0.0
 10
229.626022
 20
-31.979167
 10
216.323214
 20
-34.806766
 42
0.4142118434220974
 10
215.938097
 20
-35.39979599999999
 10
218.640949
 20
-48.11571499999999
 42
0.4142122946124271
 10
219.233978
 20
-48.50083300000001
 10
232.536786
 20
-45.673234
 42
0.4142136841652884
 10
232.921903
 20
-45.08020399999999
 10
230.219051
 20
-32.364285
 42
0.4142134405809516
  0
LWPOLYLINE
  5
125
330
1F
100
AcDbEntity
  8
0
100
AcDbPolyline
 90
        8
 70
     1
 43
0.0
 10
224.301903
 20
-27.430203
 10
221.599051
 20
-14.714284
 42
0.4142134405809569
 10
221.006022
 20
-14.329166
 10
207.703214
 20
-17.156765
 42
0.4142118434221208
 10
207.318097
 20
-17.749795
 10
210.020949
 20
-30.465714
 42
0.4142122946124306
 10
210.613978
 20
-30.850832
 10
223.916786
 20
-28.023233
 42
0.4142136841652403
  0
LWPOLYLINE
  5
126
330
1F
100
AcDbEntity
  8
0
100
AcDbPolyline
 90
        8
 70
     1
 43
0.0
 10
215.973977
 20
-10.240833
 10
229.276785
 20
-7.413234000000001
 42
0.4142136841652643
 10
229.661902
 20
-6.820203999999999
 10
226.95905
 20
5.895715
 42
0.4142134405809362
 10
226.366021
 20
6.280833
 10
213.063213
 20
3.453234
 42
0.4142118434221262
 10
212.678096
 20
2.860204
 10
215.380948
 20
-9.855715
 42
0.4142122946124384
  0
LWPOLYLINE
  5
127
330
1F
100
AcDbEntity
  8
0
100
AcDbPolyline
 90
        8
 70
     1
 43
0.0
 10
8.586249000000002
 20
-85.33999899999999
 10
22.186249
 20
-85.33999899999999
 42
0.4142135623730951
 10
22.686249
 20
-84.83999899999999
 10
22.686249
 20
-71.839999
 42
0.4142135623730951
 10
22.186249
 20
-71.33999899999999
 10
8.586249000000002
 20
-71.33999899999999
 42
0.4142123908030423
 10
8.086249
 20
-71.839999
 10
8.086249
 20
-84.83999899999999
 42
0.4142123908030527
  0
LWPOLYLINE
  5
128
330
1F
100
AcDbEntity
  8
0
100
AcDbPolyline
 90
        8
 70
     1
 43
0.0
 10
224.266021
 20
-52.589166
 10
210.963213
 20
-55.41676500000001
 42
0.4142118434221238
 10
210.578096
 20
-56.009795
 10
213.280948
 20
-68.725714
 42
0.4142122946124239
 10
213.873977
 20
-69.110832
 10
227.176785
 20
-66.28323299999998
 42
0.4142136841652609
 10
227.561902
 20
-65.690203
 10
224.85905
 20
-52.974284
 42
0.4142134405809419
  0
LWPOLYLINE
  5
129
330
1F
100
AcDbEntity
  8
0
100
AcDbPolyline
 90
        8
 70
     1
 43
0.0
 10
35.529999
 20
-66.264999
 10
9.529999
 20
-66.264999
 10
6.529999000000001
 20
-64.53299900000002
 10
6.529998999999998
 20
-52.814999
 42
-0.4142123908030469
 10
7.029999
 20
-52.314999
 10
38.029999
 20
-52.31499899999999
 42
-0.4142135623730951
 10
38.529999
 20
-52.814999
 10
38.529999
 20
-64.53299900000002
  0
LWPOLYLINE
  5
130
330
1F
100
AcDbEntity
  8
0
100
AcDbPolyline
 90
        8
 70
     1
 43
0.0
 10
10.370099
 20
-47.239999
 10
28.732499
 20
-47.239999
 42
0.4142135623730951
 10
29.232499
 20
-46.739999
 10
29.232499
 20
-33.739999
 42
0.4142135623730951
 10
28.732499
 20
-33.23999899999999
 10
10.370099
 20
-33.23999899999999
 42
0.4142123908030397
 10
9.870099
 20
-33.739999
 10
9.870099
 20
-46.739999
 42
0.4142123908030449
  0
LWPOLYLINE
  5
131
330
1F
100
AcDbEntity
  8
0
100
AcDbPolyline
 90
        8
 70
     1
 43
0.0
 10
111.686474
 20
-56.03715099999999
 10
114.389326
 20
-43.32123199999999
 42
0.4142136841652619
 10
114.004209
 20
-42.72820200000001
 10
100.701401
 20
-39.900603
 42
0.4142122946124138
 10
100.108372
 20
-40.285721
 10
97.40552000000001
 20
-53.00163999999999
 42
0.4142136841652579
 10
97.790637
 20
-53.59467000000001
 10
111.093445
 20
-56.422269
 42
0.4142134405809558
  0
LWPOLYLINE
  5
132
330
1F
100
AcDbEntity
  8
0
100
AcDbPolyline
 90
        8
 70
     1
 43
0.0
 10
6.800000000000001
 20
7.000000000000001
 10
-6.800000000000001
 20
7.000000000000001
 42
0.4142123908030482
 10
-7.3
 20
6.5
 10
-7.3
 20
-6.5
 42
0.4142123908030482
 10
-6.800000000000001
 20
-7.000000000000001
 10
6.800000000000001
 20
-7.000000000000001
 42
0.4142135623730951
 10
7.3
 20
-6.5
 10
7.3
 20
6.5
 42
0.4142135623730951
  0
LWPOLYLINE
  5
133
330
1F
100
AcDbEntity
  8
0
100
AcDbPolyline
 90
        8
 70
     1
 43
0.0
 10
229.076021
 20
-72.579167
 10
215.773213
 20
-75.40676599999999
 42
0.4142118434221299
 10
215.388096
 20
-75.999796
 10
218.090948
 20
-88.715715
 42
0.4142122946124381
 10
218.683977
 20
-89.100833
 10
231.986785
 20
-86.273234
 42
0.4142136841652713
 10
232.371902
 20
-85.680204
 10
229.66905
 20
-72.96428499999999
 42
0.4142134405809325
  0
LWPOLYLINE
  5
134
330
1F
100
AcDbEntity
  8
0
100
AcDbPolyline
 90
        8
 70
     1
 43
0.0
 10
81.47466
 20
-36.325003
 10
78.771808
 20
-49.040922
 42
0.4142136841652579
 10
79.156925
 20
-49.63395200000001
 10
92.45973300000001
 20
-52.461551
 42
0.4142134405809376
 10
93.052762
 20
-52.076433
 10
95.755614
 20
-39.36051399999999
 42
0.4142136841652523
 10
95.370497
 20
-38.767484
 10
82.067689
 20
-35.939885
 42
0.4142122946124285
  0
LWPOLYLINE
  5
135
330
1F
100
AcDbEntity
  8
0
100
AcDbPolyline
 90
        8
 70
     1
 43
0.0
 10
280.79
 20
-14.19
 10
267.19
 20
-14.19
 42
0.414212390803041
 10
266.69
 20
-14.69
 10
266.69
 20
-27.69
 42
0.4142123908030423
 10
267.19
 20
-28.19
 10
280.79
 20
-28.19
 42
0.4142135623730951
 10
281.29
 20
-27.69
 10
281.29
 20
-14.69
 42
0.4142135623730951
  0
CIRCLE
  5
136
330
1F
100
AcDbEntity
  8
0
100
AcDbCircle
 10
6.130013000000001
 20
-66.49000699999999
 30
0.0
 40
0.9999980000000002
  0
LWPOLYLINE
  5
137
330
1F
100
AcDbEntity
  8
0
100
AcDbPolyline
 90
        8
 70
     1
 43
0.0
 10
55.426249
 20
-46.739999
 10
55.426249
 20
-33.739999
 42
0.4142135623730951
 10
54.926249
 20
-33.23999899999999
 10
41.326249
 20
-33.23999899999999
 42
0.4142123908030397
 10
40.826249
 20
-33.739999
 10
40.826249
 20
-46.739999
 42
0.4142123908030449
 10
41.326249
 20
-47.239999
 10
54.926249
 20
-47.239999
 42
0.4142135623730951
  0
LWPOLYLINE
  5
138
330
1F
100
AcDbEntity
  8
0
100
AcDbPolyline
 90
        8
 70
     1
 43
0.0
 10
68.783977
 20
-52.58916800000001
 42
0.414212294612433
 10
68.19094799999999
 20
-52.974286
 10
65.488096
 20
-65.69020499999999
 42
0.4142136841652507
 10
65.87321299999999
 20
-66.28323499999999
 10
79.17602099999999
 20
-69.110834
 42
0.4142134405809343
 10
79.76905
 20
-68.72571599999999
 10
82.471902
 20
-56.009797
 42
0.414213684165263
 10
82.08678499999999
 20
-55.416767
  0
CIRCLE
  5
139
330
1F
100
AcDbEntity
  8
0
100
AcDbCircle
 10
146.428168
 20
-17.822555
 30
0.0
 40
1.000001
  0
LWPOLYLINE
  5
140
330
1F
100
AcDbEntity
  8
0
100
AcDbPolyline
 90
        8
 70
     1
 43
0.0
 10
84.121808
 20
-69.650922
 42
0.4142136841652507
 10
84.50692500000001
 20
-70.243952
 10
97.809733
 20
-73.071551
 42
0.4142134405809558
 10
98.402762
 20
-72.686433
 10
101.105614
 20
-59.97051399999999
 42
0.4142136841652488
 10
100.720497
 20
-59.377484
 10
87.417689
 20
-56.54988500000001
 42
0.4142122946124291
 10
86.82466
 20
-56.935003
  0
LWPOLYLINE
  5
141
330
1F
100
AcDbEntity
  8
0
100
AcDbPolyline
 90
        8
 70
     1
 43
0.0
 10
3.14
 20
-12.549999
 42
0.4142135623730951
 10
2.64
 20
-12.049999
 10
-10.96
 20
-12.049999
 42
0.4142123908030488
 10
-11.46
 20
-12.549999
 10
-11.46
 20
-25.549999
 42
0.4142123908030463
 10
-10.96
 20
-26.049999
 10
2.64
 20
-26.049999
 42
0.4142135623730947
 10
3.14
 20
-25.549999
  0
CIRCLE
  5
142
330
1F
100
AcDbEntity
  8
0
100
AcDbCircle
 10
5.861241000000001
 20
-78.340004
 30
0.0
 40
0.9999990000000001
  0
CIRCLE
  5
143
330
1F
100
AcDbEntity
  8
0
100
AcDbCircle
 10
9.332478
 20
-19.999368
 30
0.0
 40
0.9999959999999999
  0
LWPOLYLINE
  5
144
330
1F
100
AcDbEntity
  8
0
100
AcDbPolyline
 90
        8
 70
     1
 43
0.0
 10
-1.429999
 20
-45.099999
 42
0.4142135623730947
 10
-0.9299990000000001
 20
-44.599999
 10
-0.9299990000000001
 20
-31.599999
 42
0.4142135623730951
 10
-1.429999
 20
-31.099999
 10
-15.029999
 20
-31.099999
 42
0.4142123908030501
 10
-15.529999
 20
-31.599999
 10
-15.529999
 20
-44.599999
 42
0.4142123908030527
 10
-15.029999
 20
-45.099999
  0
LWPOLYLINE
  5
145
330
1F
100
AcDbEntity
  8
0
100
AcDbPolyline
 90
        8
 70
     1
 43
0.0
 10
74.41905
 20
-48.11571600000001
 10
77.12190199999999
 20
-35.399797
 42
0.414213684165257
 10
76.736785
 20
-34.806767
 10
63.43397700000001
 20
-31.979168
 42
0.4142122946124325
 10
62.840948
 20
-32.364286
 10
60.138096
 20
-45.080205
 42
0.414213684165268
 10
60.523213
 20
-45.673235
 10
73.826021
 20
-48.500834
 42
0.4142134405809386
  0
LWPOLYLINE
  5
146
330
1F
100
AcDbEntity
  8
0
100
AcDbPolyline
 90
        8
 70
     1
 43
0.0
 10
252.229999
 20
-46.73999999999999
 10
252.229999
 20
-33.74000000000001
 42
0.4142135623730951
 10
251.729999
 20
-33.24
 10
238.129999
 20
-33.24
 42
0.4142123908030449
 10
237.629999
 20
-33.74000000000001
 10
237.629999
 20
-46.73999999999999
 42
0.4142123908030449
 10
238.129999
 20
-47.23999999999999
 10
251.729999
 20
-47.23999999999999
 42
0.4142135623730951
  0
LWPOLYLINE
  5
147
330
1F
100
AcDbEntity
  8
0
100
AcDbPolyline
 90
        8
 70
     1
 43
0.0
 10
271.28
 20
-46.73999999999999
 10
271.28
 20
-33.74000000000001
 42
0.4142135623730951
 10
270.78
 20
-33.24
 10
257.1800000000001
 20
-33.24
 42
0.4142123908030658
 10
256.68
 20
-33.74000000000001
 10
256.68
 20
-46.73999999999999
 42
0.4142123908030658
 10
257.1800000000001
 20
-47.23999999999999
 10
270.78
 20
-47.23999999999999
 42
0.4142135623730951
  0
LWPOLYLINE
  5
148
330
1F
100
AcDbEntity
  8
0
100
AcDbPolyline
 90
        8
 70
     1
 43
0.0
 10
310.93625
 20
-33.765
 10
310.93625
 20
-45.483
 10
307.93625
 20
-47.215
 10
281.93625
 20
-47.215
 10
278.93625
 20
-45.483
 10
278.93625
 20
-33.765
 42
-0.4142123908030423
 10
279.43625
 20
-33.265
 10
310.43625
 20
-33.26499999999999
 42
-0.4142135623730951
  0
LWPOLYLINE
  5
149
330
1F
100
AcDbEntity
  8
0
100
AcDbPolyline
 90
        8
 70
     1
 43
0.0
 10
295.2656000000001
 20
-71.887999
 10
295.2656000000001
 20
-84.88799900000001
 42
0.4142123908030449
 10
295.7656
 20
-85.387999
 10
309.3656
 20
-85.387999
 42
0.4142135623730951
 10
309.8656
 20
-84.88799900000001
 10
309.8656
 20
-71.887999
 42
0.4142135623730951
 10
309.3656
 20
-71.387999
 10
295.7656
 20
-71.387999
 42
0.4142123908030501
  0
CIRCLE
  5
150
330
1F
100
AcDbEntity
  8
0
100
AcDbCircle
 10
7.644799
 20
-40.240002
 30
0.0
 40
1.0
  0
CIRCLE
  5
151
330
1F
100
AcDbEntity
  8
0
100
AcDbCircle
 10
271.7175
 20
-59.290004
 30
0.0
 40
1.000001
  0
LWPOLYLINE
  5
152
330
1F
100
AcDbEntity
  8
0
100
AcDbPolyline
 90
        8
 70
     1
 43
0.0
 10
232.27
 20
-52.79
 10
232.27
 20
-65.78999999999999
 42
0.4142123908030762
 10
232.77
 20
-66.28999999999999
 10
246.37
 20
-66.28999999999999
 42
0.4142135623730951
 10
246.87
 20
-65.78999999999999
 10
246.87
 20
-52.79
 42
0.4142135623730951
 10
246.37
 20
-52.29
 10
232.77
 20
-52.29
 42
0.4142123908030813
  0
CIRCLE
  5
153
330
1F
100
AcDbEntity
  8
0
100
AcDbCircle
 10
-9.525009
 20
0.0
 30
0.0
 40
1.000004
  0
CIRCLE
  5
154
330
1F
100
AcDbEntity
  8
0
100
AcDbCircle
 10
233.746895
 20
-38.259644
 30
0.0
 40
0.9999990000000001
  0
LWPOLYLINE
  5
155
330
1F
100
AcDbEntity
  8
0
100
AcDbPolyline
 90
        8
 70
     1
 43
0.0
 10
234.869999
 20
-7.000000000000001
 10
248.469999
 20
-7.000000000000001
 42
0.4142135623730951
 10
248.969999
 20
-6.5
 10
248.969999
 20
6.5
 42
0.4142135623730951
 10
248.469999
 20
7.000000000000001
 10
234.869999
 20
7.000000000000001
 42
0.4142123908030625
 10
234.369999
 20
6.5
 10
234.369999
 20
-6.5
 42
0.4142123908030625
  0
LWPOLYLINE
  5
156
330
1F
100
AcDbEntity
  8
0
100
AcDbPolyline
 90
        8
 70
     1
 43
0.0
 10
251.82
 20
-52.29
 42
0.4142123908030605
 10
251.32
 20
-52.79
 10
251.32
 20
-65.78999999999999
 42
0.4142123908030554
 10
251.82
 20
-66.28999999999999
 10
265.42
 20
-66.28999999999999
 42
0.4142135623730951
 10
265.92
 20
-65.78999999999999
 10
265.92
 20
-52.79
 42
0.4142135623730951
 10
265.42
 20
-52.29
  0
LWPOLYLINE
  5
157
330
1F
100
AcDbEntity
  8
0
100
AcDbPolyline
 90
        8
 70
     1
 43
0.0
 10
229.509999
 20
-13.129999
 42
0.414212390803041
 10
229.009999
 20
-13.629999
 10
229.009999
 20
-26.62999900000001
 42
0.4142123908030397
 10
229.509999
 20
-27.129999
 10
243.109999
 20
-27.129999
 42
0.4142135623730951
 10
243.609999
 20
-26.62999900000001
 10
243.609999
 20
-13.629999
 42
0.4142135623730951
 10
243.109999
 20
-13.129999
  0
CIRCLE
  5
158
330
1F
100
AcDbEntity
  8
0
100
AcDbCircle
 10
278.536254
 20
-47.440001
 30
0.0
 40
0.9999980000000002
  0
CIRCLE
  5
159
330
1F
100
AcDbEntity
  8
0
100
AcDbCircle
 10
293.040595
 20
-78.388002
 30
0.0
 40
0.9999940000000002
  0
LWPOLYLINE
  5
160
330
1F
100
AcDbEntity
  8
0
100
AcDbPolyline
 90
        8
 70
     1
 43
0.0
 10
74.366021
 20
-89.10083399999999
 42
0.4142134405809252
 10
74.95904999999999
 20
-88.71571600000001
 10
77.661902
 20
-75.999797
 42
0.4142136841652609
 10
77.27678499999999
 20
-75.406767
 10
63.973977
 20
-72.57916800000001
 42
0.414212294612433
 10
63.380948
 20
-72.964286
 10
60.678096
 20
-85.68020500000002
 42
0.4142136841652601
 10
61.063213
 20
-86.27323500000001
  0
LWPOLYLINE
  5
161
330
1F
100
AcDbEntity
  8
0
100
AcDbPolyline
 90
        8
 70
     1
 43
0.0
 10
247.639999
 20
-27.689999
 42
0.4142123908030397
 10
248.139999
 20
-28.189999
 10
261.739999
 20
-28.189999
 42
0.4142135623730951
 10
262.239999
 20
-27.689999
 10
262.239999
 20
-14.689999
 42
0.4142135623730951
 10
261.739999
 20
-14.189999
 10
248.139999
 20
-14.189999
 42
0.414212390803041
 10
247.639999
 20
-14.689999
  0
LWPOLYLINE
  5
162
330
1F
100
AcDbEntity
  8
0
100
AcDbPolyline
 90
        8
 70
     1
 43
0.0
 10
304.609999
 20
-28.19
 42
0.4142135623730951
 10
305.109999
 20
-27.69
 10
305.109999
 20
-14.69
 42
0.4142135623730951
 10
304.609999
 20
-14.19
 10
291.009999
 20
-14.19
 42
0.4142123908030618
 10
290.509999
 20
-14.69
 10
290.509999
 20
-27.69
 42
0.4142123908030632
 10
291.009999
 20
-28.19
  0
CIRCLE
  5
163
330
1F
100
AcDbEntity
  8
0
100
AcDbCircle
 10
174.585759
 20
-11.881792
 30
0.0
 40
1.0
  0
LWPOLYLINE
  5
164
330
1F
100
AcDbEntity
  8
0
100
AcDbPolyline
 90
        8
 70
     1
 43
0.0
 10
178.670673
 20
-43.321231
 10
181.373525
 20
-56.03715
 42
0.4142122946124349
 10
181.966554
 20
-56.422268
 10
195.269362
 20
-53.59466900000001
 42
0.4142136841652394
 10
195.654479
 20
-53.001639
 10
192.951627
 20
-40.28572
 42
0.4142134405809528
 10
192.358598
 20
-39.90060200000001
 10
179.05579
 20
-42.728201
 42
0.4142118434221443
  0
CIRCLE
  5
165
330
1F
100
AcDbEntity
  8
0
100
AcDbCircle
 10
311.330015
 20
-47.439995
 30
0.0
 40
0.9999980000000002
  0
CIRCLE
  5
166
330
1F
100
AcDbEntity
  8
0
100
AcDbCircle
 10
312.090643
 20
-78.388004
 30
0.0
 40
1.0
  0
LWPOLYLINE
  5
167
330
1F
100
AcDbEntity
  8
0
100
AcDbPolyline
 90
        8
 70
     1
 43
0.0
 10
76.036785
 20
-15.176767
 10
62.733977
 20
-12.349168
 42
0.4142122946124295
 10
62.14094799999999
 20
-12.734286
 10
59.43809599999999
 20
-25.450205
 42
0.4142136841652476
 10
59.82321299999999
 20
-26.043235
 10
73.126021
 20
-28.870834
 42
0.4142134405809428
 10
73.71905
 20
-28.485716
 10
76.421902
 20
-15.769797
 42
0.4142136841652581
  0
LWPOLYLINE
  5
168
330
1F
100
AcDbEntity
  8
0
100
AcDbPolyline
 90
        8
 70
     1
 43
0.0
 10
53.90999900000001
 20
-7.000000000000001
 10
67.509999
 20
-7.000000000000001
 42
0.4142135623730951
 10
68.009999
 20
-6.5
 10
68.009999
 20
6.5
 42
0.4142135623730951
 10
67.509999
 20
7.000000000000001
 10
53.90999900000001
 20
7.000000000000001
 42
0.4142123908030521
 10
53.409999
 20
6.5
 10
53.409999
 20
-6.5
 42
0.4142123908030521
  0
CIRCLE
  5
169
330
1F
100
AcDbEntity
  8
0
100
AcDbCircle
 10
285.896291
 20
-21.190002
 30
0.0
 40
1.000001
  0
CIRCLE
  5
170
330
1F
100
AcDbEntity
  8
0
100
AcDbCircle
 10
230.487031
 20
0.000389
 30
0.0
 40
1.000002
  0
LWPOLYLINE
  5
171
330
1F
100
AcDbEntity
  8
0
100
AcDbPolyline
 90
        8
 70
     1
 43
0.0
 10
78.07180799999999
 20
-29.410922
 42
0.4142136841652593
 10
78.456925
 20
-30.003952
 10
91.75973300000001
 20
-32.83155099999999
 42
0.4142134405809355
 10
92.352762
 20
-32.446433
 10
95.05561400000002
 20
-19.730514
 42
0.4142136841652517
 10
94.67049700000001
 20
-19.137484
 10
81.367689
 20
-16.309885
 42
0.4142122946124279
 10
80.77466
 20
-16.695003
  0
LWPOLYLINE
  5
172
330
1F
100
AcDbEntity
  8
0
100
AcDbPolyline
 90
        8
 70
     1
 43
0.0
 10
267.599999
 20
4.359999999999999
 42
0.4142135623730951
 10
267.099999
 20
4.859999999999999
 10
253.499999
 20
4.859999999999999
 42
0.414212390803042
 10
252.999999
 20
4.359999999999999
 10
252.999999
 20
-8.639999999999999
 42
0.4142123908030423
 10
253.499999
 20
-9.139999999999999
 10
267.099999
 20
-9.139999999999999
 42
0.4142135623730951
 10
267.599999
 20
-8.639999999999999
  0
LWPOLYLINE
  5
173
330
1F
100
AcDbEntity
  8
0
100
AcDbPolyline
 90
        8
 70
     1
 43
0.0
 10
110.393445
 20
-36.792269
 42
0.4142134405809351
 10
110.986474
 20
-36.407151
 10
113.689326
 20
-23.691232
 42
0.4142136841652527
 10
113.304209
 20
-23.098202
 10
100.001401
 20
-20.270603
 42
0.414212294612431
 10
99.40837200000001
 20
-20.655721
 10
96.70552
 20
-33.37164
 42
0.414213684165265
 10
97.09063700000002
 20
-33.96467
  0
LWPOLYLINE
  5
174
330
1F
100
AcDbEntity
  8
0
100
AcDbPolyline
 90
        8
 70
     1
 43
0.0
 10
197.304385
 20
-39.360513
 10
200.007237
 20
-52.076432
 42
0.4142122946124338
 10
200.600266
 20
-52.46155
 10
213.903074
 20
-49.633951
 42
0.414213684165268
 10
214.288191
 20
-49.040921
 10
211.585339
 20
-36.325002
 42
0.4142134405809307
 10
210.99231
 20
-35.939884
 10
197.689502
 20
-38.767483
 42
0.4142118434221218
  0
LWPOLYLINE
  5
175
330
1F
100
AcDbEntity
  8
0
100
AcDbPolyline
 90
        8
 70
     1
 43
0.0
 10
60.28624900000001
 20
-52.28999899999999
 10
46.686249
 20
-52.28999899999999
 42
0.4142123908030449
 10
46.186249
 20
-52.78999899999999
 10
46.186249
 20
-65.78999899999998
 42
0.4142123908030554
 10
46.686249
 20
-66.28999899999998
 10
60.28624900000001
 20
-66.28999899999998
 42
0.4142135623730951
 10
60.78624900000001
 20
-65.78999899999998
 10
60.78624900000001
 20
-52.78999899999999
 42
0.4142135623730951
  0
CIRCLE
  5
176
330
1F
100
AcDbEntity
  8
0
100
AcDbCircle
 10
233.196897
 20
-78.859641
 30
0.0
 40
0.9999970000000001
  0
LWPOLYLINE
  5
177
330
1F
100
AcDbEntity
  8
0
100
AcDbPolyline
 90
        8
 70
     1
 43
0.0
 10
205.668191
 20
-31.390921
 10
202.965339
 20
-18.675002
 42
0.4142134405809523
 10
202.37231
 20
-18.289884
 10
189.069502
 20
-21.117483
 42
0.4142118434221443
 10
188.684385
 20
-21.710513
 10
191.387237
 20
-34.426432
 42
0.4142122946124325
 10
191.980266
 20
-34.81155
 10
205.283074
 20
-31.98395099999999
 42
0.4142136841652421
  0
CIRCLE
  5
178
330
1F
100
AcDbEntity
  8
0
100
AcDbCircle
 10
59.85314000000001
 20
-78.85963799999999
 30
0.0
 40
0.9999980000000002
  0
CIRCLE
  5
179
330
1F
100
AcDbEntity
  8
0
100
AcDbCircle
 10
77.946893
 20
-42.220366
 30
0.0
 40
0.9999970000000001
  0
CIRCLE
  5
180
330
1F
100
AcDbEntity
  8
0
100
AcDbCircle
 10
201.00861
 20
-91.532912
 30
0.0
 40
0.9999990000000001
  0
LWPOLYLINE
  5
181
330
1F
100
AcDbEntity
  8
0
100
AcDbPolyline
 90
        8
 70
     1
 43
0.0
 10
54.732499
 20
-27.689999
 10
54.732499
 20
-14.689999
 42
0.4142135623730951
 10
54.232499
 20
-14.189999
 10
40.632499
 20
-14.189999
 42
0.4142123908030463
 10
40.132499
 20
-14.689999
 10
40.132499
 20
-27.689999
 42
0.4142123908030449
 10
40.632499
 20
-28.189999
 10
54.232499
 20
-28.189999
 42
0.4142135623730951
  0
LWPOLYLINE
  5
182
330
1F
100
AcDbEntity
  8
0
100
AcDbPolyline
 90
        8
 70
     1
 43
0.0
 10
208.543074
 20
-70.24395099999998
 42
0.4142136841652619
 10
208.928191
 20
-69.650921
 10
206.225339
 20
-56.935002
 42
0.4142134405809325
 10
205.63231
 20
-56.54988400000001
 10
192.329502
 20
-59.377483
 42
0.4142118434221198
 10
191.944385
 20
-59.970513
 10
194.647237
 20
-72.686432
 42
0.4142122946124389
 10
195.240266
 20
-73.07155
  0
LWPOLYLINE
  5
183
330
1F
100
AcDbEntity
  8
0
100
AcDbPolyline
 90
        8
 70
     1
 43
0.0
 10
30.91999899999999
 20
-27.689999
 10
30.91999899999999
 20
-14.689999
 42
0.4142135623730951
 10
30.419999
 20
-14.189999
 10
16.819999
 20
-14.189999
 42
0.4142123908030476
 10
16.319999
 20
-14.689999
 10
16.319999
 20
-27.689999
 42
0.4142123908030463
 10
16.819999
 20
-28.189999
 10
30.419999
 20
-28.189999
 42
0.4142135623730951
  0
CIRCLE
  5
184
330
1F
100
AcDbEntity
  8
0
100
AcDbCircle
 10
114.514275
 20
-30.511791
 30
0.0
 40
0.9999990000000001
  0
LWPOLYLINE
  5
185
330
1F
100
AcDbEntity
  8
0
100
AcDbPolyline
 90
        8
 70
     1
 43
0.0
 10
105.632762
 20
-15.796433
 10
108.335614
 20
-3.080514000000001
 42
0.4142136841652645
 10
107.950497
 20
-2.487484
 10
94.64768900000001
 20
0.3401149999999997
 42
0.4142122946124371
 10
94.05466000000001
 20
-0.045003
 10
91.351808
 20
-12.760922
 42
0.414213684165263
 10
91.73692500000001
 20
-13.353952
 10
105.039733
 20
-16.181551
 42
0.4142134405809487
  0
LWPOLYLINE
  5
186
330
1F
100
AcDbEntity
  8
0
100
AcDbPolyline
 90
        8
 70
     1
 43
0.0
 10
89.31678500000001
 20
1.473233
 10
76.013977
 20
4.300832
 42
0.4142122946124279
 10
75.420948
 20
3.915714
 10
72.718096
 20
-8.800205000000002
 42
0.4142136841652588
 10
73.103213
 20
-9.393235
 10
86.40602100000001
 20
-12.220834
 42
0.4142134405809443
 10
86.99905
 20
-11.835716
 10
89.70190199999999
 20
0.8802029999999994
 42
0.4142136841652541
  0
CIRCLE
  5
187
330
1F
100
AcDbEntity
  8
0
100
AcDbCircle
 10
24.915046
 20
-78.340008
 30
0.0
 40
0.9999959999999999
  0
CIRCLE
  5
188
330
1F
100
AcDbEntity
  8
0
100
AcDbCircle
 10
38.929998
 20
-66.48999700000002
 30
0.0
 40
0.9999980000000002
  0
CIRCLE
  5
189
330
1F
100
AcDbEntity
  8
0
100
AcDbCircle
 10
58.61313699999999
 20
-18.62964
 30
0.0
 40
1.0
  0
LWPOLYLINE
  5
190
330
1F
100
AcDbEntity
  8
0
100
AcDbPolyline
 90
        8
 70
     1
 43
0.0
 10
175.79579
 20
-4.468201
 42
0.4142118434221261
 10
175.410673
 20
-5.061230999999999
 10
178.113525
 20
-17.77715
 42
0.4142122946124384
 10
178.706554
 20
-18.162268
 10
192.009362
 20
-15.334669
 42
0.4142136841652643
 10
192.394479
 20
-14.741639
 10
189.691627
 20
-2.02572
 42
0.4142134405809205
 10
189.098598
 20
-1.640602
  0
CIRCLE
  5
191
330
1F
100
AcDbEntity
  8
0
100
AcDbCircle
 10
206.4931759999999
 20
-24.57036
 30
0.0
 40
0.9999980000000002
  0
LWPOLYLINE
  5
192
330
1F
100
AcDbEntity
  8
0
100
AcDbPolyline
 90
        8
 70
     1
 43
0.0
 10
196.747237
 20
-13.816432
 42
0.4142122946124384
 10
197.340266
 20
-14.20155
 10
210.643074
 20
-11.373951
 42
0.4142136841652442
 10
211.028191
 20
-10.780921
 10
208.325339
 20
1.934997999999999
 42
0.4142134405809375
 10
207.73231
 20
2.320116
 10
194.429502
 20
-0.5074829999999999
 42
0.4142118434221423
 10
194.044385
 20
-1.100513
  0
CIRCLE
  5
193
330
1F
100
AcDbEntity
  8
0
100
AcDbCircle
 10
209.75328
 20
-62.83033700000001
 30
0.0
 40
1.000001
  0
CIRCLE
  5
194
330
1F
100
AcDbEntity
  8
0
100
AcDbCircle
 10
32.545039
 20
-2.139999
 30
0.0
 40
1.0
  0
LWPOLYLINE
  5
195
330
1F
100
AcDbEntity
  8
0
100
AcDbPolyline
 90
        8
 70
     1
 43
0.0
 10
29.819999
 20
-9.139999
 42
0.4142135623730951
 10
30.319999
 20
-8.639999
 10
30.319999
 20
4.360001
 42
0.4142135623730951
 10
29.819999
 20
4.860001
 10
16.219999
 20
4.860001
 42
0.4142123908030476
 10
15.719999
 20
4.360001
 10
15.719999
 20
-8.639999
 42
0.4142123908030482
 10
16.219999
 20
-9.139999
  0
LWPOLYLINE
  5
196
330
1F
100
AcDbEntity
  8
0
100
AcDbPolyline
 90
        8
 70
     1
 43
0.0
 10
35.269999
 20
4.860001
 42
0.4142123908030514
 10
34.769999
 20
4.360001
 10
34.769999
 20
-8.639999
 42
0.4142123908030521
 10
35.269999
 20
-9.139999
 10
48.869999
 20
-9.139999
 42
0.4142135623730951
 10
49.369999
 20
-8.639999
 10
49.369999
 20
4.360001
 42
0.4142135623730951
 10
48.869999
 20
4.860001
  0
CIRCLE
  5
197
330
1F
100
AcDbEntity
  8
0
100
AcDbCircle
 10
90.526893
 20
-5.940363
 30
0.0
 40
0.9999990000000001
  0
LWPOLYLINE
  5
198
330
1F
100
AcDbEntity
  8
0
100
AcDbPolyline
 90
       16
 70
     1
 43
0.0
 10
195.793211994004
 20
-99.79274015112782
 10
167.0397394033759
 20
-105.9044866765136
 42
-0.0524053678826744
 10
166.357789407751
 20
-105.9761657447306
 10
135.92220938759
 20
-105.9761674585413
 42
-0.0524118674402712
 10
135.2402593064378
 20
-105.9044967388197
 10
106.48674422463
 20
-99.7927513465863
 42
0.4142030487843927
 10
105.893753898013
 20
-100.177877702764
 10
105.685842
 20
-101.156024
 42
0.4142053396233086
 10
106.0709412684209
 20
-101.7491420799672
 10
134.824390672649
 20
-107.860856449613
 42
0.0524103462938794
 10
135.922165748512
 20
-107.9762326755984
 10
166.357769012217
 20
-107.976218283118
 42
0.0524033512258159
 10
167.455543047454
 20
-107.8608411502578
 10
196.20904755681
 20
-101.749093943703
 42
0.4142873399838735
 10
196.5941664608772
 20
-101.156063823905
 10
196.386246
 20
-100.177877
 42
0.4142111705395567
  0
LWPOLYLINE
  5
199
330
1F
100
AcDbEntity
  8
0
100
AcDbPolyline
 90
        8
 70
     1
 43
0.0
 10
200.2988360000001
 20
-99.34623000000002
 42
0.4142970638378826
 10
199.7058216049901
 20
-98.96118063946658
 10
197.749516965794
 20
-99.37696306990361
 42
0.4142105474736144
 10
197.364393
 20
-99.96996500000002
 10
197.780224556274
 20
-101.926295549418
 42
0.414234791351806
 10
198.3732470002613
 20
-102.3113780010961
 10
200.3295420000001
 20
-101.895555
 42
0.4142854978935139
 10
200.7146604719004
 20
-101.3025248995784
  0
LWPOLYLINE
  5
200
330
1F
100
AcDbEntity
  8
0
100
AcDbPolyline
 90
       58
 70
     1
 43
0.0
 10
162.297913392288
 20
-112.696177936997
 42
0.0524074090330442
 10
172.693497387663
 20
-111.603554405153
 10
241.573679892155
 20
-96.96261927500645
 42
-0.0524088018902479
 10
251.969264137326
 20
-95.86999997431548
 10
319.03875
 20
-95.86999996963755
 10
319.03875
 20
-91.168
 10
315.13875
 20
-91.168
 10
315.1387499999999
 20
-91.37
 42
-0.9999999999999999
 10
311.9387500000001
 20
-91.37
 10
311.9387500000001
 20
-91.1679934803727
 10
306.186527871159
 20
-91.16799359821579
 42
-0.4142739045845288
 10
305.686527941793
 20
-90.668040539464
 10
305.6865280104612
 20
-89.6680000049008
 42
-0.4141825176817125
 10
306.186528013245
 20
-89.16800300736043
 10
319.03875
 20
-89.16799999999998
 42
0.4142182782516081
 10
321.3367309998471
 20
-86.8700000003772
 10
321.3367498138766
 20
8.53002111760715
 42
0.414185651140284
 10
319.038749661613
 20
10.8279839685688
 10
305.978750235784
 20
10.82798462436506
 42
-0.4141075574151165
 10
305.4787872541551
 20
11.3279846548031
 10
305.478750268318
 20
12.279999959264
 42
-0.4142504658761354
 10
305.9787502669669
 20
12.78008096425058
 10
311.9387500000001
 20
12.7799999583723
 10
311.9387500000001
 20
13.03
 42
-0.9999999999999999
 10
315.13875
 20
13.03
 10
315.13875
 20
12.78
 10
319.03875
 20
12.78
 10
319.0387499999999
 20
17.53
 10
-16.75875
 20
17.53
 10
-16.75875
 20
12.78
 10
-12.85875
 20
12.78
 10
-12.85875
 20
13.03
 42
-0.9999999999999999
 10
-9.658750000000003
 20
13.03
 10
-9.658750000000001
 20
12.7799971161931
 10
-3.200032868556191
 20
12.77999665253679
 42
-0.4141731463826219
 10
-2.7000450922576
 20
12.2799974271806
 10
-2.700030794328789
 20
11.2800033362973
 42
-0.41420594447752
 10
-3.19996273138303
 20
10.7800042761888
 10
-16.7587493074764
 20
10.78000273919759
 42
0.4142139528750927
 10
-19.0087494741102
 20
8.530001906003601
 10
-19.008750040345
 20
-72.87
 10
-13.2600000000001
 20
-72.87000000076094
 42
-0.4141893049457328
 10
-12.7600129990802
 20
-73.37002758730702
 10
-12.7600000000004
 20
-89.1199995282586
 10
-3.000030277464711
 20
-89.11999930317208
 42
-0.4141731463833243
 10
-2.500043444271679
 20
-89.61999947161159
 10
-2.500030780923146
 20
-90.62000064095359
 42
-0.4142059444846112
 10
-2.99996157355974
 20
-91.12000084532964
 10
-9.658750000000001
 20
-91.1200007110218
 10
-9.658749999999996
 20
-91.37
 42
-0.9999999999999999
 10
-12.85875
 20
-91.37
 10
-12.85875
 20
-91.12
 10
-16.75875
 20
-91.12
 10
-16.75875000000001
 20
-95.87000001737692
 10
50.31073630962656
 20
-95.86999983329167
 42
-0.0524070094040028
 10
60.70632033049971
 20
-96.96261975359123
 10
129.5865014579449
 20
-111.6035635465013
 42
0.0524076265410608
 10
139.982087378353
 20
-112.6961745312002
  0
LWPOLYLINE
  5
201
330
1F
100
AcDbEntity
  8
0
100
AcDbPolyline
 90
       12
 70
     1
 43
0.0
 10
227.9730600000001
 20
12.78
 10
299.57875
 20
12.78000000000037
 42
-0.4140853082488278
 10
300.078786991897
 20
12.28000000946651
 10
300.07875
 20
11.2799999999877
 42
-0.4142352372112945
 10
299.578749999674
 20
10.77998099929701
 10
228.183268000238
 20
10.78001086786272
 42
0.0524676264118496
 10
228.079312000029
 20
10.76907400000616
 10
194.4989439999731
 20
3.631345999993969
 42
-0.4141289598444658
 10
193.905963028594
 20
4.016445715553588
 10
193.6979196847264
 20
4.994594285456655
 42
-0.4142972395121125
 10
194.083121
 20
5.587641
 10
227.873246951701
 20
12.76993462570278
 42
-0.0503950706697854
  0
LWPOLYLINE
  5
202
330
1F
100
AcDbEntity
  8
0
100
AcDbPolyline
 90
        8
 70
     1
 43
0.0
 10
191.681701999982
 20
6.304012999991665
 10
189.725418285722
 20
5.88813589823764
 42
0.4141963660235561
 10
189.340289
 20
5.295159999999997
 10
189.7977385385708
 20
3.143244472579212
 42
0.4141162451134062
 10
190.390723999992
 20
2.758116999998347
 10
192.347004505247
 20
3.17388284110606
 42
0.4142449997334639
 10
192.7321369993283
 20
3.766969999893072
 10
192.2747320000001
 20
5.918895000000001
 42
0.4143617520921727
  0
LWPOLYLINE
  5
203
330
1F
100
AcDbEntity
  8
0
100
AcDbPolyline
 90
       11
 70
     1
 43
0.0
 10
106.877676
 20
3.907176999999995
 10
65.185729
 20
12.769074
 42
0.0524684718313944
 10
65.08177300199948
 20
12.77999484039514
 10
3.199999994335068
 20
12.7799309991034
 42
0.4142211749065479
 10
2.700000000000001
 20
12.28000000002821
 10
2.699986999102993
 20
11.2800000007563
 42
0.4142539849367586
 10
3.200000000025951
 20
10.78
 10
64.924116
 20
10.78
 10
106.461853
 20
1.950882
 42
0.4140923942635372
 10
107.0548830000127
 20
2.33599900003651
 10
107.262784007495
 20
3.31414912303434
 42
0.4141572004768943
  0
LWPOLYLINE
  5
204
330
1F
100
AcDbEntity
  8
0
100
AcDbPolyline
 90
       16
 70
     1
 43
0.0
 10
100.6178980000051
 20
-98.54528900000106
 10
56.3268052776539
 20
-89.13092469247003
 42
0.0523102935570401
 10
56.22284899996252
 20
-89.11999999999998
 10
2.999999994335072
 20
-89.12006900089663
 42
0.4142375784718287
 10
2.499999999215935
 20
-89.620028
 10
2.5
 20
-90.62
 42
0.4142616026670267
 10
3.0
 20
-91.11999999999966
 10
56.0126400004841
 20
-91.11999884165995
 42
-0.0523311709024812
 10
56.116596
 20
-91.130926
 10
77.532183
 20
-95.68295
 10
77.4802325293682
 20
-95.92749185115
 42
0.9999872682617389
 10
80.61027699999775
 20
-96.59280400001059
 10
80.662255
 20
-96.34826700000004
 10
100.202079226938
 20
-100.501564119998
 42
0.4142385810644482
 10
100.795104
 20
-100.116466
 10
101.003104419958
 20
-99.1383367829616
 42
0.4141954688405093
  0
LWPOLYLINE
  5
205
330
1F
100
AcDbEntity
  8
0
100
AcDbPolyline
 90
       16
 70
     1
 43
0.0
 10
224.8023652357761
 20
-95.93957794612595
 10
224.747817
 20
-95.68295
 10
245.937581
 20
-91.17892600000002
 42
-0.0523307227483706
 10
246.041536997682
 20
-91.16799032975395
 10
299.778749999674
 20
-91.168019000703
 42
0.4142352372184955
 10
300.27875
 20
-90.668
 10
300.2787869918961
 20
-89.6679999914831
 42
0.4140853082636844
 10
299.778749999976
 20
-89.16800000094818
 10
245.831329000068
 20
-89.1680006936844
 42
0.0502529575220968
 10
245.7315166391911
 20
-89.17806386982821
 10
201.662102393118
 20
-98.54530116163082
 42
0.4141135101981774
 10
201.2769848462405
 20
-99.13833004161141
 10
201.484936117878
 20
-100.116457960015
 42
0.4141158798957106
 10
202.07792344681
 20
-100.5015848260632
 10
221.6177451108061
 20
-96.34826752129932
 10
221.669723
 20
-96.592804
 42
0.9960730603866161
  0
LWPOLYLINE
  5
206
330
1F
100
AcDbEntity
  8
0
100
AcDbPolyline
 90
       12
 70
     1
 43
0.0
 10
146.631372000028
 20
-4.49853899999405
 10
187.8229761239292
 20
4.257006145583235
 42
-0.4142136068475271
 10
188.416005780152
 20
3.8718881081437
 10
188.6239172516518
 20
2.893740742230408
 42
-0.4142135172405323
 10
188.238799273789
 20
2.300711176288929
 10
146.625158103548
 20
-6.544540804388993
 42
-0.0995092052630712
 10
146.428149
 20
-6.544217
 10
112.721998000027
 20
0.6202469999940862
 42
-0.4141170457945847
 10
112.336899734348
 20
1.213271808339392
 10
112.5447910000071
 20
2.191424000033127
 42
-0.4143336741946395
 10
113.137811502401
 20
2.576497372293276
 10
146.423459999972
 20
-4.498538999994063
 42
0.1051022441689447
  0
CIRCLE
  5
207
330
1F
100
AcDbEntity
  8
0
100
AcDbCircle
 10
95.67375
 20
13.03
 30
0.0
 40
1.6
  0
LWPOLYLINE
  5
208
330
1F
100
AcDbEntity
  8
0
100
AcDbPolyline
 90
        8
 70
     1
 43
0.0
 10
101.56534
 20
-101.302525
 42
0.4142034989077257
 10
101.95043919445
 20
-101.895643426278
 10
103.906693734787
 20
-102.311459233268
 42
0.4142527992430904
 10
104.4997639243561
 20
-101.926350120846
 10
104.915607
 20
-99.96996500000002
 42
0.4141535829018159
 10
104.530496169004
 20
-99.37690129521009
 10
102.574198476018
 20
-98.96108594754422
 42
0.4141743370121544
 10
101.9811710566239
 20
-99.34619699022478
  0
LWPOLYLINE
  5
209
330
1F
100
AcDbEntity
  8
0
100
AcDbPolyline
 90
        8
 70
     1
 43
0.0
 10
301.2787500000001
 20
11.28
 42
0.4141075567875677
 10
301.778749990912
 20
10.77996300669752
 10
303.7787682477239
 20
10.7800000000045
 42
0.4142245472363408
 10
304.2787309992971
 20
11.2799999989357
 10
304.278786991897
 20
13.4800000094665
 42
0.4140853082634857
 10
303.778749999975
 20
13.98000000000006
 10
301.778749998564
 20
13.9800810051029
 42
0.4142504658756619
 10
301.2787500000001
 20
13.4800000000322
  0
LWPOLYLINE
  5
210
330
1F
100
AcDbEntity
  8
0
100
AcDbPolyline
 90
        8
 70
     1
 43
0.0
 10
-1.499999951059799
 20
13.4882816161273
 10
-1.500013000897007
 20
11.2800000007563
 42
0.4142539849215588
 10
-1.0
 20
10.78
 10
1.0
 20
10.78
 42
0.4142059443359129
 10
1.499931000897284
 20
11.2799999958903
 10
1.49999999999999
 20
13.4800000001778
 42
0.4141731462581464
 10
1.00000000108965
 20
13.98001299910298
 10
-1.00000000002331
 20
13.98
 42
0.409378219185621
  0
LWPOLYLINE
  5
211
330
1F
100
AcDbEntity
  8
0
100
AcDbPolyline
 90
        8
 70
     1
 43
0.0
 10
-1.00000479442163
 20
-89.12000159814481
 42
0.4142211749269647
 10
-1.500072996247269
 20
-89.62000239346003
 10
-1.500071180215936
 20
-91.6200118226007
 42
0.414253986287008
 10
-1.00007075909009
 20
-92.11999840185914
 10
0.999999999998915
 20
-92.119998401859
 42
0.4142059444797243
 10
1.499930201824901
 20
-91.6199976067635
 10
1.49991562306397
 20
-89.61999804206832
 42
0.4141731451686026
 10
0.9999281964194001
 20
-89.11999846913916
  0
LWPOLYLINE
  5
212
330
1F
100
AcDbEntity
  8
0
100
AcDbPolyline
 90
        8
 70
     1
 43
0.0
 10
301.2787500000001
 20
-91.668
 42
0.4106125326977607
 10
301.772774648966
 20
-92.16799999255458
 10
304.1865583770191
 20
-92.1680030001894
 42
0.4142303302441854
 10
304.6865339994057
 20
-91.66800000003565
 10
304.686487004841
 20
-89.6680000026526
 42
0.41415323258973
 10
304.186534
 20
-89.16799999999998
 10
301.778749998564
 20
-89.16791899489712
 42
0.4142504658756294
 10
301.2787500000001
 20
-89.6679999999678
  0
LWPOLYLINE
  5
213
330
1F
100
AcDbEntity
  8
0
100
AcDbPolyline
 90
        8
 70
     1
 43
0.0
 10
111.620543141961
 20
3.61468753714128
 42
0.4141258249475867
 10
111.235389999958
 20
4.207725000008934
 10
109.279099610657
 20
4.62356969581986
 42
0.4142031488684584
 10
108.686065
 20
4.238430000000001
 10
108.2286531089067
 20
2.086506464326453
 42
0.4141856952043602
 10
108.613777999967
 20
1.493476000007016
 10
110.570071953147
 20
1.07764707677036
 42
0.4142644997416611
 10
111.1631020000058
 20
1.462770000027533
  0
CIRCLE
  5
214
330
1F
100
AcDbEntity
  8
0
100
AcDbCircle
 10
206.60625
 20
13.03
 30
0.0
 40
1.6
  0
CIRCLE
  5
215
330
1F
100
AcDbEntity
  8
0
100
AcDbCircle
 10
31.457499
 20
-40.239999
 30
0.0
 40
0.9999999999999993
  0
CIRCLE
  5
1004B
330
1F
100
AcDbEntity
  8
0
100
AcDbCircle
 10
269.824964
 20
-2.139992
 30
0.0
 40
0.9999980000000002
  0
CIRCLE
  5
1004C
330
1F
100
AcDbEntity
  8
0
100
AcDbCircle
 10
307.925077
 20
-2.139999
 30
0.0
 40
0.9999940000000002
  0
LWPOLYLINE
  5
1004D
330
1F
100
AcDbEntity
  8
0
100
AcDbPolyline
 90
        8
 70
     1
 43
0.0
 10
272.0499990000001
 20
4.359999
 10
272.0499990000001
 20
-8.640001
 42
0.414212390803041
 10
272.549999
 20
-9.140001
 10
286.1499989999999
 20
-9.140001
 42
0.4142135623730951
 10
286.6499989999999
 20
-8.640001
 10
286.6499989999999
 20
4.359999
 42
0.4142135623730954
 10
286.1499989999999
 20
4.859999
 10
272.549999
 20
4.859999
 42
0.4142123908030413
  0
LWPOLYLINE
  5
1004E
330
1F
100
AcDbEntity
  8
0
100
AcDbPolyline
 90
        8
 70
     1
 43
0.0
 10
291.099999
 20
4.359999999999999
 10
291.099999
 20
-8.639999999999999
 42
0.4142123908030839
 10
291.599999
 20
-9.139999999999999
 10
305.199999
 20
-9.139999999999999
 42
0.4142135623730951
 10
305.699999
 20
-8.639999999999999
 10
305.699999
 20
4.359999999999999
 42
0.4142135623730951
 10
305.199999
 20
4.859999999999999
 10
291.599999
 20
4.859999999999999
 42
0.4142123908030836
  0
CIRCLE
  5
1004F
330
1F
100
AcDbEntity
  8
0
100
AcDbCircle
 10
277.940016
 20
-66.490003
 30
0.0
 40
0.9999970000000001
  0
CIRCLE
  5
10050
330
1F
100
AcDbEntity
  8
0
100
AcDbCircle
 10
310.740003
 20
-66.490003
 30
0.0
 40
0.9999980000000002
  0
LWPOLYLINE
  5
10051
330
1F
100
AcDbEntity
  8
0
100
AcDbPolyline
 90
        8
 70
     1
 43
0.0
 10
278.340002
 20
-52.815002
 10
278.340002
 20
-64.533002
 10
281.340002
 20
-66.26500199999998
 10
307.340002
 20
-66.26500199999998
 10
310.340002
 20
-64.533002
 10
310.340002
 20
-52.815002
 42
0.4142135623730951
 10
309.840002
 20
-52.315002
 10
278.840002
 20
-52.315002
 42
0.4142123908030605
  0
CIRCLE
  5
10052
330
1F
100
AcDbEntity
  8
0
100
AcDbCircle
 10
87.180219
 20
-90.49454
 30
0.0
 40
0.9999990000000001
  0
CIRCLE
  5
10053
330
1F
100
AcDbEntity
  8
0
100
AcDbCircle
 10
119.263487
 20
-97.31404900000001
 30
0.0
 40
1.0
  0
LWPOLYLINE
  5
10054
330
1F
100
AcDbEntity
  8
0
100
AcDbPolyline
 90
        8
 70
     1
 43
0.0
 10
126.913212
 20
-98.733235
 10
140.21602
 20
-101.560834
 42
0.4142134405809517
 10
140.809049
 20
-101.175716
 10
143.511901
 20
-88.459797
 42
0.4142136841652589
 10
143.126784
 20
-87.866767
 10
129.823976
 20
-85.03916799999999
 42
0.4142122946124177
 10
129.230947
 20
-85.424286
 10
126.528095
 20
-98.140205
 42
0.4142136841652467
  0
LWPOLYLINE
  5
10055
330
1F
100
AcDbEntity
  8
0
100
AcDbPolyline
 90
        8
 70
     1
 43
0.0
 10
87.97132500000001
 20
-88.66198500000002
 10
90.54566500000001
 20
-90.979872
 10
115.977503
 20
-96.38557499999999
 10
119.272049
 20
-95.31515900000001
 10
121.708358
 20
-83.853225
 42
0.4142134405809212
 10
121.32324
 20
-83.26019600000001
 10
91.00066400000001
 20
-76.814933
 42
0.4142122946124389
 10
90.40763500000003
 20
-77.200051
  0
ENDSEC
  0
SECTION
  2
OBJECTS
  0
DICTIONARY
  5
C
330
0
100
AcDbDictionary
281
     1
  3
ACAD_COLOR
350
10049
  3
ACAD_DETAILVIEWSTYLE
350
10044
  3
ACAD_GROUP
350
D
  3
ACAD_LAYOUT
350
10018
  3
ACAD_MATERIAL
350
1001B
  3
ACAD_MLEADERSTYLE
350
1003A
  3
ACAD_MLINESTYLE
350
17
  3
ACAD_PLOTSETTINGS
350
10003
  3
ACAD_PLOTSTYLENAME
350
10004
  3
ACAD_SCALELIST
350
10006
  3
ACAD_SECTIONVIEWSTYLE
350
10045
  3
ACAD_TABLESTYLE
350
10038
  3
ACAD_VISUALSTYLE
350
1001F
  3
AcDbVariableDictionary
350
1003C
  3
ACDB_RECOMPOSE_DATA
350
1005C
  3
EZDXF_META
350
10058
  0
DICTIONARY
  5
10049
330
C
100
AcDbDictionary
281
     1
  0
DICTIONARY
  5
10044
102
{ACAD_REACTORS
330
C
102
}
330
C
100
AcDbDictionary
281
     1
  0
DICTIONARY
  5
D
330
C
100
AcDbDictionary
281
     1
  0
DICTIONARY
  5
10018
102
{ACAD_REACTORS
330
C
102
}
330
C
100
AcDbDictionary
281
     1
  3
Layout1
350
1001A
  3
Model
350
10019
  0
DICTIONARY
  5
1001B
102
{ACAD_REACTORS
330
C
102
}
330
C
100
AcDbDictionary
281
     1
  3
ByBlock
350
1001D
  3
ByLayer
350
1001C
  3
Global
350
1001E
  0
DICTIONARY
  5
1003A
102
{ACAD_REACTORS
330
C
102
}
330
C
100
AcDbDictionary
281
     1
  3
Standard
350
1003B
  0
DICTIONARY
  5
17
330
C
100
AcDbDictionary
281
     1
  3
Standard
350
10002
  0
DICTIONARY
  5
10003
102
{ACAD_REACTORS
330
C
102
}
330
C
100
AcDbDictionary
281
     1
  0
ACDBDICTIONARYWDFLT
  5
10004
102
{ACAD_REACTORS
330
C
102
}
330
C
100
AcDbDictionary
281
     1
  3
Normal
350
10005
100
AcDbDictionaryWithDefault
340
10005
  0
DICTIONARY
  5
10006
102
{ACAD_REACTORS
330
C
102
}
330
C
100
AcDbDictionary
281
     1
  3
A0
350
10007
  3
A1
350
10008
  3
A2
350
10009
  3
A3
350
1000A
  3
A4
350
1000B
  3
A5
350
1000C
  3
A6
350
1000D
  3
A7
350
1000E
  3
A8
350
1000F
  3
A9
350
10010
  3
B1
350
10011
  3
B2
350
10012
  3
B3
350
10013
  3
B4
350
10014
  3
B5
350
10015
  3
B6
350
10016
  3
B7
350
10017
  0
DICTIONARY
  5
10045
102
{ACAD_REACTORS
330
C
102
}
330
C
100
AcDbDictionary
281
     1
  0
DICTIONARY
  5
10038
102
{ACAD_REACTORS
330
C
102
}
330
C
100
AcDbDictionary
281
     1
  3
Standard
350
10039
  0
DICTIONARY
  5
1001F
102
{ACAD_REACTORS
330
C
102
}
330
C
100
AcDbDictionary
281
     1
  3
2dWireframe
350
10024
  3
Basic
350
10027
  3
Brighten
350
1002B
  3
ColorChange
350
1002F
  3
Conceptual
350
10029
  3
Dim
350
1002A
  3
EdgeColorOff
350
10032
  3
Facepattern
350
1002E
  3
Flat
350
10020
  3
FlatWithEdges
350
10021
  3
Gouraud
350
10022
  3
GouraudWithEdges
350
10023
  3
Hidden
350
10026
  3
JitterOff
350
10030
  3
Linepattern
350
1002D
  3
OverhangOff
350
10031
  3
Realistic
350
10028
  3
Shaded
350
10037
  3
Shaded with edges
350
10036
  3
Shades of Gray
350
10033
  3
Sketchy
350
10034
  3
Thicken
350
1002C
  3
Wireframe
350
10025
  3
X-Ray
350
10035
  0
DICTIONARY
  5
1003C
102
{ACAD_REACTORS
330
C
102
}
330
C
100
AcDbDictionary
281
     1
  3
CANNOSCALE
350
1003D
  3
CMLEADERSTYLE
350
10042
  3
CTABLESTYLE
350
10041
  3
MSLTSCALE
350
10043
  0
XRECORD
  5
1005C
102
{ACAD_REACTORS
330
C
102
}
330
C
100
AcDbXrecord
280
     1
 90
        1
330
10039
  0
DICTIONARY
  5
10058
330
C
100
AcDbDictionary
281
     1
  3
WRITTEN_BY_EZDXF
350
10059
  0
LAYOUT
  5
1001A
102
{ACAD_REACTORS
330
10018
102
}
330
10018
100
AcDbPlotSettings
  1

  2
none_device
  4

  6

 40
0.0
 41
0.0
 42
0.0
 43
0.0
 44
0.0
 45
0.0
 46
0.0
 47
0.0
 48
0.0
 49
0.0
140
0.0
141
0.0
142
1.0
143
1.0
 70
   688
 72
     0
 73
     0
 74
     5
  7

 75
    16
 76
     0
 77
     2
 78
   300
147
1.0
148
0.0
149
0.0
100
AcDbLayout
  1
Layout1
 70
     1
 71
     1
 10
0.0
 20
0.0
 11
12.0
 21
9.0
 12
0.0
 22
0.0
 32
0.0
 14
1.000000000000000E+20
 24
1.000000000000000E+20
 34
1.000000000000000E+20
 15
-1.000000000000000E+20
 25
-1.000000000000000E+20
 35
-1.000000000000000E+20
146
0.0
 13
0.0
 23
0.0
 33
0.0
 16
1.0
 26
0.0
 36
0.0
 17
0.0
 27
1.0
 37
0.0
 76
     0
330
1B
  0
LAYOUT
  5
10019
102
{ACAD_REACTORS
330
10018
102
}
330
10018
100
AcDbPlotSettings
  1

  2
none_device
  4
Letter_(8.50_x_11.00_Inches)
  6

 40
6.35
 41
6.35
 42
6.35000508
 43
6.35000508
 44
215.9
 45
279.4
 46
0.0
 47
0.0
 48
0.0
 49
0.0
140
0.0
141
0.0
142
1.0
143
2.219594649946486
 70
  1712
 72
     0
 73
     0
 74
     0
  7

 75
     0
 76
     0
 77
     2
 78
   300
147
0.4505327132700153
148
-39.40881537143161
149
0.0
100
AcDbLayout
  1
Model
 70
     1
 71
     0
 10
0.0
 20
0.0
 11
12.0
 21
9.0
 12
0.0
 22
0.0
 32
0.0
 14
1.000000000000000E+20
 24
1.000000000000000E+20
 34
1.000000000000000E+20
 15
-1.000000000000000E+20
 25
-1.000000000000000E+20
 35
-1.000000000000000E+20
146
0.0
 13
0.0
 23
0.0
 33
0.0
 16
1.0
 26
0.0
 36
0.0
 17
0.0
 27
1.0
 37
0.0
 76
     0
330
1F
331
10001
  0
MATERIAL
  5
1001D
102
{ACAD_REACTORS
330
1001B
102
}
330
1001B
100
AcDbMaterial
  1
ByBlock
 72
     1
273
     1
 94
      127
  0
MATERIAL
  5
1001C
102
{ACAD_REACTORS
330
1001B
102
}
330
1001B
100
AcDbMaterial
  1
ByLayer
 72
     1
273
     1
 94
      127
  0
MATERIAL
  5
1001E
102
{ACAD_REACTORS
330
1001B
102
}
330
1001B
100
AcDbMaterial
  1
Global
 72
     1
273
     1
 94
      127
  0
MLEADERSTYLE
  5
1003B
102
{ACAD_REACTORS
330
1003A
102
}
330
1003A
100
AcDbMLeaderStyle
179
     2
170
     2
171
     1
172
     0
 90
        2
 40
0.0
 41
0.0
173
     1
 91
-1056964608
340
14
 92
       -2
290
     1
 42
0.09
291
     1
 43
0.36
  3
Standard
341
0
 44
0.18
300

342
11
174
     1
178
     6
175
     1
176
     0
 93
-1056964608
 45
0.18
292
     0
297
     0
 46
0.18
343
0
 94
-1056964608
 47
1.0
 49
1.0
140
1.0
293
     1
141
0.0
294
     1
177
     0
142
1.0
295
     0
296
     0
143
0.125
271
     0
272
     9
273
     9
298
     0
  0
MLINESTYLE
  5
10002
102
{ACAD_REACTORS
330
17
102
}
330
17
100
AcDbMlineStyle
  2
Standard
 70
     0
  3

 62
   256
 51
90.0
 52
90.0
 71
     2
 49
0.5
 62
   256
  6
BYLAYER
 49
-0.5
 62
   256
  6
BYLAYER
  0
ACDBPLACEHOLDER
  5
10005
102
{ACAD_REACTORS
330
10004
102
}
330
10004
  0
SCALE
  5
10007
102
{ACAD_REACTORS
330
10006
102
}
330
10006
100
AcDbScale
 70
     0
300
1:1
140
1.0
141
1.0
290
     1
  0
SCALE
  5
10008
102
{ACAD_REACTORS
330
10006
102
}
330
10006
100
AcDbScale
 70
     0
300
1/128" = 1'-0"
140
0.0078125
141
12.0
290
     0
  0
SCALE
  5
10009
102
{ACAD_REACTORS
330
10006
102
}
330
10006
100
AcDbScale
 70
     0
300
1/64" = 1'-0"
140
0.015625
141
12.0
290
     0
  0
SCALE
  5
1000A
102
{ACAD_REACTORS
330
10006
102
}
330
10006
100
AcDbScale
 70
     0
300
1/32" = 1'-0"
140
0.03125
141
12.0
290
     0
  0
SCALE
  5
1000B
102
{ACAD_REACTORS
330
10006
102
}
330
10006
100
AcDbScale
 70
     0
300
1/16" = 1'-0"
140
0.0625
141
12.0
290
     0
  0
SCALE
  5
1000C
102
{ACAD_REACTORS
330
10006
102
}
330
10006
100
AcDbScale
 70
     0
300
3/32" = 1'-0"
140
0.09375
141
12.0
290
     0
  0
SCALE
  5
1000D
102
{ACAD_REACTORS
330
10006
102
}
330
10006
100
AcDbScale
 70
     0
300
1/8" = 1'-0"
140
0.125
141
12.0
290
     0
  0
SCALE
  5
1000E
102
{ACAD_REACTORS
330
10006
102
}
330
10006
100
AcDbScale
 70
     0
300
3/16" = 1'-0"
140
0.1875
141
12.0
290
     0
  0
SCALE
  5
1000F
102
{ACAD_REACTORS
330
10006
102
}
330
10006
100
AcDbScale
 70
     0
300
1/4" = 1'-0"
140
0.25
141
12.0
290
     0
  0
SCALE
  5
10010
102
{ACAD_REACTORS
330
10006
102
}
330
10006
100
AcDbScale
 70
     0
300
3/8" = 1'-0"
140
0.375
141
12.0
290
     0
  0
SCALE
  5
10011
102
{ACAD_REACTORS
330
10006
102
}
330
10006
100
AcDbScale
 70
     0
300
1/2" = 1'-0"
140
0.5
141
12.0
290
     0
  0
SCALE
  5
10012
102
{ACAD_REACTORS
330
10006
102
}
330
10006
100
AcDbScale
 70
     0
300
3/4" = 1'-0"
140
0.75
141
12.0
290
     0
  0
SCALE
  5
10013
102
{ACAD_REACTORS
330
10006
102
}
330
10006
100
AcDbScale
 70
     0
300
1" = 1'-0"
140
1.0
141
12.0
290
     0
  0
SCALE
  5
10014
102
{ACAD_REACTORS
330
10006
102
}
330
10006
100
AcDbScale
 70
     0
300
1-1/2" = 1'-0"
140
1.5
141
12.0
290
     0
  0
SCALE
  5
10015
102
{ACAD_REACTORS
330
10006
102
}
330
10006
100
AcDbScale
 70
     0
300
3" = 1'-0"
140
3.0
141
12.0
290
     0
  0
SCALE
  5
10016
102
{ACAD_REACTORS
330
10006
102
}
330
10006
100
AcDbScale
 70
     0
300
6" = 1'-0"
140
6.0
141
12.0
290
     0
  0
SCALE
  5
10017
102
{ACAD_REACTORS
330
10006
102
}
330
10006
100
AcDbScale
 70
     0
300
1'-0" = 1'-0"
140
12.0
141
12.0
290
     0
  0
TABLESTYLE
  5
10039
102
{ACAD_REACTORS
330
10038
102
}
102
{ACAD_XDICTIONARY
360
1005A
102
}
330
10038
100
AcDbTableStyle
  3
Standard
 70
     0
 71
     0
 40
0.06
 41
0.06
280
     0
281
     0
  7
STANDARD
140
0.18
170
     2
 62
     0
 63
   257
283
     0
 90
        4
 91
        0
  1

274
    -2
284
     1
 64
     0
275
    -2
285
     1
 65
     0
276
    -2
286
     1
 66
     0
277
    -2
287
     1
 67
     0
278
    -2
288
     1
 68
     0
279
    -2
289
     1
 69
     0
  7
STANDARD
140
0.25
170
     5
 62
     0
 63
   257
283
     0
 90
        4
 91
        0
  1

274
    -2
284
     1
 64
     0
275
    -2
285
     1
 65
     0
276
    -2
286
     1
 66
     0
277
    -2
287
     1
 67
     0
278
    -2
288
     1
 68
     0
279
    -2
289
     1
 69
     0
  7
STANDARD
140
0.18
170
     5
 62
     0
 63
   257
283
     0
 90
        4
 91
        0
  1

274
    -2
284
     1
 64
     0
275
    -2
285
     1
 65
     0
276
    -2
286
     1
 66
     0
277
    -2
287
     1
 67
     0
278
    -2
288
     1
 68
     0
279
    -2
289
     1
 69
     0
  0
VISUALSTYLE
  5
10024
102
{ACAD_REACTORS
330
1001F
102
}
330
1001F
100
AcDbVisualStyle
  2
2dWireframe
 70
     4
177
     3
291
     0
 70
    58
 90
        0
176
     1
 90
        2
176
     1
 90
        0
176
     1
 90
        0
176
     1
 40
0.6
176
     1
 40
30.0
176
     1
 62
     7
420
 16777215
176
     1
 90
        1
176
     1
 90
        4
176
     1
 62
     7
176
     1
 62
   257
176
     1
 90
        1
176
     1
 90
        1
176
     1
 40
1.0
176
     1
 90
        0
176
     1
 62
   257
176
     1
 40
1.0
176
     1
 90
        1
176
     1
 90
        6
176
     1
 90
        2
176
     1
 62
     7
176
     1
 90
        5
176
     1
 90
        0
176
     1
 90
        0
176
     1
290
     0
176
     1
 90
        1
176
     1
 40
0.0
176
     1
 90
        0
176
     1
290
     1
176
     1
290
     1
176
     1
290
     0
176
     1
290
     0
176
     1
290
     0
176
     1
290
     0
176
     1
290
     0
176
     1
290
     0
176
     1
290
     0
176
     1
 90
       50
176
     1
 40
0.0
176
     1
 40
1.0
176
     1
 90
        0
176
     1
 62
    18
420
        0
176
     1
 90
       50
176
     1
 90
        3
176
     1
 62
     5
420
      255
176
     1
290
     0
176
     1
 90
       50
176
     1
 90
       50
176
     1
 90
       50
176
     1
290
     0
176
     1
 90
       50
176
     1
 62
   256
176
     0
 40
1.0
176
     0
 90
        2
176
     1
  1
strokes_ogs.tif
176
     1
290
     0
176
     1
 40
1.0
176
     1
 40
1.0
176
     1
  0
VISUALSTYLE
  5
10027
102
{ACAD_REACTORS
330
1001F
102
}
330
1001F
100
AcDbVisualStyle
  2
Basic
 70
     7
177
     3
291
     1
 70
    58
 90
        1
176
     1
 90
        0
176
     1
 90
        1
176
     1
 90
        0
176
     1
 40
0.6
176
     1
 40
30.0
176
     1
 62
     7
420
 16777215
176
     1
 90
        0
176
     1
 90
        4
176
     1
 62
     7
176
     1
 62
   257
176
     1
 90
        1
176
     1
 90
        1
176
     1
 40
1.0
176
     1
 90
        8
176
     1
 62
     7
176
     1
 40
1.0
176
     1
 90
        1
176
     1
 90
        6
176
     1
 90
        2
176
     1
 62
     7
176
     1
 90
        5
176
     1
 90
        0
176
     1
 90
        0
176
     1
290
     0
176
     1
 90
        1
176
     1
 40
0.0
176
     1
 90
        0
176
     1
290
     0
176
     1
290
     1
176
     1
290
     1
176
     1
290
     0
176
     1
290
     0
176
     1
290
     0
176
     1
290
     0
176
     1
290
     0
176
     1
290
     0
176
     1
 90
       50
176
     1
 40
0.0
176
     1
 40
1.0
176
     1
 90
        0
176
     1
 62
    18
420
        0
176
     1
 90
       50
176
     1
 90
        3
176
     1
 62
     5
420
      255
176
     1
290
     0
176
     1
 90
       50
176
     1
 90
       50
176
     1
 90
       50
176
     1
290
     0
176
     1
 90
       50
176
     1
 62
   256
176
     0
 40
1.0
176
     0
 90
        2
176
     1
  1
strokes_ogs.tif
176
     1
290
     0
176
     1
 40
1.0
176
     1
 40
1.0
176
     1
  0
VISUALSTYLE
  5
1002B
102
{ACAD_REACTORS
330
1001F
102
}
330
1001F
100
AcDbVisualStyle
  2
Brighten
 70
    12
177
     3
291
     1
 70
    58
 90
        2
176
     1
 90
        2
176
     1
 90
        0
176
     1
 90
        0
176
     1
 40
0.6
176
     1
 40
30.0
176
     1
 62
     7
420
 16777215
176
     1
 90
        1
176
     1
 90
        4
176
     1
 62
     7
176
     1
 62
   257
176
     1
 90
        1
176
     1
 90
        1
176
     1
 40
1.0
176
     1
 90
        8
176
     1
 62
     7
176
     1
 40
1.0
176
     1
 90
        1
176
     1
 90
        6
176
     1
 90
        2
176
     1
 62
     7
176
     1
 90
        5
176
     1
 90
        0
176
     1
 90
        0
176
     1
290
     0
176
     1
 90
        1
176
     1
 40
50.0
176
     1
 90
        0
176
     1
290
     0
176
     1
290
     1
176
     1
290
     1
176
     1
290
     0
176
     1
290
     0
176
     1
290
     0
176
     1
290
     0
176
     1
290
     0
176
     1
290
     0
176
     1
 90
       50
176
     1
 40
0.0
176
     1
 40
1.0
176
     1
 90
        0
176
     1
 62
    18
420
        0
176
     1
 90
       50
176
     1
 90
        3
176
     1
 62
     5
420
      255
176
     1
290
     0
176
     1
 90
       50
176
     1
 90
       50
176
     1
 90
       50
176
     1
290
     0
176
     1
 90
       50
176
     1
 62
   256
176
     0
 40
1.0
176
     0
 90
        2
176
     1
  1
strokes_ogs.tif
176
     1
290
     0
176
     1
 40
1.0
176
     1
 40
1.0
176
     1
  0
VISUALSTYLE
  5
1002F
102
{ACAD_REACTORS
330
1001F
102
}
330
1001F
100
AcDbVisualStyle
  2
ColorChange
 70
    16
177
     3
291
     1
 70
    58
 90
        2
176
     1
 90
        2
176
     1
 90
        3
176
     1
 90
        0
176
     1
 40
0.6
176
     1
 40
30.0
176
     1
 62
     8
420
  8421504
176
     1
 90
        1
176
     1
 90
        4
176
     1
 62
     7
176
     1
 62
   257
176
     1
 90
        1
176
     1
 90
        1
176
     1
 40
1.0
176
     1
 90
        8
176
     1
 62
     8
420
  8421504
176
     1
 40
1.0
176
     1
 90
        1
176
     1
 90
        6
176
     1
 90
        2
176
     1
 62
     7
176
     1
 90
        5
176
     1
 90
        0
176
     1
 90
        0
176
     1
290
     0
176
     1
 90
        1
176
     1
 40
0.0
176
     1
 90
        0
176
     1
290
     0
176
     1
290
     1
176
     1
290
     1
176
     1
290
     0
176
     1
290
     0
176
     1
290
     0
176
     1
290
     0
176
     1
290
     0
176
     1
290
     0
176
     1
 90
       50
176
     1
 40
0.0
176
     1
 40
1.0
176
     1
 90
        0
176
     1
 62
    18
420
        0
176
     1
 90
       50
176
     1
 90
        3
176
     1
 62
     5
420
      255
176
     1
290
     0
176
     1
 90
       50
176
     1
 90
       50
176
     1
 90
       50
176
     1
290
     0
176
     1
 90
       50
176
     1
 62
   256
176
     0
 40
1.0
176
     0
 90
        2
176
     1
  1
strokes_ogs.tif
176
     1
290
     0
176
     1
 40
1.0
176
     1
 40
1.0
176
     1
  0
VISUALSTYLE
  5
10029
102
{ACAD_REACTORS
330
1001F
102
}
330
1001F
100
AcDbVisualStyle
  2
Conceptual
 70
     9
177
     3
291
     0
 70
    58
 90
        3
176
     1
 90
        2
176
     1
 90
        0
176
     1
 90
        0
176
     1
 40
0.6
176
     1
 40
30.0
176
     1
 62
     7
420
 16777215
176
     1
 90
        2
176
     1
 90
        2
176
     1
 62
     7
176
     1
 62
   257
176
     1
 90
        1
176
     1
 90
        1
176
     1
 40
179.0
176
     1
 90
        8
176
     1
 62
     7
176
     1
 40
1.0
176
     1
 90
        1
176
     1
 90
        6
176
     1
 90
        2
176
     1
 62
     7
176
     1
 90
        3
176
     1
 90
        0
176
     1
 90
        0
176
     1
290
     0
176
     1
 90
        1
176
     1
 40
0.0
176
     1
 90
        0
176
     1
290
     0
176
     1
290
     1
176
     1
290
     1
176
     1
290
     0
176
     1
290
     0
176
     1
290
     0
176
     1
290
     0
176
     1
290
     0
176
     1
290
     0
176
     1
 90
       50
176
     1
 40
0.0
176
     1
 40
1.0
176
     1
 90
        0
176
     1
 62
    18
420
        0
176
     1
 90
       50
176
     1
 90
        3
176
     1
 62
     5
420
      255
176
     1
290
     0
176
     1
 90
       50
176
     1
 90
       50
176
     1
 90
       50
176
     1
290
     0
176
     1
 90
       50
176
     1
 62
   256
176
     0
 40
1.0
176
     0
 90
        2
176
     1
  1
strokes_ogs.tif
176
     1
290
     0
176
     1
 40
1.0
176
     1
 40
1.0
176
     1
  0
VISUALSTYLE
  5
1002A
102
{ACAD_REACTORS
330
1001F
102
}
330
1001F
100
AcDbVisualStyle
  2
Dim
 70
    11
177
     3
291
     1
 70
    58
 90
        2
176
     1
 90
        2
176
     1
 90
        0
176
     1
 90
        0
176
     1
 40
0.6
176
     1
 40
30.0
176
     1
 62
     7
420
 16777215
176
     1
 90
        1
176
     1
 90
        4
176
     1
 62
     7
176
     1
 62
   257
176
     1
 90
        1
176
     1
 90
        1
176
     1
 40
1.0
176
     1
 90
        8
176
     1
 62
     7
176
     1
 40
1.0
176
     1
 90
        1
176
     1
 90
        6
176
     1
 90
        2
176
     1
 62
     7
176
     1
 90
        5
176
     1
 90
        0
176
     1
 90
        0
176
     1
290
     0
176
     1
 90
        1
176
     1
 40
-50.0
176
     1
 90
        0
176
     1
290
     0
176
     1
290
     1
176
     1
290
     1
176
     1
290
     0
176
     1
290
     0
176
     1
290
     0
176
     1
290
     0
176
     1
290
     0
176
     1
290
     0
176
     1
 90
       50
176
     1
 40
0.0
176
     1
 40
1.0
176
     1
 90
        0
176
     1
 62
    18
420
        0
176
     1
 90
       50
176
     1
 90
        3
176
     1
 62
     5
420
      255
176
     1
290
     0
176
     1
 90
       50
176
     1
 90
       50
176
     1
 90
       50
176
     1
290
     0
176
     1
 90
       50
176
     1
 62
   256
176
     0
 40
1.0
176
     0
 90
        2
176
     1
  1
strokes_ogs.tif
176
     1
290
     0
176
     1
 40
1.0
176
     1
 40
1.0
176
     1
  0
VISUALSTYLE
  5
10032
102
{ACAD_REACTORS
330
1001F
102
}
330
1001F
100
AcDbVisualStyle
  2
EdgeColorOff
 70
    22
177
     3
291
     1
 70
    58
 90
        2
176
     0
 90
        2
176
     0
 90
        0
176
     0
 90
        0
176
     0
 40
0.6
176
     0
 40
30.0
176
     0
 62
     7
420
 16777215
176
     0
 90
        1
176
     0
 90
        4
176
     0
 62
     7
176
     0
 62
   257
176
     0
 90
        1
176
     0
 90
        1
176
     0
 40
1.0
176
     0
 90
        8
176
     2
 62
     7
176
     0
 40
1.0
176
     0
 90
        1
176
     0
 90
        6
176
     0
 90
        2
176
     0
 62
     7
176
     0
 90
        5
176
     0
 90
        0
176
     0
 90
        0
176
     0
290
     0
176
     0
 90
        1
176
     0
 40
0.0
176
     0
 90
        0
176
     0
290
     0
176
     0
290
     1
176
     0
290
     1
176
     0
290
     0
176
     0
290
     0
176
     0
290
     0
176
     0
290
     0
176
     0
290
     0
176
     0
290
     0
176
     0
 90
       50
176
     0
 40
0.0
176
     0
 40
1.0
176
     0
 90
        0
176
     0
 62
    18
420
        0
176
     0
 90
       50
176
     0
 90
        3
176
     0
 62
     5
420
      255
176
     0
290
     0
176
     0
 90
       50
176
     0
 90
       50
176
     0
 90
       50
176
     0
290
     0
176
     0
 90
       50
176
     0
 62
   256
176
     0
 40
1.0
176
     0
 90
        2
176
     0
  1
strokes_ogs.tif
176
     0
290
     0
176
     0
 40
1.0
176
     0
 40
1.0
176
     0
  0
VISUALSTYLE
  5
1002E
102
{ACAD_REACTORS
330
1001F
102
}
330
1001F
100
AcDbVisualStyle
  2
Facepattern
 70
    15
177
     3
291
     1
 70
    58
 90
        2
176
     1
 90
        2
176
     1
 90
        0
176
     1
 90
        0
176
     1
 40
0.6
176
     1
 40
30.0
176
     1
 62
     7
420
 16777215
176
     1
 90
        1
176
     1
 90
        4
176
     1
 62
     7
176
     1
 62
   257
176
     1
 90
        1
176
     1
 90
        1
176
     1
 40
1.0
176
     1
 90
        8
176
     1
 62
     7
176
     1
 40
1.0
176
     1
 90
        1
176
     1
 90
        6
176
     1
 90
        2
176
     1
 62
     7
176
     1
 90
        5
176
     1
 90
        0
176
     1
 90
        0
176
     1
290
     0
176
     1
 90
        1
176
     1
 40
0.0
176
     1
 90
        0
176
     1
290
     0
176
     1
290
     1
176
     1
290
     1
176
     1
290
     0
176
     1
290
     0
176
     1
290
     0
176
     1
290
     0
176
     1
290
     0
176
     1
290
     0
176
     1
 90
       50
176
     1
 40
0.0
176
     1
 40
1.0
176
     1
 90
        0
176
     1
 62
    18
420
        0
176
     1
 90
       50
176
     1
 90
        3
176
     1
 62
     5
420
      255
176
     1
290
     0
176
     1
 90
       50
176
     1
 90
       50
176
     1
 90
       50
176
     1
290
     0
176
     1
 90
       50
176
     1
 62
   256
176
     0
 40
1.0
176
     0
 90
        2
176
     1
  1
strokes_ogs.tif
176
     1
290
     0
176
     1
 40
1.0
176
     1
 40
1.0
176
     1
  0
VISUALSTYLE
  5
10020
102
{ACAD_REACTORS
330
1001F
102
}
330
1001F
100
AcDbVisualStyle
  2
Flat
 70
     0
177
     3
291
     1
 70
    58
 90
        2
176
     1
 90
        1
176
     1
 90
        1
176
     1
 90
        2
176
     1
 40
0.6
176
     1
 40
30.0
176
     1
 62
     7
420
 16777215
176
     1
 90
        0
176
     1
 90
        0
176
     1
 62
     7
176
     1
 62
   257
176
     1
 90
        1
176
     1
 90
        1
176
     1
 40
1.0
176
     1
 90
        8
176
     1
 62
     7
176
     1
 40
1.0
176
     1
 90
        1
176
     1
 90
        6
176
     1
 90
        2
176
     1
 62
     7
176
     1
 90
        5
176
     1
 90
        0
176
     1
 90
        0
176
     1
290
     0
176
     1
 90
       13
176
     1
 40
0.0
176
     1
 90
        0
176
     1
290
     0
176
     1
290
     1
176
     1
290
     1
176
     1
290
     0
176
     1
290
     0
176
     1
290
     0
176
     1
290
     0
176
     1
290
     0
176
     1
290
     0
176
     1
 90
       50
176
     1
 40
0.0
176
     1
 40
1.0
176
     1
 90
        0
176
     1
 62
    18
420
        0
176
     1
 90
       50
176
     1
 90
        3
176
     1
 62
     5
420
      255
176
     1
290
     0
176
     1
 90
       50
176
     1
 90
       50
176
     1
 90
       50
176
     1
290
     0
176
     1
 90
       50
176
     1
 62
   256
176
     0
 40
1.0
176
     0
 90
        2
176
     1
  1
strokes_ogs.tif
176
     1
290
     0
176
     1
 40
1.0
176
     1
 40
1.0
176
     1
  0
VISUALSTYLE
  5
10021
102
{ACAD_REACTORS
330
1001F
102
}
330
1001F
100
AcDbVisualStyle
  2
FlatWithEdges
 70
     1
177
     3
291
     1
 70
    58
 90
        2
176
     1
 90
        1
176
     1
 90
        1
176
     1
 90
        2
176
     1
 40
0.6
176
     1
 40
30.0
176
     1
 62
     7
420
 16777215
176
     1
 90
        1
176
     1
 90
        0
176
     1
 62
     7
176
     1
 62
   257
176
     1
 90
        1
176
     1
 90
        1
176
     1
 40
1.0
176
     1
 90
        0
176
     1
 62
   257
176
     1
 40
1.0
176
     1
 90
        1
176
     1
 90
        6
176
     1
 90
        2
176
     1
 62
     7
176
     1
 90
        5
176
     1
 90
        0
176
     1
 90
        0
176
     1
290
     0
176
     1
 90
       13
176
     1
 40
0.0
176
     1
 90
        0
176
     1
290
     0
176
     1
290
     1
176
     1
290
     1
176
     1
290
     0
176
     1
290
     0
176
     1
290
     0
176
     1
290
     0
176
     1
290
     0
176
     1
290
     0
176
     1
 90
       50
176
     1
 40
0.0
176
     1
 40
1.0
176
     1
 90
        0
176
     1
 62
    18
420
        0
176
     1
 90
       50
176
     1
 90
        3
176
     1
 62
     5
420
      255
176
     1
290
     0
176
     1
 90
       50
176
     1
 90
       50
176
     1
 90
       50
176
     1
290
     0
176
     1
 90
       50
176
     1
 62
   256
176
     0
 40
1.0
176
     0
 90
        2
176
     1
  1
strokes_ogs.tif
176
     1
290
     0
176
     1
 40
1.0
176
     1
 40
1.0
176
     1
  0
VISUALSTYLE
  5
10022
102
{ACAD_REACTORS
330
1001F
102
}
330
1001F
100
AcDbVisualStyle
  2
Gouraud
 70
     2
177
     3
291
     1
 70
    58
 90
        2
176
     1
 90
        2
176
     1
 90
        1
176
     1
 90
        2
176
     1
 40
0.6
176
     1
 40
30.0
176
     1
 62
     7
420
 16777215
176
     1
 90
        0
176
     1
 90
        0
176
     1
 62
     7
176
     1
 62
   257
176
     1
 90
        1
176
     1
 90
        1
176
     1
 40
1.0
176
     1
 90
        0
176
     1
 62
     7
176
     1
 40
1.0
176
     1
 90
        1
176
     1
 90
        6
176
     1
 90
        2
176
     1
 62
     7
176
     1
 90
        5
176
     1
 90
        0
176
     1
 90
        0
176
     1
290
     0
176
     1
 90
       13
176
     1
 40
0.0
176
     1
 90
        0
176
     1
290
     0
176
     1
290
     1
176
     1
290
     1
176
     1
290
     0
176
     1
290
     0
176
     1
290
     0
176
     1
290
     0
176
     1
290
     0
176
     1
290
     0
176
     1
 90
       50
176
     1
 40
0.0
176
     1
 40
1.0
176
     1
 90
        0
176
     1
 62
    18
420
        0
176
     1
 90
       50
176
     1
 90
        3
176
     1
 62
     5
420
      255
176
     1
290
     0
176
     1
 90
       50
176
     1
 90
       50
176
     1
 90
       50
176
     1
290
     0
176
     1
 90
       50
176
     1
 62
   256
176
     0
 40
1.0
176
     0
 90
        2
176
     1
  1
strokes_ogs.tif
176
     1
290
     0
176
     1
 40
1.0
176
     1
 40
1.0
176
     1
  0
VISUALSTYLE
  5
10023
102
{ACAD_REACTORS
330
1001F
102
}
330
1001F
100
AcDbVisualStyle
  2
GouraudWithEdges
 70
     3
177
     3
291
     1
 70
    58
 90
        2
176
     1
 90
        2
176
     1
 90
        1
176
     1
 90
        2
176
     1
 40
0.6
176
     1
 40
30.0
176
     1
 62
     7
420
 16777215
176
     1
 90
        1
176
     1
 90
        0
176
     1
 62
     7
176
     1
 62
   257
176
     1
 90
        1
176
     1
 90
        1
176
     1
 40
1.0
176
     1
 90
        0
176
     1
 62
   257
176
     1
 40
1.0
176
     1
 90
        1
176
     1
 90
        6
176
     1
 90
        2
176
     1
 62
     7
176
     1
 90
        5
176
     1
 90
        0
176
     1
 90
        0
176
     1
290
     0
176
     1
 90
       13
176
     1
 40
0.0
176
     1
 90
        0
176
     1
290
     0
176
     1
290
     1
176
     1
290
     1
176
     1
290
     0
176
     1
290
     0
176
     1
290
     0
176
     1
290
     0
176
     1
290
     0
176
     1
290
     0
176
     1
 90
       50
176
     1
 40
0.0
176
     1
 40
1.0
176
     1
 90
        0
176
     1
 62
    18
420
        0
176
     1
 90
       50
176
     1
 90
        3
176
     1
 62
     5
420
      255
176
     1
290
     0
176
     1
 90
       50
176
     1
 90
       50
176
     1
 90
       50
176
     1
290
     0
176
     1
 90
       50
176
     1
 62
   256
176
     0
 40
1.0
176
     0
 90
        2
176
     1
  1
strokes_ogs.tif
176
     1
290
     0
176
     1
 40
1.0
176
     1
 40
1.0
176
     1
  0
VISUALSTYLE
  5
10026
102
{ACAD_REACTORS
330
1001F
102
}
330
1001F
100
AcDbVisualStyle
  2
Hidden
 70
     6
177
     3
291
     0
 70
    58
 90
        1
176
     1
 90
        2
176
     1
 90
        2
176
     1
 90
        0
176
     1
 40
0.6
176
     1
 40
30.0
176
     1
 62
     7
420
 16777215
176
     1
 90
        2
176
     1
 90
        2
176
     1
 62
     7
176
     1
 62
   257
176
     1
 90
        2
176
     1
 90
        1
176
     1
 40
40.0
176
     1
 90
        0
176
     1
 62
   257
176
     1
 40
1.0
176
     1
 90
        1
176
     1
 90
        6
176
     1
 90
        2
176
     1
 62
     7
176
     1
 90
        3
176
     1
 90
        0
176
     1
 90
        0
176
     1
290
     0
176
     1
 90
        1
176
     1
 40
0.0
176
     1
 90
        0
176
     1
290
     0
176
     1
290
     1
176
     1
290
     1
176
     1
290
     0
176
     1
290
     0
176
     1
290
     0
176
     1
290
     0
176
     1
290
     0
176
     1
290
     0
176
     1
 90
       50
176
     1
 40
0.0
176
     1
 40
1.0
176
     1
 90
        0
176
     1
 62
    18
420
        0
176
     1
 90
       50
176
     1
 90
        3
176
     1
 62
     5
420
      255
176
     1
290
     0
176
     1
 90
       50
176
     1
 90
       50
176
     1
 90
       50
176
     1
290
     0
176
     1
 90
       50
176
     1
 62
   256
176
     0
 40
1.0
176
     0
 90
        2
176
     1
  1
strokes_ogs.tif
176
     1
290
     0
176
     1
 40
1.0
176
     1
 40
1.0
176
     1
  0
VISUALSTYLE
  5
10030
102
{ACAD_REACTORS
330
1001F
102
}
330
1001F
100
AcDbVisualStyle
  2
JitterOff
 70
    20
177
     3
291
     1
 70
    58
 90
        2
176
     0
 90
        2
176
     0
 90
        0
176
     0
 90
        0
176
     0
 40
0.6
176
     0
 40
30.0
176
     0
 62
     7
420
 16777215
176
     0
 90
        1
176
     0
 90
        4
176
     0
 62
     7
176
     0
 62
   257
176
     0
 90
        1
176
     0
 90
        1
176
     0
 40
1.0
176
     0
 90
       10
176
     2
 62
     7
176
     0
 40
1.0
176
     0
 90
        1
176
     0
 90
        6
176
     0
 90
        2
176
     0
 62
     7
176
     0
 90
        5
176
     0
 90
        0
176
     0
 90
        0
176
     0
290
     0
176
     0
 90
        1
176
     0
 40
0.0
176
     0
 90
        0
176
     0
290
     0
176
     0
290
     1
176
     0
290
     1
176
     0
290
     0
176
     0
290
     0
176
     0
290
     0
176
     0
290
     0
176
     0
290
     0
176
     0
290
     0
176
     0
 90
       50
176
     0
 40
0.0
176
     0
 40
1.0
176
     0
 90
        0
176
     0
 62
    18
420
        0
176
     0
 90
       50
176
     0
 90
        3
176
     0
 62
     5
420
      255
176
     0
290
     0
176
     0
 90
       50
176
     0
 90
       50
176
     0
 90
       50
176
     0
290
     0
176
     0
 90
       50
176
     0
 62
   256
176
     0
 40
1.0
176
     0
 90
        2
176
     0
  1
strokes_ogs.tif
176
     0
290
     0
176
     0
 40
1.0
176
     0
 40
1.0
176
     0
  0
VISUALSTYLE
  5
1002D
102
{ACAD_REACTORS
330
1001F
102
}
330
1001F
100
AcDbVisualStyle
  2
Linepattern
 70
    14
177
     3
291
     1
 70
    58
 90
        2
176
     1
 90
        2
176
     1
 90
        0
176
     1
 90
        0
176
     1
 40
0.6
176
     1
 40
30.0
176
     1
 62
     7
420
 16777215
176
     1
 90
        1
176
     1
 90
        4
176
     1
 62
     7
176
     1
 62
   257
176
     1
 90
        7
176
     1
 90
        7
176
     1
 40
1.0
176
     1
 90
        8
176
     1
 62
     7
176
     1
 40
1.0
176
     1
 90
        1
176
     1
 90
        6
176
     1
 90
        2
176
     1
 62
     7
176
     1
 90
        5
176
     1
 90
        0
176
     1
 90
        0
176
     1
290
     0
176
     1
 90
        1
176
     1
 40
0.0
176
     1
 90
        0
176
     1
290
     0
176
     1
290
     1
176
     1
290
     1
176
     1
290
     0
176
     1
290
     0
176
     1
290
     0
176
     1
290
     0
176
     1
290
     0
176
     1
290
     0
176
     1
 90
       50
176
     1
 40
0.0
176
     1
 40
1.0
176
     1
 90
        0
176
     1
 62
    18
420
        0
176
     1
 90
       50
176
     1
 90
        3
176
     1
 62
     5
420
      255
176
     1
290
     0
176
     1
 90
       50
176
     1
 90
       50
176
     1
 90
       50
176
     1
290
     0
176
     1
 90
       50
176
     1
 62
   256
176
     0
 40
1.0
176
     0
 90
        2
176
     1
  1
strokes_ogs.tif
176
     1
290
     0
176
     1
 40
1.0
176
     1
 40
1.0
176
     1
  0
VISUALSTYLE
  5
10031
102
{ACAD_REACTORS
330
1001F
102
}
330
1001F
100
AcDbVisualStyle
  2
OverhangOff
 70
    21
177
     3
291
     1
 70
    58
 90
        2
176
     0
 90
        2
176
     0
 90
        0
176
     0
 90
        0
176
     0
 40
0.6
176
     0
 40
30.0
176
     0
 62
     7
420
 16777215
176
     0
 90
        1
176
     0
 90
        4
176
     0
 62
     7
176
     0
 62
   257
176
     0
 90
        1
176
     0
 90
        1
176
     0
 40
1.0
176
     0
 90
        9
176
     2
 62
     7
176
     0
 40
1.0
176
     0
 90
        1
176
     0
 90
        6
176
     0
 90
        2
176
     0
 62
     7
176
     0
 90
        5
176
     0
 90
        0
176
     0
 90
        0
176
     0
290
     0
176
     0
 90
        1
176
     0
 40
0.0
176
     0
 90
        0
176
     0
290
     0
176
     0
290
     1
176
     0
290
     1
176
     0
290
     0
176
     0
290
     0
176
     0
290
     0
176
     0
290
     0
176
     0
290
     0
176
     0
290
     0
176
     0
 90
       50
176
     0
 40
0.0
176
     0
 40
1.0
176
     0
 90
        0
176
     0
 62
    18
420
        0
176
     0
 90
       50
176
     0
 90
        3
176
     0
 62
     5
420
      255
176
     0
290
     0
176
     0
 90
       50
176
     0
 90
       50
176
     0
 90
       50
176
     0
290
     0
176
     0
 90
       50
176
     0
 62
   256
176
     0
 40
1.0
176
     0
 90
        2
176
     0
  1
strokes_ogs.tif
176
     0
290
     0
176
     0
 40
1.0
176
     0
 40
1.0
176
     0
  0
VISUALSTYLE
  5
10028
102
{ACAD_REACTORS
330
1001F
102
}
330
1001F
100
AcDbVisualStyle
  2
Realistic
 70
     8
177
     3
291
     0
 70
    58
 90
        2
176
     1
 90
        3
176
     1
 90
        0
176
     1
 90
        2
176
     1
 40
0.6
176
     1
 40
30.0
176
     1
 62
     7
420
 16777215
176
     1
 90
        0
176
     1
 90
        0
176
     1
 62
     7
176
     1
 62
   257
176
     1
 90
        1
176
     1
 90
        1
176
     1
 40
1.0
176
     1
 90
        8
176
     1
 62
   257
176
     1
 40
1.0
176
     1
 90
        1
176
     1
 90
        6
176
     1
 90
        2
176
     1
 62
     7
176
     1
 90
        3
176
     1
 90
        0
176
     1
 90
        0
176
     1
290
     0
176
     1
 90
       13
176
     1
 40
0.0
176
     1
 90
        0
176
     1
290
     0
176
     1
290
     1
176
     1
290
     1
176
     1
290
     0
176
     1
290
     0
176
     1
290
     0
176
     1
290
     0
176
     1
290
     0
176
     1
290
     0
176
     1
 90
       50
176
     1
 40
0.0
176
     1
 40
1.0
176
     1
 90
        0
176
     1
 62
    18
420
        0
176
     1
 90
       50
176
     1
 90
        3
176
     1
 62
     5
420
      255
176
     1
290
     0
176
     1
 90
       50
176
     1
 90
       50
176
     1
 90
       50
176
     1
290
     0
176
     1
 90
       50
176
     1
 62
   256
176
     0
 40
1.0
176
     0
 90
        2
176
     1
  1
strokes_ogs.tif
176
     1
290
     0
176
     1
 40
1.0
176
     1
 40
1.0
176
     1
  0
VISUALSTYLE
  5
10037
102
{ACAD_REACTORS
330
1001F
102
}
330
1001F
100
AcDbVisualStyle
  2
Shaded
 70
    27
177
     3
291
     0
 70
    58
 90
        2
176
     1
 90
        2
176
     1
 90
        1
176
     1
 90
        2
176
     1
 40
0.6
176
     1
 40
30.0
176
     1
 62
     7
420
 16777215
176
     1
 90
        0
176
     1
 90
        4
176
     1
 62
     7
176
     1
 62
   257
176
     1
 90
        1
176
     1
 90
        1
176
     1
 40
1.0
176
     1
 90
        8
176
     1
 62
   257
176
     1
 40
1.0
176
     1
 90
        1
176
     1
 90
        6
176
     1
 90
        2
176
     1
 62
     8
420
  7895160
176
     1
 90
        3
176
     1
 90
        0
176
     1
 90
        0
176
     1
290
     0
176
     1
 90
        5
176
     1
 40
0.0
176
     1
 90
        0
176
     1
290
     0
176
     1
290
     1
176
     1
290
     1
176
     1
290
     0
176
     1
290
     0
176
     1
290
     0
176
     1
290
     0
176
     1
290
     0
176
     1
290
     0
176
     1
 90
       50
176
     1
 40
0.0
176
     1
 40
1.0
176
     1
 90
        0
176
     1
 62
    18
420
        0
176
     1
 90
       50
176
     1
 90
        3
176
     1
 62
     5
420
      255
176
     1
290
     0
176
     1
 90
       50
176
     1
 90
       50
176
     1
 90
       50
176
     1
290
     0
176
     1
 90
       50
176
     1
 62
   256
176
     0
 40
1.0
176
     0
 90
        2
176
     1
  1
strokes_ogs.tif
176
     1
290
     0
176
     1
 40
1.0
176
     1
 40
1.0
176
     1
  0
VISUALSTYLE
  5
10036
102
{ACAD_REACTORS
330
1001F
102
}
330
1001F
100
AcDbVisualStyle
  2
Shaded with edges
 70
    26
177
     3
291
     0
 70
    58
 90
        2
176
     1
 90
        2
176
     1
 90
        1
176
     1
 90
        2
176
     1
 40
0.6
176
     1
 40
30.0
176
     1
 62
     7
420
 16777215
176
     1
 90
        1
176
     1
 90
       10
176
     1
 62
     7
176
     1
 62
   257
176
     1
 90
        2
176
     1
 90
        1
176
     1
 40
1.0
176
     1
 90
        8
176
     1
 62
   257
176
     1
 40
1.0
176
     1
 90
        1
176
     1
 90
        6
176
     1
 90
        2
176
     1
 62
     7
176
     1
 90
        3
176
     1
 90
        0
176
     1
 90
        0
176
     1
290
     0
176
     1
 90
        5
176
     1
 40
0.0
176
     1
 90
        0
176
     1
290
     0
176
     1
290
     1
176
     1
290
     1
176
     1
290
     0
176
     1
290
     0
176
     1
290
     0
176
     1
290
     0
176
     1
290
     0
176
     1
290
     0
176
     1
 90
       50
176
     1
 40
0.0
176
     1
 40
1.0
176
     1
 90
        0
176
     1
 62
    18
420
        0
176
     1
 90
       50
176
     1
 90
        3
176
     1
 62
     5
420
      255
176
     1
290
     0
176
     1
 90
       50
176
     1
 90
       50
176
     1
 90
       50
176
     1
290
     0
176
     1
 90
       50
176
     1
 62
   256
176
     0
 40
1.0
176
     0
 90
        2
176
     1
  1
strokes_ogs.tif
176
     1
290
     0
176
     1
 40
1.0
176
     1
 40
1.0
176
     1
  0
VISUALSTYLE
  5
10033
102
{ACAD_REACTORS
330
1001F
102
}
330
1001F
100
AcDbVisualStyle
  2
Shades of Gray
 70
    23
177
     3
291
     0
 70
    58
 90
        2
176
     1
 90
        2
176
     1
 90
        3
176
     1
 90
        0
176
     1
 40
0.6
176
     1
 40
30.0
176
     1
 62
     7
420
 16777215
176
     1
 90
        2
176
     1
 90
        2
176
     1
 62
     7
176
     1
 62
     7
176
     1
 90
        1
176
     1
 90
        1
176
     1
 40
40.0
176
     1
 90
        8
176
     1
 62
     7
176
     1
 40
1.0
176
     1
 90
        1
176
     1
 90
        6
176
     1
 90
        2
176
     1
 62
     7
176
     1
 90
        3
176
     1
 90
        0
176
     1
 90
        0
176
     1
290
     0
176
     1
 90
        1
176
     1
 40
0.0
176
     1
 90
        0
176
     1
290
     0
176
     1
290
     1
176
     1
290
     1
176
     1
290
     0
176
     1
290
     0
176
     1
290
     0
176
     1
290
     0
176
     1
290
     0
176
     1
290
     0
176
     1
 90
       50
176
     1
 40
0.0
176
     1
 40
1.0
176
     1
 90
        0
176
     1
 62
    18
420
        0
176
     1
 90
       50
176
     1
 90
        3
176
     1
 62
     5
420
      255
176
     1
290
     0
176
     1
 90
       50
176
     1
 90
       50
176
     1
 90
       50
176
     1
290
     0
176
     1
 90
       50
176
     1
 62
   256
176
     0
 40
1.0
176
     0
 90
        2
176
     1
  1
strokes_ogs.tif
176
     1
290
     0
176
     1
 40
1.0
176
     1
 40
1.0
176
     1
  0
VISUALSTYLE
  5
10034
102
{ACAD_REACTORS
330
1001F
102
}
330
1001F
100
AcDbVisualStyle
  2
Sketchy
 70
    24
177
     3
291
     0
 70
    58
 90
        1
176
     1
 90
        2
176
     1
 90
        2
176
     1
 90
        0
176
     1
 40
0.6
176
     1
 40
30.0
176
     1
 62
     7
420
 16777215
176
     1
 90
        2
176
     1
 90
        2
176
     1
 62
     7
176
     1
 62
     7
176
     1
 90
        1
176
     1
 90
        1
176
     1
 40
40.0
176
     1
 90
       11
176
     1
 62
     7
176
     1
 40
1.0
176
     1
 90
        1
176
     1
 90
        6
176
     1
 90
        2
176
     1
 62
     7
176
     1
 90
        6
176
     1
 90
        0
176
     1
 90
        0
176
     1
290
     0
176
     1
 90
        1
176
     1
 40
0.0
176
     1
 90
        0
176
     1
290
     0
176
     1
290
     1
176
     1
290
     1
176
     1
290
     0
176
     1
290
     0
176
     1
290
     0
176
     1
290
     0
176
     1
290
     0
176
     1
290
     0
176
     1
 90
       50
176
     1
 40
0.0
176
     1
 40
1.0
176
     1
 90
        0
176
     1
 62
    18
420
        0
176
     1
 90
       50
176
     1
 90
        3
176
     1
 62
     5
420
      255
176
     1
290
     0
176
     1
 90
       50
176
     1
 90
       50
176
     1
 90
       50
176
     1
290
     0
176
     1
 90
       50
176
     1
 62
   256
176
     0
 40
1.0
176
     0
 90
        2
176
     1
  1
strokes_ogs.tif
176
     1
290
     0
176
     1
 40
1.0
176
     1
 40
1.0
176
     1
  0
VISUALSTYLE
  5
1002C
102
{ACAD_REACTORS
330
1001F
102
}
330
1001F
100
AcDbVisualStyle
  2
Thicken
 70
    13
177
     3
291
     1
 70
    58
 90
        2
176
     1
 90
        2
176
     1
 90
        0
176
     1
 90
        0
176
     1
 40
0.6
176
     1
 40
30.0
176
     1
 62
     7
420
 16777215
176
     1
 90
        1
176
     1
 90
        4
176
     1
 62
     7
176
     1
 62
   257
176
     1
 90
        1
176
     1
 90
        1
176
     1
 40
1.0
176
     1
 90
       12
176
     1
 62
     7
176
     1
 40
1.0
176
     1
 90
        1
176
     1
 90
        6
176
     1
 90
        2
176
     1
 62
     7
176
     1
 90
        5
176
     1
 90
        0
176
     1
 90
        0
176
     1
290
     0
176
     1
 90
        1
176
     1
 40
0.0
176
     1
 90
        0
176
     1
290
     0
176
     1
290
     1
176
     1
290
     1
176
     1
290
     0
176
     1
290
     0
176
     1
290
     0
176
     1
290
     0
176
     1
290
     0
176
     1
290
     0
176
     1
 90
       50
176
     1
 40
0.0
176
     1
 40
1.0
176
     1
 90
        0
176
     1
 62
    18
420
        0
176
     1
 90
       50
176
     1
 90
        3
176
     1
 62
     5
420
      255
176
     1
290
     0
176
     1
 90
       50
176
     1
 90
       50
176
     1
 90
       50
176
     1
290
     0
176
     1
 90
       50
176
     1
 62
   256
176
     0
 40
1.0
176
     0
 90
        2
176
     1
  1
strokes_ogs.tif
176
     1
290
     0
176
     1
 40
1.0
176
     1
 40
1.0
176
     1
  0
VISUALSTYLE
  5
10025
102
{ACAD_REACTORS
330
1001F
102
}
330
1001F
100
AcDbVisualStyle
  2
Wireframe
 70
     5
177
     3
291
     0
 70
    58
 90
        0
176
     1
 90
        2
176
     1
 90
        0
176
     1
 90
        0
176
     1
 40
0.6
176
     1
 40
30.0
176
     1
 62
     7
420
 16777215
176
     1
 90
        1
176
     1
 90
        4
176
     1
 62
     7
176
     1
 62
   257
176
     1
 90
        1
176
     1
 90
        1
176
     1
 40
1.0
176
     1
 90
        0
176
     1
 62
   257
176
     1
 40
1.0
176
     1
 90
        1
176
     1
 90
        6
176
     1
 90
        2
176
     1
 62
     7
176
     1
 90
        3
176
     1
 90
        0
176
     1
 90
        0
176
     1
290
     0
176
     1
 90
        1
176
     1
 40
0.0
176
     1
 90
        0
176
     1
290
     0
176
     1
290
     1
176
     1
290
     1
176
     1
290
     0
176
     1
290
     0
176
     1
290
     0
176
     1
290
     0
176
     1
290
     0
176
     1
290
     0
176
     1
 90
       50
176
     1
 40
0.0
176
     1
 40
1.0
176
     1
 90
        0
176
     1
 62
    18
420
        0
176
     1
 90
       50
176
     1
 90
        3
176
     1
 62
     5
420
      255
176
     1
290
     0
176
     1
 90
       50
176
     1
 90
       50
176
     1
 90
       50
176
     1
290
     0
176
     1
 90
       50
176
     1
 62
   256
176
     0
 40
1.0
176
     0
 90
        2
176
     1
  1
strokes_ogs.tif
176
     1
290
     0
176
     1
 40
1.0
176
     1
 40
1.0
176
     1
  0
VISUALSTYLE
  5
10035
102
{ACAD_REACTORS
330
1001F
102
}
330
1001F
100
AcDbVisualStyle
  2
X-Ray
 70
    25
177
     3
291
     0
 70
    58
 90
        2
176
     1
 90
        2
176
     1
 90
        1
176
     1
 90
        1
176
     1
 40
0.5
176
     1
 40
30.0
176
     1
 62
     7
420
 16777215
176
     1
 90
        1
176
     1
 90
        0
176
     1
 62
     7
176
     1
 62
   257
176
     1
 90
        1
176
     1
 90
        1
176
     1
 40
1.0
176
     1
 90
        8
176
     1
 62
     7
176
     1
 40
1.0
176
     1
 90
        1
176
     1
 90
        6
176
     1
 90
        2
176
     1
 62
     7
176
     1
 90
        3
176
     1
 90
        0
176
     1
 90
        0
176
     1
290
     0
176
     1
 90
       13
176
     1
 40
0.0
176
     1
 90
        0
176
     1
290
     0
176
     1
290
     1
176
     1
290
     1
176
     1
290
     0
176
     1
290
     0
176
     1
290
     0
176
     1
290
     0
176
     1
290
     0
176
     1
290
     0
176
     1
 90
       50
176
     1
 40
0.0
176
     1
 40
1.0
176
     1
 90
        0
176
     1
 62
    18
420
        0
176
     1
 90
       50
176
     1
 90
        3
176
     1
 62
     5
420
      255
176
     1
290
     0
176
     1
 90
       50
176
     1
 90
       50
176
     1
 90
       50
176
     1
290
     0
176
     1
 90
       50
176
     1
 62
   256
176
     0
 40
1.0
176
     0
 90
        2
176
     1
  1
strokes_ogs.tif
176
     1
290
     0
176
     1
 40
1.0
176
     1
 40
1.0
176
     1
  0
DICTIONARYVAR
  5
1003D
102
{ACAD_REACTORS
330
1003C
102
}
330
1003C
100
DictionaryVariables
280
     0
  1
1:1
  0
DICTIONARYVAR
  5
10042
102
{ACAD_REACTORS
330
1003C
102
}
330
1003C
100
DictionaryVariables
280
     0
  1
Standard
  0
DICTIONARYVAR
  5
10041
102
{ACAD_REACTORS
330
1003C
102
}
330
1003C
100
DictionaryVariables
280
     0
  1
Standard
  0
DICTIONARYVAR
  5
10043
102
{ACAD_REACTORS
330
1003C
102
}
330
1003C
100
DictionaryVariables
280
     0
  1
0
  0
DICTIONARYVAR
  5
10059
330
10058
100
DictionaryVariables
280
     0
  1
1.3.4 @ 2025-07-25T00:39:31.584575+00:00
  0
DICTIONARY
  5
1005A
330
10039
100
AcDbDictionary
280
     1
281
     1
  3
ACAD_ROUNDTRIP_2008_TABLESTYLE_CELLSTYLEMAP
360
1005B
  0
CELLSTYLEMAP
  5
1005B
102
{ACAD_REACTORS
330
1005A
102
}
330
1005A
100
AcDbCellStyleMap
 90
        3
300
CELLSTYLE
  1
TABLEFORMAT_BEGIN
 90
        5
170
     1
 91
        0
 92
    32768
 62
   257
 93
        1
300
CONTENTFORMAT
  1
CONTENTFORMAT_BEGIN
 90
        0
 91
        0
 92
        4
 93
        0
300

 40
0.0
140
1.0
 94
        5
 62
     0
340
11
144
0.25
309
CONTENTFORMAT_END
171
     1
301
MARGIN
  1
CELLMARGIN_BEGIN
 40
0.06
 40
0.06
 40
0.06
 40
0.06
 40
0.06
 40
0.06
309
CELLMARGIN_END
 94
        6
 95
        1
302
GRIDFORMAT
  1
GRIDFORMAT_BEGIN
 90
        0
 91
        1
 62
     0
 92
       -2
340
14
 93
        0
 40
0.045
309
GRIDFORMAT_END
 95
        2
302
GRIDFORMAT
  1
GRIDFORMAT_BEGIN
 90
        0
 91
        1
 62
     0
 92
       -2
340
14
 93
        0
 40
0.045
309
GRIDFORMAT_END
 95
        4
302
GRIDFORMAT
  1
GRIDFORMAT_BEGIN
 90
        0
 91
        1
 62
     0
 92
       -2
340
14
 93
        0
 40
0.045
309
GRIDFORMAT_END
 95
        8
302
GRIDFORMAT
  1
GRIDFORMAT_BEGIN
 90
        0
 91
        1
 62
     0
 92
       -2
340
14
 93
        0
 40
0.045
309
GRIDFORMAT_END
 95
       16
302
GRIDFORMAT
  1
GRIDFORMAT_BEGIN
 90
        0
 91
        1
 62
     0
 92
       -2
340
14
 93
        0
 40
0.045
309
GRIDFORMAT_END
 95
       32
302
GRIDFORMAT
  1
GRIDFORMAT_BEGIN
 90
        0
 91
        1
 62
     0
 92
       -2
340
14
 93
        0
 40
0.045
309
GRIDFORMAT_END
309
TABLEFORMAT_END
  1
CELLSTYLE_BEGIN
 90
        1
 91
        1
300
_TITLE
309
CELLSTYLE_END
300
CELLSTYLE
  1
TABLEFORMAT_BEGIN
 90
        5
170
     1
 91
        0
 92
        0
 62
   257
 93
        1
300
CONTENTFORMAT
  1
CONTENTFORMAT_BEGIN
 90
        0
 91
        0
 92
        4
 93
        0
300

 40
0.0
140
1.0
 94
        5
 62
     0
340
11
144
0.18
309
CONTENTFORMAT_END
171
     1
301
MARGIN
  1
CELLMARGIN_BEGIN
 40
0.06
 40
0.06
 40
0.06
 40
0.06
 40
0.06
 40
0.06
309
CELLMARGIN_END
 94
        6
 95
        1
302
GRIDFORMAT
  1
GRIDFORMAT_BEGIN
 90
        0
 91
        1
 62
     0
 92
       -2
340
14
 93
        0
 40
0.045
309
GRIDFORMAT_END
 95
        2
302
GRIDFORMAT
  1
GRIDFORMAT_BEGIN
 90
        0
 91
        1
 62
     0
 92
       -2
340
14
 93
        0
 40
0.045
309
GRIDFORMAT_END
 95
        4
302
GRIDFORMAT
  1
GRIDFORMAT_BEGIN
 90
        0
 91
        1
 62
     0
 92
       -2
340
14
 93
        0
 40
0.045
309
GRIDFORMAT_END
 95
        8
302
GRIDFORMAT
  1
GRIDFORMAT_BEGIN
 90
        0
 91
        1
 62
     0
 92
       -2
340
14
 93
        0
 40
0.045
309
GRIDFORMAT_END
 95
       16
302
GRIDFORMAT
  1
GRIDFORMAT_BEGIN
 90
        0
 91
        1
 62
     0
 92
       -2
340
14
 93
        0
 40
0.045
309
GRIDFORMAT_END
 95
       32
302
GRIDFORMAT
  1
GRIDFORMAT_BEGIN
 90
        0
 91
        1
 62
     0
 92
       -2
340
14
 93
        0
 40
0.045
309
GRIDFORMAT_END
309
TABLEFORMAT_END
  1
CELLSTYLE_BEGIN
 90
        2
 91
        1
300
_HEADER
309
CELLSTYLE_END
300
CELLSTYLE
  1
TABLEFORMAT_BEGIN
 90
        5
170
     1
 91
        0
 92
        0
 62
   257
 93
        1
300
CONTENTFORMAT
  1
CONTENTFORMAT_BEGIN
 90
        0
 91
        0
 92
        4
 93
        0
300

 40
0.0
140
1.0
 94
        2
 62
     0
340
11
144
0.18
309
CONTENTFORMAT_END
171
     1
301
MARGIN
  1
CELLMARGIN_BEGIN
 40
0.06
 40
0.06
 40
0.06
 40
0.06
 40
0.06
 40
0.06
309
CELLMARGIN_END
 94
        6
 95
        1
302
GRIDFORMAT
  1
GRIDFORMAT_BEGIN
 90
        0
 91
        1
 62
     0
 92
       -2
340
14
 93
        0
 40
0.045
309
GRIDFORMAT_END
 95
        2
302
GRIDFORMAT
  1
GRIDFORMAT_BEGIN
 90
        0
 91
        1
 62
     0
 92
       -2
340
14
 93
        0
 40
0.045
309
GRIDFORMAT_END
 95
        4
302
GRIDFORMAT
  1
GRIDFORMAT_BEGIN
 90
        0
 91
        1
 62
     0
 92
       -2
340
14
 93
        0
 40
0.045
309
GRIDFORMAT_END
 95
        8
302
GRIDFORMAT
  1
GRIDFORMAT_BEGIN
 90
        0
 91
        1
 62
     0
 92
       -2
340
14
 93
        0
 40
0.045
309
GRIDFORMAT_END
 95
       16
302
GRIDFORMAT
  1
GRIDFORMAT_BEGIN
 90
        0
 91
        1
 62
     0
 92
       -2
340
14
 93
        0
 40
0.045
309
GRIDFORMAT_END
 95
       32
302
GRIDFORMAT
  1
GRIDFORMAT_BEGIN
 90
        0
 91
        1
 62
     0
 92
       -2
340
14
 93
        0
 40
0.045
309
GRIDFORMAT_END
309
TABLEFORMAT_END
  1
CELLSTYLE_BEGIN
 90
        3
 91
        2
300
_DATA
309
CELLSTYLE_END
  0
ENDSEC
  0
EOF
