  0
SECTION
  2
HEADER
  9
$ACADVER
  1
AC1032
  9
$ACADMAINTVER
 90
4
  9
$DWGCODEPAGE
  3
ANSI_1252
  9
$LASTSAVEDBY
  1
cipulot
  9
$REQUIREDVERSIONS
160
0
  9
$INSBASE
 10
0.0
 20
0.0
 30
0.0
  9
$EXTMIN
 10
1e+20
 20
1e+20
 30
1e+20
  9
$EXTMAX
 10
-1e+20
 20
-1e+20
 30
-1e+20
  9
$LIMMIN
 10
0.0
 20
0.0
  9
$LIMMAX
 10
12.0
 20
9.0
  9
$ORTHOMODE
 70
0
  9
$REGENMODE
 70
1
  9
$FILLMODE
 70
1
  9
$QTEXTMODE
 70
0
  9
$MIRRTEXT
 70
1
  9
$LTSCALE
 40
1.0
  9
$ATTMODE
 70
1
  9
$TEXTSIZE
 40
0.2
  9
$TRACEWID
 40
0.05
  9
$TEXTSTYLE
  7
Standard
  9
$CLAYER
  8
0
  9
$CELTYPE
  6
ByBlock
  9
$CECOLOR
 62
256
  9
$CELTSCALE
 40
1.0
  9
$DISPSILH
 70
0
  9
$DIMSCALE
 40
1.0
  9
$DIMASZ
 40
0.18
  9
$DIMEXO
 40
0.0625
  9
$DIMDLI
 40
0.38
  9
$DIMRND
 40
0.0
  9
$DIMDLE
 40
0.0
  9
$DIMEXE
 40
0.18
  9
$DIMTP
 40
0.0
  9
$DIMTM
 40
0.0
  9
$DIMTXT
 40
0.18
  9
$DIMCEN
 40
0.09
  9
$DIMTSZ
 40
0.0
  9
$DIMTOL
 70
0
  9
$DIMLIM
 70
0
  9
$DIMTIH
 70
1
  9
$DIMTOH
 70
1
  9
$DIMSE1
 70
0
  9
$DIMSE2
 70
0
  9
$DIMTAD
 70
0
  9
$DIMZIN
 70
0
  9
$DIMBLK
  1

  9
$DIMASO
 70
1
  9
$DIMSHO
 70
1
  9
$DIMPOST
  1

  9
$DIMAPOST
  1

  9
$DIMALT
 70
0
  9
$DIMALTD
 70
2
  9
$DIMALTF
 40
25.4
  9
$DIMLFAC
 40
1.0
  9
$DIMTOFL
 70
0
  9
$DIMTVP
 40
0.0
  9
$DIMTIX
 70
0
  9
$DIMSOXD
 70
0
  9
$DIMSAH
 70
0
  9
$DIMBLK1
  1

  9
$DIMBLK2
  1

  9
$DIMSTYLE
  2
ISO-25
  9
$DIMCLRD
 70
0
  9
$DIMCLRE
 70
0
  9
$DIMCLRT
 70
0
  9
$DIMTFAC
 40
1.0
  9
$DIMGAP
 40
0.09
  9
$DIMJUST
 70
0
  9
$DIMSD1
 70
0
  9
$DIMSD2
 70
0
  9
$DIMTOLJ
 70
1
  9
$DIMTZIN
 70
0
  9
$DIMALTZ
 70
0
  9
$DIMALTTZ
 70
0
  9
$DIMUPT
 70
0
  9
$DIMDEC
 70
4
  9
$DIMTDEC
 70
4
  9
$DIMALTU
 70
2
  9
$DIMALTTD
 70
2
  9
$DIMTXSTY
  7
Standard
  9
$DIMAUNIT
 70
0
  9
$DIMADEC
 70
0
  9
$DIMALTRND
 40
0.0
  9
$DIMAZIN
 70
0
  9
$DIMDSEP
 70
46
  9
$DIMATFIT
 70
3
  9
$DIMFRAC
 70
0
  9
$DIMLDRBLK
  1

  9
$DIMLUNIT
 70
2
  9
$DIMLWD
 70
-2
  9
$DIMLWE
 70
-2
  9
$DIMTMOVE
 70
2
  9
$DIMFXL
 40
1.0
  9
$DIMFXLON
 70
0
  9
$DIMJOGANG
 40
0.7853981633974483
  9
$DIMTFILL
 70
0
  9
$DIMTFILLCLR
 70
0
  9
$DIMARCSYM
 70
0
  9
$DIMLTYPE
  6

  9
$DIMLTEX1
  6

  9
$DIMLTEX2
  6

  9
$DIMTXTDIRECTION
 70
0
  9
$LUNITS
 70
2
  9
$LUPREC
 70
4
  9
$SKETCHINC
 40
0.1
  9
$FILLETRAD
 40
0.0
  9
$AUNITS
 70
0
  9
$AUPREC
 70
0
  9
$MENU
  1
.
  9
$ELEVATION
 40
0.0
  9
$PELEVATION
 40
0.0
  9
$THICKNESS
 40
0.0
  9
$LIMCHECK
 70
0
  9
$CHAMFERA
 40
0.0
  9
$CHAMFERB
 40
0.0
  9
$CHAMFERC
 40
0.0
  9
$CHAMFERD
 40
0.0
  9
$SKPOLY
 70
0
  9
$TDCREATE
 40
2461027.4730324075
  9
$TDUCREATE
 40
2461027.430991227
  9
$TDUPDATE
 40
2461027.4730324075
  9
$TDUUPDATE
 40
2461027.430991401
  9
$TDINDWG
 40
1.16e-08
  9
$TDUSRTIMER
 40
1.16e-08
  9
$USRTIMER
 70
1
  9
$ANGBASE
 50
0.0
  9
$ANGDIR
 70
1
  9
$PDMODE
 70
0
  9
$PDSIZE
 40
0.0
  9
$PLINEWID
 40
0.0
  9
$SPLFRAME
 70
0
  9
$SPLINETYPE
 70
6
  9
$SPLINESEGS
 70
8
  9
$HANDSEED
  5
837
  9
$SURFTAB1
 70
6
  9
$SURFTAB2
 70
6
  9
$SURFTYPE
 70
6
  9
$SURFU
 70
6
  9
$SURFV
 70
6
  9
$UCSBASE
  2

  9
$UCSNAME
  2

  9
$UCSORG
 10
0.0
 20
0.0
 30
0.0
  9
$UCSXDIR
 10
1.0
 20
0.0
 30
0.0
  9
$UCSYDIR
 10
0.0
 20
1.0
 30
0.0
  9
$UCSORTHOREF
  2

  9
$UCSORTHOVIEW
 70
0
  9
$UCSORGTOP
 10
0.0
 20
0.0
 30
0.0
  9
$UCSORGBOTTOM
 10
0.0
 20
0.0
 30
0.0
  9
$UCSORGLEFT
 10
0.0
 20
0.0
 30
0.0
  9
$UCSORGRIGHT
 10
0.0
 20
0.0
 30
0.0
  9
$UCSORGFRONT
 10
0.0
 20
0.0
 30
0.0
  9
$UCSORGBACK
 10
0.0
 20
0.0
 30
0.0
  9
$PUCSBASE
  2

  9
$PUCSNAME
  2

  9
$PUCSORG
 10
0.0
 20
0.0
 30
0.0
  9
$PUCSXDIR
 10
1.0
 20
0.0
 30
0.0
  9
$PUCSYDIR
 10
0.0
 20
1.0
 30
0.0
  9
$PUCSORTHOREF
  2

  9
$PUCSORTHOVIEW
 70
0
  9
$PUCSORGTOP
 10
0.0
 20
0.0
 30
0.0
  9
$PUCSORGBOTTOM
 10
0.0
 20
0.0
 30
0.0
  9
$PUCSORGLEFT
 10
0.0
 20
0.0
 30
0.0
  9
$PUCSORGRIGHT
 10
0.0
 20
0.0
 30
0.0
  9
$PUCSORGFRONT
 10
0.0
 20
0.0
 30
0.0
  9
$PUCSORGBACK
 10
0.0
 20
0.0
 30
0.0
  9
$USERI1
 70
0
  9
$USERI2
 70
0
  9
$USERI3
 70
0
  9
$USERI4
 70
0
  9
$USERI5
 70
0
  9
$USERR1
 40
0.0
  9
$USERR2
 40
0.0
  9
$USERR3
 40
0.0
  9
$USERR4
 40
0.0
  9
$USERR5
 40
0.0
  9
$WORLDVIEW
 70
1
  9
$SHADEDGE
 70
3
  9
$SHADEDIF
 70
70
  9
$TILEMODE
 70
1
  9
$MAXACTVP
 70
64
  9
$PINSBASE
 10
0.0
 20
0.0
 30
0.0
  9
$PLIMCHECK
 70
0
  9
$PEXTMIN
 10
1e+20
 20
1e+20
 30
1e+20
  9
$PEXTMAX
 10
-1e+20
 20
-1e+20
 30
-1e+20
  9
$PLIMMIN
 10
0.0
 20
0.0
  9
$PLIMMAX
 10
12.0
 20
9.0
  9
$UNITMODE
 70
0
  9
$VISRETAIN
 70
1
  9
$PLINEGEN
 70
0
  9
$PSLTSCALE
 70
1
  9
$TREEDEPTH
 70
3020
  9
$CMLSTYLE
  2
Standard
  9
$CMLJUST
 70
0
  9
$CMLSCALE
 40
1.0
  9
$PROXYGRAPHICS
 70
1
  9
$MEASUREMENT
 70
1
  9
$CELWEIGHT
370
-1
  9
$ENDCAPS
280
0
  9
$JOINSTYLE
280
0
  9
$LWDISPLAY
290
0
  9
$INSUNITS
 70
4
  9
$HYPERLINKBASE
  1

  9
$STYLESHEET
  1

  9
$XEDIT
290
1
  9
$CEPSNTYPE
380
0
  9
$PSTYLEMODE
290
1
  9
$FINGERPRINTGUID
  2
{c2772dd4-d606-684c-b0f1-44d37c8f4039}
  9
$VERSIONGUID
  2
{BA661FAB-012C-41F0-AEEE-8E40C6CAAF09}
  9
$EXTNAMES
290
1
  9
$PSVPSCALE
 40
0.0
  9
$OLESTARTUP
290
0
  9
$SORTENTS
280
127
  9
$INDEXCTL
280
0
  9
$HIDETEXT
280
1
  9
$XCLIPFRAME
280
2
  9
$HALOGAP
280
0
  9
$OBSCOLOR
 70
257
  9
$OBSLTYPE
280
0
  9
$INTERSECTIONDISPLAY
280
0
  9
$INTERSECTIONCOLOR
 70
257
  9
$DIMASSOC
280
2
  9
$PROJECTNAME
  1

  9
$CAMERADISPLAY
290
0
  9
$LENSLENGTH
 40
50.0
  9
$CAMERAHEIGHT
 40
0.0
  9
$STEPSPERSEC
 40
2.0
  9
$STEPSIZE
 40
6.0
  9
$3DDWFPREC
 40
2.0
  9
$PSOLWIDTH
 40
0.25
  9
$PSOLHEIGHT
 40
4.0
  9
$LOFTANG1
 40
1.570796326794897
  9
$LOFTANG2
 40
1.570796326794897
  9
$LOFTMAG1
 40
0.0
  9
$LOFTMAG2
 40
0.0
  9
$LOFTPARAM
 70
7
  9
$LOFTNORMALS
280
1
  9
$LATITUDE
 40
37.795
  9
$LONGITUDE
 40
-122.394
  9
$NORTHDIRECTION
 40
0.0
  9
$TIMEZONE
 70
-8000
  9
$LIGHTGLYPHDISPLAY
280
1
  9
$TILEMODELIGHTSYNCH
280
1
  9
$CMATERIAL
347
80C
  9
$SOLIDHIST
280
0
  9
$SHOWHIST
280
1
  9
$DWFFRAME
280
2
  9
$DGNFRAME
280
2
  9
$REALWORLDSCALE
290
1
  9
$INTERFERECOLOR
 62
256
  9
$CSHADOW
280
0
  9
$SHADOWPLANELOCATION
 40
0.0
  0
ENDSEC
  0
SECTION
  2
CLASSES
  0
CLASS
  1
ACDBDICTIONARYWDFLT
  2
AcDbDictionaryWithDefault
  3
ObjectDBX Classes
 90
0
 91
3
280
0
281
0
  0
CLASS
  1
SCALE
  2
AcDbScale
  3
ObjectDBX Classes
 90
1153
 91
3
280
0
281
0
  0
CLASS
  1
VISUALSTYLE
  2
AcDbVisualStyle
  3
ObjectDBX Classes
 90
4095
 91
3
280
0
281
0
  0
CLASS
  1
MATERIAL
  2
AcDbMaterial
  3
ObjectDBX Classes
 90
1153
 91
3
280
0
281
0
  0
CLASS
  1
TABLESTYLE
  2
AcDbTableStyle
  3
ObjectDBX Classes
 90
4095
 91
3
280
0
281
0
  0
CLASS
  1
MLEADERSTYLE
  2
AcDbMLeaderStyle
  3
ACDB_MLEADERSTYLE_CLASS
 90
4095
 91
3
280
0
281
0
  0
CLASS
  1
DICTIONARYVAR
  2
AcDbDictionaryVar
  3
ObjectDBX Classes
 90
0
 91
3
280
0
281
0
  0
CLASS
  1
CELLSTYLEMAP
  2
AcDbCellStyleMap
  3
ObjectDBX Classes
 90
1152
 91
3
280
0
281
0
  0
CLASS
  1
SUN
  2
AcDbSun
  3
SCENEOE
 90
1153
 91
0
280
0
281
0
  0
CLASS
  1
MENTALRAYRENDERSETTINGS
  2
AcDbMentalRayRenderSettings
  3
SCENEOE
 90
1024
 91
0
280
0
281
0
  0
CLASS
  1
ACDBDETAILVIEWSTYLE
  2
AcDbDetailViewStyle
  3
ObjectDBX Classes
 90
1025
 91
0
280
0
281
0
  0
CLASS
  1
ACDBSECTIONVIEWSTYLE
  2
AcDbSectionViewStyle
  3
ObjectDBX Classes
 90
1025
 91
0
280
0
281
0
  0
CLASS
  1
RASTERVARIABLES
  2
AcDbRasterVariables
  3
ISM
 90
0
 91
0
280
0
281
0
  0
CLASS
  1
ACDBPLACEHOLDER
  2
AcDbPlaceHolder
  3
ObjectDBX Classes
 90
0
 91
0
280
0
281
0
  0
CLASS
  1
LAYOUT
  2
AcDbLayout
  3
ObjectDBX Classes
 90
0
 91
0
280
0
281
0
  0
ENDSEC
  0
SECTION
  2
TABLES
  0
TABLE
  2
VPORT
  5
8
330
0
100
AcDbSymbolTable
 70
1
  0
VPORT
  5
442
330
8
100
AcDbSymbolTableRecord
100
AcDbViewportTableRecord
  2
*Active
 70
0
 10
0.0
 20
0.0
 11
1.0
 21
1.0
 12
344.1869158878504
 22
148.5
 13
0.0
 23
0.0
 14
10.0
 24
10.0
 15
10.0
 25
10.0
 16
0.0
 26
0.0
 36
1.0
 17
0.0
 27
0.0
 37
0.0
 40
297.0
 41
1.972972972850329
 42
50.0
 43
0.0
 44
0.0
 50
0.0
 51
0.0
 71
0
 72
100
 73
1
 74
3
 75
0
 76
0
 77
0
 78
0
281
0
 65
1
110
0.0
120
0.0
130
0.0
111
1.0
121
0.0
131
0.0
112
0.0
122
1.0
132
0.0
 79
0
146
0.0
 60
3
 61
5
348
7F7
292
1
282
1
141
0.0
142
0.0
 63
250
  0
ENDTAB
  0
TABLE
  2
LTYPE
  5
5
330
0
100
AcDbSymbolTable
 70
6
  0
LTYPE
  5
14
330
5
100
AcDbSymbolTableRecord
100
AcDbLinetypeTableRecord
  2
ByBlock
 70
0
  3

 72
65
 73
0
 40
0.0
  0
LTYPE
  5
15
330
5
100
AcDbSymbolTableRecord
100
AcDbLinetypeTableRecord
  2
ByLayer
 70
0
  3

 72
65
 73
0
 40
0.0
  0
LTYPE
  5
16
330
5
100
AcDbSymbolTableRecord
100
AcDbLinetypeTableRecord
  2
CONTINUOUS
 70
0
  3
Solid line
 72
65
 73
0
 40
0.0
  0
LTYPE
  5
410
330
5
100
AcDbSymbolTableRecord
100
AcDbLinetypeTableRecord
  2
DASHDOT
 70
0
  3
Dash Dot ____ _ ____ _
 72
65
 73
4
 40
2.0
 49
1.25
 74
0
 49
-0.25
 74
0
 49
0.25
 74
0
 49
-0.25
 74
0
  0
LTYPE
  5
411
330
5
100
AcDbSymbolTableRecord
100
AcDbLinetypeTableRecord
  2
DASHED
 70
0
  3
Dashed __ __ __ __ __
 72
65
 73
2
 40
0.75
 49
0.5
 74
0
 49
-0.25
 74
0
  0
LTYPE
  5
43B
330
5
100
AcDbSymbolTableRecord
100
AcDbLinetypeTableRecord
  2
DOTTED
 70
0
  3
Dotted .  .  .  .
 72
65
 73
2
 40
0.2
 49
0.0
 74
0
 49
-0.2
 74
0
  0
ENDTAB
  0
TABLE
  2
LAYER
  5
2
330
0
100
AcDbSymbolTable
 70
3
  0
LAYER
  5
10
330
2
100
AcDbSymbolTableRecord
100
AcDbLayerTableRecord
  2
0
 70
0
 62
7
  6
CONTINUOUS
370
-3
390
F
347
80E
348
0
  0
LAYER
  5
440
330
2
100
AcDbSymbolTableRecord
100
AcDbLayerTableRecord
  2
BLACK
 70
0
 62
7
  6
CONTINUOUS
370
-3
390
F
347
80E
348
0
  0
LAYER
  5
81E
330
2
100
AcDbSymbolTableRecord
100
AcDbLayerTableRecord
  2
Defpoints
 70
0
 62
7
  6
Continuous
290
0
370
-3
390
F
347
80E
  0
ENDTAB
  0
TABLE
  2
STYLE
  5
3
330
0
100
AcDbSymbolTable
 70
5
  0
STYLE
  5
11
330
3
100
AcDbSymbolTableRecord
100
AcDbTextStyleTableRecord
  2
Standard
 70
0
 40
0.0
 41
1.0
 50
0.0
 71
0
 42
0.2
  3
txt
  4

  0
STYLE
  5
43C
330
3
100
AcDbSymbolTableRecord
100
AcDbTextStyleTableRecord
  2
KICAD
 70
0
 40
0.0
 41
1.0
 50
0.0
 71
0
 42
1.0
  3
isocp.shx
  4

  0
STYLE
  5
43D
330
3
100
AcDbSymbolTableRecord
100
AcDbTextStyleTableRecord
  2
KICADB
 70
0
 40
0.0
 41
1.0
 50
0.0
 71
0
 42
1.0
  3
isocp.shx
  4

  0
STYLE
  5
43E
330
3
100
AcDbSymbolTableRecord
100
AcDbTextStyleTableRecord
  2
KICADI
 70
0
 40
0.0
 41
1.0
 50
15.0
 71
0
 42
1.0
  3
isocp.shx
  4

  0
STYLE
  5
43F
330
3
100
AcDbSymbolTableRecord
100
AcDbTextStyleTableRecord
  2
KICADBI
 70
0
 40
0.0
 41
1.0
 50
15.0
 71
0
 42
1.0
  3
isocp.shx
  4

  0
ENDTAB
  0
TABLE
  2
VIEW
  5
6
330
0
100
AcDbSymbolTable
 70
0
  0
ENDTAB
  0
TABLE
  2
UCS
  5
7
330
0
100
AcDbSymbolTable
 70
0
  0
ENDTAB
  0
TABLE
  2
APPID
  5
9
330
0
100
AcDbSymbolTable
 70
3
  0
APPID
  5
12
330
9
100
AcDbSymbolTableRecord
100
AcDbRegAppTableRecord
  2
ACAD
 70
0
  0
APPID
  5
820
330
9
100
AcDbSymbolTableRecord
100
AcDbRegAppTableRecord
  2
HATCHBACKGROUNDCOLOR
 70
0
  0
APPID
  5
821
330
9
100
AcDbSymbolTableRecord
100
AcDbRegAppTableRecord
  2
EZDXF
 70
0
  0
ENDTAB
  0
TABLE
  2
DIMSTYLE
  5
A
330
0
100
AcDbSymbolTable
 70
2
100
AcDbDimStyleTable
  0
DIMSTYLE
105
441
330
A
100
AcDbSymbolTableRecord
100
AcDbDimStyleTableRecord
  2
ISO-25
 70
0
 40
1.0
 41
2.5
 42
0.625
 43
3.75
 44
1.25
 45
0.0
 46
0.0
 47
0.0
 48
0.0
 49
2.5
140
2.5
141
2.5
142
0.0
143
0.03937007874016
144
1.0
145
0.0
146
1.0
147
0.625
148
0.0
 69
0
 70
0
 71
0
 72
0
 73
0
 74
0
 75
0
 76
0
 77
1
 78
8
 79
3
170
0
171
3
172
1
173
0
174
0
175
0
176
0
177
0
178
0
179
2
271
2
272
2
273
2
274
3
275
0
276
0
277
2
278
44
279
0
280
0
281
0
282
0
283
0
284
8
285
0
286
0
288
0
289
3
290
0
340
11
371
-2
372
-2
  0
DIMSTYLE
105
81F
330
A
100
AcDbSymbolTableRecord
100
AcDbDimStyleTableRecord
  2
Standard
 70
0
 40
1.0
 41
2.5
 42
0.625
 43
3.75
 44
1.25
 45
0.0
 46
0.0
 47
0.0
 48
0.0
 49
2.5
140
2.5
141
2.5
142
0.0
143
0.03937007874
144
1.0
145
0.0
146
1.0
147
0.625
148
0.0
 69
0
 70
0
 71
0
 72
0
 73
0
 74
0
 75
0
 76
0
 77
1
 78
8
 79
3
170
0
171
3
172
1
173
0
174
0
175
0
176
0
177
0
178
0
179
2
271
2
272
2
273
2
274
3
275
0
276
0
277
2
278
44
279
0
280
0
281
0
282
0
283
0
284
8
285
0
286
0
288
0
289
3
290
0
371
-2
372
-2
  0
ENDTAB
  0
TABLE
  2
BLOCK_RECORD
  5
1
330
0
100
AcDbSymbolTable
 70
2
  0
BLOCK_RECORD
  5
1D
330
1
100
AcDbSymbolTableRecord
100
AcDbBlockTableRecord
  2
*Model_Space
340
1E
 70
0
280
1
281
0
  0
BLOCK_RECORD
  5
1B
330
1
100
AcDbSymbolTableRecord
100
AcDbBlockTableRecord
  2
*Paper_Space
340
1C
 70
0
280
1
281
0
  0
ENDTAB
  0
ENDSEC
  0
SECTION
  2
BLOCKS
  0
BLOCK
  5
7EE
330
1D
100
AcDbEntity
  8
0
100
AcDbBlockBegin
  2
*Model_Space
 70
0
 10
0.0
 20
0.0
 30
0.0
  3
*Model_Space
  1

  0
ENDBLK
  5
7EF
330
1D
100
AcDbEntity
  8
0
100
AcDbBlockEnd
  0
BLOCK
  5
7F0
330
1B
100
AcDbEntity
 67
1
  8
0
100
AcDbBlockBegin
  2
*Paper_Space
 70
0
 10
0.0
 20
0.0
 30
0.0
  3
*Paper_Space
  1

  0
ENDBLK
  5
7F1
330
1B
100
AcDbEntity
 67
1
  8
0
100
AcDbBlockEnd
  0
ENDSEC
  0
SECTION
  2
ENTITIES
  0
LINE
  5
443
330
1D
100
AcDbEntity
  8
BLACK
  6
Continuous
100
AcDbLine
 10
118.635122
 20
-24.231321
 30
0.0
 11
118.635107
 21
-24.231391
 31
0.0
  0
LINE
  5
444
330
1D
100
AcDbEntity
  8
BLACK
  6
Continuous
100
AcDbLine
 10
131.937944
 20
-27.058924
 30
0.0
 11
131.937944
 21
-27.058923
 31
0.0
  0
LINE
  5
445
330
1D
100
AcDbEntity
  8
BLACK
  6
Continuous
100
AcDbLine
 10
132.323047
 20
-27.65195
 30
0.0
 11
132.322965
 21
-27.651933
 31
0.0
  0
LINE
  5
446
330
1D
100
AcDbEntity
  8
BLACK
  6
Continuous
100
AcDbLine
 10
129.620196
 20
-40.367859
 30
0.0
 11
129.620197
 21
-40.367859
 31
0.0
  0
LINE
  5
447
330
1D
100
AcDbEntity
  8
BLACK
  6
Continuous
100
AcDbLine
 10
118.04209
 20
-24.616456
 30
0.0
 11
118.042089
 21
-24.616456
 31
0.0
  0
LINE
  5
448
330
1D
100
AcDbEntity
  8
BLACK
  6
Continuous
100
AcDbLine
 10
130.320196
 20
-59.997859
 30
0.0
 11
130.320197
 21
-59.997859
 31
0.0
  0
LINE
  5
449
330
1D
100
AcDbEntity
  8
BLACK
  6
Continuous
100
AcDbLine
 10
133.022965
 20
-47.281933
 30
0.0
 11
133.023047
 21
-47.28194999999999
 31
0.0
  0
LINE
  5
44A
330
1D
100
AcDbEntity
  8
BLACK
  6
Continuous
100
AcDbLine
 10
132.637944
 20
-46.688924
 30
0.0
 11
132.637944
 21
-46.688923
 31
0.0
  0
LINE
  5
44B
330
1D
100
AcDbEntity
  8
BLACK
  6
Continuous
100
AcDbLine
 10
119.335107
 20
-43.861391
 30
0.0
 11
119.335122
 21
-43.861321
 31
0.0
  0
LINE
  5
44C
330
1D
100
AcDbEntity
  8
BLACK
  6
Continuous
100
AcDbLine
 10
118.74209
 20
-44.24645599999999
 30
0.0
 11
118.742089
 21
-44.24645599999999
 31
0.0
  0
LINE
  5
44D
330
1D
100
AcDbEntity
  8
BLACK
  6
Continuous
100
AcDbLine
 10
166.473411
 20
-84.89304
 30
0.0
 11
166.47341
 21
-84.89304
 31
0.0
  0
LINE
  5
44E
330
1D
100
AcDbEntity
  8
BLACK
  6
Continuous
100
AcDbLine
 10
166.858536
 20
-84.300051
 30
0.0
 11
166.858543
 21
-84.300085
 31
0.0
  0
LINE
  5
44F
330
1D
100
AcDbEntity
  8
BLACK
  6
Continuous
100
AcDbLine
 10
186.998667
 20
-60.51059
 30
0.0
 11
186.998667
 21
-60.510589
 31
0.0
  0
LINE
  5
450
330
1D
100
AcDbEntity
  8
BLACK
  6
Continuous
100
AcDbLine
 10
176.013534
 20
-76.64715
 30
0.0
 11
176.01354
 21
-76.647149
 31
0.0
  0
LINE
  5
451
330
1D
100
AcDbEntity
  8
BLACK
  6
Continuous
100
AcDbLine
 10
138.373047
 20
-67.89195
 30
0.0
 11
138.372965
 21
-67.891933
 31
0.0
  0
LINE
  5
452
330
1D
100
AcDbEntity
  8
BLACK
  6
Continuous
100
AcDbLine
 10
135.670196
 20
-80.60785899999999
 30
0.0
 11
135.670197
 21
-80.60785899999999
 31
0.0
  0
LINE
  5
453
330
1D
100
AcDbEntity
  8
BLACK
  6
Continuous
100
AcDbLine
 10
124.09209
 20
-64.856456
 30
0.0
 11
124.092089
 21
-64.856456
 31
0.0
  0
LINE
  5
454
330
1D
100
AcDbEntity
  8
BLACK
  6
Continuous
100
AcDbLine
 10
124.685122
 20
-64.471321
 30
0.0
 11
124.685107
 21
-64.471391
 31
0.0
  0
LINE
  5
455
330
1D
100
AcDbEntity
  8
BLACK
  6
Continuous
100
AcDbLine
 10
137.987944
 20
-67.298924
 30
0.0
 11
137.987944
 21
-67.298923
 31
0.0
  0
LINE
  5
456
330
1D
100
AcDbEntity
  8
BLACK
  6
Continuous
100
AcDbLine
 10
172.75354
 20
-38.387149
 30
0.0
 11
172.753534
 21
-38.38715
 31
0.0
  0
LINE
  5
457
330
1D
100
AcDbEntity
  8
BLACK
  6
Continuous
100
AcDbLine
 10
184.331618
 20
-22.635658
 30
0.0
 11
184.331623
 21
-22.635657
 31
0.0
  0
LINE
  5
458
330
1D
100
AcDbEntity
  8
BLACK
  6
Continuous
100
AcDbLine
 10
183.738667
 20
-22.25059
 30
0.0
 11
183.738667
 21
-22.250589
 31
0.0
  0
LINE
  5
459
330
1D
100
AcDbEntity
  8
BLACK
  6
Continuous
100
AcDbLine
 10
142.900196
 20
-23.717859
 30
0.0
 11
142.900197
 21
-23.717859
 31
0.0
  0
LINE
  5
45A
330
1D
100
AcDbEntity
  8
BLACK
  6
Continuous
100
AcDbLine
 10
145.602965
 20
-11.001933
 30
0.0
 11
145.603047
 21
-11.00195
 31
0.0
  0
LINE
  5
45B
330
1D
100
AcDbEntity
  8
BLACK
  6
Continuous
100
AcDbLine
 10
145.217944
 20
-10.408924
 30
0.0
 11
145.217944
 21
-10.408923
 31
0.0
  0
LINE
  5
45C
330
1D
100
AcDbEntity
  8
BLACK
  6
Continuous
100
AcDbLine
 10
131.915107
 20
-7.581391
 30
0.0
 11
131.915122
 21
-7.581321
 31
0.0
  0
LINE
  5
45D
330
1D
100
AcDbEntity
  8
BLACK
  6
Continuous
100
AcDbLine
 10
131.32209
 20
-7.966456
 30
0.0
 11
131.322089
 21
-7.966456
 31
0.0
  0
LINE
  5
45E
330
1D
100
AcDbEntity
  8
BLACK
  6
Continuous
100
AcDbLine
 10
232.921922
 20
-45.080257
 30
0.0
 11
232.921923
 21
-45.080257
 31
0.0
  0
LINE
  5
45F
330
1D
100
AcDbEntity
  8
BLACK
  6
Continuous
100
AcDbLine
 10
232.536795
 20
-45.673234
 30
0.0
 11
232.536793
 21
-45.673226
 31
0.0
  0
LINE
  5
460
330
1D
100
AcDbEntity
  8
BLACK
  6
Continuous
100
AcDbLine
 10
218.640958
 20
-48.11571499999999
 30
0.0
 11
218.640963
 21
-48.115714
 31
0.0
  0
LINE
  5
461
330
1D
100
AcDbEntity
  8
BLACK
  6
Continuous
100
AcDbLine
 10
215.938096
 20
-35.399743
 30
0.0
 11
215.938095
 21
-35.399743
 31
0.0
  0
LINE
  5
462
330
1D
100
AcDbEntity
  8
BLACK
  6
Continuous
100
AcDbLine
 10
216.323223
 20
-34.806766
 30
0.0
 11
216.323225
 21
-34.806774
 31
0.0
  0
LINE
  5
463
330
1D
100
AcDbEntity
  8
BLACK
  6
Continuous
100
AcDbLine
 10
223.916795
 20
-28.023233
 30
0.0
 11
223.916794
 21
-28.023226
 31
0.0
  0
LINE
  5
464
330
1D
100
AcDbEntity
  8
BLACK
  6
Continuous
100
AcDbLine
 10
210.020958
 20
-30.465714
 30
0.0
 11
210.020964
 21
-30.465713
 31
0.0
  0
LINE
  5
465
330
1D
100
AcDbEntity
  8
BLACK
  6
Continuous
100
AcDbLine
 10
207.318096
 20
-17.749743
 30
0.0
 11
207.318095
 21
-17.749743
 31
0.0
  0
LINE
  5
466
330
1D
100
AcDbEntity
  8
BLACK
  6
Continuous
100
AcDbLine
 10
207.703223
 20
-17.156765
 30
0.0
 11
207.703225
 21
-17.156774
 31
0.0
  0
LINE
  5
467
330
1D
100
AcDbEntity
  8
BLACK
  6
Continuous
100
AcDbLine
 10
221.00606
 20
-14.329161
 30
0.0
 11
221.00606
 21
-14.32916
 31
0.0
  0
LINE
  5
468
330
1D
100
AcDbEntity
  8
BLACK
  6
Continuous
100
AcDbLine
 10
224.301922
 20
-27.430257
 30
0.0
 11
224.301923
 21
-27.430257
 31
0.0
  0
LINE
  5
469
330
1D
100
AcDbEntity
  8
BLACK
  6
Continuous
100
AcDbLine
 10
215.380963
 20
-9.855713999999999
 30
0.0
 11
215.380957
 21
-9.855715
 31
0.0
  0
LINE
  5
46A
330
1D
100
AcDbEntity
  8
BLACK
  6
Continuous
100
AcDbLine
 10
229.276792
 20
-7.413226
 30
0.0
 11
229.276794
 21
-7.413234
 31
0.0
  0
LINE
  5
46B
330
1D
100
AcDbEntity
  8
BLACK
  6
Continuous
100
AcDbLine
 10
229.661921
 20
-6.820257
 30
0.0
 11
229.661922
 21
-6.820257
 31
0.0
  0
LINE
  5
46C
330
1D
100
AcDbEntity
  8
BLACK
  6
Continuous
100
AcDbLine
 10
213.063223
 20
3.453227
 30
0.0
 11
213.063222
 21
3.453234
 31
0.0
  0
LINE
  5
46D
330
1D
100
AcDbEntity
  8
BLACK
  6
Continuous
100
AcDbLine
 10
212.678095
 20
2.860257
 30
0.0
 11
212.678094
 21
2.860257
 31
0.0
  0
LINE
  5
46E
330
1D
100
AcDbEntity
  8
BLACK
  6
Continuous
100
AcDbLine
 10
22.186258
 20
-85.33999899999999
 30
0.0
 11
22.186258
 21
-85.33994899999999
 31
0.0
  0
LINE
  5
46F
330
1D
100
AcDbEntity
  8
BLACK
  6
Continuous
100
AcDbLine
 10
224.26606
 20
-52.589161
 30
0.0
 11
224.26606
 21
-52.58916
 31
0.0
  0
LINE
  5
470
330
1D
100
AcDbEntity
  8
BLACK
  6
Continuous
100
AcDbLine
 10
210.963224
 20
-55.416773
 30
0.0
 11
210.963222
 21
-55.416765
 31
0.0
  0
LINE
  5
471
330
1D
100
AcDbEntity
  8
BLACK
  6
Continuous
100
AcDbLine
 10
210.578095
 20
-56.009743
 30
0.0
 11
210.578094
 21
-56.009743
 31
0.0
  0
LINE
  5
472
330
1D
100
AcDbEntity
  8
BLACK
  6
Continuous
100
AcDbLine
 10
213.280963
 20
-68.725713
 30
0.0
 11
213.280957
 21
-68.725714
 31
0.0
  0
LINE
  5
473
330
1D
100
AcDbEntity
  8
BLACK
  6
Continuous
100
AcDbLine
 10
227.176792
 20
-66.283226
 30
0.0
 11
227.176794
 21
-66.283233
 31
0.0
  0
LINE
  5
474
330
1D
100
AcDbEntity
  8
BLACK
  6
Continuous
100
AcDbLine
 10
227.561921
 20
-65.690257
 30
0.0
 11
227.561922
 21
-65.690257
 31
0.0
  0
LINE
  5
475
330
1D
100
AcDbEntity
  8
BLACK
  6
Continuous
100
AcDbLine
 10
215.773223
 20
-75.406773
 30
0.0
 11
215.773222
 21
-75.40676599999999
 31
0.0
  0
LINE
  5
476
330
1D
100
AcDbEntity
  8
BLACK
  6
Continuous
100
AcDbLine
 10
215.388095
 20
-75.999743
 30
0.0
 11
215.388094
 21
-75.999743
 31
0.0
  0
LINE
  5
477
330
1D
100
AcDbEntity
  8
BLACK
  6
Continuous
100
AcDbLine
 10
218.090963
 20
-88.71571399999999
 30
0.0
 11
218.090957
 21
-88.715715
 31
0.0
  0
LINE
  5
478
330
1D
100
AcDbEntity
  8
BLACK
  6
Continuous
100
AcDbLine
 10
231.986792
 20
-86.273226
 30
0.0
 11
231.986794
 21
-86.273234
 31
0.0
  0
LINE
  5
479
330
1D
100
AcDbEntity
  8
BLACK
  6
Continuous
100
AcDbLine
 10
232.371921
 20
-85.680257
 30
0.0
 11
232.371922
 21
-85.680257
 31
0.0
  0
LINE
  5
47A
330
1D
100
AcDbEntity
  8
BLACK
  6
Continuous
100
AcDbLine
 10
54.926258
 20
-47.239999
 30
0.0
 11
54.926258
 21
-47.239949
 31
0.0
  0
LINE
  5
47B
330
1D
100
AcDbEntity
  8
BLACK
  6
Continuous
100
AcDbLine
 10
41.326258
 20
-33.239999
 30
0.0
 11
41.326258
 21
-33.240049
 31
0.0
  0
LINE
  5
47C
330
1D
100
AcDbEntity
  8
BLACK
  6
Continuous
100
AcDbLine
 10
279.436259
 20
-33.26505
 30
0.0
 11
279.436259
 21
-33.265
 31
0.0
  0
LINE
  5
47D
330
1D
100
AcDbEntity
  8
BLACK
  6
Continuous
100
AcDbLine
 10
192.358667
 20
-39.90059
 30
0.0
 11
192.358667
 21
-39.900589
 31
0.0
  0
LINE
  5
47E
330
1D
100
AcDbEntity
  8
BLACK
  6
Continuous
100
AcDbLine
 10
181.373534
 20
-56.03715
 30
0.0
 11
181.37354
 21
-56.037149
 31
0.0
  0
LINE
  5
47F
330
1D
100
AcDbEntity
  8
BLACK
  6
Continuous
100
AcDbLine
 10
46.686258
 20
-52.290049
 30
0.0
 11
46.686258
 21
-52.28999899999999
 31
0.0
  0
LINE
  5
480
330
1D
100
AcDbEntity
  8
BLACK
  6
Continuous
100
AcDbLine
 10
60.286258
 20
-66.289949
 30
0.0
 11
60.286258
 21
-66.289999
 31
0.0
  0
LINE
  5
481
330
1D
100
AcDbEntity
  8
BLACK
  6
Continuous
100
AcDbLine
 10
189.098667
 20
-1.64059
 30
0.0
 11
189.098667
 21
-1.640589
 31
0.0
  0
LINE
  5
482
330
1D
100
AcDbEntity
  8
BLACK
  6
Continuous
100
AcDbLine
 10
178.113534
 20
-17.77715
 30
0.0
 11
178.11354
 21
-17.777149
 31
0.0
  0
LINE
  5
483
330
1D
100
AcDbEntity
  8
BLACK
  6
Continuous
100
AcDbLine
 10
65.185738
 20
12.769074
 30
0.0
 11
65.18573599999999
 21
12.769065
 31
0.0
  0
LINE
  5
484
330
1D
100
AcDbEntity
  8
BLACK
  6
Continuous
100
AcDbLine
 10
171.275655
 20
-78.165367
 30
0.0
 11
171.275659
 21
-78.165387
 31
0.0
  0
LINE
  5
485
330
1D
100
AcDbEntity
  8
BLACK
  6
Continuous
100
AcDbLine
 10
154.676975
 20
-67.891969
 30
0.0
 11
154.676974
 21
-67.891969
 31
0.0
  0
LINE
  5
486
330
1D
100
AcDbEntity
  8
BLACK
  6
Continuous
100
AcDbLine
 10
176.635655
 20
-57.555367
 30
0.0
 11
176.635659
 21
-57.555387
 31
0.0
  0
LINE
  5
487
330
1D
100
AcDbEntity
  8
BLACK
  6
Continuous
100
AcDbLine
 10
160.036975
 20
-47.281969
 30
0.0
 11
160.036974
 21
-47.281969
 31
0.0
  0
LINE
  5
488
330
1D
100
AcDbEntity
  8
BLACK
  6
Continuous
100
AcDbLine
 10
119.739301
 20
-63.931138
 30
0.0
 11
119.739352
 21
-63.931149
 31
0.0
  0
LINE
  5
489
330
1D
100
AcDbEntity
  8
BLACK
  6
Continuous
100
AcDbLine
 10
102.755538
 20
-73.611642
 30
0.0
 11
102.755529
 21
-73.61164
 31
0.0
  0
LINE
  5
48A
330
1D
100
AcDbEntity
  8
BLACK
  6
Continuous
100
AcDbLine
 10
126.969301
 20
-7.041138
 30
0.0
 11
126.969352
 21
-7.041149
 31
0.0
  0
LINE
  5
48B
330
1D
100
AcDbEntity
  8
BLACK
  6
Continuous
100
AcDbLine
 10
109.985538
 20
-16.721642
 30
0.0
 11
109.985529
 21
-16.72164
 31
0.0
  0
LINE
  5
48C
330
1D
100
AcDbEntity
  8
BLACK
  6
Continuous
100
AcDbLine
 10
168.015655
 20
-39.905367
 30
0.0
 11
168.015659
 21
-39.905387
 31
0.0
  0
LINE
  5
48D
330
1D
100
AcDbEntity
  8
BLACK
  6
Continuous
100
AcDbLine
 10
151.416975
 20
-29.631969
 30
0.0
 11
151.416974
 21
-29.631969
 31
0.0
  0
LINE
  5
48E
330
1D
100
AcDbEntity
  8
BLACK
  6
Continuous
100
AcDbLine
 10
173.375655
 20
-19.295367
 30
0.0
 11
173.375659
 21
-19.295387
 31
0.0
  0
LINE
  5
48F
330
1D
100
AcDbEntity
  8
BLACK
  6
Continuous
100
AcDbLine
 10
156.776975
 20
-9.021969
 30
0.0
 11
156.776974
 21
-9.021969
 31
0.0
  0
LINE
  5
490
330
1D
100
AcDbEntity
  8
BLACK
  6
Continuous
100
AcDbLine
 10
97.40553799999999
 20
-53.001642
 30
0.0
 11
97.405529
 21
-53.00163999999999
 31
0.0
  0
LINE
  5
491
330
1D
100
AcDbEntity
  8
BLACK
  6
Continuous
100
AcDbLine
 10
114.389301
 20
-43.321138
 30
0.0
 11
114.389352
 21
-43.321149
 31
0.0
  0
LINE
  5
492
330
1D
100
AcDbEntity
  8
BLACK
  6
Continuous
100
AcDbLine
 10
81.47466399999999
 20
-36.325029
 30
0.0
 11
81.47466299999999
 21
-36.325029
 31
0.0
  0
LINE
  5
493
330
1D
100
AcDbEntity
  8
BLACK
  6
Continuous
100
AcDbLine
 10
93.05276599999999
 20
-52.076452
 30
0.0
 11
93.05276699999999
 21
-52.076452
 31
0.0
  0
LINE
  5
494
330
1D
100
AcDbEntity
  8
BLACK
  6
Continuous
100
AcDbLine
 10
82.086778
 20
-55.416765
 30
0.0
 11
82.086778
 21
-55.416764
 31
0.0
  0
LINE
  5
495
330
1D
100
AcDbEntity
  8
BLACK
  6
Continuous
100
AcDbLine
 10
68.190966
 20
-52.97425
 30
0.0
 11
68.19096499999999
 21
-52.97425
 31
0.0
  0
LINE
  5
496
330
1D
100
AcDbEntity
  8
BLACK
  6
Continuous
100
AcDbLine
 10
65.873239
 20
-66.283238
 30
0.0
 11
65.873239
 21
-66.283239
 31
0.0
  0
LINE
  5
497
330
1D
100
AcDbEntity
  8
BLACK
  6
Continuous
100
AcDbLine
 10
98.402766
 20
-72.686452
 30
0.0
 11
98.402767
 21
-72.686452
 31
0.0
  0
LINE
  5
498
330
1D
100
AcDbEntity
  8
BLACK
  6
Continuous
100
AcDbLine
 10
76.736778
 20
-34.806765
 30
0.0
 11
76.736778
 21
-34.806764
 31
0.0
  0
LINE
  5
499
330
1D
100
AcDbEntity
  8
BLACK
  6
Continuous
100
AcDbLine
 10
62.84096599999999
 20
-32.36425
 30
0.0
 11
62.840965
 21
-32.36425
 31
0.0
  0
LINE
  5
49A
330
1D
100
AcDbEntity
  8
BLACK
  6
Continuous
100
AcDbLine
 10
63.38096599999999
 20
-72.96424999999999
 30
0.0
 11
63.380965
 21
-72.96424999999999
 31
0.0
  0
LINE
  5
49B
330
1D
100
AcDbEntity
  8
BLACK
  6
Continuous
100
AcDbLine
 10
76.036778
 20
-15.176765
 30
0.0
 11
76.036778
 21
-15.176764
 31
0.0
  0
LINE
  5
49C
330
1D
100
AcDbEntity
  8
BLACK
  6
Continuous
100
AcDbLine
 10
62.140966
 20
-12.73425
 30
0.0
 11
62.14096499999999
 21
-12.73425
 31
0.0
  0
LINE
  5
49D
330
1D
100
AcDbEntity
  8
BLACK
  6
Continuous
100
AcDbLine
 10
59.82323899999999
 20
-26.043238
 30
0.0
 11
59.82323899999999
 21
-26.043239
 31
0.0
  0
LINE
  5
49E
330
1D
100
AcDbEntity
  8
BLACK
  6
Continuous
100
AcDbLine
 10
92.352766
 20
-32.446452
 30
0.0
 11
92.352767
 21
-32.446452
 31
0.0
  0
LINE
  5
49F
330
1D
100
AcDbEntity
  8
BLACK
  6
Continuous
100
AcDbLine
 10
113.689301
 20
-23.691138
 30
0.0
 11
113.689352
 21
-23.691149
 31
0.0
  0
LINE
  5
4A0
330
1D
100
AcDbEntity
  8
BLACK
  6
Continuous
100
AcDbLine
 10
96.70553799999999
 20
-33.371642
 30
0.0
 11
96.705529
 21
-33.37164
 31
0.0
  0
LINE
  5
4A1
330
1D
100
AcDbEntity
  8
BLACK
  6
Continuous
100
AcDbLine
 10
197.304405
 20
-39.360562
 30
0.0
 11
197.304404
 21
-39.360562
 31
0.0
  0
LINE
  5
4A2
330
1D
100
AcDbEntity
  8
BLACK
  6
Continuous
100
AcDbLine
 10
200.007252
 20
-52.076431
 30
0.0
 11
200.007246
 21
-52.076432
 31
0.0
  0
LINE
  5
4A3
330
1D
100
AcDbEntity
  8
BLACK
  6
Continuous
100
AcDbLine
 10
200.60026
 20
-52.461552
 30
0.0
 11
200.60026
 21
-52.46155299999999
 31
0.0
  0
LINE
  5
4A4
330
1D
100
AcDbEntity
  8
BLACK
  6
Continuous
100
AcDbLine
 10
213.903075
 20
-49.63391499999999
 30
0.0
 11
213.903083
 21
-49.633951
 31
0.0
  0
LINE
  5
4A5
330
1D
100
AcDbEntity
  8
BLACK
  6
Continuous
100
AcDbLine
 10
214.288207
 20
-49.04096
 30
0.0
 11
214.288208
 21
-49.04096
 31
0.0
  0
LINE
  5
4A6
330
1D
100
AcDbEntity
  8
BLACK
  6
Continuous
100
AcDbLine
 10
188.684405
 20
-21.710562
 30
0.0
 11
188.684404
 21
-21.710562
 31
0.0
  0
LINE
  5
4A7
330
1D
100
AcDbEntity
  8
BLACK
  6
Continuous
100
AcDbLine
 10
191.387252
 20
-34.426431
 30
0.0
 11
191.387246
 21
-34.426432
 31
0.0
  0
LINE
  5
4A8
330
1D
100
AcDbEntity
  8
BLACK
  6
Continuous
100
AcDbLine
 10
191.98026
 20
-34.811552
 30
0.0
 11
191.98026
 21
-34.811553
 31
0.0
  0
LINE
  5
4A9
330
1D
100
AcDbEntity
  8
BLACK
  6
Continuous
100
AcDbLine
 10
205.283075
 20
-31.983915
 30
0.0
 11
205.283083
 21
-31.983951
 31
0.0
  0
LINE
  5
4AA
330
1D
100
AcDbEntity
  8
BLACK
  6
Continuous
100
AcDbLine
 10
205.668207
 20
-31.39096
 30
0.0
 11
205.668208
 21
-31.39096
 31
0.0
  0
LINE
  5
4AB
330
1D
100
AcDbEntity
  8
BLACK
  6
Continuous
100
AcDbLine
 10
191.944405
 20
-59.97056199999999
 30
0.0
 11
191.944404
 21
-59.97056199999999
 31
0.0
  0
LINE
  5
4AC
330
1D
100
AcDbEntity
  8
BLACK
  6
Continuous
100
AcDbLine
 10
194.647252
 20
-72.686431
 30
0.0
 11
194.647246
 21
-72.686432
 31
0.0
  0
LINE
  5
4AD
330
1D
100
AcDbEntity
  8
BLACK
  6
Continuous
100
AcDbLine
 10
195.24026
 20
-73.071552
 30
0.0
 11
195.24026
 21
-73.071553
 31
0.0
  0
LINE
  5
4AE
330
1D
100
AcDbEntity
  8
BLACK
  6
Continuous
100
AcDbLine
 10
208.543075
 20
-70.243915
 30
0.0
 11
208.543083
 21
-70.243951
 31
0.0
  0
LINE
  5
4AF
330
1D
100
AcDbEntity
  8
BLACK
  6
Continuous
100
AcDbLine
 10
208.928207
 20
-69.65096
 30
0.0
 11
208.928208
 21
-69.65096
 31
0.0
  0
LINE
  5
4B0
330
1D
100
AcDbEntity
  8
BLACK
  6
Continuous
100
AcDbLine
 10
94.054664
 20
-0.045029
 30
0.0
 11
94.05466299999999
 21
-0.045029
 31
0.0
  0
LINE
  5
4B1
330
1D
100
AcDbEntity
  8
BLACK
  6
Continuous
100
AcDbLine
 10
105.632766
 20
-15.796452
 30
0.0
 11
105.632767
 21
-15.796452
 31
0.0
  0
LINE
  5
4B2
330
1D
100
AcDbEntity
  8
BLACK
  6
Continuous
100
AcDbLine
 10
89.316778
 20
1.473235
 30
0.0
 11
89.316778
 21
1.473236
 31
0.0
  0
LINE
  5
4B3
330
1D
100
AcDbEntity
  8
BLACK
  6
Continuous
100
AcDbLine
 10
75.42096599999999
 20
3.91575
 30
0.0
 11
75.420965
 21
3.91575
 31
0.0
  0
LINE
  5
4B4
330
1D
100
AcDbEntity
  8
BLACK
  6
Continuous
100
AcDbLine
 10
73.103239
 20
-9.393238
 30
0.0
 11
73.103239
 21
-9.393239
 31
0.0
  0
LINE
  5
4B5
330
1D
100
AcDbEntity
  8
BLACK
  6
Continuous
100
AcDbLine
 10
194.044405
 20
-1.100562
 30
0.0
 11
194.044404
 21
-1.100562
 31
0.0
  0
LINE
  5
4B6
330
1D
100
AcDbEntity
  8
BLACK
  6
Continuous
100
AcDbLine
 10
196.747252
 20
-13.816431
 30
0.0
 11
196.747246
 21
-13.816432
 31
0.0
  0
LINE
  5
4B7
330
1D
100
AcDbEntity
  8
BLACK
  6
Continuous
100
AcDbLine
 10
197.34026
 20
-14.201552
 30
0.0
 11
197.34026
 21
-14.201553
 31
0.0
  0
LINE
  5
4B8
330
1D
100
AcDbEntity
  8
BLACK
  6
Continuous
100
AcDbLine
 10
210.643075
 20
-11.373915
 30
0.0
 11
210.643083
 21
-11.373951
 31
0.0
  0
LINE
  5
4B9
330
1D
100
AcDbEntity
  8
BLACK
  6
Continuous
100
AcDbLine
 10
211.028207
 20
-10.78096
 30
0.0
 11
211.028208
 21
-10.78096
 31
0.0
  0
LINE
  5
4BA
330
1D
100
AcDbEntity
  8
BLACK
  6
Continuous
100
AcDbLine
 10
208.325334
 20
1.935045
 30
0.0
 11
208.325338
 21
1.935046
 31
0.0
  0
LINE
  5
4BB
330
1D
100
AcDbEntity
  8
BLACK
  6
Continuous
100
AcDbLine
 10
105.89377
 20
-100.177851
 30
0.0
 11
105.893769
 21
-100.177851
 31
0.0
  0
LINE
  5
4BC
330
1D
100
AcDbEntity
  8
BLACK
  6
Continuous
100
AcDbLine
 10
167.455511
 20
-107.860849
 30
0.0
 11
167.455511
 21
-107.86085
 31
0.0
  0
LINE
  5
4BD
330
1D
100
AcDbEntity
  8
BLACK
  6
Continuous
100
AcDbLine
 10
197.749528
 20
-99.376975
 30
0.0
 11
197.749526
 21
-99.37696299999999
 31
0.0
  0
LINE
  5
4BE
330
1D
100
AcDbEntity
  8
BLACK
  6
Continuous
100
AcDbLine
 10
197.364398
 20
-99.969943
 30
0.0
 11
197.364397
 21
-99.969943
 31
0.0
  0
LINE
  5
4BF
330
1D
100
AcDbEntity
  8
BLACK
  6
Continuous
100
AcDbLine
 10
305.978759
 20
12.780081
 30
0.0
 11
305.978759
 21
12.78005
 31
0.0
  0
LINE
  5
4C0
330
1D
100
AcDbEntity
  8
BLACK
  6
Continuous
100
AcDbLine
 10
60.706329
 20
-96.96262
 30
0.0
 11
60.70632699999999
 21
-96.96262899999999
 31
0.0
  0
LINE
  5
4C1
330
1D
100
AcDbEntity
  8
BLACK
  6
Continuous
100
AcDbLine
 10
162.297802
 20
-112.696171
 30
0.0
 11
162.297802
 21
-112.696178
 31
0.0
  0
LINE
  5
4C2
330
1D
100
AcDbEntity
  8
BLACK
  6
Continuous
100
AcDbLine
 10
228.183209
 20
10.78
 30
0.0
 11
228.183209
 21
10.780011
 31
0.0
  0
LINE
  5
4C3
330
1D
100
AcDbEntity
  8
BLACK
  6
Continuous
100
AcDbLine
 10
194.083133
 20
5.587629
 30
0.0
 11
194.08313
 21
5.587641
 31
0.0
  0
LINE
  5
4C4
330
1D
100
AcDbEntity
  8
BLACK
  6
Continuous
100
AcDbLine
 10
193.697929
 20
4.994598
 30
0.0
 11
193.697928
 21
4.994598
 31
0.0
  0
LINE
  5
4C5
330
1D
100
AcDbEntity
  8
BLACK
  6
Continuous
100
AcDbLine
 10
192.732145
 20
3.766969
 30
0.0
 11
192.732146
 21
3.766969
 31
0.0
  0
LINE
  5
4C6
330
1D
100
AcDbEntity
  8
BLACK
  6
Continuous
100
AcDbLine
 10
192.274709
 20
5.918888
 30
0.0
 11
192.274741
 21
5.918895
 31
0.0
  0
LINE
  5
4C7
330
1D
100
AcDbEntity
  8
BLACK
  6
Continuous
100
AcDbLine
 10
189.72543
 20
5.888123999999999
 30
0.0
 11
189.725427
 21
5.888135999999999
 31
0.0
  0
LINE
  5
4C8
330
1D
100
AcDbEntity
  8
BLACK
  6
Continuous
100
AcDbLine
 10
101.003096
 20
-99.13840499999999
 30
0.0
 11
101.003098
 21
-99.13840499999999
 31
0.0
  0
LINE
  5
4C9
330
1D
100
AcDbEntity
  8
BLACK
  6
Continuous
100
AcDbLine
 10
100.61797
 20
-98.54530299999999
 30
0.0
 11
100.61797
 21
-98.54530199999999
 31
0.0
  0
LINE
  5
4CA
330
1D
100
AcDbEntity
  8
BLACK
  6
Continuous
100
AcDbLine
 10
56.116605
 20
-91.130926
 30
0.0
 11
56.116604
 21
-91.13093099999999
 31
0.0
  0
LINE
  5
4CB
330
1D
100
AcDbEntity
  8
BLACK
  6
Continuous
100
AcDbLine
 10
77.480308
 20
-95.927506
 30
0.0
 11
77.48024199999999
 21
-95.927492
 31
0.0
  0
LINE
  5
4CC
330
1D
100
AcDbEntity
  8
BLACK
  6
Continuous
100
AcDbLine
 10
245.937644
 20
-91.17891499999999
 30
0.0
 11
245.937644
 21
-91.17891399999999
 31
0.0
  0
LINE
  5
4CD
330
1D
100
AcDbEntity
  8
BLACK
  6
Continuous
100
AcDbLine
 10
113.142863
 20
2.575347
 30
0.0
 11
113.14288
 21
2.575422
 31
0.0
  0
LINE
  5
4CE
330
1D
100
AcDbEntity
  8
BLACK
  6
Continuous
100
AcDbLine
 10
187.822948
 20
4.256997
 30
0.0
 11
187.822948
 21
4.256997999999999
 31
0.0
  0
LINE
  5
4CF
330
1D
100
AcDbEntity
  8
BLACK
  6
Continuous
100
AcDbLine
 10
102.574207
 20
-98.961086
 30
0.0
 11
102.57419
 21
-98.96116599999999
 31
0.0
  0
LINE
  5
4D0
330
1D
100
AcDbEntity
  8
BLACK
  6
Continuous
100
AcDbLine
 10
104.53047
 20
-99.376894
 30
0.0
 11
104.53047
 21
-99.376893
 31
0.0
  0
LINE
  5
4D1
330
1D
100
AcDbEntity
  8
BLACK
  6
Continuous
100
AcDbLine
 10
104.915615
 20
-99.96996299999999
 30
0.0
 11
104.915616
 21
-99.96996299999999
 31
0.0
  0
LINE
  5
4D2
330
1D
100
AcDbEntity
  8
BLACK
  6
Continuous
100
AcDbLine
 10
103.906703
 20
-102.311459
 30
0.0
 11
103.906704
 21
-102.311452
 31
0.0
  0
LINE
  5
4D3
330
1D
100
AcDbEntity
  8
BLACK
  6
Continuous
100
AcDbLine
 10
301.778759
 20
13.98005
 30
0.0
 11
301.778759
 21
13.980081
 31
0.0
  0
LINE
  5
4D4
330
1D
100
AcDbEntity
  8
BLACK
  6
Continuous
100
AcDbLine
 10
301.778759
 20
-89.16794999999999
 30
0.0
 11
301.778759
 21
-89.167919
 31
0.0
  0
LINE
  5
4D5
330
1D
100
AcDbEntity
  8
BLACK
  6
Continuous
100
AcDbLine
 10
111.235382
 20
4.207727999999999
 30
0.0
 11
111.235382
 21
4.207729
 31
0.0
  0
LINE
  5
4D6
330
1D
100
AcDbEntity
  8
BLACK
  6
Continuous
100
AcDbLine
 10
109.279061
 20
4.62353
 30
0.0
 11
109.279071
 21
4.623577
 31
0.0
  0
LINE
  5
4D7
330
1D
100
AcDbEntity
  8
BLACK
  6
Continuous
100
AcDbLine
 10
108.613839
 20
1.493466
 30
0.0
 11
108.613839
 21
1.493465
 31
0.0
  0
LINE
  5
4D8
330
1D
100
AcDbEntity
  8
BLACK
  6
Continuous
100
AcDbLine
 10
118.042089
 20
-24.616456
 30
0.0
 11
115.338314
 21
-37.33672
 31
0.0
  0
ARC
  5
4D9
330
1D
100
AcDbEntity
  8
BLACK
100
AcDbCircle
 10
115.828309
 20
-37.4363
 30
0.0
 40
0.5000123810067106
100
AcDbArc
 50
168.51242018
 51
258.00004915
  0
LINE
  5
4DA
330
1D
100
AcDbEntity
  8
BLACK
  6
Continuous
100
AcDbLine
 10
115.724351
 20
-37.925386
 30
0.0
 11
129.027151
 21
-40.752984
 31
0.0
  0
ARC
  5
4DB
330
1D
100
AcDbEntity
  8
BLACK
100
AcDbCircle
 10
129.131109
 20
-40.2639
 30
0.0
 40
0.5000135670659347
100
AcDbArc
 50
258.0000015
 51
347.9999608900001
  0
LINE
  5
4DC
330
1D
100
AcDbEntity
  8
BLACK
  6
Continuous
100
AcDbLine
 10
129.620197
 20
-40.367859
 30
0.0
 11
132.323047
 21
-27.65195
 31
0.0
  0
ARC
  5
4DD
330
1D
100
AcDbEntity
  8
BLACK
100
AcDbCircle
 10
131.834009
 20
-27.5479
 30
0.0
 40
0.4999000028015603
100
AcDbArc
 50
347.98854308
 51
78.00000642
  0
LINE
  5
4DE
330
1D
100
AcDbEntity
  8
BLACK
  6
Continuous
100
AcDbLine
 10
131.937944
 20
-27.058923
 30
0.0
 11
118.635122
 21
-24.231321
 31
0.0
  0
ARC
  5
4DF
330
1D
100
AcDbEntity
  8
BLACK
100
AcDbCircle
 10
118.531109
 20
-24.7204
 30
0.0
 40
0.4999439343536433
100
AcDbArc
 50
77.99373045
 51
168.00002211
  0
LINE
  5
4E0
330
1D
100
AcDbEntity
  8
BLACK
  6
Continuous
100
AcDbLine
 10
116.424351
 20
-57.555386
 30
0.0
 11
129.727151
 21
-60.382984
 31
0.0
  0
ARC
  5
4E1
330
1D
100
AcDbEntity
  8
BLACK
100
AcDbCircle
 10
129.831109
 20
-59.8939
 30
0.0
 40
0.5000135670659347
100
AcDbArc
 50
258.0000015
 51
347.9999608900001
  0
LINE
  5
4E2
330
1D
100
AcDbEntity
  8
BLACK
  6
Continuous
100
AcDbLine
 10
130.320197
 20
-59.997859
 30
0.0
 11
133.023047
 21
-47.28194999999999
 31
0.0
  0
ARC
  5
4E3
330
1D
100
AcDbEntity
  8
BLACK
100
AcDbCircle
 10
132.534009
 20
-47.1779
 30
0.0
 40
0.4999000028015603
100
AcDbArc
 50
347.98854308
 51
78.00000642
  0
LINE
  5
4E4
330
1D
100
AcDbEntity
  8
BLACK
  6
Continuous
100
AcDbLine
 10
132.637944
 20
-46.688923
 30
0.0
 11
119.335122
 21
-43.861321
 31
0.0
  0
ARC
  5
4E5
330
1D
100
AcDbEntity
  8
BLACK
100
AcDbCircle
 10
119.231109
 20
-44.3504
 30
0.0
 40
0.4999439343536433
100
AcDbArc
 50
77.99373045
 51
168.00002211
  0
LINE
  5
4E6
330
1D
100
AcDbEntity
  8
BLACK
  6
Continuous
100
AcDbLine
 10
118.742089
 20
-44.24645599999999
 30
0.0
 11
116.038314
 21
-56.96672
 31
0.0
  0
ARC
  5
4E7
330
1D
100
AcDbEntity
  8
BLACK
100
AcDbCircle
 10
116.528309
 20
-57.0663
 30
0.0
 40
0.5000123810067106
100
AcDbArc
 50
168.51242018
 51
258.00004915
  0
ARC
  5
4E8
330
1D
100
AcDbEntity
  8
BLACK
100
AcDbCircle
 10
166.962409
 20
-84.78909999999999
 30
0.0
 40
0.4999225616072953
100
AcDbArc
 50
101.99132905
 51
192.00002987
  0
LINE
  5
4E9
330
1D
100
AcDbEntity
  8
BLACK
  6
Continuous
100
AcDbLine
 10
166.47341
 20
-84.89304
 30
0.0
 11
168.909727
 21
-96.355014
 31
0.0
  0
LINE
  5
4EA
330
1D
100
AcDbEntity
  8
BLACK
  6
Continuous
100
AcDbLine
 10
168.909727
 20
-96.355014
 30
0.0
 11
172.204273
 21
-97.42542999999999
 31
0.0
  0
LINE
  5
4EB
330
1D
100
AcDbEntity
  8
BLACK
  6
Continuous
100
AcDbLine
 10
172.204273
 20
-97.42542999999999
 30
0.0
 11
197.636111
 21
-92.01972699999999
 31
0.0
  0
LINE
  5
4EC
330
1D
100
AcDbEntity
  8
BLACK
  6
Continuous
100
AcDbLine
 10
197.636111
 20
-92.01972699999999
 30
0.0
 11
200.210451
 21
-89.70183999999999
 31
0.0
  0
LINE
  5
4ED
330
1D
100
AcDbEntity
  8
BLACK
  6
Continuous
100
AcDbLine
 10
200.210451
 20
-89.70183999999999
 30
0.0
 11
197.77413
 21
-78.23985499999999
 31
0.0
  0
ARC
  5
4EE
330
1D
100
AcDbEntity
  8
BLACK
100
AcDbCircle
 10
197.285109
 20
-78.3438
 30
0.0
 40
0.499948054855702
100
AcDbArc
 50
12.00004234
 51
101.99999468
  0
LINE
  5
4EF
330
1D
100
AcDbEntity
  8
BLACK
  6
Continuous
100
AcDbLine
 10
197.181164
 20
-77.854777
 30
0.0
 11
166.858536
 21
-84.300051
 31
0.0
  0
CIRCLE
  5
4F0
330
1D
100
AcDbEntity
  8
BLACK
100
AcDbCircle
 10
144.344019
 20
-95.281876
 30
0.0
 40
1.000002
  0
CIRCLE
  5
4F1
330
1D
100
AcDbEntity
  8
BLACK
100
AcDbCircle
 10
146.539132
 20
-76.27291799999999
 30
0.0
 40
1.000003
  0
LINE
  5
4F2
330
1D
100
AcDbEntity
  8
BLACK
  6
Continuous
100
AcDbLine
 10
154.676974
 20
-67.891969
 30
0.0
 11
157.37982
 21
-80.60785899999999
 31
0.0
  0
ARC
  5
4F3
330
1D
100
AcDbEntity
  8
BLACK
100
AcDbCircle
 10
157.868909
 20
-80.5039
 30
0.0
 40
0.5000094465637624
100
AcDbArc
 50
192.00006997
 51
282.00002232
  0
LINE
  5
4F4
330
1D
100
AcDbEntity
  8
BLACK
  6
Continuous
100
AcDbLine
 10
157.972867
 20
-80.992983
 30
0.0
 11
171.275659
 21
-78.165387
 31
0.0
  0
ARC
  5
4F5
330
1D
100
AcDbEntity
  8
BLACK
100
AcDbCircle
 10
171.171709
 20
-77.6763
 30
0.0
 40
0.4999910082601486
100
AcDbArc
 50
281.99905845
 51
12.00000282
  0
LINE
  5
4F6
330
1D
100
AcDbEntity
  8
BLACK
  6
Continuous
100
AcDbLine
 10
171.660774
 20
-77.572346
 30
0.0
 11
168.956768
 21
-64.850998
 31
0.0
  0
ARC
  5
4F7
330
1D
100
AcDbEntity
  8
BLACK
100
AcDbCircle
 10
168.468809
 20
-64.9605
 30
0.0
 40
0.5000953533727344
100
AcDbArc
 50
12.64810553
 51
102.0000386
  0
LINE
  5
4F8
330
1D
100
AcDbEntity
  8
BLACK
  6
Continuous
100
AcDbLine
 10
168.364833
 20
-64.471333
 30
0.0
 11
155.055886
 21
-67.300237
 31
0.0
  0
ARC
  5
4F9
330
1D
100
AcDbEntity
  8
BLACK
100
AcDbCircle
 10
155.166109
 20
-67.788
 30
0.0
 40
0.5000616191200841
100
AcDbArc
 50
102.73362845
 51
192.00004021
  0
CIRCLE
  5
4FA
330
1D
100
AcDbEntity
  8
BLACK
100
AcDbCircle
 10
159.212014
 20
-54.102521
 30
0.0
 40
0.9999979999999999
  0
CIRCLE
  5
4FB
330
1D
100
AcDbEntity
  8
BLACK
100
AcDbCircle
 10
168.925375
 20
-98.352419
 30
0.0
 40
1.0
  0
CIRCLE
  5
4FC
330
1D
100
AcDbEntity
  8
BLACK
100
AcDbCircle
 10
172.485771
 20
-70.751792
 30
0.0
 40
1.000001
  0
ARC
  5
4FD
330
1D
100
AcDbEntity
  8
BLACK
100
AcDbCircle
 10
163.228909
 20
-59.8939
 30
0.0
 40
0.5000094465637624
100
AcDbArc
 50
192.00006997
 51
282.00002232
  0
LINE
  5
4FE
330
1D
100
AcDbEntity
  8
BLACK
  6
Continuous
100
AcDbLine
 10
163.332867
 20
-60.382983
 30
0.0
 11
176.635659
 21
-57.555387
 31
0.0
  0
ARC
  5
4FF
330
1D
100
AcDbEntity
  8
BLACK
100
AcDbCircle
 10
176.531709
 20
-57.0663
 30
0.0
 40
0.4999910082601486
100
AcDbArc
 50
281.99905845
 51
12.00000282
  0
LINE
  5
500
330
1D
100
AcDbEntity
  8
BLACK
  6
Continuous
100
AcDbLine
 10
177.020774
 20
-56.962346
 30
0.0
 11
174.316768
 21
-44.240998
 31
0.0
  0
ARC
  5
501
330
1D
100
AcDbEntity
  8
BLACK
100
AcDbCircle
 10
173.828809
 20
-44.3505
 30
0.0
 40
0.5000953533727344
100
AcDbArc
 50
12.64810553
 51
102.0000386
  0
LINE
  5
502
330
1D
100
AcDbEntity
  8
BLACK
  6
Continuous
100
AcDbLine
 10
173.724833
 20
-43.86133299999999
 30
0.0
 11
160.415886
 21
-46.690237
 31
0.0
  0
ARC
  5
503
330
1D
100
AcDbEntity
  8
BLACK
100
AcDbCircle
 10
160.526109
 20
-47.178
 30
0.0
 40
0.5000616191200841
100
AcDbArc
 50
102.73362845
 51
192.00004021
  0
LINE
  5
504
330
1D
100
AcDbEntity
  8
BLACK
  6
Continuous
100
AcDbLine
 10
160.036974
 20
-47.281969
 30
0.0
 11
162.73982
 21
-59.997859
 31
0.0
  0
ARC
  5
505
330
1D
100
AcDbEntity
  8
BLACK
100
AcDbCircle
 10
173.799809
 20
-63.82729999999999
 30
0.0
 40
0.5000473013185852
100
AcDbArc
 50
102.36227163
 51
192.0000375
  0
LINE
  5
506
330
1D
100
AcDbEntity
  8
BLACK
  6
Continuous
100
AcDbLine
 10
173.310689
 20
-63.93126599999999
 30
0.0
 11
176.013534
 21
-76.64715
 31
0.0
  0
ARC
  5
507
330
1D
100
AcDbEntity
  8
BLACK
100
AcDbCircle
 10
176.502609
 20
-76.5432
 30
0.0
 40
0.4999941506147846
100
AcDbArc
 50
191.99934708
 51
282.00004343
  0
LINE
  5
508
330
1D
100
AcDbEntity
  8
BLACK
  6
Continuous
100
AcDbLine
 10
176.606564
 20
-77.032268
 30
0.0
 11
189.912298
 21
-74.20404599999999
 31
0.0
  0
ARC
  5
509
330
1D
100
AcDbEntity
  8
BLACK
100
AcDbCircle
 10
189.805409
 20
-73.7156
 30
0.0
 40
0.500006304209257
100
AcDbArc
 50
282.34372593
 51
11.99998171
  0
LINE
  5
50A
330
1D
100
AcDbEntity
  8
BLACK
  6
Continuous
100
AcDbLine
 10
190.294489
 20
-73.611643
 30
0.0
 11
187.591623
 21
-60.895657
 31
0.0
  0
ARC
  5
50B
330
1D
100
AcDbEntity
  8
BLACK
100
AcDbCircle
 10
187.102609
 20
-60.99959999999999
 30
0.0
 40
0.4999347152018951
100
AcDbArc
 50
11.99998493
 51
101.99996814
  0
LINE
  5
50C
330
1D
100
AcDbEntity
  8
BLACK
  6
Continuous
100
AcDbLine
 10
186.998667
 20
-60.510589
 30
0.0
 11
173.692753
 21
-63.338848
 31
0.0
  0
LINE
  5
50D
330
1D
100
AcDbEntity
  8
BLACK
  6
Continuous
100
AcDbLine
 10
117.036482
 20
-76.647156
 30
0.0
 11
119.739352
 21
-63.931149
 31
0.0
  0
ARC
  5
50E
330
1D
100
AcDbEntity
  8
BLACK
100
AcDbCircle
 10
119.250309
 20
-63.8272
 30
0.0
 40
0.4999162768984422
100
AcDbArc
 50
348.0000513699999
 51
78.00005136999998
  0
LINE
  5
50F
330
1D
100
AcDbEntity
  8
BLACK
  6
Continuous
100
AcDbLine
 10
119.354247
 20
-63.33820799999999
 30
0.0
 11
106.051488
 21
-60.510619
 31
0.0
  0
ARC
  5
510
330
1D
100
AcDbEntity
  8
BLACK
100
AcDbCircle
 10
105.947509
 20
-60.9997
 30
0.0
 40
0.5000574986179089
100
AcDbArc
 50
77.99752773000002
 51
167.99997658
  0
LINE
  5
511
330
1D
100
AcDbEntity
  8
BLACK
  6
Continuous
100
AcDbLine
 10
105.458379
 20
-60.895732
 30
0.0
 11
102.755529
 21
-73.61164
 31
0.0
  0
ARC
  5
512
330
1D
100
AcDbEntity
  8
BLACK
100
AcDbCircle
 10
103.244609
 20
-73.7156
 30
0.0
 40
0.4999980632052488
100
AcDbArc
 50
167.99969178
 51
258.00005187
  0
LINE
  5
513
330
1D
100
AcDbEntity
  8
BLACK
  6
Continuous
100
AcDbLine
 10
103.140654
 20
-74.204672
 30
0.0
 11
116.443454
 21
-77.032269
 31
0.0
  0
ARC
  5
514
330
1D
100
AcDbEntity
  8
BLACK
100
AcDbCircle
 10
116.547409
 20
-76.5432
 30
0.0
 40
0.4999992492644364
100
AcDbArc
 50
257.9999636
 51
347.9999636
  0
ARC
  5
515
330
1D
100
AcDbEntity
  8
BLACK
100
AcDbCircle
 10
124.581109
 20
-64.96039999999999
 30
0.0
 40
0.4999439343536433
100
AcDbArc
 50
77.99373045
 51
168.00002211
  0
LINE
  5
516
330
1D
100
AcDbEntity
  8
BLACK
  6
Continuous
100
AcDbLine
 10
124.092089
 20
-64.856456
 30
0.0
 11
121.388314
 21
-77.57672
 31
0.0
  0
ARC
  5
517
330
1D
100
AcDbEntity
  8
BLACK
100
AcDbCircle
 10
121.878309
 20
-77.6763
 30
0.0
 40
0.5000123810067106
100
AcDbArc
 50
168.51242018
 51
258.00004915
  0
LINE
  5
518
330
1D
100
AcDbEntity
  8
BLACK
  6
Continuous
100
AcDbLine
 10
121.774351
 20
-78.165386
 30
0.0
 11
135.077151
 21
-80.99298399999999
 31
0.0
  0
ARC
  5
519
330
1D
100
AcDbEntity
  8
BLACK
100
AcDbCircle
 10
135.181109
 20
-80.5039
 30
0.0
 40
0.5000135670659347
100
AcDbArc
 50
258.0000015
 51
347.9999608900001
  0
LINE
  5
51A
330
1D
100
AcDbEntity
  8
BLACK
  6
Continuous
100
AcDbLine
 10
135.670197
 20
-80.60785899999999
 30
0.0
 11
138.373047
 21
-67.89195
 31
0.0
  0
ARC
  5
51B
330
1D
100
AcDbEntity
  8
BLACK
100
AcDbCircle
 10
137.884009
 20
-67.7879
 30
0.0
 40
0.4999000028015603
100
AcDbArc
 50
347.98854308
 51
78.00000642
  0
LINE
  5
51C
330
1D
100
AcDbEntity
  8
BLACK
  6
Continuous
100
AcDbLine
 10
137.987944
 20
-67.298923
 30
0.0
 11
124.685122
 21
-64.471321
 31
0.0
  0
CIRCLE
  5
51D
330
1D
100
AcDbEntity
  8
BLACK
100
AcDbCircle
 10
133.848045
 20
-54.102517
 30
0.0
 40
1.0
  0
CIRCLE
  5
51E
330
1D
100
AcDbEntity
  8
BLACK
100
AcDbCircle
 10
120.564279
 20
-70.75179
 30
0.0
 40
0.9999969999999999
  0
LINE
  5
51F
330
1D
100
AcDbEntity
  8
BLACK
  6
Continuous
100
AcDbLine
 10
126.584247
 20
-6.448207999999999
 30
0.0
 11
113.281488
 21
-3.620619
 31
0.0
  0
ARC
  5
520
330
1D
100
AcDbEntity
  8
BLACK
100
AcDbCircle
 10
113.177509
 20
-4.1097
 30
0.0
 40
0.5000574986179089
100
AcDbArc
 50
77.99752773000002
 51
167.99997658
  0
LINE
  5
521
330
1D
100
AcDbEntity
  8
BLACK
  6
Continuous
100
AcDbLine
 10
112.688379
 20
-4.005732
 30
0.0
 11
109.985529
 21
-16.72164
 31
0.0
  0
ARC
  5
522
330
1D
100
AcDbEntity
  8
BLACK
100
AcDbCircle
 10
110.474609
 20
-16.8256
 30
0.0
 40
0.4999980632052488
100
AcDbArc
 50
167.99969178
 51
258.00005187
  0
LINE
  5
523
330
1D
100
AcDbEntity
  8
BLACK
  6
Continuous
100
AcDbLine
 10
110.370654
 20
-17.314672
 30
0.0
 11
123.673454
 21
-20.142269
 31
0.0
  0
ARC
  5
524
330
1D
100
AcDbEntity
  8
BLACK
100
AcDbCircle
 10
123.777409
 20
-19.6532
 30
0.0
 40
0.4999992492644364
100
AcDbArc
 50
257.9999636
 51
347.9999636
  0
LINE
  5
525
330
1D
100
AcDbEntity
  8
BLACK
  6
Continuous
100
AcDbLine
 10
124.266482
 20
-19.757156
 30
0.0
 11
126.969352
 21
-7.041149
 31
0.0
  0
ARC
  5
526
330
1D
100
AcDbEntity
  8
BLACK
100
AcDbCircle
 10
126.480309
 20
-6.9372
 30
0.0
 40
0.4999162768984422
100
AcDbArc
 50
348.0000513699999
 51
78.00005136999998
  0
ARC
  5
527
330
1D
100
AcDbEntity
  8
BLACK
100
AcDbCircle
 10
173.242609
 20
-38.2832
 30
0.0
 40
0.4999941506147846
100
AcDbArc
 50
191.99934708
 51
282.00004343
  0
LINE
  5
528
330
1D
100
AcDbEntity
  8
BLACK
  6
Continuous
100
AcDbLine
 10
173.346564
 20
-38.772268
 30
0.0
 11
186.652298
 21
-35.944046
 31
0.0
  0
ARC
  5
529
330
1D
100
AcDbEntity
  8
BLACK
100
AcDbCircle
 10
186.545409
 20
-35.4556
 30
0.0
 40
0.500006304209257
100
AcDbArc
 50
282.34372593
 51
11.99998171
  0
LINE
  5
52A
330
1D
100
AcDbEntity
  8
BLACK
  6
Continuous
100
AcDbLine
 10
187.034489
 20
-35.351643
 30
0.0
 11
184.331623
 21
-22.635657
 31
0.0
  0
ARC
  5
52B
330
1D
100
AcDbEntity
  8
BLACK
100
AcDbCircle
 10
183.842609
 20
-22.7396
 30
0.0
 40
0.4999347152018951
100
AcDbArc
 50
11.99999197
 51
101.99996814
  0
LINE
  5
52C
330
1D
100
AcDbEntity
  8
BLACK
  6
Continuous
100
AcDbLine
 10
183.738667
 20
-22.250589
 30
0.0
 11
170.432753
 21
-25.078848
 31
0.0
  0
ARC
  5
52D
330
1D
100
AcDbEntity
  8
BLACK
100
AcDbCircle
 10
170.539809
 20
-25.5673
 30
0.0
 40
0.5000473013185852
100
AcDbArc
 50
102.36227163
 51
192.0000375
  0
LINE
  5
52E
330
1D
100
AcDbEntity
  8
BLACK
  6
Continuous
100
AcDbLine
 10
170.050689
 20
-25.671266
 30
0.0
 11
172.753534
 21
-38.38715
 31
0.0
  0
CIRCLE
  5
52F
330
1D
100
AcDbEntity
  8
BLACK
100
AcDbCircle
 10
169.225262
 20
-32.491899
 30
0.0
 40
0.999999
  0
ARC
  5
530
330
1D
100
AcDbEntity
  8
BLACK
100
AcDbCircle
 10
167.911709
 20
-39.4163
 30
0.0
 40
0.4999910082601486
100
AcDbArc
 50
281.99905845
 51
12.00000282
  0
LINE
  5
531
330
1D
100
AcDbEntity
  8
BLACK
  6
Continuous
100
AcDbLine
 10
168.400774
 20
-39.312346
 30
0.0
 11
165.696768
 21
-26.590998
 31
0.0
  0
ARC
  5
532
330
1D
100
AcDbEntity
  8
BLACK
100
AcDbCircle
 10
165.208809
 20
-26.7005
 30
0.0
 40
0.5000953533727344
100
AcDbArc
 50
12.64810553
 51
102.0000386
  0
LINE
  5
533
330
1D
100
AcDbEntity
  8
BLACK
  6
Continuous
100
AcDbLine
 10
165.104833
 20
-26.211333
 30
0.0
 11
151.795886
 21
-29.040237
 31
0.0
  0
ARC
  5
534
330
1D
100
AcDbEntity
  8
BLACK
100
AcDbCircle
 10
151.906109
 20
-29.528
 30
0.0
 40
0.5000616191200841
100
AcDbArc
 50
102.73362845
 51
192.00004021
  0
LINE
  5
535
330
1D
100
AcDbEntity
  8
BLACK
  6
Continuous
100
AcDbLine
 10
151.416974
 20
-29.631969
 30
0.0
 11
154.11982
 21
-42.347859
 31
0.0
  0
ARC
  5
536
330
1D
100
AcDbEntity
  8
BLACK
100
AcDbCircle
 10
154.608909
 20
-42.2439
 30
0.0
 40
0.5000094465637624
100
AcDbArc
 50
192.00006997
 51
282.00002232
  0
LINE
  5
537
330
1D
100
AcDbEntity
  8
BLACK
  6
Continuous
100
AcDbLine
 10
154.712867
 20
-42.732983
 30
0.0
 11
168.015659
 21
-39.905387
 31
0.0
  0
ARC
  5
538
330
1D
100
AcDbEntity
  8
BLACK
100
AcDbCircle
 10
142.411109
 20
-23.6139
 30
0.0
 40
0.5000135670659347
100
AcDbArc
 50
258.0000015
 51
347.9999608900001
  0
LINE
  5
539
330
1D
100
AcDbEntity
  8
BLACK
  6
Continuous
100
AcDbLine
 10
142.900197
 20
-23.717859
 30
0.0
 11
145.603047
 21
-11.00195
 31
0.0
  0
ARC
  5
53A
330
1D
100
AcDbEntity
  8
BLACK
100
AcDbCircle
 10
145.114009
 20
-10.8979
 30
0.0
 40
0.4999000028015603
100
AcDbArc
 50
347.98854308
 51
78.00000642
  0
LINE
  5
53B
330
1D
100
AcDbEntity
  8
BLACK
  6
Continuous
100
AcDbLine
 10
145.217944
 20
-10.408923
 30
0.0
 11
131.915122
 21
-7.581321
 31
0.0
  0
ARC
  5
53C
330
1D
100
AcDbEntity
  8
BLACK
100
AcDbCircle
 10
131.811109
 20
-8.0704
 30
0.0
 40
0.4999439343536433
100
AcDbArc
 50
77.99373045
 51
168.00002211
  0
LINE
  5
53D
330
1D
100
AcDbEntity
  8
BLACK
  6
Continuous
100
AcDbLine
 10
131.322089
 20
-7.966456
 30
0.0
 11
128.618291
 21
-20.686828
 31
0.0
  0
ARC
  5
53E
330
1D
100
AcDbEntity
  8
BLACK
100
AcDbCircle
 10
129.108309
 20
-20.7863
 30
0.0
 40
0.5000123810067106
100
AcDbArc
 50
168.52507273
 51
258.00004915
  0
LINE
  5
53F
330
1D
100
AcDbEntity
  8
BLACK
  6
Continuous
100
AcDbLine
 10
129.004351
 20
-21.275386
 30
0.0
 11
142.307151
 21
-24.102984
 31
0.0
  0
ARC
  5
540
330
1D
100
AcDbEntity
  8
BLACK
100
AcDbCircle
 10
159.968909
 20
-21.6339
 30
0.0
 40
0.5000094465637624
100
AcDbArc
 50
192.00006997
 51
282.00002232
  0
LINE
  5
541
330
1D
100
AcDbEntity
  8
BLACK
  6
Continuous
100
AcDbLine
 10
160.072867
 20
-22.122983
 30
0.0
 11
173.375659
 21
-19.295387
 31
0.0
  0
ARC
  5
542
330
1D
100
AcDbEntity
  8
BLACK
100
AcDbCircle
 10
173.271709
 20
-18.8063
 30
0.0
 40
0.4999910082601486
100
AcDbArc
 50
281.99905845
 51
12.00000282
  0
LINE
  5
543
330
1D
100
AcDbEntity
  8
BLACK
  6
Continuous
100
AcDbLine
 10
173.760774
 20
-18.702346
 30
0.0
 11
171.056768
 21
-5.980998
 31
0.0
  0
ARC
  5
544
330
1D
100
AcDbEntity
  8
BLACK
100
AcDbCircle
 10
170.568809
 20
-6.0905
 30
0.0
 40
0.5000953533727344
100
AcDbArc
 50
12.64810553
 51
102.0000386
  0
LINE
  5
545
330
1D
100
AcDbEntity
  8
BLACK
  6
Continuous
100
AcDbLine
 10
170.464833
 20
-5.601332999999999
 30
0.0
 11
157.155886
 21
-8.430237
 31
0.0
  0
ARC
  5
546
330
1D
100
AcDbEntity
  8
BLACK
100
AcDbCircle
 10
157.266109
 20
-8.918
 30
0.0
 40
0.5000616191200841
100
AcDbArc
 50
102.73362845
 51
192.00004021
  0
LINE
  5
547
330
1D
100
AcDbEntity
  8
BLACK
  6
Continuous
100
AcDbLine
 10
156.776974
 20
-9.021969
 30
0.0
 11
159.47982
 21
-21.737859
 31
0.0
  0
LINE
  5
548
330
1D
100
AcDbEntity
  8
BLACK
  6
Continuous
100
AcDbLine
 10
229.626061
 20
-31.979161
 30
0.0
 11
216.323223
 21
-34.806766
 31
0.0
  0
ARC
  5
549
330
1D
100
AcDbEntity
  8
BLACK
100
AcDbCircle
 10
216.427109
 20
-35.2958
 30
0.0
 40
0.4999378575563167
100
AcDbArc
 50
101.99308502
 51
192.00000876
  0
LINE
  5
54A
330
1D
100
AcDbEntity
  8
BLACK
  6
Continuous
100
AcDbLine
 10
215.938095
 20
-35.399743
 30
0.0
 11
218.640958
 21
-48.11571499999999
 31
0.0
  0
ARC
  5
54B
330
1D
100
AcDbEntity
  8
BLACK
100
AcDbCircle
 10
219.130009
 20
-48.0118
 30
0.0
 40
0.4999643289525764
100
AcDbArc
 50
191.99597171
 51
281.9999497400001
  0
LINE
  5
54C
330
1D
100
AcDbEntity
  8
BLACK
  6
Continuous
100
AcDbLine
 10
219.233957
 20
-48.500839
 30
0.0
 11
232.536795
 21
-45.673234
 31
0.0
  0
ARC
  5
54D
330
1D
100
AcDbEntity
  8
BLACK
100
AcDbCircle
 10
232.432909
 20
-45.1842
 30
0.0
 40
0.4999378575563167
100
AcDbArc
 50
281.99308502
 51
12.00000876
  0
LINE
  5
54E
330
1D
100
AcDbEntity
  8
BLACK
  6
Continuous
100
AcDbLine
 10
232.921923
 20
-45.080257
 30
0.0
 11
230.219053
 21
-32.364251
 31
0.0
  0
ARC
  5
54F
330
1D
100
AcDbEntity
  8
BLACK
100
AcDbCircle
 10
229.730009
 20
-32.4682
 30
0.0
 40
0.4999643289525764
100
AcDbArc
 50
11.9999427
 51
101.99994974
  0
LINE
  5
550
330
1D
100
AcDbEntity
  8
BLACK
  6
Continuous
100
AcDbLine
 10
224.301923
 20
-27.430257
 30
0.0
 11
221.599053
 21
-14.714251
 31
0.0
  0
ARC
  5
551
330
1D
100
AcDbEntity
  8
BLACK
100
AcDbCircle
 10
221.110009
 20
-14.8182
 30
0.0
 40
0.499964536864366
100
AcDbArc
 50
11.9999427
 51
102.00006184
  0
LINE
  5
552
330
1D
100
AcDbEntity
  8
BLACK
  6
Continuous
100
AcDbLine
 10
221.00606
 20
-14.32916
 30
0.0
 11
207.703223
 21
-17.156765
 31
0.0
  0
ARC
  5
553
330
1D
100
AcDbEntity
  8
BLACK
100
AcDbCircle
 10
207.807109
 20
-17.6458
 30
0.0
 40
0.4999378575563167
100
AcDbArc
 50
101.99308502
 51
192.00000876
  0
LINE
  5
554
330
1D
100
AcDbEntity
  8
BLACK
  6
Continuous
100
AcDbLine
 10
207.318095
 20
-17.749743
 30
0.0
 11
210.020958
 21
-30.465714
 31
0.0
  0
ARC
  5
555
330
1D
100
AcDbEntity
  8
BLACK
100
AcDbCircle
 10
210.510009
 20
-30.3618
 30
0.0
 40
0.4999633508048364
100
AcDbArc
 50
191.99588343
 51
281.99997357
  0
LINE
  5
556
330
1D
100
AcDbEntity
  8
BLACK
  6
Continuous
100
AcDbLine
 10
210.613957
 20
-30.850838
 30
0.0
 11
223.916795
 21
-28.023233
 31
0.0
  0
ARC
  5
557
330
1D
100
AcDbEntity
  8
BLACK
100
AcDbCircle
 10
223.812909
 20
-27.5342
 30
0.0
 40
0.4999378575563167
100
AcDbArc
 50
281.99319712
 51
12.00000876
  0
LINE
  5
558
330
1D
100
AcDbEntity
  8
BLACK
  6
Continuous
100
AcDbLine
 10
215.973957
 20
-10.240839
 30
0.0
 11
229.276794
 21
-7.413234
 31
0.0
  0
ARC
  5
559
330
1D
100
AcDbEntity
  8
BLACK
100
AcDbCircle
 10
229.172909
 20
-6.9242
 30
0.0
 40
0.4999368794087909
100
AcDbArc
 50
281.99297291
 51
12.00003258
  0
LINE
  5
55A
330
1D
100
AcDbEntity
  8
BLACK
  6
Continuous
100
AcDbLine
 10
229.661922
 20
-6.820257
 30
0.0
 11
226.959052
 21
5.895748999999999
 31
0.0
  0
ARC
  5
55B
330
1D
100
AcDbEntity
  8
BLACK
100
AcDbCircle
 10
226.470009
 20
5.791799999999999
 30
0.0
 40
0.4999643289525764
100
AcDbArc
 50
11.99996653
 51
101.99994974
  0
LINE
  5
55C
330
1D
100
AcDbEntity
  8
BLACK
  6
Continuous
100
AcDbLine
 10
226.366061
 20
6.280838999999999
 30
0.0
 11
213.063222
 21
3.453234
 31
0.0
  0
ARC
  5
55D
330
1D
100
AcDbEntity
  8
BLACK
100
AcDbCircle
 10
213.167109
 20
2.9642
 30
0.0
 40
0.4999388357039289
100
AcDbArc
 50
101.99328541
 51
191.99998493
  0
LINE
  5
55E
330
1D
100
AcDbEntity
  8
BLACK
  6
Continuous
100
AcDbLine
 10
212.678094
 20
2.860257
 30
0.0
 11
215.380957
 21
-9.855715
 31
0.0
  0
ARC
  5
55F
330
1D
100
AcDbEntity
  8
BLACK
100
AcDbCircle
 10
215.870009
 20
-9.7518
 30
0.0
 40
0.4999643289525764
100
AcDbArc
 50
191.99597171
 51
281.9999497400001
  0
LINE
  5
560
330
1D
100
AcDbEntity
  8
BLACK
  6
Continuous
100
AcDbLine
 10
8.586409
 20
-85.33999899999999
 30
0.0
 11
22.186258
 21
-85.33999899999999
 31
0.0
  0
ARC
  5
561
330
1D
100
AcDbEntity
  8
BLACK
100
AcDbCircle
 10
22.186309
 20
-84.83999999999999
 30
0.0
 40
0.499949
100
AcDbArc
 50
269.99415523
 51
0.0
  0
LINE
  5
562
330
1D
100
AcDbEntity
  8
BLACK
  6
Continuous
100
AcDbLine
 10
22.686258
 20
-84.83999999999999
 30
0.0
 11
22.686258
 21
-71.832988
 31
0.0
  0
ARC
  5
563
330
1D
100
AcDbEntity
  8
BLACK
100
AcDbCircle
 10
22.186109
 20
-71.8402
 30
0.0
 40
0.500201
100
AcDbArc
 50
0.82613086
 51
90.0
  0
LINE
  5
564
330
1D
100
AcDbEntity
  8
BLACK
  6
Continuous
100
AcDbLine
 10
22.186109
 20
-71.33999899999999
 30
0.0
 11
8.586299
 21
-71.33999899999999
 31
0.0
  0
ARC
  5
565
330
1D
100
AcDbEntity
  8
BLACK
100
AcDbCircle
 10
8.586299
 20
-71.84004
 30
0.0
 40
0.500041
100
AcDbArc
 50
90.0
 51
180.0
  0
LINE
  5
566
330
1D
100
AcDbEntity
  8
BLACK
  6
Continuous
100
AcDbLine
 10
8.086257999999999
 20
-71.84004
 30
0.0
 11
8.086257999999999
 21
-84.846656
 31
0.0
  0
ARC
  5
567
330
1D
100
AcDbEntity
  8
BLACK
100
AcDbCircle
 10
8.586409
 20
-84.8398
 30
0.0
 40
0.500199
100
AcDbArc
 50
180.78535335
 51
270.0
  0
LINE
  5
568
330
1D
100
AcDbEntity
  8
BLACK
  6
Continuous
100
AcDbLine
 10
224.26606
 20
-52.58916
 30
0.0
 11
210.963222
 21
-55.416765
 31
0.0
  0
ARC
  5
569
330
1D
100
AcDbEntity
  8
BLACK
100
AcDbCircle
 10
211.067109
 20
-55.9058
 30
0.0
 40
0.4999388357039289
100
AcDbArc
 50
101.99317331
 51
191.99998493
  0
LINE
  5
56A
330
1D
100
AcDbEntity
  8
BLACK
  6
Continuous
100
AcDbLine
 10
210.578094
 20
-56.009743
 30
0.0
 11
213.280957
 21
-68.725714
 31
0.0
  0
ARC
  5
56B
330
1D
100
AcDbEntity
  8
BLACK
100
AcDbCircle
 10
213.770009
 20
-68.6218
 30
0.0
 40
0.4999633508048364
100
AcDbArc
 50
191.99585961
 51
281.99997357
  0
LINE
  5
56C
330
1D
100
AcDbEntity
  8
BLACK
  6
Continuous
100
AcDbLine
 10
213.873957
 20
-69.110838
 30
0.0
 11
227.176794
 21
-66.283233
 31
0.0
  0
ARC
  5
56D
330
1D
100
AcDbEntity
  8
BLACK
100
AcDbCircle
 10
227.072909
 20
-65.7942
 30
0.0
 40
0.4999368794087909
100
AcDbArc
 50
281.99297291
 51
12.00003258
  0
LINE
  5
56E
330
1D
100
AcDbEntity
  8
BLACK
  6
Continuous
100
AcDbLine
 10
227.561922
 20
-65.690257
 30
0.0
 11
224.859052
 21
-52.974251
 31
0.0
  0
ARC
  5
56F
330
1D
100
AcDbEntity
  8
BLACK
100
AcDbCircle
 10
224.370009
 20
-53.0782
 30
0.0
 40
0.499964536864366
100
AcDbArc
 50
11.99996653
 51
102.00006184
  0
LINE
  5
570
330
1D
100
AcDbEntity
  8
BLACK
  6
Continuous
100
AcDbLine
 10
35.530008
 20
-66.264999
 30
0.0
 11
9.530007999999999
 21
-66.264999
 31
0.0
  0
LINE
  5
571
330
1D
100
AcDbEntity
  8
BLACK
  6
Continuous
100
AcDbLine
 10
9.530007999999999
 20
-66.264999
 30
0.0
 11
6.530008
 21
-64.532999
 31
0.0
  0
LINE
  5
572
330
1D
100
AcDbEntity
  8
BLACK
  6
Continuous
100
AcDbLine
 10
6.530008
 20
-64.532999
 30
0.0
 11
6.530008
 21
-52.815
 31
0.0
  0
ARC
  5
573
330
1D
100
AcDbEntity
  8
BLACK
100
AcDbCircle
 10
7.030009
 20
-52.815
 30
0.0
 40
0.500001
100
AcDbArc
 50
90.0
 51
180.0
  0
LINE
  5
574
330
1D
100
AcDbEntity
  8
BLACK
  6
Continuous
100
AcDbLine
 10
7.030009
 20
-52.314999
 30
0.0
 11
38.030009
 21
-52.314999
 31
0.0
  0
ARC
  5
575
330
1D
100
AcDbEntity
  8
BLACK
100
AcDbCircle
 10
38.030009
 20
-52.815
 30
0.0
 40
0.500001
100
AcDbArc
 50
0.0
 51
90.0
  0
LINE
  5
576
330
1D
100
AcDbEntity
  8
BLACK
  6
Continuous
100
AcDbLine
 10
38.530008
 20
-52.815
 30
0.0
 11
38.530008
 21
-64.532999
 31
0.0
  0
LINE
  5
577
330
1D
100
AcDbEntity
  8
BLACK
  6
Continuous
100
AcDbLine
 10
38.530008
 20
-64.532999
 30
0.0
 11
35.530008
 21
-66.264999
 31
0.0
  0
LINE
  5
578
330
1D
100
AcDbEntity
  8
BLACK
  6
Continuous
100
AcDbLine
 10
111.686482
 20
-56.037156
 30
0.0
 11
114.389352
 21
-43.321149
 31
0.0
  0
ARC
  5
579
330
1D
100
AcDbEntity
  8
BLACK
100
AcDbCircle
 10
113.900309
 20
-43.2172
 30
0.0
 40
0.4999162768984422
100
AcDbArc
 50
348.0000513699999
 51
78.00005136999998
  0
LINE
  5
57A
330
1D
100
AcDbEntity
  8
BLACK
  6
Continuous
100
AcDbLine
 10
114.004247
 20
-42.728208
 30
0.0
 11
100.701488
 21
-39.900619
 31
0.0
  0
ARC
  5
57B
330
1D
100
AcDbEntity
  8
BLACK
100
AcDbCircle
 10
100.597509
 20
-40.3897
 30
0.0
 40
0.5000584767654679
100
AcDbArc
 50
77.99752773000002
 51
168.0000004
  0
LINE
  5
57C
330
1D
100
AcDbEntity
  8
BLACK
  6
Continuous
100
AcDbLine
 10
100.108378
 20
-40.285732
 30
0.0
 11
97.405529
 21
-53.00163999999999
 31
0.0
  0
ARC
  5
57D
330
1D
100
AcDbEntity
  8
BLACK
100
AcDbCircle
 10
97.894609
 20
-53.1056
 30
0.0
 40
0.4999980632052488
100
AcDbArc
 50
167.99969178
 51
258.00005187
  0
LINE
  5
57E
330
1D
100
AcDbEntity
  8
BLACK
  6
Continuous
100
AcDbLine
 10
97.79065399999999
 20
-53.594672
 30
0.0
 11
111.093454
 21
-56.422269
 31
0.0
  0
ARC
  5
57F
330
1D
100
AcDbEntity
  8
BLACK
100
AcDbCircle
 10
111.197409
 20
-55.9332
 30
0.0
 40
0.4999992492644364
100
AcDbArc
 50
257.9999636
 51
347.9999636
  0
LINE
  5
580
330
1D
100
AcDbEntity
  8
BLACK
  6
Continuous
100
AcDbLine
 10
6.800008999999999
 20
7.0
 30
0.0
 11
-6.799990999999999
 21
7.0
 31
0.0
  0
ARC
  5
581
330
1D
100
AcDbEntity
  8
BLACK
100
AcDbCircle
 10
-6.799989999999999
 20
6.499999
 30
0.0
 40
0.500001
100
AcDbArc
 50
90.00011459
 51
180.0
  0
LINE
  5
582
330
1D
100
AcDbEntity
  8
BLACK
  6
Continuous
100
AcDbLine
 10
-7.299990999999999
 20
6.499999
 30
0.0
 11
-7.299990999999999
 21
-6.5
 31
0.0
  0
ARC
  5
583
330
1D
100
AcDbEntity
  8
BLACK
100
AcDbCircle
 10
-6.799989999999999
 20
-6.499999
 30
0.0
 40
0.500001
100
AcDbArc
 50
180.00011459
 51
270.0
  0
LINE
  5
584
330
1D
100
AcDbEntity
  8
BLACK
  6
Continuous
100
AcDbLine
 10
-6.799989999999999
 20
-7.0
 30
0.0
 11
6.800008999999999
 21
-7.0
 31
0.0
  0
ARC
  5
585
330
1D
100
AcDbEntity
  8
BLACK
100
AcDbCircle
 10
6.800008999999999
 20
-6.5
 30
0.0
 40
0.5
100
AcDbArc
 50
270.0
 51
0.0
  0
LINE
  5
586
330
1D
100
AcDbEntity
  8
BLACK
  6
Continuous
100
AcDbLine
 10
7.300008999999999
 20
-6.5
 30
0.0
 11
7.300008999999999
 21
6.5
 31
0.0
  0
ARC
  5
587
330
1D
100
AcDbEntity
  8
BLACK
100
AcDbCircle
 10
6.800008999999999
 20
6.5
 30
0.0
 40
0.5
100
AcDbArc
 50
0.0
 51
90.0
  0
LINE
  5
588
330
1D
100
AcDbEntity
  8
BLACK
  6
Continuous
100
AcDbLine
 10
229.076061
 20
-72.579161
 30
0.0
 11
215.773222
 21
-75.40676599999999
 31
0.0
  0
ARC
  5
589
330
1D
100
AcDbEntity
  8
BLACK
100
AcDbCircle
 10
215.877109
 20
-75.8958
 30
0.0
 40
0.4999388357039289
100
AcDbArc
 50
101.99328541
 51
191.99998493
  0
LINE
  5
58A
330
1D
100
AcDbEntity
  8
BLACK
  6
Continuous
100
AcDbLine
 10
215.388094
 20
-75.999743
 30
0.0
 11
218.090957
 21
-88.715715
 31
0.0
  0
ARC
  5
58B
330
1D
100
AcDbEntity
  8
BLACK
100
AcDbCircle
 10
218.580009
 20
-88.6118
 30
0.0
 40
0.4999643289525764
100
AcDbArc
 50
191.99597171
 51
281.9999497400001
  0
LINE
  5
58C
330
1D
100
AcDbEntity
  8
BLACK
  6
Continuous
100
AcDbLine
 10
218.683957
 20
-89.100839
 30
0.0
 11
231.986794
 21
-86.273234
 31
0.0
  0
ARC
  5
58D
330
1D
100
AcDbEntity
  8
BLACK
100
AcDbCircle
 10
231.882909
 20
-85.7842
 30
0.0
 40
0.4999368794087909
100
AcDbArc
 50
281.99297291
 51
12.00003258
  0
LINE
  5
58E
330
1D
100
AcDbEntity
  8
BLACK
  6
Continuous
100
AcDbLine
 10
232.371922
 20
-85.680257
 30
0.0
 11
229.669052
 21
-72.96425099999999
 31
0.0
  0
ARC
  5
58F
330
1D
100
AcDbEntity
  8
BLACK
100
AcDbCircle
 10
229.180009
 20
-73.06819999999999
 30
0.0
 40
0.4999643289525764
100
AcDbArc
 50
11.99996653
 51
101.99994974
  0
LINE
  5
590
330
1D
100
AcDbEntity
  8
BLACK
  6
Continuous
100
AcDbLine
 10
81.47466299999999
 20
-36.325029
 30
0.0
 11
78.769581
 21
-49.051444
 31
0.0
  0
ARC
  5
591
330
1D
100
AcDbEntity
  8
BLACK
100
AcDbCircle
 10
79.261009
 20
-49.1447
 30
0.0
 40
0.500199490573511
100
AcDbArc
 50
169.25501021
 51
258.00003769
  0
LINE
  5
592
330
1D
100
AcDbEntity
  8
BLACK
  6
Continuous
100
AcDbLine
 10
79.157012
 20
-49.633969
 30
0.0
 11
92.459757
 21
-52.461554
 31
0.0
  0
ARC
  5
593
330
1D
100
AcDbEntity
  8
BLACK
100
AcDbCircle
 10
92.563709
 20
-51.9725
 30
0.0
 40
0.4999827672560325
100
AcDbArc
 50
257.9999592799999
 51
348.00003076
  0
LINE
  5
594
330
1D
100
AcDbEntity
  8
BLACK
  6
Continuous
100
AcDbLine
 10
93.05276699999999
 20
-52.076452
 30
0.0
 11
95.756519
 21
-39.356298
 31
0.0
  0
ARC
  5
595
330
1D
100
AcDbEntity
  8
BLACK
100
AcDbCircle
 10
95.266509
 20
-39.2566
 30
0.0
 40
0.5000502357613683
100
AcDbArc
 50
348.49951284
 51
78.00003397
  0
LINE
  5
596
330
1D
100
AcDbEntity
  8
BLACK
  6
Continuous
100
AcDbLine
 10
95.370475
 20
-38.767477
 30
0.0
 11
82.067791
 21
-35.939905
 31
0.0
  0
ARC
  5
597
330
1D
100
AcDbEntity
  8
BLACK
100
AcDbCircle
 10
81.963809
 20
-36.42899999999999
 30
0.0
 40
0.500072794566951
100
AcDbArc
 50
77.99763715
 51
167.99999769
  0
LINE
  5
598
330
1D
100
AcDbEntity
  8
BLACK
  6
Continuous
100
AcDbLine
 10
280.790009
 20
-14.19
 30
0.0
 11
267.190009
 21
-14.19
 31
0.0
  0
ARC
  5
599
330
1D
100
AcDbEntity
  8
BLACK
100
AcDbCircle
 10
267.190009
 20
-14.69
 30
0.0
 40
0.5
100
AcDbArc
 50
90.0
 51
180.0
  0
LINE
  5
59A
330
1D
100
AcDbEntity
  8
BLACK
  6
Continuous
100
AcDbLine
 10
266.690009
 20
-14.69
 30
0.0
 11
266.690009
 21
-27.69
 31
0.0
  0
ARC
  5
59B
330
1D
100
AcDbEntity
  8
BLACK
100
AcDbCircle
 10
267.190009
 20
-27.69
 30
0.0
 40
0.5
100
AcDbArc
 50
180.0
 51
270.0
  0
LINE
  5
59C
330
1D
100
AcDbEntity
  8
BLACK
  6
Continuous
100
AcDbLine
 10
267.190009
 20
-28.19
 30
0.0
 11
280.790009
 21
-28.19
 31
0.0
  0
ARC
  5
59D
330
1D
100
AcDbEntity
  8
BLACK
100
AcDbCircle
 10
280.790009
 20
-27.69
 30
0.0
 40
0.5
100
AcDbArc
 50
270.0
 51
0.0
  0
LINE
  5
59E
330
1D
100
AcDbEntity
  8
BLACK
  6
Continuous
100
AcDbLine
 10
281.290009
 20
-27.69
 30
0.0
 11
281.290009
 21
-14.69
 31
0.0
  0
ARC
  5
59F
330
1D
100
AcDbEntity
  8
BLACK
100
AcDbCircle
 10
280.790009
 20
-14.69
 30
0.0
 40
0.5
100
AcDbArc
 50
0.0
 51
90.0
  0
CIRCLE
  5
5A0
330
1D
100
AcDbEntity
  8
BLACK
100
AcDbCircle
 10
6.130021999999999
 20
-66.49000699999999
 30
0.0
 40
0.9999979999999999
  0
LINE
  5
5A1
330
1D
100
AcDbEntity
  8
BLACK
  6
Continuous
100
AcDbLine
 10
55.426258
 20
-46.73999999999999
 30
0.0
 11
55.426258
 21
-33.732988
 31
0.0
  0
ARC
  5
5A2
330
1D
100
AcDbEntity
  8
BLACK
100
AcDbCircle
 10
54.926109
 20
-33.7402
 30
0.0
 40
0.500201
100
AcDbArc
 50
0.82613086
 51
90.0
  0
LINE
  5
5A3
330
1D
100
AcDbEntity
  8
BLACK
  6
Continuous
100
AcDbLine
 10
54.926109
 20
-33.239999
 30
0.0
 11
41.326258
 21
-33.239999
 31
0.0
  0
ARC
  5
5A4
330
1D
100
AcDbEntity
  8
BLACK
100
AcDbCircle
 10
41.326209
 20
-33.74
 30
0.0
 40
0.499951
100
AcDbArc
 50
89.99438446
 51
180.0
  0
LINE
  5
5A5
330
1D
100
AcDbEntity
  8
BLACK
  6
Continuous
100
AcDbLine
 10
40.826258
 20
-33.74
 30
0.0
 11
40.826258
 21
-46.74665599999999
 31
0.0
  0
ARC
  5
5A6
330
1D
100
AcDbEntity
  8
BLACK
100
AcDbCircle
 10
41.326409
 20
-46.7398
 30
0.0
 40
0.500199
100
AcDbArc
 50
180.78535335
 51
270.0
  0
LINE
  5
5A7
330
1D
100
AcDbEntity
  8
BLACK
  6
Continuous
100
AcDbLine
 10
41.326409
 20
-47.239999
 30
0.0
 11
54.926258
 21
-47.239999
 31
0.0
  0
ARC
  5
5A8
330
1D
100
AcDbEntity
  8
BLACK
100
AcDbCircle
 10
54.926309
 20
-46.73999999999999
 30
0.0
 40
0.499949
100
AcDbArc
 50
269.99415523
 51
0.0
  0
ARC
  5
5A9
330
1D
100
AcDbEntity
  8
BLACK
100
AcDbCircle
 10
68.680009
 20
-53.0782
 30
0.0
 40
0.4999686573666393
100
AcDbArc
 50
78.28062115
 51
167.99992138
  0
LINE
  5
5AA
330
1D
100
AcDbEntity
  8
BLACK
  6
Continuous
100
AcDbLine
 10
68.19096499999999
 20
-52.97425
 30
0.0
 11
65.488123
 21
-65.69012
 31
0.0
  0
ARC
  5
5AB
330
1D
100
AcDbEntity
  8
BLACK
100
AcDbCircle
 10
65.977209
 20
-65.7941
 30
0.0
 40
0.500065739622302
100
AcDbArc
 50
167.99747037
 51
257.99994301
  0
LINE
  5
5AC
330
1D
100
AcDbEntity
  8
BLACK
  6
Continuous
100
AcDbLine
 10
65.873239
 20
-66.283239
 30
0.0
 11
79.17605999999999
 21
-69.11084
 31
0.0
  0
ARC
  5
5AD
330
1D
100
AcDbEntity
  8
BLACK
100
AcDbCircle
 10
79.28000899999999
 20
-68.6218
 30
0.0
 40
0.4999684494545631
100
AcDbArc
 50
257.99996199
 51
348.00003347
  0
LINE
  5
5AE
330
1D
100
AcDbEntity
  8
BLACK
  6
Continuous
100
AcDbLine
 10
79.769052
 20
-68.725749
 30
0.0
 11
82.471893
 21
-56.009879
 31
0.0
  0
ARC
  5
5AF
330
1D
100
AcDbEntity
  8
BLACK
100
AcDbCircle
 10
81.982809
 20
-55.9059
 30
0.0
 40
0.5000625972675821
100
AcDbArc
 50
347.99764686
 51
77.99998361
  0
LINE
  5
5B0
330
1D
100
AcDbEntity
  8
BLACK
  6
Continuous
100
AcDbLine
 10
82.086778
 20
-55.416764
 30
0.0
 11
68.781562
 21
-52.588653
 31
0.0
  0
CIRCLE
  5
5B1
330
1D
100
AcDbEntity
  8
BLACK
100
AcDbCircle
 10
146.428177
 20
-17.822555
 30
0.0
 40
1.000001
  0
ARC
  5
5B2
330
1D
100
AcDbEntity
  8
BLACK
100
AcDbCircle
 10
84.611009
 20
-69.7547
 30
0.0
 40
0.500199490573511
100
AcDbArc
 50
169.25501021
 51
258.00003769
  0
LINE
  5
5B3
330
1D
100
AcDbEntity
  8
BLACK
  6
Continuous
100
AcDbLine
 10
84.507012
 20
-70.24396899999999
 30
0.0
 11
97.80975699999999
 21
-73.07155399999999
 31
0.0
  0
ARC
  5
5B4
330
1D
100
AcDbEntity
  8
BLACK
100
AcDbCircle
 10
97.913709
 20
-72.5825
 30
0.0
 40
0.4999827672560325
100
AcDbArc
 50
257.9999592799999
 51
348.00003076
  0
LINE
  5
5B5
330
1D
100
AcDbEntity
  8
BLACK
  6
Continuous
100
AcDbLine
 10
98.402767
 20
-72.686452
 30
0.0
 11
101.106519
 21
-59.96629799999999
 31
0.0
  0
ARC
  5
5B6
330
1D
100
AcDbEntity
  8
BLACK
100
AcDbCircle
 10
100.616509
 20
-59.8666
 30
0.0
 40
0.5000502357613683
100
AcDbArc
 50
348.49951284
 51
78.00003397
  0
LINE
  5
5B7
330
1D
100
AcDbEntity
  8
BLACK
  6
Continuous
100
AcDbLine
 10
100.720475
 20
-59.377477
 30
0.0
 11
87.417791
 21
-56.549905
 31
0.0
  0
ARC
  5
5B8
330
1D
100
AcDbEntity
  8
BLACK
100
AcDbCircle
 10
87.31380899999999
 20
-57.03899999999999
 30
0.0
 40
0.5000737727145865
100
AcDbArc
 50
77.99766098
 51
168.00002151
  0
LINE
  5
5B9
330
1D
100
AcDbEntity
  8
BLACK
  6
Continuous
100
AcDbLine
 10
86.824663
 20
-56.935029
 30
0.0
 11
84.119581
 21
-69.661444
 31
0.0
  0
ARC
  5
5BA
330
1D
100
AcDbEntity
  8
BLACK
100
AcDbCircle
 10
2.640009
 20
-12.55
 30
0.0
 40
0.500001
100
AcDbArc
 50
0.0
 51
90.0
  0
LINE
  5
5BB
330
1D
100
AcDbEntity
  8
BLACK
  6
Continuous
100
AcDbLine
 10
2.640009
 20
-12.049999
 30
0.0
 11
-10.95999
 21
-12.049999
 31
0.0
  0
ARC
  5
5BC
330
1D
100
AcDbEntity
  8
BLACK
100
AcDbCircle
 10
-10.95999
 20
-12.55
 30
0.0
 40
0.500001
100
AcDbArc
 50
90.0
 51
180.0
  0
LINE
  5
5BD
330
1D
100
AcDbEntity
  8
BLACK
  6
Continuous
100
AcDbLine
 10
-11.459991
 20
-12.55
 30
0.0
 11
-11.459991
 21
-25.549998
 31
0.0
  0
ARC
  5
5BE
330
1D
100
AcDbEntity
  8
BLACK
100
AcDbCircle
 10
-10.95999
 20
-25.549998
 30
0.0
 40
0.500001000001
100
AcDbArc
 50
180.0
 51
269.99988541
  0
LINE
  5
5BF
330
1D
100
AcDbEntity
  8
BLACK
  6
Continuous
100
AcDbLine
 10
-10.959991
 20
-26.049999
 30
0.0
 11
2.640009
 21
-26.049999
 31
0.0
  0
ARC
  5
5C0
330
1D
100
AcDbEntity
  8
BLACK
100
AcDbCircle
 10
2.640009
 20
-25.55
 30
0.0
 40
0.5
100
AcDbArc
 50
270.0
 51
0.0
  0
LINE
  5
5C1
330
1D
100
AcDbEntity
  8
BLACK
  6
Continuous
100
AcDbLine
 10
3.140009
 20
-25.55
 30
0.0
 11
3.140009
 21
-12.55
 31
0.0
  0
CIRCLE
  5
5C2
330
1D
100
AcDbEntity
  8
BLACK
100
AcDbCircle
 10
5.86125
 20
-78.340004
 30
0.0
 40
0.999999
  0
CIRCLE
  5
5C3
330
1D
100
AcDbEntity
  8
BLACK
100
AcDbCircle
 10
9.332487
 20
-19.999368
 30
0.0
 40
0.999996
  0
ARC
  5
5C4
330
1D
100
AcDbEntity
  8
BLACK
100
AcDbCircle
 10
-1.429991
 20
-44.599998
 30
0.0
 40
0.500001000001
100
AcDbArc
 50
270.00011459
 51
0.00011459
  0
LINE
  5
5C5
330
1D
100
AcDbEntity
  8
BLACK
  6
Continuous
100
AcDbLine
 10
-0.92999
 20
-44.59999699999999
 30
0.0
 11
-0.92999
 21
-31.6
 31
0.0
  0
ARC
  5
5C6
330
1D
100
AcDbEntity
  8
BLACK
100
AcDbCircle
 10
-1.429991
 20
-31.6
 30
0.0
 40
0.500001
100
AcDbArc
 50
0.0
 51
90.0
  0
LINE
  5
5C7
330
1D
100
AcDbEntity
  8
BLACK
  6
Continuous
100
AcDbLine
 10
-1.429991
 20
-31.099999
 30
0.0
 11
-15.029989
 21
-31.099999
 31
0.0
  0
ARC
  5
5C8
330
1D
100
AcDbEntity
  8
BLACK
100
AcDbCircle
 10
-15.029989
 20
-31.6
 30
0.0
 40
0.500001
100
AcDbArc
 50
90.0
 51
180.0
  0
LINE
  5
5C9
330
1D
100
AcDbEntity
  8
BLACK
  6
Continuous
100
AcDbLine
 10
-15.52999
 20
-31.6
 30
0.0
 11
-15.52999
 21
-44.599999
 31
0.0
  0
ARC
  5
5CA
330
1D
100
AcDbEntity
  8
BLACK
100
AcDbCircle
 10
-15.029989
 20
-44.599998
 30
0.0
 40
0.500001
100
AcDbArc
 50
180.00011459
 51
270.0
  0
LINE
  5
5CB
330
1D
100
AcDbEntity
  8
BLACK
  6
Continuous
100
AcDbLine
 10
-15.029989
 20
-45.099999
 30
0.0
 11
-1.42999
 21
-45.099999
 31
0.0
  0
LINE
  5
5CC
330
1D
100
AcDbEntity
  8
BLACK
  6
Continuous
100
AcDbLine
 10
74.419052
 20
-48.115749
 30
0.0
 11
77.121893
 21
-35.399879
 31
0.0
  0
ARC
  5
5CD
330
1D
100
AcDbEntity
  8
BLACK
100
AcDbCircle
 10
76.632809
 20
-35.2959
 30
0.0
 40
0.5000625972675821
100
AcDbArc
 50
347.99764686
 51
77.99998361
  0
LINE
  5
5CE
330
1D
100
AcDbEntity
  8
BLACK
  6
Continuous
100
AcDbLine
 10
76.736778
 20
-34.806764
 30
0.0
 11
63.431562
 21
-31.978653
 31
0.0
  0
ARC
  5
5CF
330
1D
100
AcDbEntity
  8
BLACK
100
AcDbCircle
 10
63.330009
 20
-32.4682
 30
0.0
 40
0.4999686573666393
100
AcDbArc
 50
78.28062115
 51
167.99992138
  0
LINE
  5
5D0
330
1D
100
AcDbEntity
  8
BLACK
  6
Continuous
100
AcDbLine
 10
62.840965
 20
-32.36425
 30
0.0
 11
60.138123
 21
-45.08012
 31
0.0
  0
ARC
  5
5D1
330
1D
100
AcDbEntity
  8
BLACK
100
AcDbCircle
 10
60.627209
 20
-45.1841
 30
0.0
 40
0.5000667177697392
100
AcDbArc
 50
167.99747037
 51
257.9999668299999
  0
LINE
  5
5D2
330
1D
100
AcDbEntity
  8
BLACK
  6
Continuous
100
AcDbLine
 10
60.523239
 20
-45.673239
 30
0.0
 11
73.82606
 21
-48.50084
 31
0.0
  0
ARC
  5
5D3
330
1D
100
AcDbEntity
  8
BLACK
100
AcDbCircle
 10
73.930009
 20
-48.0118
 30
0.0
 40
0.4999684494545631
100
AcDbArc
 50
257.99996199
 51
348.00003347
  0
LINE
  5
5D4
330
1D
100
AcDbEntity
  8
BLACK
  6
Continuous
100
AcDbLine
 10
252.230008
 20
-46.73999999999999
 30
0.0
 11
252.230008
 21
-33.74
 31
0.0
  0
ARC
  5
5D5
330
1D
100
AcDbEntity
  8
BLACK
100
AcDbCircle
 10
251.730009
 20
-33.74
 30
0.0
 40
0.5
100
AcDbArc
 50
0.0
 51
90.0
  0
LINE
  5
5D6
330
1D
100
AcDbEntity
  8
BLACK
  6
Continuous
100
AcDbLine
 10
251.730009
 20
-33.24
 30
0.0
 11
238.130009
 21
-33.24
 31
0.0
  0
ARC
  5
5D7
330
1D
100
AcDbEntity
  8
BLACK
100
AcDbCircle
 10
238.130009
 20
-33.74
 30
0.0
 40
0.500001
100
AcDbArc
 50
90.0
 51
180.0
  0
LINE
  5
5D8
330
1D
100
AcDbEntity
  8
BLACK
  6
Continuous
100
AcDbLine
 10
237.630008
 20
-33.74
 30
0.0
 11
237.630008
 21
-46.73999999999999
 31
0.0
  0
ARC
  5
5D9
330
1D
100
AcDbEntity
  8
BLACK
100
AcDbCircle
 10
238.130009
 20
-46.73999999999999
 30
0.0
 40
0.5
100
AcDbArc
 50
180.0
 51
270.0
  0
LINE
  5
5DA
330
1D
100
AcDbEntity
  8
BLACK
  6
Continuous
100
AcDbLine
 10
238.130009
 20
-47.23999999999999
 30
0.0
 11
251.730009
 21
-47.23999999999999
 31
0.0
  0
ARC
  5
5DB
330
1D
100
AcDbEntity
  8
BLACK
100
AcDbCircle
 10
251.730009
 20
-46.73999999999999
 30
0.0
 40
0.499999
100
AcDbArc
 50
270.0
 51
0.0
  0
LINE
  5
5DC
330
1D
100
AcDbEntity
  8
BLACK
  6
Continuous
100
AcDbLine
 10
271.280009
 20
-46.73999999999999
 30
0.0
 11
271.280009
 21
-33.74
 31
0.0
  0
ARC
  5
5DD
330
1D
100
AcDbEntity
  8
BLACK
100
AcDbCircle
 10
270.780009
 20
-33.74
 30
0.0
 40
0.5
100
AcDbArc
 50
0.0
 51
90.0
  0
LINE
  5
5DE
330
1D
100
AcDbEntity
  8
BLACK
  6
Continuous
100
AcDbLine
 10
270.780009
 20
-33.24
 30
0.0
 11
257.180009
 21
-33.24
 31
0.0
  0
ARC
  5
5DF
330
1D
100
AcDbEntity
  8
BLACK
100
AcDbCircle
 10
257.180009
 20
-33.74
 30
0.0
 40
0.5
100
AcDbArc
 50
90.0
 51
180.0
  0
LINE
  5
5E0
330
1D
100
AcDbEntity
  8
BLACK
  6
Continuous
100
AcDbLine
 10
256.680009
 20
-33.74
 30
0.0
 11
256.680009
 21
-46.73999999999999
 31
0.0
  0
ARC
  5
5E1
330
1D
100
AcDbEntity
  8
BLACK
100
AcDbCircle
 10
257.180009
 20
-46.73999999999999
 30
0.0
 40
0.5
100
AcDbArc
 50
180.0
 51
270.0
  0
LINE
  5
5E2
330
1D
100
AcDbEntity
  8
BLACK
  6
Continuous
100
AcDbLine
 10
257.180009
 20
-47.23999999999999
 30
0.0
 11
270.780009
 21
-47.23999999999999
 31
0.0
  0
ARC
  5
5E3
330
1D
100
AcDbEntity
  8
BLACK
100
AcDbCircle
 10
270.780009
 20
-46.73999999999999
 30
0.0
 40
0.5
100
AcDbArc
 50
270.0
 51
0.0
  0
LINE
  5
5E4
330
1D
100
AcDbEntity
  8
BLACK
  6
Continuous
100
AcDbLine
 10
310.936259
 20
-33.772272
 30
0.0
 11
310.936259
 21
-45.483
 31
0.0
  0
LINE
  5
5E5
330
1D
100
AcDbEntity
  8
BLACK
  6
Continuous
100
AcDbLine
 10
310.936259
 20
-45.483
 30
0.0
 11
307.936259
 21
-47.215
 31
0.0
  0
LINE
  5
5E6
330
1D
100
AcDbEntity
  8
BLACK
  6
Continuous
100
AcDbLine
 10
307.936259
 20
-47.215
 30
0.0
 11
281.936259
 21
-47.215
 31
0.0
  0
LINE
  5
5E7
330
1D
100
AcDbEntity
  8
BLACK
  6
Continuous
100
AcDbLine
 10
281.936259
 20
-47.215
 30
0.0
 11
278.936259
 21
-45.483
 31
0.0
  0
LINE
  5
5E8
330
1D
100
AcDbEntity
  8
BLACK
  6
Continuous
100
AcDbLine
 10
278.936259
 20
-45.483
 30
0.0
 11
278.936259
 21
-33.765
 31
0.0
  0
ARC
  5
5E9
330
1D
100
AcDbEntity
  8
BLACK
100
AcDbCircle
 10
279.436209
 20
-33.765
 30
0.0
 40
0.4999499999999999
100
AcDbArc
 50
89.99426985
 51
180.0
  0
LINE
  5
5EA
330
1D
100
AcDbEntity
  8
BLACK
  6
Continuous
100
AcDbLine
 10
279.436259
 20
-33.265
 30
0.0
 11
310.436109
 21
-33.265
 31
0.0
  0
ARC
  5
5EB
330
1D
100
AcDbEntity
  8
BLACK
100
AcDbCircle
 10
310.436109
 20
-33.7652
 30
0.0
 40
0.5002
100
AcDbArc
 50
359.18990552
 51
90.0
  0
LINE
  5
5EC
330
1D
100
AcDbEntity
  8
BLACK
  6
Continuous
100
AcDbLine
 10
295.265609
 20
-71.88799999999999
 30
0.0
 11
295.265609
 21
-84.88799999999999
 31
0.0
  0
ARC
  5
5ED
330
1D
100
AcDbEntity
  8
BLACK
100
AcDbCircle
 10
295.765609
 20
-84.88799999999999
 30
0.0
 40
0.499999
100
AcDbArc
 50
180.0
 51
270.0
  0
LINE
  5
5EE
330
1D
100
AcDbEntity
  8
BLACK
  6
Continuous
100
AcDbLine
 10
295.765609
 20
-85.387999
 30
0.0
 11
309.365609
 21
-85.387999
 31
0.0
  0
ARC
  5
5EF
330
1D
100
AcDbEntity
  8
BLACK
100
AcDbCircle
 10
309.365609
 20
-84.88799999999999
 30
0.0
 40
0.5
100
AcDbArc
 50
270.0
 51
0.0
  0
LINE
  5
5F0
330
1D
100
AcDbEntity
  8
BLACK
  6
Continuous
100
AcDbLine
 10
309.865609
 20
-84.88799999999999
 30
0.0
 11
309.865609
 21
-71.88799999999999
 31
0.0
  0
ARC
  5
5F1
330
1D
100
AcDbEntity
  8
BLACK
100
AcDbCircle
 10
309.365609
 20
-71.88799999999999
 30
0.0
 40
0.500001
100
AcDbArc
 50
0.0
 51
90.0
  0
LINE
  5
5F2
330
1D
100
AcDbEntity
  8
BLACK
  6
Continuous
100
AcDbLine
 10
309.365609
 20
-71.387999
 30
0.0
 11
295.765609
 21
-71.387999
 31
0.0
  0
ARC
  5
5F3
330
1D
100
AcDbEntity
  8
BLACK
100
AcDbCircle
 10
295.765609
 20
-71.88799999999999
 30
0.0
 40
0.5
100
AcDbArc
 50
90.0
 51
180.0
  0
CIRCLE
  5
5F4
330
1D
100
AcDbEntity
  8
BLACK
100
AcDbCircle
 10
7.644807999999999
 20
-40.240002
 30
0.0
 40
1.0
  0
CIRCLE
  5
5F5
330
1D
100
AcDbEntity
  8
BLACK
100
AcDbCircle
 10
271.717509
 20
-59.290004
 30
0.0
 40
1.000001
  0
LINE
  5
5F6
330
1D
100
AcDbEntity
  8
BLACK
  6
Continuous
100
AcDbLine
 10
232.270009
 20
-52.79
 30
0.0
 11
232.270009
 21
-65.78999999999999
 31
0.0
  0
ARC
  5
5F7
330
1D
100
AcDbEntity
  8
BLACK
100
AcDbCircle
 10
232.770009
 20
-65.78999999999999
 30
0.0
 40
0.5
100
AcDbArc
 50
180.0
 51
270.0
  0
LINE
  5
5F8
330
1D
100
AcDbEntity
  8
BLACK
  6
Continuous
100
AcDbLine
 10
232.770009
 20
-66.28999999999999
 30
0.0
 11
246.370009
 21
-66.28999999999999
 31
0.0
  0
ARC
  5
5F9
330
1D
100
AcDbEntity
  8
BLACK
100
AcDbCircle
 10
246.370009
 20
-65.78999999999999
 30
0.0
 40
0.5
100
AcDbArc
 50
270.0
 51
0.0
  0
LINE
  5
5FA
330
1D
100
AcDbEntity
  8
BLACK
  6
Continuous
100
AcDbLine
 10
246.870009
 20
-65.78999999999999
 30
0.0
 11
246.870009
 21
-52.79
 31
0.0
  0
ARC
  5
5FB
330
1D
100
AcDbEntity
  8
BLACK
100
AcDbCircle
 10
246.370009
 20
-52.79
 30
0.0
 40
0.5
100
AcDbArc
 50
0.0
 51
90.0
  0
LINE
  5
5FC
330
1D
100
AcDbEntity
  8
BLACK
  6
Continuous
100
AcDbLine
 10
246.370009
 20
-52.29
 30
0.0
 11
232.770009
 21
-52.29
 31
0.0
  0
ARC
  5
5FD
330
1D
100
AcDbEntity
  8
BLACK
100
AcDbCircle
 10
232.770009
 20
-52.79
 30
0.0
 40
0.5
100
AcDbArc
 50
90.0
 51
180.0
  0
CIRCLE
  5
5FE
330
1D
100
AcDbEntity
  8
BLACK
100
AcDbCircle
 10
-9.525
 20
0.0
 30
0.0
 40
1.000004
  0
CIRCLE
  5
5FF
330
1D
100
AcDbEntity
  8
BLACK
100
AcDbCircle
 10
233.746904
 20
-38.259644
 30
0.0
 40
0.999999
  0
LINE
  5
600
330
1D
100
AcDbEntity
  8
BLACK
  6
Continuous
100
AcDbLine
 10
234.870009
 20
-7.0
 30
0.0
 11
248.470009
 21
-7.0
 31
0.0
  0
ARC
  5
601
330
1D
100
AcDbEntity
  8
BLACK
100
AcDbCircle
 10
248.470009
 20
-6.5
 30
0.0
 40
0.499999
100
AcDbArc
 50
270.0
 51
0.0
  0
LINE
  5
602
330
1D
100
AcDbEntity
  8
BLACK
  6
Continuous
100
AcDbLine
 10
248.970008
 20
-6.5
 30
0.0
 11
248.970008
 21
6.5
 31
0.0
  0
ARC
  5
603
330
1D
100
AcDbEntity
  8
BLACK
100
AcDbCircle
 10
248.470009
 20
6.5
 30
0.0
 40
0.5
100
AcDbArc
 50
0.0
 51
90.0
  0
LINE
  5
604
330
1D
100
AcDbEntity
  8
BLACK
  6
Continuous
100
AcDbLine
 10
248.470009
 20
7.0
 30
0.0
 11
234.870009
 21
7.0
 31
0.0
  0
ARC
  5
605
330
1D
100
AcDbEntity
  8
BLACK
100
AcDbCircle
 10
234.870009
 20
6.5
 30
0.0
 40
0.500001
100
AcDbArc
 50
90.0
 51
180.0
  0
LINE
  5
606
330
1D
100
AcDbEntity
  8
BLACK
  6
Continuous
100
AcDbLine
 10
234.370008
 20
6.5
 30
0.0
 11
234.370008
 21
-6.5
 31
0.0
  0
ARC
  5
607
330
1D
100
AcDbEntity
  8
BLACK
100
AcDbCircle
 10
234.870009
 20
-6.5
 30
0.0
 40
0.5
100
AcDbArc
 50
180.0
 51
270.0
  0
ARC
  5
608
330
1D
100
AcDbEntity
  8
BLACK
100
AcDbCircle
 10
251.820009
 20
-52.79
 30
0.0
 40
0.5
100
AcDbArc
 50
90.0
 51
180.0
  0
LINE
  5
609
330
1D
100
AcDbEntity
  8
BLACK
  6
Continuous
100
AcDbLine
 10
251.320009
 20
-52.79
 30
0.0
 11
251.320009
 21
-65.78999999999999
 31
0.0
  0
ARC
  5
60A
330
1D
100
AcDbEntity
  8
BLACK
100
AcDbCircle
 10
251.820009
 20
-65.78999999999999
 30
0.0
 40
0.5
100
AcDbArc
 50
180.0
 51
270.0
  0
LINE
  5
60B
330
1D
100
AcDbEntity
  8
BLACK
  6
Continuous
100
AcDbLine
 10
251.820009
 20
-66.28999999999999
 30
0.0
 11
265.420009
 21
-66.28999999999999
 31
0.0
  0
ARC
  5
60C
330
1D
100
AcDbEntity
  8
BLACK
100
AcDbCircle
 10
265.420009
 20
-65.78999999999999
 30
0.0
 40
0.5
100
AcDbArc
 50
270.0
 51
0.0
  0
LINE
  5
60D
330
1D
100
AcDbEntity
  8
BLACK
  6
Continuous
100
AcDbLine
 10
265.920009
 20
-65.78999999999999
 30
0.0
 11
265.920009
 21
-52.79
 31
0.0
  0
ARC
  5
60E
330
1D
100
AcDbEntity
  8
BLACK
100
AcDbCircle
 10
265.420009
 20
-52.79
 30
0.0
 40
0.5
100
AcDbArc
 50
0.0
 51
90.0
  0
LINE
  5
60F
330
1D
100
AcDbEntity
  8
BLACK
  6
Continuous
100
AcDbLine
 10
265.420009
 20
-52.29
 30
0.0
 11
251.820009
 21
-52.29
 31
0.0
  0
ARC
  5
610
330
1D
100
AcDbEntity
  8
BLACK
100
AcDbCircle
 10
229.510009
 20
-13.63
 30
0.0
 40
0.500001
100
AcDbArc
 50
90.0
 51
180.0
  0
LINE
  5
611
330
1D
100
AcDbEntity
  8
BLACK
  6
Continuous
100
AcDbLine
 10
229.010008
 20
-13.63
 30
0.0
 11
229.010008
 21
-26.63
 31
0.0
  0
ARC
  5
612
330
1D
100
AcDbEntity
  8
BLACK
100
AcDbCircle
 10
229.510009
 20
-26.63
 30
0.0
 40
0.499999
100
AcDbArc
 50
180.0
 51
270.0
  0
LINE
  5
613
330
1D
100
AcDbEntity
  8
BLACK
  6
Continuous
100
AcDbLine
 10
229.510009
 20
-27.129999
 30
0.0
 11
243.110009
 21
-27.129999
 31
0.0
  0
ARC
  5
614
330
1D
100
AcDbEntity
  8
BLACK
100
AcDbCircle
 10
243.110009
 20
-26.63
 30
0.0
 40
0.499999
100
AcDbArc
 50
270.0
 51
0.0
  0
LINE
  5
615
330
1D
100
AcDbEntity
  8
BLACK
  6
Continuous
100
AcDbLine
 10
243.610008
 20
-26.63
 30
0.0
 11
243.610008
 21
-13.63
 31
0.0
  0
ARC
  5
616
330
1D
100
AcDbEntity
  8
BLACK
100
AcDbCircle
 10
243.110009
 20
-13.63
 30
0.0
 40
0.500001
100
AcDbArc
 50
0.0
 51
90.0
  0
LINE
  5
617
330
1D
100
AcDbEntity
  8
BLACK
  6
Continuous
100
AcDbLine
 10
243.110009
 20
-13.129999
 30
0.0
 11
229.510009
 21
-13.129999
 31
0.0
  0
CIRCLE
  5
618
330
1D
100
AcDbEntity
  8
BLACK
100
AcDbCircle
 10
278.536263
 20
-47.440001
 30
0.0
 40
0.9999979999999999
  0
CIRCLE
  5
619
330
1D
100
AcDbEntity
  8
BLACK
100
AcDbCircle
 10
293.040604
 20
-78.388002
 30
0.0
 40
0.9999939999999999
  0
ARC
  5
61A
330
1D
100
AcDbEntity
  8
BLACK
100
AcDbCircle
 10
74.47000899999999
 20
-88.6118
 30
0.0
 40
0.4999684494545631
100
AcDbArc
 50
257.99996199
 51
348.00003347
  0
LINE
  5
61B
330
1D
100
AcDbEntity
  8
BLACK
  6
Continuous
100
AcDbLine
 10
74.959052
 20
-88.715749
 30
0.0
 11
77.66189299999999
 21
-75.99987899999999
 31
0.0
  0
ARC
  5
61C
330
1D
100
AcDbEntity
  8
BLACK
100
AcDbCircle
 10
77.172809
 20
-75.8959
 30
0.0
 40
0.5000645535628375
100
AcDbArc
 50
347.99767069
 51
78.00003125999999
  0
LINE
  5
61D
330
1D
100
AcDbEntity
  8
BLACK
  6
Continuous
100
AcDbLine
 10
77.276778
 20
-75.406763
 30
0.0
 11
63.971562
 21
-72.578653
 31
0.0
  0
ARC
  5
61E
330
1D
100
AcDbEntity
  8
BLACK
100
AcDbCircle
 10
63.870009
 20
-73.06819999999999
 30
0.0
 40
0.4999686573666393
100
AcDbArc
 50
78.28062115
 51
167.99992138
  0
LINE
  5
61F
330
1D
100
AcDbEntity
  8
BLACK
  6
Continuous
100
AcDbLine
 10
63.380965
 20
-72.96424999999999
 30
0.0
 11
60.678123
 21
-85.68012
 31
0.0
  0
ARC
  5
620
330
1D
100
AcDbEntity
  8
BLACK
100
AcDbCircle
 10
61.167209
 20
-85.7841
 30
0.0
 40
0.5000667177697392
100
AcDbArc
 50
167.99747037
 51
257.9999668299999
  0
LINE
  5
621
330
1D
100
AcDbEntity
  8
BLACK
  6
Continuous
100
AcDbLine
 10
61.063239
 20
-86.27323899999999
 30
0.0
 11
74.36605999999999
 21
-89.10083999999999
 31
0.0
  0
ARC
  5
622
330
1D
100
AcDbEntity
  8
BLACK
100
AcDbCircle
 10
248.140009
 20
-27.69
 30
0.0
 40
0.499999
100
AcDbArc
 50
180.0
 51
270.0
  0
LINE
  5
623
330
1D
100
AcDbEntity
  8
BLACK
  6
Continuous
100
AcDbLine
 10
248.140009
 20
-28.189999
 30
0.0
 11
261.740009
 21
-28.189999
 31
0.0
  0
ARC
  5
624
330
1D
100
AcDbEntity
  8
BLACK
100
AcDbCircle
 10
261.740009
 20
-27.69
 30
0.0
 40
0.499999
100
AcDbArc
 50
270.0
 51
0.0
  0
LINE
  5
625
330
1D
100
AcDbEntity
  8
BLACK
  6
Continuous
100
AcDbLine
 10
262.240008
 20
-27.69
 30
0.0
 11
262.240008
 21
-14.69
 31
0.0
  0
ARC
  5
626
330
1D
100
AcDbEntity
  8
BLACK
100
AcDbCircle
 10
261.740009
 20
-14.69
 30
0.0
 40
0.500001
100
AcDbArc
 50
0.0
 51
90.0
  0
LINE
  5
627
330
1D
100
AcDbEntity
  8
BLACK
  6
Continuous
100
AcDbLine
 10
261.740009
 20
-14.189999
 30
0.0
 11
248.140009
 21
-14.189999
 31
0.0
  0
ARC
  5
628
330
1D
100
AcDbEntity
  8
BLACK
100
AcDbCircle
 10
248.140009
 20
-14.69
 30
0.0
 40
0.500001
100
AcDbArc
 50
90.0
 51
180.0
  0
LINE
  5
629
330
1D
100
AcDbEntity
  8
BLACK
  6
Continuous
100
AcDbLine
 10
247.640008
 20
-14.69
 30
0.0
 11
247.640008
 21
-27.69
 31
0.0
  0
ARC
  5
62A
330
1D
100
AcDbEntity
  8
BLACK
100
AcDbCircle
 10
304.610009
 20
-27.69
 30
0.0
 40
0.499999
100
AcDbArc
 50
270.0
 51
0.0
  0
LINE
  5
62B
330
1D
100
AcDbEntity
  8
BLACK
  6
Continuous
100
AcDbLine
 10
305.110008
 20
-27.69
 30
0.0
 11
305.110008
 21
-14.69
 31
0.0
  0
ARC
  5
62C
330
1D
100
AcDbEntity
  8
BLACK
100
AcDbCircle
 10
304.610009
 20
-14.69
 30
0.0
 40
0.5
100
AcDbArc
 50
0.0
 51
90.0
  0
LINE
  5
62D
330
1D
100
AcDbEntity
  8
BLACK
  6
Continuous
100
AcDbLine
 10
304.610009
 20
-14.19
 30
0.0
 11
291.010009
 21
-14.19
 31
0.0
  0
ARC
  5
62E
330
1D
100
AcDbEntity
  8
BLACK
100
AcDbCircle
 10
291.010009
 20
-14.69
 30
0.0
 40
0.500001
100
AcDbArc
 50
90.0
 51
180.0
  0
LINE
  5
62F
330
1D
100
AcDbEntity
  8
BLACK
  6
Continuous
100
AcDbLine
 10
290.510008
 20
-14.69
 30
0.0
 11
290.510008
 21
-27.69
 31
0.0
  0
ARC
  5
630
330
1D
100
AcDbEntity
  8
BLACK
100
AcDbCircle
 10
291.010009
 20
-27.69
 30
0.0
 40
0.5
100
AcDbArc
 50
180.0
 51
270.0
  0
LINE
  5
631
330
1D
100
AcDbEntity
  8
BLACK
  6
Continuous
100
AcDbLine
 10
291.010009
 20
-28.19
 30
0.0
 11
304.610009
 21
-28.19
 31
0.0
  0
CIRCLE
  5
632
330
1D
100
AcDbEntity
  8
BLACK
100
AcDbCircle
 10
174.585768
 20
-11.881792
 30
0.0
 40
1.0
  0
LINE
  5
633
330
1D
100
AcDbEntity
  8
BLACK
  6
Continuous
100
AcDbLine
 10
178.670689
 20
-43.321266
 30
0.0
 11
181.373534
 21
-56.03715
 31
0.0
  0
ARC
  5
634
330
1D
100
AcDbEntity
  8
BLACK
100
AcDbCircle
 10
181.862609
 20
-55.9332
 30
0.0
 40
0.4999941506147846
100
AcDbArc
 50
191.99934708
 51
282.00004343
  0
LINE
  5
635
330
1D
100
AcDbEntity
  8
BLACK
  6
Continuous
100
AcDbLine
 10
181.966564
 20
-56.422268
 30
0.0
 11
195.272298
 21
-53.594046
 31
0.0
  0
ARC
  5
636
330
1D
100
AcDbEntity
  8
BLACK
100
AcDbCircle
 10
195.165409
 20
-53.1056
 30
0.0
 40
0.500006304209257
100
AcDbArc
 50
282.34372593
 51
11.99998171
  0
LINE
  5
637
330
1D
100
AcDbEntity
  8
BLACK
  6
Continuous
100
AcDbLine
 10
195.654489
 20
-53.00164299999999
 30
0.0
 11
192.951623
 21
-40.285657
 31
0.0
  0
ARC
  5
638
330
1D
100
AcDbEntity
  8
BLACK
100
AcDbCircle
 10
192.462609
 20
-40.3896
 30
0.0
 40
0.4999347152018951
100
AcDbArc
 50
11.99998493
 51
101.99996814
  0
LINE
  5
639
330
1D
100
AcDbEntity
  8
BLACK
  6
Continuous
100
AcDbLine
 10
192.358667
 20
-39.900589
 30
0.0
 11
179.052753
 21
-42.728848
 31
0.0
  0
ARC
  5
63A
330
1D
100
AcDbEntity
  8
BLACK
100
AcDbCircle
 10
179.159809
 20
-43.21729999999999
 30
0.0
 40
0.5000473013185852
100
AcDbArc
 50
102.36227163
 51
192.0000375
  0
CIRCLE
  5
63B
330
1D
100
AcDbEntity
  8
BLACK
100
AcDbCircle
 10
311.330024
 20
-47.439995
 30
0.0
 40
0.9999979999999999
  0
CIRCLE
  5
63C
330
1D
100
AcDbEntity
  8
BLACK
100
AcDbCircle
 10
312.090652
 20
-78.388004
 30
0.0
 40
1.0
  0
LINE
  5
63D
330
1D
100
AcDbEntity
  8
BLACK
  6
Continuous
100
AcDbLine
 10
76.036778
 20
-15.176764
 30
0.0
 11
62.731562
 21
-12.348653
 31
0.0
  0
ARC
  5
63E
330
1D
100
AcDbEntity
  8
BLACK
100
AcDbCircle
 10
62.63000899999999
 20
-12.8382
 30
0.0
 40
0.4999686573666393
100
AcDbArc
 50
78.28062115
 51
167.99992138
  0
LINE
  5
63F
330
1D
100
AcDbEntity
  8
BLACK
  6
Continuous
100
AcDbLine
 10
62.14096499999999
 20
-12.73425
 30
0.0
 11
59.438123
 21
-25.45012
 31
0.0
  0
ARC
  5
640
330
1D
100
AcDbEntity
  8
BLACK
100
AcDbCircle
 10
59.927209
 20
-25.5541
 30
0.0
 40
0.500065739622302
100
AcDbArc
 50
167.99747037
 51
257.99994301
  0
LINE
  5
641
330
1D
100
AcDbEntity
  8
BLACK
  6
Continuous
100
AcDbLine
 10
59.82323899999999
 20
-26.043239
 30
0.0
 11
73.12606
 21
-28.87084
 31
0.0
  0
ARC
  5
642
330
1D
100
AcDbEntity
  8
BLACK
100
AcDbCircle
 10
73.230009
 20
-28.3818
 30
0.0
 40
0.4999684494545631
100
AcDbArc
 50
257.99996199
 51
348.00003347
  0
LINE
  5
643
330
1D
100
AcDbEntity
  8
BLACK
  6
Continuous
100
AcDbLine
 10
73.71905199999999
 20
-28.485749
 30
0.0
 11
76.421893
 21
-15.769879
 31
0.0
  0
ARC
  5
644
330
1D
100
AcDbEntity
  8
BLACK
100
AcDbCircle
 10
75.93280899999999
 20
-15.6659
 30
0.0
 40
0.5000625972675821
100
AcDbArc
 50
347.99764686
 51
77.99998361
  0
LINE
  5
645
330
1D
100
AcDbEntity
  8
BLACK
  6
Continuous
100
AcDbLine
 10
53.910009
 20
-7.0
 30
0.0
 11
67.510009
 21
-7.0
 31
0.0
  0
ARC
  5
646
330
1D
100
AcDbEntity
  8
BLACK
100
AcDbCircle
 10
67.510009
 20
-6.5
 30
0.0
 40
0.499999
100
AcDbArc
 50
270.0
 51
0.0
  0
LINE
  5
647
330
1D
100
AcDbEntity
  8
BLACK
  6
Continuous
100
AcDbLine
 10
68.010008
 20
-6.5
 30
0.0
 11
68.010008
 21
6.5
 31
0.0
  0
ARC
  5
648
330
1D
100
AcDbEntity
  8
BLACK
100
AcDbCircle
 10
67.510009
 20
6.5
 30
0.0
 40
0.5
100
AcDbArc
 50
0.0
 51
90.0
  0
LINE
  5
649
330
1D
100
AcDbEntity
  8
BLACK
  6
Continuous
100
AcDbLine
 10
67.510009
 20
7.0
 30
0.0
 11
53.910009
 21
7.0
 31
0.0
  0
ARC
  5
64A
330
1D
100
AcDbEntity
  8
BLACK
100
AcDbCircle
 10
53.910009
 20
6.5
 30
0.0
 40
0.500001
100
AcDbArc
 50
90.0
 51
180.0
  0
LINE
  5
64B
330
1D
100
AcDbEntity
  8
BLACK
  6
Continuous
100
AcDbLine
 10
53.410008
 20
6.5
 30
0.0
 11
53.410008
 21
-6.5
 31
0.0
  0
ARC
  5
64C
330
1D
100
AcDbEntity
  8
BLACK
100
AcDbCircle
 10
53.910009
 20
-6.5
 30
0.0
 40
0.5
100
AcDbArc
 50
180.0
 51
270.0
  0
CIRCLE
  5
64D
330
1D
100
AcDbEntity
  8
BLACK
100
AcDbCircle
 10
285.8963
 20
-21.190002
 30
0.0
 40
1.000001
  0
CIRCLE
  5
64E
330
1D
100
AcDbEntity
  8
BLACK
100
AcDbCircle
 10
230.48704
 20
0.000389
 30
0.0
 40
1.000002
  0
ARC
  5
64F
330
1D
100
AcDbEntity
  8
BLACK
100
AcDbCircle
 10
78.561009
 20
-29.5147
 30
0.0
 40
0.500199490573511
100
AcDbArc
 50
169.25501021
 51
258.00003769
  0
LINE
  5
650
330
1D
100
AcDbEntity
  8
BLACK
  6
Continuous
100
AcDbLine
 10
78.45701199999999
 20
-30.003969
 30
0.0
 11
91.759757
 21
-32.831554
 31
0.0
  0
ARC
  5
651
330
1D
100
AcDbEntity
  8
BLACK
100
AcDbCircle
 10
91.863709
 20
-32.3425
 30
0.0
 40
0.4999827672560325
100
AcDbArc
 50
257.9999592799999
 51
348.00003076
  0
LINE
  5
652
330
1D
100
AcDbEntity
  8
BLACK
  6
Continuous
100
AcDbLine
 10
92.352767
 20
-32.446452
 30
0.0
 11
95.056519
 21
-19.726298
 31
0.0
  0
ARC
  5
653
330
1D
100
AcDbEntity
  8
BLACK
100
AcDbCircle
 10
94.566509
 20
-19.6266
 30
0.0
 40
0.5000502357613683
100
AcDbArc
 50
348.49951284
 51
78.00003397
  0
LINE
  5
654
330
1D
100
AcDbEntity
  8
BLACK
  6
Continuous
100
AcDbLine
 10
94.670475
 20
-19.137477
 30
0.0
 11
81.367791
 21
-16.309905
 31
0.0
  0
ARC
  5
655
330
1D
100
AcDbEntity
  8
BLACK
100
AcDbCircle
 10
81.263809
 20
-16.799
 30
0.0
 40
0.5000737727145865
100
AcDbArc
 50
77.99766098
 51
168.00002151
  0
LINE
  5
656
330
1D
100
AcDbEntity
  8
BLACK
  6
Continuous
100
AcDbLine
 10
80.77466299999999
 20
-16.695029
 30
0.0
 11
78.069581
 21
-29.421444
 31
0.0
  0
ARC
  5
657
330
1D
100
AcDbEntity
  8
BLACK
100
AcDbCircle
 10
267.100009
 20
4.359999999999999
 30
0.0
 40
0.5
100
AcDbArc
 50
0.0
 51
90.0
  0
LINE
  5
658
330
1D
100
AcDbEntity
  8
BLACK
  6
Continuous
100
AcDbLine
 10
267.100009
 20
4.859999999999999
 30
0.0
 11
253.500009
 21
4.859999999999999
 31
0.0
  0
ARC
  5
659
330
1D
100
AcDbEntity
  8
BLACK
100
AcDbCircle
 10
253.500009
 20
4.359999999999999
 30
0.0
 40
0.500001
100
AcDbArc
 50
90.0
 51
180.0
  0
LINE
  5
65A
330
1D
100
AcDbEntity
  8
BLACK
  6
Continuous
100
AcDbLine
 10
253.000008
 20
4.359999999999999
 30
0.0
 11
253.000008
 21
-8.639999999999999
 31
0.0
  0
ARC
  5
65B
330
1D
100
AcDbEntity
  8
BLACK
100
AcDbCircle
 10
253.500009
 20
-8.639999999999999
 30
0.0
 40
0.5
100
AcDbArc
 50
180.0
 51
270.0
  0
LINE
  5
65C
330
1D
100
AcDbEntity
  8
BLACK
  6
Continuous
100
AcDbLine
 10
253.500009
 20
-9.139999999999999
 30
0.0
 11
267.100009
 21
-9.139999999999999
 31
0.0
  0
ARC
  5
65D
330
1D
100
AcDbEntity
  8
BLACK
100
AcDbCircle
 10
267.100009
 20
-8.639999999999999
 30
0.0
 40
0.499999
100
AcDbArc
 50
270.0
 51
0.0
  0
LINE
  5
65E
330
1D
100
AcDbEntity
  8
BLACK
  6
Continuous
100
AcDbLine
 10
267.600008
 20
-8.639999999999999
 30
0.0
 11
267.600008
 21
4.359999999999999
 31
0.0
  0
ARC
  5
65F
330
1D
100
AcDbEntity
  8
BLACK
100
AcDbCircle
 10
110.497409
 20
-36.3032
 30
0.0
 40
0.4999992492644364
100
AcDbArc
 50
257.9999636
 51
347.9999636
  0
LINE
  5
660
330
1D
100
AcDbEntity
  8
BLACK
  6
Continuous
100
AcDbLine
 10
110.986482
 20
-36.407156
 30
0.0
 11
113.689352
 21
-23.691149
 31
0.0
  0
ARC
  5
661
330
1D
100
AcDbEntity
  8
BLACK
100
AcDbCircle
 10
113.200309
 20
-23.5872
 30
0.0
 40
0.4999162768984422
100
AcDbArc
 50
348.0000513699999
 51
78.00005136999998
  0
LINE
  5
662
330
1D
100
AcDbEntity
  8
BLACK
  6
Continuous
100
AcDbLine
 10
113.304247
 20
-23.098208
 30
0.0
 11
100.001488
 21
-20.270619
 31
0.0
  0
ARC
  5
663
330
1D
100
AcDbEntity
  8
BLACK
100
AcDbCircle
 10
99.897509
 20
-20.7597
 30
0.0
 40
0.5000574986179089
100
AcDbArc
 50
77.99752773000002
 51
167.99997658
  0
LINE
  5
664
330
1D
100
AcDbEntity
  8
BLACK
  6
Continuous
100
AcDbLine
 10
99.408379
 20
-20.655732
 30
0.0
 11
96.705529
 21
-33.37164
 31
0.0
  0
ARC
  5
665
330
1D
100
AcDbEntity
  8
BLACK
100
AcDbCircle
 10
97.194609
 20
-33.4756
 30
0.0
 40
0.4999980632052488
100
AcDbArc
 50
167.99969178
 51
258.00005187
  0
LINE
  5
666
330
1D
100
AcDbEntity
  8
BLACK
  6
Continuous
100
AcDbLine
 10
97.090654
 20
-33.964672
 30
0.0
 11
110.393454
 21
-36.792269
 31
0.0
  0
LINE
  5
667
330
1D
100
AcDbEntity
  8
BLACK
  6
Continuous
100
AcDbLine
 10
197.304404
 20
-39.360562
 30
0.0
 11
200.007246
 21
-52.076432
 31
0.0
  0
ARC
  5
668
330
1D
100
AcDbEntity
  8
BLACK
100
AcDbCircle
 10
200.496309
 20
-51.9725
 30
0.0
 40
0.4999776686063088
100
AcDbArc
 50
191.99761531
 51
281.9999762800001
  0
LINE
  5
669
330
1D
100
AcDbEntity
  8
BLACK
  6
Continuous
100
AcDbLine
 10
200.60026
 20
-52.46155299999999
 30
0.0
 11
213.903083
 21
-49.633951
 31
0.0
  0
ARC
  5
66A
330
1D
100
AcDbEntity
  8
BLACK
100
AcDbCircle
 10
213.799209
 20
-49.1449
 30
0.0
 40
0.4999225616072953
100
AcDbArc
 50
281.9913290499999
 51
12.00002987
  0
LINE
  5
66B
330
1D
100
AcDbEntity
  8
BLACK
  6
Continuous
100
AcDbLine
 10
214.288208
 20
-49.04096
 30
0.0
 11
211.585338
 21
-36.324954
 31
0.0
  0
ARC
  5
66C
330
1D
100
AcDbEntity
  8
BLACK
100
AcDbCircle
 10
211.096309
 20
-36.4289
 30
0.0
 40
0.499950011151115
100
AcDbArc
 50
11.99996382
 51
101.99994703
  0
LINE
  5
66D
330
1D
100
AcDbEntity
  8
BLACK
  6
Continuous
100
AcDbLine
 10
210.992364
 20
-35.939875
 30
0.0
 11
197.689543
 21
-38.76747599999999
 31
0.0
  0
ARC
  5
66E
330
1D
100
AcDbEntity
  8
BLACK
100
AcDbCircle
 10
197.793509
 20
-39.2566
 30
0.0
 40
0.5000308193101701
100
AcDbArc
 50
101.99999417
 51
191.99997035
  0
LINE
  5
66F
330
1D
100
AcDbEntity
  8
BLACK
  6
Continuous
100
AcDbLine
 10
60.286109
 20
-52.28999899999999
 30
0.0
 11
46.686258
 21
-52.28999899999999
 31
0.0
  0
ARC
  5
670
330
1D
100
AcDbEntity
  8
BLACK
100
AcDbCircle
 10
46.686209
 20
-52.79
 30
0.0
 40
0.499951
100
AcDbArc
 50
89.99438446
 51
180.0
  0
LINE
  5
671
330
1D
100
AcDbEntity
  8
BLACK
  6
Continuous
100
AcDbLine
 10
46.186258
 20
-52.79
 30
0.0
 11
46.186258
 21
-65.796656
 31
0.0
  0
ARC
  5
672
330
1D
100
AcDbEntity
  8
BLACK
100
AcDbCircle
 10
46.686409
 20
-65.7898
 30
0.0
 40
0.500199
100
AcDbArc
 50
180.78535335
 51
270.0
  0
LINE
  5
673
330
1D
100
AcDbEntity
  8
BLACK
  6
Continuous
100
AcDbLine
 10
46.686409
 20
-66.289999
 30
0.0
 11
60.286258
 21
-66.289999
 31
0.0
  0
ARC
  5
674
330
1D
100
AcDbEntity
  8
BLACK
100
AcDbCircle
 10
60.286309
 20
-65.78999999999999
 30
0.0
 40
0.499949
100
AcDbArc
 50
269.99415523
 51
0.0
  0
LINE
  5
675
330
1D
100
AcDbEntity
  8
BLACK
  6
Continuous
100
AcDbLine
 10
60.786258
 20
-65.78999999999999
 30
0.0
 11
60.786258
 21
-52.782988
 31
0.0
  0
ARC
  5
676
330
1D
100
AcDbEntity
  8
BLACK
100
AcDbCircle
 10
60.286109
 20
-52.7902
 30
0.0
 40
0.500201
100
AcDbArc
 50
0.82613086
 51
90.0
  0
CIRCLE
  5
677
330
1D
100
AcDbEntity
  8
BLACK
100
AcDbCircle
 10
233.196906
 20
-78.859641
 30
0.0
 40
0.9999969999999999
  0
LINE
  5
678
330
1D
100
AcDbEntity
  8
BLACK
  6
Continuous
100
AcDbLine
 10
205.668208
 20
-31.39096
 30
0.0
 11
202.965338
 21
-18.674954
 31
0.0
  0
ARC
  5
679
330
1D
100
AcDbEntity
  8
BLACK
100
AcDbCircle
 10
202.476309
 20
-18.7789
 30
0.0
 40
0.499950011151115
100
AcDbArc
 50
11.99996382
 51
101.99994703
  0
LINE
  5
67A
330
1D
100
AcDbEntity
  8
BLACK
  6
Continuous
100
AcDbLine
 10
202.372364
 20
-18.289875
 30
0.0
 11
189.069543
 21
-21.117476
 31
0.0
  0
ARC
  5
67B
330
1D
100
AcDbEntity
  8
BLACK
100
AcDbCircle
 10
189.173509
 20
-21.6066
 30
0.0
 40
0.5000308193101701
100
AcDbArc
 50
101.99999417
 51
191.99997035
  0
LINE
  5
67C
330
1D
100
AcDbEntity
  8
BLACK
  6
Continuous
100
AcDbLine
 10
188.684404
 20
-21.710562
 30
0.0
 11
191.387246
 21
-34.426432
 31
0.0
  0
ARC
  5
67D
330
1D
100
AcDbEntity
  8
BLACK
100
AcDbCircle
 10
191.876309
 20
-34.3225
 30
0.0
 40
0.4999776686063088
100
AcDbArc
 50
191.99761531
 51
281.9999762800001
  0
LINE
  5
67E
330
1D
100
AcDbEntity
  8
BLACK
  6
Continuous
100
AcDbLine
 10
191.98026
 20
-34.811553
 30
0.0
 11
205.283083
 21
-31.983951
 31
0.0
  0
ARC
  5
67F
330
1D
100
AcDbEntity
  8
BLACK
100
AcDbCircle
 10
205.179209
 20
-31.4949
 30
0.0
 40
0.4999225616072953
100
AcDbArc
 50
281.9913290499999
 51
12.00002987
  0
CIRCLE
  5
680
330
1D
100
AcDbEntity
  8
BLACK
100
AcDbCircle
 10
59.85314899999999
 20
-78.85963799999999
 30
0.0
 40
0.9999979999999999
  0
CIRCLE
  5
681
330
1D
100
AcDbEntity
  8
BLACK
100
AcDbCircle
 10
77.946902
 20
-42.220366
 30
0.0
 40
0.9999969999999999
  0
CIRCLE
  5
682
330
1D
100
AcDbEntity
  8
BLACK
100
AcDbCircle
 10
201.008619
 20
-91.532912
 30
0.0
 40
0.999999
  0
LINE
  5
683
330
1D
100
AcDbEntity
  8
BLACK
  6
Continuous
100
AcDbLine
 10
54.732508
 20
-27.69
 30
0.0
 11
54.732508
 21
-14.69
 31
0.0
  0
ARC
  5
684
330
1D
100
AcDbEntity
  8
BLACK
100
AcDbCircle
 10
54.232509
 20
-14.69
 30
0.0
 40
0.500001
100
AcDbArc
 50
0.0
 51
90.0
  0
LINE
  5
685
330
1D
100
AcDbEntity
  8
BLACK
  6
Continuous
100
AcDbLine
 10
54.232509
 20
-14.189999
 30
0.0
 11
40.632509
 21
-14.189999
 31
0.0
  0
ARC
  5
686
330
1D
100
AcDbEntity
  8
BLACK
100
AcDbCircle
 10
40.632509
 20
-14.69
 30
0.0
 40
0.500001
100
AcDbArc
 50
90.0
 51
180.0
  0
LINE
  5
687
330
1D
100
AcDbEntity
  8
BLACK
  6
Continuous
100
AcDbLine
 10
40.132508
 20
-14.69
 30
0.0
 11
40.132508
 21
-27.69
 31
0.0
  0
ARC
  5
688
330
1D
100
AcDbEntity
  8
BLACK
100
AcDbCircle
 10
40.632509
 20
-27.69
 30
0.0
 40
0.499999
100
AcDbArc
 50
180.0
 51
270.0
  0
LINE
  5
689
330
1D
100
AcDbEntity
  8
BLACK
  6
Continuous
100
AcDbLine
 10
40.632509
 20
-28.189999
 30
0.0
 11
54.232509
 21
-28.189999
 31
0.0
  0
ARC
  5
68A
330
1D
100
AcDbEntity
  8
BLACK
100
AcDbCircle
 10
54.232509
 20
-27.69
 30
0.0
 40
0.499999
100
AcDbArc
 50
270.0
 51
0.0
  0
ARC
  5
68B
330
1D
100
AcDbEntity
  8
BLACK
100
AcDbCircle
 10
208.439209
 20
-69.75489999999999
 30
0.0
 40
0.4999225616072953
100
AcDbArc
 50
281.9913290499999
 51
12.00002987
  0
LINE
  5
68C
330
1D
100
AcDbEntity
  8
BLACK
  6
Continuous
100
AcDbLine
 10
208.928208
 20
-69.65096
 30
0.0
 11
206.225338
 21
-56.934954
 31
0.0
  0
ARC
  5
68D
330
1D
100
AcDbEntity
  8
BLACK
100
AcDbCircle
 10
205.736309
 20
-57.0389
 30
0.0
 40
0.499950011151115
100
AcDbArc
 50
11.99996382
 51
101.99994703
  0
LINE
  5
68E
330
1D
100
AcDbEntity
  8
BLACK
  6
Continuous
100
AcDbLine
 10
205.632364
 20
-56.549875
 30
0.0
 11
192.329543
 21
-59.37747599999999
 31
0.0
  0
ARC
  5
68F
330
1D
100
AcDbEntity
  8
BLACK
100
AcDbCircle
 10
192.433509
 20
-59.8666
 30
0.0
 40
0.5000308193101701
100
AcDbArc
 50
101.99999417
 51
191.99997035
  0
LINE
  5
690
330
1D
100
AcDbEntity
  8
BLACK
  6
Continuous
100
AcDbLine
 10
191.944404
 20
-59.97056199999999
 30
0.0
 11
194.647246
 21
-72.686432
 31
0.0
  0
ARC
  5
691
330
1D
100
AcDbEntity
  8
BLACK
100
AcDbCircle
 10
195.136309
 20
-72.5825
 30
0.0
 40
0.4999776686063088
100
AcDbArc
 50
191.99761531
 51
281.9999762800001
  0
LINE
  5
692
330
1D
100
AcDbEntity
  8
BLACK
  6
Continuous
100
AcDbLine
 10
195.24026
 20
-73.071553
 30
0.0
 11
208.543083
 21
-70.243951
 31
0.0
  0
LINE
  5
693
330
1D
100
AcDbEntity
  8
BLACK
  6
Continuous
100
AcDbLine
 10
30.920008
 20
-27.69
 30
0.0
 11
30.920008
 21
-14.69
 31
0.0
  0
ARC
  5
694
330
1D
100
AcDbEntity
  8
BLACK
100
AcDbCircle
 10
30.420009
 20
-14.69
 30
0.0
 40
0.500001
100
AcDbArc
 50
0.0
 51
90.0
  0
LINE
  5
695
330
1D
100
AcDbEntity
  8
BLACK
  6
Continuous
100
AcDbLine
 10
30.420009
 20
-14.189999
 30
0.0
 11
16.820009
 21
-14.189999
 31
0.0
  0
ARC
  5
696
330
1D
100
AcDbEntity
  8
BLACK
100
AcDbCircle
 10
16.820009
 20
-14.69
 30
0.0
 40
0.500001
100
AcDbArc
 50
90.0
 51
180.0
  0
LINE
  5
697
330
1D
100
AcDbEntity
  8
BLACK
  6
Continuous
100
AcDbLine
 10
16.320008
 20
-14.69
 30
0.0
 11
16.320008
 21
-27.69
 31
0.0
  0
ARC
  5
698
330
1D
100
AcDbEntity
  8
BLACK
100
AcDbCircle
 10
16.820009
 20
-27.69
 30
0.0
 40
0.499999
100
AcDbArc
 50
180.0
 51
270.0
  0
LINE
  5
699
330
1D
100
AcDbEntity
  8
BLACK
  6
Continuous
100
AcDbLine
 10
16.820009
 20
-28.189999
 30
0.0
 11
30.420009
 21
-28.189999
 31
0.0
  0
ARC
  5
69A
330
1D
100
AcDbEntity
  8
BLACK
100
AcDbCircle
 10
30.420009
 20
-27.69
 30
0.0
 40
0.499999
100
AcDbArc
 50
270.0
 51
0.0
  0
CIRCLE
  5
69B
330
1D
100
AcDbEntity
  8
BLACK
100
AcDbCircle
 10
114.514284
 20
-30.511791
 30
0.0
 40
0.999999
  0
LINE
  5
69C
330
1D
100
AcDbEntity
  8
BLACK
  6
Continuous
100
AcDbLine
 10
105.632767
 20
-15.796452
 30
0.0
 11
108.336519
 21
-3.076298
 31
0.0
  0
ARC
  5
69D
330
1D
100
AcDbEntity
  8
BLACK
100
AcDbCircle
 10
107.846509
 20
-2.9766
 30
0.0
 40
0.5000502357613683
100
AcDbArc
 50
348.49951284
 51
78.00003397
  0
LINE
  5
69E
330
1D
100
AcDbEntity
  8
BLACK
  6
Continuous
100
AcDbLine
 10
107.950475
 20
-2.487477
 30
0.0
 11
94.647791
 21
0.340095
 31
0.0
  0
ARC
  5
69F
330
1D
100
AcDbEntity
  8
BLACK
100
AcDbCircle
 10
94.543809
 20
-0.149
 30
0.0
 40
0.500072794566951
100
AcDbArc
 50
77.99763715
 51
167.99999769
  0
LINE
  5
6A0
330
1D
100
AcDbEntity
  8
BLACK
  6
Continuous
100
AcDbLine
 10
94.05466299999999
 20
-0.045029
 30
0.0
 11
91.349581
 21
-12.771444
 31
0.0
  0
ARC
  5
6A1
330
1D
100
AcDbEntity
  8
BLACK
100
AcDbCircle
 10
91.841009
 20
-12.8647
 30
0.0
 40
0.500199490573511
100
AcDbArc
 50
169.25501021
 51
258.00003769
  0
LINE
  5
6A2
330
1D
100
AcDbEntity
  8
BLACK
  6
Continuous
100
AcDbLine
 10
91.737012
 20
-13.353969
 30
0.0
 11
105.039757
 21
-16.181554
 31
0.0
  0
ARC
  5
6A3
330
1D
100
AcDbEntity
  8
BLACK
100
AcDbCircle
 10
105.143709
 20
-15.6925
 30
0.0
 40
0.4999827672560325
100
AcDbArc
 50
257.9999592799999
 51
348.00003076
  0
LINE
  5
6A4
330
1D
100
AcDbEntity
  8
BLACK
  6
Continuous
100
AcDbLine
 10
89.316778
 20
1.473236
 30
0.0
 11
76.011562
 21
4.301347
 31
0.0
  0
ARC
  5
6A5
330
1D
100
AcDbEntity
  8
BLACK
100
AcDbCircle
 10
75.910009
 20
3.8118
 30
0.0
 40
0.4999686573666393
100
AcDbArc
 50
78.28062115
 51
167.99992138
  0
LINE
  5
6A6
330
1D
100
AcDbEntity
  8
BLACK
  6
Continuous
100
AcDbLine
 10
75.420965
 20
3.91575
 30
0.0
 11
72.71812299999999
 21
-8.80012
 31
0.0
  0
ARC
  5
6A7
330
1D
100
AcDbEntity
  8
BLACK
100
AcDbCircle
 10
73.20720899999999
 20
-8.9041
 30
0.0
 40
0.500065739622302
100
AcDbArc
 50
167.99747037
 51
257.99994301
  0
LINE
  5
6A8
330
1D
100
AcDbEntity
  8
BLACK
  6
Continuous
100
AcDbLine
 10
73.103239
 20
-9.393239
 30
0.0
 11
86.40606
 21
-12.22084
 31
0.0
  0
ARC
  5
6A9
330
1D
100
AcDbEntity
  8
BLACK
100
AcDbCircle
 10
86.510009
 20
-11.7318
 30
0.0
 40
0.4999684494545631
100
AcDbArc
 50
257.99996199
 51
348.00003347
  0
LINE
  5
6AA
330
1D
100
AcDbEntity
  8
BLACK
  6
Continuous
100
AcDbLine
 10
86.99905199999999
 20
-11.835749
 30
0.0
 11
89.701893
 21
0.8801209999999999
 31
0.0
  0
ARC
  5
6AB
330
1D
100
AcDbEntity
  8
BLACK
100
AcDbCircle
 10
89.212809
 20
0.9841
 30
0.0
 40
0.5000625972675821
100
AcDbArc
 50
347.9977351
 51
77.99998361
  0
CIRCLE
  5
6AC
330
1D
100
AcDbEntity
  8
BLACK
100
AcDbCircle
 10
24.915055
 20
-78.340008
 30
0.0
 40
0.999996
  0
CIRCLE
  5
6AD
330
1D
100
AcDbEntity
  8
BLACK
100
AcDbCircle
 10
38.930007
 20
-66.489997
 30
0.0
 40
0.9999979999999999
  0
CIRCLE
  5
6AE
330
1D
100
AcDbEntity
  8
BLACK
100
AcDbCircle
 10
58.613146
 20
-18.62964
 30
0.0
 40
1.0
  0
ARC
  5
6AF
330
1D
100
AcDbEntity
  8
BLACK
100
AcDbCircle
 10
175.899809
 20
-4.9573
 30
0.0
 40
0.5000473013185852
100
AcDbArc
 50
102.36227163
 51
192.0000375
  0
LINE
  5
6B0
330
1D
100
AcDbEntity
  8
BLACK
  6
Continuous
100
AcDbLine
 10
175.410689
 20
-5.061266
 30
0.0
 11
178.113534
 21
-17.77715
 31
0.0
  0
ARC
  5
6B1
330
1D
100
AcDbEntity
  8
BLACK
100
AcDbCircle
 10
178.602609
 20
-17.6732
 30
0.0
 40
0.4999941506147846
100
AcDbArc
 50
191.99934708
 51
282.00004343
  0
LINE
  5
6B2
330
1D
100
AcDbEntity
  8
BLACK
  6
Continuous
100
AcDbLine
 10
178.706564
 20
-18.162268
 30
0.0
 11
192.012298
 21
-15.334046
 31
0.0
  0
ARC
  5
6B3
330
1D
100
AcDbEntity
  8
BLACK
100
AcDbCircle
 10
191.905409
 20
-14.8456
 30
0.0
 40
0.500006304209257
100
AcDbArc
 50
282.34372593
 51
11.99998171
  0
LINE
  5
6B4
330
1D
100
AcDbEntity
  8
BLACK
  6
Continuous
100
AcDbLine
 10
192.394489
 20
-14.741643
 30
0.0
 11
189.691623
 21
-2.025657
 31
0.0
  0
ARC
  5
6B5
330
1D
100
AcDbEntity
  8
BLACK
100
AcDbCircle
 10
189.202609
 20
-2.1296
 30
0.0
 40
0.4999347152018951
100
AcDbArc
 50
11.99998493
 51
101.99996814
  0
LINE
  5
6B6
330
1D
100
AcDbEntity
  8
BLACK
  6
Continuous
100
AcDbLine
 10
189.098667
 20
-1.640589
 30
0.0
 11
175.792753
 21
-4.468847999999999
 31
0.0
  0
CIRCLE
  5
6B7
330
1D
100
AcDbEntity
  8
BLACK
100
AcDbCircle
 10
206.493185
 20
-24.57036
 30
0.0
 40
0.9999979999999999
  0
ARC
  5
6B8
330
1D
100
AcDbEntity
  8
BLACK
100
AcDbCircle
 10
197.236309
 20
-13.7125
 30
0.0
 40
0.4999776686063088
100
AcDbArc
 50
191.99761531
 51
281.9999762800001
  0
LINE
  5
6B9
330
1D
100
AcDbEntity
  8
BLACK
  6
Continuous
100
AcDbLine
 10
197.34026
 20
-14.201553
 30
0.0
 11
210.643083
 21
-11.373951
 31
0.0
  0
ARC
  5
6BA
330
1D
100
AcDbEntity
  8
BLACK
100
AcDbCircle
 10
210.539209
 20
-10.8849
 30
0.0
 40
0.4999225616072953
100
AcDbArc
 50
281.9913290499999
 51
12.00002987
  0
LINE
  5
6BB
330
1D
100
AcDbEntity
  8
BLACK
  6
Continuous
100
AcDbLine
 10
211.028208
 20
-10.78096
 30
0.0
 11
208.325338
 21
1.935046
 31
0.0
  0
ARC
  5
6BC
330
1D
100
AcDbEntity
  8
BLACK
100
AcDbCircle
 10
207.836309
 20
1.8311
 30
0.0
 40
0.499950011151115
100
AcDbArc
 50
11.99994703
 51
101.99994703
  0
LINE
  5
6BD
330
1D
100
AcDbEntity
  8
BLACK
  6
Continuous
100
AcDbLine
 10
207.732364
 20
2.320125
 30
0.0
 11
194.429543
 21
-0.5074759999999999
 31
0.0
  0
ARC
  5
6BE
330
1D
100
AcDbEntity
  8
BLACK
100
AcDbCircle
 10
194.533509
 20
-0.9965999999999999
 30
0.0
 40
0.5000308193101701
100
AcDbArc
 50
101.99999417
 51
191.99997035
  0
LINE
  5
6BF
330
1D
100
AcDbEntity
  8
BLACK
  6
Continuous
100
AcDbLine
 10
194.044404
 20
-1.100562
 30
0.0
 11
196.747246
 21
-13.816432
 31
0.0
  0
CIRCLE
  5
6C0
330
1D
100
AcDbEntity
  8
BLACK
100
AcDbCircle
 10
209.753289
 20
-62.830337
 30
0.0
 40
1.000001
  0
CIRCLE
  5
6C1
330
1D
100
AcDbEntity
  8
BLACK
100
AcDbCircle
 10
32.545048
 20
-2.139999
 30
0.0
 40
1.0
  0
ARC
  5
6C2
330
1D
100
AcDbEntity
  8
BLACK
100
AcDbCircle
 10
29.820009
 20
-8.639999999999999
 30
0.0
 40
0.499999
100
AcDbArc
 50
270.0
 51
0.0
  0
LINE
  5
6C3
330
1D
100
AcDbEntity
  8
BLACK
  6
Continuous
100
AcDbLine
 10
30.320008
 20
-8.639999999999999
 30
0.0
 11
30.320008
 21
4.359999999999999
 31
0.0
  0
ARC
  5
6C4
330
1D
100
AcDbEntity
  8
BLACK
100
AcDbCircle
 10
29.820009
 20
4.359999999999999
 30
0.0
 40
0.500001
100
AcDbArc
 50
0.0
 51
90.0
  0
LINE
  5
6C5
330
1D
100
AcDbEntity
  8
BLACK
  6
Continuous
100
AcDbLine
 10
29.820009
 20
4.860001
 30
0.0
 11
16.220009
 21
4.860001
 31
0.0
  0
ARC
  5
6C6
330
1D
100
AcDbEntity
  8
BLACK
100
AcDbCircle
 10
16.220009
 20
4.359999999999999
 30
0.0
 40
0.500001
100
AcDbArc
 50
90.0
 51
180.0
  0
LINE
  5
6C7
330
1D
100
AcDbEntity
  8
BLACK
  6
Continuous
100
AcDbLine
 10
15.720008
 20
4.359999999999999
 30
0.0
 11
15.720008
 21
-8.639999999999999
 31
0.0
  0
ARC
  5
6C8
330
1D
100
AcDbEntity
  8
BLACK
100
AcDbCircle
 10
16.220009
 20
-8.639999999999999
 30
0.0
 40
0.499999
100
AcDbArc
 50
180.0
 51
270.0
  0
LINE
  5
6C9
330
1D
100
AcDbEntity
  8
BLACK
  6
Continuous
100
AcDbLine
 10
16.220009
 20
-9.139999
 30
0.0
 11
29.820009
 21
-9.139999
 31
0.0
  0
ARC
  5
6CA
330
1D
100
AcDbEntity
  8
BLACK
100
AcDbCircle
 10
35.270009
 20
4.359999999999999
 30
0.0
 40
0.500001
100
AcDbArc
 50
90.0
 51
180.0
  0
LINE
  5
6CB
330
1D
100
AcDbEntity
  8
BLACK
  6
Continuous
100
AcDbLine
 10
34.770008
 20
4.359999999999999
 30
0.0
 11
34.770008
 21
-8.639999999999999
 31
0.0
  0
ARC
  5
6CC
330
1D
100
AcDbEntity
  8
BLACK
100
AcDbCircle
 10
35.270009
 20
-8.639999999999999
 30
0.0
 40
0.499999
100
AcDbArc
 50
180.0
 51
270.0
  0
LINE
  5
6CD
330
1D
100
AcDbEntity
  8
BLACK
  6
Continuous
100
AcDbLine
 10
35.270009
 20
-9.139999
 30
0.0
 11
48.870009
 21
-9.139999
 31
0.0
  0
ARC
  5
6CE
330
1D
100
AcDbEntity
  8
BLACK
100
AcDbCircle
 10
48.870009
 20
-8.639999999999999
 30
0.0
 40
0.499999
100
AcDbArc
 50
270.0
 51
0.0
  0
LINE
  5
6CF
330
1D
100
AcDbEntity
  8
BLACK
  6
Continuous
100
AcDbLine
 10
49.370008
 20
-8.639999999999999
 30
0.0
 11
49.370008
 21
4.359999999999999
 31
0.0
  0
ARC
  5
6D0
330
1D
100
AcDbEntity
  8
BLACK
100
AcDbCircle
 10
48.870009
 20
4.359999999999999
 30
0.0
 40
0.500001
100
AcDbArc
 50
0.0
 51
90.0
  0
LINE
  5
6D1
330
1D
100
AcDbEntity
  8
BLACK
  6
Continuous
100
AcDbLine
 10
48.870009
 20
4.860001
 30
0.0
 11
35.270009
 21
4.860001
 31
0.0
  0
CIRCLE
  5
6D2
330
1D
100
AcDbEntity
  8
BLACK
100
AcDbCircle
 10
90.52690199999999
 20
-5.940363
 30
0.0
 40
0.999999
  0
LINE
  5
6D3
330
1D
100
AcDbEntity
  8
BLACK
  6
Continuous
100
AcDbLine
 10
195.793254
 20
-99.792733
 30
0.0
 11
167.039793
 21
-105.904477
 31
0.0
  0
ARC
  5
6D4
330
1D
100
AcDbEntity
  8
BLACK
100
AcDbCircle
 10
166.357809
 20
-102.696
 30
0.0
 40
3.280156526110454
100
AcDbArc
 50
269.99825326
 51
282.00001983
  0
LINE
  5
6D5
330
1D
100
AcDbEntity
  8
BLACK
  6
Continuous
100
AcDbLine
 10
166.357709
 20
-105.976166
 30
0.0
 11
135.922309
 21
-105.976167
 31
0.0
  0
ARC
  5
6D6
330
1D
100
AcDbEntity
  8
BLACK
100
AcDbCircle
 10
135.922309
 20
-102.6949
 30
0.0
 40
3.281267
100
AcDbArc
 50
258.00108972
 51
270.0
  0
LINE
  5
6D7
330
1D
100
AcDbEntity
  8
BLACK
  6
Continuous
100
AcDbLine
 10
135.240157
 20
-105.904473
 30
0.0
 11
106.486759
 21
-99.792752
 31
0.0
  0
ARC
  5
6D8
330
1D
100
AcDbEntity
  8
BLACK
100
AcDbCircle
 10
106.382809
 20
-100.2818
 30
0.0
 40
0.499964536864366
100
AcDbArc
 50
78.00016235
 51
167.99993816
  0
LINE
  5
6D9
330
1D
100
AcDbEntity
  8
BLACK
  6
Continuous
100
AcDbLine
 10
105.893769
 20
-100.177851
 30
0.0
 11
105.685851
 21
-101.156026
 31
0.0
  0
ARC
  5
6DA
330
1D
100
AcDbEntity
  8
BLACK
100
AcDbCircle
 10
106.175009
 20
-101.26
 30
0.0
 40
0.500088090516061
100
AcDbArc
 50
167.99997115
 51
258.00001879
  0
LINE
  5
6DB
330
1D
100
AcDbEntity
  8
BLACK
  6
Continuous
100
AcDbLine
 10
106.071035
 20
-101.74916
 30
0.0
 11
134.824456
 21
-107.860868
 31
0.0
  0
ARC
  5
6DC
330
1D
100
AcDbEntity
  8
BLACK
100
AcDbCircle
 10
135.922109
 20
-102.6964
 30
0.0
 40
5.279833000000852
100
AcDbArc
 50
258.0009400499999
 51
270.00003256
  0
LINE
  5
6DD
330
1D
100
AcDbEntity
  8
BLACK
  6
Continuous
100
AcDbLine
 10
135.922112
 20
-107.976233
 30
0.0
 11
166.37071
 21
-107.976218
 31
0.0
  0
ARC
  5
6DE
330
1D
100
AcDbEntity
  8
BLACK
100
AcDbCircle
 10
166.357709
 20
-102.6962
 30
0.0
 40
5.280034898029084
100
AcDbArc
 50
270.14107924
 51
282.0002331600001
  0
LINE
  5
6DF
330
1D
100
AcDbEntity
  8
BLACK
  6
Continuous
100
AcDbLine
 10
167.455511
 20
-107.86085
 30
0.0
 11
196.212236
 21
-101.748419
 31
0.0
  0
ARC
  5
6E0
330
1D
100
AcDbEntity
  8
BLACK
100
AcDbCircle
 10
196.105209
 20
-101.2601
 30
0.0
 40
0.4999111782486965
100
AcDbArc
 50
282.36228844
 51
11.99995567
  0
LINE
  5
6E1
330
1D
100
AcDbEntity
  8
BLACK
  6
Continuous
100
AcDbLine
 10
196.594196
 20
-101.156163
 30
0.0
 11
196.38517
 21
-100.172769
 31
0.0
  0
ARC
  5
6E2
330
1D
100
AcDbEntity
  8
BLACK
100
AcDbCircle
 10
195.897209
 20
-100.2818
 30
0.0
 40
0.4999931724673848
100
AcDbArc
 50
12.59539179
 51
102.00006726
  0
ARC
  5
6E3
330
1D
100
AcDbEntity
  8
BLACK
100
AcDbCircle
 10
199.809909
 20
-99.45009999999999
 30
0.0
 40
0.4998741789390606
100
AcDbArc
 50
12.6063108
 51
101.99874784
  0
LINE
  5
6E4
330
1D
100
AcDbEntity
  8
BLACK
  6
Continuous
100
AcDbLine
 10
199.70599
 20
-98.961147
 30
0.0
 11
197.749526
 21
-99.37696299999999
 31
0.0
  0
ARC
  5
6E5
330
1D
100
AcDbEntity
  8
BLACK
100
AcDbCircle
 10
197.853409
 20
-99.866
 30
0.0
 40
0.4999359012613517
100
AcDbArc
 50
101.99277252
 51
192.00005641
  0
LINE
  5
6E6
330
1D
100
AcDbEntity
  8
BLACK
  6
Continuous
100
AcDbLine
 10
197.364397
 20
-99.969943
 30
0.0
 11
197.780226
 21
-101.926258
 31
0.0
  0
ARC
  5
6E7
330
1D
100
AcDbEntity
  8
BLACK
100
AcDbCircle
 10
198.269309
 20
-101.8223
 30
0.0
 40
0.5000021837072314
100
AcDbArc
 50
191.99990048
 51
281.99996492
  0
LINE
  5
6E8
330
1D
100
AcDbEntity
  8
BLACK
  6
Continuous
100
AcDbLine
 10
198.373265
 20
-102.311376
 30
0.0
 11
200.332653
 21
-101.894896
 31
0.0
  0
ARC
  5
6E9
330
1D
100
AcDbEntity
  8
BLACK
100
AcDbCircle
 10
200.225609
 20
-101.4065
 30
0.0
 40
0.4999900301126013
100
AcDbArc
 50
282.36230228
 51
12.00002665
  0
LINE
  5
6EA
330
1D
100
AcDbEntity
  8
BLACK
  6
Continuous
100
AcDbLine
 10
200.714673
 20
-101.302546
 30
0.0
 11
200.297733
 21
-99.34100199999999
 31
0.0
  0
ARC
  5
6EB
330
1D
100
AcDbEntity
  8
BLACK
100
AcDbCircle
 10
162.297909
 20
-62.6957
 30
0.0
 40
50.00046604479062
100
AcDbArc
 50
269.99987739
 51
282.00005455
  0
LINE
  5
6EC
330
1D
100
AcDbEntity
  8
BLACK
  6
Continuous
100
AcDbLine
 10
172.693637
 20
-111.603526
 30
0.0
 11
241.573891
 21
-96.962576
 31
0.0
  0
ARC
  5
6ED
330
1D
100
AcDbEntity
  8
BLACK
100
AcDbCircle
 10
251.969209
 20
-145.8687
 30
0.0
 40
49.99871599375827
100
AcDbArc
 50
89.96770381999998
 51
102.00000049
  0
LINE
  5
6EE
330
1D
100
AcDbEntity
  8
BLACK
  6
Continuous
100
AcDbLine
 10
251.997392
 20
-95.86999999999999
 30
0.0
 11
319.038759
 21
-95.86999999999999
 31
0.0
  0
LINE
  5
6EF
330
1D
100
AcDbEntity
  8
BLACK
  6
Continuous
100
AcDbLine
 10
319.038759
 20
-95.86999999999999
 30
0.0
 11
319.038759
 21
-91.16799999999999
 31
0.0
  0
LINE
  5
6F0
330
1D
100
AcDbEntity
  8
BLACK
  6
Continuous
100
AcDbLine
 10
319.038759
 20
-91.16799999999999
 30
0.0
 11
315.138759
 21
-91.16799999999999
 31
0.0
  0
LINE
  5
6F1
330
1D
100
AcDbEntity
  8
BLACK
  6
Continuous
100
AcDbLine
 10
315.138759
 20
-91.16799999999999
 30
0.0
 11
315.138759
 21
-91.36999999999999
 31
0.0
  0
ARC
  5
6F2
330
1D
100
AcDbEntity
  8
BLACK
100
AcDbCircle
 10
313.538709
 20
-91.36999999999999
 30
0.0
 40
1.60005
100
AcDbArc
 50
179.35943986
 51
0.0
  0
LINE
  5
6F3
330
1D
100
AcDbEntity
  8
BLACK
  6
Continuous
100
AcDbLine
 10
311.938759
 20
-91.35211199999999
 30
0.0
 11
311.938759
 21
-91.167993
 31
0.0
  0
LINE
  5
6F4
330
1D
100
AcDbEntity
  8
BLACK
  6
Continuous
100
AcDbLine
 10
311.938759
 20
-91.167993
 30
0.0
 11
306.186509
 21
-91.167994
 31
0.0
  0
ARC
  5
6F5
330
1D
100
AcDbEntity
  8
BLACK
100
AcDbCircle
 10
306.186509
 20
-90.6681
 30
0.0
 40
0.499894
100
AcDbArc
 50
179.98853837
 51
270.0
  0
LINE
  5
6F6
330
1D
100
AcDbEntity
  8
BLACK
  6
Continuous
100
AcDbLine
 10
305.686537
 20
-90.66799999999999
 30
0.0
 11
305.686537
 21
-89.66799999999999
 31
0.0
  0
ARC
  5
6F7
330
1D
100
AcDbEntity
  8
BLACK
100
AcDbCircle
 10
306.186609
 20
-89.66799999999999
 30
0.0
 40
0.500072
100
AcDbArc
 50
89.00773036000001
 51
180.0
  0
LINE
  5
6F8
330
1D
100
AcDbEntity
  8
BLACK
  6
Continuous
100
AcDbLine
 10
306.195269
 20
-89.168003
 30
0.0
 11
319.026868
 21
-89.16799999999999
 31
0.0
  0
ARC
  5
6F9
330
1D
100
AcDbEntity
  8
BLACK
100
AcDbCircle
 10
319.038609
 20
-86.8699
 30
0.0
 40
2.298131
100
AcDbArc
 50
269.70727823
 51
0.0
  0
LINE
  5
6FA
330
1D
100
AcDbEntity
  8
BLACK
  6
Continuous
100
AcDbLine
 10
321.33674
 20
-86.8699
 30
0.0
 11
321.336759
 21
8.53
 31
0.0
  0
ARC
  5
6FB
330
1D
100
AcDbEntity
  8
BLACK
100
AcDbCircle
 10
319.038809
 20
8.5301
 30
0.0
 40
2.297884
100
AcDbArc
 50
359.99750658
 51
90.0
  0
LINE
  5
6FC
330
1D
100
AcDbEntity
  8
BLACK
  6
Continuous
100
AcDbLine
 10
319.038809
 20
10.827984
 30
0.0
 11
305.978909
 21
10.827985
 31
0.0
  0
ARC
  5
6FD
330
1D
100
AcDbEntity
  8
BLACK
100
AcDbCircle
 10
305.978909
 20
11.3281
 30
0.0
 40
0.500115
100
AcDbArc
 50
180.00217675
 51
270.0
  0
LINE
  5
6FE
330
1D
100
AcDbEntity
  8
BLACK
  6
Continuous
100
AcDbLine
 10
305.478796
 20
11.328081
 30
0.0
 11
305.478759
 21
12.280081
 31
0.0
  0
ARC
  5
6FF
330
1D
100
AcDbEntity
  8
BLACK
100
AcDbCircle
 10
305.978709
 20
12.2801
 30
0.0
 40
0.4999500003610361
100
AcDbArc
 50
89.99426985000002
 51
180.00217746
  0
LINE
  5
700
330
1D
100
AcDbEntity
  8
BLACK
  6
Continuous
100
AcDbLine
 10
305.978759
 20
12.780081
 30
0.0
 11
311.938759
 21
12.78
 31
0.0
  0
LINE
  5
701
330
1D
100
AcDbEntity
  8
BLACK
  6
Continuous
100
AcDbLine
 10
311.938759
 20
12.78
 30
0.0
 11
311.938759
 21
13.03
 31
0.0
  0
ARC
  5
702
330
1D
100
AcDbEntity
  8
BLACK
100
AcDbCircle
 10
313.538759
 20
13.03
 30
0.0
 40
1.6
100
AcDbArc
 50
0.0
 51
180.0
  0
LINE
  5
703
330
1D
100
AcDbEntity
  8
BLACK
  6
Continuous
100
AcDbLine
 10
315.138759
 20
13.03
 30
0.0
 11
315.138759
 21
12.78
 31
0.0
  0
LINE
  5
704
330
1D
100
AcDbEntity
  8
BLACK
  6
Continuous
100
AcDbLine
 10
315.138759
 20
12.78
 30
0.0
 11
319.038759
 21
12.78
 31
0.0
  0
LINE
  5
705
330
1D
100
AcDbEntity
  8
BLACK
  6
Continuous
100
AcDbLine
 10
319.038759
 20
12.78
 30
0.0
 11
319.038759
 21
17.53
 31
0.0
  0
LINE
  5
706
330
1D
100
AcDbEntity
  8
BLACK
  6
Continuous
100
AcDbLine
 10
319.038759
 20
17.53
 30
0.0
 11
-16.758741
 21
17.53
 31
0.0
  0
LINE
  5
707
330
1D
100
AcDbEntity
  8
BLACK
  6
Continuous
100
AcDbLine
 10
-16.758741
 20
17.53
 30
0.0
 11
-16.758741
 21
12.78
 31
0.0
  0
LINE
  5
708
330
1D
100
AcDbEntity
  8
BLACK
  6
Continuous
100
AcDbLine
 10
-16.758741
 20
12.78
 30
0.0
 11
-12.858741
 21
12.78
 31
0.0
  0
LINE
  5
709
330
1D
100
AcDbEntity
  8
BLACK
  6
Continuous
100
AcDbLine
 10
-12.858741
 20
12.78
 30
0.0
 11
-12.858741
 21
13.03
 31
0.0
  0
ARC
  5
70A
330
1D
100
AcDbEntity
  8
BLACK
100
AcDbCircle
 10
-11.258741
 20
13.03
 30
0.0
 40
1.6
100
AcDbArc
 50
0.0
 51
180.0
  0
LINE
  5
70B
330
1D
100
AcDbEntity
  8
BLACK
  6
Continuous
100
AcDbLine
 10
-9.658741
 20
13.03
 30
0.0
 11
-9.658741
 21
12.779997
 31
0.0
  0
LINE
  5
70C
330
1D
100
AcDbEntity
  8
BLACK
  6
Continuous
100
AcDbLine
 10
-9.658741
 20
12.779997
 30
0.0
 11
-3.200066
 21
12.779997
 31
0.0
  0
ARC
  5
70D
330
1D
100
AcDbEntity
  8
BLACK
100
AcDbCircle
 10
-3.200065
 20
12.279968
 30
0.0
 40
0.5000290000009999
100
AcDbArc
 50
0.00080209
 51
90.00011458
  0
LINE
  5
70E
330
1D
100
AcDbEntity
  8
BLACK
  6
Continuous
100
AcDbLine
 10
-2.700036
 20
12.279975
 30
0.0
 11
-2.700022
 21
11.279983
 31
0.0
  0
ARC
  5
70F
330
1D
100
AcDbEntity
  8
BLACK
100
AcDbCircle
 10
-3.199994
 20
11.279976
 30
0.0
 40
0.4999720000490027
100
AcDbArc
 50
270.0
 51
0.00080219
  0
LINE
  5
710
330
1D
100
AcDbEntity
  8
BLACK
  6
Continuous
100
AcDbLine
 10
-3.199994
 20
10.780004
 30
0.0
 11
-16.758743
 21
10.780003
 31
0.0
  0
ARC
  5
711
330
1D
100
AcDbEntity
  8
BLACK
100
AcDbCircle
 10
-16.758743
 20
8.530006
 30
0.0
 40
2.249997
100
AcDbArc
 50
90.0
 51
180.0
  0
LINE
  5
712
330
1D
100
AcDbEntity
  8
BLACK
  6
Continuous
100
AcDbLine
 10
-19.00874
 20
8.530006
 30
0.0
 11
-19.008741
 21
-72.86999999999999
 31
0.0
  0
LINE
  5
713
330
1D
100
AcDbEntity
  8
BLACK
  6
Continuous
100
AcDbLine
 10
-19.008741
 20
-72.86999999999999
 30
0.0
 11
-13.260031
 21
-72.86999999999999
 31
0.0
  0
ARC
  5
714
330
1D
100
AcDbEntity
  8
BLACK
100
AcDbCircle
 10
-13.260031
 20
-73.370027
 30
0.0
 40
0.500027
100
AcDbArc
 50
0.0
 51
90.0
  0
LINE
  5
715
330
1D
100
AcDbEntity
  8
BLACK
  6
Continuous
100
AcDbLine
 10
-12.760004
 20
-73.370027
 30
0.0
 11
-12.759991
 21
-89.11999999999999
 31
0.0
  0
LINE
  5
716
330
1D
100
AcDbEntity
  8
BLACK
  6
Continuous
100
AcDbLine
 10
-12.759991
 20
-89.11999999999999
 30
0.0
 11
-3.000064
 21
-89.11999899999999
 31
0.0
  0
ARC
  5
717
330
1D
100
AcDbEntity
  8
BLACK
100
AcDbCircle
 10
-3.000064
 20
-89.620029
 30
0.0
 40
0.50003
100
AcDbArc
 50
0.00068751
 51
90.0
  0
LINE
  5
718
330
1D
100
AcDbEntity
  8
BLACK
  6
Continuous
100
AcDbLine
 10
-2.500034
 20
-89.62002299999999
 30
0.0
 11
-2.500022
 21
-90.62002299999999
 31
0.0
  0
ARC
  5
719
330
1D
100
AcDbEntity
  8
BLACK
100
AcDbCircle
 10
-2.999994
 20
-90.620029
 30
0.0
 40
0.499972000036002
100
AcDbArc
 50
270.0
 51
0.00068759
  0
LINE
  5
71A
330
1D
100
AcDbEntity
  8
BLACK
  6
Continuous
100
AcDbLine
 10
-2.999994
 20
-91.120001
 30
0.0
 11
-9.658741
 21
-91.120001
 31
0.0
  0
LINE
  5
71B
330
1D
100
AcDbEntity
  8
BLACK
  6
Continuous
100
AcDbLine
 10
-9.658741
 20
-91.120001
 30
0.0
 11
-9.658741
 21
-91.36999999999999
 31
0.0
  0
ARC
  5
71C
330
1D
100
AcDbEntity
  8
BLACK
100
AcDbCircle
 10
-11.258741
 20
-91.36999999999999
 30
0.0
 40
1.6
100
AcDbArc
 50
180.0
 51
0.0
  0
LINE
  5
71D
330
1D
100
AcDbEntity
  8
BLACK
  6
Continuous
100
AcDbLine
 10
-12.858741
 20
-91.36999999999999
 30
0.0
 11
-12.858741
 21
-91.11999999999999
 31
0.0
  0
LINE
  5
71E
330
1D
100
AcDbEntity
  8
BLACK
  6
Continuous
100
AcDbLine
 10
-12.858741
 20
-91.11999999999999
 30
0.0
 11
-16.758741
 21
-91.11999999999999
 31
0.0
  0
LINE
  5
71F
330
1D
100
AcDbEntity
  8
BLACK
  6
Continuous
100
AcDbLine
 10
-16.758741
 20
-91.11999999999999
 30
0.0
 11
-16.758741
 21
-95.86999999999999
 31
0.0
  0
LINE
  5
720
330
1D
100
AcDbEntity
  8
BLACK
  6
Continuous
100
AcDbLine
 10
-16.758741
 20
-95.86999999999999
 30
0.0
 11
50.310709
 21
-95.86999999999999
 31
0.0
  0
ARC
  5
721
330
1D
100
AcDbEntity
  8
BLACK
100
AcDbCircle
 10
50.310709
 20
-145.8698
 30
0.0
 40
49.9998
100
AcDbArc
 50
77.99991268999999
 51
90.0
  0
LINE
  5
722
330
1D
100
AcDbEntity
  8
BLACK
  6
Continuous
100
AcDbLine
 10
60.706329
 20
-96.96262
 30
0.0
 11
129.586358
 21
-111.603532
 31
0.0
  0
ARC
  5
723
330
1D
100
AcDbEntity
  8
BLACK
100
AcDbCircle
 10
139.982109
 20
-62.69589999999999
 30
0.0
 40
50.00027500000049
100
AcDbArc
 50
257.99987345
 51
269.99999198
  0
LINE
  5
724
330
1D
100
AcDbEntity
  8
BLACK
  6
Continuous
100
AcDbLine
 10
139.982102
 20
-112.696175
 30
0.0
 11
162.297802
 21
-112.696178
 31
0.0
  0
LINE
  5
725
330
1D
100
AcDbEntity
  8
BLACK
  6
Continuous
100
AcDbLine
 10
227.972909
 20
12.78
 30
0.0
 11
299.578709
 21
12.78
 31
0.0
  0
ARC
  5
726
330
1D
100
AcDbEntity
  8
BLACK
100
AcDbCircle
 10
299.578709
 20
12.2799
 30
0.0
 40
0.5001
100
AcDbArc
 50
359.60095349
 51
90.0
  0
LINE
  5
727
330
1D
100
AcDbEntity
  8
BLACK
  6
Continuous
100
AcDbLine
 10
300.078796
 20
12.276417
 30
0.0
 11
300.078759
 21
11.280081
 31
0.0
  0
ARC
  5
728
330
1D
100
AcDbEntity
  8
BLACK
100
AcDbCircle
 10
299.578609
 20
11.2801
 30
0.0
 40
0.5001500003608917
100
AcDbArc
 50
269.37255645
 51
359.99782341
  0
LINE
  5
729
330
1D
100
AcDbEntity
  8
BLACK
  6
Continuous
100
AcDbLine
 10
299.573132
 20
10.779981
 30
0.0
 11
228.183209
 21
10.780011
 31
0.0
  0
ARC
  5
72A
330
1D
100
AcDbEntity
  8
BLACK
100
AcDbCircle
 10
228.183209
 20
10.2811
 30
0.0
 40
0.4989093479681453
100
AcDbArc
 50
90.0
 51
101.99998989
  0
LINE
  5
72B
330
1D
100
AcDbEntity
  8
BLACK
  6
Continuous
100
AcDbLine
 10
228.07948
 20
10.769107
 30
0.0
 11
194.499076
 21
3.631372
 31
0.0
  0
ARC
  5
72C
330
1D
100
AcDbEntity
  8
BLACK
100
AcDbCircle
 10
194.395109
 20
4.1205
 30
0.0
 40
0.500055334411103
100
AcDbArc
 50
192.00735324
 51
281.99995899
  0
LINE
  5
72D
330
1D
100
AcDbEntity
  8
BLACK
  6
Continuous
100
AcDbLine
 10
193.905968
 20
4.016464
 30
0.0
 11
193.697928
 21
4.994598
 31
0.0
  0
ARC
  5
72E
330
1D
100
AcDbEntity
  8
BLACK
100
AcDbCircle
 10
194.186909
 20
5.098599999999999
 30
0.0
 40
0.4999178496553208
100
AcDbArc
 50
101.98090585
 51
192.00740935
  0
LINE
  5
72F
330
1D
100
AcDbEntity
  8
BLACK
  6
Continuous
100
AcDbLine
 10
194.08313
 20
5.587641
 30
0.0
 11
227.873111
 21
12.769904
 31
0.0
  0
ARC
  5
730
330
1D
100
AcDbEntity
  8
BLACK
100
AcDbCircle
 10
227.972909
 20
12.2821
 30
0.0
 40
0.4979080067843858
100
AcDbArc
 50
90.0
 51
101.56237532
  0
LINE
  5
731
330
1D
100
AcDbEntity
  8
BLACK
  6
Continuous
100
AcDbLine
 10
191.681887
 20
6.30405
 30
0.0
 11
189.725427
 21
5.888135999999999
 31
0.0
  0
ARC
  5
732
330
1D
100
AcDbEntity
  8
BLACK
100
AcDbCircle
 10
189.829309
 20
5.3991
 30
0.0
 40
0.4999348381219296
100
AcDbArc
 50
101.99257212
 51
192.00113681
  0
LINE
  5
733
330
1D
100
AcDbEntity
  8
BLACK
  6
Continuous
100
AcDbLine
 10
189.340301
 20
5.295148
 30
0.0
 11
189.797734
 21
3.143312
 31
0.0
  0
ARC
  5
734
330
1D
100
AcDbEntity
  8
BLACK
100
AcDbCircle
 10
190.286909
 20
3.2473
 30
0.0
 40
0.5000791031396933
100
AcDbArc
 50
192.00102773
 51
281.99844309
  0
LINE
  5
735
330
1D
100
AcDbEntity
  8
BLACK
  6
Continuous
100
AcDbLine
 10
190.390868
 20
2.758146
 30
0.0
 11
192.349897
 21
3.174496
 31
0.0
  0
ARC
  5
736
330
1D
100
AcDbEntity
  8
BLACK
100
AcDbCircle
 10
192.243009
 20
3.663
 30
0.0
 40
0.5000635754151666
100
AcDbArc
 50
282.34219336
 51
11.99999256
  0
LINE
  5
737
330
1D
100
AcDbEntity
  8
BLACK
  6
Continuous
100
AcDbLine
 10
192.732146
 20
3.766969
 30
0.0
 11
192.274741
 21
5.918895
 31
0.0
  0
ARC
  5
738
330
1D
100
AcDbEntity
  8
BLACK
100
AcDbCircle
 10
191.785809
 20
5.8152
 30
0.0
 40
0.4997740535321937
100
AcDbArc
 50
11.97410698
 51
102.00153908
  0
LINE
  5
739
330
1D
100
AcDbEntity
  8
BLACK
  6
Continuous
100
AcDbLine
 10
106.877666
 20
3.907181
 30
0.0
 11
65.185738
 21
12.769074
 31
0.0
  0
ARC
  5
73A
330
1D
100
AcDbEntity
  8
BLACK
100
AcDbCircle
 10
65.081909
 20
12.2814
 30
0.0
 40
0.4985950000010028
100
AcDbArc
 50
77.98082351
 51
90.00011490999998
  0
LINE
  5
73B
330
1D
100
AcDbEntity
  8
BLACK
  6
Continuous
100
AcDbLine
 10
65.081908
 20
12.779995
 30
0.0
 11
3.199968
 21
12.779931
 31
0.0
  0
ARC
  5
73C
330
1D
100
AcDbEntity
  8
BLACK
100
AcDbCircle
 10
3.199969
 20
12.27997
 30
0.0
 40
0.4999600000360029
100
AcDbArc
 50
90.00011459999999
 51
179.9993124
  0
LINE
  5
73D
330
1D
100
AcDbEntity
  8
BLACK
  6
Continuous
100
AcDbLine
 10
2.700009
 20
12.279976
 30
0.0
 11
2.699996
 21
11.279976
 31
0.0
  0
ARC
  5
73E
330
1D
100
AcDbEntity
  8
BLACK
100
AcDbCircle
 10
3.199969
 20
11.27998
 30
0.0
 40
0.49998
100
AcDbArc
 50
180.00045839
 51
270.0
  0
LINE
  5
73F
330
1D
100
AcDbEntity
  8
BLACK
  6
Continuous
100
AcDbLine
 10
3.199969
 20
10.78
 30
0.0
 11
64.924125
 21
10.78
 31
0.0
  0
LINE
  5
740
330
1D
100
AcDbEntity
  8
BLACK
  6
Continuous
100
AcDbLine
 10
64.924125
 20
10.78
 30
0.0
 11
106.465762
 21
1.950053
 31
0.0
  0
ARC
  5
741
330
1D
100
AcDbEntity
  8
BLACK
100
AcDbCircle
 10
106.565709
 20
2.4401
 30
0.0
 40
0.5001370593367381
100
AcDbArc
 50
258.47240508
 51
348.00062561
  0
LINE
  5
742
330
1D
100
AcDbEntity
  8
BLACK
  6
Continuous
100
AcDbLine
 10
107.054918
 20
2.336121
 30
0.0
 11
107.262793
 21
3.314148
 31
0.0
  0
ARC
  5
743
330
1D
100
AcDbEntity
  8
BLACK
100
AcDbCircle
 10
106.773709
 20
3.4181
 30
0.0
 40
0.5000072823569672
100
AcDbArc
 50
348.0006740200001
 51
78.00004211
  0
LINE
  5
744
330
1D
100
AcDbEntity
  8
BLACK
  6
Continuous
100
AcDbLine
 10
100.61797
 20
-98.54530199999999
 30
0.0
 11
56.326828
 21
-89.130928
 31
0.0
  0
ARC
  5
745
330
1D
100
AcDbEntity
  8
BLACK
100
AcDbCircle
 10
56.222809
 20
-89.6198
 30
0.0
 40
0.4998000000010004
100
AcDbArc
 50
77.98808742
 51
90.00011464
  0
LINE
  5
746
330
1D
100
AcDbEntity
  8
BLACK
  6
Continuous
100
AcDbLine
 10
56.222808
 20
-89.11999999999999
 30
0.0
 11
2.999968
 21
-89.120069
 31
0.0
  0
ARC
  5
747
330
1D
100
AcDbEntity
  8
BLACK
100
AcDbCircle
 10
2.999969
 20
-89.62003
 30
0.0
 40
0.49996
100
AcDbArc
 50
90.00011459999999
 51
180.0
  0
LINE
  5
748
330
1D
100
AcDbEntity
  8
BLACK
  6
Continuous
100
AcDbLine
 10
2.500009
 20
-89.62003
 30
0.0
 11
2.500009
 21
-90.62003999999999
 31
0.0
  0
ARC
  5
749
330
1D
100
AcDbEntity
  8
BLACK
100
AcDbCircle
 10
2.999969
 20
-90.62003999999999
 30
0.0
 40
0.49996
100
AcDbArc
 50
180.0
 51
270.0
  0
LINE
  5
74A
330
1D
100
AcDbEntity
  8
BLACK
  6
Continuous
100
AcDbLine
 10
2.999969
 20
-91.11999999999999
 30
0.0
 11
56.012609
 21
-91.11999899999999
 31
0.0
  0
ARC
  5
74B
330
1D
100
AcDbEntity
  8
BLACK
100
AcDbCircle
 10
56.012609
 20
-91.61999999999999
 30
0.0
 40
0.500001
100
AcDbArc
 50
77.99549692
 51
90.0
  0
LINE
  5
74C
330
1D
100
AcDbEntity
  8
BLACK
  6
Continuous
100
AcDbLine
 10
56.116605
 20
-91.130926
 30
0.0
 11
77.532192
 21
-95.68294999999999
 31
0.0
  0
LINE
  5
74D
330
1D
100
AcDbEntity
  8
BLACK
  6
Continuous
100
AcDbLine
 10
77.532192
 20
-95.68294999999999
 30
0.0
 11
77.48024199999999
 21
-95.927492
 31
0.0
  0
ARC
  5
74E
330
1D
100
AcDbEntity
  8
BLACK
100
AcDbCircle
 10
79.045309
 20
-96.2601
 30
0.0
 40
1.599951435741098
100
AcDbArc
 50
168.00200473
 51
348.00005888
  0
LINE
  5
74F
330
1D
100
AcDbEntity
  8
BLACK
  6
Continuous
100
AcDbLine
 10
80.610298
 20
-96.59274699999999
 30
0.0
 11
80.662264
 21
-96.34826699999999
 31
0.0
  0
LINE
  5
750
330
1D
100
AcDbEntity
  8
BLACK
  6
Continuous
100
AcDbLine
 10
80.662264
 20
-96.34826699999999
 30
0.0
 11
100.202037
 21
-100.501553
 31
0.0
  0
ARC
  5
751
330
1D
100
AcDbEntity
  8
BLACK
100
AcDbCircle
 10
100.306009
 20
-100.0125
 30
0.0
 40
0.5000321442187492
100
AcDbArc
 50
257.99771657
 51
347.99490753
  0
LINE
  5
752
330
1D
100
AcDbEntity
  8
BLACK
  6
Continuous
100
AcDbLine
 10
100.795105
 20
-100.116506
 30
0.0
 11
101.003098
 21
-99.13840499999999
 31
0.0
  0
ARC
  5
753
330
1D
100
AcDbEntity
  8
BLACK
100
AcDbCircle
 10
100.514009
 20
-99.03439999999999
 30
0.0
 40
0.500023764365255
100
AcDbArc
 50
347.99480511
 51
77.99997497
  0
LINE
  5
754
330
1D
100
AcDbEntity
  8
BLACK
  6
Continuous
100
AcDbLine
 10
224.797149
 20
-95.91499499999999
 30
0.0
 11
224.747826
 21
-95.68294999999999
 31
0.0
  0
LINE
  5
755
330
1D
100
AcDbEntity
  8
BLACK
  6
Continuous
100
AcDbLine
 10
224.747826
 20
-95.68294999999999
 30
0.0
 11
245.937644
 21
-91.17891399999999
 31
0.0
  0
ARC
  5
756
330
1D
100
AcDbEntity
  8
BLACK
100
AcDbCircle
 10
246.041709
 20
-91.66839999999999
 30
0.0
 40
0.5004249089024246
100
AcDbArc
 50
89.6201023
 51
102.00243599
  0
LINE
  5
757
330
1D
100
AcDbEntity
  8
BLACK
  6
Continuous
100
AcDbLine
 10
246.045027
 20
-91.16798999999999
 30
0.0
 11
299.784086
 21
-91.168019
 31
0.0
  0
ARC
  5
758
330
1D
100
AcDbEntity
  8
BLACK
100
AcDbCircle
 10
299.778609
 20
-90.66789999999999
 30
0.0
 40
0.5001500003239028
100
AcDbArc
 50
270.62744355
 51
359.99793797
  0
LINE
  5
759
330
1D
100
AcDbEntity
  8
BLACK
  6
Continuous
100
AcDbLine
 10
300.278759
 20
-90.667918
 30
0.0
 11
300.278796
 21
-89.664513
 31
0.0
  0
ARC
  5
75A
330
1D
100
AcDbEntity
  8
BLACK
100
AcDbCircle
 10
299.778709
 20
-89.6681
 30
0.0
 40
0.5001
100
AcDbArc
 50
0.4109613699999999
 51
90.0
  0
LINE
  5
75B
330
1D
100
AcDbEntity
  8
BLACK
  6
Continuous
100
AcDbLine
 10
299.778709
 20
-89.16799999999999
 30
0.0
 11
245.831409
 21
-89.16800099999999
 31
0.0
  0
ARC
  5
75C
330
1D
100
AcDbEntity
  8
BLACK
100
AcDbCircle
 10
245.831309
 20
-89.6686
 30
0.0
 40
0.500582269861808
100
AcDbArc
 50
89.9885543
 51
102.50236431
  0
LINE
  5
75D
330
1D
100
AcDbEntity
  8
BLACK
  6
Continuous
100
AcDbLine
 10
245.722943
 20
-89.17988799999999
 30
0.0
 11
201.662146
 21
-98.545294
 31
0.0
  0
ARC
  5
75E
330
1D
100
AcDbEntity
  8
BLACK
100
AcDbCircle
 10
201.766109
 20
-99.03439999999999
 30
0.0
 40
0.5000353938192775
100
AcDbArc
 50
102.00003478
 51
192.0024361
  0
LINE
  5
75F
330
1D
100
AcDbEntity
  8
BLACK
  6
Continuous
100
AcDbLine
 10
201.277005
 20
-99.138384
 30
0.0
 11
201.486338
 21
-100.12301
 31
0.0
  0
ARC
  5
760
330
1D
100
AcDbEntity
  8
BLACK
100
AcDbCircle
 10
201.974109
 20
-100.0123
 30
0.0
 40
0.5001790959746318
100
AcDbArc
 50
192.78784073
 51
281.99999045
  0
LINE
  5
761
330
1D
100
AcDbEntity
  8
BLACK
  6
Continuous
100
AcDbLine
 10
202.078102
 20
-100.501549
 30
0.0
 11
221.617754
 21
-96.34826799999999
 31
0.0
  0
LINE
  5
762
330
1D
100
AcDbEntity
  8
BLACK
  6
Continuous
100
AcDbLine
 10
221.617754
 20
-96.34826799999999
 30
0.0
 11
221.666773
 21
-96.57888799999999
 31
0.0
  0
ARC
  5
763
330
1D
100
AcDbEntity
  8
BLACK
100
AcDbCircle
 10
223.234709
 20
-96.2599
 30
0.0
 40
1.600055690476116
100
AcDbArc
 50
191.49957245
 51
12.44827316
  0
LINE
  5
764
330
1D
100
AcDbEntity
  8
BLACK
  6
Continuous
100
AcDbLine
 10
146.631358
 20
-4.498543
 30
0.0
 11
187.822948
 21
4.256997999999999
 31
0.0
  0
ARC
  5
765
330
1D
100
AcDbEntity
  8
BLACK
100
AcDbCircle
 10
187.926909
 20
3.7679
 30
0.0
 40
0.500023764365255
100
AcDbArc
 50
12.00002503
 51
102.00002503
  0
LINE
  5
766
330
1D
100
AcDbEntity
  8
BLACK
  6
Continuous
100
AcDbLine
 10
188.41602
 20
3.871864
 30
0.0
 11
188.623921
 21
2.893764
 31
0.0
  0
ARC
  5
767
330
1D
100
AcDbEntity
  8
BLACK
100
AcDbCircle
 10
188.134809
 20
2.7898
 30
0.0
 40
0.5000390603142918
100
AcDbArc
 50
281.57138981
 51
12.00000392
  0
LINE
  5
768
330
1D
100
AcDbEntity
  8
BLACK
  6
Continuous
100
AcDbLine
 10
188.235111
 20
2.299925
 30
0.0
 11
146.625283
 21
-6.544515
 31
0.0
  0
ARC
  5
769
330
1D
100
AcDbEntity
  8
BLACK
100
AcDbCircle
 10
146.527509
 20
-6.0546
 30
0.0
 40
0.4995762827647044
100
AcDbArc
 50
257.9975770200001
 51
281.286428
  0
LINE
  5
76A
330
1D
100
AcDbEntity
  8
BLACK
  6
Continuous
100
AcDbLine
 10
146.423621
 20
-6.543253
 30
0.0
 11
112.722131
 21
0.620221
 31
0.0
  0
ARC
  5
76B
330
1D
100
AcDbEntity
  8
BLACK
100
AcDbCircle
 10
112.826109
 20
1.1094
 30
0.0
 40
0.500107506967252
100
AcDbArc
 50
168.00116757
 51
258.00002312
  0
LINE
  5
76C
330
1D
100
AcDbEntity
  8
BLACK
  6
Continuous
100
AcDbLine
 10
112.336929
 20
1.213368
 30
0.0
 11
112.544818
 21
2.191507
 31
0.0
  0
ARC
  5
76D
330
1D
100
AcDbEntity
  8
BLACK
100
AcDbCircle
 10
113.033709
 20
2.0876
 30
0.0
 40
0.4998110388236738
100
AcDbArc
 50
77.38549793999998
 51
168.00112018
  0
LINE
  5
76E
330
1D
100
AcDbEntity
  8
BLACK
  6
Continuous
100
AcDbLine
 10
113.14288
 20
2.575422
 30
0.0
 11
146.423461
 21
-4.498538
 31
0.0
  0
ARC
  5
76F
330
1D
100
AcDbEntity
  8
BLACK
100
AcDbCircle
 10
146.527409
 20
-4.0096
 30
0.0
 40
0.4998706351147264
100
AcDbArc
 50
257.9976433
 51
282.00234963
  0
CIRCLE
  5
770
330
1D
100
AcDbEntity
  8
BLACK
100
AcDbCircle
 10
95.67375899999999
 20
13.03
 30
0.0
 40
1.6
  0
ARC
  5
771
330
1D
100
AcDbEntity
  8
BLACK
100
AcDbCircle
 10
102.054509
 20
-101.4065
 30
0.0
 40
0.500089276575693
100
AcDbArc
 50
168.00001879
 51
257.99993055
  0
LINE
  5
772
330
1D
100
AcDbEntity
  8
BLACK
  6
Continuous
100
AcDbLine
 10
101.950534
 20
-101.895661
 30
0.0
 11
103.906703
 21
-102.311459
 31
0.0
  0
ARC
  5
773
330
1D
100
AcDbEntity
  8
BLACK
100
AcDbCircle
 10
104.010709
 20
-101.8224
 30
0.0
 40
0.4999890519651405
100
AcDbArc
 50
257.99397086
 51
347.9999495299999
  0
LINE
  5
774
330
1D
100
AcDbEntity
  8
BLACK
  6
Continuous
100
AcDbLine
 10
104.499772
 20
-101.926354
 30
0.0
 11
104.915616
 21
-99.96996299999999
 31
0.0
  0
ARC
  5
775
330
1D
100
AcDbEntity
  8
BLACK
100
AcDbCircle
 10
104.426509
 20
-99.866
 30
0.0
 40
0.5000325676963452
100
AcDbArc
 50
347.99996522
 51
78.00018938
  0
LINE
  5
776
330
1D
100
AcDbEntity
  8
BLACK
  6
Continuous
100
AcDbLine
 10
104.53047
 20
-99.376893
 30
0.0
 11
102.574207
 21
-98.961086
 31
0.0
  0
ARC
  5
777
330
1D
100
AcDbEntity
  8
BLACK
100
AcDbCircle
 10
102.470209
 20
-99.4502
 30
0.0
 40
0.4999664931592916
100
AcDbArc
 50
77.99623199
 51
167.99998582
  0
LINE
  5
778
330
1D
100
AcDbEntity
  8
BLACK
  6
Continuous
100
AcDbLine
 10
101.981168
 20
-99.346251
 30
0.0
 11
101.565349
 21
-101.302526
 31
0.0
  0
ARC
  5
779
330
1D
100
AcDbEntity
  8
BLACK
100
AcDbCircle
 10
301.778909
 20
11.2801
 30
0.0
 40
0.5001370000809777
100
AcDbArc
 50
180.0
 51
270.00103104
  0
LINE
  5
77A
330
1D
100
AcDbEntity
  8
BLACK
  6
Continuous
100
AcDbLine
 10
301.778918
 20
10.779963
 30
0.0
 11
303.784003
 21
10.78
 31
0.0
  0
ARC
  5
77B
330
1D
100
AcDbEntity
  8
BLACK
100
AcDbCircle
 10
303.778609
 20
11.2801
 30
0.0
 40
0.5001310001689557
100
AcDbArc
 50
270.6179593099999
 51
359.9985107
  0
LINE
  5
77C
330
1D
100
AcDbEntity
  8
BLACK
  6
Continuous
100
AcDbLine
 10
304.27874
 20
11.280087
 30
0.0
 11
304.278796
 21
13.483492
 31
0.0
  0
ARC
  5
77D
330
1D
100
AcDbEntity
  8
BLACK
100
AcDbCircle
 10
303.778709
 20
13.4799
 30
0.0
 40
0.50010000039992
100
AcDbArc
 50
0.41153419
 51
89.99770863
  0
LINE
  5
77E
330
1D
100
AcDbEntity
  8
BLACK
  6
Continuous
100
AcDbLine
 10
303.778729
 20
13.98
 30
0.0
 11
301.778759
 21
13.980081
 31
0.0
  0
ARC
  5
77F
330
1D
100
AcDbEntity
  8
BLACK
100
AcDbCircle
 10
301.778709
 20
13.4801
 30
0.0
 40
0.4999499999999999
100
AcDbArc
 50
89.99426985
 51
180.0
  0
LINE
  5
780
330
1D
100
AcDbEntity
  8
BLACK
  6
Continuous
100
AcDbLine
 10
301.278759
 20
13.4801
 30
0.0
 11
301.278759
 21
11.2801
 31
0.0
  0
LINE
  5
781
330
1D
100
AcDbEntity
  8
BLACK
  6
Continuous
100
AcDbLine
 10
-1.499991
 20
13.471789
 30
0.0
 11
-1.500004
 21
11.279973
 31
0.0
  0
ARC
  5
782
330
1D
100
AcDbEntity
  8
BLACK
100
AcDbCircle
 10
-1.000033
 20
11.279971
 30
0.0
 40
0.499971000001
100
AcDbArc
 50
179.9997708
 51
270.0001146
  0
LINE
  5
783
330
1D
100
AcDbEntity
  8
BLACK
  6
Continuous
100
AcDbLine
 10
-1.000032
 20
10.78
 30
0.0
 11
0.999969
 21
10.78
 31
0.0
  0
ARC
  5
784
330
1D
100
AcDbEntity
  8
BLACK
100
AcDbCircle
 10
0.999969
 20
11.27997
 30
0.0
 40
0.4999710002560149
100
AcDbArc
 50
270.0
 51
359.99816643
  0
LINE
  5
785
330
1D
100
AcDbEntity
  8
BLACK
  6
Continuous
100
AcDbLine
 10
1.49994
 20
11.279954
 30
0.0
 11
1.500009
 21
13.479954
 31
0.0
  0
ARC
  5
786
330
1D
100
AcDbEntity
  8
BLACK
100
AcDbCircle
 10
0.999969
 20
13.47997
 30
0.0
 40
0.5000430000089993
100
AcDbArc
 50
359.99816668
 51
90.00034375
  0
LINE
  5
787
330
1D
100
AcDbEntity
  8
BLACK
  6
Continuous
100
AcDbLine
 10
0.9999659999999999
 20
13.980013
 30
0.0
 11
-1.000034
 21
13.98
 31
0.0
  0
ARC
  5
788
330
1D
100
AcDbEntity
  8
BLACK
100
AcDbCircle
 10
-1.000033
 20
13.479975
 30
0.0
 40
0.5000250117344132
100
AcDbArc
 50
90.00011459000001
 51
180.93804148
  0
ARC
  5
789
330
1D
100
AcDbEntity
  8
BLACK
100
AcDbCircle
 10
-1.000035
 20
-89.620031
 30
0.0
 40
0.5000290000009999
100
AcDbArc
 50
90.00011458
 51
180.00011458
  0
LINE
  5
78A
330
1D
100
AcDbEntity
  8
BLACK
  6
Continuous
100
AcDbLine
 10
-1.500064
 20
-89.620032
 30
0.0
 11
-1.500062
 21
-91.620041
 31
0.0
  0
ARC
  5
78B
330
1D
100
AcDbEntity
  8
BLACK
100
AcDbCircle
 10
-1.000105
 20
-91.620041
 30
0.0
 40
0.499957
100
AcDbArc
 50
180.0
 51
270.0
  0
LINE
  5
78C
330
1D
100
AcDbEntity
  8
BLACK
  6
Continuous
100
AcDbLine
 10
-1.000105
 20
-92.119998
 30
0.0
 11
0.999969
 21
-92.119998
 31
0.0
  0
ARC
  5
78D
330
1D
100
AcDbEntity
  8
BLACK
100
AcDbCircle
 10
0.999969
 20
-91.62003
 30
0.0
 40
0.4999700000090005
100
AcDbArc
 50
270.0
 51
0.0003438
  0
LINE
  5
78E
330
1D
100
AcDbEntity
  8
BLACK
  6
Continuous
100
AcDbLine
 10
1.499939
 20
-91.620027
 30
0.0
 11
1.499925
 21
-89.62001599999999
 31
0.0
  0
ARC
  5
78F
330
1D
100
AcDbEntity
  8
BLACK
100
AcDbCircle
 10
0.999899
 20
-89.62003
 30
0.0
 40
0.5000320000009999
100
AcDbArc
 50
0.0016042
 51
90.00011458
  0
LINE
  5
790
330
1D
100
AcDbEntity
  8
BLACK
  6
Continuous
100
AcDbLine
 10
0.999898
 20
-89.119998
 30
0.0
 11
-1.000036
 21
-89.120002
 31
0.0
  0
ARC
  5
791
330
1D
100
AcDbEntity
  8
BLACK
100
AcDbCircle
 10
301.778909
 20
-91.66789999999999
 30
0.0
 40
0.5001359795105726
100
AcDbArc
 50
180.0
 51
270.68726434
  0
LINE
  5
792
330
1D
100
AcDbEntity
  8
BLACK
  6
Continuous
100
AcDbLine
 10
301.784908
 20
-92.16799999999999
 30
0.0
 11
304.191976
 21
-92.168003
 31
0.0
  0
ARC
  5
793
330
1D
100
AcDbEntity
  8
BLACK
100
AcDbCircle
 10
304.186409
 20
-91.66789999999999
 30
0.0
 40
0.5001340001439614
100
AcDbArc
 50
270.63777348
 51
0.00137473
  0
LINE
  5
794
330
1D
100
AcDbEntity
  8
BLACK
  6
Continuous
100
AcDbLine
 10
304.686543
 20
-91.66788799999999
 30
0.0
 11
304.686496
 21
-89.66424699999999
 31
0.0
  0
ARC
  5
795
330
1D
100
AcDbEntity
  8
BLACK
100
AcDbCircle
 10
304.186509
 20
-89.66799999999999
 30
0.0
 40
0.5000000002889999
100
AcDbArc
 50
0.43006523
 51
89.99805194
  0
LINE
  5
796
330
1D
100
AcDbEntity
  8
BLACK
  6
Continuous
100
AcDbLine
 10
304.186526
 20
-89.16799999999999
 30
0.0
 11
301.778759
 21
-89.167919
 31
0.0
  0
ARC
  5
797
330
1D
100
AcDbEntity
  8
BLACK
100
AcDbCircle
 10
301.778709
 20
-89.6679
 30
0.0
 40
0.4999499999999999
100
AcDbArc
 50
89.99426985
 51
180.0
  0
LINE
  5
798
330
1D
100
AcDbEntity
  8
BLACK
  6
Continuous
100
AcDbLine
 10
301.278759
 20
-89.6679
 30
0.0
 11
301.278759
 21
-91.66789999999999
 31
0.0
  0
ARC
  5
799
330
1D
100
AcDbEntity
  8
BLACK
100
AcDbCircle
 10
111.131409
 20
3.7186
 30
0.0
 40
0.5000565819114873
100
AcDbArc
 50
347.99905616
 51
77.99936856
  0
LINE
  5
79A
330
1D
100
AcDbEntity
  8
BLACK
  6
Continuous
100
AcDbLine
 10
111.235382
 20
4.207729
 30
0.0
 11
109.279071
 21
4.623577
 31
0.0
  0
ARC
  5
79B
330
1D
100
AcDbEntity
  8
BLACK
100
AcDbCircle
 10
109.175109
 20
4.1345
 30
0.0
 40
0.4999565037730783
100
AcDbArc
 50
77.99938742999998
 51
167.99985964
  0
LINE
  5
79C
330
1D
100
AcDbEntity
  8
BLACK
  6
Continuous
100
AcDbLine
 10
108.686078
 20
4.238448
 30
0.0
 11
108.228676
 21
2.08657
 31
0.0
  0
ARC
  5
79D
330
1D
100
AcDbEntity
  8
BLACK
100
AcDbCircle
 10
108.717809
 20
1.9826
 30
0.0
 40
0.500061827033418
100
AcDbArc
 50
167.9998239
 51
257.99984772
  0
LINE
  5
79E
330
1D
100
AcDbEntity
  8
BLACK
  6
Continuous
100
AcDbLine
 10
108.613839
 20
1.493465
 30
0.0
 11
110.570037
 21
1.077656
 31
0.0
  0
ARC
  5
79F
330
1D
100
AcDbEntity
  8
BLACK
100
AcDbCircle
 10
110.674009
 20
1.5667
 30
0.0
 40
0.5000222853633626
100
AcDbArc
 50
257.99747829
 51
347.9991189200001
  0
LINE
  5
7A0
330
1D
100
AcDbEntity
  8
BLACK
  6
Continuous
100
AcDbLine
 10
111.163103
 20
1.462732
 30
0.0
 11
111.620538
 21
3.614624
 31
0.0
  0
CIRCLE
  5
7A1
330
1D
100
AcDbEntity
  8
BLACK
100
AcDbCircle
 10
206.606259
 20
13.03
 30
0.0
 40
1.6
  0
CIRCLE
  5
7A2
330
1D
100
AcDbEntity
  8
BLACK
100
AcDbCircle
 10
31.457508
 20
-40.239999
 30
0.0
 40
1.0
  0
LINE
  5
7A3
330
1D
100
AcDbEntity
  8
BLACK
  6
Continuous
100
AcDbLine
 10
157.379828
 20
-80.607858
 30
0.0
 11
157.37982
 21
-80.60785899999999
 31
0.0
  0
LINE
  5
7A4
330
1D
100
AcDbEntity
  8
BLACK
  6
Continuous
100
AcDbLine
 10
162.739828
 20
-59.997858
 30
0.0
 11
162.73982
 21
-59.997859
 31
0.0
  0
LINE
  5
7A5
330
1D
100
AcDbEntity
  8
BLACK
  6
Continuous
100
AcDbLine
 10
106.051488
 20
-60.510619
 30
0.0
 11
106.051498
 21
-60.510574
 31
0.0
  0
LINE
  5
7A6
330
1D
100
AcDbEntity
  8
BLACK
  6
Continuous
100
AcDbLine
 10
116.443453
 20
-77.032273
 30
0.0
 11
116.443454
 21
-77.032269
 31
0.0
  0
LINE
  5
7A7
330
1D
100
AcDbEntity
  8
BLACK
  6
Continuous
100
AcDbLine
 10
113.281488
 20
-3.620619
 30
0.0
 11
113.281498
 21
-3.620574
 31
0.0
  0
LINE
  5
7A8
330
1D
100
AcDbEntity
  8
BLACK
  6
Continuous
100
AcDbLine
 10
123.673453
 20
-20.142273
 30
0.0
 11
123.673454
 21
-20.142269
 31
0.0
  0
LINE
  5
7A9
330
1D
100
AcDbEntity
  8
BLACK
  6
Continuous
100
AcDbLine
 10
154.119828
 20
-42.347858
 30
0.0
 11
154.11982
 21
-42.347859
 31
0.0
  0
LINE
  5
7AA
330
1D
100
AcDbEntity
  8
BLACK
  6
Continuous
100
AcDbLine
 10
159.479828
 20
-21.737858
 30
0.0
 11
159.47982
 21
-21.737859
 31
0.0
  0
LINE
  5
7AB
330
1D
100
AcDbEntity
  8
BLACK
  6
Continuous
100
AcDbLine
 10
111.093453
 20
-56.422273
 30
0.0
 11
111.093454
 21
-56.422269
 31
0.0
  0
LINE
  5
7AC
330
1D
100
AcDbEntity
  8
BLACK
  6
Continuous
100
AcDbLine
 10
100.701481
 20
-39.90065
 30
0.0
 11
100.701498
 21
-39.900574
 31
0.0
  0
LINE
  5
7AD
330
1D
100
AcDbEntity
  8
BLACK
  6
Continuous
100
AcDbLine
 10
82.067785
 20
-35.939934
 30
0.0
 11
82.06779999999999
 21
-35.93986
 31
0.0
  0
LINE
  5
7AE
330
1D
100
AcDbEntity
  8
BLACK
  6
Continuous
100
AcDbLine
 10
65.488123
 20
-65.69012
 30
0.0
 11
65.48807599999999
 21
-65.69010899999999
 31
0.0
  0
LINE
  5
7AF
330
1D
100
AcDbEntity
  8
BLACK
  6
Continuous
100
AcDbLine
 10
82.471865
 20
-56.009873
 30
0.0
 11
82.47193999999999
 21
-56.00988899999999
 31
0.0
  0
LINE
  5
7B0
330
1D
100
AcDbEntity
  8
BLACK
  6
Continuous
100
AcDbLine
 10
87.417785
 20
-56.549934
 30
0.0
 11
87.4178
 21
-56.549859
 31
0.0
  0
LINE
  5
7B1
330
1D
100
AcDbEntity
  8
BLACK
  6
Continuous
100
AcDbLine
 10
2.640009
 20
-26.05
 30
0.0
 11
2.640009
 21
-26.049999
 31
0.0
  0
LINE
  5
7B2
330
1D
100
AcDbEntity
  8
BLACK
  6
Continuous
100
AcDbLine
 10
77.121893
 20
-35.399879
 30
0.0
 11
77.12194
 21
-35.399889
 31
0.0
  0
LINE
  5
7B3
330
1D
100
AcDbEntity
  8
BLACK
  6
Continuous
100
AcDbLine
 10
60.13815
 20
-45.080126
 30
0.0
 11
60.138076
 21
-45.080109
 31
0.0
  0
LINE
  5
7B4
330
1D
100
AcDbEntity
  8
BLACK
  6
Continuous
100
AcDbLine
 10
252.230009
 20
-33.74
 30
0.0
 11
252.230008
 21
-33.74
 31
0.0
  0
LINE
  5
7B5
330
1D
100
AcDbEntity
  8
BLACK
  6
Continuous
100
AcDbLine
 10
237.63001
 20
-46.73999999999999
 30
0.0
 11
237.630008
 21
-46.73999999999999
 31
0.0
  0
LINE
  5
7B6
330
1D
100
AcDbEntity
  8
BLACK
  6
Continuous
100
AcDbLine
 10
309.365609
 20
-85.38799999999999
 30
0.0
 11
309.365609
 21
-85.387999
 31
0.0
  0
LINE
  5
7B7
330
1D
100
AcDbEntity
  8
BLACK
  6
Continuous
100
AcDbLine
 10
295.765609
 20
-71.38799999999999
 30
0.0
 11
295.765609
 21
-71.387999
 31
0.0
  0
LINE
  5
7B8
330
1D
100
AcDbEntity
  8
BLACK
  6
Continuous
100
AcDbLine
 10
248.970009
 20
6.5
 30
0.0
 11
248.970008
 21
6.5
 31
0.0
  0
LINE
  5
7B9
330
1D
100
AcDbEntity
  8
BLACK
  6
Continuous
100
AcDbLine
 10
234.37001
 20
-6.5
 30
0.0
 11
234.370008
 21
-6.5
 31
0.0
  0
LINE
  5
7BA
330
1D
100
AcDbEntity
  8
BLACK
  6
Continuous
100
AcDbLine
 10
60.678123
 20
-85.68012
 30
0.0
 11
60.678076
 21
-85.680109
 31
0.0
  0
LINE
  5
7BB
330
1D
100
AcDbEntity
  8
BLACK
  6
Continuous
100
AcDbLine
 10
77.66186499999999
 20
-75.999873
 30
0.0
 11
77.661941
 21
-75.999889
 31
0.0
  0
LINE
  5
7BC
330
1D
100
AcDbEntity
  8
BLACK
  6
Continuous
100
AcDbLine
 10
305.110009
 20
-14.69
 30
0.0
 11
305.110008
 21
-14.69
 31
0.0
  0
LINE
  5
7BD
330
1D
100
AcDbEntity
  8
BLACK
  6
Continuous
100
AcDbLine
 10
290.51001
 20
-27.69
 30
0.0
 11
290.510008
 21
-27.69
 31
0.0
  0
LINE
  5
7BE
330
1D
100
AcDbEntity
  8
BLACK
  6
Continuous
100
AcDbLine
 10
59.438123
 20
-25.45012
 30
0.0
 11
59.438076
 21
-25.450109
 31
0.0
  0
LINE
  5
7BF
330
1D
100
AcDbEntity
  8
BLACK
  6
Continuous
100
AcDbLine
 10
76.421865
 20
-15.769873
 30
0.0
 11
76.42193999999999
 21
-15.769889
 31
0.0
  0
LINE
  5
7C0
330
1D
100
AcDbEntity
  8
BLACK
  6
Continuous
100
AcDbLine
 10
68.010009
 20
6.5
 30
0.0
 11
68.010008
 21
6.5
 31
0.0
  0
LINE
  5
7C1
330
1D
100
AcDbEntity
  8
BLACK
  6
Continuous
100
AcDbLine
 10
53.41001
 20
-6.5
 30
0.0
 11
53.410008
 21
-6.5
 31
0.0
  0
LINE
  5
7C2
330
1D
100
AcDbEntity
  8
BLACK
  6
Continuous
100
AcDbLine
 10
81.367785
 20
-16.309934
 30
0.0
 11
81.3678
 21
-16.309859
 31
0.0
  0
LINE
  5
7C3
330
1D
100
AcDbEntity
  8
BLACK
  6
Continuous
100
AcDbLine
 10
253.00001
 20
-8.639999999999999
 30
0.0
 11
253.000008
 21
-8.639999999999999
 31
0.0
  0
LINE
  5
7C4
330
1D
100
AcDbEntity
  8
BLACK
  6
Continuous
100
AcDbLine
 10
267.600009
 20
4.359999999999999
 30
0.0
 11
267.600008
 21
4.359999999999999
 31
0.0
  0
LINE
  5
7C5
330
1D
100
AcDbEntity
  8
BLACK
  6
Continuous
100
AcDbLine
 10
100.001488
 20
-20.270619
 30
0.0
 11
100.001498
 21
-20.270574
 31
0.0
  0
LINE
  5
7C6
330
1D
100
AcDbEntity
  8
BLACK
  6
Continuous
100
AcDbLine
 10
110.393453
 20
-36.792273
 30
0.0
 11
110.393454
 21
-36.792269
 31
0.0
  0
LINE
  5
7C7
330
1D
100
AcDbEntity
  8
BLACK
  6
Continuous
100
AcDbLine
 10
197.689547
 20
-38.767497
 30
0.0
 11
197.689543
 21
-38.76747599999999
 31
0.0
  0
LINE
  5
7C8
330
1D
100
AcDbEntity
  8
BLACK
  6
Continuous
100
AcDbLine
 10
189.069547
 20
-21.117497
 30
0.0
 11
189.069543
 21
-21.117476
 31
0.0
  0
LINE
  5
7C9
330
1D
100
AcDbEntity
  8
BLACK
  6
Continuous
100
AcDbLine
 10
192.329547
 20
-59.377497
 30
0.0
 11
192.329543
 21
-59.37747599999999
 31
0.0
  0
LINE
  5
7CA
330
1D
100
AcDbEntity
  8
BLACK
  6
Continuous
100
AcDbLine
 10
94.647785
 20
0.340066
 30
0.0
 11
94.64779999999999
 21
0.34014
 31
0.0
  0
LINE
  5
7CB
330
1D
100
AcDbEntity
  8
BLACK
  6
Continuous
100
AcDbLine
 10
72.71812299999999
 20
-8.80012
 30
0.0
 11
72.718076
 21
-8.800108999999999
 31
0.0
  0
LINE
  5
7CC
330
1D
100
AcDbEntity
  8
BLACK
  6
Continuous
100
AcDbLine
 10
89.701865
 20
0.880127
 30
0.0
 11
89.701939
 21
0.880112
 31
0.0
  0
LINE
  5
7CD
330
1D
100
AcDbEntity
  8
BLACK
  6
Continuous
100
AcDbLine
 10
194.429547
 20
-0.507497
 30
0.0
 11
194.429543
 21
-0.5074759999999999
 31
0.0
  0
LINE
  5
7CE
330
1D
100
AcDbEntity
  8
BLACK
  6
Continuous
100
AcDbLine
 10
166.357709
 20
-105.97615
 30
0.0
 11
166.357709
 21
-105.976166
 31
0.0
  0
LINE
  5
7CF
330
1D
100
AcDbEntity
  8
BLACK
  6
Continuous
100
AcDbLine
 10
106.486756
 20
-99.792761
 30
0.0
 11
106.486759
 21
-99.792752
 31
0.0
  0
LINE
  5
7D0
330
1D
100
AcDbEntity
  8
BLACK
  6
Continuous
100
AcDbLine
 10
197.780235
 20
-101.926255
 30
0.0
 11
197.780226
 21
-101.926258
 31
0.0
  0
LINE
  5
7D1
330
1D
100
AcDbEntity
  8
BLACK
  6
Continuous
100
AcDbLine
 10
305.686617
 20
-90.66799999999999
 30
0.0
 11
305.686537
 21
-90.66799999999999
 31
0.0
  0
LINE
  5
7D2
330
1D
100
AcDbEntity
  8
BLACK
  6
Continuous
100
AcDbLine
 10
321.336691
 20
8.53
 30
0.0
 11
321.336759
 21
8.53
 31
0.0
  0
LINE
  5
7D3
330
1D
100
AcDbEntity
  8
BLACK
  6
Continuous
100
AcDbLine
 10
193.905995
 20
4.01647
 30
0.0
 11
193.905968
 21
4.016464
 31
0.0
  0
LINE
  5
7D4
330
1D
100
AcDbEntity
  8
BLACK
  6
Continuous
100
AcDbLine
 10
189.79776
 20
3.143319
 30
0.0
 11
189.797734
 21
3.143312
 31
0.0
  0
LINE
  5
7D5
330
1D
100
AcDbEntity
  8
BLACK
  6
Continuous
100
AcDbLine
 10
56.326825
 20
-89.130943
 30
0.0
 11
56.326828
 21
-89.130928
 31
0.0
  0
LINE
  5
7D6
330
1D
100
AcDbEntity
  8
BLACK
  6
Continuous
100
AcDbLine
 10
100.202043
 20
-100.501525
 30
0.0
 11
100.202027
 21
-100.501601
 31
0.0
  0
LINE
  5
7D7
330
1D
100
AcDbEntity
  8
BLACK
  6
Continuous
100
AcDbLine
 10
245.831409
 20
-89.16801199999999
 30
0.0
 11
245.831409
 21
-89.16800099999999
 31
0.0
  0
LINE
  5
7D8
330
1D
100
AcDbEntity
  8
BLACK
  6
Continuous
100
AcDbLine
 10
188.416006
 20
3.871861
 30
0.0
 11
188.41602
 21
3.871864
 31
0.0
  0
LINE
  5
7D9
330
1D
100
AcDbEntity
  8
BLACK
  6
Continuous
100
AcDbLine
 10
301.278773
 20
11.2801
 30
0.0
 11
301.278759
 21
11.2801
 31
0.0
  0
LINE
  5
7DA
330
1D
100
AcDbEntity
  8
BLACK
  6
Continuous
100
AcDbLine
 10
301.278774
 20
-91.66789999999999
 30
0.0
 11
301.278759
 21
-91.66789999999999
 31
0.0
  0
LINE
  5
7DB
330
1D
100
AcDbEntity
  8
BLACK
  6
Continuous
100
AcDbLine
 10
110.570043
 20
1.077684
 30
0.0
 11
110.570027
 21
1.077609
 31
0.0
  0
ARC
  5
824
330
1D
100
AcDbEntity
  8
BLACK
100
AcDbCircle
 10
28.73251
 20
-33.739997
 30
0.0
 40
0.499998000001
100
AcDbArc
 50
359.99965622
 51
90.00011459
  0
ARC
  5
825
330
1D
100
AcDbEntity
  8
BLACK
100
AcDbCircle
 10
15.132509
 20
-33.74
 30
0.0
 40
0.500001
100
AcDbArc
 50
90.0
 51
180.0
  0
ARC
  5
826
330
1D
100
AcDbEntity
  8
BLACK
100
AcDbCircle
 10
15.132509
 20
-46.739998
 30
0.0
 40
0.500001
100
AcDbArc
 50
180.00022918
 51
270.0
  0
ARC
  5
827
330
1D
100
AcDbEntity
  8
BLACK
100
AcDbCircle
 10
28.73251
 20
-46.740001
 30
0.0
 40
0.499998000001
100
AcDbArc
 50
269.99988541
 51
0.00011459
  0
LINE
  5
828
330
1D
100
AcDbEntity
  8
BLACK
  6
Continuous
100
AcDbLine
 10
28.732509
 20
-33.239999
 30
0.0
 11
15.132509
 21
-33.239999
 31
0.0
  0
LINE
  5
829
330
1D
100
AcDbEntity
  8
BLACK
  6
Continuous
100
AcDbLine
 10
14.632508
 20
-33.74
 30
0.0
 11
14.632508
 21
-46.73999999999999
 31
0.0
  0
LINE
  5
82A
330
1D
100
AcDbEntity
  8
BLACK
  6
Continuous
100
AcDbLine
 10
15.132509
 20
-47.239999
 30
0.0
 11
28.732509
 21
-47.239999
 31
0.0
  0
LINE
  5
82B
330
1D
100
AcDbEntity
  8
BLACK
  6
Continuous
100
AcDbLine
 10
29.232508
 20
-46.73999999999999
 30
0.0
 11
29.232508
 21
-33.74
 31
0.0
  0
CIRCLE
  5
82C
330
1D
100
AcDbEntity
  8
0
100
AcDbCircle
 10
269.824964
 20
-2.139992
 30
0.0
 40
0.9999980000000002
  0
CIRCLE
  5
82D
330
1D
100
AcDbEntity
  8
0
100
AcDbCircle
 10
307.925077
 20
-2.139999
 30
0.0
 40
0.9999940000000002
  0
LWPOLYLINE
  5
82E
330
1D
100
AcDbEntity
  8
0
100
AcDbPolyline
 90
8
 70
1
 10
272.0499990000001
 20
4.359999
 10
272.0499990000001
 20
-8.640001
 42
0.414212390803041
 10
272.549999
 20
-9.140001
 10
286.1499989999999
 20
-9.140001
 42
0.4142135623730951
 10
286.6499989999999
 20
-8.640001
 10
286.6499989999999
 20
4.359999
 42
0.4142135623730954
 10
286.1499989999999
 20
4.859999
 10
272.549999
 20
4.859999
 42
0.4142123908030413
  0
LWPOLYLINE
  5
82F
330
1D
100
AcDbEntity
  8
0
100
AcDbPolyline
 90
8
 70
1
 10
291.099999
 20
4.359999999999999
 10
291.099999
 20
-8.639999999999999
 42
0.4142123908030839
 10
291.599999
 20
-9.139999999999999
 10
305.199999
 20
-9.139999999999999
 42
0.4142135623730951
 10
305.699999
 20
-8.639999999999999
 10
305.699999
 20
4.359999999999999
 42
0.4142135623730951
 10
305.199999
 20
4.859999999999999
 10
291.599999
 20
4.859999999999999
 42
0.4142123908030836
  0
CIRCLE
  5
830
330
1D
100
AcDbEntity
  8
0
100
AcDbCircle
 10
301.483747
 20
-59.28988099999999
 30
0.0
 40
1.000002
  0
LWPOLYLINE
  5
831
330
1D
100
AcDbEntity
  8
0
100
AcDbPolyline
 90
8
 70
1
 10
277.515
 20
-52.79
 10
277.515
 20
-65.78999999999999
 42
0.4142123908030554
 10
278.015
 20
-66.28999999999999
 10
291.615
 20
-66.28999999999999
 42
0.4142135623730951
 10
292.115
 20
-65.78999999999999
 10
292.115
 20
-52.79
 42
0.4142135623730951
 10
291.615
 20
-52.29
 10
278.015
 20
-52.29
 42
0.4142123908030605
  0
LWPOLYLINE
  5
832
330
1D
100
AcDbEntity
  8
0
100
AcDbPolyline
 90
8
 70
1
 10
303.70875
 20
-52.79
 10
303.70875
 20
-65.78999999999999
 42
0.4142123908030345
 10
304.20875
 20
-66.28999999999999
 10
317.8087499999999
 20
-66.28999999999999
 42
0.4142135623730951
 10
318.3087499999999
 20
-65.78999999999999
 10
318.3087499999999
 20
-52.79
 42
0.4142135623730951
 10
317.8087499999999
 20
-52.29
 10
304.20875
 20
-52.29
 42
0.4142123908030397
  0
CIRCLE
  5
833
330
1D
100
AcDbEntity
  8
0
100
AcDbCircle
 10
84.85105000000001
 20
-89.99946100000001
 30
0.0
 40
0.9999990000000001
  0
CIRCLE
  5
834
330
1D
100
AcDbEntity
  8
0
100
AcDbCircle
 10
116.93427
 20
-96.81896
 30
0.0
 40
1.0
  0
LWPOLYLINE
  5
835
330
1D
100
AcDbEntity
  8
0
100
AcDbPolyline
 90
8
 70
1
 10
85.65634600000001
 20
-88.169921
 10
88.23068599999999
 20
-90.48780800000002
 10
113.662524
 20
-95.893511
 10
116.95707
 20
-94.823095
 10
119.393379
 20
-83.361161
 42
0.4142134405809357
 10
119.008261
 20
-82.768132
 10
88.685685
 20
-76.322869
 42
0.4142122946124442
 10
88.09265599999998
 20
-76.707987
  0
LWPOLYLINE
  5
836
330
1D
100
AcDbEntity
  8
0
100
AcDbPolyline
 90
8
 70
1
 10
124.598235
 20
-98.24116900000001
 10
137.901043
 20
-101.068768
 42
0.4142134405809393
 10
138.494072
 20
-100.68365
 10
141.196924
 20
-87.96773100000001
 42
0.4142136841652874
 10
140.811807
 20
-87.37470100000002
 10
127.508999
 20
-84.547102
 42
0.4142122946124381
 10
126.91597
 20
-84.93222000000002
 10
124.213118
 20
-97.648139
 42
0.4142136841652344
  0
ENDSEC
  0
SECTION
  2
OBJECTS
  0
DICTIONARY
  5
C
330
0
100
AcDbDictionary
281
1
  3
ACAD_DETAILVIEWSTYLE
350
81B
  3
ACAD_GROUP
350
D
  3
ACAD_LAYOUT
350
1A
  3
ACAD_MATERIAL
350
80B
  3
ACAD_MLEADERSTYLE
350
811
  3
ACAD_MLINESTYLE
350
17
  3
ACAD_PLOTSETTINGS
350
19
  3
ACAD_PLOTSTYLENAME
350
E
  3
ACAD_SCALELIST
350
7DC
  3
ACAD_SECTIONVIEWSTYLE
350
81C
  3
ACAD_TABLESTYLE
350
80F
  3
ACAD_VISUALSTYLE
350
7F2
  3
AcDbVariableDictionary
350
813
  3
ACDB_RECOMPOSE_DATA
350
817
  3
ACAD_COLOR
350
81D
  3
EZDXF_META
350
822
  0
DICTIONARY
  5
81B
102
{ACAD_REACTORS
330
C
102
}
330
C
100
AcDbDictionary
281
1
  0
DICTIONARY
  5
D
102
{ACAD_REACTORS
330
C
102
}
330
C
100
AcDbDictionary
281
1
  0
DICTIONARY
  5
1A
102
{ACAD_REACTORS
330
C
102
}
330
C
100
AcDbDictionary
281
1
  3
Layout1
350
1C
  3
Model
350
1E
  0
DICTIONARY
  5
80B
102
{ACAD_REACTORS
330
C
102
}
330
C
100
AcDbDictionary
281
1
  3
ByBlock
350
80D
  3
ByLayer
350
80C
  3
Global
350
80E
  0
DICTIONARY
  5
811
102
{ACAD_REACTORS
330
C
102
}
330
C
100
AcDbDictionary
281
1
  3
Standard
350
812
  0
DICTIONARY
  5
17
102
{ACAD_REACTORS
330
C
102
}
330
C
100
AcDbDictionary
281
1
  3
Standard
350
18
  0
DICTIONARY
  5
19
102
{ACAD_REACTORS
330
C
102
}
330
C
100
AcDbDictionary
281
1
  0
ACDBDICTIONARYWDFLT
  5
E
102
{ACAD_REACTORS
330
C
102
}
330
C
100
AcDbDictionary
281
1
  3
Normal
350
F
100
AcDbDictionaryWithDefault
340
F
  0
DICTIONARY
  5
7DC
102
{ACAD_REACTORS
330
C
102
}
330
C
100
AcDbDictionary
281
1
  3
A0
350
7DD
  3
A1
350
7DE
  3
A2
350
7DF
  3
A3
350
7E0
  3
A4
350
7E1
  3
A5
350
7E2
  3
A6
350
7E3
  3
A7
350
7E4
  3
A8
350
7E5
  3
A9
350
7E6
  3
B0
350
7E7
  3
B1
350
7E8
  3
B2
350
7E9
  3
B3
350
7EA
  3
B4
350
7EB
  3
B5
350
7EC
  3
B6
350
7ED
  0
DICTIONARY
  5
81C
102
{ACAD_REACTORS
330
C
102
}
330
C
100
AcDbDictionary
281
1
  0
DICTIONARY
  5
80F
102
{ACAD_REACTORS
330
C
102
}
330
C
100
AcDbDictionary
281
1
  3
Standard
350
810
  0
DICTIONARY
  5
7F2
102
{ACAD_REACTORS
330
C
102
}
330
C
100
AcDbDictionary
281
1
  3
2dWireframe
350
7F7
  3
Basic
350
7FA
  3
Brighten
350
7FE
  3
ColorChange
350
802
  3
Conceptual
350
7FC
  3
Dim
350
7FD
  3
EdgeColorOff
350
805
  3
Facepattern
350
801
  3
Flat
350
7F3
  3
FlatWithEdges
350
7F4
  3
Gouraud
350
7F5
  3
GouraudWithEdges
350
7F6
  3
Hidden
350
7F9
  3
JitterOff
350
803
  3
Linepattern
350
800
  3
OverhangOff
350
804
  3
Realistic
350
7FB
  3
Shaded
350
80A
  3
Shaded with edges
350
809
  3
Shades of Gray
350
806
  3
Sketchy
350
807
  3
Thicken
350
7FF
  3
Wireframe
350
7F8
  3
X-Ray
350
808
  0
DICTIONARY
  5
813
102
{ACAD_REACTORS
330
C
102
}
330
C
100
AcDbDictionary
281
1
  3
CANNOSCALE
350
814
  3
CMLEADERSTYLE
350
819
  3
CTABLESTYLE
350
818
  3
MSLTSCALE
350
81A
  0
XRECORD
  5
817
102
{ACAD_REACTORS
330
C
102
}
330
C
100
AcDbXrecord
280
1
 90
1
330
810
  0
LAYOUT
  5
1C
102
{ACAD_REACTORS
330
1A
102
}
330
1A
100
AcDbPlotSettings
  1

  2
none_device
  4

  6

 40
0.0
 41
0.0
 42
0.0
 43
0.0
 44
0.0
 45
0.0
 46
0.0
 47
0.0
 48
0.0
 49
0.0
140
0.0
141
0.0
142
1.0
143
1.0
 70
688
 72
0
 73
0
 74
5
  7

 75
16
 76
0
 77
2
 78
300
147
1.0
148
0.0
149
0.0
100
AcDbLayout
  1
Layout1
 70
1
 71
1
 10
0.0
 20
0.0
 11
12.0
 21
9.0
 12
0.0
 22
0.0
 32
0.0
 14
1e+20
 24
1e+20
 34
1e+20
 15
-1e+20
 25
-1e+20
 35
-1e+20
146
0.0
 13
0.0
 23
0.0
 33
0.0
 16
1.0
 26
0.0
 36
0.0
 17
0.0
 27
1.0
 37
0.0
 76
0
330
1B
  0
LAYOUT
  5
1E
102
{ACAD_REACTORS
330
1A
102
}
330
1A
100
AcDbPlotSettings
  1

  2
none_device
  4
Letter_(8.50_x_11.00_Inches)
  6

 40
6.35
 41
6.35
 42
6.35000508
 43
6.35000508
 44
215.9
 45
279.4
 46
0.0
 47
0.0
 48
0.0
 49
0.0
140
0.0
141
0.0
142
1.0
143
1.0
 70
1712
 72
0
 73
0
 74
0
  7

 75
0
 76
0
 77
2
 78
300
147
1.0
148
0.0
149
0.0
100
AcDbLayout
  1
Model
 70
1
 71
0
 10
0.0
 20
0.0
 11
12.0
 21
9.0
 12
0.0
 22
0.0
 32
0.0
 14
1e+20
 24
1e+20
 34
1e+20
 15
-1e+20
 25
-1e+20
 35
-1e+20
146
0.0
 13
0.0
 23
0.0
 33
0.0
 16
1.0
 26
0.0
 36
0.0
 17
0.0
 27
1.0
 37
0.0
 76
0
330
1D
331
442
  0
MATERIAL
  5
80D
102
{ACAD_REACTORS
330
80B
102
}
330
80B
100
AcDbMaterial
  1
ByBlock
  2

 70
0
 40
1.0
 71
0
 41
1.0
 91
-1023410177
 42
1.0
 72
1
  3

 73
1
 74
1
 75
1
 44
0.5
 73
0
 45
1.0
 46
1.0
 77
1
  4

 78
1
 79
1
170
1
 48
1.0
171
1
  6

172
1
173
1
174
1
140
1.0
141
1.0
175
1
  7

176
1
177
1
178
1
143
1.0
179
1
  8

270
1
271
1
272
1
145
1.0
146
1.0
273
1
  9

274
1
275
1
276
1
 42
1.0
 72
1
  3

 73
1
 74
1
 75
1
 94
127
  0
MATERIAL
  5
80C
102
{ACAD_REACTORS
330
80B
102
}
330
80B
100
AcDbMaterial
  1
ByLayer
  2

 70
0
 40
1.0
 71
0
 41
1.0
 91
-1023410177
 42
1.0
 72
1
  3

 73
1
 74
1
 75
1
 44
0.5
 73
0
 45
1.0
 46
1.0
 77
1
  4

 78
1
 79
1
170
1
 48
1.0
171
1
  6

172
1
173
1
174
1
140
1.0
141
1.0
175
1
  7

176
1
177
1
178
1
143
1.0
179
1
  8

270
1
271
1
272
1
145
1.0
146
1.0
273
1
  9

274
1
275
1
276
1
 42
1.0
 72
1
  3

 73
1
 74
1
 75
1
 94
127
  0
MATERIAL
  5
80E
102
{ACAD_REACTORS
330
80B
102
}
330
80B
100
AcDbMaterial
  1
Global
  2

 70
0
 40
1.0
 71
0
 41
1.0
 91
-1023410177
 42
1.0
 72
1
  3

 73
1
 74
1
 75
1
 44
0.5
 73
0
 45
1.0
 46
1.0
 77
1
  4

 78
1
 79
1
170
1
 48
1.0
171
1
  6

172
1
173
1
174
1
140
1.0
141
1.0
175
1
  7

176
1
177
1
178
1
143
1.0
179
1
  8

270
1
271
1
272
1
145
1.0
146
1.0
273
1
  9

274
1
275
1
276
1
 42
1.0
 72
1
  3

 73
1
 74
1
 75
1
 94
127
  0
MLEADERSTYLE
  5
812
102
{ACAD_REACTORS
330
811
102
}
330
811
100
AcDbMLeaderStyle
179
2
170
2
171
1
172
0
 90
2
 40
0.0
 41
0.0
173
1
 91
-1056964608
340
14
 92
-2
290
1
 42
2.0
291
1
 43
8.0
  3
Standard
341
0
 44
4.0
300

342
11
174
1
175
1
176
0
178
6
 93
-1056964608
 45
4.0
292
0
297
0
 46
4.0
293
1
343
0
 94
-1056964608
 47
1.0
 49
1.0
140
1.0
294
1
141
0.0
177
0
142
1.0
295
0
296
0
143
3.75
271
0
272
9
273
9
298
0
  0
MLINESTYLE
  5
18
102
{ACAD_REACTORS
330
17
102
}
330
17
100
AcDbMlineStyle
  2
Standard
 70
0
  3

 62
256
 51
90.0
 52
90.0
 71
2
 49
0.5
 62
256
  6
BYLAYER
 49
-0.5
 62
256
  6
BYLAYER
  0
ACDBPLACEHOLDER
  5
F
102
{ACAD_REACTORS
330
E
102
}
330
E
  0
SCALE
  5
7DD
102
{ACAD_REACTORS
330
7DC
102
}
330
7DC
100
AcDbScale
 70
0
300
1:1
140
1.0
141
1.0
290
1
  0
SCALE
  5
7DE
102
{ACAD_REACTORS
330
7DC
102
}
330
7DC
100
AcDbScale
 70
0
300
1:2
140
1.0
141
2.0
290
0
  0
SCALE
  5
7DF
102
{ACAD_REACTORS
330
7DC
102
}
330
7DC
100
AcDbScale
 70
0
300
1:4
140
1.0
141
4.0
290
0
  0
SCALE
  5
7E0
102
{ACAD_REACTORS
330
7DC
102
}
330
7DC
100
AcDbScale
 70
0
300
1:5
140
1.0
141
5.0
290
0
  0
SCALE
  5
7E1
102
{ACAD_REACTORS
330
7DC
102
}
330
7DC
100
AcDbScale
 70
0
300
1:8
140
1.0
141
8.0
290
0
  0
SCALE
  5
7E2
102
{ACAD_REACTORS
330
7DC
102
}
330
7DC
100
AcDbScale
 70
0
300
1:10
140
1.0
141
10.0
290
0
  0
SCALE
  5
7E3
102
{ACAD_REACTORS
330
7DC
102
}
330
7DC
100
AcDbScale
 70
0
300
1:16
140
1.0
141
16.0
290
0
  0
SCALE
  5
7E4
102
{ACAD_REACTORS
330
7DC
102
}
330
7DC
100
AcDbScale
 70
0
300
1:20
140
1.0
141
20.0
290
0
  0
SCALE
  5
7E5
102
{ACAD_REACTORS
330
7DC
102
}
330
7DC
100
AcDbScale
 70
0
300
1:30
140
1.0
141
30.0
290
0
  0
SCALE
  5
7E6
102
{ACAD_REACTORS
330
7DC
102
}
330
7DC
100
AcDbScale
 70
0
300
1:40
140
1.0
141
40.0
290
0
  0
SCALE
  5
7E7
102
{ACAD_REACTORS
330
7DC
102
}
330
7DC
100
AcDbScale
 70
0
300
1:50
140
1.0
141
50.0
290
0
  0
SCALE
  5
7E8
102
{ACAD_REACTORS
330
7DC
102
}
330
7DC
100
AcDbScale
 70
0
300
1:100
140
1.0
141
100.0
290
0
  0
SCALE
  5
7E9
102
{ACAD_REACTORS
330
7DC
102
}
330
7DC
100
AcDbScale
 70
0
300
2:1
140
2.0
141
1.0
290
0
  0
SCALE
  5
7EA
102
{ACAD_REACTORS
330
7DC
102
}
330
7DC
100
AcDbScale
 70
0
300
4:1
140
4.0
141
1.0
290
0
  0
SCALE
  5
7EB
102
{ACAD_REACTORS
330
7DC
102
}
330
7DC
100
AcDbScale
 70
0
300
8:1
140
8.0
141
1.0
290
0
  0
SCALE
  5
7EC
102
{ACAD_REACTORS
330
7DC
102
}
330
7DC
100
AcDbScale
 70
0
300
10:1
140
10.0
141
1.0
290
0
  0
SCALE
  5
7ED
102
{ACAD_REACTORS
330
7DC
102
}
330
7DC
100
AcDbScale
 70
0
300
100:1
140
100.0
141
1.0
290
0
  0
TABLESTYLE
  5
810
102
{ACAD_XDICTIONARY
360
815
102
}
102
{ACAD_REACTORS
330
80F
102
}
330
80F
100
AcDbTableStyle
  3
Standard
 70
0
 71
0
 40
0.06
 41
0.06
280
0
281
0
  7
Standard
140
4.5
170
2
 62
0
 63
257
283
0
 90
4
 91
0
  1

274
-2
284
1
 64
0
275
-2
285
1
 65
0
276
-2
286
1
 66
0
277
-2
287
1
 67
0
278
-2
288
1
 68
0
279
-2
289
1
 69
0
  7
Standard
140
6.0
170
5
 62
0
 63
257
283
0
 90
4
 91
0
  1

274
-2
284
1
 64
0
275
-2
285
1
 65
0
276
-2
286
1
 66
0
277
-2
287
1
 67
0
278
-2
288
1
 68
0
279
-2
289
1
 69
0
  7
Standard
140
4.5
170
5
 62
0
 63
257
283
0
 90
4
 91
0
  1

274
-2
284
1
 64
0
275
-2
285
1
 65
0
276
-2
286
1
 66
0
277
-2
287
1
 67
0
278
-2
288
1
 68
0
279
-2
289
1
 69
0
  0
VISUALSTYLE
  5
7F7
102
{ACAD_REACTORS
330
7F2
102
}
330
7F2
100
AcDbVisualStyle
  2
2dWireframe
 70
4
177
3
291
0
 70
58
 90
0
176
1
 90
2
176
1
 90
0
176
1
 90
0
176
1
 40
0.6
176
1
 40
30.0
176
1
 62
7
420
16777215
176
1
 90
1
176
1
 90
4
176
1
 62
7
176
1
 62
257
176
1
 90
1
176
1
 90
1
176
1
 40
1.0
176
1
 90
0
176
1
 62
257
176
1
 40
1.0
176
1
 90
1
176
1
 90
6
176
1
 90
2
176
1
 62
7
176
1
 90
5
176
1
 90
0
176
1
 90
0
176
1
290
0
176
1
 90
1
176
1
 40
0.0
176
1
 90
0
176
1
290
1
176
1
290
1
176
1
290
0
176
1
290
0
176
1
290
0
176
1
290
0
176
1
290
0
176
1
290
0
176
1
290
0
176
1
 90
50
176
1
 40
0.0
176
1
 40
1.0
176
1
 90
0
176
1
 62
18
420
0
176
1
 90
50
176
1
 90
3
176
1
 62
5
420
255
176
1
290
0
176
1
 90
50
176
1
 90
50
176
1
 90
50
176
1
290
0
176
1
 90
50
176
1
 62
256
176
0
 40
1.0
176
0
 90
2
176
1
  1
strokes_ogs.tif
176
1
290
0
176
1
 40
1.0
176
1
 40
1.0
176
1
  0
VISUALSTYLE
  5
7FA
102
{ACAD_REACTORS
330
7F2
102
}
330
7F2
100
AcDbVisualStyle
  2
Basic
 70
7
177
3
291
1
 70
58
 90
1
176
1
 90
0
176
1
 90
1
176
1
 90
0
176
1
 40
0.6
176
1
 40
30.0
176
1
 62
7
420
16777215
176
1
 90
0
176
1
 90
4
176
1
 62
7
176
1
 62
257
176
1
 90
1
176
1
 90
1
176
1
 40
1.0
176
1
 90
8
176
1
 62
7
176
1
 40
1.0
176
1
 90
1
176
1
 90
6
176
1
 90
2
176
1
 62
7
176
1
 90
5
176
1
 90
0
176
1
 90
0
176
1
290
0
176
1
 90
1
176
1
 40
0.0
176
1
 90
0
176
1
290
0
176
1
290
1
176
1
290
1
176
1
290
0
176
1
290
0
176
1
290
0
176
1
290
0
176
1
290
0
176
1
290
0
176
1
 90
50
176
1
 40
0.0
176
1
 40
1.0
176
1
 90
0
176
1
 62
18
420
0
176
1
 90
50
176
1
 90
3
176
1
 62
5
420
255
176
1
290
0
176
1
 90
50
176
1
 90
50
176
1
 90
50
176
1
290
0
176
1
 90
50
176
1
 62
256
176
0
 40
1.0
176
0
 90
2
176
1
  1
strokes_ogs.tif
176
1
290
0
176
1
 40
1.0
176
1
 40
1.0
176
1
  0
VISUALSTYLE
  5
7FE
102
{ACAD_REACTORS
330
7F2
102
}
330
7F2
100
AcDbVisualStyle
  2
Brighten
 70
12
177
3
291
1
 70
58
 90
2
176
1
 90
2
176
1
 90
0
176
1
 90
0
176
1
 40
0.6
176
1
 40
30.0
176
1
 62
7
420
16777215
176
1
 90
1
176
1
 90
4
176
1
 62
7
176
1
 62
257
176
1
 90
1
176
1
 90
1
176
1
 40
1.0
176
1
 90
8
176
1
 62
7
176
1
 40
1.0
176
1
 90
1
176
1
 90
6
176
1
 90
2
176
1
 62
7
176
1
 90
5
176
1
 90
0
176
1
 90
0
176
1
290
0
176
1
 90
1
176
1
 40
50.0
176
1
 90
0
176
1
290
0
176
1
290
1
176
1
290
1
176
1
290
0
176
1
290
0
176
1
290
0
176
1
290
0
176
1
290
0
176
1
290
0
176
1
 90
50
176
1
 40
0.0
176
1
 40
1.0
176
1
 90
0
176
1
 62
18
420
0
176
1
 90
50
176
1
 90
3
176
1
 62
5
420
255
176
1
290
0
176
1
 90
50
176
1
 90
50
176
1
 90
50
176
1
290
0
176
1
 90
50
176
1
 62
256
176
0
 40
1.0
176
0
 90
2
176
1
  1
strokes_ogs.tif
176
1
290
0
176
1
 40
1.0
176
1
 40
1.0
176
1
  0
VISUALSTYLE
  5
802
102
{ACAD_REACTORS
330
7F2
102
}
330
7F2
100
AcDbVisualStyle
  2
ColorChange
 70
16
177
3
291
1
 70
58
 90
2
176
1
 90
2
176
1
 90
3
176
1
 90
0
176
1
 40
0.6
176
1
 40
30.0
176
1
 62
8
420
8421504
176
1
 90
1
176
1
 90
4
176
1
 62
7
176
1
 62
257
176
1
 90
1
176
1
 90
1
176
1
 40
1.0
176
1
 90
8
176
1
 62
8
420
8421504
176
1
 40
1.0
176
1
 90
1
176
1
 90
6
176
1
 90
2
176
1
 62
7
176
1
 90
5
176
1
 90
0
176
1
 90
0
176
1
290
0
176
1
 90
1
176
1
 40
0.0
176
1
 90
0
176
1
290
0
176
1
290
1
176
1
290
1
176
1
290
0
176
1
290
0
176
1
290
0
176
1
290
0
176
1
290
0
176
1
290
0
176
1
 90
50
176
1
 40
0.0
176
1
 40
1.0
176
1
 90
0
176
1
 62
18
420
0
176
1
 90
50
176
1
 90
3
176
1
 62
5
420
255
176
1
290
0
176
1
 90
50
176
1
 90
50
176
1
 90
50
176
1
290
0
176
1
 90
50
176
1
 62
256
176
0
 40
1.0
176
0
 90
2
176
1
  1
strokes_ogs.tif
176
1
290
0
176
1
 40
1.0
176
1
 40
1.0
176
1
  0
VISUALSTYLE
  5
7FC
102
{ACAD_REACTORS
330
7F2
102
}
330
7F2
100
AcDbVisualStyle
  2
Conceptual
 70
9
177
3
291
0
 70
58
 90
3
176
1
 90
2
176
1
 90
0
176
1
 90
0
176
1
 40
0.6
176
1
 40
30.0
176
1
 62
7
420
16777215
176
1
 90
2
176
1
 90
2
176
1
 62
7
176
1
 62
257
176
1
 90
1
176
1
 90
1
176
1
 40
179.0
176
1
 90
8
176
1
 62
7
176
1
 40
1.0
176
1
 90
1
176
1
 90
6
176
1
 90
2
176
1
 62
7
176
1
 90
3
176
1
 90
0
176
1
 90
0
176
1
290
0
176
1
 90
1
176
1
 40
0.0
176
1
 90
0
176
1
290
0
176
1
290
1
176
1
290
1
176
1
290
0
176
1
290
0
176
1
290
0
176
1
290
0
176
1
290
0
176
1
290
0
176
1
 90
50
176
1
 40
0.0
176
1
 40
1.0
176
1
 90
0
176
1
 62
18
420
0
176
1
 90
50
176
1
 90
3
176
1
 62
5
420
255
176
1
290
0
176
1
 90
50
176
1
 90
50
176
1
 90
50
176
1
290
0
176
1
 90
50
176
1
 62
256
176
0
 40
1.0
176
0
 90
2
176
1
  1
strokes_ogs.tif
176
1
290
0
176
1
 40
1.0
176
1
 40
1.0
176
1
  0
VISUALSTYLE
  5
7FD
102
{ACAD_REACTORS
330
7F2
102
}
330
7F2
100
AcDbVisualStyle
  2
Dim
 70
11
177
3
291
1
 70
58
 90
2
176
1
 90
2
176
1
 90
0
176
1
 90
0
176
1
 40
0.6
176
1
 40
30.0
176
1
 62
7
420
16777215
176
1
 90
1
176
1
 90
4
176
1
 62
7
176
1
 62
257
176
1
 90
1
176
1
 90
1
176
1
 40
1.0
176
1
 90
8
176
1
 62
7
176
1
 40
1.0
176
1
 90
1
176
1
 90
6
176
1
 90
2
176
1
 62
7
176
1
 90
5
176
1
 90
0
176
1
 90
0
176
1
290
0
176
1
 90
1
176
1
 40
-50.0
176
1
 90
0
176
1
290
0
176
1
290
1
176
1
290
1
176
1
290
0
176
1
290
0
176
1
290
0
176
1
290
0
176
1
290
0
176
1
290
0
176
1
 90
50
176
1
 40
0.0
176
1
 40
1.0
176
1
 90
0
176
1
 62
18
420
0
176
1
 90
50
176
1
 90
3
176
1
 62
5
420
255
176
1
290
0
176
1
 90
50
176
1
 90
50
176
1
 90
50
176
1
290
0
176
1
 90
50
176
1
 62
256
176
0
 40
1.0
176
0
 90
2
176
1
  1
strokes_ogs.tif
176
1
290
0
176
1
 40
1.0
176
1
 40
1.0
176
1
  0
VISUALSTYLE
  5
805
102
{ACAD_REACTORS
330
7F2
102
}
330
7F2
100
AcDbVisualStyle
  2
EdgeColorOff
 70
22
177
3
291
1
 70
58
 90
2
176
0
 90
2
176
0
 90
0
176
0
 90
0
176
0
 40
0.6
176
0
 40
30.0
176
0
 62
7
420
16777215
176
0
 90
1
176
0
 90
4
176
0
 62
7
176
0
 62
257
176
0
 90
1
176
0
 90
1
176
0
 40
1.0
176
0
 90
8
176
2
 62
7
176
0
 40
1.0
176
0
 90
1
176
0
 90
6
176
0
 90
2
176
0
 62
7
176
0
 90
5
176
0
 90
0
176
0
 90
0
176
0
290
0
176
0
 90
1
176
0
 40
0.0
176
0
 90
0
176
0
290
0
176
0
290
1
176
0
290
1
176
0
290
0
176
0
290
0
176
0
290
0
176
0
290
0
176
0
290
0
176
0
290
0
176
0
 90
50
176
0
 40
0.0
176
0
 40
1.0
176
0
 90
0
176
0
 62
18
420
0
176
0
 90
50
176
0
 90
3
176
0
 62
5
420
255
176
0
290
0
176
0
 90
50
176
0
 90
50
176
0
 90
50
176
0
290
0
176
0
 90
50
176
0
 62
256
176
0
 40
1.0
176
0
 90
2
176
0
  1
strokes_ogs.tif
176
0
290
0
176
0
 40
1.0
176
0
 40
1.0
176
0
  0
VISUALSTYLE
  5
801
102
{ACAD_REACTORS
330
7F2
102
}
330
7F2
100
AcDbVisualStyle
  2
Facepattern
 70
15
177
3
291
1
 70
58
 90
2
176
1
 90
2
176
1
 90
0
176
1
 90
0
176
1
 40
0.6
176
1
 40
30.0
176
1
 62
7
420
16777215
176
1
 90
1
176
1
 90
4
176
1
 62
7
176
1
 62
257
176
1
 90
1
176
1
 90
1
176
1
 40
1.0
176
1
 90
8
176
1
 62
7
176
1
 40
1.0
176
1
 90
1
176
1
 90
6
176
1
 90
2
176
1
 62
7
176
1
 90
5
176
1
 90
0
176
1
 90
0
176
1
290
0
176
1
 90
1
176
1
 40
0.0
176
1
 90
0
176
1
290
0
176
1
290
1
176
1
290
1
176
1
290
0
176
1
290
0
176
1
290
0
176
1
290
0
176
1
290
0
176
1
290
0
176
1
 90
50
176
1
 40
0.0
176
1
 40
1.0
176
1
 90
0
176
1
 62
18
420
0
176
1
 90
50
176
1
 90
3
176
1
 62
5
420
255
176
1
290
0
176
1
 90
50
176
1
 90
50
176
1
 90
50
176
1
290
0
176
1
 90
50
176
1
 62
256
176
0
 40
1.0
176
0
 90
2
176
1
  1
strokes_ogs.tif
176
1
290
0
176
1
 40
1.0
176
1
 40
1.0
176
1
  0
VISUALSTYLE
  5
7F3
102
{ACAD_REACTORS
330
7F2
102
}
330
7F2
100
AcDbVisualStyle
  2
Flat
 70
0
177
3
291
1
 70
58
 90
2
176
1
 90
1
176
1
 90
1
176
1
 90
2
176
1
 40
0.6
176
1
 40
30.0
176
1
 62
7
420
16777215
176
1
 90
0
176
1
 90
0
176
1
 62
7
176
1
 62
257
176
1
 90
1
176
1
 90
1
176
1
 40
1.0
176
1
 90
8
176
1
 62
7
176
1
 40
1.0
176
1
 90
1
176
1
 90
6
176
1
 90
2
176
1
 62
7
176
1
 90
5
176
1
 90
0
176
1
 90
0
176
1
290
0
176
1
 90
13
176
1
 40
0.0
176
1
 90
0
176
1
290
0
176
1
290
1
176
1
290
1
176
1
290
0
176
1
290
0
176
1
290
0
176
1
290
0
176
1
290
0
176
1
290
0
176
1
 90
50
176
1
 40
0.0
176
1
 40
1.0
176
1
 90
0
176
1
 62
18
420
0
176
1
 90
50
176
1
 90
3
176
1
 62
5
420
255
176
1
290
0
176
1
 90
50
176
1
 90
50
176
1
 90
50
176
1
290
0
176
1
 90
50
176
1
 62
256
176
0
 40
1.0
176
0
 90
2
176
1
  1
strokes_ogs.tif
176
1
290
0
176
1
 40
1.0
176
1
 40
1.0
176
1
  0
VISUALSTYLE
  5
7F4
102
{ACAD_REACTORS
330
7F2
102
}
330
7F2
100
AcDbVisualStyle
  2
FlatWithEdges
 70
1
177
3
291
1
 70
58
 90
2
176
1
 90
1
176
1
 90
1
176
1
 90
2
176
1
 40
0.6
176
1
 40
30.0
176
1
 62
7
420
16777215
176
1
 90
1
176
1
 90
0
176
1
 62
7
176
1
 62
257
176
1
 90
1
176
1
 90
1
176
1
 40
1.0
176
1
 90
0
176
1
 62
257
176
1
 40
1.0
176
1
 90
1
176
1
 90
6
176
1
 90
2
176
1
 62
7
176
1
 90
5
176
1
 90
0
176
1
 90
0
176
1
290
0
176
1
 90
13
176
1
 40
0.0
176
1
 90
0
176
1
290
0
176
1
290
1
176
1
290
1
176
1
290
0
176
1
290
0
176
1
290
0
176
1
290
0
176
1
290
0
176
1
290
0
176
1
 90
50
176
1
 40
0.0
176
1
 40
1.0
176
1
 90
0
176
1
 62
18
420
0
176
1
 90
50
176
1
 90
3
176
1
 62
5
420
255
176
1
290
0
176
1
 90
50
176
1
 90
50
176
1
 90
50
176
1
290
0
176
1
 90
50
176
1
 62
256
176
0
 40
1.0
176
0
 90
2
176
1
  1
strokes_ogs.tif
176
1
290
0
176
1
 40
1.0
176
1
 40
1.0
176
1
  0
VISUALSTYLE
  5
7F5
102
{ACAD_REACTORS
330
7F2
102
}
330
7F2
100
AcDbVisualStyle
  2
Gouraud
 70
2
177
3
291
1
 70
58
 90
2
176
1
 90
2
176
1
 90
1
176
1
 90
2
176
1
 40
0.6
176
1
 40
30.0
176
1
 62
7
420
16777215
176
1
 90
0
176
1
 90
0
176
1
 62
7
176
1
 62
257
176
1
 90
1
176
1
 90
1
176
1
 40
1.0
176
1
 90
0
176
1
 62
7
176
1
 40
1.0
176
1
 90
1
176
1
 90
6
176
1
 90
2
176
1
 62
7
176
1
 90
5
176
1
 90
0
176
1
 90
0
176
1
290
0
176
1
 90
13
176
1
 40
0.0
176
1
 90
0
176
1
290
0
176
1
290
1
176
1
290
1
176
1
290
0
176
1
290
0
176
1
290
0
176
1
290
0
176
1
290
0
176
1
290
0
176
1
 90
50
176
1
 40
0.0
176
1
 40
1.0
176
1
 90
0
176
1
 62
18
420
0
176
1
 90
50
176
1
 90
3
176
1
 62
5
420
255
176
1
290
0
176
1
 90
50
176
1
 90
50
176
1
 90
50
176
1
290
0
176
1
 90
50
176
1
 62
256
176
0
 40
1.0
176
0
 90
2
176
1
  1
strokes_ogs.tif
176
1
290
0
176
1
 40
1.0
176
1
 40
1.0
176
1
  0
VISUALSTYLE
  5
7F6
102
{ACAD_REACTORS
330
7F2
102
}
330
7F2
100
AcDbVisualStyle
  2
GouraudWithEdges
 70
3
177
3
291
1
 70
58
 90
2
176
1
 90
2
176
1
 90
1
176
1
 90
2
176
1
 40
0.6
176
1
 40
30.0
176
1
 62
7
420
16777215
176
1
 90
1
176
1
 90
0
176
1
 62
7
176
1
 62
257
176
1
 90
1
176
1
 90
1
176
1
 40
1.0
176
1
 90
0
176
1
 62
257
176
1
 40
1.0
176
1
 90
1
176
1
 90
6
176
1
 90
2
176
1
 62
7
176
1
 90
5
176
1
 90
0
176
1
 90
0
176
1
290
0
176
1
 90
13
176
1
 40
0.0
176
1
 90
0
176
1
290
0
176
1
290
1
176
1
290
1
176
1
290
0
176
1
290
0
176
1
290
0
176
1
290
0
176
1
290
0
176
1
290
0
176
1
 90
50
176
1
 40
0.0
176
1
 40
1.0
176
1
 90
0
176
1
 62
18
420
0
176
1
 90
50
176
1
 90
3
176
1
 62
5
420
255
176
1
290
0
176
1
 90
50
176
1
 90
50
176
1
 90
50
176
1
290
0
176
1
 90
50
176
1
 62
256
176
0
 40
1.0
176
0
 90
2
176
1
  1
strokes_ogs.tif
176
1
290
0
176
1
 40
1.0
176
1
 40
1.0
176
1
  0
VISUALSTYLE
  5
7F9
102
{ACAD_REACTORS
330
7F2
102
}
330
7F2
100
AcDbVisualStyle
  2
Hidden
 70
6
177
3
291
0
 70
58
 90
1
176
1
 90
2
176
1
 90
2
176
1
 90
0
176
1
 40
0.6
176
1
 40
30.0
176
1
 62
7
420
16777215
176
1
 90
2
176
1
 90
2
176
1
 62
7
176
1
 62
257
176
1
 90
2
176
1
 90
1
176
1
 40
40.0
176
1
 90
0
176
1
 62
257
176
1
 40
1.0
176
1
 90
1
176
1
 90
6
176
1
 90
2
176
1
 62
7
176
1
 90
3
176
1
 90
0
176
1
 90
0
176
1
290
0
176
1
 90
1
176
1
 40
0.0
176
1
 90
0
176
1
290
0
176
1
290
1
176
1
290
1
176
1
290
0
176
1
290
0
176
1
290
0
176
1
290
0
176
1
290
0
176
1
290
0
176
1
 90
50
176
1
 40
0.0
176
1
 40
1.0
176
1
 90
0
176
1
 62
18
420
0
176
1
 90
50
176
1
 90
3
176
1
 62
5
420
255
176
1
290
0
176
1
 90
50
176
1
 90
50
176
1
 90
50
176
1
290
0
176
1
 90
50
176
1
 62
256
176
0
 40
1.0
176
0
 90
2
176
1
  1
strokes_ogs.tif
176
1
290
0
176
1
 40
1.0
176
1
 40
1.0
176
1
  0
VISUALSTYLE
  5
803
102
{ACAD_REACTORS
330
7F2
102
}
330
7F2
100
AcDbVisualStyle
  2
JitterOff
 70
20
177
3
291
1
 70
58
 90
2
176
0
 90
2
176
0
 90
0
176
0
 90
0
176
0
 40
0.6
176
0
 40
30.0
176
0
 62
7
420
16777215
176
0
 90
1
176
0
 90
4
176
0
 62
7
176
0
 62
257
176
0
 90
1
176
0
 90
1
176
0
 40
1.0
176
0
 90
10
176
2
 62
7
176
0
 40
1.0
176
0
 90
1
176
0
 90
6
176
0
 90
2
176
0
 62
7
176
0
 90
5
176
0
 90
0
176
0
 90
0
176
0
290
0
176
0
 90
1
176
0
 40
0.0
176
0
 90
0
176
0
290
0
176
0
290
1
176
0
290
1
176
0
290
0
176
0
290
0
176
0
290
0
176
0
290
0
176
0
290
0
176
0
290
0
176
0
 90
50
176
0
 40
0.0
176
0
 40
1.0
176
0
 90
0
176
0
 62
18
420
0
176
0
 90
50
176
0
 90
3
176
0
 62
5
420
255
176
0
290
0
176
0
 90
50
176
0
 90
50
176
0
 90
50
176
0
290
0
176
0
 90
50
176
0
 62
256
176
0
 40
1.0
176
0
 90
2
176
0
  1
strokes_ogs.tif
176
0
290
0
176
0
 40
1.0
176
0
 40
1.0
176
0
  0
VISUALSTYLE
  5
800
102
{ACAD_REACTORS
330
7F2
102
}
330
7F2
100
AcDbVisualStyle
  2
Linepattern
 70
14
177
3
291
1
 70
58
 90
2
176
1
 90
2
176
1
 90
0
176
1
 90
0
176
1
 40
0.6
176
1
 40
30.0
176
1
 62
7
420
16777215
176
1
 90
1
176
1
 90
4
176
1
 62
7
176
1
 62
257
176
1
 90
7
176
1
 90
7
176
1
 40
1.0
176
1
 90
8
176
1
 62
7
176
1
 40
1.0
176
1
 90
1
176
1
 90
6
176
1
 90
2
176
1
 62
7
176
1
 90
5
176
1
 90
0
176
1
 90
0
176
1
290
0
176
1
 90
1
176
1
 40
0.0
176
1
 90
0
176
1
290
0
176
1
290
1
176
1
290
1
176
1
290
0
176
1
290
0
176
1
290
0
176
1
290
0
176
1
290
0
176
1
290
0
176
1
 90
50
176
1
 40
0.0
176
1
 40
1.0
176
1
 90
0
176
1
 62
18
420
0
176
1
 90
50
176
1
 90
3
176
1
 62
5
420
255
176
1
290
0
176
1
 90
50
176
1
 90
50
176
1
 90
50
176
1
290
0
176
1
 90
50
176
1
 62
256
176
0
 40
1.0
176
0
 90
2
176
1
  1
strokes_ogs.tif
176
1
290
0
176
1
 40
1.0
176
1
 40
1.0
176
1
  0
VISUALSTYLE
  5
804
102
{ACAD_REACTORS
330
7F2
102
}
330
7F2
100
AcDbVisualStyle
  2
OverhangOff
 70
21
177
3
291
1
 70
58
 90
2
176
0
 90
2
176
0
 90
0
176
0
 90
0
176
0
 40
0.6
176
0
 40
30.0
176
0
 62
7
420
16777215
176
0
 90
1
176
0
 90
4
176
0
 62
7
176
0
 62
257
176
0
 90
1
176
0
 90
1
176
0
 40
1.0
176
0
 90
9
176
2
 62
7
176
0
 40
1.0
176
0
 90
1
176
0
 90
6
176
0
 90
2
176
0
 62
7
176
0
 90
5
176
0
 90
0
176
0
 90
0
176
0
290
0
176
0
 90
1
176
0
 40
0.0
176
0
 90
0
176
0
290
0
176
0
290
1
176
0
290
1
176
0
290
0
176
0
290
0
176
0
290
0
176
0
290
0
176
0
290
0
176
0
290
0
176
0
 90
50
176
0
 40
0.0
176
0
 40
1.0
176
0
 90
0
176
0
 62
18
420
0
176
0
 90
50
176
0
 90
3
176
0
 62
5
420
255
176
0
290
0
176
0
 90
50
176
0
 90
50
176
0
 90
50
176
0
290
0
176
0
 90
50
176
0
 62
256
176
0
 40
1.0
176
0
 90
2
176
0
  1
strokes_ogs.tif
176
0
290
0
176
0
 40
1.0
176
0
 40
1.0
176
0
  0
VISUALSTYLE
  5
7FB
102
{ACAD_REACTORS
330
7F2
102
}
330
7F2
100
AcDbVisualStyle
  2
Realistic
 70
8
177
3
291
0
 70
58
 90
2
176
1
 90
3
176
1
 90
0
176
1
 90
2
176
1
 40
0.6
176
1
 40
30.0
176
1
 62
7
420
16777215
176
1
 90
0
176
1
 90
0
176
1
 62
7
176
1
 62
257
176
1
 90
1
176
1
 90
1
176
1
 40
1.0
176
1
 90
8
176
1
 62
257
176
1
 40
1.0
176
1
 90
1
176
1
 90
6
176
1
 90
2
176
1
 62
7
176
1
 90
3
176
1
 90
0
176
1
 90
0
176
1
290
0
176
1
 90
13
176
1
 40
0.0
176
1
 90
0
176
1
290
0
176
1
290
1
176
1
290
1
176
1
290
0
176
1
290
0
176
1
290
0
176
1
290
0
176
1
290
0
176
1
290
0
176
1
 90
50
176
1
 40
0.0
176
1
 40
1.0
176
1
 90
0
176
1
 62
18
420
0
176
1
 90
50
176
1
 90
3
176
1
 62
5
420
255
176
1
290
0
176
1
 90
50
176
1
 90
50
176
1
 90
50
176
1
290
0
176
1
 90
50
176
1
 62
256
176
0
 40
1.0
176
0
 90
2
176
1
  1
strokes_ogs.tif
176
1
290
0
176
1
 40
1.0
176
1
 40
1.0
176
1
  0
VISUALSTYLE
  5
80A
102
{ACAD_REACTORS
330
7F2
102
}
330
7F2
100
AcDbVisualStyle
  2
Shaded
 70
27
177
3
291
0
 70
58
 90
2
176
1
 90
2
176
1
 90
1
176
1
 90
2
176
1
 40
0.6
176
1
 40
30.0
176
1
 62
7
420
16777215
176
1
 90
0
176
1
 90
4
176
1
 62
7
176
1
 62
257
176
1
 90
1
176
1
 90
1
176
1
 40
1.0
176
1
 90
8
176
1
 62
257
176
1
 40
1.0
176
1
 90
1
176
1
 90
6
176
1
 90
2
176
1
 62
8
420
7895160
176
1
 90
3
176
1
 90
0
176
1
 90
0
176
1
290
0
176
1
 90
5
176
1
 40
0.0
176
1
 90
0
176
1
290
0
176
1
290
1
176
1
290
1
176
1
290
0
176
1
290
0
176
1
290
0
176
1
290
0
176
1
290
0
176
1
290
0
176
1
 90
50
176
1
 40
0.0
176
1
 40
1.0
176
1
 90
0
176
1
 62
18
420
0
176
1
 90
50
176
1
 90
3
176
1
 62
5
420
255
176
1
290
0
176
1
 90
50
176
1
 90
50
176
1
 90
50
176
1
290
0
176
1
 90
50
176
1
 62
256
176
0
 40
1.0
176
0
 90
2
176
1
  1
strokes_ogs.tif
176
1
290
0
176
1
 40
1.0
176
1
 40
1.0
176
1
  0
VISUALSTYLE
  5
809
102
{ACAD_REACTORS
330
7F2
102
}
330
7F2
100
AcDbVisualStyle
  2
Shaded with edges
 70
26
177
3
291
0
 70
58
 90
2
176
1
 90
2
176
1
 90
1
176
1
 90
2
176
1
 40
0.6
176
1
 40
30.0
176
1
 62
7
420
16777215
176
1
 90
1
176
1
 90
10
176
1
 62
7
176
1
 62
257
176
1
 90
2
176
1
 90
1
176
1
 40
1.0
176
1
 90
8
176
1
 62
257
176
1
 40
1.0
176
1
 90
1
176
1
 90
6
176
1
 90
2
176
1
 62
7
176
1
 90
3
176
1
 90
0
176
1
 90
0
176
1
290
0
176
1
 90
5
176
1
 40
0.0
176
1
 90
0
176
1
290
0
176
1
290
1
176
1
290
1
176
1
290
0
176
1
290
0
176
1
290
0
176
1
290
0
176
1
290
0
176
1
290
0
176
1
 90
50
176
1
 40
0.0
176
1
 40
1.0
176
1
 90
0
176
1
 62
18
420
0
176
1
 90
50
176
1
 90
3
176
1
 62
5
420
255
176
1
290
0
176
1
 90
50
176
1
 90
50
176
1
 90
50
176
1
290
0
176
1
 90
50
176
1
 62
256
176
0
 40
1.0
176
0
 90
2
176
1
  1
strokes_ogs.tif
176
1
290
0
176
1
 40
1.0
176
1
 40
1.0
176
1
  0
VISUALSTYLE
  5
806
102
{ACAD_REACTORS
330
7F2
102
}
330
7F2
100
AcDbVisualStyle
  2
Shades of Gray
 70
23
177
3
291
0
 70
58
 90
2
176
1
 90
2
176
1
 90
3
176
1
 90
0
176
1
 40
0.6
176
1
 40
30.0
176
1
 62
7
420
16777215
176
1
 90
2
176
1
 90
2
176
1
 62
7
176
1
 62
7
176
1
 90
1
176
1
 90
1
176
1
 40
40.0
176
1
 90
8
176
1
 62
7
176
1
 40
1.0
176
1
 90
1
176
1
 90
6
176
1
 90
2
176
1
 62
7
176
1
 90
3
176
1
 90
0
176
1
 90
0
176
1
290
0
176
1
 90
1
176
1
 40
0.0
176
1
 90
0
176
1
290
0
176
1
290
1
176
1
290
1
176
1
290
0
176
1
290
0
176
1
290
0
176
1
290
0
176
1
290
0
176
1
290
0
176
1
 90
50
176
1
 40
0.0
176
1
 40
1.0
176
1
 90
0
176
1
 62
18
420
0
176
1
 90
50
176
1
 90
3
176
1
 62
5
420
255
176
1
290
0
176
1
 90
50
176
1
 90
50
176
1
 90
50
176
1
290
0
176
1
 90
50
176
1
 62
256
176
0
 40
1.0
176
0
 90
2
176
1
  1
strokes_ogs.tif
176
1
290
0
176
1
 40
1.0
176
1
 40
1.0
176
1
  0
VISUALSTYLE
  5
807
102
{ACAD_REACTORS
330
7F2
102
}
330
7F2
100
AcDbVisualStyle
  2
Sketchy
 70
24
177
3
291
0
 70
58
 90
1
176
1
 90
2
176
1
 90
2
176
1
 90
0
176
1
 40
0.6
176
1
 40
30.0
176
1
 62
7
420
16777215
176
1
 90
2
176
1
 90
2
176
1
 62
7
176
1
 62
7
176
1
 90
1
176
1
 90
1
176
1
 40
40.0
176
1
 90
11
176
1
 62
7
176
1
 40
1.0
176
1
 90
1
176
1
 90
6
176
1
 90
2
176
1
 62
7
176
1
 90
6
176
1
 90
0
176
1
 90
0
176
1
290
0
176
1
 90
1
176
1
 40
0.0
176
1
 90
0
176
1
290
0
176
1
290
1
176
1
290
1
176
1
290
0
176
1
290
0
176
1
290
0
176
1
290
0
176
1
290
0
176
1
290
0
176
1
 90
50
176
1
 40
0.0
176
1
 40
1.0
176
1
 90
0
176
1
 62
18
420
0
176
1
 90
50
176
1
 90
3
176
1
 62
5
420
255
176
1
290
0
176
1
 90
50
176
1
 90
50
176
1
 90
50
176
1
290
0
176
1
 90
50
176
1
 62
256
176
0
 40
1.0
176
0
 90
2
176
1
  1
strokes_ogs.tif
176
1
290
0
176
1
 40
1.0
176
1
 40
1.0
176
1
  0
VISUALSTYLE
  5
7FF
102
{ACAD_REACTORS
330
7F2
102
}
330
7F2
100
AcDbVisualStyle
  2
Thicken
 70
13
177
3
291
1
 70
58
 90
2
176
1
 90
2
176
1
 90
0
176
1
 90
0
176
1
 40
0.6
176
1
 40
30.0
176
1
 62
7
420
16777215
176
1
 90
1
176
1
 90
4
176
1
 62
7
176
1
 62
257
176
1
 90
1
176
1
 90
1
176
1
 40
1.0
176
1
 90
12
176
1
 62
7
176
1
 40
1.0
176
1
 90
1
176
1
 90
6
176
1
 90
2
176
1
 62
7
176
1
 90
5
176
1
 90
0
176
1
 90
0
176
1
290
0
176
1
 90
1
176
1
 40
0.0
176
1
 90
0
176
1
290
0
176
1
290
1
176
1
290
1
176
1
290
0
176
1
290
0
176
1
290
0
176
1
290
0
176
1
290
0
176
1
290
0
176
1
 90
50
176
1
 40
0.0
176
1
 40
1.0
176
1
 90
0
176
1
 62
18
420
0
176
1
 90
50
176
1
 90
3
176
1
 62
5
420
255
176
1
290
0
176
1
 90
50
176
1
 90
50
176
1
 90
50
176
1
290
0
176
1
 90
50
176
1
 62
256
176
0
 40
1.0
176
0
 90
2
176
1
  1
strokes_ogs.tif
176
1
290
0
176
1
 40
1.0
176
1
 40
1.0
176
1
  0
VISUALSTYLE
  5
7F8
102
{ACAD_REACTORS
330
7F2
102
}
330
7F2
100
AcDbVisualStyle
  2
Wireframe
 70
5
177
3
291
0
 70
58
 90
0
176
1
 90
2
176
1
 90
0
176
1
 90
0
176
1
 40
0.6
176
1
 40
30.0
176
1
 62
7
420
16777215
176
1
 90
1
176
1
 90
4
176
1
 62
7
176
1
 62
257
176
1
 90
1
176
1
 90
1
176
1
 40
1.0
176
1
 90
0
176
1
 62
257
176
1
 40
1.0
176
1
 90
1
176
1
 90
6
176
1
 90
2
176
1
 62
7
176
1
 90
3
176
1
 90
0
176
1
 90
0
176
1
290
0
176
1
 90
1
176
1
 40
0.0
176
1
 90
0
176
1
290
0
176
1
290
1
176
1
290
1
176
1
290
0
176
1
290
0
176
1
290
0
176
1
290
0
176
1
290
0
176
1
290
0
176
1
 90
50
176
1
 40
0.0
176
1
 40
1.0
176
1
 90
0
176
1
 62
18
420
0
176
1
 90
50
176
1
 90
3
176
1
 62
5
420
255
176
1
290
0
176
1
 90
50
176
1
 90
50
176
1
 90
50
176
1
290
0
176
1
 90
50
176
1
 62
256
176
0
 40
1.0
176
0
 90
2
176
1
  1
strokes_ogs.tif
176
1
290
0
176
1
 40
1.0
176
1
 40
1.0
176
1
  0
VISUALSTYLE
  5
808
102
{ACAD_REACTORS
330
7F2
102
}
330
7F2
100
AcDbVisualStyle
  2
X-Ray
 70
25
177
3
291
0
 70
58
 90
2
176
1
 90
2
176
1
 90
1
176
1
 90
1
176
1
 40
0.5
176
1
 40
30.0
176
1
 62
7
420
16777215
176
1
 90
1
176
1
 90
0
176
1
 62
7
176
1
 62
257
176
1
 90
1
176
1
 90
1
176
1
 40
1.0
176
1
 90
8
176
1
 62
7
176
1
 40
1.0
176
1
 90
1
176
1
 90
6
176
1
 90
2
176
1
 62
7
176
1
 90
3
176
1
 90
0
176
1
 90
0
176
1
290
0
176
1
 90
13
176
1
 40
0.0
176
1
 90
0
176
1
290
0
176
1
290
1
176
1
290
1
176
1
290
0
176
1
290
0
176
1
290
0
176
1
290
0
176
1
290
0
176
1
290
0
176
1
 90
50
176
1
 40
0.0
176
1
 40
1.0
176
1
 90
0
176
1
 62
18
420
0
176
1
 90
50
176
1
 90
3
176
1
 62
5
420
255
176
1
290
0
176
1
 90
50
176
1
 90
50
176
1
 90
50
176
1
290
0
176
1
 90
50
176
1
 62
256
176
0
 40
1.0
176
0
 90
2
176
1
  1
strokes_ogs.tif
176
1
290
0
176
1
 40
1.0
176
1
 40
1.0
176
1
  0
DICTIONARYVAR
  5
814
102
{ACAD_REACTORS
330
813
102
}
330
813
100
DictionaryVariables
280
0
  1
1:1
  0
DICTIONARYVAR
  5
819
102
{ACAD_REACTORS
330
813
102
}
330
813
100
DictionaryVariables
280
0
  1
Standard
  0
DICTIONARYVAR
  5
818
102
{ACAD_REACTORS
330
813
102
}
330
813
100
DictionaryVariables
280
0
  1
Standard
  0
DICTIONARYVAR
  5
81A
102
{ACAD_REACTORS
330
813
102
}
330
813
100
DictionaryVariables
280
0
  1
0
  0
DICTIONARY
  5
815
330
810
100
AcDbDictionary
280
1
281
1
  3
ACAD_ROUNDTRIP_2008_TABLESTYLE_CELLSTYLEMAP
360
816
  0
CELLSTYLEMAP
  5
816
102
{ACAD_REACTORS
330
815
102
}
330
815
100
AcDbCellStyleMap
 90
3
300
CELLSTYLE
  1
TABLEFORMAT_BEGIN
 90
5
170
1
 91
0
 92
32768
 62
257
 93
1
300
CONTENTFORMAT
  1
CONTENTFORMAT_BEGIN
 90
0
 91
0
 92
4
 93
0
300

 40
0.0
140
1.0
 94
5
 62
0
340
11
144
6.0
309
CONTENTFORMAT_END
171
1
301
MARGIN
  1
CELLMARGIN_BEGIN
 40
1.5
 40
1.5
 40
1.5
 40
1.5
 40
1.5
 40
1.5
309
CELLMARGIN_END
 94
6
 95
1
302
GRIDFORMAT
  1
GRIDFORMAT_BEGIN
 90
0
 91
1
 62
0
 92
-2
340
14
 93
0
 40
0.045
309
GRIDFORMAT_END
 95
2
302
GRIDFORMAT
  1
GRIDFORMAT_BEGIN
 90
0
 91
1
 62
0
 92
-2
340
14
 93
0
 40
0.045
309
GRIDFORMAT_END
 95
4
302
GRIDFORMAT
  1
GRIDFORMAT_BEGIN
 90
0
 91
1
 62
0
 92
-2
340
14
 93
0
 40
0.045
309
GRIDFORMAT_END
 95
8
302
GRIDFORMAT
  1
GRIDFORMAT_BEGIN
 90
0
 91
1
 62
0
 92
-2
340
14
 93
0
 40
0.045
309
GRIDFORMAT_END
 95
16
302
GRIDFORMAT
  1
GRIDFORMAT_BEGIN
 90
0
 91
1
 62
0
 92
-2
340
14
 93
0
 40
0.045
309
GRIDFORMAT_END
 95
32
302
GRIDFORMAT
  1
GRIDFORMAT_BEGIN
 90
0
 91
1
 62
0
 92
-2
340
14
 93
0
 40
0.045
309
GRIDFORMAT_END
309
TABLEFORMAT_END
  1
CELLSTYLE_BEGIN
 90
1
 91
1
300
_TITLE
309
CELLSTYLE_END
300
CELLSTYLE
  1
TABLEFORMAT_BEGIN
 90
5
170
1
 91
0
 92
0
 62
257
 93
1
300
CONTENTFORMAT
  1
CONTENTFORMAT_BEGIN
 90
0
 91
0
 92
4
 93
0
300

 40
0.0
140
1.0
 94
5
 62
0
340
11
144
4.5
309
CONTENTFORMAT_END
171
1
301
MARGIN
  1
CELLMARGIN_BEGIN
 40
1.5
 40
1.5
 40
1.5
 40
1.5
 40
1.5
 40
1.5
309
CELLMARGIN_END
 94
6
 95
1
302
GRIDFORMAT
  1
GRIDFORMAT_BEGIN
 90
0
 91
1
 62
0
 92
-2
340
14
 93
0
 40
0.045
309
GRIDFORMAT_END
 95
2
302
GRIDFORMAT
  1
GRIDFORMAT_BEGIN
 90
0
 91
1
 62
0
 92
-2
340
14
 93
0
 40
0.045
309
GRIDFORMAT_END
 95
4
302
GRIDFORMAT
  1
GRIDFORMAT_BEGIN
 90
0
 91
1
 62
0
 92
-2
340
14
 93
0
 40
0.045
309
GRIDFORMAT_END
 95
8
302
GRIDFORMAT
  1
GRIDFORMAT_BEGIN
 90
0
 91
1
 62
0
 92
-2
340
14
 93
0
 40
0.045
309
GRIDFORMAT_END
 95
16
302
GRIDFORMAT
  1
GRIDFORMAT_BEGIN
 90
0
 91
1
 62
0
 92
-2
340
14
 93
0
 40
0.045
309
GRIDFORMAT_END
 95
32
302
GRIDFORMAT
  1
GRIDFORMAT_BEGIN
 90
0
 91
1
 62
0
 92
-2
340
14
 93
0
 40
0.045
309
GRIDFORMAT_END
309
TABLEFORMAT_END
  1
CELLSTYLE_BEGIN
 90
2
 91
1
300
_HEADER
309
CELLSTYLE_END
300
CELLSTYLE
  1
TABLEFORMAT_BEGIN
 90
5
170
1
 91
0
 92
0
 62
257
 93
1
300
CONTENTFORMAT
  1
CONTENTFORMAT_BEGIN
 90
0
 91
0
 92
4
 93
0
300

 40
0.0
140
1.0
 94
2
 62
0
340
11
144
4.5
309
CONTENTFORMAT_END
171
1
301
MARGIN
  1
CELLMARGIN_BEGIN
 40
1.5
 40
1.5
 40
1.5
 40
1.5
 40
1.5
 40
1.5
309
CELLMARGIN_END
 94
6
 95
1
302
GRIDFORMAT
  1
GRIDFORMAT_BEGIN
 90
0
 91
1
 62
0
 92
-2
340
14
 93
0
 40
0.045
309
GRIDFORMAT_END
 95
2
302
GRIDFORMAT
  1
GRIDFORMAT_BEGIN
 90
0
 91
1
 62
0
 92
-2
340
14
 93
0
 40
0.045
309
GRIDFORMAT_END
 95
4
302
GRIDFORMAT
  1
GRIDFORMAT_BEGIN
 90
0
 91
1
 62
0
 92
-2
340
14
 93
0
 40
0.045
309
GRIDFORMAT_END
 95
8
302
GRIDFORMAT
  1
GRIDFORMAT_BEGIN
 90
0
 91
1
 62
0
 92
-2
340
14
 93
0
 40
0.045
309
GRIDFORMAT_END
 95
16
302
GRIDFORMAT
  1
GRIDFORMAT_BEGIN
 90
0
 91
1
 62
0
 92
-2
340
14
 93
0
 40
0.045
309
GRIDFORMAT_END
 95
32
302
GRIDFORMAT
  1
GRIDFORMAT_BEGIN
 90
0
 91
1
 62
0
 92
-2
340
14
 93
0
 40
0.045
309
GRIDFORMAT_END
309
TABLEFORMAT_END
  1
CELLSTYLE_BEGIN
 90
3
 91
2
300
_DATA
309
CELLSTYLE_END
  0
DICTIONARY
  5
81D
330
C
100
AcDbDictionary
281
1
  0
DICTIONARY
  5
822
330
C
100
AcDbDictionary
280
1
281
1
  3
WRITTEN_BY_EZDXF
350
823
  0
DICTIONARYVAR
  5
823
330
822
100
DictionaryVariables
280
0
  1
1.4.3 @ 2025-12-17T10:21:10.575767+00:00
  0
ENDSEC
  0
EOF
