  0
SECTION
  2
HEADER
  9
$ACADVER
  1
AC1032
  9
$ACADMAINTVER
 90
4
  9
$DWGCODEPAGE
  3
ANSI_1252
  9
$LASTSAVEDBY
  1
cipulot
  9
$REQUIREDVERSIONS
160
0
  9
$INSBASE
 10
0.0
 20
0.0
 30
0.0
  9
$EXTMIN
 10
1e+20
 20
1e+20
 30
1e+20
  9
$EXTMAX
 10
-1e+20
 20
-1e+20
 30
-1e+20
  9
$LIMMIN
 10
0.0
 20
0.0
  9
$LIMMAX
 10
12.0
 20
9.0
  9
$ORTHOMODE
 70
0
  9
$REGENMODE
 70
1
  9
$FILLMODE
 70
1
  9
$QTEXTMODE
 70
0
  9
$MIRRTEXT
 70
1
  9
$LTSCALE
 40
1.0
  9
$ATTMODE
 70
1
  9
$TEXTSIZE
 40
0.2
  9
$TRACEWID
 40
0.05
  9
$TEXTSTYLE
  7
Standard
  9
$CLAYER
  8
0
  9
$CELTYPE
  6
ByBlock
  9
$CECOLOR
 62
256
  9
$CELTSCALE
 40
1.0
  9
$DISPSILH
 70
0
  9
$DIMSCALE
 40
1.0
  9
$DIMASZ
 40
0.18
  9
$DIMEXO
 40
0.0625
  9
$DIMDLI
 40
0.38
  9
$DIMRND
 40
0.0
  9
$DIMDLE
 40
0.0
  9
$DIMEXE
 40
0.18
  9
$DIMTP
 40
0.0
  9
$DIMTM
 40
0.0
  9
$DIMTXT
 40
0.18
  9
$DIMCEN
 40
0.09
  9
$DIMTSZ
 40
0.0
  9
$DIMTOL
 70
0
  9
$DIMLIM
 70
0
  9
$DIMTIH
 70
1
  9
$DIMTOH
 70
1
  9
$DIMSE1
 70
0
  9
$DIMSE2
 70
0
  9
$DIMTAD
 70
0
  9
$DIMZIN
 70
0
  9
$DIMBLK
  1

  9
$DIMASO
 70
1
  9
$DIMSHO
 70
1
  9
$DIMPOST
  1

  9
$DIMAPOST
  1

  9
$DIMALT
 70
0
  9
$DIMALTD
 70
2
  9
$DIMALTF
 40
25.4
  9
$DIMLFAC
 40
1.0
  9
$DIMTOFL
 70
0
  9
$DIMTVP
 40
0.0
  9
$DIMTIX
 70
0
  9
$DIMSOXD
 70
0
  9
$DIMSAH
 70
0
  9
$DIMBLK1
  1

  9
$DIMBLK2
  1

  9
$DIMSTYLE
  2
ISO-25
  9
$DIMCLRD
 70
0
  9
$DIMCLRE
 70
0
  9
$DIMCLRT
 70
0
  9
$DIMTFAC
 40
1.0
  9
$DIMGAP
 40
0.09
  9
$DIMJUST
 70
0
  9
$DIMSD1
 70
0
  9
$DIMSD2
 70
0
  9
$DIMTOLJ
 70
1
  9
$DIMTZIN
 70
0
  9
$DIMALTZ
 70
0
  9
$DIMALTTZ
 70
0
  9
$DIMUPT
 70
0
  9
$DIMDEC
 70
4
  9
$DIMTDEC
 70
4
  9
$DIMALTU
 70
2
  9
$DIMALTTD
 70
2
  9
$DIMTXSTY
  7
Standard
  9
$DIMAUNIT
 70
0
  9
$DIMADEC
 70
0
  9
$DIMALTRND
 40
0.0
  9
$DIMAZIN
 70
0
  9
$DIMDSEP
 70
46
  9
$DIMATFIT
 70
3
  9
$DIMFRAC
 70
0
  9
$DIMLDRBLK
  1

  9
$DIMLUNIT
 70
2
  9
$DIMLWD
 70
-2
  9
$DIMLWE
 70
-2
  9
$DIMTMOVE
 70
2
  9
$DIMFXL
 40
1.0
  9
$DIMFXLON
 70
0
  9
$DIMJOGANG
 40
0.7853981633974483
  9
$DIMTFILL
 70
0
  9
$DIMTFILLCLR
 70
0
  9
$DIMARCSYM
 70
0
  9
$DIMLTYPE
  6

  9
$DIMLTEX1
  6

  9
$DIMLTEX2
  6

  9
$DIMTXTDIRECTION
 70
0
  9
$LUNITS
 70
2
  9
$LUPREC
 70
4
  9
$SKETCHINC
 40
0.1
  9
$FILLETRAD
 40
0.0
  9
$AUNITS
 70
0
  9
$AUPREC
 70
0
  9
$MENU
  1
.
  9
$ELEVATION
 40
0.0
  9
$PELEVATION
 40
0.0
  9
$THICKNESS
 40
0.0
  9
$LIMCHECK
 70
0
  9
$CHAMFERA
 40
0.0
  9
$CHAMFERB
 40
0.0
  9
$CHAMFERC
 40
0.0
  9
$CHAMFERD
 40
0.0
  9
$SKPOLY
 70
0
  9
$TDCREATE
 40
2461027.4730439815
  9
$TDUCREATE
 40
2461027.430991551
  9
$TDUPDATE
 40
2461027.4730439815
  9
$TDUUPDATE
 40
2461027.430991632
  9
$TDINDWG
 40
1.16e-08
  9
$TDUSRTIMER
 40
1.16e-08
  9
$USRTIMER
 70
1
  9
$ANGBASE
 50
0.0
  9
$ANGDIR
 70
1
  9
$PDMODE
 70
0
  9
$PDSIZE
 40
0.0
  9
$PLINEWID
 40
0.0
  9
$SPLFRAME
 70
0
  9
$SPLINETYPE
 70
6
  9
$SPLINESEGS
 70
8
  9
$HANDSEED
  5
850
  9
$SURFTAB1
 70
6
  9
$SURFTAB2
 70
6
  9
$SURFTYPE
 70
6
  9
$SURFU
 70
6
  9
$SURFV
 70
6
  9
$UCSBASE
  2

  9
$UCSNAME
  2

  9
$UCSORG
 10
0.0
 20
0.0
 30
0.0
  9
$UCSXDIR
 10
1.0
 20
0.0
 30
0.0
  9
$UCSYDIR
 10
0.0
 20
1.0
 30
0.0
  9
$UCSORTHOREF
  2

  9
$UCSORTHOVIEW
 70
0
  9
$UCSORGTOP
 10
0.0
 20
0.0
 30
0.0
  9
$UCSORGBOTTOM
 10
0.0
 20
0.0
 30
0.0
  9
$UCSORGLEFT
 10
0.0
 20
0.0
 30
0.0
  9
$UCSORGRIGHT
 10
0.0
 20
0.0
 30
0.0
  9
$UCSORGFRONT
 10
0.0
 20
0.0
 30
0.0
  9
$UCSORGBACK
 10
0.0
 20
0.0
 30
0.0
  9
$PUCSBASE
  2

  9
$PUCSNAME
  2

  9
$PUCSORG
 10
0.0
 20
0.0
 30
0.0
  9
$PUCSXDIR
 10
1.0
 20
0.0
 30
0.0
  9
$PUCSYDIR
 10
0.0
 20
1.0
 30
0.0
  9
$PUCSORTHOREF
  2

  9
$PUCSORTHOVIEW
 70
0
  9
$PUCSORGTOP
 10
0.0
 20
0.0
 30
0.0
  9
$PUCSORGBOTTOM
 10
0.0
 20
0.0
 30
0.0
  9
$PUCSORGLEFT
 10
0.0
 20
0.0
 30
0.0
  9
$PUCSORGRIGHT
 10
0.0
 20
0.0
 30
0.0
  9
$PUCSORGFRONT
 10
0.0
 20
0.0
 30
0.0
  9
$PUCSORGBACK
 10
0.0
 20
0.0
 30
0.0
  9
$USERI1
 70
0
  9
$USERI2
 70
0
  9
$USERI3
 70
0
  9
$USERI4
 70
0
  9
$USERI5
 70
0
  9
$USERR1
 40
0.0
  9
$USERR2
 40
0.0
  9
$USERR3
 40
0.0
  9
$USERR4
 40
0.0
  9
$USERR5
 40
0.0
  9
$WORLDVIEW
 70
1
  9
$SHADEDGE
 70
3
  9
$SHADEDIF
 70
70
  9
$TILEMODE
 70
1
  9
$MAXACTVP
 70
64
  9
$PINSBASE
 10
0.0
 20
0.0
 30
0.0
  9
$PLIMCHECK
 70
0
  9
$PEXTMIN
 10
1e+20
 20
1e+20
 30
1e+20
  9
$PEXTMAX
 10
-1e+20
 20
-1e+20
 30
-1e+20
  9
$PLIMMIN
 10
0.0
 20
0.0
  9
$PLIMMAX
 10
12.0
 20
9.0
  9
$UNITMODE
 70
0
  9
$VISRETAIN
 70
1
  9
$PLINEGEN
 70
0
  9
$PSLTSCALE
 70
1
  9
$TREEDEPTH
 70
3020
  9
$CMLSTYLE
  2
Standard
  9
$CMLJUST
 70
0
  9
$CMLSCALE
 40
1.0
  9
$PROXYGRAPHICS
 70
1
  9
$MEASUREMENT
 70
1
  9
$CELWEIGHT
370
-1
  9
$ENDCAPS
280
0
  9
$JOINSTYLE
280
0
  9
$LWDISPLAY
290
0
  9
$INSUNITS
 70
4
  9
$HYPERLINKBASE
  1

  9
$STYLESHEET
  1

  9
$XEDIT
290
1
  9
$CEPSNTYPE
380
0
  9
$PSTYLEMODE
290
1
  9
$FINGERPRINTGUID
  2
{501d41df-99a3-c24d-a169-dab3241e1cbd}
  9
$VERSIONGUID
  2
{366A3CCD-D69E-47D8-89AE-18E593716433}
  9
$EXTNAMES
290
1
  9
$PSVPSCALE
 40
0.0
  9
$OLESTARTUP
290
0
  9
$SORTENTS
280
127
  9
$INDEXCTL
280
0
  9
$HIDETEXT
280
1
  9
$XCLIPFRAME
280
2
  9
$HALOGAP
280
0
  9
$OBSCOLOR
 70
257
  9
$OBSLTYPE
280
0
  9
$INTERSECTIONDISPLAY
280
0
  9
$INTERSECTIONCOLOR
 70
257
  9
$DIMASSOC
280
2
  9
$PROJECTNAME
  1

  9
$CAMERADISPLAY
290
0
  9
$LENSLENGTH
 40
50.0
  9
$CAMERAHEIGHT
 40
0.0
  9
$STEPSPERSEC
 40
2.0
  9
$STEPSIZE
 40
6.0
  9
$3DDWFPREC
 40
2.0
  9
$PSOLWIDTH
 40
0.25
  9
$PSOLHEIGHT
 40
4.0
  9
$LOFTANG1
 40
1.570796326794897
  9
$LOFTANG2
 40
1.570796326794897
  9
$LOFTMAG1
 40
0.0
  9
$LOFTMAG2
 40
0.0
  9
$LOFTPARAM
 70
7
  9
$LOFTNORMALS
280
1
  9
$LATITUDE
 40
37.795
  9
$LONGITUDE
 40
-122.394
  9
$NORTHDIRECTION
 40
0.0
  9
$TIMEZONE
 70
-8000
  9
$LIGHTGLYPHDISPLAY
280
1
  9
$TILEMODELIGHTSYNCH
280
1
  9
$CMATERIAL
347
7E7
  9
$SOLIDHIST
280
0
  9
$SHOWHIST
280
1
  9
$DWFFRAME
280
2
  9
$DGNFRAME
280
2
  9
$REALWORLDSCALE
290
1
  9
$INTERFERECOLOR
 62
256
  9
$CSHADOW
280
0
  9
$SHADOWPLANELOCATION
 40
0.0
  0
ENDSEC
  0
SECTION
  2
CLASSES
  0
CLASS
  1
ACDBDICTIONARYWDFLT
  2
AcDbDictionaryWithDefault
  3
ObjectDBX Classes
 90
0
 91
3
280
0
281
0
  0
CLASS
  1
SCALE
  2
AcDbScale
  3
ObjectDBX Classes
 90
1153
 91
3
280
0
281
0
  0
CLASS
  1
VISUALSTYLE
  2
AcDbVisualStyle
  3
ObjectDBX Classes
 90
4095
 91
3
280
0
281
0
  0
CLASS
  1
MATERIAL
  2
AcDbMaterial
  3
ObjectDBX Classes
 90
1153
 91
3
280
0
281
0
  0
CLASS
  1
TABLESTYLE
  2
AcDbTableStyle
  3
ObjectDBX Classes
 90
4095
 91
3
280
0
281
0
  0
CLASS
  1
MLEADERSTYLE
  2
AcDbMLeaderStyle
  3
ACDB_MLEADERSTYLE_CLASS
 90
4095
 91
3
280
0
281
0
  0
CLASS
  1
DICTIONARYVAR
  2
AcDbDictionaryVar
  3
ObjectDBX Classes
 90
0
 91
3
280
0
281
0
  0
CLASS
  1
CELLSTYLEMAP
  2
AcDbCellStyleMap
  3
ObjectDBX Classes
 90
1152
 91
3
280
0
281
0
  0
CLASS
  1
SUN
  2
AcDbSun
  3
SCENEOE
 90
1153
 91
0
280
0
281
0
  0
CLASS
  1
MENTALRAYRENDERSETTINGS
  2
AcDbMentalRayRenderSettings
  3
SCENEOE
 90
1024
 91
0
280
0
281
0
  0
CLASS
  1
ACDBDETAILVIEWSTYLE
  2
AcDbDetailViewStyle
  3
ObjectDBX Classes
 90
1025
 91
0
280
0
281
0
  0
CLASS
  1
ACDBSECTIONVIEWSTYLE
  2
AcDbSectionViewStyle
  3
ObjectDBX Classes
 90
1025
 91
0
280
0
281
0
  0
CLASS
  1
RASTERVARIABLES
  2
AcDbRasterVariables
  3
ISM
 90
0
 91
0
280
0
281
0
  0
CLASS
  1
ACDBPLACEHOLDER
  2
AcDbPlaceHolder
  3
ObjectDBX Classes
 90
0
 91
0
280
0
281
0
  0
CLASS
  1
LAYOUT
  2
AcDbLayout
  3
ObjectDBX Classes
 90
0
 91
0
280
0
281
0
  0
ENDSEC
  0
SECTION
  2
TABLES
  0
TABLE
  2
VPORT
  5
8
330
0
100
AcDbSymbolTable
 70
1
  0
VPORT
  5
442
330
8
100
AcDbSymbolTableRecord
100
AcDbViewportTableRecord
  2
*Active
 70
0
 10
0.0
 20
0.0
 11
1.0
 21
1.0
 12
344.1869158878504
 22
148.5
 13
0.0
 23
0.0
 14
10.0
 24
10.0
 15
10.0
 25
10.0
 16
0.0
 26
0.0
 36
1.0
 17
0.0
 27
0.0
 37
0.0
 40
297.0
 41
1.972972972850329
 42
50.0
 43
0.0
 44
0.0
 50
0.0
 51
0.0
 71
0
 72
100
 73
1
 74
3
 75
0
 76
0
 77
0
 78
0
281
0
 65
1
110
0.0
120
0.0
130
0.0
111
1.0
121
0.0
131
0.0
112
0.0
122
1.0
132
0.0
 79
0
146
0.0
 60
3
 61
5
348
7D2
292
1
282
1
141
0.0
142
0.0
 63
250
  0
ENDTAB
  0
TABLE
  2
LTYPE
  5
5
330
0
100
AcDbSymbolTable
 70
6
  0
LTYPE
  5
14
330
5
100
AcDbSymbolTableRecord
100
AcDbLinetypeTableRecord
  2
ByBlock
 70
0
  3

 72
65
 73
0
 40
0.0
  0
LTYPE
  5
15
330
5
100
AcDbSymbolTableRecord
100
AcDbLinetypeTableRecord
  2
ByLayer
 70
0
  3

 72
65
 73
0
 40
0.0
  0
LTYPE
  5
16
330
5
100
AcDbSymbolTableRecord
100
AcDbLinetypeTableRecord
  2
CONTINUOUS
 70
0
  3
Solid line
 72
65
 73
0
 40
0.0
  0
LTYPE
  5
410
330
5
100
AcDbSymbolTableRecord
100
AcDbLinetypeTableRecord
  2
DASHDOT
 70
0
  3
Dash Dot ____ _ ____ _
 72
65
 73
4
 40
2.0
 49
1.25
 74
0
 49
-0.25
 74
0
 49
0.25
 74
0
 49
-0.25
 74
0
  0
LTYPE
  5
411
330
5
100
AcDbSymbolTableRecord
100
AcDbLinetypeTableRecord
  2
DASHED
 70
0
  3
Dashed __ __ __ __ __
 72
65
 73
2
 40
0.75
 49
0.5
 74
0
 49
-0.25
 74
0
  0
LTYPE
  5
43B
330
5
100
AcDbSymbolTableRecord
100
AcDbLinetypeTableRecord
  2
DOTTED
 70
0
  3
Dotted .  .  .  .
 72
65
 73
2
 40
0.2
 49
0.0
 74
0
 49
-0.2
 74
0
  0
ENDTAB
  0
TABLE
  2
LAYER
  5
2
330
0
100
AcDbSymbolTable
 70
3
  0
LAYER
  5
10
330
2
100
AcDbSymbolTableRecord
100
AcDbLayerTableRecord
  2
0
 70
0
 62
7
  6
CONTINUOUS
370
-3
390
F
347
7E9
348
0
  0
LAYER
  5
440
330
2
100
AcDbSymbolTableRecord
100
AcDbLayerTableRecord
  2
BLACK
 70
0
 62
7
  6
CONTINUOUS
370
-3
390
F
347
7E9
348
0
  0
LAYER
  5
7F9
330
2
100
AcDbSymbolTableRecord
100
AcDbLayerTableRecord
  2
Defpoints
 70
0
 62
7
  6
Continuous
290
0
370
-3
390
F
347
7E9
  0
ENDTAB
  0
TABLE
  2
STYLE
  5
3
330
0
100
AcDbSymbolTable
 70
5
  0
STYLE
  5
11
330
3
100
AcDbSymbolTableRecord
100
AcDbTextStyleTableRecord
  2
Standard
 70
0
 40
0.0
 41
1.0
 50
0.0
 71
0
 42
0.2
  3
txt
  4

  0
STYLE
  5
43C
330
3
100
AcDbSymbolTableRecord
100
AcDbTextStyleTableRecord
  2
KICAD
 70
0
 40
0.0
 41
1.0
 50
0.0
 71
0
 42
1.0
  3
isocp.shx
  4

  0
STYLE
  5
43D
330
3
100
AcDbSymbolTableRecord
100
AcDbTextStyleTableRecord
  2
KICADB
 70
0
 40
0.0
 41
1.0
 50
0.0
 71
0
 42
1.0
  3
isocp.shx
  4

  0
STYLE
  5
43E
330
3
100
AcDbSymbolTableRecord
100
AcDbTextStyleTableRecord
  2
KICADI
 70
0
 40
0.0
 41
1.0
 50
15.0
 71
0
 42
1.0
  3
isocp.shx
  4

  0
STYLE
  5
43F
330
3
100
AcDbSymbolTableRecord
100
AcDbTextStyleTableRecord
  2
KICADBI
 70
0
 40
0.0
 41
1.0
 50
15.0
 71
0
 42
1.0
  3
isocp.shx
  4

  0
ENDTAB
  0
TABLE
  2
VIEW
  5
6
330
0
100
AcDbSymbolTable
 70
0
  0
ENDTAB
  0
TABLE
  2
UCS
  5
7
330
0
100
AcDbSymbolTable
 70
0
  0
ENDTAB
  0
TABLE
  2
APPID
  5
9
330
0
100
AcDbSymbolTable
 70
3
  0
APPID
  5
12
330
9
100
AcDbSymbolTableRecord
100
AcDbRegAppTableRecord
  2
ACAD
 70
0
  0
APPID
  5
7FB
330
9
100
AcDbSymbolTableRecord
100
AcDbRegAppTableRecord
  2
HATCHBACKGROUNDCOLOR
 70
0
  0
APPID
  5
7FC
330
9
100
AcDbSymbolTableRecord
100
AcDbRegAppTableRecord
  2
EZDXF
 70
0
  0
ENDTAB
  0
TABLE
  2
DIMSTYLE
  5
A
330
0
100
AcDbSymbolTable
 70
2
100
AcDbDimStyleTable
  0
DIMSTYLE
105
441
330
A
100
AcDbSymbolTableRecord
100
AcDbDimStyleTableRecord
  2
ISO-25
 70
0
 40
1.0
 41
2.5
 42
0.625
 43
3.75
 44
1.25
 45
0.0
 46
0.0
 47
0.0
 48
0.0
 49
2.5
140
2.5
141
2.5
142
0.0
143
0.03937007874016
144
1.0
145
0.0
146
1.0
147
0.625
148
0.0
 69
0
 70
0
 71
0
 72
0
 73
0
 74
0
 75
0
 76
0
 77
1
 78
8
 79
3
170
0
171
3
172
1
173
0
174
0
175
0
176
0
177
0
178
0
179
2
271
2
272
2
273
2
274
3
275
0
276
0
277
2
278
44
279
0
280
0
281
0
282
0
283
0
284
8
285
0
286
0
288
0
289
3
290
0
340
11
371
-2
372
-2
  0
DIMSTYLE
105
7FA
330
A
100
AcDbSymbolTableRecord
100
AcDbDimStyleTableRecord
  2
Standard
 70
0
 40
1.0
 41
2.5
 42
0.625
 43
3.75
 44
1.25
 45
0.0
 46
0.0
 47
0.0
 48
0.0
 49
2.5
140
2.5
141
2.5
142
0.0
143
0.03937007874
144
1.0
145
0.0
146
1.0
147
0.625
148
0.0
 69
0
 70
0
 71
0
 72
0
 73
0
 74
0
 75
0
 76
0
 77
1
 78
8
 79
3
170
0
171
3
172
1
173
0
174
0
175
0
176
0
177
0
178
0
179
2
271
2
272
2
273
2
274
3
275
0
276
0
277
2
278
44
279
0
280
0
281
0
282
0
283
0
284
8
285
0
286
0
288
0
289
3
290
0
371
-2
372
-2
  0
ENDTAB
  0
TABLE
  2
BLOCK_RECORD
  5
1
330
0
100
AcDbSymbolTable
 70
2
  0
BLOCK_RECORD
  5
1D
330
1
100
AcDbSymbolTableRecord
100
AcDbBlockTableRecord
  2
*Model_Space
340
1E
 70
0
280
1
281
0
  0
BLOCK_RECORD
  5
1B
330
1
100
AcDbSymbolTableRecord
100
AcDbBlockTableRecord
  2
*Paper_Space
340
1C
 70
0
280
1
281
0
  0
ENDTAB
  0
ENDSEC
  0
SECTION
  2
BLOCKS
  0
BLOCK
  5
7C9
330
1D
100
AcDbEntity
  8
0
100
AcDbBlockBegin
  2
*Model_Space
 70
0
 10
0.0
 20
0.0
 30
0.0
  3
*Model_Space
  1

  0
ENDBLK
  5
7CA
330
1D
100
AcDbEntity
  8
0
100
AcDbBlockEnd
  0
BLOCK
  5
7CB
330
1B
100
AcDbEntity
 67
1
  8
0
100
AcDbBlockBegin
  2
*Paper_Space
 70
0
 10
0.0
 20
0.0
 30
0.0
  3
*Paper_Space
  1

  0
ENDBLK
  5
7CC
330
1B
100
AcDbEntity
 67
1
  8
0
100
AcDbBlockEnd
  0
ENDSEC
  0
SECTION
  2
ENTITIES
  0
LINE
  5
443
330
1D
100
AcDbEntity
  8
BLACK
  6
Continuous
100
AcDbLine
 10
9.898753
 20
-65.084989
 30
0.0
 11
9.898752
 21
-65.084989
 31
0.0
  0
LINE
  5
444
330
1D
100
AcDbEntity
  8
BLACK
  6
Continuous
100
AcDbLine
 10
36.776409
 20
-63.965456
 30
0.0
 11
36.776409
 21
-63.965439
 31
0.0
  0
LINE
  5
445
330
1D
100
AcDbEntity
  8
BLACK
  6
Continuous
100
AcDbLine
 10
38.605348
 20
-54.939559
 30
0.0
 11
38.605373
 21
-54.939559
 31
0.0
  0
LINE
  5
446
330
1D
100
AcDbEntity
  8
BLACK
  6
Continuous
100
AcDbLine
 10
35.454095
 20
-52.934278
 30
0.0
 11
35.454104
 21
-52.934275
 31
0.0
  0
LINE
  5
447
330
1D
100
AcDbEntity
  8
BLACK
  6
Continuous
100
AcDbLine
 10
172.319622
 20
-96.19453999999999
 30
0.0
 11
172.319621
 21
-96.194541
 31
0.0
  0
LINE
  5
448
330
1D
100
AcDbEntity
  8
BLACK
  6
Continuous
100
AcDbLine
 10
195.565637
 20
-92.49755599999999
 30
0.0
 11
195.565637
 21
-92.497554
 31
0.0
  0
LINE
  5
449
330
1D
100
AcDbEntity
  8
BLACK
  6
Continuous
100
AcDbLine
 10
198.289556
 20
-80.302375
 30
0.0
 11
198.28958
 21
-80.30237
 31
0.0
  0
LINE
  5
44A
330
1D
100
AcDbEntity
  8
BLACK
  6
Continuous
100
AcDbLine
 10
194.790243
 20
-78.99609699999999
 30
0.0
 11
194.790252
 21
-78.99609099999999
 31
0.0
  0
LINE
  5
44B
330
1D
100
AcDbEntity
  8
BLACK
  6
Continuous
100
AcDbLine
 10
282.305004
 20
-46.03499
 30
0.0
 11
282.305003
 21
-46.03499
 31
0.0
  0
LINE
  5
44C
330
1D
100
AcDbEntity
  8
BLACK
  6
Continuous
100
AcDbLine
 10
309.574717
 20
-44.915436
 30
0.0
 11
309.574717
 21
-44.91544
 31
0.0
  0
LINE
  5
44D
330
1D
100
AcDbEntity
  8
BLACK
  6
Continuous
100
AcDbLine
 10
307.860346
 20
-33.884279
 30
0.0
 11
307.860355
 21
-33.884276
 31
0.0
  0
LINE
  5
44E
330
1D
100
AcDbEntity
  8
BLACK
  6
Continuous
100
AcDbLine
 10
307.840609
 20
-85.438001
 30
0.0
 11
307.840609
 21
-85.43799899999999
 31
0.0
  0
LINE
  5
44F
330
1D
100
AcDbEntity
  8
BLACK
  6
Continuous
100
AcDbLine
 10
263.895009
 20
-66.340001
 30
0.0
 11
263.895009
 21
-66.34
 31
0.0
  0
LINE
  5
450
330
1D
100
AcDbEntity
  8
BLACK
  6
Continuous
100
AcDbLine
 10
251.27001
 20
-64.265001
 30
0.0
 11
251.270009
 21
-64.265001
 31
0.0
  0
LINE
  5
451
330
1D
100
AcDbEntity
  8
BLACK
  6
Continuous
100
AcDbLine
 10
208.691321
 20
0.453718
 30
0.0
 11
208.691322
 21
0.453718
 31
0.0
  0
LINE
  5
452
330
1D
100
AcDbEntity
  8
BLACK
  6
Continuous
100
AcDbLine
 10
177.27709
 20
-4.102234999999999
 30
0.0
 11
177.277088
 21
-4.102227
 31
0.0
  0
LINE
  5
453
330
1D
100
AcDbEntity
  8
BLACK
  6
Continuous
100
AcDbLine
 10
190.528091
 20
-15.700641
 30
0.0
 11
190.528091
 21
-15.700642
 31
0.0
  0
LINE
  5
454
330
1D
100
AcDbEntity
  8
BLACK
  6
Continuous
100
AcDbLine
 10
203.331321
 20
-20.156282
 30
0.0
 11
203.331322
 21
-20.156282
 31
0.0
  0
LINE
  5
455
330
1D
100
AcDbEntity
  8
BLACK
  6
Continuous
100
AcDbLine
 10
188.428091
 20
-74.57064199999999
 30
0.0
 11
188.428091
 21
-74.570641
 31
0.0
  0
LINE
  5
456
330
1D
100
AcDbEntity
  8
BLACK
  6
Continuous
100
AcDbLine
 10
175.17709
 20
-62.972235
 30
0.0
 11
175.177088
 21
-62.972227
 31
0.0
  0
LINE
  5
457
330
1D
100
AcDbEntity
  8
BLACK
  6
Continuous
100
AcDbLine
 10
185.168091
 20
-36.310642
 30
0.0
 11
185.168091
 21
-36.310641
 31
0.0
  0
LINE
  5
458
330
1D
100
AcDbEntity
  8
BLACK
  6
Continuous
100
AcDbLine
 10
171.91709
 20
-24.712235
 30
0.0
 11
171.917088
 21
-24.712227
 31
0.0
  0
LINE
  5
459
330
1D
100
AcDbEntity
  8
BLACK
  6
Continuous
100
AcDbLine
 10
234.32001
 20
-4.975001
 30
0.0
 11
234.320008
 21
-4.975001
 31
0.0
  0
LINE
  5
45A
330
1D
100
AcDbEntity
  8
BLACK
  6
Continuous
100
AcDbLine
 10
237.58001
 20
-45.215001
 30
0.0
 11
237.580008
 21
-45.215001
 31
0.0
  0
LINE
  5
45B
330
1D
100
AcDbEntity
  8
BLACK
  6
Continuous
100
AcDbLine
 10
244.845009
 20
-66.340001
 30
0.0
 11
244.845009
 21
-66.34
 31
0.0
  0
LINE
  5
45C
330
1D
100
AcDbEntity
  8
BLACK
  6
Continuous
100
AcDbLine
 10
232.22001
 20
-64.265001
 30
0.0
 11
232.220009
 21
-64.265001
 31
0.0
  0
LINE
  5
45D
330
1D
100
AcDbEntity
  8
BLACK
  6
Continuous
100
AcDbLine
 10
266.64001
 20
-26.165001
 30
0.0
 11
266.640009
 21
-26.165001
 31
0.0
  0
LINE
  5
45E
330
1D
100
AcDbEntity
  8
BLACK
  6
Continuous
100
AcDbLine
 10
279.265009
 20
-28.240001
 30
0.0
 11
279.265009
 21
-28.24
 31
0.0
  0
LINE
  5
45F
330
1D
100
AcDbEntity
  8
BLACK
  6
Continuous
100
AcDbLine
 10
290.46001
 20
-26.165001
 30
0.0
 11
290.460008
 21
-26.165001
 31
0.0
  0
LINE
  5
460
330
1D
100
AcDbEntity
  8
BLACK
  6
Continuous
100
AcDbLine
 10
225.225033
 20
-54.455564
 30
0.0
 11
225.225032
 21
-54.455564
 31
0.0
  0
LINE
  5
461
330
1D
100
AcDbEntity
  8
BLACK
  6
Continuous
100
AcDbLine
 10
206.591322
 20
-58.416282
 30
0.0
 11
206.591321
 21
-58.416282
 31
0.0
  0
LINE
  5
462
330
1D
100
AcDbEntity
  8
BLACK
  6
Continuous
100
AcDbLine
 10
230.585033
 20
-33.845565
 30
0.0
 11
230.585034
 21
-33.845565
 31
0.0
  0
LINE
  5
463
330
1D
100
AcDbEntity
  8
BLACK
  6
Continuous
100
AcDbLine
 10
227.325032
 20
4.414435
 30
0.0
 11
227.325033
 21
4.414435
 31
0.0
  0
LINE
  5
464
330
1D
100
AcDbEntity
  8
BLACK
  6
Continuous
100
AcDbLine
 10
269.255009
 20
-47.290001
 30
0.0
 11
269.255009
 21
-47.29
 31
0.0
  0
LINE
  5
465
330
1D
100
AcDbEntity
  8
BLACK
  6
Continuous
100
AcDbLine
 10
256.63001
 20
-45.215001
 30
0.0
 11
256.630009
 21
-45.215001
 31
0.0
  0
LINE
  5
466
330
1D
100
AcDbEntity
  8
BLACK
  6
Continuous
100
AcDbLine
 10
221.965033
 20
-16.195564
 30
0.0
 11
221.965034
 21
-16.195564
 31
0.0
  0
LINE
  5
467
330
1D
100
AcDbEntity
  8
BLACK
  6
Continuous
100
AcDbLine
 10
211.951321
 20
-37.806282
 30
0.0
 11
211.951322
 21
-37.806282
 31
0.0
  0
LINE
  5
468
330
1D
100
AcDbEntity
  8
BLACK
  6
Continuous
100
AcDbLine
 10
180.53709
 20
-42.362235
 30
0.0
 11
180.537088
 21
-42.362227
 31
0.0
  0
LINE
  5
469
330
1D
100
AcDbEntity
  8
BLACK
  6
Continuous
100
AcDbLine
 10
193.788091
 20
-53.960641
 30
0.0
 11
193.788091
 21
-53.960642
 31
0.0
  0
LINE
  5
46A
330
1D
100
AcDbEntity
  8
BLACK
  6
Continuous
100
AcDbLine
 10
230.035032
 20
-74.445565
 30
0.0
 11
230.035033
 21
-74.445565
 31
0.0
  0
LINE
  5
46B
330
1D
100
AcDbEntity
  8
BLACK
  6
Continuous
100
AcDbLine
 10
252.95001
 20
-7.115000999999999
 30
0.0
 11
252.950008
 21
-7.115000999999999
 31
0.0
  0
LINE
  5
46C
330
1D
100
AcDbEntity
  8
BLACK
  6
Continuous
100
AcDbLine
 10
121.657399
 20
-76.07028799999999
 30
0.0
 11
121.657398
 21
-76.07028799999999
 31
0.0
  0
LINE
  5
46D
330
1D
100
AcDbEntity
  8
BLACK
  6
Continuous
100
AcDbLine
 10
138.104866
 20
-69.394018
 30
0.0
 11
138.10489
 21
-69.39402299999999
 31
0.0
  0
LINE
  5
46E
330
1D
100
AcDbEntity
  8
BLACK
  6
Continuous
100
AcDbLine
 10
5.275009
 20
-7.050001
 30
0.0
 11
5.275009
 21
-7.05
 31
0.0
  0
LINE
  5
46F
330
1D
100
AcDbEntity
  8
BLACK
  6
Continuous
100
AcDbLine
 10
84.38997499999999
 20
-68.14885199999999
 30
0.0
 11
84.389974
 21
-68.14885199999999
 31
0.0
  0
LINE
  5
470
330
1D
100
AcDbEntity
  8
BLACK
  6
Continuous
100
AcDbLine
 10
96.30757
 20
-72.80336
 30
0.0
 11
96.30756799999999
 21
-72.803371
 31
0.0
  0
LINE
  5
471
330
1D
100
AcDbEntity
  8
BLACK
  6
Continuous
100
AcDbLine
 10
100.837465
 20
-61.472585
 30
0.0
 11
100.837466
 21
-61.472585
 31
0.0
  0
LINE
  5
472
330
1D
100
AcDbEntity
  8
BLACK
  6
Continuous
100
AcDbLine
 10
88.919842
 20
-56.81807
 30
0.0
 11
88.919844
 21
-56.818059
 31
0.0
  0
LINE
  5
473
330
1D
100
AcDbEntity
  8
BLACK
  6
Continuous
100
AcDbLine
 10
72.986263
 20
-7.298134999999999
 30
0.0
 11
72.986262
 21
-7.298134999999999
 31
0.0
  0
LINE
  5
474
330
1D
100
AcDbEntity
  8
BLACK
  6
Continuous
100
AcDbLine
 10
84.903874
 20
-11.952644
 30
0.0
 11
84.903871
 21
-11.952657
 31
0.0
  0
LINE
  5
475
330
1D
100
AcDbEntity
  8
BLACK
  6
Continuous
100
AcDbLine
 10
89.433753
 20
-0.621868
 30
0.0
 11
89.433754
 21
-0.621868
 31
0.0
  0
LINE
  5
476
330
1D
100
AcDbEntity
  8
BLACK
  6
Continuous
100
AcDbLine
 10
77.516145
 20
4.032643999999999
 30
0.0
 11
77.51614699999999
 21
4.032655
 31
0.0
  0
LINE
  5
477
330
1D
100
AcDbEntity
  8
BLACK
  6
Continuous
100
AcDbLine
 10
53.36001
 20
-4.975001
 30
0.0
 11
53.360008
 21
-4.975001
 31
0.0
  0
LINE
  5
478
330
1D
100
AcDbEntity
  8
BLACK
  6
Continuous
100
AcDbLine
 10
60.406263
 20
-43.578135
 30
0.0
 11
60.406262
 21
-43.578135
 31
0.0
  0
LINE
  5
479
330
1D
100
AcDbEntity
  8
BLACK
  6
Continuous
100
AcDbLine
 10
72.323874
 20
-48.232644
 30
0.0
 11
72.323871
 21
-48.232657
 31
0.0
  0
LINE
  5
47A
330
1D
100
AcDbEntity
  8
BLACK
  6
Continuous
100
AcDbLine
 10
76.853753
 20
-36.901868
 30
0.0
 11
76.853754
 21
-36.901868
 31
0.0
  0
LINE
  5
47B
330
1D
100
AcDbEntity
  8
BLACK
  6
Continuous
100
AcDbLine
 10
64.936145
 20
-32.247356
 30
0.0
 11
64.93614699999999
 21
-32.247345
 31
0.0
  0
LINE
  5
47C
330
1D
100
AcDbEntity
  8
BLACK
  6
Continuous
100
AcDbLine
 10
91.619975
 20
-11.258852
 30
0.0
 11
91.619974
 21
-11.258852
 31
0.0
  0
LINE
  5
47D
330
1D
100
AcDbEntity
  8
BLACK
  6
Continuous
100
AcDbLine
 10
103.53757
 20
-15.91336
 30
0.0
 11
103.537568
 21
-15.913371
 31
0.0
  0
LINE
  5
47E
330
1D
100
AcDbEntity
  8
BLACK
  6
Continuous
100
AcDbLine
 10
108.067465
 20
-4.582585
 30
0.0
 11
108.067466
 21
-4.582585
 31
0.0
  0
LINE
  5
47F
330
1D
100
AcDbEntity
  8
BLACK
  6
Continuous
100
AcDbLine
 10
96.14984199999999
 20
0.07193
 30
0.0
 11
96.149844
 21
0.071941
 31
0.0
  0
LINE
  5
480
330
1D
100
AcDbEntity
  8
BLACK
  6
Continuous
100
AcDbLine
 10
116.307399
 20
-55.460288
 30
0.0
 11
116.307398
 21
-55.460288
 31
0.0
  0
LINE
  5
481
330
1D
100
AcDbEntity
  8
BLACK
  6
Continuous
100
AcDbLine
 10
132.754866
 20
-48.784018
 30
0.0
 11
132.75489
 21
-48.784023
 31
0.0
  0
LINE
  5
482
330
1D
100
AcDbEntity
  8
BLACK
  6
Continuous
100
AcDbLine
 10
115.607399
 20
-35.830288
 30
0.0
 11
115.607398
 21
-35.830288
 31
0.0
  0
LINE
  5
483
330
1D
100
AcDbEntity
  8
BLACK
  6
Continuous
100
AcDbLine
 10
132.054866
 20
-29.154018
 30
0.0
 11
132.05489
 21
-29.154023
 31
0.0
  0
LINE
  5
484
330
1D
100
AcDbEntity
  8
BLACK
  6
Continuous
100
AcDbLine
 10
128.887399
 20
-19.180288
 30
0.0
 11
128.887398
 21
-19.180288
 31
0.0
  0
LINE
  5
485
330
1D
100
AcDbEntity
  8
BLACK
  6
Continuous
100
AcDbLine
 10
145.334866
 20
-12.504018
 30
0.0
 11
145.33489
 21
-12.504023
 31
0.0
  0
LINE
  5
486
330
1D
100
AcDbEntity
  8
BLACK
  6
Continuous
100
AcDbLine
 10
59.706263
 20
-23.948135
 30
0.0
 11
59.706262
 21
-23.948135
 31
0.0
  0
LINE
  5
487
330
1D
100
AcDbEntity
  8
BLACK
  6
Continuous
100
AcDbLine
 10
71.623874
 20
-28.602644
 30
0.0
 11
71.623871
 21
-28.602657
 31
0.0
  0
LINE
  5
488
330
1D
100
AcDbEntity
  8
BLACK
  6
Continuous
100
AcDbLine
 10
76.153753
 20
-17.271868
 30
0.0
 11
76.15375399999999
 21
-17.271868
 31
0.0
  0
LINE
  5
489
330
1D
100
AcDbEntity
  8
BLACK
  6
Continuous
100
AcDbLine
 10
64.236145
 20
-12.617356
 30
0.0
 11
64.236147
 21
-12.617345
 31
0.0
  0
LINE
  5
48A
330
1D
100
AcDbEntity
  8
BLACK
  6
Continuous
100
AcDbLine
 10
65.756263
 20
-64.188135
 30
0.0
 11
65.75626199999999
 21
-64.188135
 31
0.0
  0
LINE
  5
48B
330
1D
100
AcDbEntity
  8
BLACK
  6
Continuous
100
AcDbLine
 10
77.673874
 20
-68.84264399999999
 30
0.0
 11
77.67387099999999
 21
-68.842657
 31
0.0
  0
LINE
  5
48C
330
1D
100
AcDbEntity
  8
BLACK
  6
Continuous
100
AcDbLine
 10
82.20375299999999
 20
-57.511868
 30
0.0
 11
82.20375399999999
 21
-57.511868
 31
0.0
  0
LINE
  5
48D
330
1D
100
AcDbEntity
  8
BLACK
  6
Continuous
100
AcDbLine
 10
70.28614499999999
 20
-52.857356
 30
0.0
 11
70.286147
 21
-52.857345
 31
0.0
  0
LINE
  5
48E
330
1D
100
AcDbEntity
  8
BLACK
  6
Continuous
100
AcDbLine
 10
78.339975
 20
-27.908852
 30
0.0
 11
78.339974
 21
-27.908852
 31
0.0
  0
LINE
  5
48F
330
1D
100
AcDbEntity
  8
BLACK
  6
Continuous
100
AcDbLine
 10
90.25757
 20
-32.56336
 30
0.0
 11
90.25756799999999
 21
-32.563371
 31
0.0
  0
LINE
  5
490
330
1D
100
AcDbEntity
  8
BLACK
  6
Continuous
100
AcDbLine
 10
94.787465
 20
-21.232585
 30
0.0
 11
94.787466
 21
-21.232585
 31
0.0
  0
LINE
  5
491
330
1D
100
AcDbEntity
  8
BLACK
  6
Continuous
100
AcDbLine
 10
82.86984199999999
 20
-16.57807
 30
0.0
 11
82.869844
 21
-16.578059
 31
0.0
  0
LINE
  5
492
330
1D
100
AcDbEntity
  8
BLACK
  6
Continuous
100
AcDbLine
 10
79.039975
 20
-47.538852
 30
0.0
 11
79.039974
 21
-47.538852
 31
0.0
  0
LINE
  5
493
330
1D
100
AcDbEntity
  8
BLACK
  6
Continuous
100
AcDbLine
 10
90.95756999999999
 20
-52.19336
 30
0.0
 11
90.957568
 21
-52.193371
 31
0.0
  0
LINE
  5
494
330
1D
100
AcDbEntity
  8
BLACK
  6
Continuous
100
AcDbLine
 10
95.487465
 20
-40.862585
 30
0.0
 11
95.487466
 21
-40.862585
 31
0.0
  0
LINE
  5
495
330
1D
100
AcDbEntity
  8
BLACK
  6
Continuous
100
AcDbLine
 10
83.569842
 20
-36.20807
 30
0.0
 11
83.56984399999999
 21
-36.208059
 31
0.0
  0
LINE
  5
496
330
1D
100
AcDbEntity
  8
BLACK
  6
Continuous
100
AcDbLine
 10
60.94626299999999
 20
-84.178135
 30
0.0
 11
60.946262
 21
-84.178135
 31
0.0
  0
LINE
  5
497
330
1D
100
AcDbEntity
  8
BLACK
  6
Continuous
100
AcDbLine
 10
72.863874
 20
-88.832644
 30
0.0
 11
72.863871
 21
-88.832657
 31
0.0
  0
LINE
  5
498
330
1D
100
AcDbEntity
  8
BLACK
  6
Continuous
100
AcDbLine
 10
77.39375299999999
 20
-77.501868
 30
0.0
 11
77.393754
 21
-77.501868
 31
0.0
  0
LINE
  5
499
330
1D
100
AcDbEntity
  8
BLACK
  6
Continuous
100
AcDbLine
 10
65.476145
 20
-72.84735599999999
 30
0.0
 11
65.476147
 21
-72.84734499999999
 31
0.0
  0
LINE
  5
49A
330
1D
100
AcDbEntity
  8
BLACK
  6
Continuous
100
AcDbLine
 10
65.18573599999999
 20
12.769063
 30
0.0
 11
65.185738
 21
12.769074
 31
0.0
  0
LINE
  5
49B
330
1D
100
AcDbEntity
  8
BLACK
  6
Continuous
100
AcDbLine
 10
2.70001
 20
11.280006
 30
0.0
 11
2.699996
 21
11.280006
 31
0.0
  0
LINE
  5
49C
330
1D
100
AcDbEntity
  8
BLACK
  6
Continuous
100
AcDbLine
 10
103.906702
 20
-102.311463
 30
0.0
 11
103.906703
 21
-102.311459
 31
0.0
  0
LINE
  5
49D
330
1D
100
AcDbEntity
  8
BLACK
  6
Continuous
100
AcDbLine
 10
104.53047
 20
-99.376894
 30
0.0
 11
104.53047
 21
-99.376893
 31
0.0
  0
LINE
  5
49E
330
1D
100
AcDbEntity
  8
BLACK
  6
Continuous
100
AcDbLine
 10
0.999969
 20
10.779998
 30
0.0
 11
0.999969
 21
10.78
 31
0.0
  0
LINE
  5
49F
330
1D
100
AcDbEntity
  8
BLACK
  6
Continuous
100
AcDbLine
 10
197.74953
 20
-99.376982
 30
0.0
 11
197.749526
 21
-99.37696299999999
 31
0.0
  0
LINE
  5
4A0
330
1D
100
AcDbEntity
  8
BLACK
  6
Continuous
100
AcDbLine
 10
305.978759
 20
12.780081
 30
0.0
 11
305.978759
 21
12.780041
 31
0.0
  0
LINE
  5
4A1
330
1D
100
AcDbEntity
  8
BLACK
  6
Continuous
100
AcDbLine
 10
-2.700036
 20
12.279976
 30
0.0
 11
-2.700103
 21
12.279976
 31
0.0
  0
LINE
  5
4A2
330
1D
100
AcDbEntity
  8
BLACK
  6
Continuous
100
AcDbLine
 10
-2.500034
 20
-89.62002299999999
 30
0.0
 11
-2.500099
 21
-89.62002299999999
 31
0.0
  0
LINE
  5
4A3
330
1D
100
AcDbEntity
  8
BLACK
  6
Continuous
100
AcDbLine
 10
60.706329
 20
-96.96262
 30
0.0
 11
60.70632699999999
 21
-96.962631
 31
0.0
  0
LINE
  5
4A4
330
1D
100
AcDbEntity
  8
BLACK
  6
Continuous
100
AcDbLine
 10
194.083134
 20
5.587622
 30
0.0
 11
194.08313
 21
5.587641
 31
0.0
  0
LINE
  5
4A5
330
1D
100
AcDbEntity
  8
BLACK
  6
Continuous
100
AcDbLine
 10
192.274698
 20
5.918886
 30
0.0
 11
192.274741
 21
5.918895
 31
0.0
  0
LINE
  5
4A6
330
1D
100
AcDbEntity
  8
BLACK
  6
Continuous
100
AcDbLine
 10
189.725431
 20
5.888116999999999
 30
0.0
 11
189.725427
 21
5.888135999999999
 31
0.0
  0
LINE
  5
4A7
330
1D
100
AcDbEntity
  8
BLACK
  6
Continuous
100
AcDbLine
 10
100.61797
 20
-98.54530299999999
 30
0.0
 11
100.61797
 21
-98.54530199999999
 31
0.0
  0
LINE
  5
4A8
330
1D
100
AcDbEntity
  8
BLACK
  6
Continuous
100
AcDbLine
 10
56.116605
 20
-91.130926
 30
0.0
 11
56.116603
 21
-91.130933
 31
0.0
  0
LINE
  5
4A9
330
1D
100
AcDbEntity
  8
BLACK
  6
Continuous
100
AcDbLine
 10
77.480291
 20
-95.92750199999999
 30
0.0
 11
77.48024199999999
 21
-95.927492
 31
0.0
  0
LINE
  5
4AA
330
1D
100
AcDbEntity
  8
BLACK
  6
Continuous
100
AcDbLine
 10
187.822948
 20
4.256997
 30
0.0
 11
187.822948
 21
4.256997999999999
 31
0.0
  0
LINE
  5
4AB
330
1D
100
AcDbEntity
  8
BLACK
  6
Continuous
100
AcDbLine
 10
113.142861
 20
2.575336
 30
0.0
 11
113.14288
 21
2.575422
 31
0.0
  0
LINE
  5
4AC
330
1D
100
AcDbEntity
  8
BLACK
  6
Continuous
100
AcDbLine
 10
112.722131
 20
0.6202219999999999
 30
0.0
 11
112.722131
 21
0.620221
 31
0.0
  0
LINE
  5
4AD
330
1D
100
AcDbEntity
  8
BLACK
  6
Continuous
100
AcDbLine
 10
301.778759
 20
13.980041
 30
0.0
 11
301.778759
 21
13.980081
 31
0.0
  0
LINE
  5
4AE
330
1D
100
AcDbEntity
  8
BLACK
  6
Continuous
100
AcDbLine
 10
301.778759
 20
-89.167919
 30
0.0
 11
301.778759
 21
-89.167959
 31
0.0
  0
LINE
  5
4AF
330
1D
100
AcDbEntity
  8
BLACK
  6
Continuous
100
AcDbLine
 10
1.499925
 20
-89.62001599999999
 30
0.0
 11
1.499902
 21
-89.62001599999999
 31
0.0
  0
LINE
  5
4B0
330
1D
100
AcDbEntity
  8
BLACK
  6
Continuous
100
AcDbLine
 10
-1.000036
 20
-89.120002
 30
0.0
 11
-1.000036
 21
-89.12000599999999
 31
0.0
  0
LINE
  5
4B1
330
1D
100
AcDbEntity
  8
BLACK
  6
Continuous
100
AcDbLine
 10
111.235382
 20
4.207727999999999
 30
0.0
 11
111.235382
 21
4.207729
 31
0.0
  0
LINE
  5
4B2
330
1D
100
AcDbEntity
  8
BLACK
  6
Continuous
100
AcDbLine
 10
109.279061
 20
4.623529
 30
0.0
 11
109.279071
 21
4.623577
 31
0.0
  0
LINE
  5
4B3
330
1D
100
AcDbEntity
  8
BLACK
  6
Continuous
100
AcDbLine
 10
108.613839
 20
1.493466
 30
0.0
 11
108.613839
 21
1.493465
 31
0.0
  0
CIRCLE
  5
4B4
330
1D
100
AcDbEntity
  8
BLACK
100
AcDbCircle
 10
38.930008
 20
-66.489999
 30
0.0
 40
1.0
  0
CIRCLE
  5
4B5
330
1D
100
AcDbEntity
  8
BLACK
100
AcDbCircle
 10
6.130008
 20
-66.489999
 30
0.0
 40
1.0
  0
ARC
  5
4B6
330
1D
100
AcDbEntity
  8
BLACK
100
AcDbCircle
 10
37.180349
 20
-62.540461
 30
0.0
 40
1.425024
100
AcDbArc
 50
269.54469209
 51
0.0
  0
ARC
  5
4B7
330
1D
100
AcDbEntity
  8
BLACK
100
AcDbCircle
 10
37.180409
 20
-54.939501
 30
0.0
 40
1.424942
100
AcDbArc
 50
359.99766786
 51
90.0
  0
ARC
  5
4B8
330
1D
100
AcDbEntity
  8
BLACK
100
AcDbCircle
 10
36.314809
 20
-52.586101
 30
0.0
 40
0.928458
100
AcDbArc
 50
202.0244092
 51
270.0
  0
ARC
  5
4B9
330
1D
100
AcDbEntity
  8
BLACK
100
AcDbCircle
 10
36.776409
 20
-65.690501
 30
0.0
 40
1.725045371519254
100
AcDbArc
 50
90.0
 51
159.4511154
  0
ARC
  5
4BA
330
1D
100
AcDbEntity
  8
BLACK
100
AcDbCircle
 10
33.405309
 20
-64.426801
 30
0.0
 40
1.87512863820059
100
AcDbArc
 50
269.73538702
 51
339.45059949
  0
ARC
  5
4BB
330
1D
100
AcDbEntity
  8
BLACK
100
AcDbCircle
 10
34.457509
 20
-53.337501
 30
0.0
 40
1.075102
100
AcDbArc
 50
22.02846853
 51
90.0
  0
ARC
  5
4BC
330
1D
100
AcDbEntity
  8
BLACK
100
AcDbCircle
 10
11.654469
 20
-64.426911
 30
0.0
 40
1.874998
100
AcDbArc
 50
200.54701807
 51
270.0
  0
ARC
  5
4BD
330
1D
100
AcDbEntity
  8
BLACK
100
AcDbCircle
 10
10.602239
 20
-53.337241
 30
0.0
 40
1.074859461790238
100
AcDbArc
 50
89.99232400000001
 51
157.98202934
  0
ARC
  5
4BE
330
1D
100
AcDbEntity
  8
BLACK
100
AcDbCircle
 10
8.745189
 20
-52.586261
 30
0.0
 40
0.9282894749915028
100
AcDbArc
 50
269.99345751
 51
337.9817161199999
  0
ARC
  5
4BF
330
1D
100
AcDbEntity
  8
BLACK
100
AcDbCircle
 10
8.283559
 20
-65.69035099999999
 30
0.0
 40
1.724912
100
AcDbArc
 50
20.54561447
 51
90.0
  0
ARC
  5
4C0
330
1D
100
AcDbEntity
  8
BLACK
100
AcDbCircle
 10
7.879509
 20
-62.540401
 30
0.0
 40
1.425038
100
AcDbArc
 50
179.68896083
 51
270.0
  0
ARC
  5
4C1
330
1D
100
AcDbEntity
  8
BLACK
100
AcDbCircle
 10
7.879559
 20
-54.939581
 30
0.0
 40
1.425066
100
AcDbArc
 50
89.54936987
 51
180.0
  0
LINE
  5
4C2
330
1D
100
AcDbEntity
  8
BLACK
  6
Continuous
100
AcDbLine
 10
38.605373
 20
-54.939559
 30
0.0
 11
38.605373
 21
-62.540461
 31
0.0
  0
LINE
  5
4C3
330
1D
100
AcDbEntity
  8
BLACK
  6
Continuous
100
AcDbLine
 10
37.169025
 20
-63.965439
 30
0.0
 11
36.776409
 21
-63.965439
 31
0.0
  0
LINE
  5
4C4
330
1D
100
AcDbEntity
  8
BLACK
  6
Continuous
100
AcDbLine
 10
36.314809
 20
-53.514559
 30
0.0
 11
37.180409
 21
-53.514559
 31
0.0
  0
LINE
  5
4C5
330
1D
100
AcDbEntity
  8
BLACK
  6
Continuous
100
AcDbLine
 10
33.396649
 20
-66.301909
 30
0.0
 11
11.654469
 21
-66.301909
 31
0.0
  0
LINE
  5
4C6
330
1D
100
AcDbEntity
  8
BLACK
  6
Continuous
100
AcDbLine
 10
10.602383
 20
-52.26239899999999
 30
0.0
 11
10.602383
 21
-52.262386
 31
0.0
  0
LINE
  5
4C7
330
1D
100
AcDbEntity
  8
BLACK
  6
Continuous
100
AcDbLine
 10
10.602383
 20
-52.26239899999999
 30
0.0
 11
34.457509
 21
-52.26239899999999
 31
0.0
  0
LINE
  5
4C8
330
1D
100
AcDbEntity
  8
BLACK
  6
Continuous
100
AcDbLine
 10
8.745083
 20
-53.514547
 30
0.0
 11
8.745083
 21
-53.51455499999999
 31
0.0
  0
LINE
  5
4C9
330
1D
100
AcDbEntity
  8
BLACK
  6
Continuous
100
AcDbLine
 10
8.283559
 20
-63.965439
 30
0.0
 11
7.879509
 21
-63.965439
 31
0.0
  0
LINE
  5
4CA
330
1D
100
AcDbEntity
  8
BLACK
  6
Continuous
100
AcDbLine
 10
7.890766999999999
 20
-53.514559
 30
0.0
 11
8.745083
 21
-53.514559
 31
0.0
  0
LINE
  5
4CB
330
1D
100
AcDbEntity
  8
BLACK
  6
Continuous
100
AcDbLine
 10
6.454492999999999
 20
-62.53266499999999
 30
0.0
 11
6.454492999999999
 21
-54.939581
 31
0.0
  0
CIRCLE
  5
4CC
330
1D
100
AcDbEntity
  8
BLACK
100
AcDbCircle
 10
201.008593
 20
-91.53291
 30
0.0
 40
0.999999
  0
CIRCLE
  5
4CD
330
1D
100
AcDbEntity
  8
BLACK
100
AcDbCircle
 10
168.925352
 20
-98.352413
 30
0.0
 40
0.999999
  0
ARC
  5
4CE
330
1D
100
AcDbEntity
  8
BLACK
100
AcDbCircle
 10
198.475909
 20
-88.033401
 30
0.0
 40
1.42511516360363
100
AcDbArc
 50
281.45703778
 51
11.99999576
  0
ARC
  5
4CF
330
1D
100
AcDbEntity
  8
BLACK
100
AcDbCircle
 10
196.895709
 20
-80.598601
 30
0.0
 40
1.424955295670008
100
AcDbArc
 50
11.99821736
 51
101.99992334
  0
ARC
  5
4D0
330
1D
100
AcDbEntity
  8
BLACK
100
AcDbCircle
 10
195.559709
 20
-78.47670099999999
 30
0.0
 40
0.9283453913549633
100
AcDbArc
 50
214.01968378
 51
281.99994574
  0
ARC
  5
4D1
330
1D
100
AcDbEntity
  8
BLACK
100
AcDbCircle
 10
198.735709
 20
-91.198501
 30
0.0
 40
1.724904767346012
100
AcDbArc
 50
102.13794779
 51
171.45513219
  0
ARC
  5
4D2
330
1D
100
AcDbEntity
  8
BLACK
100
AcDbCircle
 10
195.175709
 20
-90.663501
 30
0.0
 40
1.875070928368578
100
AcDbArc
 50
282.00261756
 51
351.45198868
  0
ARC
  5
4D3
330
1D
100
AcDbEntity
  8
BLACK
100
AcDbCircle
 10
193.899309
 20
-79.597501
 30
0.0
 40
1.074904203847952
100
AcDbArc
 50
34.02039042
 51
101.9999918
  0
ARC
  5
4D4
330
1D
100
AcDbEntity
  8
BLACK
100
AcDbCircle
 10
173.900109
 20
-95.185901
 30
0.0
 40
1.874916413207266
100
AcDbArc
 50
212.54530274
 51
281.9999987
  0
ARC
  5
4D5
330
1D
100
AcDbEntity
  8
BLACK
100
AcDbCircle
 10
170.565309
 20
-84.557301
 30
0.0
 40
1.074935768195477
100
AcDbArc
 50
101.9952446
 51
169.97973742
  0
ARC
  5
4D6
330
1D
100
AcDbEntity
  8
BLACK
100
AcDbCircle
 10
168.592609
 20
-84.20870099999999
 30
0.0
 40
0.9283283810947504
100
AcDbArc
 50
281.99408977
 51
349.9772828
  0
ARC
  5
4D7
330
1D
100
AcDbEntity
  8
BLACK
100
AcDbCircle
 10
170.865609
 20
-97.122401
 30
0.0
 40
1.724828635926769
100
AcDbArc
 50
32.54348600000001
 51
101.99999871
  0
ARC
  5
4D8
330
1D
100
AcDbEntity
  8
BLACK
100
AcDbCircle
 10
169.815409
 20
-94.125501
 30
0.0
 40
1.424931404303379
100
AcDbArc
 50
191.99723804
 51
282.00004532
  0
ARC
  5
4D9
330
1D
100
AcDbEntity
  8
BLACK
100
AcDbCircle
 10
168.235309
 20
-86.69070099999999
 30
0.0
 40
1.425158117008074
100
AcDbArc
 50
101.46558802
 51
191.99999861
  0
LINE
  5
4DA
330
1D
100
AcDbEntity
  8
BLACK
  6
Continuous
100
AcDbLine
 10
198.28958
 20
-80.30237
 30
0.0
 11
199.869882
 21
-87.73710299999999
 31
0.0
  0
LINE
  5
4DB
330
1D
100
AcDbEntity
  8
BLACK
  6
Continuous
100
AcDbLine
 10
198.758984
 20
-89.43011899999999
 30
0.0
 11
198.37302
 21
-89.512158
 31
0.0
  0
LINE
  5
4DC
330
1D
100
AcDbEntity
  8
BLACK
  6
Continuous
100
AcDbLine
 10
195.752722
 20
-79.38476
 30
0.0
 11
196.599446
 21
-79.20478399999999
 31
0.0
  0
LINE
  5
4DD
330
1D
100
AcDbEntity
  8
BLACK
  6
Continuous
100
AcDbLine
 10
195.565637
 20
-92.497554
 30
0.0
 11
174.289926
 21
-97.019846
 31
0.0
  0
LINE
  5
4DE
330
1D
100
AcDbEntity
  8
BLACK
  6
Continuous
100
AcDbLine
 10
170.34191
 20
-83.505862
 30
0.0
 11
170.341904
 21
-83.505834
 31
0.0
  0
LINE
  5
4DF
330
1D
100
AcDbEntity
  8
BLACK
  6
Continuous
100
AcDbLine
 10
170.34191
 20
-83.505862
 30
0.0
 11
193.675824
 21
-78.546086
 31
0.0
  0
LINE
  5
4E0
330
1D
100
AcDbEntity
  8
BLACK
  6
Continuous
100
AcDbLine
 10
168.785525
 20
-85.11676
 30
0.0
 11
168.785535
 21
-85.116813
 31
0.0
  0
LINE
  5
4E1
330
1D
100
AcDbEntity
  8
BLACK
  6
Continuous
100
AcDbLine
 10
170.506997
 20
-95.43526399999999
 30
0.0
 11
170.11167
 21
-95.519294
 31
0.0
  0
LINE
  5
4E2
330
1D
100
AcDbEntity
  8
BLACK
  6
Continuous
100
AcDbLine
 10
167.952017
 20
-85.293983
 30
0.0
 11
168.785535
 21
-85.116813
 31
0.0
  0
LINE
  5
4E3
330
1D
100
AcDbEntity
  8
BLACK
  6
Continuous
100
AcDbLine
 10
168.421586
 20
-94.421697
 30
0.0
 11
166.841294
 21
-86.987008
 31
0.0
  0
CIRCLE
  5
4E4
330
1D
100
AcDbEntity
  8
BLACK
100
AcDbCircle
 10
311.336259
 20
-47.44
 30
0.0
 40
1.0
  0
CIRCLE
  5
4E5
330
1D
100
AcDbEntity
  8
BLACK
100
AcDbCircle
 10
278.536259
 20
-47.44
 30
0.0
 40
1.0
  0
ARC
  5
4E6
330
1D
100
AcDbEntity
  8
BLACK
100
AcDbCircle
 10
309.586609
 20
-43.490401
 30
0.0
 40
1.425015
100
AcDbArc
 50
269.52187448
 51
0.0
  0
ARC
  5
4E7
330
1D
100
AcDbEntity
  8
BLACK
100
AcDbCircle
 10
309.586509
 20
-35.889701
 30
0.0
 40
1.425141003508425
100
AcDbArc
 50
359.65794571
 51
89.99597964
  0
ARC
  5
4E8
330
1D
100
AcDbEntity
  8
BLACK
100
AcDbCircle
 10
308.721109
 20
-33.536001
 30
0.0
 40
0.9285589999999999
100
AcDbArc
 50
202.02905277
 51
270.0
  0
ARC
  5
4E9
330
1D
100
AcDbEntity
  8
BLACK
100
AcDbCircle
 10
309.182609
 20
-46.640401
 30
0.0
 40
1.724962166549168
100
AcDbArc
 50
90.0
 51
159.45366212
  0
ARC
  5
4EA
330
1D
100
AcDbEntity
  8
BLACK
100
AcDbCircle
 10
305.811509
 20
-45.376801
 30
0.0
 40
1.875176744156667
100
AcDbArc
 50
270.0
 51
339.45111786
  0
ARC
  5
4EB
330
1D
100
AcDbEntity
  8
BLACK
100
AcDbCircle
 10
306.863809
 20
-34.287401
 30
0.0
 40
1.075001
100
AcDbArc
 50
22.02445785
 51
90.0
  0
ARC
  5
4EC
330
1D
100
AcDbEntity
  8
BLACK
100
AcDbCircle
 10
284.060709
 20
-45.377001
 30
0.0
 40
1.874909
100
AcDbArc
 50
200.54458936
 51
270.0
  0
ARC
  5
4ED
330
1D
100
AcDbEntity
  8
BLACK
100
AcDbCircle
 10
283.008509
 20
-34.287301
 30
0.0
 40
1.074899196048634
100
AcDbArc
 50
89.99333707000001
 51
157.97949349
  0
ARC
  5
4EE
330
1D
100
AcDbEntity
  8
BLACK
100
AcDbCircle
 10
281.151409
 20
-33.536201
 30
0.0
 40
0.9283410841204863
100
AcDbArc
 50
269.99537111
 51
337.97894317
  0
ARC
  5
4EF
330
1D
100
AcDbEntity
  8
BLACK
100
AcDbCircle
 10
280.689809
 20
-46.640401
 30
0.0
 40
1.724961
100
AcDbArc
 50
20.54712688
 51
90.0
  0
ARC
  5
4F0
330
1D
100
AcDbEntity
  8
BLACK
100
AcDbCircle
 10
280.285709
 20
-43.490401
 30
0.0
 40
1.425039003508676
100
AcDbArc
 50
179.4241123
 51
269.99597935
  0
ARC
  5
4F1
330
1D
100
AcDbEntity
  8
BLACK
100
AcDbCircle
 10
280.285809
 20
-35.889601
 30
0.0
 40
1.425065
100
AcDbArc
 50
89.66749674
 51
180.0
  0
LINE
  5
4F2
330
1D
100
AcDbEntity
  8
BLACK
  6
Continuous
100
AcDbLine
 10
311.011624
 20
-35.898209
 30
0.0
 11
311.011624
 21
-43.490401
 31
0.0
  0
LINE
  5
4F3
330
1D
100
AcDbEntity
  8
BLACK
  6
Continuous
100
AcDbLine
 10
309.574717
 20
-44.91544
 30
0.0
 11
309.182609
 21
-44.91544
 31
0.0
  0
LINE
  5
4F4
330
1D
100
AcDbEntity
  8
BLACK
  6
Continuous
100
AcDbLine
 10
308.721109
 20
-34.46456
 30
0.0
 11
309.586609
 21
-34.46456
 31
0.0
  0
LINE
  5
4F5
330
1D
100
AcDbEntity
  8
BLACK
  6
Continuous
100
AcDbLine
 10
305.811509
 20
-47.25191
 30
0.0
 11
284.060709
 21
-47.25191
 31
0.0
  0
LINE
  5
4F6
330
1D
100
AcDbEntity
  8
BLACK
  6
Continuous
100
AcDbLine
 10
283.008634
 20
-33.212411
 30
0.0
 11
283.008634
 21
-33.2124
 31
0.0
  0
LINE
  5
4F7
330
1D
100
AcDbEntity
  8
BLACK
  6
Continuous
100
AcDbLine
 10
283.008634
 20
-33.2124
 30
0.0
 11
306.863809
 21
-33.2124
 31
0.0
  0
LINE
  5
4F8
330
1D
100
AcDbEntity
  8
BLACK
  6
Continuous
100
AcDbLine
 10
281.151334
 20
-34.46454
 30
0.0
 11
281.151334
 21
-34.46456
 31
0.0
  0
LINE
  5
4F9
330
1D
100
AcDbEntity
  8
BLACK
  6
Continuous
100
AcDbLine
 10
280.689809
 20
-44.91544
 30
0.0
 11
280.285609
 21
-44.91544
 31
0.0
  0
LINE
  5
4FA
330
1D
100
AcDbEntity
  8
BLACK
  6
Continuous
100
AcDbLine
 10
280.294079
 20
-34.46456
 30
0.0
 11
281.151334
 21
-34.46456
 31
0.0
  0
LINE
  5
4FB
330
1D
100
AcDbEntity
  8
BLACK
  6
Continuous
100
AcDbLine
 10
278.860744
 20
-43.476078
 30
0.0
 11
278.860744
 21
-35.889601
 31
0.0
  0
ARC
  5
4FC
330
1D
100
AcDbEntity
  8
BLACK
100
AcDbCircle
 10
307.840609
 20
-83.363001
 30
0.0
 40
2.075
100
AcDbArc
 50
270.0
 51
0.0
  0
ARC
  5
4FD
330
1D
100
AcDbEntity
  8
BLACK
100
AcDbCircle
 10
307.840609
 20
-73.413001
 30
0.0
 40
2.075002
100
AcDbArc
 50
0.0
 51
90.0
  0
ARC
  5
4FE
330
1D
100
AcDbEntity
  8
BLACK
100
AcDbCircle
 10
297.290609
 20
-83.363001
 30
0.0
 40
2.074998
100
AcDbArc
 50
180.0
 51
270.0
  0
ARC
  5
4FF
330
1D
100
AcDbEntity
  8
BLACK
100
AcDbCircle
 10
297.290609
 20
-73.413001
 30
0.0
 40
2.075
100
AcDbArc
 50
90.0
 51
180.0
  0
LINE
  5
500
330
1D
100
AcDbEntity
  8
BLACK
  6
Continuous
100
AcDbLine
 10
309.915609
 20
-73.413001
 30
0.0
 11
309.915609
 21
-83.363001
 31
0.0
  0
LINE
  5
501
330
1D
100
AcDbEntity
  8
BLACK
  6
Continuous
100
AcDbLine
 10
307.840609
 20
-85.43799899999999
 30
0.0
 11
297.290609
 21
-85.43799899999999
 31
0.0
  0
LINE
  5
502
330
1D
100
AcDbEntity
  8
BLACK
  6
Continuous
100
AcDbLine
 10
307.840609
 20
-71.337999
 30
0.0
 11
297.290609
 21
-71.337999
 31
0.0
  0
LINE
  5
503
330
1D
100
AcDbEntity
  8
BLACK
  6
Continuous
100
AcDbLine
 10
295.215609
 20
-73.413001
 30
0.0
 11
295.215609
 21
-83.363001
 31
0.0
  0
ARC
  5
504
330
1D
100
AcDbEntity
  8
BLACK
100
AcDbCircle
 10
263.895009
 20
-64.265001
 30
0.0
 40
2.075
100
AcDbArc
 50
270.0
 51
0.0
  0
ARC
  5
505
330
1D
100
AcDbEntity
  8
BLACK
100
AcDbCircle
 10
263.895009
 20
-54.315001
 30
0.0
 40
2.075001
100
AcDbArc
 50
0.0
 51
90.0
  0
ARC
  5
506
330
1D
100
AcDbEntity
  8
BLACK
100
AcDbCircle
 10
253.345009
 20
-64.265001
 30
0.0
 40
2.074999
100
AcDbArc
 50
180.0
 51
270.0
  0
ARC
  5
507
330
1D
100
AcDbEntity
  8
BLACK
100
AcDbCircle
 10
253.345009
 20
-54.315001
 30
0.0
 40
2.075
100
AcDbArc
 50
90.0
 51
180.0
  0
LINE
  5
508
330
1D
100
AcDbEntity
  8
BLACK
  6
Continuous
100
AcDbLine
 10
265.970009
 20
-54.315001
 30
0.0
 11
265.970009
 21
-64.265001
 31
0.0
  0
LINE
  5
509
330
1D
100
AcDbEntity
  8
BLACK
  6
Continuous
100
AcDbLine
 10
263.895009
 20
-66.34
 30
0.0
 11
253.345009
 21
-66.34
 31
0.0
  0
LINE
  5
50A
330
1D
100
AcDbEntity
  8
BLACK
  6
Continuous
100
AcDbLine
 10
263.895009
 20
-52.23999999999999
 30
0.0
 11
253.345009
 21
-52.23999999999999
 31
0.0
  0
LINE
  5
50B
330
1D
100
AcDbEntity
  8
BLACK
  6
Continuous
100
AcDbLine
 10
251.270009
 20
-54.315001
 30
0.0
 11
251.270009
 21
-64.265001
 31
0.0
  0
ARC
  5
50C
330
1D
100
AcDbEntity
  8
BLACK
100
AcDbCircle
 10
169.362909
 20
-76.501701
 30
0.0
 40
2.075051957188783
100
AcDbArc
 50
281.6532524100001
 51
12.00001239
  0
ARC
  5
50D
330
1D
100
AcDbEntity
  8
BLACK
100
AcDbCircle
 10
167.294209
 20
-66.769201
 30
0.0
 40
2.075059012133631
100
AcDbArc
 50
11.78955239
 51
101.99999922
  0
ARC
  5
50E
330
1D
100
AcDbEntity
  8
BLACK
100
AcDbCircle
 10
159.043509
 20
-78.695201
 30
0.0
 40
2.074970170881981
100
AcDbArc
 50
191.99920186
 51
282.00001252
  0
ARC
  5
50F
330
1D
100
AcDbEntity
  8
BLACK
100
AcDbCircle
 10
156.974809
 20
-68.96260099999999
 30
0.0
 40
2.075025277880971
100
AcDbArc
 50
102.26977359
 51
191.9999996
  0
LINE
  5
510
330
1D
100
AcDbEntity
  8
BLACK
  6
Continuous
100
AcDbLine
 10
169.325494
 20
-66.34523
 30
0.0
 11
171.392616
 21
-76.070273
 31
0.0
  0
LINE
  5
511
330
1D
100
AcDbEntity
  8
BLACK
  6
Continuous
100
AcDbLine
 10
169.782045
 20
-78.533981
 30
0.0
 11
159.47492
 21
-80.724828
 31
0.0
  0
LINE
  5
512
330
1D
100
AcDbEntity
  8
BLACK
  6
Continuous
100
AcDbLine
 10
166.86278
 20
-64.739487
 30
0.0
 11
156.533835
 21
-66.934973
 31
0.0
  0
LINE
  5
513
330
1D
100
AcDbEntity
  8
BLACK
  6
Continuous
100
AcDbLine
 10
154.945128
 20
-69.39402299999999
 30
0.0
 11
157.013849
 21
-79.126589
 31
0.0
  0
ARC
  5
514
330
1D
100
AcDbEntity
  8
BLACK
100
AcDbCircle
 10
260.215009
 20
-26.165001
 30
0.0
 40
2.074999
100
AcDbArc
 50
270.0
 51
0.0
  0
ARC
  5
515
330
1D
100
AcDbEntity
  8
BLACK
100
AcDbCircle
 10
260.215009
 20
-16.215001
 30
0.0
 40
2.075002
100
AcDbArc
 50
0.0
 51
90.0
  0
ARC
  5
516
330
1D
100
AcDbEntity
  8
BLACK
100
AcDbCircle
 10
249.665009
 20
-26.165001
 30
0.0
 40
2.074998
100
AcDbArc
 50
180.0
 51
270.0
  0
ARC
  5
517
330
1D
100
AcDbEntity
  8
BLACK
100
AcDbCircle
 10
249.665009
 20
-16.215001
 30
0.0
 40
2.075001
100
AcDbArc
 50
90.0
 51
180.0
  0
LINE
  5
518
330
1D
100
AcDbEntity
  8
BLACK
  6
Continuous
100
AcDbLine
 10
262.290008
 20
-16.215001
 30
0.0
 11
262.290008
 21
-26.165001
 31
0.0
  0
LINE
  5
519
330
1D
100
AcDbEntity
  8
BLACK
  6
Continuous
100
AcDbLine
 10
260.215009
 20
-28.239999
 30
0.0
 11
249.665009
 21
-28.239999
 31
0.0
  0
LINE
  5
51A
330
1D
100
AcDbEntity
  8
BLACK
  6
Continuous
100
AcDbLine
 10
260.215009
 20
-14.139999
 30
0.0
 11
249.665009
 21
-14.139999
 31
0.0
  0
LINE
  5
51B
330
1D
100
AcDbEntity
  8
BLACK
  6
Continuous
100
AcDbLine
 10
247.590008
 20
-16.215001
 30
0.0
 11
247.590008
 21
-26.165001
 31
0.0
  0
ARC
  5
51C
330
1D
100
AcDbEntity
  8
BLACK
100
AcDbCircle
 10
208.730409
 20
-9.710301
 30
0.0
 40
2.074985466831033
100
AcDbArc
 50
281.73024333
 51
12.00000743
  0
ARC
  5
51D
330
1D
100
AcDbEntity
  8
BLACK
100
AcDbCircle
 10
206.661709
 20
0.022399
 30
0.0
 40
2.074913877823607
100
AcDbArc
 50
11.99760799
 51
102.00000416
  0
ARC
  5
51E
330
1D
100
AcDbEntity
  8
BLACK
100
AcDbCircle
 10
198.410909
 20
-11.903801
 30
0.0
 40
2.074940349219707
100
AcDbArc
 50
191.99836729
 51
281.99998994
  0
ARC
  5
51F
330
1D
100
AcDbEntity
  8
BLACK
100
AcDbCircle
 10
196.342309
 20
-2.171201
 30
0.0
 40
2.075092746386291
100
AcDbArc
 50
101.65324566
 51
191.99999883
  0
LINE
  5
520
330
1D
100
AcDbEntity
  8
BLACK
  6
Continuous
100
AcDbLine
 10
208.691321
 20
0.453718
 30
0.0
 11
210.760051
 21
-9.278887
 31
0.0
  0
LINE
  5
521
330
1D
100
AcDbEntity
  8
BLACK
  6
Continuous
100
AcDbLine
 10
209.152262
 20
-11.741951
 30
0.0
 11
198.842313
 21
-13.933399
 31
0.0
  0
LINE
  5
522
330
1D
100
AcDbEntity
  8
BLACK
  6
Continuous
100
AcDbLine
 10
206.23031
 20
2.051971
 30
0.0
 11
195.923165
 21
-0.138881
 31
0.0
  0
LINE
  5
523
330
1D
100
AcDbEntity
  8
BLACK
  6
Continuous
100
AcDbLine
 10
194.312562
 20
-2.602637
 30
0.0
 11
196.381273
 21
-12.335153
 31
0.0
  0
ARC
  5
524
330
1D
100
AcDbEntity
  8
BLACK
100
AcDbCircle
 10
190.096709
 20
-13.671001
 30
0.0
 40
2.074970170881981
100
AcDbArc
 50
281.9991488700001
 51
12.00001252
  0
ARC
  5
525
330
1D
100
AcDbEntity
  8
BLACK
100
AcDbCircle
 10
188.027909
 20
-3.938501
 30
0.0
 40
2.075073329935113
100
AcDbArc
 50
11.78957589
 51
101.99999987
  0
ARC
  5
526
330
1D
100
AcDbEntity
  8
BLACK
100
AcDbCircle
 10
179.777209
 20
-15.864501
 30
0.0
 40
2.074955853080494
100
AcDbArc
 50
191.99878458
 51
282.00001186
  0
ARC
  5
527
330
1D
100
AcDbEntity
  8
BLACK
100
AcDbCircle
 10
177.708509
 20
-6.131901
 30
0.0
 40
2.075009981931894
100
AcDbArc
 50
102.00000469
 51
192.00000469
  0
LINE
  5
528
330
1D
100
AcDbEntity
  8
BLACK
  6
Continuous
100
AcDbLine
 10
190.059209
 20
-3.514526
 30
0.0
 11
192.126336
 21
-13.23959
 31
0.0
  0
LINE
  5
529
330
1D
100
AcDbEntity
  8
BLACK
  6
Continuous
100
AcDbLine
 10
190.528091
 20
-15.700641
 30
0.0
 11
180.208617
 21
-17.894114
 31
0.0
  0
LINE
  5
52A
330
1D
100
AcDbEntity
  8
BLACK
  6
Continuous
100
AcDbLine
 10
187.596477
 20
-1.908773
 30
0.0
 11
177.277088
 21
-4.102227
 31
0.0
  0
LINE
  5
52B
330
1D
100
AcDbEntity
  8
BLACK
  6
Continuous
100
AcDbLine
 10
175.678843
 20
-6.56332
 30
0.0
 11
177.747561
 21
-16.295871
 31
0.0
  0
ARC
  5
52C
330
1D
100
AcDbEntity
  8
BLACK
100
AcDbCircle
 10
241.585009
 20
-25.105001
 30
0.0
 40
2.074999
100
AcDbArc
 50
270.0
 51
0.0
  0
ARC
  5
52D
330
1D
100
AcDbEntity
  8
BLACK
100
AcDbCircle
 10
241.585009
 20
-15.155001
 30
0.0
 40
2.075002
100
AcDbArc
 50
0.0
 51
90.0
  0
ARC
  5
52E
330
1D
100
AcDbEntity
  8
BLACK
100
AcDbCircle
 10
231.035009
 20
-25.105001
 30
0.0
 40
2.074998
100
AcDbArc
 50
180.0
 51
270.0
  0
ARC
  5
52F
330
1D
100
AcDbEntity
  8
BLACK
100
AcDbCircle
 10
231.035009
 20
-15.155001
 30
0.0
 40
2.075001
100
AcDbArc
 50
90.0
 51
180.0
  0
LINE
  5
530
330
1D
100
AcDbEntity
  8
BLACK
  6
Continuous
100
AcDbLine
 10
243.660008
 20
-15.155001
 30
0.0
 11
243.660008
 21
-25.105001
 31
0.0
  0
LINE
  5
531
330
1D
100
AcDbEntity
  8
BLACK
  6
Continuous
100
AcDbLine
 10
241.585009
 20
-27.179999
 30
0.0
 11
231.035009
 21
-27.179999
 31
0.0
  0
LINE
  5
532
330
1D
100
AcDbEntity
  8
BLACK
  6
Continuous
100
AcDbLine
 10
241.585009
 20
-13.079999
 30
0.0
 11
231.035009
 21
-13.079999
 31
0.0
  0
LINE
  5
533
330
1D
100
AcDbEntity
  8
BLACK
  6
Continuous
100
AcDbLine
 10
228.960008
 20
-15.155001
 30
0.0
 11
228.960008
 21
-25.105001
 31
0.0
  0
ARC
  5
534
330
1D
100
AcDbEntity
  8
BLACK
100
AcDbCircle
 10
203.370409
 20
-30.320301
 30
0.0
 40
2.074985466831033
100
AcDbArc
 50
281.73024333
 51
12.00000743
  0
ARC
  5
535
330
1D
100
AcDbEntity
  8
BLACK
100
AcDbCircle
 10
201.301709
 20
-20.587601
 30
0.0
 40
2.074913877823607
100
AcDbArc
 50
11.99760799
 51
102.00000416
  0
ARC
  5
536
330
1D
100
AcDbEntity
  8
BLACK
100
AcDbCircle
 10
193.050909
 20
-32.513801
 30
0.0
 40
2.074940349219707
100
AcDbArc
 50
191.99836729
 51
281.99998994
  0
ARC
  5
537
330
1D
100
AcDbEntity
  8
BLACK
100
AcDbCircle
 10
190.982309
 20
-22.781201
 30
0.0
 40
2.075092746386291
100
AcDbArc
 50
101.65324566
 51
191.99999883
  0
LINE
  5
538
330
1D
100
AcDbEntity
  8
BLACK
  6
Continuous
100
AcDbLine
 10
203.331321
 20
-20.156282
 30
0.0
 11
205.400051
 21
-29.888887
 31
0.0
  0
LINE
  5
539
330
1D
100
AcDbEntity
  8
BLACK
  6
Continuous
100
AcDbLine
 10
203.792262
 20
-32.351951
 30
0.0
 11
193.482313
 21
-34.543399
 31
0.0
  0
LINE
  5
53A
330
1D
100
AcDbEntity
  8
BLACK
  6
Continuous
100
AcDbLine
 10
200.87031
 20
-18.558029
 30
0.0
 11
190.563165
 21
-20.748881
 31
0.0
  0
LINE
  5
53B
330
1D
100
AcDbEntity
  8
BLACK
  6
Continuous
100
AcDbLine
 10
188.952562
 20
-23.212637
 30
0.0
 11
191.021273
 21
-32.945153
 31
0.0
  0
ARC
  5
53C
330
1D
100
AcDbEntity
  8
BLACK
100
AcDbCircle
 10
187.996709
 20
-72.541001
 30
0.0
 40
2.074970170881981
100
AcDbArc
 50
281.9991488700001
 51
12.00001252
  0
ARC
  5
53D
330
1D
100
AcDbEntity
  8
BLACK
100
AcDbCircle
 10
185.927909
 20
-62.808501
 30
0.0
 40
2.075073329935113
100
AcDbArc
 50
11.79720092
 51
101.99999987
  0
ARC
  5
53E
330
1D
100
AcDbEntity
  8
BLACK
100
AcDbCircle
 10
177.677209
 20
-74.734501
 30
0.0
 40
2.074955853080494
100
AcDbArc
 50
191.99878458
 51
282.00001186
  0
ARC
  5
53F
330
1D
100
AcDbEntity
  8
BLACK
100
AcDbCircle
 10
175.608509
 20
-65.001901
 30
0.0
 40
2.075009981931894
100
AcDbArc
 50
102.00000469
 51
192.00000469
  0
LINE
  5
540
330
1D
100
AcDbEntity
  8
BLACK
  6
Continuous
100
AcDbLine
 10
187.959151
 20
-62.384256
 30
0.0
 11
190.026336
 21
-72.10959
 31
0.0
  0
LINE
  5
541
330
1D
100
AcDbEntity
  8
BLACK
  6
Continuous
100
AcDbLine
 10
188.428091
 20
-74.570641
 30
0.0
 11
178.108617
 21
-76.76411399999999
 31
0.0
  0
LINE
  5
542
330
1D
100
AcDbEntity
  8
BLACK
  6
Continuous
100
AcDbLine
 10
185.496477
 20
-60.77877299999999
 30
0.0
 11
175.177088
 21
-62.972227
 31
0.0
  0
LINE
  5
543
330
1D
100
AcDbEntity
  8
BLACK
  6
Continuous
100
AcDbLine
 10
173.578843
 20
-65.43332
 30
0.0
 11
175.647561
 21
-75.165871
 31
0.0
  0
ARC
  5
544
330
1D
100
AcDbEntity
  8
BLACK
100
AcDbCircle
 10
184.736709
 20
-34.281001
 30
0.0
 40
2.074970170881981
100
AcDbArc
 50
281.9991488700001
 51
12.00001252
  0
ARC
  5
545
330
1D
100
AcDbEntity
  8
BLACK
100
AcDbCircle
 10
182.667909
 20
-24.548501
 30
0.0
 40
2.075073329935113
100
AcDbArc
 50
11.79720092
 51
101.99999987
  0
ARC
  5
546
330
1D
100
AcDbEntity
  8
BLACK
100
AcDbCircle
 10
174.417209
 20
-36.474501
 30
0.0
 40
2.074955853080494
100
AcDbArc
 50
191.99878458
 51
282.00001186
  0
ARC
  5
547
330
1D
100
AcDbEntity
  8
BLACK
100
AcDbCircle
 10
172.348509
 20
-26.741901
 30
0.0
 40
2.075009981931894
100
AcDbArc
 50
102.00000469
 51
192.00000469
  0
LINE
  5
548
330
1D
100
AcDbEntity
  8
BLACK
  6
Continuous
100
AcDbLine
 10
184.699151
 20
-24.124256
 30
0.0
 11
186.766336
 21
-33.84959
 31
0.0
  0
LINE
  5
549
330
1D
100
AcDbEntity
  8
BLACK
  6
Continuous
100
AcDbLine
 10
185.168091
 20
-36.310641
 30
0.0
 11
174.848617
 21
-38.504114
 31
0.0
  0
LINE
  5
54A
330
1D
100
AcDbEntity
  8
BLACK
  6
Continuous
100
AcDbLine
 10
182.236477
 20
-22.518773
 30
0.0
 11
171.917088
 21
-24.712227
 31
0.0
  0
LINE
  5
54B
330
1D
100
AcDbEntity
  8
BLACK
  6
Continuous
100
AcDbLine
 10
170.318843
 20
-27.17332
 30
0.0
 11
172.387561
 21
-36.905871
 31
0.0
  0
ARC
  5
54C
330
1D
100
AcDbEntity
  8
BLACK
100
AcDbCircle
 10
246.945009
 20
-4.975001
 30
0.0
 40
2.074999
100
AcDbArc
 50
270.0
 51
0.0
  0
ARC
  5
54D
330
1D
100
AcDbEntity
  8
BLACK
100
AcDbCircle
 10
246.945009
 20
4.974999
 30
0.0
 40
2.075001
100
AcDbArc
 50
0.0
 51
90.0
  0
ARC
  5
54E
330
1D
100
AcDbEntity
  8
BLACK
100
AcDbCircle
 10
236.395009
 20
-4.975001
 30
0.0
 40
2.074999
100
AcDbArc
 50
180.0
 51
270.0
  0
ARC
  5
54F
330
1D
100
AcDbEntity
  8
BLACK
100
AcDbCircle
 10
236.395009
 20
4.974999
 30
0.0
 40
2.075001
100
AcDbArc
 50
90.0
 51
180.0
  0
LINE
  5
550
330
1D
100
AcDbEntity
  8
BLACK
  6
Continuous
100
AcDbLine
 10
249.020008
 20
4.974999
 30
0.0
 11
249.020008
 21
-4.975001
 31
0.0
  0
LINE
  5
551
330
1D
100
AcDbEntity
  8
BLACK
  6
Continuous
100
AcDbLine
 10
246.945009
 20
-7.05
 30
0.0
 11
236.395009
 21
-7.05
 31
0.0
  0
LINE
  5
552
330
1D
100
AcDbEntity
  8
BLACK
  6
Continuous
100
AcDbLine
 10
246.945009
 20
7.05
 30
0.0
 11
236.395009
 21
7.05
 31
0.0
  0
LINE
  5
553
330
1D
100
AcDbEntity
  8
BLACK
  6
Continuous
100
AcDbLine
 10
234.320008
 20
4.974999
 30
0.0
 11
234.320008
 21
-4.975001
 31
0.0
  0
ARC
  5
554
330
1D
100
AcDbEntity
  8
BLACK
100
AcDbCircle
 10
250.205009
 20
-45.215001
 30
0.0
 40
2.074999
100
AcDbArc
 50
270.0
 51
0.0
  0
ARC
  5
555
330
1D
100
AcDbEntity
  8
BLACK
100
AcDbCircle
 10
250.205009
 20
-35.265001
 30
0.0
 40
2.075001
100
AcDbArc
 50
0.0
 51
90.0
  0
ARC
  5
556
330
1D
100
AcDbEntity
  8
BLACK
100
AcDbCircle
 10
239.655009
 20
-45.215001
 30
0.0
 40
2.074999
100
AcDbArc
 50
180.0
 51
270.0
  0
ARC
  5
557
330
1D
100
AcDbEntity
  8
BLACK
100
AcDbCircle
 10
239.655009
 20
-35.265001
 30
0.0
 40
2.075001
100
AcDbArc
 50
90.0
 51
180.0
  0
LINE
  5
558
330
1D
100
AcDbEntity
  8
BLACK
  6
Continuous
100
AcDbLine
 10
252.280008
 20
-35.265001
 30
0.0
 11
252.280008
 21
-45.215001
 31
0.0
  0
LINE
  5
559
330
1D
100
AcDbEntity
  8
BLACK
  6
Continuous
100
AcDbLine
 10
250.205009
 20
-47.29
 30
0.0
 11
239.655009
 21
-47.29
 31
0.0
  0
LINE
  5
55A
330
1D
100
AcDbEntity
  8
BLACK
  6
Continuous
100
AcDbLine
 10
250.205009
 20
-33.19
 30
0.0
 11
239.655009
 21
-33.19
 31
0.0
  0
LINE
  5
55B
330
1D
100
AcDbEntity
  8
BLACK
  6
Continuous
100
AcDbLine
 10
237.580008
 20
-35.265001
 30
0.0
 11
237.580008
 21
-45.215001
 31
0.0
  0
ARC
  5
55C
330
1D
100
AcDbEntity
  8
BLACK
100
AcDbCircle
 10
174.722909
 20
-55.891701
 30
0.0
 40
2.075051957188783
100
AcDbArc
 50
281.6532794500001
 51
12.00001239
  0
ARC
  5
55D
330
1D
100
AcDbEntity
  8
BLACK
100
AcDbCircle
 10
172.654209
 20
-46.159201
 30
0.0
 40
2.075059012133631
100
AcDbArc
 50
11.78955239
 51
101.99999922
  0
ARC
  5
55E
330
1D
100
AcDbEntity
  8
BLACK
100
AcDbCircle
 10
164.403509
 20
-58.085201
 30
0.0
 40
2.074970170881981
100
AcDbArc
 50
191.99920186
 51
282.00001252
  0
ARC
  5
55F
330
1D
100
AcDbEntity
  8
BLACK
100
AcDbCircle
 10
162.334809
 20
-48.352601
 30
0.0
 40
2.075025277880971
100
AcDbArc
 50
102.26977359
 51
191.9999996
  0
LINE
  5
560
330
1D
100
AcDbEntity
  8
BLACK
  6
Continuous
100
AcDbLine
 10
174.685494
 20
-45.73523
 30
0.0
 11
176.752616
 21
-55.460273
 31
0.0
  0
LINE
  5
561
330
1D
100
AcDbEntity
  8
BLACK
  6
Continuous
100
AcDbLine
 10
175.142046
 20
-57.923981
 30
0.0
 11
164.83492
 21
-60.114828
 31
0.0
  0
LINE
  5
562
330
1D
100
AcDbEntity
  8
BLACK
  6
Continuous
100
AcDbLine
 10
172.22278
 20
-44.129487
 30
0.0
 11
161.893835
 21
-46.324973
 31
0.0
  0
LINE
  5
563
330
1D
100
AcDbEntity
  8
BLACK
  6
Continuous
100
AcDbLine
 10
160.305128
 20
-48.784023
 30
0.0
 11
162.373849
 21
-58.516589
 31
0.0
  0
ARC
  5
564
330
1D
100
AcDbEntity
  8
BLACK
100
AcDbCircle
 10
244.845009
 20
-64.265001
 30
0.0
 40
2.075
100
AcDbArc
 50
270.0
 51
0.0
  0
ARC
  5
565
330
1D
100
AcDbEntity
  8
BLACK
100
AcDbCircle
 10
244.845009
 20
-54.315001
 30
0.0
 40
2.075001
100
AcDbArc
 50
0.0
 51
90.0
  0
ARC
  5
566
330
1D
100
AcDbEntity
  8
BLACK
100
AcDbCircle
 10
234.295009
 20
-64.265001
 30
0.0
 40
2.074999
100
AcDbArc
 50
180.0
 51
270.0
  0
ARC
  5
567
330
1D
100
AcDbEntity
  8
BLACK
100
AcDbCircle
 10
234.295009
 20
-54.315001
 30
0.0
 40
2.075
100
AcDbArc
 50
90.0
 51
180.0
  0
LINE
  5
568
330
1D
100
AcDbEntity
  8
BLACK
  6
Continuous
100
AcDbLine
 10
246.920009
 20
-54.315001
 30
0.0
 11
246.920009
 21
-64.265001
 31
0.0
  0
LINE
  5
569
330
1D
100
AcDbEntity
  8
BLACK
  6
Continuous
100
AcDbLine
 10
244.845009
 20
-66.34
 30
0.0
 11
234.295009
 21
-66.34
 31
0.0
  0
LINE
  5
56A
330
1D
100
AcDbEntity
  8
BLACK
  6
Continuous
100
AcDbLine
 10
244.845009
 20
-52.23999999999999
 30
0.0
 11
234.295009
 21
-52.23999999999999
 31
0.0
  0
LINE
  5
56B
330
1D
100
AcDbEntity
  8
BLACK
  6
Continuous
100
AcDbLine
 10
232.220009
 20
-54.315001
 30
0.0
 11
232.220009
 21
-64.265001
 31
0.0
  0
ARC
  5
56C
330
1D
100
AcDbEntity
  8
BLACK
100
AcDbCircle
 10
166.102909
 20
-38.241701
 30
0.0
 40
2.075051957188783
100
AcDbArc
 50
281.6532794500001
 51
12.00001239
  0
ARC
  5
56D
330
1D
100
AcDbEntity
  8
BLACK
100
AcDbCircle
 10
164.034209
 20
-28.509201
 30
0.0
 40
2.075059012133631
100
AcDbArc
 50
11.78955239
 51
101.99999922
  0
ARC
  5
56E
330
1D
100
AcDbEntity
  8
BLACK
100
AcDbCircle
 10
155.783509
 20
-40.435201
 30
0.0
 40
2.074970170881981
100
AcDbArc
 50
191.99920186
 51
282.00001252
  0
ARC
  5
56F
330
1D
100
AcDbEntity
  8
BLACK
100
AcDbCircle
 10
153.714809
 20
-30.702601
 30
0.0
 40
2.075025277880971
100
AcDbArc
 50
102.26977359
 51
191.9999996
  0
LINE
  5
570
330
1D
100
AcDbEntity
  8
BLACK
  6
Continuous
100
AcDbLine
 10
166.065494
 20
-28.08523
 30
0.0
 11
168.132616
 21
-37.810273
 31
0.0
  0
LINE
  5
571
330
1D
100
AcDbEntity
  8
BLACK
  6
Continuous
100
AcDbLine
 10
166.522046
 20
-40.273981
 30
0.0
 11
156.21492
 21
-42.464828
 31
0.0
  0
LINE
  5
572
330
1D
100
AcDbEntity
  8
BLACK
  6
Continuous
100
AcDbLine
 10
163.60278
 20
-26.479487
 30
0.0
 11
153.273835
 21
-28.674973
 31
0.0
  0
LINE
  5
573
330
1D
100
AcDbEntity
  8
BLACK
  6
Continuous
100
AcDbLine
 10
151.685128
 20
-31.134023
 30
0.0
 11
153.753849
 21
-40.866589
 31
0.0
  0
ARC
  5
574
330
1D
100
AcDbEntity
  8
BLACK
100
AcDbCircle
 10
279.265009
 20
-26.165001
 30
0.0
 40
2.075
100
AcDbArc
 50
270.0
 51
0.0
  0
ARC
  5
575
330
1D
100
AcDbEntity
  8
BLACK
100
AcDbCircle
 10
279.265009
 20
-16.215001
 30
0.0
 40
2.075001
100
AcDbArc
 50
0.0
 51
90.0
  0
ARC
  5
576
330
1D
100
AcDbEntity
  8
BLACK
100
AcDbCircle
 10
268.715009
 20
-26.165001
 30
0.0
 40
2.074999
100
AcDbArc
 50
180.0
 51
270.0
  0
ARC
  5
577
330
1D
100
AcDbEntity
  8
BLACK
100
AcDbCircle
 10
268.715009
 20
-16.215001
 30
0.0
 40
2.075
100
AcDbArc
 50
90.0
 51
180.0
  0
LINE
  5
578
330
1D
100
AcDbEntity
  8
BLACK
  6
Continuous
100
AcDbLine
 10
281.340009
 20
-16.215001
 30
0.0
 11
281.340009
 21
-26.165001
 31
0.0
  0
LINE
  5
579
330
1D
100
AcDbEntity
  8
BLACK
  6
Continuous
100
AcDbLine
 10
279.265009
 20
-28.24
 30
0.0
 11
268.715009
 21
-28.24
 31
0.0
  0
LINE
  5
57A
330
1D
100
AcDbEntity
  8
BLACK
  6
Continuous
100
AcDbLine
 10
279.265009
 20
-14.14
 30
0.0
 11
268.715009
 21
-14.14
 31
0.0
  0
LINE
  5
57B
330
1D
100
AcDbEntity
  8
BLACK
  6
Continuous
100
AcDbLine
 10
266.640009
 20
-16.215001
 30
0.0
 11
266.640009
 21
-26.165001
 31
0.0
  0
ARC
  5
57C
330
1D
100
AcDbEntity
  8
BLACK
100
AcDbCircle
 10
303.085009
 20
-26.165001
 30
0.0
 40
2.074999
100
AcDbArc
 50
270.0
 51
0.0
  0
ARC
  5
57D
330
1D
100
AcDbEntity
  8
BLACK
100
AcDbCircle
 10
303.085009
 20
-16.215001
 30
0.0
 40
2.075001
100
AcDbArc
 50
0.0
 51
90.0
  0
ARC
  5
57E
330
1D
100
AcDbEntity
  8
BLACK
100
AcDbCircle
 10
292.535009
 20
-26.165001
 30
0.0
 40
2.074999
100
AcDbArc
 50
180.0
 51
270.0
  0
ARC
  5
57F
330
1D
100
AcDbEntity
  8
BLACK
100
AcDbCircle
 10
292.535009
 20
-16.215001
 30
0.0
 40
2.075001
100
AcDbArc
 50
90.0
 51
180.0
  0
LINE
  5
580
330
1D
100
AcDbEntity
  8
BLACK
  6
Continuous
100
AcDbLine
 10
305.160008
 20
-16.215001
 30
0.0
 11
305.160008
 21
-26.165001
 31
0.0
  0
LINE
  5
581
330
1D
100
AcDbEntity
  8
BLACK
  6
Continuous
100
AcDbLine
 10
303.085009
 20
-28.24
 30
0.0
 11
292.535009
 21
-28.24
 31
0.0
  0
LINE
  5
582
330
1D
100
AcDbEntity
  8
BLACK
  6
Continuous
100
AcDbLine
 10
303.085009
 20
-14.14
 30
0.0
 11
292.535009
 21
-14.14
 31
0.0
  0
LINE
  5
583
330
1D
100
AcDbEntity
  8
BLACK
  6
Continuous
100
AcDbLine
 10
290.460008
 20
-16.215001
 30
0.0
 11
290.460008
 21
-26.165001
 31
0.0
  0
ARC
  5
584
330
1D
100
AcDbEntity
  8
BLACK
100
AcDbCircle
 10
171.462909
 20
-17.631701
 30
0.0
 40
2.075051957188783
100
AcDbArc
 50
281.6532794500001
 51
12.00001239
  0
ARC
  5
585
330
1D
100
AcDbEntity
  8
BLACK
100
AcDbCircle
 10
169.394209
 20
-7.899201
 30
0.0
 40
2.075059012133631
100
AcDbArc
 50
11.78955239
 51
101.99999922
  0
ARC
  5
586
330
1D
100
AcDbEntity
  8
BLACK
100
AcDbCircle
 10
161.143509
 20
-19.825201
 30
0.0
 40
2.074970170881981
100
AcDbArc
 50
191.99920186
 51
282.00001252
  0
ARC
  5
587
330
1D
100
AcDbEntity
  8
BLACK
100
AcDbCircle
 10
159.074809
 20
-10.092601
 30
0.0
 40
2.075025277880971
100
AcDbArc
 50
102.26977359
 51
191.9999996
  0
LINE
  5
588
330
1D
100
AcDbEntity
  8
BLACK
  6
Continuous
100
AcDbLine
 10
171.425494
 20
-7.47523
 30
0.0
 11
173.492616
 21
-17.200273
 31
0.0
  0
LINE
  5
589
330
1D
100
AcDbEntity
  8
BLACK
  6
Continuous
100
AcDbLine
 10
171.882046
 20
-19.663981
 30
0.0
 11
161.57492
 21
-21.854828
 31
0.0
  0
LINE
  5
58A
330
1D
100
AcDbEntity
  8
BLACK
  6
Continuous
100
AcDbLine
 10
168.96278
 20
-5.869486999999999
 30
0.0
 11
158.633835
 21
-8.064973
 31
0.0
  0
LINE
  5
58B
330
1D
100
AcDbEntity
  8
BLACK
  6
Continuous
100
AcDbLine
 10
157.045128
 20
-10.524023
 30
0.0
 11
159.113849
 21
-20.256589
 31
0.0
  0
ARC
  5
58C
330
1D
100
AcDbEntity
  8
BLACK
100
AcDbCircle
 10
225.264009
 20
-64.619501
 30
0.0
 40
2.075076472289636
100
AcDbArc
 50
281.81345665
 51
12.00000966
  0
ARC
  5
58D
330
1D
100
AcDbEntity
  8
BLACK
100
AcDbCircle
 10
223.195409
 20
-54.88690099999999
 30
0.0
 40
2.074929173772686
100
AcDbArc
 50
11.99803103
 51
101.99999907
  0
ARC
  5
58E
330
1D
100
AcDbEntity
  8
BLACK
100
AcDbCircle
 10
214.944609
 20
-66.813101
 30
0.0
 40
2.074925053270599
100
AcDbArc
 50
191.99794426
 51
281.99999503
  0
ARC
  5
58F
330
1D
100
AcDbEntity
  8
BLACK
100
AcDbCircle
 10
212.876009
 20
-57.080501
 30
0.0
 40
2.075078428584809
100
AcDbArc
 50
102.15909064
 51
191.99999817
  0
LINE
  5
590
330
1D
100
AcDbEntity
  8
BLACK
  6
Continuous
100
AcDbLine
 10
225.225032
 20
-54.455564
 30
0.0
 11
227.29374
 21
-64.188068
 31
0.0
  0
LINE
  5
591
330
1D
100
AcDbEntity
  8
BLACK
  6
Continuous
100
AcDbLine
 10
225.688831
 20
-66.650626
 30
0.0
 11
215.37601
 21
-68.84268399999999
 31
0.0
  0
LINE
  5
592
330
1D
100
AcDbEntity
  8
BLACK
  6
Continuous
100
AcDbLine
 10
222.764007
 20
-52.857314
 30
0.0
 11
212.438942
 21
-55.051975
 31
0.0
  0
LINE
  5
593
330
1D
100
AcDbEntity
  8
BLACK
  6
Continuous
100
AcDbLine
 10
210.846276
 20
-57.511934
 30
0.0
 11
212.914984
 21
-67.244435
 31
0.0
  0
ARC
  5
594
330
1D
100
AcDbEntity
  8
BLACK
100
AcDbCircle
 10
206.630409
 20
-68.58030099999999
 30
0.0
 40
2.074985466831033
100
AcDbArc
 50
281.73024333
 51
12.00000743
  0
ARC
  5
595
330
1D
100
AcDbEntity
  8
BLACK
100
AcDbCircle
 10
204.561709
 20
-58.847601
 30
0.0
 40
2.074913877823607
100
AcDbArc
 50
11.99760799
 51
102.00000416
  0
ARC
  5
596
330
1D
100
AcDbEntity
  8
BLACK
100
AcDbCircle
 10
196.310909
 20
-70.77380099999999
 30
0.0
 40
2.074940349219707
100
AcDbArc
 50
191.99836729
 51
281.99998994
  0
ARC
  5
597
330
1D
100
AcDbEntity
  8
BLACK
100
AcDbCircle
 10
194.242309
 20
-61.04120099999999
 30
0.0
 40
2.075092746386291
100
AcDbArc
 50
101.65324566
 51
191.99999883
  0
LINE
  5
598
330
1D
100
AcDbEntity
  8
BLACK
  6
Continuous
100
AcDbLine
 10
206.591321
 20
-58.416282
 30
0.0
 11
208.660051
 21
-68.148887
 31
0.0
  0
LINE
  5
599
330
1D
100
AcDbEntity
  8
BLACK
  6
Continuous
100
AcDbLine
 10
207.052262
 20
-70.61195099999999
 30
0.0
 11
196.742313
 21
-72.803399
 31
0.0
  0
LINE
  5
59A
330
1D
100
AcDbEntity
  8
BLACK
  6
Continuous
100
AcDbLine
 10
204.13031
 20
-56.818029
 30
0.0
 11
193.823165
 21
-59.008881
 31
0.0
  0
LINE
  5
59B
330
1D
100
AcDbEntity
  8
BLACK
  6
Continuous
100
AcDbLine
 10
192.212562
 20
-61.472637
 30
0.0
 11
194.281273
 21
-71.205153
 31
0.0
  0
ARC
  5
59C
330
1D
100
AcDbEntity
  8
BLACK
100
AcDbCircle
 10
230.624009
 20
-44.009501
 30
0.0
 40
2.075077450437212
100
AcDbArc
 50
281.81347803
 51
12.00000392
  0
ARC
  5
59D
330
1D
100
AcDbEntity
  8
BLACK
100
AcDbCircle
 10
228.555409
 20
-34.276901
 30
0.0
 40
2.074928195625092
100
AcDbArc
 50
11.99799828
 51
102.00000481
  0
ARC
  5
59E
330
1D
100
AcDbEntity
  8
BLACK
100
AcDbCircle
 10
220.304609
 20
-46.203101
 30
0.0
 40
2.074926239329967
100
AcDbArc
 50
191.99797701
 51
282.0000163
  0
ARC
  5
59F
330
1D
100
AcDbEntity
  8
BLACK
100
AcDbCircle
 10
218.236009
 20
-36.470501
 30
0.0
 40
2.075077450437212
100
AcDbArc
 50
102.16872527
 51
192.00000392
  0
LINE
  5
5A0
330
1D
100
AcDbEntity
  8
BLACK
  6
Continuous
100
AcDbLine
 10
230.585033
 20
-33.845565
 30
0.0
 11
232.653741
 21
-43.57806799999999
 31
0.0
  0
LINE
  5
5A1
330
1D
100
AcDbEntity
  8
BLACK
  6
Continuous
100
AcDbLine
 10
231.048832
 20
-46.040627
 30
0.0
 11
220.736011
 21
-48.232685
 31
0.0
  0
LINE
  5
5A2
330
1D
100
AcDbEntity
  8
BLACK
  6
Continuous
100
AcDbLine
 10
228.124007
 20
-32.247315
 30
0.0
 11
217.798601
 21
-34.442049
 31
0.0
  0
LINE
  5
5A3
330
1D
100
AcDbEntity
  8
BLACK
  6
Continuous
100
AcDbLine
 10
216.206277
 20
-36.901934
 30
0.0
 11
218.274985
 21
-46.634436
 31
0.0
  0
ARC
  5
5A4
330
1D
100
AcDbEntity
  8
BLACK
100
AcDbCircle
 10
227.364009
 20
-5.749501
 30
0.0
 40
2.075076472289636
100
AcDbArc
 50
281.82214827
 51
12.00000966
  0
ARC
  5
5A5
330
1D
100
AcDbEntity
  8
BLACK
100
AcDbCircle
 10
225.295409
 20
3.983099
 30
0.0
 40
2.074928195625092
100
AcDbArc
 50
11.99800402
 51
102.00000481
  0
ARC
  5
5A6
330
1D
100
AcDbEntity
  8
BLACK
100
AcDbCircle
 10
217.044609
 20
-7.943101
 30
0.0
 40
2.074926239329967
100
AcDbArc
 50
191.99797127
 51
282.0000163
  0
ARC
  5
5A7
330
1D
100
AcDbEntity
  8
BLACK
100
AcDbCircle
 10
214.976009
 20
1.789499
 30
0.0
 40
2.075078428584809
100
AcDbArc
 50
102.17786612
 51
191.99999817
  0
LINE
  5
5A8
330
1D
100
AcDbEntity
  8
BLACK
  6
Continuous
100
AcDbLine
 10
227.325032
 20
4.414435
 30
0.0
 11
229.39374
 21
-5.318067999999999
 31
0.0
  0
LINE
  5
5A9
330
1D
100
AcDbEntity
  8
BLACK
  6
Continuous
100
AcDbLine
 10
227.789139
 20
-7.780561
 30
0.0
 11
217.476011
 21
-9.972685
 31
0.0
  0
LINE
  5
5AA
330
1D
100
AcDbEntity
  8
BLACK
  6
Continuous
100
AcDbLine
 10
224.864007
 20
6.012684999999999
 30
0.0
 11
214.538277
 21
3.817883
 31
0.0
  0
LINE
  5
5AB
330
1D
100
AcDbEntity
  8
BLACK
  6
Continuous
100
AcDbLine
 10
212.946276
 20
1.358066
 30
0.0
 11
215.014984
 21
-8.374436
 31
0.0
  0
ARC
  5
5AC
330
1D
100
AcDbEntity
  8
BLACK
100
AcDbCircle
 10
269.255009
 20
-45.215001
 30
0.0
 40
2.075
100
AcDbArc
 50
270.0
 51
0.0
  0
ARC
  5
5AD
330
1D
100
AcDbEntity
  8
BLACK
100
AcDbCircle
 10
269.255009
 20
-35.265001
 30
0.0
 40
2.075001
100
AcDbArc
 50
0.0
 51
90.0
  0
ARC
  5
5AE
330
1D
100
AcDbEntity
  8
BLACK
100
AcDbCircle
 10
258.705009
 20
-45.215001
 30
0.0
 40
2.074999
100
AcDbArc
 50
180.0
 51
270.0
  0
ARC
  5
5AF
330
1D
100
AcDbEntity
  8
BLACK
100
AcDbCircle
 10
258.705009
 20
-35.265001
 30
0.0
 40
2.075
100
AcDbArc
 50
90.0
 51
180.0
  0
LINE
  5
5B0
330
1D
100
AcDbEntity
  8
BLACK
  6
Continuous
100
AcDbLine
 10
271.330009
 20
-35.265001
 30
0.0
 11
271.330009
 21
-45.215001
 31
0.0
  0
LINE
  5
5B1
330
1D
100
AcDbEntity
  8
BLACK
  6
Continuous
100
AcDbLine
 10
269.255009
 20
-47.29
 30
0.0
 11
258.705009
 21
-47.29
 31
0.0
  0
LINE
  5
5B2
330
1D
100
AcDbEntity
  8
BLACK
  6
Continuous
100
AcDbLine
 10
269.255009
 20
-33.19
 30
0.0
 11
258.705009
 21
-33.19
 31
0.0
  0
LINE
  5
5B3
330
1D
100
AcDbEntity
  8
BLACK
  6
Continuous
100
AcDbLine
 10
256.630009
 20
-35.265001
 30
0.0
 11
256.630009
 21
-45.215001
 31
0.0
  0
ARC
  5
5B4
330
1D
100
AcDbEntity
  8
BLACK
100
AcDbCircle
 10
222.004009
 20
-26.359501
 30
0.0
 40
2.075077450437212
100
AcDbArc
 50
281.80513334
 51
12.00000392
  0
ARC
  5
5B5
330
1D
100
AcDbEntity
  8
BLACK
100
AcDbCircle
 10
219.935409
 20
-16.626901
 30
0.0
 40
2.074929173772686
100
AcDbArc
 50
11.99802529
 51
101.99999907
  0
ARC
  5
5B6
330
1D
100
AcDbEntity
  8
BLACK
100
AcDbCircle
 10
211.684609
 20
-28.553101
 30
0.0
 40
2.074925053270599
100
AcDbArc
 50
191.99795
 51
281.99999503
  0
ARC
  5
5B7
330
1D
100
AcDbEntity
  8
BLACK
100
AcDbCircle
 10
209.616009
 20
-18.820501
 30
0.0
 40
2.075077450437212
100
AcDbArc
 50
102.14878494
 51
192.00000392
  0
LINE
  5
5B8
330
1D
100
AcDbEntity
  8
BLACK
  6
Continuous
100
AcDbLine
 10
221.965033
 20
-16.195564
 30
0.0
 11
224.033741
 21
-25.928068
 31
0.0
  0
LINE
  5
5B9
330
1D
100
AcDbEntity
  8
BLACK
  6
Continuous
100
AcDbLine
 10
222.428536
 20
-28.390688
 30
0.0
 11
212.11601
 21
-30.582684
 31
0.0
  0
LINE
  5
5BA
330
1D
100
AcDbEntity
  8
BLACK
  6
Continuous
100
AcDbLine
 10
219.504007
 20
-14.597314
 30
0.0
 11
209.179307
 21
-16.791897
 31
0.0
  0
LINE
  5
5BB
330
1D
100
AcDbEntity
  8
BLACK
  6
Continuous
100
AcDbLine
 10
207.586277
 20
-19.251934
 30
0.0
 11
209.654985
 21
-28.984435
 31
0.0
  0
ARC
  5
5BC
330
1D
100
AcDbEntity
  8
BLACK
100
AcDbCircle
 10
211.990409
 20
-47.970301
 30
0.0
 40
2.074985466831033
100
AcDbArc
 50
281.73024333
 51
12.00000743
  0
ARC
  5
5BD
330
1D
100
AcDbEntity
  8
BLACK
100
AcDbCircle
 10
209.921709
 20
-38.237601
 30
0.0
 40
2.074913877823607
100
AcDbArc
 50
11.99760799
 51
102.00000416
  0
ARC
  5
5BE
330
1D
100
AcDbEntity
  8
BLACK
100
AcDbCircle
 10
201.670909
 20
-50.163801
 30
0.0
 40
2.074940349219707
100
AcDbArc
 50
191.99836729
 51
281.99998994
  0
ARC
  5
5BF
330
1D
100
AcDbEntity
  8
BLACK
100
AcDbCircle
 10
199.602309
 20
-40.431201
 30
0.0
 40
2.075092746386291
100
AcDbArc
 50
101.65324566
 51
191.99999883
  0
LINE
  5
5C0
330
1D
100
AcDbEntity
  8
BLACK
  6
Continuous
100
AcDbLine
 10
211.951321
 20
-37.806282
 30
0.0
 11
214.020051
 21
-47.538887
 31
0.0
  0
LINE
  5
5C1
330
1D
100
AcDbEntity
  8
BLACK
  6
Continuous
100
AcDbLine
 10
212.412262
 20
-50.001951
 30
0.0
 11
202.102313
 21
-52.193399
 31
0.0
  0
LINE
  5
5C2
330
1D
100
AcDbEntity
  8
BLACK
  6
Continuous
100
AcDbLine
 10
209.49031
 20
-36.208029
 30
0.0
 11
199.183165
 21
-38.398881
 31
0.0
  0
LINE
  5
5C3
330
1D
100
AcDbEntity
  8
BLACK
  6
Continuous
100
AcDbLine
 10
197.572562
 20
-40.862637
 30
0.0
 11
199.641273
 21
-50.595153
 31
0.0
  0
ARC
  5
5C4
330
1D
100
AcDbEntity
  8
BLACK
100
AcDbCircle
 10
193.356709
 20
-51.93100099999999
 30
0.0
 40
2.074970170881981
100
AcDbArc
 50
281.9991488700001
 51
12.00001252
  0
ARC
  5
5C5
330
1D
100
AcDbEntity
  8
BLACK
100
AcDbCircle
 10
191.287909
 20
-42.198501
 30
0.0
 40
2.075073329935113
100
AcDbArc
 50
11.78957589
 51
101.99999987
  0
ARC
  5
5C6
330
1D
100
AcDbEntity
  8
BLACK
100
AcDbCircle
 10
183.037209
 20
-54.124501
 30
0.0
 40
2.074955853080494
100
AcDbArc
 50
191.99878458
 51
282.00001186
  0
ARC
  5
5C7
330
1D
100
AcDbEntity
  8
BLACK
100
AcDbCircle
 10
180.968509
 20
-44.391901
 30
0.0
 40
2.075009981931894
100
AcDbArc
 50
102.00000469
 51
192.00000469
  0
LINE
  5
5C8
330
1D
100
AcDbEntity
  8
BLACK
  6
Continuous
100
AcDbLine
 10
193.319209
 20
-41.774526
 30
0.0
 11
195.386336
 21
-51.49959
 31
0.0
  0
LINE
  5
5C9
330
1D
100
AcDbEntity
  8
BLACK
  6
Continuous
100
AcDbLine
 10
193.788091
 20
-53.960641
 30
0.0
 11
183.468617
 21
-56.154114
 31
0.0
  0
LINE
  5
5CA
330
1D
100
AcDbEntity
  8
BLACK
  6
Continuous
100
AcDbLine
 10
190.856477
 20
-40.168773
 30
0.0
 11
180.537088
 21
-42.362227
 31
0.0
  0
LINE
  5
5CB
330
1D
100
AcDbEntity
  8
BLACK
  6
Continuous
100
AcDbLine
 10
178.938843
 20
-44.82332
 30
0.0
 11
181.007561
 21
-54.555871
 31
0.0
  0
ARC
  5
5CC
330
1D
100
AcDbEntity
  8
BLACK
100
AcDbCircle
 10
230.074009
 20
-84.609501
 30
0.0
 40
2.075076472289636
100
AcDbArc
 50
281.82214827
 51
12.00000966
  0
ARC
  5
5CD
330
1D
100
AcDbEntity
  8
BLACK
100
AcDbCircle
 10
228.005409
 20
-74.876901
 30
0.0
 40
2.074928195625092
100
AcDbArc
 50
11.99800402
 51
102.00000481
  0
ARC
  5
5CE
330
1D
100
AcDbEntity
  8
BLACK
100
AcDbCircle
 10
219.754609
 20
-86.803101
 30
0.0
 40
2.074926239329967
100
AcDbArc
 50
191.99797127
 51
282.0000163
  0
ARC
  5
5CF
330
1D
100
AcDbEntity
  8
BLACK
100
AcDbCircle
 10
217.686009
 20
-77.070501
 30
0.0
 40
2.075078428584809
100
AcDbArc
 50
102.17786612
 51
191.99999817
  0
LINE
  5
5D0
330
1D
100
AcDbEntity
  8
BLACK
  6
Continuous
100
AcDbLine
 10
230.035032
 20
-74.445565
 30
0.0
 11
232.10374
 21
-84.178068
 31
0.0
  0
LINE
  5
5D1
330
1D
100
AcDbEntity
  8
BLACK
  6
Continuous
100
AcDbLine
 10
230.499139
 20
-86.64056099999999
 30
0.0
 11
220.186011
 21
-88.832685
 31
0.0
  0
LINE
  5
5D2
330
1D
100
AcDbEntity
  8
BLACK
  6
Continuous
100
AcDbLine
 10
227.574007
 20
-72.847315
 30
0.0
 11
217.248277
 21
-75.04211699999999
 31
0.0
  0
LINE
  5
5D3
330
1D
100
AcDbEntity
  8
BLACK
  6
Continuous
100
AcDbLine
 10
215.656276
 20
-77.50193399999999
 30
0.0
 11
217.724984
 21
-87.234436
 31
0.0
  0
ARC
  5
5D4
330
1D
100
AcDbEntity
  8
BLACK
100
AcDbCircle
 10
265.575009
 20
-7.115000999999999
 30
0.0
 40
2.074999
100
AcDbArc
 50
270.0
 51
0.0
  0
ARC
  5
5D5
330
1D
100
AcDbEntity
  8
BLACK
100
AcDbCircle
 10
265.575009
 20
2.834999
 30
0.0
 40
2.075001
100
AcDbArc
 50
0.0
 51
90.0
  0
ARC
  5
5D6
330
1D
100
AcDbEntity
  8
BLACK
100
AcDbCircle
 10
255.025009
 20
-7.115000999999999
 30
0.0
 40
2.074999
100
AcDbArc
 50
180.0
 51
270.0
  0
ARC
  5
5D7
330
1D
100
AcDbEntity
  8
BLACK
100
AcDbCircle
 10
255.025009
 20
2.834999
 30
0.0
 40
2.075001
100
AcDbArc
 50
90.0
 51
180.0
  0
LINE
  5
5D8
330
1D
100
AcDbEntity
  8
BLACK
  6
Continuous
100
AcDbLine
 10
267.650008
 20
2.834999
 30
0.0
 11
267.650008
 21
-7.115000999999999
 31
0.0
  0
LINE
  5
5D9
330
1D
100
AcDbEntity
  8
BLACK
  6
Continuous
100
AcDbLine
 10
265.575009
 20
-9.19
 30
0.0
 11
255.025009
 21
-9.19
 31
0.0
  0
LINE
  5
5DA
330
1D
100
AcDbEntity
  8
BLACK
  6
Continuous
100
AcDbLine
 10
265.575009
 20
4.91
 30
0.0
 11
255.025009
 21
4.91
 31
0.0
  0
LINE
  5
5DB
330
1D
100
AcDbEntity
  8
BLACK
  6
Continuous
100
AcDbLine
 10
252.950008
 20
2.834999
 30
0.0
 11
252.950008
 21
-7.115000999999999
 31
0.0
  0
ARC
  5
5DC
330
1D
100
AcDbEntity
  8
BLACK
100
AcDbCircle
 10
134.006509
 20
-78.695201
 30
0.0
 40
2.074996642278006
100
AcDbArc
 50
257.7302392400001
 51
348.0000017
  0
ARC
  5
5DD
330
1D
100
AcDbEntity
  8
BLACK
100
AcDbCircle
 10
136.075209
 20
-68.96260099999999
 30
0.0
 40
2.075001740927704
100
AcDbArc
 50
347.99999766
 51
78.0000034
  0
ARC
  5
5DE
330
1D
100
AcDbEntity
  8
BLACK
100
AcDbCircle
 10
123.687009
 20
-76.501801
 30
0.0
 40
2.074895439520025
100
AcDbArc
 50
167.99713493
 51
258.00000054
  0
ARC
  5
5DF
330
1D
100
AcDbEntity
  8
BLACK
100
AcDbCircle
 10
125.755709
 20
-66.76910099999999
 30
0.0
 40
2.074926430287349
100
AcDbArc
 50
78.27033978
 51
167.99730293
  0
LINE
  5
5E0
330
1D
100
AcDbEntity
  8
BLACK
  6
Continuous
100
AcDbLine
 10
138.10489
 20
-69.39402299999999
 30
0.0
 11
136.036162
 21
-79.126617
 31
0.0
  0
LINE
  5
5E1
330
1D
100
AcDbEntity
  8
BLACK
  6
Continuous
100
AcDbLine
 10
133.565542
 20
-80.722799
 30
0.0
 11
123.255614
 21
-78.53135499999999
 31
0.0
  0
LINE
  5
5E2
330
1D
100
AcDbEntity
  8
BLACK
  6
Continuous
100
AcDbLine
 10
136.506626
 20
-66.932943
 30
0.0
 11
126.177545
 21
-64.73742899999999
 31
0.0
  0
LINE
  5
5E3
330
1D
100
AcDbEntity
  8
BLACK
  6
Continuous
100
AcDbLine
 10
123.726145
 20
-66.337604
 30
0.0
 11
121.657398
 21
-76.07028799999999
 31
0.0
  0
ARC
  5
5E4
330
1D
100
AcDbEntity
  8
BLACK
100
AcDbCircle
 10
5.275009
 20
-4.975001
 30
0.0
 40
2.075
100
AcDbArc
 50
270.0
 51
0.0
  0
ARC
  5
5E5
330
1D
100
AcDbEntity
  8
BLACK
100
AcDbCircle
 10
5.275009
 20
4.974999
 30
0.0
 40
2.075001
100
AcDbArc
 50
0.0
 51
90.0
  0
ARC
  5
5E6
330
1D
100
AcDbEntity
  8
BLACK
100
AcDbCircle
 10
-5.274989
 20
-4.974997999999999
 30
0.0
 40
2.075002
100
AcDbArc
 50
180.0
 51
270.0
  0
ARC
  5
5E7
330
1D
100
AcDbEntity
  8
BLACK
100
AcDbCircle
 10
-5.274986999999999
 20
4.974996
 30
0.0
 40
2.075004000000241
100
AcDbArc
 50
90.0
 51
180.00002761
  0
LINE
  5
5E8
330
1D
100
AcDbEntity
  8
BLACK
  6
Continuous
100
AcDbLine
 10
7.350009
 20
4.974999
 30
0.0
 11
7.350009
 21
-4.975001
 31
0.0
  0
LINE
  5
5E9
330
1D
100
AcDbEntity
  8
BLACK
  6
Continuous
100
AcDbLine
 10
5.275009
 20
-7.05
 30
0.0
 11
-5.274989
 21
-7.05
 31
0.0
  0
LINE
  5
5EA
330
1D
100
AcDbEntity
  8
BLACK
  6
Continuous
100
AcDbLine
 10
5.275009
 20
7.05
 30
0.0
 11
-5.274986999999999
 21
7.05
 31
0.0
  0
LINE
  5
5EB
330
1D
100
AcDbEntity
  8
BLACK
  6
Continuous
100
AcDbLine
 10
-7.349990999999999
 20
4.974995
 30
0.0
 11
-7.349990999999999
 21
-4.974997999999999
 31
0.0
  0
ARC
  5
5EC
330
1D
100
AcDbEntity
  8
BLACK
100
AcDbCircle
 10
96.739009
 20
-70.773701
 30
0.0
 40
2.075084319010194
100
AcDbArc
 50
257.99941494
 51
348.0026898300001
  0
ARC
  5
5ED
330
1D
100
AcDbEntity
  8
BLACK
100
AcDbCircle
 10
98.80780899999999
 20
-61.041101
 30
0.0
 40
2.074934272422382
100
AcDbArc
 50
347.99818232
 51
78.00000262
  0
ARC
  5
5EE
330
1D
100
AcDbEntity
  8
BLACK
100
AcDbCircle
 10
86.419609
 20
-68.58030099999999
 30
0.0
 40
2.074962908025346
100
AcDbArc
 50
167.99900132
 51
258.00000132
  0
ARC
  5
5EF
330
1D
100
AcDbEntity
  8
BLACK
100
AcDbCircle
 10
88.48840899999999
 20
-58.847701
 30
0.0
 40
2.075055683409484
100
AcDbArc
 50
77.99941624
 51
168.00269117
  0
LINE
  5
5F0
330
1D
100
AcDbEntity
  8
BLACK
  6
Continuous
100
AcDbLine
 10
100.837466
 20
-61.472585
 30
0.0
 11
98.768768
 21
-71.20504
 31
0.0
  0
LINE
  5
5F1
330
1D
100
AcDbEntity
  8
BLACK
  6
Continuous
100
AcDbLine
 10
96.30756799999999
 20
-72.803371
 30
0.0
 11
85.98819999999999
 21
-70.609921
 31
0.0
  0
LINE
  5
5F2
330
1D
100
AcDbEntity
  8
BLACK
  6
Continuous
100
AcDbLine
 10
99.239212
 20
-59.011509
 30
0.0
 11
88.919844
 21
-56.818059
 31
0.0
  0
LINE
  5
5F3
330
1D
100
AcDbEntity
  8
BLACK
  6
Continuous
100
AcDbLine
 10
86.45867799999999
 20
-58.416368
 30
0.0
 11
84.389974
 21
-68.14885199999999
 31
0.0
  0
ARC
  5
5F4
330
1D
100
AcDbEntity
  8
BLACK
100
AcDbCircle
 10
85.335309
 20
-9.923001
 30
0.0
 40
2.075069023052486
100
AcDbArc
 50
257.9994311200001
 51
348.00268476
  0
ARC
  5
5F5
330
1D
100
AcDbEntity
  8
BLACK
100
AcDbCircle
 10
87.40410899999999
 20
-0.190401
 30
0.0
 40
2.074948590223864
100
AcDbArc
 50
347.9985725700001
 51
78.00000197
  0
ARC
  5
5F6
330
1D
100
AcDbEntity
  8
BLACK
100
AcDbCircle
 10
75.015909
 20
-7.729601
 30
0.0
 40
2.074948590223864
100
AcDbArc
 50
167.99861107
 51
258.00000197
  0
ARC
  5
5F7
330
1D
100
AcDbEntity
  8
BLACK
100
AcDbCircle
 10
77.08470899999999
 20
2.002999
 30
0.0
 40
2.075070979367212
100
AcDbArc
 50
77.99941558999998
 51
168.00269624
  0
LINE
  5
5F8
330
1D
100
AcDbEntity
  8
BLACK
  6
Continuous
100
AcDbLine
 10
89.433754
 20
-0.621868
 30
0.0
 11
87.36505299999999
 21
-10.354337
 31
0.0
  0
LINE
  5
5F9
330
1D
100
AcDbEntity
  8
BLACK
  6
Continuous
100
AcDbLine
 10
84.903871
 20
-11.952657
 30
0.0
 11
74.584503
 21
-9.759207
 31
0.0
  0
LINE
  5
5FA
330
1D
100
AcDbEntity
  8
BLACK
  6
Continuous
100
AcDbLine
 10
87.835515
 20
1.839205
 30
0.0
 11
77.51614699999999
 21
4.032655
 31
0.0
  0
LINE
  5
5FB
330
1D
100
AcDbEntity
  8
BLACK
  6
Continuous
100
AcDbLine
 10
75.054963
 20
2.434335
 30
0.0
 11
72.986262
 21
-7.298134999999999
 31
0.0
  0
ARC
  5
5FC
330
1D
100
AcDbEntity
  8
BLACK
100
AcDbCircle
 10
65.98500899999999
 20
-4.975001
 30
0.0
 40
2.074999
100
AcDbArc
 50
270.0
 51
0.0
  0
ARC
  5
5FD
330
1D
100
AcDbEntity
  8
BLACK
100
AcDbCircle
 10
65.98500899999999
 20
4.974999
 30
0.0
 40
2.075001
100
AcDbArc
 50
0.0
 51
90.0
  0
ARC
  5
5FE
330
1D
100
AcDbEntity
  8
BLACK
100
AcDbCircle
 10
55.435009
 20
-4.975001
 30
0.0
 40
2.074999
100
AcDbArc
 50
180.0
 51
270.0
  0
ARC
  5
5FF
330
1D
100
AcDbEntity
  8
BLACK
100
AcDbCircle
 10
55.435009
 20
4.974999
 30
0.0
 40
2.075001
100
AcDbArc
 50
90.0
 51
180.0
  0
LINE
  5
600
330
1D
100
AcDbEntity
  8
BLACK
  6
Continuous
100
AcDbLine
 10
68.060008
 20
4.974999
 30
0.0
 11
68.060008
 21
-4.975001
 31
0.0
  0
LINE
  5
601
330
1D
100
AcDbEntity
  8
BLACK
  6
Continuous
100
AcDbLine
 10
65.98500899999999
 20
-7.05
 30
0.0
 11
55.435009
 21
-7.05
 31
0.0
  0
LINE
  5
602
330
1D
100
AcDbEntity
  8
BLACK
  6
Continuous
100
AcDbLine
 10
65.98500899999999
 20
7.05
 30
0.0
 11
55.435009
 21
7.05
 31
0.0
  0
LINE
  5
603
330
1D
100
AcDbEntity
  8
BLACK
  6
Continuous
100
AcDbLine
 10
53.360008
 20
4.974999
 30
0.0
 11
53.360008
 21
-4.975001
 31
0.0
  0
ARC
  5
604
330
1D
100
AcDbEntity
  8
BLACK
100
AcDbCircle
 10
115.372809
 20
-74.734501
 30
0.0
 40
2.074981346328925
100
AcDbArc
 50
257.7302321700001
 51
347.99999662
  0
ARC
  5
605
330
1D
100
AcDbEntity
  8
BLACK
100
AcDbCircle
 10
117.441509
 20
-65.001901
 30
0.0
 40
2.075017036876806
100
AcDbArc
 50
347.84091713
 51
78.00000849
  0
ARC
  5
606
330
1D
100
AcDbEntity
  8
BLACK
100
AcDbCircle
 10
105.053309
 20
-72.541001
 30
0.0
 40
2.074978203974442
100
AcDbArc
 50
168.14878375
 51
258.0000064
  0
ARC
  5
607
330
1D
100
AcDbEntity
  8
BLACK
100
AcDbCircle
 10
107.122009
 20
-62.808401
 30
0.0
 40
2.074942513426576
100
AcDbArc
 50
77.72501301
 51
167.99999453
  0
LINE
  5
608
330
1D
100
AcDbEntity
  8
BLACK
  6
Continuous
100
AcDbLine
 10
119.469976
 20
-65.43895499999999
 30
0.0
 11
117.402447
 21
-75.165914
 31
0.0
  0
LINE
  5
609
330
1D
100
AcDbEntity
  8
BLACK
  6
Continuous
100
AcDbLine
 10
114.931845
 20
-76.762084
 30
0.0
 11
104.621897
 21
-74.570636
 31
0.0
  0
LINE
  5
60A
330
1D
100
AcDbEntity
  8
BLACK
  6
Continuous
100
AcDbLine
 10
117.872929
 20
-62.97222799999999
 30
0.0
 11
107.563166
 21
-60.78082
 31
0.0
  0
LINE
  5
60B
330
1D
100
AcDbEntity
  8
BLACK
  6
Continuous
100
AcDbLine
 10
105.092409
 20
-62.376996
 30
0.0
 11
103.022562
 21
-72.11486099999999
 31
0.0
  0
ARC
  5
60C
330
1D
100
AcDbEntity
  8
BLACK
100
AcDbCircle
 10
53.401229
 20
-45.214971
 30
0.0
 40
2.075029
100
AcDbArc
 50
270.0
 51
0.0
  0
ARC
  5
60D
330
1D
100
AcDbEntity
  8
BLACK
100
AcDbCircle
 10
53.401309
 20
-35.264901
 30
0.0
 40
2.074902
100
AcDbArc
 50
359.9972939199999
 51
90.0
  0
ARC
  5
60E
330
1D
100
AcDbEntity
  8
BLACK
100
AcDbCircle
 10
42.851409
 20
-45.214801
 30
0.0
 40
2.075198002409409
100
AcDbArc
 50
179.62130107
 51
269.99723902
  0
ARC
  5
60F
330
1D
100
AcDbEntity
  8
BLACK
100
AcDbCircle
 10
42.851229
 20
-35.264971
 30
0.0
 40
2.074971
100
AcDbArc
 50
90.0
 51
180.0
  0
LINE
  5
610
330
1D
100
AcDbEntity
  8
BLACK
  6
Continuous
100
AcDbLine
 10
55.47625799999999
 20
-35.264999
 30
0.0
 11
55.47625799999999
 21
-45.214971
 31
0.0
  0
LINE
  5
611
330
1D
100
AcDbEntity
  8
BLACK
  6
Continuous
100
AcDbLine
 10
53.401229
 20
-47.28999899999999
 30
0.0
 11
42.851309
 21
-47.28999899999999
 31
0.0
  0
LINE
  5
612
330
1D
100
AcDbEntity
  8
BLACK
  6
Continuous
100
AcDbLine
 10
53.401309
 20
-33.189999
 30
0.0
 11
42.851229
 21
-33.189999
 31
0.0
  0
LINE
  5
613
330
1D
100
AcDbEntity
  8
BLACK
  6
Continuous
100
AcDbLine
 10
40.776258
 20
-35.264971
 30
0.0
 11
40.776258
 21
-45.201085
 31
0.0
  0
ARC
  5
614
330
1D
100
AcDbEntity
  8
BLACK
100
AcDbCircle
 10
72.755309
 20
-46.203001
 30
0.0
 40
2.075069023052486
100
AcDbArc
 50
257.9994311200001
 51
348.00268476
  0
ARC
  5
615
330
1D
100
AcDbEntity
  8
BLACK
100
AcDbCircle
 10
74.82410899999999
 20
-36.470401
 30
0.0
 40
2.074948590223864
100
AcDbArc
 50
347.9985725700001
 51
78.00000197
  0
ARC
  5
616
330
1D
100
AcDbEntity
  8
BLACK
100
AcDbCircle
 10
62.435909
 20
-44.009601
 30
0.0
 40
2.074948590223864
100
AcDbArc
 50
167.99861107
 51
258.00000197
  0
ARC
  5
617
330
1D
100
AcDbEntity
  8
BLACK
100
AcDbCircle
 10
64.50470899999999
 20
-34.277001
 30
0.0
 40
2.075071373639953
100
AcDbArc
 50
77.99941558999998
 51
167.99998865
  0
LINE
  5
618
330
1D
100
AcDbEntity
  8
BLACK
  6
Continuous
100
AcDbLine
 10
76.853754
 20
-36.901868
 30
0.0
 11
74.78505299999999
 21
-46.634337
 31
0.0
  0
LINE
  5
619
330
1D
100
AcDbEntity
  8
BLACK
  6
Continuous
100
AcDbLine
 10
72.323871
 20
-48.232657
 30
0.0
 11
62.004503
 21
-46.039207
 31
0.0
  0
LINE
  5
61A
330
1D
100
AcDbEntity
  8
BLACK
  6
Continuous
100
AcDbLine
 10
75.255515
 20
-34.440795
 30
0.0
 11
64.93614699999999
 21
-32.247345
 31
0.0
  0
LINE
  5
61B
330
1D
100
AcDbEntity
  8
BLACK
  6
Continuous
100
AcDbLine
 10
62.47498299999999
 20
-33.845569
 30
0.0
 11
60.406262
 21
-43.578135
 31
0.0
  0
ARC
  5
61C
330
1D
100
AcDbEntity
  8
BLACK
100
AcDbCircle
 10
103.969009
 20
-13.883701
 30
0.0
 40
2.075084319010194
100
AcDbArc
 50
257.99941494
 51
348.0026898300001
  0
ARC
  5
61D
330
1D
100
AcDbEntity
  8
BLACK
100
AcDbCircle
 10
106.037809
 20
-4.151101
 30
0.0
 40
2.074934272422382
100
AcDbArc
 50
347.99818232
 51
78.00000262
  0
ARC
  5
61E
330
1D
100
AcDbEntity
  8
BLACK
100
AcDbCircle
 10
93.649609
 20
-11.690301
 30
0.0
 40
2.074962908025346
100
AcDbArc
 50
167.99900132
 51
258.00000132
  0
ARC
  5
61F
330
1D
100
AcDbEntity
  8
BLACK
100
AcDbCircle
 10
95.718409
 20
-1.957701
 30
0.0
 40
2.075055869779173
100
AcDbArc
 50
77.99941624
 51
168.00001057
  0
LINE
  5
620
330
1D
100
AcDbEntity
  8
BLACK
  6
Continuous
100
AcDbLine
 10
108.067466
 20
-4.582585
 30
0.0
 11
105.998768
 21
-14.31504
 31
0.0
  0
LINE
  5
621
330
1D
100
AcDbEntity
  8
BLACK
  6
Continuous
100
AcDbLine
 10
103.537568
 20
-15.913371
 30
0.0
 11
93.2182
 21
-13.719921
 31
0.0
  0
LINE
  5
622
330
1D
100
AcDbEntity
  8
BLACK
  6
Continuous
100
AcDbLine
 10
106.469212
 20
-2.121509
 30
0.0
 11
96.149844
 21
0.071941
 31
0.0
  0
LINE
  5
623
330
1D
100
AcDbEntity
  8
BLACK
  6
Continuous
100
AcDbLine
 10
93.688698
 20
-1.526273
 30
0.0
 11
91.619974
 21
-11.258852
 31
0.0
  0
ARC
  5
624
330
1D
100
AcDbEntity
  8
BLACK
100
AcDbCircle
 10
128.656509
 20
-58.085201
 30
0.0
 40
2.074996642278006
100
AcDbArc
 50
257.7302392400001
 51
348.0000017
  0
ARC
  5
625
330
1D
100
AcDbEntity
  8
BLACK
100
AcDbCircle
 10
130.725209
 20
-48.352601
 30
0.0
 40
2.075001740927704
100
AcDbArc
 50
347.99999766
 51
78.0000034
  0
ARC
  5
626
330
1D
100
AcDbEntity
  8
BLACK
100
AcDbCircle
 10
118.337009
 20
-55.891801
 30
0.0
 40
2.074895439520025
100
AcDbArc
 50
167.99713493
 51
258.00000054
  0
ARC
  5
627
330
1D
100
AcDbEntity
  8
BLACK
100
AcDbCircle
 10
120.405709
 20
-46.159101
 30
0.0
 40
2.074927217477519
100
AcDbArc
 50
77.72503288
 51
167.99998944
  0
LINE
  5
628
330
1D
100
AcDbEntity
  8
BLACK
  6
Continuous
100
AcDbLine
 10
132.75489
 20
-48.784023
 30
0.0
 11
130.686162
 21
-58.516617
 31
0.0
  0
LINE
  5
629
330
1D
100
AcDbEntity
  8
BLACK
  6
Continuous
100
AcDbLine
 10
128.215542
 20
-60.112799
 30
0.0
 11
117.905614
 21
-57.921355
 31
0.0
  0
LINE
  5
62A
330
1D
100
AcDbEntity
  8
BLACK
  6
Continuous
100
AcDbLine
 10
131.156626
 20
-46.322943
 30
0.0
 11
120.846862
 21
-44.131535
 31
0.0
  0
LINE
  5
62B
330
1D
100
AcDbEntity
  8
BLACK
  6
Continuous
100
AcDbLine
 10
118.376124
 20
-45.727699
 30
0.0
 11
116.307398
 21
-55.460288
 31
0.0
  0
ARC
  5
62C
330
1D
100
AcDbEntity
  8
BLACK
100
AcDbCircle
 10
-2.954989
 20
-43.075
 30
0.0
 40
2.074999
100
AcDbArc
 50
270.0
 51
0.0
  0
ARC
  5
62D
330
1D
100
AcDbEntity
  8
BLACK
100
AcDbCircle
 10
-2.954989
 20
-33.124998
 30
0.0
 40
2.074999
100
AcDbArc
 50
0.0
 51
90.0
  0
ARC
  5
62E
330
1D
100
AcDbEntity
  8
BLACK
100
AcDbCircle
 10
-13.504988
 20
-43.074997
 30
0.0
 40
2.075002
100
AcDbArc
 50
180.0
 51
270.0
  0
ARC
  5
62F
330
1D
100
AcDbEntity
  8
BLACK
100
AcDbCircle
 10
-13.504986
 20
-33.125003
 30
0.0
 40
2.075004
100
AcDbArc
 50
90.0
 51
180.0
  0
LINE
  5
630
330
1D
100
AcDbEntity
  8
BLACK
  6
Continuous
100
AcDbLine
 10
-0.8799899999999999
 20
-33.124998
 30
0.0
 11
-0.8799899999999999
 21
-43.075
 31
0.0
  0
LINE
  5
631
330
1D
100
AcDbEntity
  8
BLACK
  6
Continuous
100
AcDbLine
 10
-2.954989
 20
-45.149999
 30
0.0
 11
-13.504988
 21
-45.149999
 31
0.0
  0
LINE
  5
632
330
1D
100
AcDbEntity
  8
BLACK
  6
Continuous
100
AcDbLine
 10
-2.954989
 20
-31.049999
 30
0.0
 11
-13.504986
 21
-31.049999
 31
0.0
  0
LINE
  5
633
330
1D
100
AcDbEntity
  8
BLACK
  6
Continuous
100
AcDbLine
 10
-15.57999
 20
-33.125003
 30
0.0
 11
-15.57999
 21
-43.074997
 31
0.0
  0
ARC
  5
634
330
1D
100
AcDbEntity
  8
BLACK
100
AcDbCircle
 10
109.322809
 20
-34.494501
 30
0.0
 40
2.074981346328925
100
AcDbArc
 50
257.7302321700001
 51
347.99999662
  0
ARC
  5
635
330
1D
100
AcDbEntity
  8
BLACK
100
AcDbCircle
 10
111.391509
 20
-24.761901
 30
0.0
 40
2.075017036876806
100
AcDbArc
 50
347.84091713
 51
78.00000849
  0
ARC
  5
636
330
1D
100
AcDbEntity
  8
BLACK
100
AcDbCircle
 10
99.003309
 20
-32.301001
 30
0.0
 40
2.074978203974442
100
AcDbArc
 50
168.14878375
 51
258.0000064
  0
ARC
  5
637
330
1D
100
AcDbEntity
  8
BLACK
100
AcDbCircle
 10
101.072009
 20
-22.568401
 30
0.0
 40
2.074942513426576
100
AcDbArc
 50
77.72501301
 51
167.99999453
  0
LINE
  5
638
330
1D
100
AcDbEntity
  8
BLACK
  6
Continuous
100
AcDbLine
 10
113.419976
 20
-25.198955
 30
0.0
 11
111.352447
 21
-34.925914
 31
0.0
  0
LINE
  5
639
330
1D
100
AcDbEntity
  8
BLACK
  6
Continuous
100
AcDbLine
 10
108.881845
 20
-36.522084
 30
0.0
 11
98.57189699999999
 21
-34.330636
 31
0.0
  0
LINE
  5
63A
330
1D
100
AcDbEntity
  8
BLACK
  6
Continuous
100
AcDbLine
 10
111.822929
 20
-22.732228
 30
0.0
 11
101.513166
 21
-20.54082
 31
0.0
  0
LINE
  5
63B
330
1D
100
AcDbEntity
  8
BLACK
  6
Continuous
100
AcDbLine
 10
99.04240899999999
 20
-22.136996
 30
0.0
 11
96.972562
 21
-31.874861
 31
0.0
  0
ARC
  5
63C
330
1D
100
AcDbEntity
  8
BLACK
100
AcDbCircle
 10
127.956509
 20
-38.455201
 30
0.0
 40
2.074996642278006
100
AcDbArc
 50
257.7302392400001
 51
348.0000017
  0
ARC
  5
63D
330
1D
100
AcDbEntity
  8
BLACK
100
AcDbCircle
 10
130.025209
 20
-28.722601
 30
0.0
 40
2.075001740927704
100
AcDbArc
 50
347.99999766
 51
78.0000034
  0
ARC
  5
63E
330
1D
100
AcDbEntity
  8
BLACK
100
AcDbCircle
 10
117.637009
 20
-36.261801
 30
0.0
 40
2.074895439520025
100
AcDbArc
 50
167.99713493
 51
258.00000054
  0
ARC
  5
63F
330
1D
100
AcDbEntity
  8
BLACK
100
AcDbCircle
 10
119.705709
 20
-26.529101
 30
0.0
 40
2.074927217477519
100
AcDbArc
 50
77.72503288
 51
167.99998944
  0
LINE
  5
640
330
1D
100
AcDbEntity
  8
BLACK
  6
Continuous
100
AcDbLine
 10
132.05489
 20
-29.154023
 30
0.0
 11
129.986162
 21
-38.886617
 31
0.0
  0
LINE
  5
641
330
1D
100
AcDbEntity
  8
BLACK
  6
Continuous
100
AcDbLine
 10
127.515542
 20
-40.482799
 30
0.0
 11
117.205614
 21
-38.291355
 31
0.0
  0
LINE
  5
642
330
1D
100
AcDbEntity
  8
BLACK
  6
Continuous
100
AcDbLine
 10
130.456626
 20
-26.692943
 30
0.0
 11
120.146862
 21
-24.501535
 31
0.0
  0
LINE
  5
643
330
1D
100
AcDbEntity
  8
BLACK
  6
Continuous
100
AcDbLine
 10
117.676124
 20
-26.097699
 30
0.0
 11
115.607398
 21
-35.830288
 31
0.0
  0
ARC
  5
644
330
1D
100
AcDbEntity
  8
BLACK
100
AcDbCircle
 10
1.115012
 20
-24.025002
 30
0.0
 40
2.074997
100
AcDbArc
 50
270.0
 51
0.0
  0
ARC
  5
645
330
1D
100
AcDbEntity
  8
BLACK
100
AcDbCircle
 10
1.115009
 20
-14.075001
 30
0.0
 40
2.075002
100
AcDbArc
 50
0.0
 51
90.0
  0
ARC
  5
646
330
1D
100
AcDbEntity
  8
BLACK
100
AcDbCircle
 10
-9.434989
 20
-24.024997
 30
0.0
 40
2.075002
100
AcDbArc
 50
180.0
 51
270.0
  0
ARC
  5
647
330
1D
100
AcDbEntity
  8
BLACK
100
AcDbCircle
 10
-9.434987
 20
-14.075003
 30
0.0
 40
2.075004
100
AcDbArc
 50
90.0
 51
180.0
  0
LINE
  5
648
330
1D
100
AcDbEntity
  8
BLACK
  6
Continuous
100
AcDbLine
 10
3.190009
 20
-14.075001
 30
0.0
 11
3.190009
 21
-24.025002
 31
0.0
  0
LINE
  5
649
330
1D
100
AcDbEntity
  8
BLACK
  6
Continuous
100
AcDbLine
 10
1.115012
 20
-26.099999
 30
0.0
 11
-9.434989
 21
-26.099999
 31
0.0
  0
LINE
  5
64A
330
1D
100
AcDbEntity
  8
BLACK
  6
Continuous
100
AcDbLine
 10
1.115009
 20
-11.999999
 30
0.0
 11
-9.434987
 21
-11.999999
 31
0.0
  0
LINE
  5
64B
330
1D
100
AcDbEntity
  8
BLACK
  6
Continuous
100
AcDbLine
 10
-11.509991
 20
-14.075003
 30
0.0
 11
-11.509991
 21
-24.024997
 31
0.0
  0
ARC
  5
64C
330
1D
100
AcDbEntity
  8
BLACK
100
AcDbCircle
 10
141.236509
 20
-21.805201
 30
0.0
 40
2.074996642278006
100
AcDbArc
 50
257.7302392400001
 51
348.0000017
  0
ARC
  5
64D
330
1D
100
AcDbEntity
  8
BLACK
100
AcDbCircle
 10
143.305209
 20
-12.072601
 30
0.0
 40
2.075001740927704
100
AcDbArc
 50
347.99999766
 51
78.0000034
  0
ARC
  5
64E
330
1D
100
AcDbEntity
  8
BLACK
100
AcDbCircle
 10
130.917009
 20
-19.611801
 30
0.0
 40
2.074895439520025
100
AcDbArc
 50
167.99713493
 51
258.00000054
  0
ARC
  5
64F
330
1D
100
AcDbEntity
  8
BLACK
100
AcDbCircle
 10
132.985709
 20
-9.879101
 30
0.0
 40
2.074927217477519
100
AcDbArc
 50
77.72503288
 51
167.99998944
  0
LINE
  5
650
330
1D
100
AcDbEntity
  8
BLACK
  6
Continuous
100
AcDbLine
 10
145.33489
 20
-12.504023
 30
0.0
 11
143.266162
 21
-22.236617
 31
0.0
  0
LINE
  5
651
330
1D
100
AcDbEntity
  8
BLACK
  6
Continuous
100
AcDbLine
 10
140.795542
 20
-23.832799
 30
0.0
 11
130.485614
 21
-21.641355
 31
0.0
  0
LINE
  5
652
330
1D
100
AcDbEntity
  8
BLACK
  6
Continuous
100
AcDbLine
 10
143.736626
 20
-10.042943
 30
0.0
 11
133.426862
 21
-7.851534999999999
 31
0.0
  0
LINE
  5
653
330
1D
100
AcDbEntity
  8
BLACK
  6
Continuous
100
AcDbLine
 10
130.956124
 20
-9.447699
 30
0.0
 11
128.887398
 21
-19.180288
 31
0.0
  0
ARC
  5
654
330
1D
100
AcDbEntity
  8
BLACK
100
AcDbCircle
 10
52.70750899999999
 20
-26.165001
 30
0.0
 40
2.074999
100
AcDbArc
 50
270.0
 51
0.0
  0
ARC
  5
655
330
1D
100
AcDbEntity
  8
BLACK
100
AcDbCircle
 10
52.70750899999999
 20
-16.215001
 30
0.0
 40
2.075002
100
AcDbArc
 50
0.0
 51
90.0
  0
ARC
  5
656
330
1D
100
AcDbEntity
  8
BLACK
100
AcDbCircle
 10
42.157509
 20
-26.165001
 30
0.0
 40
2.074998
100
AcDbArc
 50
180.0
 51
270.0
  0
ARC
  5
657
330
1D
100
AcDbEntity
  8
BLACK
100
AcDbCircle
 10
42.157509
 20
-16.215001
 30
0.0
 40
2.075001
100
AcDbArc
 50
90.0
 51
180.0
  0
LINE
  5
658
330
1D
100
AcDbEntity
  8
BLACK
  6
Continuous
100
AcDbLine
 10
54.782508
 20
-16.215001
 30
0.0
 11
54.782508
 21
-26.165001
 31
0.0
  0
LINE
  5
659
330
1D
100
AcDbEntity
  8
BLACK
  6
Continuous
100
AcDbLine
 10
52.70750899999999
 20
-28.239999
 30
0.0
 11
42.157509
 21
-28.239999
 31
0.0
  0
LINE
  5
65A
330
1D
100
AcDbEntity
  8
BLACK
  6
Continuous
100
AcDbLine
 10
52.70750899999999
 20
-14.139999
 30
0.0
 11
42.157509
 21
-14.139999
 31
0.0
  0
LINE
  5
65B
330
1D
100
AcDbEntity
  8
BLACK
  6
Continuous
100
AcDbLine
 10
40.082508
 20
-16.215001
 30
0.0
 11
40.082508
 21
-26.165001
 31
0.0
  0
ARC
  5
65C
330
1D
100
AcDbEntity
  8
BLACK
100
AcDbCircle
 10
47.345009
 20
-7.115000999999999
 30
0.0
 40
2.074999
100
AcDbArc
 50
270.0
 51
0.0
  0
ARC
  5
65D
330
1D
100
AcDbEntity
  8
BLACK
100
AcDbCircle
 10
47.345009
 20
2.834999
 30
0.0
 40
2.075002
100
AcDbArc
 50
0.0
 51
90.0
  0
ARC
  5
65E
330
1D
100
AcDbEntity
  8
BLACK
100
AcDbCircle
 10
36.795009
 20
-7.115000999999999
 30
0.0
 40
2.074998
100
AcDbArc
 50
180.0
 51
270.0
  0
ARC
  5
65F
330
1D
100
AcDbEntity
  8
BLACK
100
AcDbCircle
 10
36.795009
 20
2.834999
 30
0.0
 40
2.075001
100
AcDbArc
 50
90.0
 51
180.0
  0
LINE
  5
660
330
1D
100
AcDbEntity
  8
BLACK
  6
Continuous
100
AcDbLine
 10
49.420008
 20
2.834999
 30
0.0
 11
49.420008
 21
-7.115000999999999
 31
0.0
  0
LINE
  5
661
330
1D
100
AcDbEntity
  8
BLACK
  6
Continuous
100
AcDbLine
 10
47.345009
 20
-9.189999
 30
0.0
 11
36.795009
 21
-9.189999
 31
0.0
  0
LINE
  5
662
330
1D
100
AcDbEntity
  8
BLACK
  6
Continuous
100
AcDbLine
 10
47.345009
 20
4.910000999999999
 30
0.0
 11
36.795009
 21
4.910000999999999
 31
0.0
  0
LINE
  5
663
330
1D
100
AcDbEntity
  8
BLACK
  6
Continuous
100
AcDbLine
 10
34.720008
 20
2.834999
 30
0.0
 11
34.720008
 21
-7.115000999999999
 31
0.0
  0
ARC
  5
664
330
1D
100
AcDbEntity
  8
BLACK
100
AcDbCircle
 10
72.055309
 20
-26.573001
 30
0.0
 40
2.075069023052486
100
AcDbArc
 50
257.9994311200001
 51
348.00268476
  0
ARC
  5
665
330
1D
100
AcDbEntity
  8
BLACK
100
AcDbCircle
 10
74.12410899999999
 20
-16.840401
 30
0.0
 40
2.074948590223864
100
AcDbArc
 50
347.9985725700001
 51
78.00000197
  0
ARC
  5
666
330
1D
100
AcDbEntity
  8
BLACK
100
AcDbCircle
 10
61.735909
 20
-24.379601
 30
0.0
 40
2.074948590223864
100
AcDbArc
 50
167.99861107
 51
258.00000197
  0
ARC
  5
667
330
1D
100
AcDbEntity
  8
BLACK
100
AcDbCircle
 10
63.804709
 20
-14.647001
 30
0.0
 40
2.075070979367212
100
AcDbArc
 50
77.99941558999998
 51
168.00269624
  0
LINE
  5
668
330
1D
100
AcDbEntity
  8
BLACK
  6
Continuous
100
AcDbLine
 10
76.15375399999999
 20
-17.271868
 30
0.0
 11
74.085053
 21
-27.004337
 31
0.0
  0
LINE
  5
669
330
1D
100
AcDbEntity
  8
BLACK
  6
Continuous
100
AcDbLine
 10
71.623871
 20
-28.602657
 30
0.0
 11
61.304503
 21
-26.409207
 31
0.0
  0
LINE
  5
66A
330
1D
100
AcDbEntity
  8
BLACK
  6
Continuous
100
AcDbLine
 10
74.555515
 20
-14.810795
 30
0.0
 11
64.236147
 21
-12.617345
 31
0.0
  0
LINE
  5
66B
330
1D
100
AcDbEntity
  8
BLACK
  6
Continuous
100
AcDbLine
 10
61.774963
 20
-14.215665
 30
0.0
 11
59.706262
 21
-23.948135
 31
0.0
  0
ARC
  5
66C
330
1D
100
AcDbEntity
  8
BLACK
100
AcDbCircle
 10
78.10530899999999
 20
-66.813001
 30
0.0
 40
2.075069023052486
100
AcDbArc
 50
257.9994311200001
 51
348.00268476
  0
ARC
  5
66D
330
1D
100
AcDbEntity
  8
BLACK
100
AcDbCircle
 10
80.174109
 20
-57.08040099999999
 30
0.0
 40
2.074948590223864
100
AcDbArc
 50
347.9985725700001
 51
78.00000197
  0
ARC
  5
66E
330
1D
100
AcDbEntity
  8
BLACK
100
AcDbCircle
 10
67.785909
 20
-64.619601
 30
0.0
 40
2.074948590223864
100
AcDbArc
 50
167.99861107
 51
258.00000197
  0
ARC
  5
66F
330
1D
100
AcDbEntity
  8
BLACK
100
AcDbCircle
 10
69.854709
 20
-54.887001
 30
0.0
 40
2.075070979367212
100
AcDbArc
 50
77.99941558999998
 51
168.00269624
  0
LINE
  5
670
330
1D
100
AcDbEntity
  8
BLACK
  6
Continuous
100
AcDbLine
 10
82.20375399999999
 20
-57.511868
 30
0.0
 11
80.135053
 21
-67.244337
 31
0.0
  0
LINE
  5
671
330
1D
100
AcDbEntity
  8
BLACK
  6
Continuous
100
AcDbLine
 10
77.67387099999999
 20
-68.842657
 30
0.0
 11
67.354503
 21
-66.649207
 31
0.0
  0
LINE
  5
672
330
1D
100
AcDbEntity
  8
BLACK
  6
Continuous
100
AcDbLine
 10
80.605515
 20
-55.050795
 30
0.0
 11
70.286147
 21
-52.857345
 31
0.0
  0
LINE
  5
673
330
1D
100
AcDbEntity
  8
BLACK
  6
Continuous
100
AcDbLine
 10
67.824963
 20
-54.455665
 30
0.0
 11
65.75626199999999
 21
-64.188135
 31
0.0
  0
ARC
  5
674
330
1D
100
AcDbEntity
  8
BLACK
100
AcDbCircle
 10
90.689009
 20
-30.533701
 30
0.0
 40
2.075084319010194
100
AcDbArc
 50
257.99941494
 51
348.0026898300001
  0
ARC
  5
675
330
1D
100
AcDbEntity
  8
BLACK
100
AcDbCircle
 10
92.757809
 20
-20.801101
 30
0.0
 40
2.074934272422382
100
AcDbArc
 50
347.99818232
 51
78.00000262
  0
ARC
  5
676
330
1D
100
AcDbEntity
  8
BLACK
100
AcDbCircle
 10
80.369609
 20
-28.340301
 30
0.0
 40
2.074962908025346
100
AcDbArc
 50
167.99900132
 51
258.00000132
  0
ARC
  5
677
330
1D
100
AcDbEntity
  8
BLACK
100
AcDbCircle
 10
82.438409
 20
-18.607701
 30
0.0
 40
2.075055683409484
100
AcDbArc
 50
77.99941624
 51
168.00269117
  0
LINE
  5
678
330
1D
100
AcDbEntity
  8
BLACK
  6
Continuous
100
AcDbLine
 10
94.787466
 20
-21.232585
 30
0.0
 11
92.718768
 21
-30.96504
 31
0.0
  0
LINE
  5
679
330
1D
100
AcDbEntity
  8
BLACK
  6
Continuous
100
AcDbLine
 10
90.25756799999999
 20
-32.563371
 30
0.0
 11
79.9382
 21
-30.369921
 31
0.0
  0
LINE
  5
67A
330
1D
100
AcDbEntity
  8
BLACK
  6
Continuous
100
AcDbLine
 10
93.189212
 20
-18.771509
 30
0.0
 11
82.869844
 21
-16.578059
 31
0.0
  0
LINE
  5
67B
330
1D
100
AcDbEntity
  8
BLACK
  6
Continuous
100
AcDbLine
 10
80.408678
 20
-18.176368
 30
0.0
 11
78.339974
 21
-27.908852
 31
0.0
  0
ARC
  5
67C
330
1D
100
AcDbEntity
  8
BLACK
100
AcDbCircle
 10
91.389009
 20
-50.163701
 30
0.0
 40
2.075084319010194
100
AcDbArc
 50
257.99941494
 51
348.0026898300001
  0
ARC
  5
67D
330
1D
100
AcDbEntity
  8
BLACK
100
AcDbCircle
 10
93.457809
 20
-40.431101
 30
0.0
 40
2.074934272422382
100
AcDbArc
 50
347.99818232
 51
78.00000262
  0
ARC
  5
67E
330
1D
100
AcDbEntity
  8
BLACK
100
AcDbCircle
 10
81.069609
 20
-47.970301
 30
0.0
 40
2.074962908025346
100
AcDbArc
 50
167.99900132
 51
258.00000132
  0
ARC
  5
67F
330
1D
100
AcDbEntity
  8
BLACK
100
AcDbCircle
 10
83.138409
 20
-38.237701
 30
0.0
 40
2.075055683409484
100
AcDbArc
 50
77.99941624
 51
168.00269117
  0
LINE
  5
680
330
1D
100
AcDbEntity
  8
BLACK
  6
Continuous
100
AcDbLine
 10
95.487466
 20
-40.862585
 30
0.0
 11
93.418768
 21
-50.59504
 31
0.0
  0
LINE
  5
681
330
1D
100
AcDbEntity
  8
BLACK
  6
Continuous
100
AcDbLine
 10
90.957568
 20
-52.193371
 30
0.0
 11
80.6382
 21
-49.999921
 31
0.0
  0
LINE
  5
682
330
1D
100
AcDbEntity
  8
BLACK
  6
Continuous
100
AcDbLine
 10
93.889212
 20
-38.401509
 30
0.0
 11
83.56984399999999
 21
-36.208059
 31
0.0
  0
LINE
  5
683
330
1D
100
AcDbEntity
  8
BLACK
  6
Continuous
100
AcDbLine
 10
81.108678
 20
-37.806368
 30
0.0
 11
79.039974
 21
-47.538852
 31
0.0
  0
ARC
  5
684
330
1D
100
AcDbEntity
  8
BLACK
100
AcDbCircle
 10
122.602809
 20
-17.844501
 30
0.0
 40
2.074981346328925
100
AcDbArc
 50
257.7302321700001
 51
347.99999662
  0
ARC
  5
685
330
1D
100
AcDbEntity
  8
BLACK
100
AcDbCircle
 10
124.671509
 20
-8.111901
 30
0.0
 40
2.075017036876806
100
AcDbArc
 50
347.84091713
 51
78.00000849
  0
ARC
  5
686
330
1D
100
AcDbEntity
  8
BLACK
100
AcDbCircle
 10
112.283309
 20
-15.651001
 30
0.0
 40
2.074978203974442
100
AcDbArc
 50
168.14878375
 51
258.0000064
  0
ARC
  5
687
330
1D
100
AcDbEntity
  8
BLACK
100
AcDbCircle
 10
114.352009
 20
-5.918400999999999
 30
0.0
 40
2.074942912323373
100
AcDbArc
 50
77.72501301
 51
167.99728677
  0
LINE
  5
688
330
1D
100
AcDbEntity
  8
BLACK
  6
Continuous
100
AcDbLine
 10
126.699976
 20
-8.548955
 30
0.0
 11
124.632447
 21
-18.275914
 31
0.0
  0
LINE
  5
689
330
1D
100
AcDbEntity
  8
BLACK
  6
Continuous
100
AcDbLine
 10
122.161845
 20
-19.872084
 30
0.0
 11
111.851897
 21
-17.680636
 31
0.0
  0
LINE
  5
68A
330
1D
100
AcDbEntity
  8
BLACK
  6
Continuous
100
AcDbLine
 10
125.102929
 20
-6.082228
 30
0.0
 11
114.793166
 21
-3.89082
 31
0.0
  0
LINE
  5
68B
330
1D
100
AcDbEntity
  8
BLACK
  6
Continuous
100
AcDbLine
 10
112.322429
 20
-5.486899999999999
 30
0.0
 11
110.252562
 21
-15.224861
 31
0.0
  0
ARC
  5
68C
330
1D
100
AcDbEntity
  8
BLACK
100
AcDbCircle
 10
110.022809
 20
-54.124501
 30
0.0
 40
2.074981346328925
100
AcDbArc
 50
257.7302321700001
 51
347.99999662
  0
ARC
  5
68D
330
1D
100
AcDbEntity
  8
BLACK
100
AcDbCircle
 10
112.091509
 20
-44.391901
 30
0.0
 40
2.075017036876806
100
AcDbArc
 50
347.84091713
 51
78.00000849
  0
ARC
  5
68E
330
1D
100
AcDbEntity
  8
BLACK
100
AcDbCircle
 10
99.70330899999999
 20
-51.93100099999999
 30
0.0
 40
2.074978203974442
100
AcDbArc
 50
168.14878375
 51
258.0000064
  0
ARC
  5
68F
330
1D
100
AcDbEntity
  8
BLACK
100
AcDbCircle
 10
101.772009
 20
-42.198401
 30
0.0
 40
2.074942912323373
100
AcDbArc
 50
77.72501301
 51
167.99728677
  0
LINE
  5
690
330
1D
100
AcDbEntity
  8
BLACK
  6
Continuous
100
AcDbLine
 10
114.119976
 20
-44.828955
 30
0.0
 11
112.052447
 21
-54.55591399999999
 31
0.0
  0
LINE
  5
691
330
1D
100
AcDbEntity
  8
BLACK
  6
Continuous
100
AcDbLine
 10
109.581845
 20
-56.152084
 30
0.0
 11
99.271897
 21
-53.960636
 31
0.0
  0
LINE
  5
692
330
1D
100
AcDbEntity
  8
BLACK
  6
Continuous
100
AcDbLine
 10
112.522929
 20
-42.36222799999999
 30
0.0
 11
102.213166
 21
-40.17082
 31
0.0
  0
LINE
  5
693
330
1D
100
AcDbEntity
  8
BLACK
  6
Continuous
100
AcDbLine
 10
99.742429
 20
-41.7669
 30
0.0
 11
97.672562
 21
-51.504861
 31
0.0
  0
ARC
  5
694
330
1D
100
AcDbEntity
  8
BLACK
100
AcDbCircle
 10
58.761109
 20
-64.264901
 30
0.0
 40
2.075149
100
AcDbArc
 50
269.6050568
 51
0.0
  0
ARC
  5
695
330
1D
100
AcDbEntity
  8
BLACK
100
AcDbCircle
 10
58.761309
 20
-54.314901
 30
0.0
 40
2.074902
100
AcDbArc
 50
359.9972939199999
 51
90.0
  0
ARC
  5
696
330
1D
100
AcDbEntity
  8
BLACK
100
AcDbCircle
 10
48.211409
 20
-64.26480099999999
 30
0.0
 40
2.075198
100
AcDbArc
 50
179.62130107
 51
270.0
  0
ARC
  5
697
330
1D
100
AcDbEntity
  8
BLACK
100
AcDbCircle
 10
48.211229
 20
-54.314971
 30
0.0
 40
2.074971
100
AcDbArc
 50
90.0
 51
180.0
  0
LINE
  5
698
330
1D
100
AcDbEntity
  8
BLACK
  6
Continuous
100
AcDbLine
 10
60.83625799999999
 20
-54.314999
 30
0.0
 11
60.83625799999999
 21
-64.264901
 31
0.0
  0
LINE
  5
699
330
1D
100
AcDbEntity
  8
BLACK
  6
Continuous
100
AcDbLine
 10
58.74680499999999
 20
-66.33999899999999
 30
0.0
 11
48.211409
 21
-66.33999899999999
 31
0.0
  0
LINE
  5
69A
330
1D
100
AcDbEntity
  8
BLACK
  6
Continuous
100
AcDbLine
 10
58.761309
 20
-52.239999
 30
0.0
 11
48.211229
 21
-52.239999
 31
0.0
  0
LINE
  5
69B
330
1D
100
AcDbEntity
  8
BLACK
  6
Continuous
100
AcDbLine
 10
46.136258
 20
-54.314971
 30
0.0
 11
46.136258
 21
-64.251085
 31
0.0
  0
ARC
  5
69C
330
1D
100
AcDbEntity
  8
BLACK
100
AcDbCircle
 10
28.895009
 20
-26.165001
 30
0.0
 40
2.074999
100
AcDbArc
 50
270.0
 51
0.0
  0
ARC
  5
69D
330
1D
100
AcDbEntity
  8
BLACK
100
AcDbCircle
 10
28.895009
 20
-16.215001
 30
0.0
 40
2.075002
100
AcDbArc
 50
0.0
 51
90.0
  0
ARC
  5
69E
330
1D
100
AcDbEntity
  8
BLACK
100
AcDbCircle
 10
18.345009
 20
-26.165001
 30
0.0
 40
2.074998
100
AcDbArc
 50
180.0
 51
270.0
  0
ARC
  5
69F
330
1D
100
AcDbEntity
  8
BLACK
100
AcDbCircle
 10
18.345009
 20
-16.215001
 30
0.0
 40
2.075001
100
AcDbArc
 50
90.0
 51
180.0
  0
LINE
  5
6A0
330
1D
100
AcDbEntity
  8
BLACK
  6
Continuous
100
AcDbLine
 10
30.970008
 20
-16.215001
 30
0.0
 11
30.970008
 21
-26.165001
 31
0.0
  0
LINE
  5
6A1
330
1D
100
AcDbEntity
  8
BLACK
  6
Continuous
100
AcDbLine
 10
28.895009
 20
-28.239999
 30
0.0
 11
18.345009
 21
-28.239999
 31
0.0
  0
LINE
  5
6A2
330
1D
100
AcDbEntity
  8
BLACK
  6
Continuous
100
AcDbLine
 10
28.895009
 20
-14.139999
 30
0.0
 11
18.345009
 21
-14.139999
 31
0.0
  0
LINE
  5
6A3
330
1D
100
AcDbEntity
  8
BLACK
  6
Continuous
100
AcDbLine
 10
16.270008
 20
-16.215001
 30
0.0
 11
16.270008
 21
-26.165001
 31
0.0
  0
ARC
  5
6A4
330
1D
100
AcDbEntity
  8
BLACK
100
AcDbCircle
 10
28.295009
 20
-7.115000999999999
 30
0.0
 40
2.074999
100
AcDbArc
 50
270.0
 51
0.0
  0
ARC
  5
6A5
330
1D
100
AcDbEntity
  8
BLACK
100
AcDbCircle
 10
28.295009
 20
2.834999
 30
0.0
 40
2.075002
100
AcDbArc
 50
0.0
 51
90.0
  0
ARC
  5
6A6
330
1D
100
AcDbEntity
  8
BLACK
100
AcDbCircle
 10
17.745009
 20
-7.115000999999999
 30
0.0
 40
2.074998
100
AcDbArc
 50
180.0
 51
270.0
  0
ARC
  5
6A7
330
1D
100
AcDbEntity
  8
BLACK
100
AcDbCircle
 10
17.745009
 20
2.834999
 30
0.0
 40
2.075001
100
AcDbArc
 50
90.0
 51
180.0
  0
LINE
  5
6A8
330
1D
100
AcDbEntity
  8
BLACK
  6
Continuous
100
AcDbLine
 10
30.370008
 20
2.834999
 30
0.0
 11
30.370008
 21
-7.115000999999999
 31
0.0
  0
LINE
  5
6A9
330
1D
100
AcDbEntity
  8
BLACK
  6
Continuous
100
AcDbLine
 10
28.295009
 20
-9.189999
 30
0.0
 11
17.745009
 21
-9.189999
 31
0.0
  0
LINE
  5
6AA
330
1D
100
AcDbEntity
  8
BLACK
  6
Continuous
100
AcDbLine
 10
28.295009
 20
4.910000999999999
 30
0.0
 11
17.745009
 21
4.910000999999999
 31
0.0
  0
LINE
  5
6AB
330
1D
100
AcDbEntity
  8
BLACK
  6
Continuous
100
AcDbLine
 10
15.670008
 20
2.834999
 30
0.0
 11
15.670008
 21
-7.115000999999999
 31
0.0
  0
ARC
  5
6AC
330
1D
100
AcDbEntity
  8
BLACK
100
AcDbCircle
 10
20.661259
 20
-83.315001
 30
0.0
 40
2.074999
100
AcDbArc
 50
270.0
 51
0.0
  0
ARC
  5
6AD
330
1D
100
AcDbEntity
  8
BLACK
100
AcDbCircle
 10
20.661259
 20
-73.364991
 30
0.0
 40
2.074992
100
AcDbArc
 50
359.9997791
 51
90.0
  0
ARC
  5
6AE
330
1D
100
AcDbEntity
  8
BLACK
100
AcDbCircle
 10
10.111269
 20
-83.314981
 30
0.0
 40
2.075018
100
AcDbArc
 50
180.13803351
 51
270.0
  0
ARC
  5
6AF
330
1D
100
AcDbEntity
  8
BLACK
100
AcDbCircle
 10
10.111259
 20
-73.36500099999999
 30
0.0
 40
2.075001
100
AcDbArc
 50
90.0
 51
180.0
  0
LINE
  5
6B0
330
1D
100
AcDbEntity
  8
BLACK
  6
Continuous
100
AcDbLine
 10
22.736258
 20
-73.364999
 30
0.0
 11
22.736258
 21
-83.315001
 31
0.0
  0
LINE
  5
6B1
330
1D
100
AcDbEntity
  8
BLACK
  6
Continuous
100
AcDbLine
 10
20.661259
 20
-85.389999
 30
0.0
 11
10.111269
 21
-85.389999
 31
0.0
  0
LINE
  5
6B2
330
1D
100
AcDbEntity
  8
BLACK
  6
Continuous
100
AcDbLine
 10
20.661259
 20
-71.289999
 30
0.0
 11
10.111259
 21
-71.289999
 31
0.0
  0
LINE
  5
6B3
330
1D
100
AcDbEntity
  8
BLACK
  6
Continuous
100
AcDbLine
 10
8.036258
 20
-73.36500099999999
 30
0.0
 11
8.036258
 21
-83.31998
 31
0.0
  0
ARC
  5
6B4
330
1D
100
AcDbEntity
  8
BLACK
100
AcDbCircle
 10
73.295309
 20
-86.803001
 30
0.0
 40
2.075069023052486
100
AcDbArc
 50
257.9994311200001
 51
348.00268476
  0
ARC
  5
6B5
330
1D
100
AcDbEntity
  8
BLACK
100
AcDbCircle
 10
75.364109
 20
-77.07040099999999
 30
0.0
 40
2.074948590223864
100
AcDbArc
 50
347.9985725700001
 51
78.00000197
  0
ARC
  5
6B6
330
1D
100
AcDbEntity
  8
BLACK
100
AcDbCircle
 10
62.97590899999999
 20
-84.609601
 30
0.0
 40
2.074948590223864
100
AcDbArc
 50
167.99861107
 51
258.00000197
  0
ARC
  5
6B7
330
1D
100
AcDbEntity
  8
BLACK
100
AcDbCircle
 10
65.044709
 20
-74.87700099999999
 30
0.0
 40
2.075070979367212
100
AcDbArc
 50
77.99941558999998
 51
168.00269624
  0
LINE
  5
6B8
330
1D
100
AcDbEntity
  8
BLACK
  6
Continuous
100
AcDbLine
 10
77.393754
 20
-77.501868
 30
0.0
 11
75.325053
 21
-87.234337
 31
0.0
  0
LINE
  5
6B9
330
1D
100
AcDbEntity
  8
BLACK
  6
Continuous
100
AcDbLine
 10
72.863871
 20
-88.832657
 30
0.0
 11
62.544503
 21
-86.639207
 31
0.0
  0
LINE
  5
6BA
330
1D
100
AcDbEntity
  8
BLACK
  6
Continuous
100
AcDbLine
 10
75.795515
 20
-75.040795
 30
0.0
 11
65.476147
 21
-72.84734499999999
 31
0.0
  0
LINE
  5
6BB
330
1D
100
AcDbEntity
  8
BLACK
  6
Continuous
100
AcDbLine
 10
63.01496299999999
 20
-74.44566499999999
 30
0.0
 11
60.946262
 21
-84.178135
 31
0.0
  0
CIRCLE
  5
6BC
330
1D
100
AcDbEntity
  8
BLACK
100
AcDbCircle
 10
293.040604
 20
-78.388002
 30
0.0
 40
0.9999939999999999
  0
CIRCLE
  5
6BD
330
1D
100
AcDbEntity
  8
BLACK
100
AcDbCircle
 10
312.090652
 20
-78.388004
 30
0.0
 40
1.0
  0
CIRCLE
  5
6BE
330
1D
100
AcDbEntity
  8
BLACK
100
AcDbCircle
 10
172.485771
 20
-70.751792
 30
0.0
 40
1.000001
  0
CIRCLE
  5
6BF
330
1D
100
AcDbEntity
  8
BLACK
100
AcDbCircle
 10
169.225262
 20
-32.491899
 30
0.0
 40
0.999999
  0
CIRCLE
  5
6C0
330
1D
100
AcDbEntity
  8
BLACK
100
AcDbCircle
 10
206.493185
 20
-24.57036
 30
0.0
 40
0.9999979999999999
  0
CIRCLE
  5
6C1
330
1D
100
AcDbEntity
  8
BLACK
100
AcDbCircle
 10
233.746904
 20
-38.259644
 30
0.0
 40
0.999999
  0
CIRCLE
  5
6C2
330
1D
100
AcDbEntity
  8
BLACK
100
AcDbCircle
 10
271.717509
 20
-59.290004
 30
0.0
 40
1.000001
  0
CIRCLE
  5
6C3
330
1D
100
AcDbEntity
  8
BLACK
100
AcDbCircle
 10
285.8963
 20
-21.190002
 30
0.0
 40
1.000001
  0
CIRCLE
  5
6C4
330
1D
100
AcDbEntity
  8
BLACK
100
AcDbCircle
 10
174.585768
 20
-11.881792
 30
0.0
 40
1.0
  0
CIRCLE
  5
6C5
330
1D
100
AcDbEntity
  8
BLACK
100
AcDbCircle
 10
233.196906
 20
-78.859641
 30
0.0
 40
0.9999969999999999
  0
CIRCLE
  5
6C6
330
1D
100
AcDbEntity
  8
BLACK
100
AcDbCircle
 10
230.48704
 20
0.000389
 30
0.0
 40
1.000002
  0
CIRCLE
  5
6C7
330
1D
100
AcDbEntity
  8
BLACK
100
AcDbCircle
 10
159.212014
 20
-54.102521
 30
0.0
 40
0.9999979999999999
  0
CIRCLE
  5
6C8
330
1D
100
AcDbEntity
  8
BLACK
100
AcDbCircle
 10
209.753289
 20
-62.830337
 30
0.0
 40
1.000001
  0
CIRCLE
  5
6C9
330
1D
100
AcDbEntity
  8
BLACK
100
AcDbCircle
 10
144.344019
 20
-95.281876
 30
0.0
 40
1.000002
  0
CIRCLE
  5
6CA
330
1D
100
AcDbEntity
  8
BLACK
100
AcDbCircle
 10
120.564279
 20
-70.75179
 30
0.0
 40
0.9999969999999999
  0
CIRCLE
  5
6CB
330
1D
100
AcDbEntity
  8
BLACK
100
AcDbCircle
 10
146.539132
 20
-76.27291799999999
 30
0.0
 40
1.000003
  0
CIRCLE
  5
6CC
330
1D
100
AcDbEntity
  8
BLACK
100
AcDbCircle
 10
90.52690199999999
 20
-5.940363
 30
0.0
 40
0.999999
  0
CIRCLE
  5
6CD
330
1D
100
AcDbEntity
  8
BLACK
100
AcDbCircle
 10
133.848045
 20
-54.102517
 30
0.0
 40
1.0
  0
CIRCLE
  5
6CE
330
1D
100
AcDbEntity
  8
BLACK
100
AcDbCircle
 10
7.644807999999999
 20
-40.240002
 30
0.0
 40
1.0
  0
CIRCLE
  5
6CF
330
1D
100
AcDbEntity
  8
BLACK
100
AcDbCircle
 10
9.332487
 20
-19.999368
 30
0.0
 40
0.999996
  0
CIRCLE
  5
6D0
330
1D
100
AcDbEntity
  8
BLACK
100
AcDbCircle
 10
32.545048
 20
-2.139999
 30
0.0
 40
1.0
  0
CIRCLE
  5
6D1
330
1D
100
AcDbEntity
  8
BLACK
100
AcDbCircle
 10
114.514284
 20
-30.511791
 30
0.0
 40
0.999999
  0
CIRCLE
  5
6D2
330
1D
100
AcDbEntity
  8
BLACK
100
AcDbCircle
 10
77.946902
 20
-42.220366
 30
0.0
 40
0.9999969999999999
  0
CIRCLE
  5
6D3
330
1D
100
AcDbEntity
  8
BLACK
100
AcDbCircle
 10
58.613146
 20
-18.62964
 30
0.0
 40
1.0
  0
CIRCLE
  5
6D4
330
1D
100
AcDbEntity
  8
BLACK
100
AcDbCircle
 10
146.428177
 20
-17.822555
 30
0.0
 40
1.000001
  0
CIRCLE
  5
6D5
330
1D
100
AcDbEntity
  8
BLACK
100
AcDbCircle
 10
-9.525
 20
0.0
 30
0.0
 40
1.000004
  0
CIRCLE
  5
6D6
330
1D
100
AcDbEntity
  8
BLACK
100
AcDbCircle
 10
24.915055
 20
-78.340008
 30
0.0
 40
0.999996
  0
CIRCLE
  5
6D7
330
1D
100
AcDbEntity
  8
BLACK
100
AcDbCircle
 10
5.86125
 20
-78.340004
 30
0.0
 40
0.999999
  0
CIRCLE
  5
6D8
330
1D
100
AcDbEntity
  8
BLACK
100
AcDbCircle
 10
59.85314899999999
 20
-78.85963799999999
 30
0.0
 40
0.9999979999999999
  0
CIRCLE
  5
6D9
330
1D
100
AcDbEntity
  8
BLACK
100
AcDbCircle
 10
31.457738
 20
-40.239999
 30
0.0
 40
1.0
  0
ARC
  5
6DA
330
1D
100
AcDbEntity
  8
BLACK
100
AcDbCircle
 10
166.357909
 20
-102.696401
 30
0.0
 40
3.279744206636853
100
AcDbArc
 50
269.99650608
 51
281.99965774
  0
ARC
  5
6DB
330
1D
100
AcDbEntity
  8
BLACK
100
AcDbCircle
 10
135.922309
 20
-102.694901
 30
0.0
 40
3.281266
100
AcDbArc
 50
258.00037385
 51
270.0
  0
ARC
  5
6DC
330
1D
100
AcDbEntity
  8
BLACK
100
AcDbCircle
 10
106.382809
 20
-100.281801
 30
0.0
 40
0.4999655150117856
100
AcDbArc
 50
78.00007409
 51
167.99996199
  0
ARC
  5
6DD
330
1D
100
AcDbEntity
  8
BLACK
100
AcDbCircle
 10
106.175009
 20
-101.260001
 30
0.0
 40
0.5000871123684352
100
AcDbArc
 50
167.99997115
 51
257.99999497
  0
ARC
  5
6DE
330
1D
100
AcDbEntity
  8
BLACK
100
AcDbCircle
 10
135.922109
 20
-102.696501
 30
0.0
 40
5.279732000000852
100
AcDbArc
 50
258.00071218
 51
270.00003256
  0
ARC
  5
6DF
330
1D
100
AcDbEntity
  8
BLACK
100
AcDbCircle
 10
166.357709
 20
-102.695401
 30
0.0
 40
5.280817628768579
100
AcDbArc
 50
270.00003255
 51
281.99932646
  0
ARC
  5
6E0
330
1D
100
AcDbEntity
  8
BLACK
100
AcDbCircle
 10
196.105209
 20
-101.260101
 30
0.0
 40
0.4999111782486965
100
AcDbArc
 50
282.36228844
 51
11.99995567
  0
ARC
  5
6E1
330
1D
100
AcDbEntity
  8
BLACK
100
AcDbCircle
 10
195.897209
 20
-100.281801
 30
0.0
 40
0.4999941506147846
100
AcDbArc
 50
12.60629222
 51
102.00004343
  0
ARC
  5
6E2
330
1D
100
AcDbEntity
  8
BLACK
100
AcDbCircle
 10
199.809909
 20
-99.45010099999999
 30
0.0
 40
0.4998753649821123
100
AcDbArc
 50
12.6063108
 51
101.99883612
  0
ARC
  5
6E3
330
1D
100
AcDbEntity
  8
BLACK
100
AcDbCircle
 10
197.853409
 20
-99.866001
 30
0.0
 40
0.4999368794087909
100
AcDbArc
 50
101.99269119
 51
192.00003258
  0
ARC
  5
6E4
330
1D
100
AcDbEntity
  8
BLACK
100
AcDbCircle
 10
198.269309
 20
-101.822301
 30
0.0
 40
0.5000012055595466
100
AcDbArc
 50
191.99976457
 51
281.99998875
  0
LINE
  5
6E5
330
1D
100
AcDbEntity
  8
BLACK
  6
Continuous
100
AcDbLine
 10
195.793254
 20
-99.792733
 30
0.0
 11
167.039787
 21
-105.904479
 31
0.0
  0
LINE
  5
6E6
330
1D
100
AcDbEntity
  8
BLACK
  6
Continuous
100
AcDbLine
 10
166.357709
 20
-105.976166
 30
0.0
 11
135.922309
 21
-105.976167
 31
0.0
  0
LINE
  5
6E7
330
1D
100
AcDbEntity
  8
BLACK
  6
Continuous
100
AcDbLine
 10
135.240117
 20
-105.904465
 30
0.0
 11
106.486759
 21
-99.792752
 31
0.0
  0
LINE
  5
6E8
330
1D
100
AcDbEntity
  8
BLACK
  6
Continuous
100
AcDbLine
 10
105.893769
 20
-100.177852
 30
0.0
 11
105.685851
 21
-101.156027
 31
0.0
  0
LINE
  5
6E9
330
1D
100
AcDbEntity
  8
BLACK
  6
Continuous
100
AcDbLine
 10
106.071035
 20
-101.74916
 30
0.0
 11
134.824456
 21
-107.860868
 31
0.0
  0
LINE
  5
6EA
330
1D
100
AcDbEntity
  8
BLACK
  6
Continuous
100
AcDbLine
 10
135.922112
 20
-107.976233
 30
0.0
 11
166.357712
 21
-107.976218
 31
0.0
  0
LINE
  5
6EB
330
1D
100
AcDbEntity
  8
BLACK
  6
Continuous
100
AcDbLine
 10
167.455592
 20
-107.860833
 30
0.0
 11
196.212236
 21
-101.74842
 31
0.0
  0
LINE
  5
6EC
330
1D
100
AcDbEntity
  8
BLACK
  6
Continuous
100
AcDbLine
 10
196.594196
 20
-101.156164
 30
0.0
 11
196.38515
 21
-100.172677
 31
0.0
  0
LINE
  5
6ED
330
1D
100
AcDbEntity
  8
BLACK
  6
Continuous
100
AcDbLine
 10
199.705989
 20
-98.961147
 30
0.0
 11
197.749526
 21
-99.37696299999999
 31
0.0
  0
LINE
  5
6EE
330
1D
100
AcDbEntity
  8
BLACK
  6
Continuous
100
AcDbLine
 10
197.364397
 20
-99.969944
 30
0.0
 11
197.780226
 21
-101.926258
 31
0.0
  0
LINE
  5
6EF
330
1D
100
AcDbEntity
  8
BLACK
  6
Continuous
100
AcDbLine
 10
198.373265
 20
-102.311376
 30
0.0
 11
200.332804
 21
-101.894864
 31
0.0
  0
LINE
  5
6F0
330
1D
100
AcDbEntity
  8
BLACK
  6
Continuous
100
AcDbLine
 10
200.714673
 20
-101.302547
 30
0.0
 11
200.297733
 21
-99.341003
 31
0.0
  0
LINE
  5
6F1
330
1D
100
AcDbEntity
  8
BLACK
  6
Continuous
100
AcDbLine
 10
172.693562
 20
-111.603542
 30
0.0
 11
241.573842
 21
-96.962586
 31
0.0
  0
LINE
  5
6F2
330
1D
100
AcDbEntity
  8
BLACK
  6
Continuous
100
AcDbLine
 10
251.969109
 20
-95.86999999999999
 30
0.0
 11
319.038759
 21
-95.86999999999999
 31
0.0
  0
LINE
  5
6F3
330
1D
100
AcDbEntity
  8
BLACK
  6
Continuous
100
AcDbLine
 10
319.038759
 20
-95.86999999999999
 30
0.0
 11
319.038759
 21
-91.16799999999999
 31
0.0
  0
LINE
  5
6F4
330
1D
100
AcDbEntity
  8
BLACK
  6
Continuous
100
AcDbLine
 10
319.038759
 20
-91.16799999999999
 30
0.0
 11
315.138759
 21
-91.16799999999999
 31
0.0
  0
LINE
  5
6F5
330
1D
100
AcDbEntity
  8
BLACK
  6
Continuous
100
AcDbLine
 10
315.138759
 20
-91.16799999999999
 30
0.0
 11
315.138759
 21
-91.370001
 31
0.0
  0
LINE
  5
6F6
330
1D
100
AcDbEntity
  8
BLACK
  6
Continuous
100
AcDbLine
 10
311.938759
 20
-91.352203
 30
0.0
 11
311.938759
 21
-91.167993
 31
0.0
  0
LINE
  5
6F7
330
1D
100
AcDbEntity
  8
BLACK
  6
Continuous
100
AcDbLine
 10
311.938759
 20
-91.167993
 30
0.0
 11
306.186509
 21
-91.167994
 31
0.0
  0
LINE
  5
6F8
330
1D
100
AcDbEntity
  8
BLACK
  6
Continuous
100
AcDbLine
 10
305.686537
 20
-90.66799999999999
 30
0.0
 11
305.686537
 21
-89.66800099999999
 31
0.0
  0
LINE
  5
6F9
330
1D
100
AcDbEntity
  8
BLACK
  6
Continuous
100
AcDbLine
 10
306.195211
 20
-89.168003
 30
0.0
 11
319.026674
 21
-89.16799999999999
 31
0.0
  0
LINE
  5
6FA
330
1D
100
AcDbEntity
  8
BLACK
  6
Continuous
100
AcDbLine
 10
321.33674
 20
-86.869901
 30
0.0
 11
321.336759
 21
8.53
 31
0.0
  0
LINE
  5
6FB
330
1D
100
AcDbEntity
  8
BLACK
  6
Continuous
100
AcDbLine
 10
319.038809
 20
10.827984
 30
0.0
 11
305.978909
 21
10.827985
 31
0.0
  0
LINE
  5
6FC
330
1D
100
AcDbEntity
  8
BLACK
  6
Continuous
100
AcDbLine
 10
305.478796
 20
11.32808
 30
0.0
 11
305.478759
 21
12.28008
 31
0.0
  0
LINE
  5
6FD
330
1D
100
AcDbEntity
  8
BLACK
  6
Continuous
100
AcDbLine
 10
305.978759
 20
12.780081
 30
0.0
 11
311.938759
 21
12.78
 31
0.0
  0
ARC
  5
6FE
330
1D
100
AcDbEntity
  8
BLACK
100
AcDbCircle
 10
200.225609
 20
-101.406501
 30
0.0
 40
0.4999900301126013
100
AcDbArc
 50
282.38001437
 51
12.00002665
  0
ARC
  5
6FF
330
1D
100
AcDbEntity
  8
BLACK
100
AcDbCircle
 10
162.297609
 20
-62.694001
 30
0.0
 40
50.00219034811265
100
AcDbArc
 50
269.96210279
 51
281.99989815
  0
ARC
  5
700
330
1D
100
AcDbEntity
  8
BLACK
100
AcDbCircle
 10
251.969009
 20
-145.868001
 30
0.0
 40
49.99799109244405
100
AcDbArc
 50
89.9998854
 51
102.00000016
  0
ARC
  5
701
330
1D
100
AcDbEntity
  8
BLACK
100
AcDbCircle
 10
313.538709
 20
-91.370001
 30
0.0
 40
1.60005
100
AcDbArc
 50
179.36266244
 51
0.0
  0
ARC
  5
702
330
1D
100
AcDbEntity
  8
BLACK
100
AcDbCircle
 10
306.186509
 20
-90.668101
 30
0.0
 40
0.499893
100
AcDbArc
 50
179.98842373
 51
270.0
  0
ARC
  5
703
330
1D
100
AcDbEntity
  8
BLACK
100
AcDbCircle
 10
306.186609
 20
-89.66800099999999
 30
0.0
 40
0.500072
100
AcDbArc
 50
89.0143767
 51
180.0
  0
ARC
  5
704
330
1D
100
AcDbEntity
  8
BLACK
100
AcDbCircle
 10
319.038609
 20
-86.869901
 30
0.0
 40
2.298131
100
AcDbArc
 50
269.70244146
 51
0.0
  0
ARC
  5
705
330
1D
100
AcDbEntity
  8
BLACK
100
AcDbCircle
 10
319.038809
 20
8.530099
 30
0.0
 40
2.297885
100
AcDbArc
 50
359.99753152
 51
90.0
  0
ARC
  5
706
330
1D
100
AcDbEntity
  8
BLACK
100
AcDbCircle
 10
305.978909
 20
11.328099
 30
0.0
 40
0.500114
100
AcDbArc
 50
180.00217675
 51
270.0
  0
ARC
  5
707
330
1D
100
AcDbEntity
  8
BLACK
100
AcDbCircle
 10
305.978709
 20
12.280099
 30
0.0
 40
0.4999500003610361
100
AcDbArc
 50
89.99426976
 51
180.00217746
  0
ARC
  5
708
330
1D
100
AcDbEntity
  8
BLACK
100
AcDbCircle
 10
313.538709
 20
13.029999
 30
0.0
 40
1.59995
100
AcDbArc
 50
3.581e-05
 51
180.0
  0
ARC
  5
709
330
1D
100
AcDbEntity
  8
BLACK
100
AcDbCircle
 10
-11.258741
 20
13.03
 30
0.0
 40
1.6
100
AcDbArc
 50
0.0
 51
180.0
  0
ARC
  5
70A
330
1D
100
AcDbEntity
  8
BLACK
100
AcDbCircle
 10
-3.200101
 20
12.279999
 30
0.0
 40
0.499998000001
100
AcDbArc
 50
359.9973643800001
 51
90.00011459
  0
ARC
  5
70B
330
1D
100
AcDbEntity
  8
BLACK
100
AcDbCircle
 10
-3.199986
 20
11.279968
 30
0.0
 40
0.4999640000490035
100
AcDbArc
 50
269.9996562
 51
0.0008022
  0
ARC
  5
70C
330
1D
100
AcDbEntity
  8
BLACK
100
AcDbCircle
 10
-16.758743
 20
8.530006
 30
0.0
 40
2.249997
100
AcDbArc
 50
90.0
 51
180.0
  0
ARC
  5
70D
330
1D
100
AcDbEntity
  8
BLACK
100
AcDbCircle
 10
-13.260031
 20
-73.370027
 30
0.0
 40
0.500027
100
AcDbArc
 50
0.0
 51
90.0
  0
ARC
  5
70E
330
1D
100
AcDbEntity
  8
BLACK
100
AcDbCircle
 10
-3.0001
 20
-89.61999999999999
 30
0.0
 40
0.500001
100
AcDbArc
 50
359.9973644
 51
90.0
  0
ARC
  5
70F
330
1D
100
AcDbEntity
  8
BLACK
100
AcDbCircle
 10
-2.999994
 20
-90.620029
 30
0.0
 40
0.4999720000490027
100
AcDbArc
 50
270.00057299
 51
0.00080219
  0
ARC
  5
710
330
1D
100
AcDbEntity
  8
BLACK
100
AcDbCircle
 10
-11.258741
 20
-91.36999999999999
 30
0.0
 40
1.6
100
AcDbArc
 50
180.0
 51
0.0
  0
ARC
  5
711
330
1D
100
AcDbEntity
  8
BLACK
100
AcDbCircle
 10
50.310709
 20
-145.869601
 30
0.0
 40
49.999601
100
AcDbArc
 50
77.9998648
 51
90.0
  0
ARC
  5
712
330
1D
100
AcDbEntity
  8
BLACK
100
AcDbCircle
 10
139.982109
 20
-62.695201
 30
0.0
 40
50.00097400000049
100
AcDbArc
 50
257.96758125
 51
269.99999198
  0
ARC
  5
713
330
1D
100
AcDbEntity
  8
BLACK
100
AcDbCircle
 10
299.578709
 20
12.279899
 30
0.0
 40
0.500101
100
AcDbArc
 50
359.5847997
 51
90.0
  0
ARC
  5
714
330
1D
100
AcDbEntity
  8
BLACK
100
AcDbCircle
 10
299.578609
 20
11.280099
 30
0.0
 40
0.5001500003608917
100
AcDbArc
 50
269.3621311
 51
359.99782341
  0
ARC
  5
715
330
1D
100
AcDbEntity
  8
BLACK
100
AcDbCircle
 10
228.183309
 20
10.280699
 30
0.0
 40
0.4993224000042457
100
AcDbArc
 50
90.48629651000002
 51
102.00000417
  0
ARC
  5
716
330
1D
100
AcDbEntity
  8
BLACK
100
AcDbCircle
 10
194.395109
 20
4.120499
 30
0.0
 40
0.5000543562633966
100
AcDbArc
 50
192.00715293
 51
281.99998281
  0
LINE
  5
717
330
1D
100
AcDbEntity
  8
BLACK
  6
Continuous
100
AcDbLine
 10
311.938759
 20
12.78
 30
0.0
 11
311.938759
 21
13.029999
 31
0.0
  0
LINE
  5
718
330
1D
100
AcDbEntity
  8
BLACK
  6
Continuous
100
AcDbLine
 10
315.138759
 20
13.03
 30
0.0
 11
315.138759
 21
12.78
 31
0.0
  0
LINE
  5
719
330
1D
100
AcDbEntity
  8
BLACK
  6
Continuous
100
AcDbLine
 10
315.138759
 20
12.78
 30
0.0
 11
319.038759
 21
12.78
 31
0.0
  0
LINE
  5
71A
330
1D
100
AcDbEntity
  8
BLACK
  6
Continuous
100
AcDbLine
 10
319.038759
 20
12.78
 30
0.0
 11
319.038759
 21
17.53
 31
0.0
  0
LINE
  5
71B
330
1D
100
AcDbEntity
  8
BLACK
  6
Continuous
100
AcDbLine
 10
319.038759
 20
17.53
 30
0.0
 11
-16.758741
 21
17.53
 31
0.0
  0
LINE
  5
71C
330
1D
100
AcDbEntity
  8
BLACK
  6
Continuous
100
AcDbLine
 10
-16.758741
 20
17.53
 30
0.0
 11
-16.758741
 21
12.78
 31
0.0
  0
LINE
  5
71D
330
1D
100
AcDbEntity
  8
BLACK
  6
Continuous
100
AcDbLine
 10
-16.758741
 20
12.78
 30
0.0
 11
-12.858741
 21
12.78
 31
0.0
  0
LINE
  5
71E
330
1D
100
AcDbEntity
  8
BLACK
  6
Continuous
100
AcDbLine
 10
-12.858741
 20
12.78
 30
0.0
 11
-12.858741
 21
13.03
 31
0.0
  0
LINE
  5
71F
330
1D
100
AcDbEntity
  8
BLACK
  6
Continuous
100
AcDbLine
 10
-9.658741
 20
13.03
 30
0.0
 11
-9.658741
 21
12.779997
 31
0.0
  0
LINE
  5
720
330
1D
100
AcDbEntity
  8
BLACK
  6
Continuous
100
AcDbLine
 10
-9.658741
 20
12.779997
 30
0.0
 11
-3.200102
 21
12.779997
 31
0.0
  0
LINE
  5
721
330
1D
100
AcDbEntity
  8
BLACK
  6
Continuous
100
AcDbLine
 10
-2.700036
 20
12.279976
 30
0.0
 11
-2.700022
 21
11.279975
 31
0.0
  0
LINE
  5
722
330
1D
100
AcDbEntity
  8
BLACK
  6
Continuous
100
AcDbLine
 10
-3.199989
 20
10.780004
 30
0.0
 11
-16.758743
 21
10.780003
 31
0.0
  0
LINE
  5
723
330
1D
100
AcDbEntity
  8
BLACK
  6
Continuous
100
AcDbLine
 10
-19.00874
 20
8.530006
 30
0.0
 11
-19.008741
 21
-72.86999999999999
 31
0.0
  0
LINE
  5
724
330
1D
100
AcDbEntity
  8
BLACK
  6
Continuous
100
AcDbLine
 10
-19.008741
 20
-72.86999999999999
 30
0.0
 11
-13.260031
 21
-72.86999999999999
 31
0.0
  0
LINE
  5
725
330
1D
100
AcDbEntity
  8
BLACK
  6
Continuous
100
AcDbLine
 10
-12.760004
 20
-73.370027
 30
0.0
 11
-12.759991
 21
-89.11999999999999
 31
0.0
  0
LINE
  5
726
330
1D
100
AcDbEntity
  8
BLACK
  6
Continuous
100
AcDbLine
 10
-12.759991
 20
-89.11999999999999
 30
0.0
 11
-3.0001
 21
-89.11999899999999
 31
0.0
  0
LINE
  5
727
330
1D
100
AcDbEntity
  8
BLACK
  6
Continuous
100
AcDbLine
 10
-2.500034
 20
-89.62002299999999
 30
0.0
 11
-2.500022
 21
-90.62002199999999
 31
0.0
  0
LINE
  5
728
330
1D
100
AcDbEntity
  8
BLACK
  6
Continuous
100
AcDbLine
 10
-2.999989
 20
-91.120001
 30
0.0
 11
-9.658741
 21
-91.120001
 31
0.0
  0
LINE
  5
729
330
1D
100
AcDbEntity
  8
BLACK
  6
Continuous
100
AcDbLine
 10
-9.658741
 20
-91.120001
 30
0.0
 11
-9.658741
 21
-91.36999999999999
 31
0.0
  0
LINE
  5
72A
330
1D
100
AcDbEntity
  8
BLACK
  6
Continuous
100
AcDbLine
 10
-12.858741
 20
-91.36999999999999
 30
0.0
 11
-12.858741
 21
-91.11999999999999
 31
0.0
  0
LINE
  5
72B
330
1D
100
AcDbEntity
  8
BLACK
  6
Continuous
100
AcDbLine
 10
-12.858741
 20
-91.11999999999999
 30
0.0
 11
-16.758741
 21
-91.11999999999999
 31
0.0
  0
LINE
  5
72C
330
1D
100
AcDbEntity
  8
BLACK
  6
Continuous
100
AcDbLine
 10
-16.758741
 20
-91.11999999999999
 30
0.0
 11
-16.758741
 21
-95.86999999999999
 31
0.0
  0
LINE
  5
72D
330
1D
100
AcDbEntity
  8
BLACK
  6
Continuous
100
AcDbLine
 10
-16.758741
 20
-95.86999999999999
 30
0.0
 11
50.310709
 21
-95.86999999999999
 31
0.0
  0
LINE
  5
72E
330
1D
100
AcDbEntity
  8
BLACK
  6
Continuous
100
AcDbLine
 10
60.706329
 20
-96.96262
 30
0.0
 11
129.558651
 21
-111.597642
 31
0.0
  0
LINE
  5
72F
330
1D
100
AcDbEntity
  8
BLACK
  6
Continuous
100
AcDbLine
 10
139.982102
 20
-112.696175
 30
0.0
 11
162.264536
 21
-112.696178
 31
0.0
  0
LINE
  5
730
330
1D
100
AcDbEntity
  8
BLACK
  6
Continuous
100
AcDbLine
 10
227.97514
 20
12.78
 30
0.0
 11
299.578709
 21
12.78
 31
0.0
  0
LINE
  5
731
330
1D
100
AcDbEntity
  8
BLACK
  6
Continuous
100
AcDbLine
 10
300.078796
 20
12.276275
 30
0.0
 11
300.078759
 21
11.28008
 31
0.0
  0
LINE
  5
732
330
1D
100
AcDbEntity
  8
BLACK
  6
Continuous
100
AcDbLine
 10
299.573041
 20
10.779981
 30
0.0
 11
228.179071
 21
10.780011
 31
0.0
  0
LINE
  5
733
330
1D
100
AcDbEntity
  8
BLACK
  6
Continuous
100
AcDbLine
 10
228.079494
 20
10.76911
 30
0.0
 11
194.499076
 21
3.631372
 31
0.0
  0
LINE
  5
734
330
1D
100
AcDbEntity
  8
BLACK
  6
Continuous
100
AcDbLine
 10
193.905968
 20
4.016464
 30
0.0
 11
193.697928
 21
4.994597
 31
0.0
  0
LINE
  5
735
330
1D
100
AcDbEntity
  8
BLACK
  6
Continuous
100
AcDbLine
 10
194.08313
 20
5.587641
 30
0.0
 11
227.873256
 21
12.769934
 31
0.0
  0
LINE
  5
736
330
1D
100
AcDbEntity
  8
BLACK
  6
Continuous
100
AcDbLine
 10
191.681887
 20
6.30405
 30
0.0
 11
189.725427
 21
5.888135999999999
 31
0.0
  0
LINE
  5
737
330
1D
100
AcDbEntity
  8
BLACK
  6
Continuous
100
AcDbLine
 10
189.340301
 20
5.295147
 30
0.0
 11
189.797734
 21
3.143312
 31
0.0
  0
LINE
  5
738
330
1D
100
AcDbEntity
  8
BLACK
  6
Continuous
100
AcDbLine
 10
190.390868
 20
2.758146
 30
0.0
 11
192.35035
 21
3.174592
 31
0.0
  0
LINE
  5
739
330
1D
100
AcDbEntity
  8
BLACK
  6
Continuous
100
AcDbLine
 10
192.732146
 20
3.766968
 30
0.0
 11
192.274741
 21
5.918895
 31
0.0
  0
LINE
  5
73A
330
1D
100
AcDbEntity
  8
BLACK
  6
Continuous
100
AcDbLine
 10
106.877667
 20
3.907181
 30
0.0
 11
65.185738
 21
12.769074
 31
0.0
  0
LINE
  5
73B
330
1D
100
AcDbEntity
  8
BLACK
  6
Continuous
100
AcDbLine
 10
65.081908
 20
12.779995
 30
0.0
 11
3.191763
 21
12.779931
 31
0.0
  0
LINE
  5
73C
330
1D
100
AcDbEntity
  8
BLACK
  6
Continuous
100
AcDbLine
 10
2.700009
 20
12.280006
 30
0.0
 11
2.699996
 21
11.280006
 31
0.0
  0
LINE
  5
73D
330
1D
100
AcDbEntity
  8
BLACK
  6
Continuous
100
AcDbLine
 10
3.200009
 20
10.78
 30
0.0
 11
64.924125
 21
10.78
 31
0.0
  0
LINE
  5
73E
330
1D
100
AcDbEntity
  8
BLACK
  6
Continuous
100
AcDbLine
 10
64.924125
 20
10.78
 30
0.0
 11
106.465879
 21
1.950028
 31
0.0
  0
LINE
  5
73F
330
1D
100
AcDbEntity
  8
BLACK
  6
Continuous
100
AcDbLine
 10
107.054918
 20
2.33612
 30
0.0
 11
107.262793
 21
3.314147
 31
0.0
  0
LINE
  5
740
330
1D
100
AcDbEntity
  8
BLACK
  6
Continuous
100
AcDbLine
 10
100.61797
 20
-98.54530199999999
 30
0.0
 11
56.326828
 21
-89.130928
 31
0.0
  0
LINE
  5
741
330
1D
100
AcDbEntity
  8
BLACK
  6
Continuous
100
AcDbLine
 10
56.222908
 20
-89.11999999999999
 30
0.0
 11
2.991763
 21
-89.120069
 31
0.0
  0
LINE
  5
742
330
1D
100
AcDbEntity
  8
BLACK
  6
Continuous
100
AcDbLine
 10
2.500009
 20
-89.620001
 30
0.0
 11
2.500009
 21
-90.620001
 31
0.0
  0
LINE
  5
743
330
1D
100
AcDbEntity
  8
BLACK
  6
Continuous
100
AcDbLine
 10
3.000009
 20
-91.11999999999999
 30
0.0
 11
56.012609
 21
-91.11999899999999
 31
0.0
  0
LINE
  5
744
330
1D
100
AcDbEntity
  8
BLACK
  6
Continuous
100
AcDbLine
 10
56.116605
 20
-91.130926
 30
0.0
 11
77.532192
 21
-95.68294999999999
 31
0.0
  0
LINE
  5
745
330
1D
100
AcDbEntity
  8
BLACK
  6
Continuous
100
AcDbLine
 10
77.532192
 20
-95.68294999999999
 30
0.0
 11
77.48024199999999
 21
-95.927492
 31
0.0
  0
LINE
  5
746
330
1D
100
AcDbEntity
  8
BLACK
  6
Continuous
100
AcDbLine
 10
80.610298
 20
-96.592748
 30
0.0
 11
80.662264
 21
-96.34826699999999
 31
0.0
  0
LINE
  5
747
330
1D
100
AcDbEntity
  8
BLACK
  6
Continuous
100
AcDbLine
 10
80.662264
 20
-96.34826699999999
 30
0.0
 11
100.202037
 21
-100.501553
 31
0.0
  0
LINE
  5
748
330
1D
100
AcDbEntity
  8
BLACK
  6
Continuous
100
AcDbLine
 10
100.795104
 20
-100.116507
 30
0.0
 11
101.003098
 21
-99.13840599999999
 31
0.0
  0
ARC
  5
749
330
1D
100
AcDbEntity
  8
BLACK
100
AcDbCircle
 10
194.186909
 20
5.098599
 30
0.0
 40
0.49991882777607
100
AcDbArc
 50
101.98093649
 51
192.00738551
  0
ARC
  5
74A
330
1D
100
AcDbEntity
  8
BLACK
100
AcDbCircle
 10
227.972909
 20
12.281599
 30
0.0
 40
0.4983992301699512
100
AcDbArc
 50
89.74352773999999
 51
101.5338092
  0
ARC
  5
74B
330
1D
100
AcDbEntity
  8
BLACK
100
AcDbCircle
 10
189.829309
 20
5.399099
 30
0.0
 40
0.4999348381219296
100
AcDbArc
 50
101.9926029
 51
192.00113681
  0
ARC
  5
74C
330
1D
100
AcDbEntity
  8
BLACK
100
AcDbCircle
 10
190.286909
 20
3.247299
 30
0.0
 40
0.5000781249864865
100
AcDbArc
 50
192.00093948
 51
281.9984669
  0
ARC
  5
74D
330
1D
100
AcDbEntity
  8
BLACK
100
AcDbCircle
 10
192.243009
 20
3.662999
 30
0.0
 40
0.5000645535628375
100
AcDbArc
 50
282.39527279
 51
11.99996874
  0
ARC
  5
74E
330
1D
100
AcDbEntity
  8
BLACK
100
AcDbCircle
 10
191.785809
 20
5.815199
 30
0.0
 40
0.4997750316742524
100
AcDbArc
 50
11.97425647
 51
102.00151524
  0
ARC
  5
74F
330
1D
100
AcDbEntity
  8
BLACK
100
AcDbCircle
 10
65.081909
 20
12.281599
 30
0.0
 40
0.4983960000010032
100
AcDbArc
 50
77.97601175
 51
90.00011496
  0
ARC
  5
750
330
1D
100
AcDbEntity
  8
BLACK
100
AcDbCircle
 10
3.200009
 20
12.279999
 30
0.0
 40
0.500000000049
100
AcDbArc
 50
90.94496483
 51
179.99919786
  0
ARC
  5
751
330
1D
100
AcDbEntity
  8
BLACK
100
AcDbCircle
 10
3.200009
 20
11.279999
 30
0.0
 40
0.499999
100
AcDbArc
 50
179.99919786
 51
270.0
  0
ARC
  5
752
330
1D
100
AcDbEntity
  8
BLACK
100
AcDbCircle
 10
106.565709
 20
2.440099
 30
0.0
 40
0.5001370593367381
100
AcDbArc
 50
258.4860877400001
 51
348.00062561
  0
ARC
  5
753
330
1D
100
AcDbEntity
  8
BLACK
100
AcDbCircle
 10
106.773709
 20
3.418099
 30
0.0
 40
0.5000084684162859
100
AcDbArc
 50
348.0006740200001
 51
77.99995385
  0
ARC
  5
754
330
1D
100
AcDbEntity
  8
BLACK
100
AcDbCircle
 10
56.22290899999999
 20
-89.619501
 30
0.0
 40
0.4995010000010009
100
AcDbArc
 50
77.99212614
 51
90.00011471000002
  0
ARC
  5
755
330
1D
100
AcDbEntity
  8
BLACK
100
AcDbCircle
 10
3.000009
 20
-89.620001
 30
0.0
 40
0.5
100
AcDbArc
 50
90.94496483
 51
180.0
  0
ARC
  5
756
330
1D
100
AcDbEntity
  8
BLACK
100
AcDbCircle
 10
3.000009
 20
-90.620001
 30
0.0
 40
0.499999
100
AcDbArc
 50
180.0
 51
270.0
  0
ARC
  5
757
330
1D
100
AcDbEntity
  8
BLACK
100
AcDbCircle
 10
56.012609
 20
-91.619801
 30
0.0
 40
0.499802
100
AcDbArc
 50
77.99081662
 51
90.0
  0
ARC
  5
758
330
1D
100
AcDbEntity
  8
BLACK
100
AcDbCircle
 10
79.045309
 20
-96.26010099999999
 30
0.0
 40
1.599951435741098
100
AcDbArc
 50
168.00195614
 51
348.00005888
  0
ARC
  5
759
330
1D
100
AcDbEntity
  8
BLACK
100
AcDbCircle
 10
100.306009
 20
-100.012501
 30
0.0
 40
0.5000311660896748
100
AcDbArc
 50
257.99769275
 51
347.9948837
  0
ARC
  5
75A
330
1D
100
AcDbEntity
  8
BLACK
100
AcDbCircle
 10
100.514009
 20
-99.034401
 30
0.0
 40
0.500024742512808
100
AcDbArc
 50
347.99485278
 51
77.99999879
  0
ARC
  5
75B
330
1D
100
AcDbEntity
  8
BLACK
100
AcDbCircle
 10
246.041809
 20
-91.669201
 30
0.0
 40
0.5012301643686261
100
AcDbArc
 50
89.48754092000001
 51
102.00004546
  0
ARC
  5
75C
330
1D
100
AcDbEntity
  8
BLACK
100
AcDbCircle
 10
299.778609
 20
-90.667901
 30
0.0
 40
0.5001500003239028
100
AcDbArc
 50
270.6378689
 51
359.99793797
  0
ARC
  5
75D
330
1D
100
AcDbEntity
  8
BLACK
100
AcDbCircle
 10
299.778709
 20
-89.668101
 30
0.0
 40
0.500101
100
AcDbArc
 50
0.4266568399999999
 51
90.0
  0
ARC
  5
75E
330
1D
100
AcDbEntity
  8
BLACK
100
AcDbCircle
 10
245.831409
 20
-89.668601
 30
0.0
 40
0.5006050158208565
100
AcDbArc
 50
90.0
 51
102.5119865
  0
ARC
  5
75F
330
1D
100
AcDbEntity
  8
BLACK
100
AcDbCircle
 10
201.766109
 20
-99.034401
 30
0.0
 40
0.5000353938192775
100
AcDbArc
 50
102.00001096
 51
192.0024361
  0
ARC
  5
760
330
1D
100
AcDbEntity
  8
BLACK
100
AcDbCircle
 10
201.974109
 20
-100.012301
 30
0.0
 40
0.5001781178270397
100
AcDbArc
 50
192.78784073
 51
282.00001427
  0
ARC
  5
761
330
1D
100
AcDbEntity
  8
BLACK
100
AcDbCircle
 10
223.234709
 20
-96.259901
 30
0.0
 40
1.600056275094411
100
AcDbArc
 50
191.49957245
 51
12.45285241
  0
LINE
  5
762
330
1D
100
AcDbEntity
  8
BLACK
  6
Continuous
100
AcDbLine
 10
224.797122
 20
-95.91487099999999
 30
0.0
 11
224.747826
 21
-95.68294999999999
 31
0.0
  0
LINE
  5
763
330
1D
100
AcDbEntity
  8
BLACK
  6
Continuous
100
AcDbLine
 10
224.747826
 20
-95.68294999999999
 30
0.0
 11
245.937597
 21
-91.178924
 31
0.0
  0
LINE
  5
764
330
1D
100
AcDbEntity
  8
BLACK
  6
Continuous
100
AcDbLine
 10
246.046292
 20
-91.16798999999999
 30
0.0
 11
299.784177
 21
-91.168019
 31
0.0
  0
LINE
  5
765
330
1D
100
AcDbEntity
  8
BLACK
  6
Continuous
100
AcDbLine
 10
300.278759
 20
-90.667919
 30
0.0
 11
300.278796
 21
-89.664377
 31
0.0
  0
LINE
  5
766
330
1D
100
AcDbEntity
  8
BLACK
  6
Continuous
100
AcDbLine
 10
299.778709
 20
-89.16799999999999
 30
0.0
 11
245.831409
 21
-89.16800099999999
 31
0.0
  0
LINE
  5
767
330
1D
100
AcDbEntity
  8
BLACK
  6
Continuous
100
AcDbLine
 10
245.722956
 20
-89.179885
 30
0.0
 11
201.662146
 21
-98.545294
 31
0.0
  0
LINE
  5
768
330
1D
100
AcDbEntity
  8
BLACK
  6
Continuous
100
AcDbLine
 10
201.277005
 20
-99.138385
 30
0.0
 11
201.486338
 21
-100.123011
 31
0.0
  0
LINE
  5
769
330
1D
100
AcDbEntity
  8
BLACK
  6
Continuous
100
AcDbLine
 10
202.078102
 20
-100.501549
 30
0.0
 11
221.617754
 21
-96.34826799999999
 31
0.0
  0
LINE
  5
76A
330
1D
100
AcDbEntity
  8
BLACK
  6
Continuous
100
AcDbLine
 10
221.617754
 20
-96.34826799999999
 30
0.0
 11
221.666773
 21
-96.57888899999999
 31
0.0
  0
LINE
  5
76B
330
1D
100
AcDbEntity
  8
BLACK
  6
Continuous
100
AcDbLine
 10
146.631338
 20
-4.498548
 30
0.0
 11
187.822948
 21
4.256997999999999
 31
0.0
  0
LINE
  5
76C
330
1D
100
AcDbEntity
  8
BLACK
  6
Continuous
100
AcDbLine
 10
188.41602
 20
3.871864
 30
0.0
 11
188.623921
 21
2.893763
 31
0.0
  0
LINE
  5
76D
330
1D
100
AcDbEntity
  8
BLACK
  6
Continuous
100
AcDbLine
 10
188.234982
 20
2.299898
 30
0.0
 11
146.625302
 21
-6.544511
 31
0.0
  0
LINE
  5
76E
330
1D
100
AcDbEntity
  8
BLACK
  6
Continuous
100
AcDbLine
 10
146.423601
 20
-6.543247999999999
 30
0.0
 11
112.722131
 21
0.620221
 31
0.0
  0
LINE
  5
76F
330
1D
100
AcDbEntity
  8
BLACK
  6
Continuous
100
AcDbLine
 10
112.336929
 20
1.213367
 30
0.0
 11
112.544817
 21
2.191505
 31
0.0
  0
LINE
  5
770
330
1D
100
AcDbEntity
  8
BLACK
  6
Continuous
100
AcDbLine
 10
113.14288
 20
2.575422
 30
0.0
 11
146.423441
 21
-4.498533999999999
 31
0.0
  0
LINE
  5
771
330
1D
100
AcDbEntity
  8
BLACK
  6
Continuous
100
AcDbLine
 10
101.950534
 20
-101.895661
 30
0.0
 11
103.906703
 21
-102.311459
 31
0.0
  0
LINE
  5
772
330
1D
100
AcDbEntity
  8
BLACK
  6
Continuous
100
AcDbLine
 10
104.499772
 20
-101.926355
 30
0.0
 11
104.915616
 21
-99.96996399999999
 31
0.0
  0
LINE
  5
773
330
1D
100
AcDbEntity
  8
BLACK
  6
Continuous
100
AcDbLine
 10
104.53047
 20
-99.376893
 30
0.0
 11
102.568481
 21
-98.959869
 31
0.0
  0
LINE
  5
774
330
1D
100
AcDbEntity
  8
BLACK
  6
Continuous
100
AcDbLine
 10
101.981173
 20
-99.346232
 30
0.0
 11
101.565349
 21
-101.302527
 31
0.0
  0
LINE
  5
775
330
1D
100
AcDbEntity
  8
BLACK
  6
Continuous
100
AcDbLine
 10
301.778918
 20
10.779963
 30
0.0
 11
303.784095
 21
10.78
 31
0.0
  0
LINE
  5
776
330
1D
100
AcDbEntity
  8
BLACK
  6
Continuous
100
AcDbLine
 10
304.27874
 20
11.280086
 30
0.0
 11
304.278796
 21
13.483628
 31
0.0
  0
LINE
  5
777
330
1D
100
AcDbEntity
  8
BLACK
  6
Continuous
100
AcDbLine
 10
303.778729
 20
13.98
 30
0.0
 11
301.778759
 21
13.980081
 31
0.0
  0
LINE
  5
778
330
1D
100
AcDbEntity
  8
BLACK
  6
Continuous
100
AcDbLine
 10
301.278759
 20
13.480099
 30
0.0
 11
301.278759
 21
11.2801
 31
0.0
  0
LINE
  5
779
330
1D
100
AcDbEntity
  8
BLACK
  6
Continuous
100
AcDbLine
 10
-1.499991
 20
13.471726
 30
0.0
 11
-1.500004
 21
11.280003
 31
0.0
  0
LINE
  5
77A
330
1D
100
AcDbEntity
  8
BLACK
  6
Continuous
100
AcDbLine
 10
-1.0
 20
10.78
 30
0.0
 11
0.999969
 21
10.78
 31
0.0
  0
ARC
  5
77B
330
1D
100
AcDbEntity
  8
BLACK
100
AcDbCircle
 10
187.926909
 20
3.767899
 30
0.0
 40
0.500024742512808
100
AcDbArc
 50
12.00013712
 51
102.00000121
  0
ARC
  5
77C
330
1D
100
AcDbEntity
  8
BLACK
100
AcDbCircle
 10
188.134809
 20
2.789799
 30
0.0
 40
0.5000390603142918
100
AcDbArc
 50
281.55631145
 51
12.00000392
  0
ARC
  5
77D
330
1D
100
AcDbEntity
  8
BLACK
100
AcDbCircle
 10
146.527509
 20
-6.054601
 30
0.0
 40
0.4995750984076368
100
AcDbArc
 50
257.99519027
 51
281.28867719
  0
ARC
  5
77E
330
1D
100
AcDbEntity
  8
BLACK
100
AcDbCircle
 10
112.826109
 20
1.109399
 30
0.0
 40
0.5001055506720556
100
AcDbArc
 50
168.00116757
 51
257.99997548
  0
ARC
  5
77F
330
1D
100
AcDbEntity
  8
BLACK
100
AcDbCircle
 10
113.033709
 20
2.087599
 30
0.0
 40
0.4998118090841792
100
AcDbArc
 50
77.38547133
 51
168.00125614
  0
ARC
  5
780
330
1D
100
AcDbEntity
  8
BLACK
100
AcDbCircle
 10
146.527409
 20
-4.009601
 30
0.0
 40
0.4998703890510019
100
AcDbArc
 50
257.99528179
 51
282.00001198
  0
ARC
  5
781
330
1D
100
AcDbEntity
  8
BLACK
100
AcDbCircle
 10
102.054509
 20
-101.406501
 30
0.0
 40
0.5000882984283875
100
AcDbArc
 50
168.00001879
 51
257.99990673
  0
ARC
  5
782
330
1D
100
AcDbEntity
  8
BLACK
100
AcDbCircle
 10
104.010709
 20
-101.822401
 30
0.0
 40
0.4999890519651405
100
AcDbArc
 50
257.99398506
 51
347.9999495299999
  0
ARC
  5
783
330
1D
100
AcDbEntity
  8
BLACK
100
AcDbCircle
 10
104.426509
 20
-99.866001
 30
0.0
 40
0.5000335458446763
100
AcDbArc
 50
347.9999890399999
 51
78.0002132
  0
ARC
  5
784
330
1D
100
AcDbEntity
  8
BLACK
100
AcDbCircle
 10
102.470309
 20
-99.45020099999999
 30
0.0
 40
0.5000635754151666
100
AcDbArc
 50
78.67820314999999
 51
168.00000744
  0
ARC
  5
785
330
1D
100
AcDbEntity
  8
BLACK
100
AcDbCircle
 10
301.778909
 20
11.280099
 30
0.0
 40
0.5001360000809779
100
AcDbArc
 50
179.99988544
 51
270.00103104
  0
ARC
  5
786
330
1D
100
AcDbEntity
  8
BLACK
100
AcDbCircle
 10
303.778609
 20
11.280099
 30
0.0
 40
0.5001310001689557
100
AcDbArc
 50
270.62849964
 51
359.9985107
  0
ARC
  5
787
330
1D
100
AcDbEntity
  8
BLACK
100
AcDbCircle
 10
303.778709
 20
13.479899
 30
0.0
 40
0.5001010003999192
100
AcDbArc
 50
0.4272296700000001
 51
89.99770863
  0
ARC
  5
788
330
1D
100
AcDbEntity
  8
BLACK
100
AcDbCircle
 10
301.778709
 20
13.480099
 30
0.0
 40
0.4999499999999999
100
AcDbArc
 50
89.99426976
 51
180.0
  0
ARC
  5
789
330
1D
100
AcDbEntity
  8
BLACK
100
AcDbCircle
 10
-0.9999979999999999
 20
11.280006
 30
0.0
 40
0.500006000004
100
AcDbArc
 50
180.00034377
 51
269.99977082
  0
ARC
  5
78A
330
1D
100
AcDbEntity
  8
BLACK
100
AcDbCircle
 10
0.999969
 20
11.279969
 30
0.0
 40
0.4999710002560149
100
AcDbArc
 50
270.0
 51
359.99816643
  0
ARC
  5
78B
330
1D
100
AcDbEntity
  8
BLACK
100
AcDbCircle
 10
1.000009
 20
13.479999
 30
0.0
 40
0.5000140001689952
100
AcDbArc
 50
359.99816654
 51
90.00148965
  0
ARC
  5
78C
330
1D
100
AcDbEntity
  8
BLACK
100
AcDbCircle
 10
-1.000027
 20
13.479968
 30
0.0
 40
0.5000319308404214
100
AcDbArc
 50
90.00057292000002
 51
180.94444609
  0
ARC
  5
78D
330
1D
100
AcDbEntity
  8
BLACK
100
AcDbCircle
 10
-1.00004
 20
-89.62003
 30
0.0
 40
0.5000240000009999
100
AcDbArc
 50
89.99954165999998
 51
180.00011459
  0
ARC
  5
78E
330
1D
100
AcDbEntity
  8
BLACK
100
AcDbCircle
 10
-1.000101
 20
-91.620002
 30
0.0
 40
0.499996
100
AcDbArc
 50
180.67760115
 51
270.0
  0
ARC
  5
78F
330
1D
100
AcDbEntity
  8
BLACK
100
AcDbCircle
 10
0.999975
 20
-91.62003399999999
 30
0.0
 40
0.4999640000090007
100
AcDbArc
 50
269.9993124
 51
0.0003438
  0
ARC
  5
790
330
1D
100
AcDbEntity
  8
BLACK
100
AcDbCircle
 10
0.999899
 20
-89.620001
 30
0.0
 40
0.500003000001
100
AcDbArc
 50
359.99828114
 51
90.00011459
  0
ARC
  5
791
330
1D
100
AcDbEntity
  8
BLACK
100
AcDbCircle
 10
301.778909
 20
-91.667901
 30
0.0
 40
0.5001349795825123
100
AcDbArc
 50
179.99988544
 51
270.68726571
  0
ARC
  5
792
330
1D
100
AcDbEntity
  8
BLACK
100
AcDbCircle
 10
304.186409
 20
-91.667901
 30
0.0
 40
0.5001340001439614
100
AcDbArc
 50
270.63777476
 51
0.00137473
  0
ARC
  5
793
330
1D
100
AcDbEntity
  8
BLACK
100
AcDbCircle
 10
304.186509
 20
-89.66800099999999
 30
0.0
 40
0.5000010002889994
100
AcDbArc
 50
0.44507623
 51
89.99805195
  0
LINE
  5
794
330
1D
100
AcDbEntity
  8
BLACK
  6
Continuous
100
AcDbLine
 10
1.49994
 20
11.279953
 30
0.0
 11
1.500009
 21
13.479983
 31
0.0
  0
LINE
  5
795
330
1D
100
AcDbEntity
  8
BLACK
  6
Continuous
100
AcDbLine
 10
0.999996
 20
13.980013
 30
0.0
 11
-1.000032
 21
13.98
 31
0.0
  0
LINE
  5
796
330
1D
100
AcDbEntity
  8
BLACK
  6
Continuous
100
AcDbLine
 10
-1.500064
 20
-89.620031
 30
0.0
 11
-1.500062
 21
-91.62591499999999
 31
0.0
  0
LINE
  5
797
330
1D
100
AcDbEntity
  8
BLACK
  6
Continuous
100
AcDbLine
 10
-1.000101
 20
-92.119998
 30
0.0
 11
0.999969
 21
-92.119998
 31
0.0
  0
LINE
  5
798
330
1D
100
AcDbEntity
  8
BLACK
  6
Continuous
100
AcDbLine
 10
1.499939
 20
-91.620031
 30
0.0
 11
1.499925
 21
-89.62001599999999
 31
0.0
  0
LINE
  5
799
330
1D
100
AcDbEntity
  8
BLACK
  6
Continuous
100
AcDbLine
 10
0.999898
 20
-89.119998
 30
0.0
 11
-1.000036
 21
-89.120002
 31
0.0
  0
LINE
  5
79A
330
1D
100
AcDbEntity
  8
BLACK
  6
Continuous
100
AcDbLine
 10
301.784908
 20
-92.16799999999999
 30
0.0
 11
304.191976
 21
-92.168003
 31
0.0
  0
LINE
  5
79B
330
1D
100
AcDbEntity
  8
BLACK
  6
Continuous
100
AcDbLine
 10
304.686543
 20
-91.667889
 30
0.0
 11
304.686496
 21
-89.66411699999999
 31
0.0
  0
LINE
  5
79C
330
1D
100
AcDbEntity
  8
BLACK
  6
Continuous
100
AcDbLine
 10
304.186526
 20
-89.16799999999999
 30
0.0
 11
301.778759
 21
-89.167919
 31
0.0
  0
LINE
  5
79D
330
1D
100
AcDbEntity
  8
BLACK
  6
Continuous
100
AcDbLine
 10
301.278759
 20
-89.667901
 30
0.0
 11
301.278759
 21
-91.66789999999999
 31
0.0
  0
LINE
  5
79E
330
1D
100
AcDbEntity
  8
BLACK
  6
Continuous
100
AcDbLine
 10
111.235382
 20
4.207729
 30
0.0
 11
109.279071
 21
4.623577
 31
0.0
  0
LINE
  5
79F
330
1D
100
AcDbEntity
  8
BLACK
  6
Continuous
100
AcDbLine
 10
108.686078
 20
4.238447
 30
0.0
 11
108.228676
 21
2.086569
 31
0.0
  0
LINE
  5
7A0
330
1D
100
AcDbEntity
  8
BLACK
  6
Continuous
100
AcDbLine
 10
108.613839
 20
1.493465
 30
0.0
 11
110.570037
 21
1.077656
 31
0.0
  0
LINE
  5
7A1
330
1D
100
AcDbEntity
  8
BLACK
  6
Continuous
100
AcDbLine
 10
111.163103
 20
1.462731
 30
0.0
 11
111.620538
 21
3.614623
 31
0.0
  0
ARC
  5
7A2
330
1D
100
AcDbEntity
  8
BLACK
100
AcDbCircle
 10
301.778709
 20
-89.667901
 30
0.0
 40
0.4999499999999999
100
AcDbArc
 50
89.99426976
 51
180.0
  0
ARC
  5
7A3
330
1D
100
AcDbEntity
  8
BLACK
100
AcDbCircle
 10
111.131409
 20
3.718599
 30
0.0
 40
0.5000575600568398
100
AcDbArc
 50
347.99905616
 51
77.99939238
  0
ARC
  5
7A4
330
1D
100
AcDbEntity
  8
BLACK
100
AcDbCircle
 10
109.175109
 20
4.134499
 30
0.0
 40
0.4999565037730783
100
AcDbArc
 50
77.99938742999998
 51
167.99985964
  0
ARC
  5
7A5
330
1D
100
AcDbEntity
  8
BLACK
100
AcDbCircle
 10
108.717809
 20
1.982599
 30
0.0
 40
0.500060848886413
100
AcDbArc
 50
167.9998239
 51
257.9998239
  0
ARC
  5
7A6
330
1D
100
AcDbEntity
  8
BLACK
100
AcDbCircle
 10
110.674009
 20
1.566699
 30
0.0
 40
0.5000222853633626
100
AcDbArc
 50
257.99747829
 51
347.9991189200001
  0
CIRCLE
  5
7A7
330
1D
100
AcDbEntity
  8
BLACK
100
AcDbCircle
 10
95.67375899999999
 20
13.03
 30
0.0
 40
1.6
  0
CIRCLE
  5
7A8
330
1D
100
AcDbEntity
  8
BLACK
100
AcDbCircle
 10
206.606259
 20
13.03
 30
0.0
 40
1.6
  0
LINE
  5
7A9
330
1D
100
AcDbEntity
  8
BLACK
  6
Continuous
100
AcDbLine
 10
166.357709
 20
-105.976146
 30
0.0
 11
166.357709
 21
-105.976166
 31
0.0
  0
LINE
  5
7AA
330
1D
100
AcDbEntity
  8
BLACK
  6
Continuous
100
AcDbLine
 10
106.486757
 20
-99.792761
 30
0.0
 11
106.486759
 21
-99.792752
 31
0.0
  0
LINE
  5
7AB
330
1D
100
AcDbEntity
  8
BLACK
  6
Continuous
100
AcDbLine
 10
197.780234
 20
-101.926255
 30
0.0
 11
197.780226
 21
-101.926258
 31
0.0
  0
LINE
  5
7AC
330
1D
100
AcDbEntity
  8
BLACK
  6
Continuous
100
AcDbLine
 10
305.686618
 20
-90.66799999999999
 30
0.0
 11
305.686537
 21
-90.66799999999999
 31
0.0
  0
LINE
  5
7AD
330
1D
100
AcDbEntity
  8
BLACK
  6
Continuous
100
AcDbLine
 10
321.336692
 20
8.53
 30
0.0
 11
321.336759
 21
8.53
 31
0.0
  0
LINE
  5
7AE
330
1D
100
AcDbEntity
  8
BLACK
  6
Continuous
100
AcDbLine
 10
193.905996
 20
4.016471
 30
0.0
 11
193.905968
 21
4.016464
 31
0.0
  0
LINE
  5
7AF
330
1D
100
AcDbEntity
  8
BLACK
  6
Continuous
100
AcDbLine
 10
189.797761
 20
3.143319
 30
0.0
 11
189.797734
 21
3.143312
 31
0.0
  0
LINE
  5
7B0
330
1D
100
AcDbEntity
  8
BLACK
  6
Continuous
100
AcDbLine
 10
56.32682699999999
 20
-89.130933
 30
0.0
 11
56.326828
 21
-89.130928
 31
0.0
  0
LINE
  5
7B1
330
1D
100
AcDbEntity
  8
BLACK
  6
Continuous
100
AcDbLine
 10
100.202043
 20
-100.501525
 30
0.0
 11
100.202027
 21
-100.501601
 31
0.0
  0
LINE
  5
7B2
330
1D
100
AcDbEntity
  8
BLACK
  6
Continuous
100
AcDbLine
 10
245.831409
 20
-89.168007
 30
0.0
 11
245.831409
 21
-89.167996
 31
0.0
  0
LINE
  5
7B3
330
1D
100
AcDbEntity
  8
BLACK
  6
Continuous
100
AcDbLine
 10
188.416006
 20
3.871861
 30
0.0
 11
188.41602
 21
3.871864
 31
0.0
  0
LINE
  5
7B4
330
1D
100
AcDbEntity
  8
BLACK
  6
Continuous
100
AcDbLine
 10
301.278774
 20
11.2801
 30
0.0
 11
301.278759
 21
11.2801
 31
0.0
  0
LINE
  5
7B5
330
1D
100
AcDbEntity
  8
BLACK
  6
Continuous
100
AcDbLine
 10
301.278776
 20
-91.66789999999999
 30
0.0
 11
301.278759
 21
-91.66789999999999
 31
0.0
  0
LINE
  5
7B6
330
1D
100
AcDbEntity
  8
BLACK
  6
Continuous
100
AcDbLine
 10
110.570043
 20
1.077684
 30
0.0
 11
110.570027
 21
1.077608
 31
0.0
  0
LINE
  5
7FF
330
1D
100
AcDbEntity
  8
BLACK
  6
Continuous
100
AcDbLine
 10
14.582508
 20
-35.265
 30
0.0
 11
14.582508
 21
-45.215001
 31
0.0
  0
LINE
  5
800
330
1D
100
AcDbEntity
  8
BLACK
  6
Continuous
100
AcDbLine
 10
27.207508
 20
-33.19
 30
0.0
 11
16.657507
 21
-33.19
 31
0.0
  0
LINE
  5
801
330
1D
100
AcDbEntity
  8
BLACK
  6
Continuous
100
AcDbLine
 10
27.207508
 20
-47.29
 30
0.0
 11
16.657508
 21
-47.29
 31
0.0
  0
LINE
  5
802
330
1D
100
AcDbEntity
  8
BLACK
  6
Continuous
100
AcDbLine
 10
29.282508
 20
-35.265
 30
0.0
 11
29.282508
 21
-45.215
 31
0.0
  0
ARC
  5
803
330
1D
100
AcDbEntity
  8
BLACK
100
AcDbCircle
 10
16.657512
 20
-35.265004
 30
0.0
 40
2.075004000003855
100
AcDbArc
 50
90.00013806
 51
179.99988955
  0
ARC
  5
804
330
1D
100
AcDbEntity
  8
BLACK
100
AcDbCircle
 10
16.65751
 20
-45.214998
 30
0.0
 40
2.075002000000964
100
AcDbArc
 50
180.00008284
 51
269.99994478
  0
ARC
  5
805
330
1D
100
AcDbEntity
  8
BLACK
100
AcDbCircle
 10
27.207508
 20
-35.265
 30
0.0
 40
2.075
100
AcDbArc
 50
0.0
 51
90.0
  0
ARC
  5
806
330
1D
100
AcDbEntity
  8
BLACK
100
AcDbCircle
 10
27.207508
 20
-45.215
 30
0.0
 40
2.075
100
AcDbArc
 50
270.0
 51
0.0
  0
LINE
  5
807
330
1D
100
AcDbEntity
  8
BLACK
  6
Continuous
100
AcDbLine
 10
272.799484
 20
-5.39044
 30
0.0
 11
272.799484
 21
2.2103
 31
0.0
  0
LINE
  5
808
330
1D
100
AcDbEntity
  8
BLACK
  6
Continuous
100
AcDbLine
 10
274.236511
 20
3.63544
 30
0.0
 11
275.090074
 21
3.63544
 31
0.0
  0
LINE
  5
809
330
1D
100
AcDbEntity
  8
BLACK
  6
Continuous
100
AcDbLine
 10
274.628574
 20
-6.81544
 30
0.0
 11
274.224474
 21
-6.81544
 31
0.0
  0
LINE
  5
80A
330
1D
100
AcDbEntity
  8
BLACK
  6
Continuous
100
AcDbLine
 10
275.090074
 20
3.635452
 30
0.0
 11
275.090074
 21
3.63544
 31
0.0
  0
LINE
  5
80B
330
1D
100
AcDbEntity
  8
BLACK
  6
Continuous
100
AcDbLine
 10
276.947374
 20
4.8876
 30
0.0
 11
300.802574
 21
4.8876
 31
0.0
  0
LINE
  5
80C
330
1D
100
AcDbEntity
  8
BLACK
  6
Continuous
100
AcDbLine
 10
276.947374
 20
4.887589
 30
0.0
 11
276.947374
 21
4.8876
 31
0.0
  0
LINE
  5
80D
330
1D
100
AcDbEntity
  8
BLACK
  6
Continuous
100
AcDbLine
 10
299.750424
 20
-9.151909999999999
 30
0.0
 11
277.999574
 21
-9.151909999999999
 31
0.0
  0
LINE
  5
80E
330
1D
100
AcDbEntity
  8
BLACK
  6
Continuous
100
AcDbLine
 10
302.659774
 20
3.63544
 30
0.0
 11
303.525374
 21
3.63544
 31
0.0
  0
LINE
  5
80F
330
1D
100
AcDbEntity
  8
BLACK
  6
Continuous
100
AcDbLine
 10
303.513457
 20
-6.81544
 30
0.0
 11
303.121324
 21
-6.81544
 31
0.0
  0
LINE
  5
810
330
1D
100
AcDbEntity
  8
BLACK
  6
Continuous
100
AcDbLine
 10
304.950364
 20
2.21044
 30
0.0
 11
304.950364
 21
-5.3904
 31
0.0
  0
ARC
  5
811
330
1D
100
AcDbEntity
  8
BLACK
100
AcDbCircle
 10
274.224566
 20
2.210408
 30
0.0
 40
1.425082004092396
100
AcDbArc
 50
89.51974267000003
 51
180.00434217
  0
ARC
  5
812
330
1D
100
AcDbEntity
  8
BLACK
100
AcDbCircle
 10
274.224485
 20
-5.390439
 30
0.0
 40
1.425001000042456
100
AcDbArc
 50
180.00004021
 51
269.99955772
  0
ARC
  5
813
330
1D
100
AcDbEntity
  8
BLACK
100
AcDbCircle
 10
274.62855
 20
-8.540348
 30
0.0
 40
1.724908000166965
100
AcDbArc
 50
20.54547839
 51
89.9992028
  0
ARC
  5
814
330
1D
100
AcDbEntity
  8
BLACK
100
AcDbCircle
 10
275.090123
 20
4.563829
 30
0.0
 40
0.9283764359148717
100
AcDbArc
 50
269.99697591
 51
337.97782841
  0
ARC
  5
815
330
1D
100
AcDbEntity
  8
BLACK
100
AcDbCircle
 10
276.947273
 20
3.812649
 30
0.0
 40
1.074940192811674
100
AcDbArc
 50
89.99461656
 51
157.97750247
  0
ARC
  5
816
330
1D
100
AcDbEntity
  8
BLACK
100
AcDbCircle
 10
277.999461
 20
-7.276915
 30
0.0
 40
1.874995003405076
100
AcDbArc
 50
200.54692151
 51
270.00345303
  0
ARC
  5
817
330
1D
100
AcDbEntity
  8
BLACK
100
AcDbCircle
 10
300.802539
 20
3.81261
 30
0.0
 40
1.074990000569773
100
AcDbArc
 50
22.02370504
 51
89.99813454
  0
ARC
  5
818
330
1D
100
AcDbEntity
  8
BLACK
100
AcDbCircle
 10
299.750339
 20
-7.276829999999999
 30
0.0
 40
1.875082291400833
100
AcDbArc
 50
270.0025973
 51
339.45098232
  0
ARC
  5
819
330
1D
100
AcDbEntity
  8
BLACK
100
AcDbCircle
 10
303.121329
 20
-8.540379999999999
 30
0.0
 40
1.724936068561673
100
AcDbArc
 50
90.00016608000001
 51
159.45408213
  0
ARC
  5
81A
330
1D
100
AcDbEntity
  8
BLACK
100
AcDbCircle
 10
302.659799
 20
4.563899999999999
 30
0.0
 40
0.9284600003365787
100
AcDbArc
 50
202.02452102
 51
269.99845724
  0
ARC
  5
81B
330
1D
100
AcDbEntity
  8
BLACK
100
AcDbCircle
 10
303.525399
 20
2.2105
 30
0.0
 40
1.424940000219307
100
AcDbArc
 50
359.99758749
 51
90.00100523000002
  0
ARC
  5
81C
330
1D
100
AcDbEntity
  8
BLACK
100
AcDbCircle
 10
303.525239
 20
-5.390359999999999
 30
0.0
 40
1.425125000561354
100
AcDbArc
 50
269.52631186
 51
359.99839184
  0
CIRCLE
  5
81D
330
1D
100
AcDbEntity
  8
BLACK
100
AcDbCircle
 10
272.474999
 20
-9.34
 30
0.0
 40
1.0
  0
CIRCLE
  5
81E
330
1D
100
AcDbEntity
  8
BLACK
100
AcDbCircle
 10
305.274999
 20
-9.34
 30
0.0
 40
1.0
  0
CIRCLE
  5
81F
330
1D
100
AcDbEntity
  8
BLACK
100
AcDbCircle
 10
301.483747
 20
-59.28988
 30
0.0
 40
1.000002
  0
LINE
  5
820
330
1D
100
AcDbEntity
  8
BLACK
  6
Continuous
100
AcDbLine
 10
277.465
 20
-54.314999
 30
0.0
 11
277.465
 21
-64.265
 31
0.0
  0
LINE
  5
821
330
1D
100
AcDbEntity
  8
BLACK
  6
Continuous
100
AcDbLine
 10
290.09
 20
-52.239999
 30
0.0
 11
279.539999
 21
-52.239999
 31
0.0
  0
LINE
  5
822
330
1D
100
AcDbEntity
  8
BLACK
  6
Continuous
100
AcDbLine
 10
290.09
 20
-66.33999899999999
 30
0.0
 11
279.54
 21
-66.33999899999999
 31
0.0
  0
LINE
  5
823
330
1D
100
AcDbEntity
  8
BLACK
  6
Continuous
100
AcDbLine
 10
292.165
 20
-54.314999
 30
0.0
 11
292.165
 21
-64.264999
 31
0.0
  0
ARC
  5
824
330
1D
100
AcDbEntity
  8
BLACK
100
AcDbCircle
 10
279.540004
 20
-54.315003
 30
0.0
 40
2.075004000003855
100
AcDbArc
 50
90.00013806
 51
179.99988955
  0
ARC
  5
825
330
1D
100
AcDbEntity
  8
BLACK
100
AcDbCircle
 10
279.540002
 20
-64.264997
 30
0.0
 40
2.075002000000964
100
AcDbArc
 50
180.00008284
 51
269.99994478
  0
ARC
  5
826
330
1D
100
AcDbEntity
  8
BLACK
100
AcDbCircle
 10
290.09
 20
-54.314999
 30
0.0
 40
2.075
100
AcDbArc
 50
0.0
 51
90.0
  0
ARC
  5
827
330
1D
100
AcDbEntity
  8
BLACK
100
AcDbCircle
 10
290.09
 20
-64.264999
 30
0.0
 40
2.075
100
AcDbArc
 50
270.0
 51
0.0
  0
LINE
  5
828
330
1D
100
AcDbEntity
  8
BLACK
  6
Continuous
100
AcDbLine
 10
303.65875
 20
-54.314999
 30
0.0
 11
303.65875
 21
-64.265
 31
0.0
  0
LINE
  5
829
330
1D
100
AcDbEntity
  8
BLACK
  6
Continuous
100
AcDbLine
 10
316.28375
 20
-52.239999
 30
0.0
 11
305.733749
 21
-52.239999
 31
0.0
  0
LINE
  5
82A
330
1D
100
AcDbEntity
  8
BLACK
  6
Continuous
100
AcDbLine
 10
316.28375
 20
-66.33999899999999
 30
0.0
 11
305.73375
 21
-66.33999899999999
 31
0.0
  0
LINE
  5
82B
330
1D
100
AcDbEntity
  8
BLACK
  6
Continuous
100
AcDbLine
 10
318.35875
 20
-54.314999
 30
0.0
 11
318.35875
 21
-64.264999
 31
0.0
  0
ARC
  5
82C
330
1D
100
AcDbEntity
  8
BLACK
100
AcDbCircle
 10
305.733754
 20
-54.315003
 30
0.0
 40
2.075004000003855
100
AcDbArc
 50
90.00013806
 51
179.99988955
  0
ARC
  5
82D
330
1D
100
AcDbEntity
  8
BLACK
100
AcDbCircle
 10
305.733752
 20
-64.264997
 30
0.0
 40
2.075002000000964
100
AcDbArc
 50
180.00008284
 51
269.99994478
  0
ARC
  5
82E
330
1D
100
AcDbEntity
  8
BLACK
100
AcDbCircle
 10
316.28375
 20
-54.314999
 30
0.0
 40
2.075
100
AcDbArc
 50
0.0
 51
90.0
  0
ARC
  5
82F
330
1D
100
AcDbEntity
  8
BLACK
100
AcDbCircle
 10
316.28375
 20
-64.264999
 30
0.0
 40
2.075
100
AcDbArc
 50
270.0
 51
0.0
  0
LINE
  5
830
330
1D
100
AcDbEntity
  8
BLACK
  6
Continuous
100
AcDbLine
 10
88.311737
 20
-86.697266
 30
0.0
 11
89.89202
 21
-79.26262
 31
0.0
  0
LINE
  5
831
330
1D
100
AcDbEntity
  8
BLACK
  6
Continuous
100
AcDbLine
 10
91.593948
 20
-78.167397
 30
0.0
 11
92.42885799999999
 21
-78.34486299999999
 31
0.0
  0
LINE
  5
832
330
1D
100
AcDbEntity
  8
BLACK
  6
Continuous
100
AcDbLine
 10
89.804583
 20
-88.471415
 30
0.0
 11
89.409313
 21
-88.38739799999999
 31
0.0
  0
LINE
  5
833
330
1D
100
AcDbEntity
  8
BLACK
  6
Continuous
100
AcDbLine
 10
92.428861
 20
-78.34485099999999
 30
0.0
 11
92.42885799999999
 21
-78.34486299999999
 31
0.0
  0
LINE
  5
834
330
1D
100
AcDbEntity
  8
BLACK
  6
Continuous
100
AcDbLine
 10
94.50591
 20
-77.50622
 30
0.0
 11
117.839817
 21
-82.46599499999999
 31
0.0
  0
LINE
  5
835
330
1D
100
AcDbEntity
  8
BLACK
  6
Continuous
100
AcDbLine
 10
94.50590799999999
 20
-77.506231
 30
0.0
 11
94.50591
 21
-77.50622
 31
0.0
  0
LINE
  5
836
330
1D
100
AcDbEntity
  8
BLACK
  6
Continuous
100
AcDbLine
 10
113.891681
 20
-95.97995399999999
 30
0.0
 11
92.61613899999999
 21
-91.457698
 31
0.0
  0
LINE
  5
837
330
1D
100
AcDbEntity
  8
BLACK
  6
Continuous
100
AcDbLine
 10
119.396094
 20
-84.076926
 30
0.0
 11
120.242779
 21
-84.256894
 31
0.0
  0
LINE
  5
838
330
1D
100
AcDbEntity
  8
BLACK
  6
Continuous
100
AcDbLine
 10
118.058262
 20
-94.47691999999999
 30
0.0
 11
117.674698
 21
-94.39539099999999
 31
0.0
  0
LINE
  5
839
330
1D
100
AcDbEntity
  8
BLACK
  6
Continuous
100
AcDbLine
 10
121.340355
 20
-85.94702699999999
 30
0.0
 11
119.760052
 21
-93.38176999999999
 31
0.0
  0
ARC
  5
83A
330
1D
100
AcDbEntity
  8
BLACK
100
AcDbCircle
 10
91.285983
 20
-79.55880599999999
 30
0.0
 40
1.425082100078799
100
AcDbArc
 50
77.51974185
 51
168.00432524
  0
ARC
  5
83B
330
1D
100
AcDbEntity
  8
BLACK
100
AcDbCircle
 10
89.70559899999999
 20
-86.993539
 30
0.0
 40
1.425001159886194
100
AcDbArc
 50
168.00005955
 51
257.9995232
  0
ARC
  5
83C
330
1D
100
AcDbEntity
  8
BLACK
100
AcDbCircle
 10
89.445931
 20
-90.158625
 30
0.0
 40
1.724908357334963
100
AcDbArc
 50
8.54548698
 51
77.99920581
  0
ARC
  5
83D
330
1D
100
AcDbEntity
  8
BLACK
100
AcDbCircle
 10
92.621929
 20
-77.43677199999999
 30
0.0
 40
0.9283762644989367
100
AcDbArc
 50
257.9969906800001
 51
325.97784425
  0
ARC
  5
83E
330
1D
100
AcDbEntity
  8
BLACK
100
AcDbCircle
 10
94.28231699999999
 20
-78.55766
 30
0.0
 40
1.074940539983957
100
AcDbArc
 50
77.99463687
 51
145.97750227
  0
ARC
  5
83F
330
1D
100
AcDbEntity
  8
BLACK
100
AcDbCircle
 10
93.005862
 20
-89.62365299999999
 30
0.0
 40
1.874994687660208
100
AcDbArc
 50
188.546909
 51
258.0034463
  0
ARC
  5
840
330
1D
100
AcDbEntity
  8
BLACK
100
AcDbCircle
 10
117.61628
 20
-83.517487
 30
0.0
 40
1.074990333181187
100
AcDbArc
 50
10.02372311
 51
77.99815049999998
  0
ARC
  5
841
330
1D
100
AcDbEntity
  8
BLACK
100
AcDbCircle
 10
114.281449
 20
-94.145831
 30
0.0
 40
1.875082643488548
100
AcDbArc
 50
258.00259669
 51
327.45097307
  0
ARC
  5
842
330
1D
100
AcDbEntity
  8
BLACK
100
AcDbCircle
 10
117.316068
 20
-96.08263799999999
 30
0.0
 40
1.724935945343478
100
AcDbArc
 50
78.00017613
 51
147.45408252
  0
ARC
  5
843
330
1D
100
AcDbEntity
  8
BLACK
100
AcDbCircle
 10
119.589156
 20
-83.16875999999999
 30
0.0
 40
0.9284602411519838
100
AcDbArc
 50
190.02453805
 51
257.99846936
  0
ARC
  5
844
330
1D
100
AcDbEntity
  8
BLACK
100
AcDbCircle
 10
119.946541
 20
-85.650701
 30
0.0
 40
1.424940316607331
100
AcDbArc
 50
347.9975738
 51
78.00097632
  0
ARC
  5
845
330
1D
100
AcDbEntity
  8
BLACK
100
AcDbCircle
 10
118.366077
 20
-93.085431
 30
0.0
 40
1.425125644827852
100
AcDbArc
 50
257.526325
 51
347.99840862
  0
CIRCLE
  5
846
330
1D
100
AcDbEntity
  8
BLACK
100
AcDbCircle
 10
87.173183
 20
-90.493054
 30
0.0
 40
1.0
  0
CIRCLE
  5
847
330
1D
100
AcDbEntity
  8
BLACK
100
AcDbCircle
 10
119.256424
 20
-97.312557
 30
0.0
 40
1.0
  0
LINE
  5
848
330
1D
100
AcDbEntity
  8
BLACK
  6
Continuous
100
AcDbLine
 10
128.864974
 20
-86.905565
 30
0.0
 11
126.796252
 21
-96.638134
 31
0.0
  0
LINE
  5
849
330
1D
100
AcDbEntity
  8
BLACK
  6
Continuous
100
AcDbLine
 10
141.645504
 20
-87.500794
 30
0.0
 11
131.326046
 21
-85.30732499999999
 31
0.0
  0
LINE
  5
84A
330
1D
100
AcDbEntity
  8
BLACK
  6
Continuous
100
AcDbLine
 10
138.713949
 20
-101.292675
 30
0.0
 11
128.394492
 21
-99.099206
 31
0.0
  0
LINE
  5
84B
330
1D
100
AcDbEntity
  8
BLACK
  6
Continuous
100
AcDbLine
 10
143.243744
 20
-89.961867
 30
0.0
 11
141.175022
 21
-99.694435
 31
0.0
  0
ARC
  5
84C
330
1D
100
AcDbEntity
  8
BLACK
100
AcDbCircle
 10
130.894633
 20
-87.336986
 30
0.0
 40
2.075003550725155
100
AcDbArc
 50
78.00012866
 51
167.9999011
  0
ARC
  5
84D
330
1D
100
AcDbEntity
  8
BLACK
100
AcDbCircle
 10
128.825911
 20
-97.069549
 30
0.0
 40
2.075001178604484
100
AcDbArc
 50
168.00006316
 51
257.9999436399999
  0
ARC
  5
84E
330
1D
100
AcDbEntity
  8
BLACK
100
AcDbCircle
 10
141.214087
 20
-89.53045
 30
0.0
 40
2.074999784632519
100
AcDbArc
 50
347.99999766
 51
77.99999192
  0
ARC
  5
84F
330
1D
100
AcDbEntity
  8
BLACK
100
AcDbCircle
 10
139.145366
 20
-99.263018
 30
0.0
 40
2.074999784632519
100
AcDbArc
 50
257.99999766
 51
347.99999192
  0
ENDSEC
  0
SECTION
  2
OBJECTS
  0
DICTIONARY
  5
C
330
0
100
AcDbDictionary
281
1
  3
ACAD_DETAILVIEWSTYLE
350
7F6
  3
ACAD_GROUP
350
D
  3
ACAD_LAYOUT
350
1A
  3
ACAD_MATERIAL
350
7E6
  3
ACAD_MLEADERSTYLE
350
7EC
  3
ACAD_MLINESTYLE
350
17
  3
ACAD_PLOTSETTINGS
350
19
  3
ACAD_PLOTSTYLENAME
350
E
  3
ACAD_SCALELIST
350
7B7
  3
ACAD_SECTIONVIEWSTYLE
350
7F7
  3
ACAD_TABLESTYLE
350
7EA
  3
ACAD_VISUALSTYLE
350
7CD
  3
AcDbVariableDictionary
350
7EE
  3
ACDB_RECOMPOSE_DATA
350
7F2
  3
ACAD_COLOR
350
7F8
  3
EZDXF_META
350
7FD
  0
DICTIONARY
  5
7F6
102
{ACAD_REACTORS
330
C
102
}
330
C
100
AcDbDictionary
281
1
  0
DICTIONARY
  5
D
102
{ACAD_REACTORS
330
C
102
}
330
C
100
AcDbDictionary
281
1
  0
DICTIONARY
  5
1A
102
{ACAD_REACTORS
330
C
102
}
330
C
100
AcDbDictionary
281
1
  3
Layout1
350
1C
  3
Model
350
1E
  0
DICTIONARY
  5
7E6
102
{ACAD_REACTORS
330
C
102
}
330
C
100
AcDbDictionary
281
1
  3
ByBlock
350
7E8
  3
ByLayer
350
7E7
  3
Global
350
7E9
  0
DICTIONARY
  5
7EC
102
{ACAD_REACTORS
330
C
102
}
330
C
100
AcDbDictionary
281
1
  3
Standard
350
7ED
  0
DICTIONARY
  5
17
102
{ACAD_REACTORS
330
C
102
}
330
C
100
AcDbDictionary
281
1
  3
Standard
350
18
  0
DICTIONARY
  5
19
102
{ACAD_REACTORS
330
C
102
}
330
C
100
AcDbDictionary
281
1
  0
ACDBDICTIONARYWDFLT
  5
E
102
{ACAD_REACTORS
330
C
102
}
330
C
100
AcDbDictionary
281
1
  3
Normal
350
F
100
AcDbDictionaryWithDefault
340
F
  0
DICTIONARY
  5
7B7
102
{ACAD_REACTORS
330
C
102
}
330
C
100
AcDbDictionary
281
1
  3
A0
350
7B8
  3
A1
350
7B9
  3
A2
350
7BA
  3
A3
350
7BB
  3
A4
350
7BC
  3
A5
350
7BD
  3
A6
350
7BE
  3
A7
350
7BF
  3
A8
350
7C0
  3
A9
350
7C1
  3
B0
350
7C2
  3
B1
350
7C3
  3
B2
350
7C4
  3
B3
350
7C5
  3
B4
350
7C6
  3
B5
350
7C7
  3
B6
350
7C8
  0
DICTIONARY
  5
7F7
102
{ACAD_REACTORS
330
C
102
}
330
C
100
AcDbDictionary
281
1
  0
DICTIONARY
  5
7EA
102
{ACAD_REACTORS
330
C
102
}
330
C
100
AcDbDictionary
281
1
  3
Standard
350
7EB
  0
DICTIONARY
  5
7CD
102
{ACAD_REACTORS
330
C
102
}
330
C
100
AcDbDictionary
281
1
  3
2dWireframe
350
7D2
  3
Basic
350
7D5
  3
Brighten
350
7D9
  3
ColorChange
350
7DD
  3
Conceptual
350
7D7
  3
Dim
350
7D8
  3
EdgeColorOff
350
7E0
  3
Facepattern
350
7DC
  3
Flat
350
7CE
  3
FlatWithEdges
350
7CF
  3
Gouraud
350
7D0
  3
GouraudWithEdges
350
7D1
  3
Hidden
350
7D4
  3
JitterOff
350
7DE
  3
Linepattern
350
7DB
  3
OverhangOff
350
7DF
  3
Realistic
350
7D6
  3
Shaded
350
7E5
  3
Shaded with edges
350
7E4
  3
Shades of Gray
350
7E1
  3
Sketchy
350
7E2
  3
Thicken
350
7DA
  3
Wireframe
350
7D3
  3
X-Ray
350
7E3
  0
DICTIONARY
  5
7EE
102
{ACAD_REACTORS
330
C
102
}
330
C
100
AcDbDictionary
281
1
  3
CANNOSCALE
350
7EF
  3
CMLEADERSTYLE
350
7F4
  3
CTABLESTYLE
350
7F3
  3
MSLTSCALE
350
7F5
  0
XRECORD
  5
7F2
102
{ACAD_REACTORS
330
C
102
}
330
C
100
AcDbXrecord
280
1
 90
1
330
7EB
  0
LAYOUT
  5
1C
102
{ACAD_REACTORS
330
1A
102
}
330
1A
100
AcDbPlotSettings
  1

  2
none_device
  4

  6

 40
0.0
 41
0.0
 42
0.0
 43
0.0
 44
0.0
 45
0.0
 46
0.0
 47
0.0
 48
0.0
 49
0.0
140
0.0
141
0.0
142
1.0
143
1.0
 70
688
 72
0
 73
0
 74
5
  7

 75
16
 76
0
 77
2
 78
300
147
1.0
148
0.0
149
0.0
100
AcDbLayout
  1
Layout1
 70
1
 71
1
 10
0.0
 20
0.0
 11
12.0
 21
9.0
 12
0.0
 22
0.0
 32
0.0
 14
1e+20
 24
1e+20
 34
1e+20
 15
-1e+20
 25
-1e+20
 35
-1e+20
146
0.0
 13
0.0
 23
0.0
 33
0.0
 16
1.0
 26
0.0
 36
0.0
 17
0.0
 27
1.0
 37
0.0
 76
0
330
1B
  0
LAYOUT
  5
1E
102
{ACAD_REACTORS
330
1A
102
}
330
1A
100
AcDbPlotSettings
  1

  2
none_device
  4
Letter_(8.50_x_11.00_Inches)
  6

 40
6.35
 41
6.35
 42
6.35000508
 43
6.35000508
 44
215.9
 45
279.4
 46
0.0
 47
0.0
 48
0.0
 49
0.0
140
0.0
141
0.0
142
1.0
143
1.0
 70
1712
 72
0
 73
0
 74
0
  7

 75
0
 76
0
 77
2
 78
300
147
1.0
148
0.0
149
0.0
100
AcDbLayout
  1
Model
 70
1
 71
0
 10
0.0
 20
0.0
 11
12.0
 21
9.0
 12
0.0
 22
0.0
 32
0.0
 14
1e+20
 24
1e+20
 34
1e+20
 15
-1e+20
 25
-1e+20
 35
-1e+20
146
0.0
 13
0.0
 23
0.0
 33
0.0
 16
1.0
 26
0.0
 36
0.0
 17
0.0
 27
1.0
 37
0.0
 76
0
330
1D
331
442
  0
MATERIAL
  5
7E8
102
{ACAD_REACTORS
330
7E6
102
}
330
7E6
100
AcDbMaterial
  1
ByBlock
  2

 70
0
 40
1.0
 71
0
 41
1.0
 91
-1023410177
 42
1.0
 72
1
  3

 73
1
 74
1
 75
1
 44
0.5
 73
0
 45
1.0
 46
1.0
 77
1
  4

 78
1
 79
1
170
1
 48
1.0
171
1
  6

172
1
173
1
174
1
140
1.0
141
1.0
175
1
  7

176
1
177
1
178
1
143
1.0
179
1
  8

270
1
271
1
272
1
145
1.0
146
1.0
273
1
  9

274
1
275
1
276
1
 42
1.0
 72
1
  3

 73
1
 74
1
 75
1
 94
127
  0
MATERIAL
  5
7E7
102
{ACAD_REACTORS
330
7E6
102
}
330
7E6
100
AcDbMaterial
  1
ByLayer
  2

 70
0
 40
1.0
 71
0
 41
1.0
 91
-1023410177
 42
1.0
 72
1
  3

 73
1
 74
1
 75
1
 44
0.5
 73
0
 45
1.0
 46
1.0
 77
1
  4

 78
1
 79
1
170
1
 48
1.0
171
1
  6

172
1
173
1
174
1
140
1.0
141
1.0
175
1
  7

176
1
177
1
178
1
143
1.0
179
1
  8

270
1
271
1
272
1
145
1.0
146
1.0
273
1
  9

274
1
275
1
276
1
 42
1.0
 72
1
  3

 73
1
 74
1
 75
1
 94
127
  0
MATERIAL
  5
7E9
102
{ACAD_REACTORS
330
7E6
102
}
330
7E6
100
AcDbMaterial
  1
Global
  2

 70
0
 40
1.0
 71
0
 41
1.0
 91
-1023410177
 42
1.0
 72
1
  3

 73
1
 74
1
 75
1
 44
0.5
 73
0
 45
1.0
 46
1.0
 77
1
  4

 78
1
 79
1
170
1
 48
1.0
171
1
  6

172
1
173
1
174
1
140
1.0
141
1.0
175
1
  7

176
1
177
1
178
1
143
1.0
179
1
  8

270
1
271
1
272
1
145
1.0
146
1.0
273
1
  9

274
1
275
1
276
1
 42
1.0
 72
1
  3

 73
1
 74
1
 75
1
 94
127
  0
MLEADERSTYLE
  5
7ED
102
{ACAD_REACTORS
330
7EC
102
}
330
7EC
100
AcDbMLeaderStyle
179
2
170
2
171
1
172
0
 90
2
 40
0.0
 41
0.0
173
1
 91
-1056964608
340
14
 92
-2
290
1
 42
2.0
291
1
 43
8.0
  3
Standard
341
0
 44
4.0
300

342
11
174
1
175
1
176
0
178
6
 93
-1056964608
 45
4.0
292
0
297
0
 46
4.0
293
1
343
0
 94
-1056964608
 47
1.0
 49
1.0
140
1.0
294
1
141
0.0
177
0
142
1.0
295
0
296
0
143
3.75
271
0
272
9
273
9
298
0
  0
MLINESTYLE
  5
18
102
{ACAD_REACTORS
330
17
102
}
330
17
100
AcDbMlineStyle
  2
Standard
 70
0
  3

 62
256
 51
90.0
 52
90.0
 71
2
 49
0.5
 62
256
  6
BYLAYER
 49
-0.5
 62
256
  6
BYLAYER
  0
ACDBPLACEHOLDER
  5
F
102
{ACAD_REACTORS
330
E
102
}
330
E
  0
SCALE
  5
7B8
102
{ACAD_REACTORS
330
7B7
102
}
330
7B7
100
AcDbScale
 70
0
300
1:1
140
1.0
141
1.0
290
1
  0
SCALE
  5
7B9
102
{ACAD_REACTORS
330
7B7
102
}
330
7B7
100
AcDbScale
 70
0
300
1:2
140
1.0
141
2.0
290
0
  0
SCALE
  5
7BA
102
{ACAD_REACTORS
330
7B7
102
}
330
7B7
100
AcDbScale
 70
0
300
1:4
140
1.0
141
4.0
290
0
  0
SCALE
  5
7BB
102
{ACAD_REACTORS
330
7B7
102
}
330
7B7
100
AcDbScale
 70
0
300
1:5
140
1.0
141
5.0
290
0
  0
SCALE
  5
7BC
102
{ACAD_REACTORS
330
7B7
102
}
330
7B7
100
AcDbScale
 70
0
300
1:8
140
1.0
141
8.0
290
0
  0
SCALE
  5
7BD
102
{ACAD_REACTORS
330
7B7
102
}
330
7B7
100
AcDbScale
 70
0
300
1:10
140
1.0
141
10.0
290
0
  0
SCALE
  5
7BE
102
{ACAD_REACTORS
330
7B7
102
}
330
7B7
100
AcDbScale
 70
0
300
1:16
140
1.0
141
16.0
290
0
  0
SCALE
  5
7BF
102
{ACAD_REACTORS
330
7B7
102
}
330
7B7
100
AcDbScale
 70
0
300
1:20
140
1.0
141
20.0
290
0
  0
SCALE
  5
7C0
102
{ACAD_REACTORS
330
7B7
102
}
330
7B7
100
AcDbScale
 70
0
300
1:30
140
1.0
141
30.0
290
0
  0
SCALE
  5
7C1
102
{ACAD_REACTORS
330
7B7
102
}
330
7B7
100
AcDbScale
 70
0
300
1:40
140
1.0
141
40.0
290
0
  0
SCALE
  5
7C2
102
{ACAD_REACTORS
330
7B7
102
}
330
7B7
100
AcDbScale
 70
0
300
1:50
140
1.0
141
50.0
290
0
  0
SCALE
  5
7C3
102
{ACAD_REACTORS
330
7B7
102
}
330
7B7
100
AcDbScale
 70
0
300
1:100
140
1.0
141
100.0
290
0
  0
SCALE
  5
7C4
102
{ACAD_REACTORS
330
7B7
102
}
330
7B7
100
AcDbScale
 70
0
300
2:1
140
2.0
141
1.0
290
0
  0
SCALE
  5
7C5
102
{ACAD_REACTORS
330
7B7
102
}
330
7B7
100
AcDbScale
 70
0
300
4:1
140
4.0
141
1.0
290
0
  0
SCALE
  5
7C6
102
{ACAD_REACTORS
330
7B7
102
}
330
7B7
100
AcDbScale
 70
0
300
8:1
140
8.0
141
1.0
290
0
  0
SCALE
  5
7C7
102
{ACAD_REACTORS
330
7B7
102
}
330
7B7
100
AcDbScale
 70
0
300
10:1
140
10.0
141
1.0
290
0
  0
SCALE
  5
7C8
102
{ACAD_REACTORS
330
7B7
102
}
330
7B7
100
AcDbScale
 70
0
300
100:1
140
100.0
141
1.0
290
0
  0
TABLESTYLE
  5
7EB
102
{ACAD_XDICTIONARY
360
7F0
102
}
102
{ACAD_REACTORS
330
7EA
102
}
330
7EA
100
AcDbTableStyle
  3
Standard
 70
0
 71
0
 40
0.06
 41
0.06
280
0
281
0
  7
Standard
140
4.5
170
2
 62
0
 63
257
283
0
 90
4
 91
0
  1

274
-2
284
1
 64
0
275
-2
285
1
 65
0
276
-2
286
1
 66
0
277
-2
287
1
 67
0
278
-2
288
1
 68
0
279
-2
289
1
 69
0
  7
Standard
140
6.0
170
5
 62
0
 63
257
283
0
 90
4
 91
0
  1

274
-2
284
1
 64
0
275
-2
285
1
 65
0
276
-2
286
1
 66
0
277
-2
287
1
 67
0
278
-2
288
1
 68
0
279
-2
289
1
 69
0
  7
Standard
140
4.5
170
5
 62
0
 63
257
283
0
 90
4
 91
0
  1

274
-2
284
1
 64
0
275
-2
285
1
 65
0
276
-2
286
1
 66
0
277
-2
287
1
 67
0
278
-2
288
1
 68
0
279
-2
289
1
 69
0
  0
VISUALSTYLE
  5
7D2
102
{ACAD_REACTORS
330
7CD
102
}
330
7CD
100
AcDbVisualStyle
  2
2dWireframe
 70
4
177
3
291
0
 70
58
 90
0
176
1
 90
2
176
1
 90
0
176
1
 90
0
176
1
 40
0.6
176
1
 40
30.0
176
1
 62
7
420
16777215
176
1
 90
1
176
1
 90
4
176
1
 62
7
176
1
 62
257
176
1
 90
1
176
1
 90
1
176
1
 40
1.0
176
1
 90
0
176
1
 62
257
176
1
 40
1.0
176
1
 90
1
176
1
 90
6
176
1
 90
2
176
1
 62
7
176
1
 90
5
176
1
 90
0
176
1
 90
0
176
1
290
0
176
1
 90
1
176
1
 40
0.0
176
1
 90
0
176
1
290
1
176
1
290
1
176
1
290
0
176
1
290
0
176
1
290
0
176
1
290
0
176
1
290
0
176
1
290
0
176
1
290
0
176
1
 90
50
176
1
 40
0.0
176
1
 40
1.0
176
1
 90
0
176
1
 62
18
420
0
176
1
 90
50
176
1
 90
3
176
1
 62
5
420
255
176
1
290
0
176
1
 90
50
176
1
 90
50
176
1
 90
50
176
1
290
0
176
1
 90
50
176
1
 62
256
176
0
 40
1.0
176
0
 90
2
176
1
  1
strokes_ogs.tif
176
1
290
0
176
1
 40
1.0
176
1
 40
1.0
176
1
  0
VISUALSTYLE
  5
7D5
102
{ACAD_REACTORS
330
7CD
102
}
330
7CD
100
AcDbVisualStyle
  2
Basic
 70
7
177
3
291
1
 70
58
 90
1
176
1
 90
0
176
1
 90
1
176
1
 90
0
176
1
 40
0.6
176
1
 40
30.0
176
1
 62
7
420
16777215
176
1
 90
0
176
1
 90
4
176
1
 62
7
176
1
 62
257
176
1
 90
1
176
1
 90
1
176
1
 40
1.0
176
1
 90
8
176
1
 62
7
176
1
 40
1.0
176
1
 90
1
176
1
 90
6
176
1
 90
2
176
1
 62
7
176
1
 90
5
176
1
 90
0
176
1
 90
0
176
1
290
0
176
1
 90
1
176
1
 40
0.0
176
1
 90
0
176
1
290
0
176
1
290
1
176
1
290
1
176
1
290
0
176
1
290
0
176
1
290
0
176
1
290
0
176
1
290
0
176
1
290
0
176
1
 90
50
176
1
 40
0.0
176
1
 40
1.0
176
1
 90
0
176
1
 62
18
420
0
176
1
 90
50
176
1
 90
3
176
1
 62
5
420
255
176
1
290
0
176
1
 90
50
176
1
 90
50
176
1
 90
50
176
1
290
0
176
1
 90
50
176
1
 62
256
176
0
 40
1.0
176
0
 90
2
176
1
  1
strokes_ogs.tif
176
1
290
0
176
1
 40
1.0
176
1
 40
1.0
176
1
  0
VISUALSTYLE
  5
7D9
102
{ACAD_REACTORS
330
7CD
102
}
330
7CD
100
AcDbVisualStyle
  2
Brighten
 70
12
177
3
291
1
 70
58
 90
2
176
1
 90
2
176
1
 90
0
176
1
 90
0
176
1
 40
0.6
176
1
 40
30.0
176
1
 62
7
420
16777215
176
1
 90
1
176
1
 90
4
176
1
 62
7
176
1
 62
257
176
1
 90
1
176
1
 90
1
176
1
 40
1.0
176
1
 90
8
176
1
 62
7
176
1
 40
1.0
176
1
 90
1
176
1
 90
6
176
1
 90
2
176
1
 62
7
176
1
 90
5
176
1
 90
0
176
1
 90
0
176
1
290
0
176
1
 90
1
176
1
 40
50.0
176
1
 90
0
176
1
290
0
176
1
290
1
176
1
290
1
176
1
290
0
176
1
290
0
176
1
290
0
176
1
290
0
176
1
290
0
176
1
290
0
176
1
 90
50
176
1
 40
0.0
176
1
 40
1.0
176
1
 90
0
176
1
 62
18
420
0
176
1
 90
50
176
1
 90
3
176
1
 62
5
420
255
176
1
290
0
176
1
 90
50
176
1
 90
50
176
1
 90
50
176
1
290
0
176
1
 90
50
176
1
 62
256
176
0
 40
1.0
176
0
 90
2
176
1
  1
strokes_ogs.tif
176
1
290
0
176
1
 40
1.0
176
1
 40
1.0
176
1
  0
VISUALSTYLE
  5
7DD
102
{ACAD_REACTORS
330
7CD
102
}
330
7CD
100
AcDbVisualStyle
  2
ColorChange
 70
16
177
3
291
1
 70
58
 90
2
176
1
 90
2
176
1
 90
3
176
1
 90
0
176
1
 40
0.6
176
1
 40
30.0
176
1
 62
8
420
8421504
176
1
 90
1
176
1
 90
4
176
1
 62
7
176
1
 62
257
176
1
 90
1
176
1
 90
1
176
1
 40
1.0
176
1
 90
8
176
1
 62
8
420
8421504
176
1
 40
1.0
176
1
 90
1
176
1
 90
6
176
1
 90
2
176
1
 62
7
176
1
 90
5
176
1
 90
0
176
1
 90
0
176
1
290
0
176
1
 90
1
176
1
 40
0.0
176
1
 90
0
176
1
290
0
176
1
290
1
176
1
290
1
176
1
290
0
176
1
290
0
176
1
290
0
176
1
290
0
176
1
290
0
176
1
290
0
176
1
 90
50
176
1
 40
0.0
176
1
 40
1.0
176
1
 90
0
176
1
 62
18
420
0
176
1
 90
50
176
1
 90
3
176
1
 62
5
420
255
176
1
290
0
176
1
 90
50
176
1
 90
50
176
1
 90
50
176
1
290
0
176
1
 90
50
176
1
 62
256
176
0
 40
1.0
176
0
 90
2
176
1
  1
strokes_ogs.tif
176
1
290
0
176
1
 40
1.0
176
1
 40
1.0
176
1
  0
VISUALSTYLE
  5
7D7
102
{ACAD_REACTORS
330
7CD
102
}
330
7CD
100
AcDbVisualStyle
  2
Conceptual
 70
9
177
3
291
0
 70
58
 90
3
176
1
 90
2
176
1
 90
0
176
1
 90
0
176
1
 40
0.6
176
1
 40
30.0
176
1
 62
7
420
16777215
176
1
 90
2
176
1
 90
2
176
1
 62
7
176
1
 62
257
176
1
 90
1
176
1
 90
1
176
1
 40
179.0
176
1
 90
8
176
1
 62
7
176
1
 40
1.0
176
1
 90
1
176
1
 90
6
176
1
 90
2
176
1
 62
7
176
1
 90
3
176
1
 90
0
176
1
 90
0
176
1
290
0
176
1
 90
1
176
1
 40
0.0
176
1
 90
0
176
1
290
0
176
1
290
1
176
1
290
1
176
1
290
0
176
1
290
0
176
1
290
0
176
1
290
0
176
1
290
0
176
1
290
0
176
1
 90
50
176
1
 40
0.0
176
1
 40
1.0
176
1
 90
0
176
1
 62
18
420
0
176
1
 90
50
176
1
 90
3
176
1
 62
5
420
255
176
1
290
0
176
1
 90
50
176
1
 90
50
176
1
 90
50
176
1
290
0
176
1
 90
50
176
1
 62
256
176
0
 40
1.0
176
0
 90
2
176
1
  1
strokes_ogs.tif
176
1
290
0
176
1
 40
1.0
176
1
 40
1.0
176
1
  0
VISUALSTYLE
  5
7D8
102
{ACAD_REACTORS
330
7CD
102
}
330
7CD
100
AcDbVisualStyle
  2
Dim
 70
11
177
3
291
1
 70
58
 90
2
176
1
 90
2
176
1
 90
0
176
1
 90
0
176
1
 40
0.6
176
1
 40
30.0
176
1
 62
7
420
16777215
176
1
 90
1
176
1
 90
4
176
1
 62
7
176
1
 62
257
176
1
 90
1
176
1
 90
1
176
1
 40
1.0
176
1
 90
8
176
1
 62
7
176
1
 40
1.0
176
1
 90
1
176
1
 90
6
176
1
 90
2
176
1
 62
7
176
1
 90
5
176
1
 90
0
176
1
 90
0
176
1
290
0
176
1
 90
1
176
1
 40
-50.0
176
1
 90
0
176
1
290
0
176
1
290
1
176
1
290
1
176
1
290
0
176
1
290
0
176
1
290
0
176
1
290
0
176
1
290
0
176
1
290
0
176
1
 90
50
176
1
 40
0.0
176
1
 40
1.0
176
1
 90
0
176
1
 62
18
420
0
176
1
 90
50
176
1
 90
3
176
1
 62
5
420
255
176
1
290
0
176
1
 90
50
176
1
 90
50
176
1
 90
50
176
1
290
0
176
1
 90
50
176
1
 62
256
176
0
 40
1.0
176
0
 90
2
176
1
  1
strokes_ogs.tif
176
1
290
0
176
1
 40
1.0
176
1
 40
1.0
176
1
  0
VISUALSTYLE
  5
7E0
102
{ACAD_REACTORS
330
7CD
102
}
330
7CD
100
AcDbVisualStyle
  2
EdgeColorOff
 70
22
177
3
291
1
 70
58
 90
2
176
0
 90
2
176
0
 90
0
176
0
 90
0
176
0
 40
0.6
176
0
 40
30.0
176
0
 62
7
420
16777215
176
0
 90
1
176
0
 90
4
176
0
 62
7
176
0
 62
257
176
0
 90
1
176
0
 90
1
176
0
 40
1.0
176
0
 90
8
176
2
 62
7
176
0
 40
1.0
176
0
 90
1
176
0
 90
6
176
0
 90
2
176
0
 62
7
176
0
 90
5
176
0
 90
0
176
0
 90
0
176
0
290
0
176
0
 90
1
176
0
 40
0.0
176
0
 90
0
176
0
290
0
176
0
290
1
176
0
290
1
176
0
290
0
176
0
290
0
176
0
290
0
176
0
290
0
176
0
290
0
176
0
290
0
176
0
 90
50
176
0
 40
0.0
176
0
 40
1.0
176
0
 90
0
176
0
 62
18
420
0
176
0
 90
50
176
0
 90
3
176
0
 62
5
420
255
176
0
290
0
176
0
 90
50
176
0
 90
50
176
0
 90
50
176
0
290
0
176
0
 90
50
176
0
 62
256
176
0
 40
1.0
176
0
 90
2
176
0
  1
strokes_ogs.tif
176
0
290
0
176
0
 40
1.0
176
0
 40
1.0
176
0
  0
VISUALSTYLE
  5
7DC
102
{ACAD_REACTORS
330
7CD
102
}
330
7CD
100
AcDbVisualStyle
  2
Facepattern
 70
15
177
3
291
1
 70
58
 90
2
176
1
 90
2
176
1
 90
0
176
1
 90
0
176
1
 40
0.6
176
1
 40
30.0
176
1
 62
7
420
16777215
176
1
 90
1
176
1
 90
4
176
1
 62
7
176
1
 62
257
176
1
 90
1
176
1
 90
1
176
1
 40
1.0
176
1
 90
8
176
1
 62
7
176
1
 40
1.0
176
1
 90
1
176
1
 90
6
176
1
 90
2
176
1
 62
7
176
1
 90
5
176
1
 90
0
176
1
 90
0
176
1
290
0
176
1
 90
1
176
1
 40
0.0
176
1
 90
0
176
1
290
0
176
1
290
1
176
1
290
1
176
1
290
0
176
1
290
0
176
1
290
0
176
1
290
0
176
1
290
0
176
1
290
0
176
1
 90
50
176
1
 40
0.0
176
1
 40
1.0
176
1
 90
0
176
1
 62
18
420
0
176
1
 90
50
176
1
 90
3
176
1
 62
5
420
255
176
1
290
0
176
1
 90
50
176
1
 90
50
176
1
 90
50
176
1
290
0
176
1
 90
50
176
1
 62
256
176
0
 40
1.0
176
0
 90
2
176
1
  1
strokes_ogs.tif
176
1
290
0
176
1
 40
1.0
176
1
 40
1.0
176
1
  0
VISUALSTYLE
  5
7CE
102
{ACAD_REACTORS
330
7CD
102
}
330
7CD
100
AcDbVisualStyle
  2
Flat
 70
0
177
3
291
1
 70
58
 90
2
176
1
 90
1
176
1
 90
1
176
1
 90
2
176
1
 40
0.6
176
1
 40
30.0
176
1
 62
7
420
16777215
176
1
 90
0
176
1
 90
0
176
1
 62
7
176
1
 62
257
176
1
 90
1
176
1
 90
1
176
1
 40
1.0
176
1
 90
8
176
1
 62
7
176
1
 40
1.0
176
1
 90
1
176
1
 90
6
176
1
 90
2
176
1
 62
7
176
1
 90
5
176
1
 90
0
176
1
 90
0
176
1
290
0
176
1
 90
13
176
1
 40
0.0
176
1
 90
0
176
1
290
0
176
1
290
1
176
1
290
1
176
1
290
0
176
1
290
0
176
1
290
0
176
1
290
0
176
1
290
0
176
1
290
0
176
1
 90
50
176
1
 40
0.0
176
1
 40
1.0
176
1
 90
0
176
1
 62
18
420
0
176
1
 90
50
176
1
 90
3
176
1
 62
5
420
255
176
1
290
0
176
1
 90
50
176
1
 90
50
176
1
 90
50
176
1
290
0
176
1
 90
50
176
1
 62
256
176
0
 40
1.0
176
0
 90
2
176
1
  1
strokes_ogs.tif
176
1
290
0
176
1
 40
1.0
176
1
 40
1.0
176
1
  0
VISUALSTYLE
  5
7CF
102
{ACAD_REACTORS
330
7CD
102
}
330
7CD
100
AcDbVisualStyle
  2
FlatWithEdges
 70
1
177
3
291
1
 70
58
 90
2
176
1
 90
1
176
1
 90
1
176
1
 90
2
176
1
 40
0.6
176
1
 40
30.0
176
1
 62
7
420
16777215
176
1
 90
1
176
1
 90
0
176
1
 62
7
176
1
 62
257
176
1
 90
1
176
1
 90
1
176
1
 40
1.0
176
1
 90
0
176
1
 62
257
176
1
 40
1.0
176
1
 90
1
176
1
 90
6
176
1
 90
2
176
1
 62
7
176
1
 90
5
176
1
 90
0
176
1
 90
0
176
1
290
0
176
1
 90
13
176
1
 40
0.0
176
1
 90
0
176
1
290
0
176
1
290
1
176
1
290
1
176
1
290
0
176
1
290
0
176
1
290
0
176
1
290
0
176
1
290
0
176
1
290
0
176
1
 90
50
176
1
 40
0.0
176
1
 40
1.0
176
1
 90
0
176
1
 62
18
420
0
176
1
 90
50
176
1
 90
3
176
1
 62
5
420
255
176
1
290
0
176
1
 90
50
176
1
 90
50
176
1
 90
50
176
1
290
0
176
1
 90
50
176
1
 62
256
176
0
 40
1.0
176
0
 90
2
176
1
  1
strokes_ogs.tif
176
1
290
0
176
1
 40
1.0
176
1
 40
1.0
176
1
  0
VISUALSTYLE
  5
7D0
102
{ACAD_REACTORS
330
7CD
102
}
330
7CD
100
AcDbVisualStyle
  2
Gouraud
 70
2
177
3
291
1
 70
58
 90
2
176
1
 90
2
176
1
 90
1
176
1
 90
2
176
1
 40
0.6
176
1
 40
30.0
176
1
 62
7
420
16777215
176
1
 90
0
176
1
 90
0
176
1
 62
7
176
1
 62
257
176
1
 90
1
176
1
 90
1
176
1
 40
1.0
176
1
 90
0
176
1
 62
7
176
1
 40
1.0
176
1
 90
1
176
1
 90
6
176
1
 90
2
176
1
 62
7
176
1
 90
5
176
1
 90
0
176
1
 90
0
176
1
290
0
176
1
 90
13
176
1
 40
0.0
176
1
 90
0
176
1
290
0
176
1
290
1
176
1
290
1
176
1
290
0
176
1
290
0
176
1
290
0
176
1
290
0
176
1
290
0
176
1
290
0
176
1
 90
50
176
1
 40
0.0
176
1
 40
1.0
176
1
 90
0
176
1
 62
18
420
0
176
1
 90
50
176
1
 90
3
176
1
 62
5
420
255
176
1
290
0
176
1
 90
50
176
1
 90
50
176
1
 90
50
176
1
290
0
176
1
 90
50
176
1
 62
256
176
0
 40
1.0
176
0
 90
2
176
1
  1
strokes_ogs.tif
176
1
290
0
176
1
 40
1.0
176
1
 40
1.0
176
1
  0
VISUALSTYLE
  5
7D1
102
{ACAD_REACTORS
330
7CD
102
}
330
7CD
100
AcDbVisualStyle
  2
GouraudWithEdges
 70
3
177
3
291
1
 70
58
 90
2
176
1
 90
2
176
1
 90
1
176
1
 90
2
176
1
 40
0.6
176
1
 40
30.0
176
1
 62
7
420
16777215
176
1
 90
1
176
1
 90
0
176
1
 62
7
176
1
 62
257
176
1
 90
1
176
1
 90
1
176
1
 40
1.0
176
1
 90
0
176
1
 62
257
176
1
 40
1.0
176
1
 90
1
176
1
 90
6
176
1
 90
2
176
1
 62
7
176
1
 90
5
176
1
 90
0
176
1
 90
0
176
1
290
0
176
1
 90
13
176
1
 40
0.0
176
1
 90
0
176
1
290
0
176
1
290
1
176
1
290
1
176
1
290
0
176
1
290
0
176
1
290
0
176
1
290
0
176
1
290
0
176
1
290
0
176
1
 90
50
176
1
 40
0.0
176
1
 40
1.0
176
1
 90
0
176
1
 62
18
420
0
176
1
 90
50
176
1
 90
3
176
1
 62
5
420
255
176
1
290
0
176
1
 90
50
176
1
 90
50
176
1
 90
50
176
1
290
0
176
1
 90
50
176
1
 62
256
176
0
 40
1.0
176
0
 90
2
176
1
  1
strokes_ogs.tif
176
1
290
0
176
1
 40
1.0
176
1
 40
1.0
176
1
  0
VISUALSTYLE
  5
7D4
102
{ACAD_REACTORS
330
7CD
102
}
330
7CD
100
AcDbVisualStyle
  2
Hidden
 70
6
177
3
291
0
 70
58
 90
1
176
1
 90
2
176
1
 90
2
176
1
 90
0
176
1
 40
0.6
176
1
 40
30.0
176
1
 62
7
420
16777215
176
1
 90
2
176
1
 90
2
176
1
 62
7
176
1
 62
257
176
1
 90
2
176
1
 90
1
176
1
 40
40.0
176
1
 90
0
176
1
 62
257
176
1
 40
1.0
176
1
 90
1
176
1
 90
6
176
1
 90
2
176
1
 62
7
176
1
 90
3
176
1
 90
0
176
1
 90
0
176
1
290
0
176
1
 90
1
176
1
 40
0.0
176
1
 90
0
176
1
290
0
176
1
290
1
176
1
290
1
176
1
290
0
176
1
290
0
176
1
290
0
176
1
290
0
176
1
290
0
176
1
290
0
176
1
 90
50
176
1
 40
0.0
176
1
 40
1.0
176
1
 90
0
176
1
 62
18
420
0
176
1
 90
50
176
1
 90
3
176
1
 62
5
420
255
176
1
290
0
176
1
 90
50
176
1
 90
50
176
1
 90
50
176
1
290
0
176
1
 90
50
176
1
 62
256
176
0
 40
1.0
176
0
 90
2
176
1
  1
strokes_ogs.tif
176
1
290
0
176
1
 40
1.0
176
1
 40
1.0
176
1
  0
VISUALSTYLE
  5
7DE
102
{ACAD_REACTORS
330
7CD
102
}
330
7CD
100
AcDbVisualStyle
  2
JitterOff
 70
20
177
3
291
1
 70
58
 90
2
176
0
 90
2
176
0
 90
0
176
0
 90
0
176
0
 40
0.6
176
0
 40
30.0
176
0
 62
7
420
16777215
176
0
 90
1
176
0
 90
4
176
0
 62
7
176
0
 62
257
176
0
 90
1
176
0
 90
1
176
0
 40
1.0
176
0
 90
10
176
2
 62
7
176
0
 40
1.0
176
0
 90
1
176
0
 90
6
176
0
 90
2
176
0
 62
7
176
0
 90
5
176
0
 90
0
176
0
 90
0
176
0
290
0
176
0
 90
1
176
0
 40
0.0
176
0
 90
0
176
0
290
0
176
0
290
1
176
0
290
1
176
0
290
0
176
0
290
0
176
0
290
0
176
0
290
0
176
0
290
0
176
0
290
0
176
0
 90
50
176
0
 40
0.0
176
0
 40
1.0
176
0
 90
0
176
0
 62
18
420
0
176
0
 90
50
176
0
 90
3
176
0
 62
5
420
255
176
0
290
0
176
0
 90
50
176
0
 90
50
176
0
 90
50
176
0
290
0
176
0
 90
50
176
0
 62
256
176
0
 40
1.0
176
0
 90
2
176
0
  1
strokes_ogs.tif
176
0
290
0
176
0
 40
1.0
176
0
 40
1.0
176
0
  0
VISUALSTYLE
  5
7DB
102
{ACAD_REACTORS
330
7CD
102
}
330
7CD
100
AcDbVisualStyle
  2
Linepattern
 70
14
177
3
291
1
 70
58
 90
2
176
1
 90
2
176
1
 90
0
176
1
 90
0
176
1
 40
0.6
176
1
 40
30.0
176
1
 62
7
420
16777215
176
1
 90
1
176
1
 90
4
176
1
 62
7
176
1
 62
257
176
1
 90
7
176
1
 90
7
176
1
 40
1.0
176
1
 90
8
176
1
 62
7
176
1
 40
1.0
176
1
 90
1
176
1
 90
6
176
1
 90
2
176
1
 62
7
176
1
 90
5
176
1
 90
0
176
1
 90
0
176
1
290
0
176
1
 90
1
176
1
 40
0.0
176
1
 90
0
176
1
290
0
176
1
290
1
176
1
290
1
176
1
290
0
176
1
290
0
176
1
290
0
176
1
290
0
176
1
290
0
176
1
290
0
176
1
 90
50
176
1
 40
0.0
176
1
 40
1.0
176
1
 90
0
176
1
 62
18
420
0
176
1
 90
50
176
1
 90
3
176
1
 62
5
420
255
176
1
290
0
176
1
 90
50
176
1
 90
50
176
1
 90
50
176
1
290
0
176
1
 90
50
176
1
 62
256
176
0
 40
1.0
176
0
 90
2
176
1
  1
strokes_ogs.tif
176
1
290
0
176
1
 40
1.0
176
1
 40
1.0
176
1
  0
VISUALSTYLE
  5
7DF
102
{ACAD_REACTORS
330
7CD
102
}
330
7CD
100
AcDbVisualStyle
  2
OverhangOff
 70
21
177
3
291
1
 70
58
 90
2
176
0
 90
2
176
0
 90
0
176
0
 90
0
176
0
 40
0.6
176
0
 40
30.0
176
0
 62
7
420
16777215
176
0
 90
1
176
0
 90
4
176
0
 62
7
176
0
 62
257
176
0
 90
1
176
0
 90
1
176
0
 40
1.0
176
0
 90
9
176
2
 62
7
176
0
 40
1.0
176
0
 90
1
176
0
 90
6
176
0
 90
2
176
0
 62
7
176
0
 90
5
176
0
 90
0
176
0
 90
0
176
0
290
0
176
0
 90
1
176
0
 40
0.0
176
0
 90
0
176
0
290
0
176
0
290
1
176
0
290
1
176
0
290
0
176
0
290
0
176
0
290
0
176
0
290
0
176
0
290
0
176
0
290
0
176
0
 90
50
176
0
 40
0.0
176
0
 40
1.0
176
0
 90
0
176
0
 62
18
420
0
176
0
 90
50
176
0
 90
3
176
0
 62
5
420
255
176
0
290
0
176
0
 90
50
176
0
 90
50
176
0
 90
50
176
0
290
0
176
0
 90
50
176
0
 62
256
176
0
 40
1.0
176
0
 90
2
176
0
  1
strokes_ogs.tif
176
0
290
0
176
0
 40
1.0
176
0
 40
1.0
176
0
  0
VISUALSTYLE
  5
7D6
102
{ACAD_REACTORS
330
7CD
102
}
330
7CD
100
AcDbVisualStyle
  2
Realistic
 70
8
177
3
291
0
 70
58
 90
2
176
1
 90
3
176
1
 90
0
176
1
 90
2
176
1
 40
0.6
176
1
 40
30.0
176
1
 62
7
420
16777215
176
1
 90
0
176
1
 90
0
176
1
 62
7
176
1
 62
257
176
1
 90
1
176
1
 90
1
176
1
 40
1.0
176
1
 90
8
176
1
 62
257
176
1
 40
1.0
176
1
 90
1
176
1
 90
6
176
1
 90
2
176
1
 62
7
176
1
 90
3
176
1
 90
0
176
1
 90
0
176
1
290
0
176
1
 90
13
176
1
 40
0.0
176
1
 90
0
176
1
290
0
176
1
290
1
176
1
290
1
176
1
290
0
176
1
290
0
176
1
290
0
176
1
290
0
176
1
290
0
176
1
290
0
176
1
 90
50
176
1
 40
0.0
176
1
 40
1.0
176
1
 90
0
176
1
 62
18
420
0
176
1
 90
50
176
1
 90
3
176
1
 62
5
420
255
176
1
290
0
176
1
 90
50
176
1
 90
50
176
1
 90
50
176
1
290
0
176
1
 90
50
176
1
 62
256
176
0
 40
1.0
176
0
 90
2
176
1
  1
strokes_ogs.tif
176
1
290
0
176
1
 40
1.0
176
1
 40
1.0
176
1
  0
VISUALSTYLE
  5
7E5
102
{ACAD_REACTORS
330
7CD
102
}
330
7CD
100
AcDbVisualStyle
  2
Shaded
 70
27
177
3
291
0
 70
58
 90
2
176
1
 90
2
176
1
 90
1
176
1
 90
2
176
1
 40
0.6
176
1
 40
30.0
176
1
 62
7
420
16777215
176
1
 90
0
176
1
 90
4
176
1
 62
7
176
1
 62
257
176
1
 90
1
176
1
 90
1
176
1
 40
1.0
176
1
 90
8
176
1
 62
257
176
1
 40
1.0
176
1
 90
1
176
1
 90
6
176
1
 90
2
176
1
 62
8
420
7895160
176
1
 90
3
176
1
 90
0
176
1
 90
0
176
1
290
0
176
1
 90
5
176
1
 40
0.0
176
1
 90
0
176
1
290
0
176
1
290
1
176
1
290
1
176
1
290
0
176
1
290
0
176
1
290
0
176
1
290
0
176
1
290
0
176
1
290
0
176
1
 90
50
176
1
 40
0.0
176
1
 40
1.0
176
1
 90
0
176
1
 62
18
420
0
176
1
 90
50
176
1
 90
3
176
1
 62
5
420
255
176
1
290
0
176
1
 90
50
176
1
 90
50
176
1
 90
50
176
1
290
0
176
1
 90
50
176
1
 62
256
176
0
 40
1.0
176
0
 90
2
176
1
  1
strokes_ogs.tif
176
1
290
0
176
1
 40
1.0
176
1
 40
1.0
176
1
  0
VISUALSTYLE
  5
7E4
102
{ACAD_REACTORS
330
7CD
102
}
330
7CD
100
AcDbVisualStyle
  2
Shaded with edges
 70
26
177
3
291
0
 70
58
 90
2
176
1
 90
2
176
1
 90
1
176
1
 90
2
176
1
 40
0.6
176
1
 40
30.0
176
1
 62
7
420
16777215
176
1
 90
1
176
1
 90
10
176
1
 62
7
176
1
 62
257
176
1
 90
2
176
1
 90
1
176
1
 40
1.0
176
1
 90
8
176
1
 62
257
176
1
 40
1.0
176
1
 90
1
176
1
 90
6
176
1
 90
2
176
1
 62
7
176
1
 90
3
176
1
 90
0
176
1
 90
0
176
1
290
0
176
1
 90
5
176
1
 40
0.0
176
1
 90
0
176
1
290
0
176
1
290
1
176
1
290
1
176
1
290
0
176
1
290
0
176
1
290
0
176
1
290
0
176
1
290
0
176
1
290
0
176
1
 90
50
176
1
 40
0.0
176
1
 40
1.0
176
1
 90
0
176
1
 62
18
420
0
176
1
 90
50
176
1
 90
3
176
1
 62
5
420
255
176
1
290
0
176
1
 90
50
176
1
 90
50
176
1
 90
50
176
1
290
0
176
1
 90
50
176
1
 62
256
176
0
 40
1.0
176
0
 90
2
176
1
  1
strokes_ogs.tif
176
1
290
0
176
1
 40
1.0
176
1
 40
1.0
176
1
  0
VISUALSTYLE
  5
7E1
102
{ACAD_REACTORS
330
7CD
102
}
330
7CD
100
AcDbVisualStyle
  2
Shades of Gray
 70
23
177
3
291
0
 70
58
 90
2
176
1
 90
2
176
1
 90
3
176
1
 90
0
176
1
 40
0.6
176
1
 40
30.0
176
1
 62
7
420
16777215
176
1
 90
2
176
1
 90
2
176
1
 62
7
176
1
 62
7
176
1
 90
1
176
1
 90
1
176
1
 40
40.0
176
1
 90
8
176
1
 62
7
176
1
 40
1.0
176
1
 90
1
176
1
 90
6
176
1
 90
2
176
1
 62
7
176
1
 90
3
176
1
 90
0
176
1
 90
0
176
1
290
0
176
1
 90
1
176
1
 40
0.0
176
1
 90
0
176
1
290
0
176
1
290
1
176
1
290
1
176
1
290
0
176
1
290
0
176
1
290
0
176
1
290
0
176
1
290
0
176
1
290
0
176
1
 90
50
176
1
 40
0.0
176
1
 40
1.0
176
1
 90
0
176
1
 62
18
420
0
176
1
 90
50
176
1
 90
3
176
1
 62
5
420
255
176
1
290
0
176
1
 90
50
176
1
 90
50
176
1
 90
50
176
1
290
0
176
1
 90
50
176
1
 62
256
176
0
 40
1.0
176
0
 90
2
176
1
  1
strokes_ogs.tif
176
1
290
0
176
1
 40
1.0
176
1
 40
1.0
176
1
  0
VISUALSTYLE
  5
7E2
102
{ACAD_REACTORS
330
7CD
102
}
330
7CD
100
AcDbVisualStyle
  2
Sketchy
 70
24
177
3
291
0
 70
58
 90
1
176
1
 90
2
176
1
 90
2
176
1
 90
0
176
1
 40
0.6
176
1
 40
30.0
176
1
 62
7
420
16777215
176
1
 90
2
176
1
 90
2
176
1
 62
7
176
1
 62
7
176
1
 90
1
176
1
 90
1
176
1
 40
40.0
176
1
 90
11
176
1
 62
7
176
1
 40
1.0
176
1
 90
1
176
1
 90
6
176
1
 90
2
176
1
 62
7
176
1
 90
6
176
1
 90
0
176
1
 90
0
176
1
290
0
176
1
 90
1
176
1
 40
0.0
176
1
 90
0
176
1
290
0
176
1
290
1
176
1
290
1
176
1
290
0
176
1
290
0
176
1
290
0
176
1
290
0
176
1
290
0
176
1
290
0
176
1
 90
50
176
1
 40
0.0
176
1
 40
1.0
176
1
 90
0
176
1
 62
18
420
0
176
1
 90
50
176
1
 90
3
176
1
 62
5
420
255
176
1
290
0
176
1
 90
50
176
1
 90
50
176
1
 90
50
176
1
290
0
176
1
 90
50
176
1
 62
256
176
0
 40
1.0
176
0
 90
2
176
1
  1
strokes_ogs.tif
176
1
290
0
176
1
 40
1.0
176
1
 40
1.0
176
1
  0
VISUALSTYLE
  5
7DA
102
{ACAD_REACTORS
330
7CD
102
}
330
7CD
100
AcDbVisualStyle
  2
Thicken
 70
13
177
3
291
1
 70
58
 90
2
176
1
 90
2
176
1
 90
0
176
1
 90
0
176
1
 40
0.6
176
1
 40
30.0
176
1
 62
7
420
16777215
176
1
 90
1
176
1
 90
4
176
1
 62
7
176
1
 62
257
176
1
 90
1
176
1
 90
1
176
1
 40
1.0
176
1
 90
12
176
1
 62
7
176
1
 40
1.0
176
1
 90
1
176
1
 90
6
176
1
 90
2
176
1
 62
7
176
1
 90
5
176
1
 90
0
176
1
 90
0
176
1
290
0
176
1
 90
1
176
1
 40
0.0
176
1
 90
0
176
1
290
0
176
1
290
1
176
1
290
1
176
1
290
0
176
1
290
0
176
1
290
0
176
1
290
0
176
1
290
0
176
1
290
0
176
1
 90
50
176
1
 40
0.0
176
1
 40
1.0
176
1
 90
0
176
1
 62
18
420
0
176
1
 90
50
176
1
 90
3
176
1
 62
5
420
255
176
1
290
0
176
1
 90
50
176
1
 90
50
176
1
 90
50
176
1
290
0
176
1
 90
50
176
1
 62
256
176
0
 40
1.0
176
0
 90
2
176
1
  1
strokes_ogs.tif
176
1
290
0
176
1
 40
1.0
176
1
 40
1.0
176
1
  0
VISUALSTYLE
  5
7D3
102
{ACAD_REACTORS
330
7CD
102
}
330
7CD
100
AcDbVisualStyle
  2
Wireframe
 70
5
177
3
291
0
 70
58
 90
0
176
1
 90
2
176
1
 90
0
176
1
 90
0
176
1
 40
0.6
176
1
 40
30.0
176
1
 62
7
420
16777215
176
1
 90
1
176
1
 90
4
176
1
 62
7
176
1
 62
257
176
1
 90
1
176
1
 90
1
176
1
 40
1.0
176
1
 90
0
176
1
 62
257
176
1
 40
1.0
176
1
 90
1
176
1
 90
6
176
1
 90
2
176
1
 62
7
176
1
 90
3
176
1
 90
0
176
1
 90
0
176
1
290
0
176
1
 90
1
176
1
 40
0.0
176
1
 90
0
176
1
290
0
176
1
290
1
176
1
290
1
176
1
290
0
176
1
290
0
176
1
290
0
176
1
290
0
176
1
290
0
176
1
290
0
176
1
 90
50
176
1
 40
0.0
176
1
 40
1.0
176
1
 90
0
176
1
 62
18
420
0
176
1
 90
50
176
1
 90
3
176
1
 62
5
420
255
176
1
290
0
176
1
 90
50
176
1
 90
50
176
1
 90
50
176
1
290
0
176
1
 90
50
176
1
 62
256
176
0
 40
1.0
176
0
 90
2
176
1
  1
strokes_ogs.tif
176
1
290
0
176
1
 40
1.0
176
1
 40
1.0
176
1
  0
VISUALSTYLE
  5
7E3
102
{ACAD_REACTORS
330
7CD
102
}
330
7CD
100
AcDbVisualStyle
  2
X-Ray
 70
25
177
3
291
0
 70
58
 90
2
176
1
 90
2
176
1
 90
1
176
1
 90
1
176
1
 40
0.5
176
1
 40
30.0
176
1
 62
7
420
16777215
176
1
 90
1
176
1
 90
0
176
1
 62
7
176
1
 62
257
176
1
 90
1
176
1
 90
1
176
1
 40
1.0
176
1
 90
8
176
1
 62
7
176
1
 40
1.0
176
1
 90
1
176
1
 90
6
176
1
 90
2
176
1
 62
7
176
1
 90
3
176
1
 90
0
176
1
 90
0
176
1
290
0
176
1
 90
13
176
1
 40
0.0
176
1
 90
0
176
1
290
0
176
1
290
1
176
1
290
1
176
1
290
0
176
1
290
0
176
1
290
0
176
1
290
0
176
1
290
0
176
1
290
0
176
1
 90
50
176
1
 40
0.0
176
1
 40
1.0
176
1
 90
0
176
1
 62
18
420
0
176
1
 90
50
176
1
 90
3
176
1
 62
5
420
255
176
1
290
0
176
1
 90
50
176
1
 90
50
176
1
 90
50
176
1
290
0
176
1
 90
50
176
1
 62
256
176
0
 40
1.0
176
0
 90
2
176
1
  1
strokes_ogs.tif
176
1
290
0
176
1
 40
1.0
176
1
 40
1.0
176
1
  0
DICTIONARYVAR
  5
7EF
102
{ACAD_REACTORS
330
7EE
102
}
330
7EE
100
DictionaryVariables
280
0
  1
1:1
  0
DICTIONARYVAR
  5
7F4
102
{ACAD_REACTORS
330
7EE
102
}
330
7EE
100
DictionaryVariables
280
0
  1
Standard
  0
DICTIONARYVAR
  5
7F3
102
{ACAD_REACTORS
330
7EE
102
}
330
7EE
100
DictionaryVariables
280
0
  1
Standard
  0
DICTIONARYVAR
  5
7F5
102
{ACAD_REACTORS
330
7EE
102
}
330
7EE
100
DictionaryVariables
280
0
  1
0
  0
DICTIONARY
  5
7F0
330
7EB
100
AcDbDictionary
280
1
281
1
  3
ACAD_ROUNDTRIP_2008_TABLESTYLE_CELLSTYLEMAP
360
7F1
  0
CELLSTYLEMAP
  5
7F1
102
{ACAD_REACTORS
330
7F0
102
}
330
7F0
100
AcDbCellStyleMap
 90
3
300
CELLSTYLE
  1
TABLEFORMAT_BEGIN
 90
5
170
1
 91
0
 92
32768
 62
257
 93
1
300
CONTENTFORMAT
  1
CONTENTFORMAT_BEGIN
 90
0
 91
0
 92
4
 93
0
300

 40
0.0
140
1.0
 94
5
 62
0
340
11
144
6.0
309
CONTENTFORMAT_END
171
1
301
MARGIN
  1
CELLMARGIN_BEGIN
 40
1.5
 40
1.5
 40
1.5
 40
1.5
 40
1.5
 40
1.5
309
CELLMARGIN_END
 94
6
 95
1
302
GRIDFORMAT
  1
GRIDFORMAT_BEGIN
 90
0
 91
1
 62
0
 92
-2
340
14
 93
0
 40
0.045
309
GRIDFORMAT_END
 95
2
302
GRIDFORMAT
  1
GRIDFORMAT_BEGIN
 90
0
 91
1
 62
0
 92
-2
340
14
 93
0
 40
0.045
309
GRIDFORMAT_END
 95
4
302
GRIDFORMAT
  1
GRIDFORMAT_BEGIN
 90
0
 91
1
 62
0
 92
-2
340
14
 93
0
 40
0.045
309
GRIDFORMAT_END
 95
8
302
GRIDFORMAT
  1
GRIDFORMAT_BEGIN
 90
0
 91
1
 62
0
 92
-2
340
14
 93
0
 40
0.045
309
GRIDFORMAT_END
 95
16
302
GRIDFORMAT
  1
GRIDFORMAT_BEGIN
 90
0
 91
1
 62
0
 92
-2
340
14
 93
0
 40
0.045
309
GRIDFORMAT_END
 95
32
302
GRIDFORMAT
  1
GRIDFORMAT_BEGIN
 90
0
 91
1
 62
0
 92
-2
340
14
 93
0
 40
0.045
309
GRIDFORMAT_END
309
TABLEFORMAT_END
  1
CELLSTYLE_BEGIN
 90
1
 91
1
300
_TITLE
309
CELLSTYLE_END
300
CELLSTYLE
  1
TABLEFORMAT_BEGIN
 90
5
170
1
 91
0
 92
0
 62
257
 93
1
300
CONTENTFORMAT
  1
CONTENTFORMAT_BEGIN
 90
0
 91
0
 92
4
 93
0
300

 40
0.0
140
1.0
 94
5
 62
0
340
11
144
4.5
309
CONTENTFORMAT_END
171
1
301
MARGIN
  1
CELLMARGIN_BEGIN
 40
1.5
 40
1.5
 40
1.5
 40
1.5
 40
1.5
 40
1.5
309
CELLMARGIN_END
 94
6
 95
1
302
GRIDFORMAT
  1
GRIDFORMAT_BEGIN
 90
0
 91
1
 62
0
 92
-2
340
14
 93
0
 40
0.045
309
GRIDFORMAT_END
 95
2
302
GRIDFORMAT
  1
GRIDFORMAT_BEGIN
 90
0
 91
1
 62
0
 92
-2
340
14
 93
0
 40
0.045
309
GRIDFORMAT_END
 95
4
302
GRIDFORMAT
  1
GRIDFORMAT_BEGIN
 90
0
 91
1
 62
0
 92
-2
340
14
 93
0
 40
0.045
309
GRIDFORMAT_END
 95
8
302
GRIDFORMAT
  1
GRIDFORMAT_BEGIN
 90
0
 91
1
 62
0
 92
-2
340
14
 93
0
 40
0.045
309
GRIDFORMAT_END
 95
16
302
GRIDFORMAT
  1
GRIDFORMAT_BEGIN
 90
0
 91
1
 62
0
 92
-2
340
14
 93
0
 40
0.045
309
GRIDFORMAT_END
 95
32
302
GRIDFORMAT
  1
GRIDFORMAT_BEGIN
 90
0
 91
1
 62
0
 92
-2
340
14
 93
0
 40
0.045
309
GRIDFORMAT_END
309
TABLEFORMAT_END
  1
CELLSTYLE_BEGIN
 90
2
 91
1
300
_HEADER
309
CELLSTYLE_END
300
CELLSTYLE
  1
TABLEFORMAT_BEGIN
 90
5
170
1
 91
0
 92
0
 62
257
 93
1
300
CONTENTFORMAT
  1
CONTENTFORMAT_BEGIN
 90
0
 91
0
 92
4
 93
0
300

 40
0.0
140
1.0
 94
2
 62
0
340
11
144
4.5
309
CONTENTFORMAT_END
171
1
301
MARGIN
  1
CELLMARGIN_BEGIN
 40
1.5
 40
1.5
 40
1.5
 40
1.5
 40
1.5
 40
1.5
309
CELLMARGIN_END
 94
6
 95
1
302
GRIDFORMAT
  1
GRIDFORMAT_BEGIN
 90
0
 91
1
 62
0
 92
-2
340
14
 93
0
 40
0.045
309
GRIDFORMAT_END
 95
2
302
GRIDFORMAT
  1
GRIDFORMAT_BEGIN
 90
0
 91
1
 62
0
 92
-2
340
14
 93
0
 40
0.045
309
GRIDFORMAT_END
 95
4
302
GRIDFORMAT
  1
GRIDFORMAT_BEGIN
 90
0
 91
1
 62
0
 92
-2
340
14
 93
0
 40
0.045
309
GRIDFORMAT_END
 95
8
302
GRIDFORMAT
  1
GRIDFORMAT_BEGIN
 90
0
 91
1
 62
0
 92
-2
340
14
 93
0
 40
0.045
309
GRIDFORMAT_END
 95
16
302
GRIDFORMAT
  1
GRIDFORMAT_BEGIN
 90
0
 91
1
 62
0
 92
-2
340
14
 93
0
 40
0.045
309
GRIDFORMAT_END
 95
32
302
GRIDFORMAT
  1
GRIDFORMAT_BEGIN
 90
0
 91
1
 62
0
 92
-2
340
14
 93
0
 40
0.045
309
GRIDFORMAT_END
309
TABLEFORMAT_END
  1
CELLSTYLE_BEGIN
 90
3
 91
2
300
_DATA
309
CELLSTYLE_END
  0
DICTIONARY
  5
7F8
330
C
100
AcDbDictionary
281
1
  0
DICTIONARY
  5
7FD
330
C
100
AcDbDictionary
280
1
281
1
  3
WRITTEN_BY_EZDXF
350
7FE
  0
DICTIONARYVAR
  5
7FE
330
7FD
100
DictionaryVariables
280
0
  1
1.4.3 @ 2025-12-17T10:21:11.079931+00:00
  0
ENDSEC
  0
EOF
