  0
SECTION
  2
HEADER
  9
$ACADVER
  1
AC1032
  9
$ACADMAINTVER
 90
4
  9
$DWGCODEPAGE
  3
ANSI_1252
  9
$LASTSAVEDBY
  1
cipulot
  9
$REQUIREDVERSIONS
160
0
  9
$INSBASE
 10
0.0
 20
0.0
 30
0.0
  9
$EXTMIN
 10
1e+20
 20
1e+20
 30
1e+20
  9
$EXTMAX
 10
-1e+20
 20
-1e+20
 30
-1e+20
  9
$LIMMIN
 10
0.0
 20
0.0
  9
$LIMMAX
 10
12.0
 20
9.0
  9
$ORTHOMODE
 70
0
  9
$REGENMODE
 70
1
  9
$FILLMODE
 70
1
  9
$QTEXTMODE
 70
0
  9
$MIRRTEXT
 70
1
  9
$LTSCALE
 40
1.0
  9
$ATTMODE
 70
1
  9
$TEXTSIZE
 40
0.2
  9
$TRACEWID
 40
0.05
  9
$TEXTSTYLE
  7
Standard
  9
$CLAYER
  8
0
  9
$CELTYPE
  6
ByBlock
  9
$CECOLOR
 62
256
  9
$CELTSCALE
 40
1.0
  9
$DISPSILH
 70
0
  9
$DIMSCALE
 40
1.0
  9
$DIMASZ
 40
0.18
  9
$DIMEXO
 40
0.0625
  9
$DIMDLI
 40
0.38
  9
$DIMRND
 40
0.0
  9
$DIMDLE
 40
0.0
  9
$DIMEXE
 40
0.18
  9
$DIMTP
 40
0.0
  9
$DIMTM
 40
0.0
  9
$DIMTXT
 40
0.18
  9
$DIMCEN
 40
0.09
  9
$DIMTSZ
 40
0.0
  9
$DIMTOL
 70
0
  9
$DIMLIM
 70
0
  9
$DIMTIH
 70
1
  9
$DIMTOH
 70
1
  9
$DIMSE1
 70
0
  9
$DIMSE2
 70
0
  9
$DIMTAD
 70
0
  9
$DIMZIN
 70
0
  9
$DIMBLK
  1

  9
$DIMASO
 70
1
  9
$DIMSHO
 70
1
  9
$DIMPOST
  1

  9
$DIMAPOST
  1

  9
$DIMALT
 70
0
  9
$DIMALTD
 70
2
  9
$DIMALTF
 40
25.4
  9
$DIMLFAC
 40
1.0
  9
$DIMTOFL
 70
0
  9
$DIMTVP
 40
0.0
  9
$DIMTIX
 70
0
  9
$DIMSOXD
 70
0
  9
$DIMSAH
 70
0
  9
$DIMBLK1
  1

  9
$DIMBLK2
  1

  9
$DIMSTYLE
  2
ISO-25
  9
$DIMCLRD
 70
0
  9
$DIMCLRE
 70
0
  9
$DIMCLRT
 70
0
  9
$DIMTFAC
 40
1.0
  9
$DIMGAP
 40
0.09
  9
$DIMJUST
 70
0
  9
$DIMSD1
 70
0
  9
$DIMSD2
 70
0
  9
$DIMTOLJ
 70
1
  9
$DIMTZIN
 70
0
  9
$DIMALTZ
 70
0
  9
$DIMALTTZ
 70
0
  9
$DIMUPT
 70
0
  9
$DIMDEC
 70
4
  9
$DIMTDEC
 70
4
  9
$DIMALTU
 70
2
  9
$DIMALTTD
 70
2
  9
$DIMTXSTY
  7
Standard
  9
$DIMAUNIT
 70
0
  9
$DIMADEC
 70
0
  9
$DIMALTRND
 40
0.0
  9
$DIMAZIN
 70
0
  9
$DIMDSEP
 70
46
  9
$DIMATFIT
 70
3
  9
$DIMFRAC
 70
0
  9
$DIMLDRBLK
  1

  9
$DIMLUNIT
 70
2
  9
$DIMLWD
 70
-2
  9
$DIMLWE
 70
-2
  9
$DIMTMOVE
 70
2
  9
$DIMFXL
 40
1.0
  9
$DIMFXLON
 70
0
  9
$DIMJOGANG
 40
0.7853981633974483
  9
$DIMTFILL
 70
0
  9
$DIMTFILLCLR
 70
0
  9
$DIMARCSYM
 70
0
  9
$DIMLTYPE
  6

  9
$DIMLTEX1
  6

  9
$DIMLTEX2
  6

  9
$DIMTXTDIRECTION
 70
0
  9
$LUNITS
 70
2
  9
$LUPREC
 70
4
  9
$SKETCHINC
 40
0.1
  9
$FILLETRAD
 40
0.0
  9
$AUNITS
 70
0
  9
$AUPREC
 70
0
  9
$MENU
  1
.
  9
$ELEVATION
 40
0.0
  9
$PELEVATION
 40
0.0
  9
$THICKNESS
 40
0.0
  9
$LIMCHECK
 70
0
  9
$CHAMFERA
 40
0.0
  9
$CHAMFERB
 40
0.0
  9
$CHAMFERC
 40
0.0
  9
$CHAMFERD
 40
0.0
  9
$SKPOLY
 70
0
  9
$TDCREATE
 40
2461027.4730439815
  9
$TDUCREATE
 40
2461027.430992118
  9
$TDUPDATE
 40
2461027.4730439815
  9
$TDUUPDATE
 40
2461027.430992199
  9
$TDINDWG
 40
1.16e-08
  9
$TDUSRTIMER
 40
1.16e-08
  9
$USRTIMER
 70
1
  9
$ANGBASE
 50
0.0
  9
$ANGDIR
 70
1
  9
$PDMODE
 70
0
  9
$PDSIZE
 40
0.0
  9
$PLINEWID
 40
0.0
  9
$SPLFRAME
 70
0
  9
$SPLINETYPE
 70
6
  9
$SPLINESEGS
 70
8
  9
$HANDSEED
  5
804
  9
$SURFTAB1
 70
6
  9
$SURFTAB2
 70
6
  9
$SURFTYPE
 70
6
  9
$SURFU
 70
6
  9
$SURFV
 70
6
  9
$UCSBASE
  2

  9
$UCSNAME
  2

  9
$UCSORG
 10
0.0
 20
0.0
 30
0.0
  9
$UCSXDIR
 10
1.0
 20
0.0
 30
0.0
  9
$UCSYDIR
 10
0.0
 20
1.0
 30
0.0
  9
$UCSORTHOREF
  2

  9
$UCSORTHOVIEW
 70
0
  9
$UCSORGTOP
 10
0.0
 20
0.0
 30
0.0
  9
$UCSORGBOTTOM
 10
0.0
 20
0.0
 30
0.0
  9
$UCSORGLEFT
 10
0.0
 20
0.0
 30
0.0
  9
$UCSORGRIGHT
 10
0.0
 20
0.0
 30
0.0
  9
$UCSORGFRONT
 10
0.0
 20
0.0
 30
0.0
  9
$UCSORGBACK
 10
0.0
 20
0.0
 30
0.0
  9
$PUCSBASE
  2

  9
$PUCSNAME
  2

  9
$PUCSORG
 10
0.0
 20
0.0
 30
0.0
  9
$PUCSXDIR
 10
1.0
 20
0.0
 30
0.0
  9
$PUCSYDIR
 10
0.0
 20
1.0
 30
0.0
  9
$PUCSORTHOREF
  2

  9
$PUCSORTHOVIEW
 70
0
  9
$PUCSORGTOP
 10
0.0
 20
0.0
 30
0.0
  9
$PUCSORGBOTTOM
 10
0.0
 20
0.0
 30
0.0
  9
$PUCSORGLEFT
 10
0.0
 20
0.0
 30
0.0
  9
$PUCSORGRIGHT
 10
0.0
 20
0.0
 30
0.0
  9
$PUCSORGFRONT
 10
0.0
 20
0.0
 30
0.0
  9
$PUCSORGBACK
 10
0.0
 20
0.0
 30
0.0
  9
$USERI1
 70
0
  9
$USERI2
 70
0
  9
$USERI3
 70
0
  9
$USERI4
 70
0
  9
$USERI5
 70
0
  9
$USERR1
 40
0.0
  9
$USERR2
 40
0.0
  9
$USERR3
 40
0.0
  9
$USERR4
 40
0.0
  9
$USERR5
 40
0.0
  9
$WORLDVIEW
 70
1
  9
$SHADEDGE
 70
3
  9
$SHADEDIF
 70
70
  9
$TILEMODE
 70
1
  9
$MAXACTVP
 70
64
  9
$PINSBASE
 10
0.0
 20
0.0
 30
0.0
  9
$PLIMCHECK
 70
0
  9
$PEXTMIN
 10
1e+20
 20
1e+20
 30
1e+20
  9
$PEXTMAX
 10
-1e+20
 20
-1e+20
 30
-1e+20
  9
$PLIMMIN
 10
0.0
 20
0.0
  9
$PLIMMAX
 10
12.0
 20
9.0
  9
$UNITMODE
 70
0
  9
$VISRETAIN
 70
1
  9
$PLINEGEN
 70
0
  9
$PSLTSCALE
 70
1
  9
$TREEDEPTH
 70
3020
  9
$CMLSTYLE
  2
Standard
  9
$CMLJUST
 70
0
  9
$CMLSCALE
 40
1.0
  9
$PROXYGRAPHICS
 70
1
  9
$MEASUREMENT
 70
1
  9
$CELWEIGHT
370
-1
  9
$ENDCAPS
280
0
  9
$JOINSTYLE
280
0
  9
$LWDISPLAY
290
0
  9
$INSUNITS
 70
4
  9
$HYPERLINKBASE
  1

  9
$STYLESHEET
  1

  9
$XEDIT
290
1
  9
$CEPSNTYPE
380
0
  9
$PSTYLEMODE
290
1
  9
$FINGERPRINTGUID
  2
{e45ffc2e-81f3-f74f-ba5c-4da781df5df5}
  9
$VERSIONGUID
  2
{702BB8DA-CE0D-4309-9ADB-9BA35F990C9B}
  9
$EXTNAMES
290
1
  9
$PSVPSCALE
 40
0.0
  9
$OLESTARTUP
290
0
  9
$SORTENTS
280
127
  9
$INDEXCTL
280
0
  9
$HIDETEXT
280
1
  9
$XCLIPFRAME
280
2
  9
$HALOGAP
280
0
  9
$OBSCOLOR
 70
257
  9
$OBSLTYPE
280
0
  9
$INTERSECTIONDISPLAY
280
0
  9
$INTERSECTIONCOLOR
 70
257
  9
$DIMASSOC
280
2
  9
$PROJECTNAME
  1

  9
$CAMERADISPLAY
290
0
  9
$LENSLENGTH
 40
50.0
  9
$CAMERAHEIGHT
 40
0.0
  9
$STEPSPERSEC
 40
2.0
  9
$STEPSIZE
 40
6.0
  9
$3DDWFPREC
 40
2.0
  9
$PSOLWIDTH
 40
0.25
  9
$PSOLHEIGHT
 40
4.0
  9
$LOFTANG1
 40
1.570796326794897
  9
$LOFTANG2
 40
1.570796326794897
  9
$LOFTMAG1
 40
0.0
  9
$LOFTMAG2
 40
0.0
  9
$LOFTPARAM
 70
7
  9
$LOFTNORMALS
280
1
  9
$LATITUDE
 40
37.795
  9
$LONGITUDE
 40
-122.394
  9
$NORTHDIRECTION
 40
0.0
  9
$TIMEZONE
 70
-8000
  9
$LIGHTGLYPHDISPLAY
280
1
  9
$TILEMODELIGHTSYNCH
280
1
  9
$CMATERIAL
347
794
  9
$SOLIDHIST
280
0
  9
$SHOWHIST
280
1
  9
$DWFFRAME
280
2
  9
$DGNFRAME
280
2
  9
$REALWORLDSCALE
290
1
  9
$INTERFERECOLOR
 62
256
  9
$CSHADOW
280
0
  9
$SHADOWPLANELOCATION
 40
0.0
  0
ENDSEC
  0
SECTION
  2
CLASSES
  0
CLASS
  1
ACDBDICTIONARYWDFLT
  2
AcDbDictionaryWithDefault
  3
ObjectDBX Classes
 90
0
 91
3
280
0
281
0
  0
CLASS
  1
SCALE
  2
AcDbScale
  3
ObjectDBX Classes
 90
1153
 91
3
280
0
281
0
  0
CLASS
  1
VISUALSTYLE
  2
AcDbVisualStyle
  3
ObjectDBX Classes
 90
4095
 91
3
280
0
281
0
  0
CLASS
  1
MATERIAL
  2
AcDbMaterial
  3
ObjectDBX Classes
 90
1153
 91
3
280
0
281
0
  0
CLASS
  1
TABLESTYLE
  2
AcDbTableStyle
  3
ObjectDBX Classes
 90
4095
 91
3
280
0
281
0
  0
CLASS
  1
MLEADERSTYLE
  2
AcDbMLeaderStyle
  3
ACDB_MLEADERSTYLE_CLASS
 90
4095
 91
3
280
0
281
0
  0
CLASS
  1
DICTIONARYVAR
  2
AcDbDictionaryVar
  3
ObjectDBX Classes
 90
0
 91
3
280
0
281
0
  0
CLASS
  1
CELLSTYLEMAP
  2
AcDbCellStyleMap
  3
ObjectDBX Classes
 90
1152
 91
3
280
0
281
0
  0
CLASS
  1
SUN
  2
AcDbSun
  3
SCENEOE
 90
1153
 91
0
280
0
281
0
  0
CLASS
  1
MENTALRAYRENDERSETTINGS
  2
AcDbMentalRayRenderSettings
  3
SCENEOE
 90
1024
 91
0
280
0
281
0
  0
CLASS
  1
ACDBDETAILVIEWSTYLE
  2
AcDbDetailViewStyle
  3
ObjectDBX Classes
 90
1025
 91
0
280
0
281
0
  0
CLASS
  1
ACDBSECTIONVIEWSTYLE
  2
AcDbSectionViewStyle
  3
ObjectDBX Classes
 90
1025
 91
0
280
0
281
0
  0
CLASS
  1
RASTERVARIABLES
  2
AcDbRasterVariables
  3
ISM
 90
0
 91
0
280
0
281
0
  0
CLASS
  1
ACDBPLACEHOLDER
  2
AcDbPlaceHolder
  3
ObjectDBX Classes
 90
0
 91
0
280
0
281
0
  0
CLASS
  1
LAYOUT
  2
AcDbLayout
  3
ObjectDBX Classes
 90
0
 91
0
280
0
281
0
  0
ENDSEC
  0
SECTION
  2
TABLES
  0
TABLE
  2
VPORT
  5
8
330
0
100
AcDbSymbolTable
 70
1
  0
VPORT
  5
442
330
8
100
AcDbSymbolTableRecord
100
AcDbViewportTableRecord
  2
*Active
 70
0
 10
0.0
 20
0.0
 11
1.0
 21
1.0
 12
344.1869158878504
 22
148.5
 13
0.0
 23
0.0
 14
10.0
 24
10.0
 15
10.0
 25
10.0
 16
0.0
 26
0.0
 36
1.0
 17
0.0
 27
0.0
 37
0.0
 40
297.0
 41
1.972972972850329
 42
50.0
 43
0.0
 44
0.0
 50
0.0
 51
0.0
 71
0
 72
100
 73
1
 74
3
 75
0
 76
0
 77
0
 78
0
281
0
 65
1
110
0.0
120
0.0
130
0.0
111
1.0
121
0.0
131
0.0
112
0.0
122
1.0
132
0.0
 79
0
146
0.0
 60
3
 61
5
348
77F
292
1
282
1
141
0.0
142
0.0
 63
250
  0
ENDTAB
  0
TABLE
  2
LTYPE
  5
5
330
0
100
AcDbSymbolTable
 70
6
  0
LTYPE
  5
14
330
5
100
AcDbSymbolTableRecord
100
AcDbLinetypeTableRecord
  2
ByBlock
 70
0
  3

 72
65
 73
0
 40
0.0
  0
LTYPE
  5
15
330
5
100
AcDbSymbolTableRecord
100
AcDbLinetypeTableRecord
  2
ByLayer
 70
0
  3

 72
65
 73
0
 40
0.0
  0
LTYPE
  5
16
330
5
100
AcDbSymbolTableRecord
100
AcDbLinetypeTableRecord
  2
CONTINUOUS
 70
0
  3
Solid line
 72
65
 73
0
 40
0.0
  0
LTYPE
  5
410
330
5
100
AcDbSymbolTableRecord
100
AcDbLinetypeTableRecord
  2
DASHDOT
 70
0
  3
Dash Dot ____ _ ____ _
 72
65
 73
4
 40
2.0
 49
1.25
 74
0
 49
-0.25
 74
0
 49
0.25
 74
0
 49
-0.25
 74
0
  0
LTYPE
  5
411
330
5
100
AcDbSymbolTableRecord
100
AcDbLinetypeTableRecord
  2
DASHED
 70
0
  3
Dashed __ __ __ __ __
 72
65
 73
2
 40
0.75
 49
0.5
 74
0
 49
-0.25
 74
0
  0
LTYPE
  5
43B
330
5
100
AcDbSymbolTableRecord
100
AcDbLinetypeTableRecord
  2
DOTTED
 70
0
  3
Dotted .  .  .  .
 72
65
 73
2
 40
0.2
 49
0.0
 74
0
 49
-0.2
 74
0
  0
ENDTAB
  0
TABLE
  2
LAYER
  5
2
330
0
100
AcDbSymbolTable
 70
3
  0
LAYER
  5
10
330
2
100
AcDbSymbolTableRecord
100
AcDbLayerTableRecord
  2
0
 70
0
 62
7
  6
CONTINUOUS
370
-3
390
F
347
796
348
0
  0
LAYER
  5
440
330
2
100
AcDbSymbolTableRecord
100
AcDbLayerTableRecord
  2
BLACK
 70
0
 62
7
  6
CONTINUOUS
370
-3
390
F
347
796
348
0
  0
LAYER
  5
7A6
330
2
100
AcDbSymbolTableRecord
100
AcDbLayerTableRecord
  2
Defpoints
 70
0
 62
7
  6
Continuous
290
0
370
-3
390
F
347
796
  0
ENDTAB
  0
TABLE
  2
STYLE
  5
3
330
0
100
AcDbSymbolTable
 70
5
  0
STYLE
  5
11
330
3
100
AcDbSymbolTableRecord
100
AcDbTextStyleTableRecord
  2
Standard
 70
0
 40
0.0
 41
1.0
 50
0.0
 71
0
 42
0.2
  3
txt
  4

  0
STYLE
  5
43C
330
3
100
AcDbSymbolTableRecord
100
AcDbTextStyleTableRecord
  2
KICAD
 70
0
 40
0.0
 41
1.0
 50
0.0
 71
0
 42
1.0
  3
isocp.shx
  4

  0
STYLE
  5
43D
330
3
100
AcDbSymbolTableRecord
100
AcDbTextStyleTableRecord
  2
KICADB
 70
0
 40
0.0
 41
1.0
 50
0.0
 71
0
 42
1.0
  3
isocp.shx
  4

  0
STYLE
  5
43E
330
3
100
AcDbSymbolTableRecord
100
AcDbTextStyleTableRecord
  2
KICADI
 70
0
 40
0.0
 41
1.0
 50
15.0
 71
0
 42
1.0
  3
isocp.shx
  4

  0
STYLE
  5
43F
330
3
100
AcDbSymbolTableRecord
100
AcDbTextStyleTableRecord
  2
KICADBI
 70
0
 40
0.0
 41
1.0
 50
15.0
 71
0
 42
1.0
  3
isocp.shx
  4

  0
ENDTAB
  0
TABLE
  2
VIEW
  5
6
330
0
100
AcDbSymbolTable
 70
0
  0
ENDTAB
  0
TABLE
  2
UCS
  5
7
330
0
100
AcDbSymbolTable
 70
0
  0
ENDTAB
  0
TABLE
  2
APPID
  5
9
330
0
100
AcDbSymbolTable
 70
3
  0
APPID
  5
12
330
9
100
AcDbSymbolTableRecord
100
AcDbRegAppTableRecord
  2
ACAD
 70
0
  0
APPID
  5
7A8
330
9
100
AcDbSymbolTableRecord
100
AcDbRegAppTableRecord
  2
HATCHBACKGROUNDCOLOR
 70
0
  0
APPID
  5
7A9
330
9
100
AcDbSymbolTableRecord
100
AcDbRegAppTableRecord
  2
EZDXF
 70
0
  0
ENDTAB
  0
TABLE
  2
DIMSTYLE
  5
A
330
0
100
AcDbSymbolTable
 70
2
100
AcDbDimStyleTable
  0
DIMSTYLE
105
441
330
A
100
AcDbSymbolTableRecord
100
AcDbDimStyleTableRecord
  2
ISO-25
 70
0
 40
1.0
 41
2.5
 42
0.625
 43
3.75
 44
1.25
 45
0.0
 46
0.0
 47
0.0
 48
0.0
 49
2.5
140
2.5
141
2.5
142
0.0
143
0.03937007874016
144
1.0
145
0.0
146
1.0
147
0.625
148
0.0
 69
0
 70
0
 71
0
 72
0
 73
0
 74
0
 75
0
 76
0
 77
1
 78
8
 79
3
170
0
171
3
172
1
173
0
174
0
175
0
176
0
177
0
178
0
179
2
271
2
272
2
273
2
274
3
275
0
276
0
277
2
278
44
279
0
280
0
281
0
282
0
283
0
284
8
285
0
286
0
288
0
289
3
290
0
340
11
371
-2
372
-2
  0
DIMSTYLE
105
7A7
330
A
100
AcDbSymbolTableRecord
100
AcDbDimStyleTableRecord
  2
Standard
 70
0
 40
1.0
 41
2.5
 42
0.625
 43
3.75
 44
1.25
 45
0.0
 46
0.0
 47
0.0
 48
0.0
 49
2.5
140
2.5
141
2.5
142
0.0
143
0.03937007874
144
1.0
145
0.0
146
1.0
147
0.625
148
0.0
 69
0
 70
0
 71
0
 72
0
 73
0
 74
0
 75
0
 76
0
 77
1
 78
8
 79
3
170
0
171
3
172
1
173
0
174
0
175
0
176
0
177
0
178
0
179
2
271
2
272
2
273
2
274
3
275
0
276
0
277
2
278
44
279
0
280
0
281
0
282
0
283
0
284
8
285
0
286
0
288
0
289
3
290
0
371
-2
372
-2
  0
ENDTAB
  0
TABLE
  2
BLOCK_RECORD
  5
1
330
0
100
AcDbSymbolTable
 70
2
  0
BLOCK_RECORD
  5
1D
330
1
100
AcDbSymbolTableRecord
100
AcDbBlockTableRecord
  2
*Model_Space
340
1E
 70
0
280
1
281
0
  0
BLOCK_RECORD
  5
1B
330
1
100
AcDbSymbolTableRecord
100
AcDbBlockTableRecord
  2
*Paper_Space
340
1C
 70
0
280
1
281
0
  0
ENDTAB
  0
ENDSEC
  0
SECTION
  2
BLOCKS
  0
BLOCK
  5
776
330
1D
100
AcDbEntity
  8
0
100
AcDbBlockBegin
  2
*Model_Space
 70
0
 10
0.0
 20
0.0
 30
0.0
  3
*Model_Space
  1

  0
ENDBLK
  5
777
330
1D
100
AcDbEntity
  8
0
100
AcDbBlockEnd
  0
BLOCK
  5
778
330
1B
100
AcDbEntity
 67
1
  8
0
100
AcDbBlockBegin
  2
*Paper_Space
 70
0
 10
0.0
 20
0.0
 30
0.0
  3
*Paper_Space
  1

  0
ENDBLK
  5
779
330
1B
100
AcDbEntity
 67
1
  8
0
100
AcDbBlockEnd
  0
ENDSEC
  0
SECTION
  2
ENTITIES
  0
LINE
  5
443
330
1D
100
AcDbEntity
  8
BLACK
  6
Continuous
100
AcDbLine
 10
-18.009952
 20
-68.067
 30
0.0
 11
-18.009991
 21
-68.067
 31
0.0
  0
LINE
  5
444
330
1D
100
AcDbEntity
  8
BLACK
  6
Continuous
100
AcDbLine
 10
135.611226
 20
-110.072696
 30
0.0
 11
135.611223
 21
-110.07271
 31
0.0
  0
LINE
  5
445
330
1D
100
AcDbEntity
  8
BLACK
  6
Continuous
100
AcDbLine
 10
22.736251
 20
-73.364999
 30
0.0
 11
22.736258
 21
-73.364999
 31
0.0
  0
LINE
  5
446
330
1D
100
AcDbEntity
  8
BLACK
  6
Continuous
100
AcDbLine
 10
60.83625799999999
 20
-54.314999
 30
0.0
 11
60.836211
 21
-54.314999
 31
0.0
  0
LINE
  5
447
330
1D
100
AcDbEntity
  8
BLACK
  6
Continuous
100
AcDbLine
 10
102.213166
 20
-40.17082
 30
0.0
 11
102.21315
 21
-40.170895
 31
0.0
  0
LINE
  5
448
330
1D
100
AcDbEntity
  8
BLACK
  6
Continuous
100
AcDbLine
 10
114.79315
 20
-3.890895
 30
0.0
 11
114.793166
 21
-3.89082
 31
0.0
  0
LINE
  5
449
330
1D
100
AcDbEntity
  8
BLACK
  6
Continuous
100
AcDbLine
 10
101.513166
 20
-20.54082
 30
0.0
 11
101.51315
 21
-20.540894
 31
0.0
  0
LINE
  5
44A
330
1D
100
AcDbEntity
  8
BLACK
  6
Continuous
100
AcDbLine
 10
55.476211
 20
-35.264999
 30
0.0
 11
55.47625799999999
 21
-35.264999
 31
0.0
  0
LINE
  5
44B
330
1D
100
AcDbEntity
  8
BLACK
  6
Continuous
100
AcDbLine
 10
107.563166
 20
-60.78082
 30
0.0
 11
107.56315
 21
-60.78089499999999
 31
0.0
  0
LINE
  5
44C
330
1D
100
AcDbEntity
  8
BLACK
  6
Continuous
100
AcDbLine
 10
159.113876
 20
-20.256583
 30
0.0
 11
159.113849
 21
-20.256589
 31
0.0
  0
LINE
  5
44D
330
1D
100
AcDbEntity
  8
BLACK
  6
Continuous
100
AcDbLine
 10
153.753849
 20
-40.866589
 30
0.0
 11
153.753876
 21
-40.866583
 31
0.0
  0
LINE
  5
44E
330
1D
100
AcDbEntity
  8
BLACK
  6
Continuous
100
AcDbLine
 10
162.373876
 20
-58.516583
 30
0.0
 11
162.373849
 21
-58.516589
 31
0.0
  0
LINE
  5
44F
330
1D
100
AcDbEntity
  8
BLACK
  6
Continuous
100
AcDbLine
 10
157.013849
 20
-79.126589
 30
0.0
 11
157.013876
 21
-79.126583
 31
0.0
  0
LINE
  5
450
330
1D
100
AcDbEntity
  8
BLACK
  6
Continuous
100
AcDbLine
 10
62.544503
 20
-86.639206
 30
0.0
 11
62.544503
 21
-86.639207
 31
0.0
  0
LINE
  5
451
330
1D
100
AcDbEntity
  8
BLACK
  6
Continuous
100
AcDbLine
 10
75.795515
 20
-75.040796
 30
0.0
 11
75.795515
 21
-75.040795
 31
0.0
  0
LINE
  5
452
330
1D
100
AcDbEntity
  8
BLACK
  6
Continuous
100
AcDbLine
 10
80.6382
 20
-49.99992
 30
0.0
 11
80.6382
 21
-49.999921
 31
0.0
  0
LINE
  5
453
330
1D
100
AcDbEntity
  8
BLACK
  6
Continuous
100
AcDbLine
 10
79.9382
 20
-30.36992
 30
0.0
 11
79.9382
 21
-30.369921
 31
0.0
  0
LINE
  5
454
330
1D
100
AcDbEntity
  8
BLACK
  6
Continuous
100
AcDbLine
 10
67.354503
 20
-66.64920599999999
 30
0.0
 11
67.354503
 21
-66.649207
 31
0.0
  0
LINE
  5
455
330
1D
100
AcDbEntity
  8
BLACK
  6
Continuous
100
AcDbLine
 10
80.605515
 20
-55.050796
 30
0.0
 11
80.605515
 21
-55.050795
 31
0.0
  0
LINE
  5
456
330
1D
100
AcDbEntity
  8
BLACK
  6
Continuous
100
AcDbLine
 10
61.304503
 20
-26.409206
 30
0.0
 11
61.304503
 21
-26.409207
 31
0.0
  0
LINE
  5
457
330
1D
100
AcDbEntity
  8
BLACK
  6
Continuous
100
AcDbLine
 10
74.555515
 20
-14.810796
 30
0.0
 11
74.555515
 21
-14.810795
 31
0.0
  0
LINE
  5
458
330
1D
100
AcDbEntity
  8
BLACK
  6
Continuous
100
AcDbLine
 10
143.736626
 20
-10.042944
 30
0.0
 11
143.736626
 21
-10.042943
 31
0.0
  0
LINE
  5
459
330
1D
100
AcDbEntity
  8
BLACK
  6
Continuous
100
AcDbLine
 10
133.41711
 20
-7.849515999999999
 30
0.0
 11
133.417121
 21
-7.849464999999999
 31
0.0
  0
LINE
  5
45A
330
1D
100
AcDbEntity
  8
BLACK
  6
Continuous
100
AcDbLine
 10
130.456626
 20
-26.692944
 30
0.0
 11
130.456626
 21
-26.692943
 31
0.0
  0
LINE
  5
45B
330
1D
100
AcDbEntity
  8
BLACK
  6
Continuous
100
AcDbLine
 10
120.13711
 20
-24.499516
 30
0.0
 11
120.137121
 21
-24.499465
 31
0.0
  0
LINE
  5
45C
330
1D
100
AcDbEntity
  8
BLACK
  6
Continuous
100
AcDbLine
 10
131.156626
 20
-46.322944
 30
0.0
 11
131.156626
 21
-46.322943
 31
0.0
  0
LINE
  5
45D
330
1D
100
AcDbEntity
  8
BLACK
  6
Continuous
100
AcDbLine
 10
120.83711
 20
-44.129516
 30
0.0
 11
120.837121
 21
-44.129465
 31
0.0
  0
LINE
  5
45E
330
1D
100
AcDbEntity
  8
BLACK
  6
Continuous
100
AcDbLine
 10
93.2182
 20
-13.71992
 30
0.0
 11
93.2182
 21
-13.719921
 31
0.0
  0
LINE
  5
45F
330
1D
100
AcDbEntity
  8
BLACK
  6
Continuous
100
AcDbLine
 10
62.004503
 20
-46.039206
 30
0.0
 11
62.004503
 21
-46.039207
 31
0.0
  0
LINE
  5
460
330
1D
100
AcDbEntity
  8
BLACK
  6
Continuous
100
AcDbLine
 10
75.255515
 20
-34.440796
 30
0.0
 11
75.255515
 21
-34.440795
 31
0.0
  0
LINE
  5
461
330
1D
100
AcDbEntity
  8
BLACK
  6
Continuous
100
AcDbLine
 10
65.98500899999999
 20
-7.049999
 30
0.0
 11
65.98500899999999
 21
-7.05
 31
0.0
  0
LINE
  5
462
330
1D
100
AcDbEntity
  8
BLACK
  6
Continuous
100
AcDbLine
 10
55.435009
 20
7.050001
 30
0.0
 11
55.435009
 21
7.05
 31
0.0
  0
LINE
  5
463
330
1D
100
AcDbEntity
  8
BLACK
  6
Continuous
100
AcDbLine
 10
74.584503
 20
-9.759205999999999
 30
0.0
 11
74.584503
 21
-9.759207
 31
0.0
  0
LINE
  5
464
330
1D
100
AcDbEntity
  8
BLACK
  6
Continuous
100
AcDbLine
 10
87.835515
 20
1.839204
 30
0.0
 11
87.835515
 21
1.839205
 31
0.0
  0
LINE
  5
465
330
1D
100
AcDbEntity
  8
BLACK
  6
Continuous
100
AcDbLine
 10
85.98819999999999
 20
-70.60992
 30
0.0
 11
85.98819999999999
 21
-70.609921
 31
0.0
  0
LINE
  5
466
330
1D
100
AcDbEntity
  8
BLACK
  6
Continuous
100
AcDbLine
 10
136.506626
 20
-66.93294399999999
 30
0.0
 11
136.506626
 21
-66.932943
 31
0.0
  0
LINE
  5
467
330
1D
100
AcDbEntity
  8
BLACK
  6
Continuous
100
AcDbLine
 10
126.196846
 20
-64.74161
 30
0.0
 11
126.196862
 21
-64.741535
 31
0.0
  0
LINE
  5
468
330
1D
100
AcDbEntity
  8
BLACK
  6
Continuous
100
AcDbLine
 10
265.575009
 20
-9.189999
 30
0.0
 11
265.575009
 21
-9.19
 31
0.0
  0
LINE
  5
469
330
1D
100
AcDbEntity
  8
BLACK
  6
Continuous
100
AcDbLine
 10
255.025009
 20
4.910000999999999
 30
0.0
 11
255.025009
 21
4.91
 31
0.0
  0
LINE
  5
46A
330
1D
100
AcDbEntity
  8
BLACK
  6
Continuous
100
AcDbLine
 10
217.72501
 20
-87.234431
 30
0.0
 11
217.724984
 21
-87.234436
 31
0.0
  0
LINE
  5
46B
330
1D
100
AcDbEntity
  8
BLACK
  6
Continuous
100
AcDbLine
 10
181.007587
 20
-54.55586599999999
 30
0.0
 11
181.007561
 21
-54.555871
 31
0.0
  0
LINE
  5
46C
330
1D
100
AcDbEntity
  8
BLACK
  6
Continuous
100
AcDbLine
 10
183.468617
 20
-56.154113
 30
0.0
 11
183.468617
 21
-56.154114
 31
0.0
  0
LINE
  5
46D
330
1D
100
AcDbEntity
  8
BLACK
  6
Continuous
100
AcDbLine
 10
209.49031
 20
-36.20803
 30
0.0
 11
209.49031
 21
-36.208029
 31
0.0
  0
LINE
  5
46E
330
1D
100
AcDbEntity
  8
BLACK
  6
Continuous
100
AcDbLine
 10
199.641299
 20
-50.59514799999999
 30
0.0
 11
199.641273
 21
-50.595153
 31
0.0
  0
LINE
  5
46F
330
1D
100
AcDbEntity
  8
BLACK
  6
Continuous
100
AcDbLine
 10
209.655011
 20
-28.98443
 30
0.0
 11
209.654985
 21
-28.984435
 31
0.0
  0
LINE
  5
470
330
1D
100
AcDbEntity
  8
BLACK
  6
Continuous
100
AcDbLine
 10
215.01501
 20
-8.374431
 30
0.0
 11
215.014984
 21
-8.374436
 31
0.0
  0
LINE
  5
471
330
1D
100
AcDbEntity
  8
BLACK
  6
Continuous
100
AcDbLine
 10
218.27501
 20
-46.634431
 30
0.0
 11
218.274985
 21
-46.634436
 31
0.0
  0
LINE
  5
472
330
1D
100
AcDbEntity
  8
BLACK
  6
Continuous
100
AcDbLine
 10
204.13031
 20
-56.81803
 30
0.0
 11
204.13031
 21
-56.818029
 31
0.0
  0
LINE
  5
473
330
1D
100
AcDbEntity
  8
BLACK
  6
Continuous
100
AcDbLine
 10
194.281299
 20
-71.205148
 30
0.0
 11
194.281273
 21
-71.205153
 31
0.0
  0
LINE
  5
474
330
1D
100
AcDbEntity
  8
BLACK
  6
Continuous
100
AcDbLine
 10
212.915011
 20
-67.244429
 30
0.0
 11
212.914984
 21
-67.244435
 31
0.0
  0
LINE
  5
475
330
1D
100
AcDbEntity
  8
BLACK
  6
Continuous
100
AcDbLine
 10
303.085009
 20
-28.239999
 30
0.0
 11
303.085009
 21
-28.24
 31
0.0
  0
LINE
  5
476
330
1D
100
AcDbEntity
  8
BLACK
  6
Continuous
100
AcDbLine
 10
292.535009
 20
-14.139999
 30
0.0
 11
292.535009
 21
-14.14
 31
0.0
  0
LINE
  5
477
330
1D
100
AcDbEntity
  8
BLACK
  6
Continuous
100
AcDbLine
 10
250.205009
 20
-47.28999899999999
 30
0.0
 11
250.205009
 21
-47.29
 31
0.0
  0
LINE
  5
478
330
1D
100
AcDbEntity
  8
BLACK
  6
Continuous
100
AcDbLine
 10
239.655009
 20
-33.189999
 30
0.0
 11
239.655009
 21
-33.19
 31
0.0
  0
LINE
  5
479
330
1D
100
AcDbEntity
  8
BLACK
  6
Continuous
100
AcDbLine
 10
246.945009
 20
-7.049999
 30
0.0
 11
246.945009
 21
-7.05
 31
0.0
  0
LINE
  5
47A
330
1D
100
AcDbEntity
  8
BLACK
  6
Continuous
100
AcDbLine
 10
236.395009
 20
7.050001
 30
0.0
 11
236.395009
 21
7.05
 31
0.0
  0
LINE
  5
47B
330
1D
100
AcDbEntity
  8
BLACK
  6
Continuous
100
AcDbLine
 10
172.387587
 20
-36.905866
 30
0.0
 11
172.387561
 21
-36.905871
 31
0.0
  0
LINE
  5
47C
330
1D
100
AcDbEntity
  8
BLACK
  6
Continuous
100
AcDbLine
 10
174.848617
 20
-38.504113
 30
0.0
 11
174.848617
 21
-38.504114
 31
0.0
  0
LINE
  5
47D
330
1D
100
AcDbEntity
  8
BLACK
  6
Continuous
100
AcDbLine
 10
175.647587
 20
-75.165866
 30
0.0
 11
175.647561
 21
-75.165871
 31
0.0
  0
LINE
  5
47E
330
1D
100
AcDbEntity
  8
BLACK
  6
Continuous
100
AcDbLine
 10
178.108617
 20
-76.764113
 30
0.0
 11
178.108617
 21
-76.76411399999999
 31
0.0
  0
LINE
  5
47F
330
1D
100
AcDbEntity
  8
BLACK
  6
Continuous
100
AcDbLine
 10
200.87031
 20
-18.55803
 30
0.0
 11
200.87031
 21
-18.558029
 31
0.0
  0
LINE
  5
480
330
1D
100
AcDbEntity
  8
BLACK
  6
Continuous
100
AcDbLine
 10
191.021299
 20
-32.945148
 30
0.0
 11
191.021273
 21
-32.945153
 31
0.0
  0
LINE
  5
481
330
1D
100
AcDbEntity
  8
BLACK
  6
Continuous
100
AcDbLine
 10
177.747587
 20
-16.295866
 30
0.0
 11
177.747561
 21
-16.295871
 31
0.0
  0
LINE
  5
482
330
1D
100
AcDbEntity
  8
BLACK
  6
Continuous
100
AcDbLine
 10
180.208617
 20
-17.894113
 30
0.0
 11
180.208617
 21
-17.894114
 31
0.0
  0
LINE
  5
483
330
1D
100
AcDbEntity
  8
BLACK
  6
Continuous
100
AcDbLine
 10
206.23031
 20
2.05197
 30
0.0
 11
206.23031
 21
2.051971
 31
0.0
  0
LINE
  5
484
330
1D
100
AcDbEntity
  8
BLACK
  6
Continuous
100
AcDbLine
 10
196.381299
 20
-12.335148
 30
0.0
 11
196.381273
 21
-12.335153
 31
0.0
  0
LINE
  5
485
330
1D
100
AcDbEntity
  8
BLACK
  6
Continuous
100
AcDbLine
 10
35.454126
 20
-52.934265
 30
0.0
 11
35.454106
 21
-52.93427399999999
 31
0.0
  0
LINE
  5
486
330
1D
100
AcDbEntity
  8
BLACK
  6
Continuous
100
AcDbLine
 10
168.421601
 20
-94.421694
 30
0.0
 11
168.421586
 21
-94.421697
 31
0.0
  0
CIRCLE
  5
487
330
1D
100
AcDbEntity
  8
BLACK
100
AcDbCircle
 10
-9.525
 20
0.0
 30
0.0
 40
1.000004
  0
ARC
  5
488
330
1D
100
AcDbEntity
  8
BLACK
100
AcDbCircle
 10
74.47000899999999
 20
-88.6118
 30
0.0
 40
0.4999684494545631
100
AcDbArc
 50
257.99992138
 51
348.00003347
  0
LINE
  5
489
330
1D
100
AcDbEntity
  8
BLACK
  6
Continuous
100
AcDbLine
 10
216.352676
 20
13.279999
 30
0.0
 11
216.352676
 21
11.294277
 31
0.0
  0
ARC
  5
48A
330
1D
100
AcDbEntity
  8
BLACK
100
AcDbCircle
 10
217.852809
 20
11.2802
 30
0.0
 40
1.5002
100
AcDbArc
 50
179.46236166
 51
270.0
  0
LINE
  5
48B
330
1D
100
AcDbEntity
  8
BLACK
  6
Continuous
100
AcDbLine
 10
217.852809
 20
9.78
 30
0.0
 11
252.889009
 21
9.78
 31
0.0
  0
ARC
  5
48C
330
1D
100
AcDbEntity
  8
BLACK
100
AcDbCircle
 10
252.889009
 20
11.28
 30
0.0
 40
1.5
100
AcDbArc
 50
270.0
 51
0.0
  0
LINE
  5
48D
330
1D
100
AcDbEntity
  8
BLACK
  6
Continuous
100
AcDbLine
 10
254.389009
 20
11.28
 30
0.0
 11
254.389009
 21
13.28
 31
0.0
  0
ARC
  5
48E
330
1D
100
AcDbEntity
  8
BLACK
100
AcDbCircle
 10
255.889009
 20
13.28
 30
0.0
 40
1.5
100
AcDbArc
 50
90.0
 51
180.0
  0
LINE
  5
48F
330
1D
100
AcDbEntity
  8
BLACK
  6
Continuous
100
AcDbLine
 10
255.889009
 20
14.78
 30
0.0
 11
303.888709
 21
14.78
 31
0.0
  0
ARC
  5
490
330
1D
100
AcDbEntity
  8
BLACK
100
AcDbCircle
 10
303.888609
 20
13.2798
 30
0.0
 40
1.500200003332889
100
AcDbArc
 50
359.5407727899999
 51
89.99618079
  0
LINE
  5
491
330
1D
100
AcDbEntity
  8
BLACK
  6
Continuous
100
AcDbLine
 10
305.388759
 20
13.267776
 30
0.0
 11
305.388759
 21
11.292347
 31
0.0
  0
ARC
  5
492
330
1D
100
AcDbEntity
  8
BLACK
100
AcDbCircle
 10
306.888909
 20
11.2802
 30
0.0
 40
1.5002
100
AcDbArc
 50
179.53607531
 51
270.0
  0
LINE
  5
493
330
1D
100
AcDbEntity
  8
BLACK
  6
Continuous
100
AcDbLine
 10
306.888909
 20
9.78
 30
0.0
 11
315.374509
 21
9.78
 31
0.0
  0
ARC
  5
494
330
1D
100
AcDbEntity
  8
BLACK
100
AcDbCircle
 10
315.374409
 20
8.7796
 30
0.0
 40
1.000400004998001
100
AcDbArc
 50
44.54585516
 51
89.99427271
  0
LINE
  5
495
330
1D
100
AcDbEntity
  8
BLACK
  6
Continuous
100
AcDbLine
 10
316.087391
 20
9.481368
 30
0.0
 11
320.495884
 21
5.072875
 31
0.0
  0
ARC
  5
496
330
1D
100
AcDbEntity
  8
BLACK
100
AcDbCircle
 10
319.788809
 20
4.3658
 30
0.0
 40
0.9999550546149563
100
AcDbArc
 50
0.0
 51
45.0
  0
LINE
  5
497
330
1D
100
AcDbEntity
  8
BLACK
  6
Continuous
100
AcDbLine
 10
320.788759
 20
4.3658
 30
0.0
 11
320.788759
 21
-82.7538
 31
0.0
  0
ARC
  5
498
330
1D
100
AcDbEntity
  8
BLACK
100
AcDbCircle
 10
319.788809
 20
-82.7538
 30
0.0
 40
0.99995
100
AcDbArc
 50
314.99870349
 51
0.0
  0
LINE
  5
499
330
1D
100
AcDbEntity
  8
BLACK
  6
Continuous
100
AcDbLine
 10
320.495868
 20
-83.46089099999999
 30
0.0
 11
316.081634
 21
-87.875125
 31
0.0
  0
ARC
  5
49A
330
1D
100
AcDbEntity
  8
BLACK
100
AcDbCircle
 10
315.374609
 20
-87.1681
 30
0.0
 40
0.9998843439368376
100
AcDbArc
 50
269.99656191
 51
315.0
  0
LINE
  5
49B
330
1D
100
AcDbEntity
  8
BLACK
  6
Continuous
100
AcDbLine
 10
315.374549
 20
-88.16799999999999
 30
0.0
 11
306.88876
 21
-88.16799999999999
 31
0.0
  0
ARC
  5
49C
330
1D
100
AcDbEntity
  8
BLACK
100
AcDbCircle
 10
306.888709
 20
-89.66799999999999
 30
0.0
 40
1.49995
100
AcDbArc
 50
89.99805194
 51
180.0
  0
LINE
  5
49D
330
1D
100
AcDbEntity
  8
BLACK
  6
Continuous
100
AcDbLine
 10
305.388759
 20
-89.66799999999999
 30
0.0
 11
305.388759
 21
-91.61999999999999
 31
0.0
  0
ARC
  5
49E
330
1D
100
AcDbEntity
  8
BLACK
100
AcDbCircle
 10
303.888809
 20
-91.61999999999999
 30
0.0
 40
1.49995
100
AcDbArc
 50
269.99805194
 51
0.0
  0
LINE
  5
49F
330
1D
100
AcDbEntity
  8
BLACK
  6
Continuous
100
AcDbLine
 10
303.888758
 20
-93.11999999999999
 30
0.0
 11
255.889009
 21
-93.11999999999999
 31
0.0
  0
ARC
  5
4A0
330
1D
100
AcDbEntity
  8
BLACK
100
AcDbCircle
 10
255.889009
 20
-91.61999999999999
 30
0.0
 40
1.5
100
AcDbArc
 50
180.0
 51
270.0
  0
LINE
  5
4A1
330
1D
100
AcDbEntity
  8
BLACK
  6
Continuous
100
AcDbLine
 10
254.389009
 20
-91.61999999999999
 30
0.0
 11
254.389009
 21
-89.66799999999999
 31
0.0
  0
ARC
  5
4A2
330
1D
100
AcDbEntity
  8
BLACK
100
AcDbCircle
 10
252.889009
 20
-89.66799999999999
 30
0.0
 40
1.5
100
AcDbArc
 50
0.0
 51
90.0
  0
LINE
  5
4A3
330
1D
100
AcDbEntity
  8
BLACK
  6
Continuous
100
AcDbLine
 10
252.889009
 20
-88.16799999999999
 30
0.0
 11
246.199209
 21
-88.16799999999999
 31
0.0
  0
ARC
  5
4A4
330
1D
100
AcDbEntity
  8
BLACK
100
AcDbCircle
 10
246.199209
 20
-93.1683
 30
0.0
 40
5.000295023672303
100
AcDbArc
 50
90.0
 51
101.99975642
  0
LINE
  5
4A5
330
1D
100
AcDbEntity
  8
BLACK
  6
Continuous
100
AcDbLine
 10
245.15961
 20
-88.27726899999999
 30
0.0
 11
215.288542
 21
-94.626561
 31
0.0
  0
ARC
  5
4A6
330
1D
100
AcDbEntity
  8
BLACK
100
AcDbCircle
 10
215.600409
 20
-96.0938
 30
0.0
 40
1.499997539881316
100
AcDbArc
 50
101.9998402
 51
191.99999903
  0
LINE
  5
4A7
330
1D
100
AcDbEntity
  8
BLACK
  6
Continuous
100
AcDbLine
 10
214.13319
 20
-96.405667
 30
0.0
 11
214.549074
 21
-98.36224399999999
 31
0.0
  0
ARC
  5
4A8
330
1D
100
AcDbEntity
  8
BLACK
100
AcDbCircle
 10
213.081909
 20
-98.6741
 30
0.0
 40
1.499942432882342
100
AcDbArc
 50
281.99780071
 51
12.0000169
  0
LINE
  5
4A9
330
1D
100
AcDbEntity
  8
BLACK
  6
Continuous
100
AcDbLine
 10
213.393711
 20
-100.14129
 30
0.0
 11
166.442701
 21
-110.121036
 31
0.0
  0
ARC
  5
4AA
330
1D
100
AcDbEntity
  8
BLACK
100
AcDbCircle
 10
166.130809
 20
-108.6537
 30
0.0
 40
1.500117180942875
100
AcDbArc
 50
192.00411727
 51
282.00000392
  0
LINE
  5
4AB
330
1D
100
AcDbEntity
  8
BLACK
  6
Continuous
100
AcDbLine
 10
164.663537
 20
-108.965697
 30
0.0
 11
164.245606
 21
-106.99949
 31
0.0
  0
ARC
  5
4AC
330
1D
100
AcDbEntity
  8
BLACK
100
AcDbCircle
 10
162.780409
 20
-107.3211
 30
0.0
 40
1.500079326188119
100
AcDbArc
 50
12.38006266
 51
101.99999886
  0
LINE
  5
4AD
330
1D
100
AcDbEntity
  8
BLACK
  6
Continuous
100
AcDbLine
 10
162.468525
 20
-105.853801
 30
0.0
 11
152.179567
 21
-108.040787
 31
0.0
  0
ARC
  5
4AE
330
1D
100
AcDbEntity
  8
BLACK
100
AcDbCircle
 10
151.140009
 20
-103.1501
 30
0.0
 40
4.999947082041968
100
AcDbArc
 50
258.00000043
 51
282.00012357
  0
LINE
  5
4AF
330
1D
100
AcDbEntity
  8
BLACK
  6
Continuous
100
AcDbLine
 10
150.100461
 20
-108.040789
 30
0.0
 11
139.580786
 21
-105.804763
 31
0.0
  0
ARC
  5
4B0
330
1D
100
AcDbEntity
  8
BLACK
100
AcDbCircle
 10
139.273409
 20
-107.2729
 30
0.0
 40
1.499968904278352
100
AcDbArc
 50
78.17505285
 51
168.00000278
  0
LINE
  5
4B1
330
1D
100
AcDbEntity
  8
BLACK
  6
Continuous
100
AcDbLine
 10
137.806218
 20
-106.961039
 30
0.0
 11
137.390405
 21
-108.917283
 31
0.0
  0
ARC
  5
4B2
330
1D
100
AcDbEntity
  8
BLACK
100
AcDbCircle
 10
135.923109
 20
-108.6055
 30
0.0
 40
1.500055395878765
100
AcDbArc
 50
257.9992204999999
 51
348.00375078
  0
LINE
  5
4B3
330
1D
100
AcDbEntity
  8
BLACK
  6
Continuous
100
AcDbLine
 10
135.611223
 20
-110.07271
 30
0.0
 11
88.660231
 21
-100.092969
 31
0.0
  0
ARC
  5
4B4
330
1D
100
AcDbEntity
  8
BLACK
100
AcDbCircle
 10
88.97210899999999
 20
-98.6257
 30
0.0
 40
1.50004873428999
100
AcDbArc
 50
167.6437706
 51
257.99998706
  0
LINE
  5
4B5
330
1D
100
AcDbEntity
  8
BLACK
  6
Continuous
100
AcDbLine
 10
87.50680799999999
 20
-98.304706
 30
0.0
 11
87.922297
 21
-96.349982
 31
0.0
  0
ARC
  5
4B6
330
1D
100
AcDbEntity
  8
BLACK
100
AcDbCircle
 10
86.453509
 20
-96.0457
 30
0.0
 40
1.499975052737878
100
AcDbArc
 50
348.29586206
 51
78.00165379
  0
LINE
  5
4B7
330
1D
100
AcDbEntity
  8
BLACK
  6
Continuous
100
AcDbLine
 10
86.765329
 20
-94.578492
 30
0.0
 11
56.894562
 21
-88.229264
 31
0.0
  0
ARC
  5
4B8
330
1D
100
AcDbEntity
  8
BLACK
100
AcDbCircle
 10
55.855009
 20
-93.1195
 30
0.0
 40
4.999499999999999
100
AcDbArc
 50
77.998865
 51
90.0
  0
LINE
  5
4B9
330
1D
100
AcDbEntity
  8
BLACK
  6
Continuous
100
AcDbLine
 10
55.855009
 20
-88.11999999999999
 30
0.0
 11
49.890009
 21
-88.11999999999999
 31
0.0
  0
ARC
  5
4BA
330
1D
100
AcDbEntity
  8
BLACK
100
AcDbCircle
 10
49.890009
 20
-89.61999999999999
 30
0.0
 40
1.5
100
AcDbArc
 50
90.0
 51
180.0
  0
LINE
  5
4BB
330
1D
100
AcDbEntity
  8
BLACK
  6
Continuous
100
AcDbLine
 10
48.390009
 20
-89.61999999999999
 30
0.0
 11
48.390009
 21
-91.61999999999999
 31
0.0
  0
ARC
  5
4BC
330
1D
100
AcDbEntity
  8
BLACK
100
AcDbCircle
 10
46.890009
 20
-91.61999999999999
 30
0.0
 40
1.5
100
AcDbArc
 50
270.0
 51
0.0
  0
LINE
  5
4BD
330
1D
100
AcDbEntity
  8
BLACK
  6
Continuous
100
AcDbLine
 10
46.890009
 20
-93.11999999999999
 30
0.0
 11
-1.10999
 21
-93.11999999999999
 31
0.0
  0
ARC
  5
4BE
330
1D
100
AcDbEntity
  8
BLACK
100
AcDbCircle
 10
-1.10999
 20
-91.61999899999999
 30
0.0
 40
1.500001
100
AcDbArc
 50
180.0000382
 51
270.0
  0
LINE
  5
4BF
330
1D
100
AcDbEntity
  8
BLACK
  6
Continuous
100
AcDbLine
 10
-2.609991
 20
-91.61999999999999
 30
0.0
 11
-2.609991
 21
-89.620002
 31
0.0
  0
ARC
  5
4C0
330
1D
100
AcDbEntity
  8
BLACK
100
AcDbCircle
 10
-4.109992
 20
-89.620001
 30
0.0
 40
1.500001
100
AcDbArc
 50
359.9999618
 51
90.0
  0
LINE
  5
4C1
330
1D
100
AcDbEntity
  8
BLACK
  6
Continuous
100
AcDbLine
 10
-4.109992
 20
-88.11999999999999
 30
0.0
 11
-6.92999
 21
-88.11999999999999
 31
0.0
  0
ARC
  5
4C2
330
1D
100
AcDbEntity
  8
BLACK
100
AcDbCircle
 10
-6.92999
 20
-86.61999899999999
 30
0.0
 40
1.500001
100
AcDbArc
 50
180.0000382
 51
270.0
  0
LINE
  5
4C3
330
1D
100
AcDbEntity
  8
BLACK
  6
Continuous
100
AcDbLine
 10
-8.429991
 20
-86.61999999999999
 30
0.0
 11
-8.429991
 21
-71.067
 31
0.0
  0
ARC
  5
4C4
330
1D
100
AcDbEntity
  8
BLACK
100
AcDbCircle
 10
-9.929993
 20
-71.067002
 30
0.0
 40
1.500002
100
AcDbArc
 50
7.639e-05
 51
90.0
  0
LINE
  5
4C5
330
1D
100
AcDbEntity
  8
BLACK
  6
Continuous
100
AcDbLine
 10
-9.929993
 20
-69.567
 30
0.0
 11
-16.509991
 21
-69.567
 31
0.0
  0
ARC
  5
4C6
330
1D
100
AcDbEntity
  8
BLACK
100
AcDbCircle
 10
-16.509991
 20
-68.067039
 30
0.0
 40
1.499961
100
AcDbArc
 50
179.99851027
 51
270.0
  0
LINE
  5
4C7
330
1D
100
AcDbEntity
  8
BLACK
  6
Continuous
100
AcDbLine
 10
-18.009991
 20
-68.067
 30
0.0
 11
-18.009991
 21
4.365762
 31
0.0
  0
ARC
  5
4C8
330
1D
100
AcDbEntity
  8
BLACK
100
AcDbCircle
 10
-17.009911
 20
4.365765
 30
0.0
 40
1.0000800000045
100
AcDbArc
 50
134.99971642
 51
180.00017187
  0
LINE
  5
4C9
330
1D
100
AcDbEntity
  8
BLACK
  6
Continuous
100
AcDbLine
 10
-17.717065
 20
5.072926
 30
0.0
 11
-13.302945
 21
9.487046
 31
0.0
  0
ARC
  5
4CA
330
1D
100
AcDbEntity
  8
BLACK
100
AcDbCircle
 10
-12.595647
 20
8.77975
 30
0.0
 40
1.000269010026803
100
AcDbArc
 50
89.64652059999999
 51
135.00008101
  0
LINE
  5
4CB
330
1D
100
AcDbEntity
  8
BLACK
  6
Continuous
100
AcDbLine
 10
-12.589476
 20
9.78
 30
0.0
 11
-4.109993
 21
9.78
 31
0.0
  0
ARC
  5
4CC
330
1D
100
AcDbEntity
  8
BLACK
100
AcDbCircle
 10
-4.109992
 20
11.280001
 30
0.0
 40
1.500001
100
AcDbArc
 50
269.9999618
 51
0.0
  0
LINE
  5
4CD
330
1D
100
AcDbEntity
  8
BLACK
  6
Continuous
100
AcDbLine
 10
-2.609991
 20
11.280001
 30
0.0
 11
-2.609991
 21
13.279999
 31
0.0
  0
ARC
  5
4CE
330
1D
100
AcDbEntity
  8
BLACK
100
AcDbCircle
 10
-1.10999
 20
13.279999
 30
0.0
 40
1.500001
100
AcDbArc
 50
90.0000382
 51
180.0
  0
LINE
  5
4CF
330
1D
100
AcDbEntity
  8
BLACK
  6
Continuous
100
AcDbLine
 10
-1.109991
 20
14.78
 30
0.0
 11
46.890009
 21
14.78
 31
0.0
  0
ARC
  5
4D0
330
1D
100
AcDbEntity
  8
BLACK
100
AcDbCircle
 10
46.890009
 20
13.28
 30
0.0
 40
1.5
100
AcDbArc
 50
0.0
 51
90.0
  0
LINE
  5
4D1
330
1D
100
AcDbEntity
  8
BLACK
  6
Continuous
100
AcDbLine
 10
48.390009
 20
13.28
 30
0.0
 11
48.390009
 21
11.28
 31
0.0
  0
ARC
  5
4D2
330
1D
100
AcDbEntity
  8
BLACK
100
AcDbCircle
 10
49.890009
 20
11.28
 30
0.0
 40
1.5
100
AcDbArc
 50
180.0
 51
270.0
  0
LINE
  5
4D3
330
1D
100
AcDbEntity
  8
BLACK
  6
Continuous
100
AcDbLine
 10
49.890009
 20
9.78
 30
0.0
 11
84.926341
 21
9.78
 31
0.0
  0
ARC
  5
4D4
330
1D
100
AcDbEntity
  8
BLACK
100
AcDbCircle
 10
84.92640899999999
 20
11.28
 30
0.0
 40
1.499933
100
AcDbArc
 50
269.99740259
 51
0.0
  0
LINE
  5
4D5
330
1D
100
AcDbEntity
  8
BLACK
  6
Continuous
100
AcDbLine
 10
86.42634199999999
 20
11.28
 30
0.0
 11
86.42634199999999
 21
13.28
 31
0.0
  0
ARC
  5
4D6
330
1D
100
AcDbEntity
  8
BLACK
100
AcDbCircle
 10
87.926509
 20
13.2799
 30
0.0
 40
1.500167003332962
100
AcDbArc
 50
89.46234983
 51
179.99618071
  0
LINE
  5
4D7
330
1D
100
AcDbEntity
  8
BLACK
  6
Continuous
100
AcDbLine
 10
87.940586
 20
14.78
 30
0.0
 11
135.926309
 21
14.78
 31
0.0
  0
ARC
  5
4D8
330
1D
100
AcDbEntity
  8
BLACK
100
AcDbCircle
 10
135.926209
 20
13.2798
 30
0.0
 40
1.500200003332889
100
AcDbArc
 50
359.46640985
 51
89.99618079
  0
LINE
  5
4D9
330
1D
100
AcDbEntity
  8
BLACK
  6
Continuous
100
AcDbLine
 10
137.426342
 20
13.265829
 30
0.0
 11
137.426342
 21
11.280001
 31
0.0
  0
ARC
  5
4DA
330
1D
100
AcDbEntity
  8
BLACK
100
AcDbCircle
 10
138.926309
 20
11.2799
 30
0.0
 40
1.4999
100
AcDbArc
 50
179.996142
 51
270.0
  0
LINE
  5
4DB
330
1D
100
AcDbEntity
  8
BLACK
  6
Continuous
100
AcDbLine
 10
138.926309
 20
9.78
 30
0.0
 11
163.838538
 21
9.78
 31
0.0
  0
ARC
  5
4DC
330
1D
100
AcDbEntity
  8
BLACK
100
AcDbCircle
 10
163.852509
 20
11.2801
 30
0.0
 40
1.500167
100
AcDbArc
 50
269.46639811
 51
0.0
  0
LINE
  5
4DD
330
1D
100
AcDbEntity
  8
BLACK
  6
Continuous
100
AcDbLine
 10
165.352676
 20
11.2801
 30
0.0
 11
165.352676
 21
13.28
 31
0.0
  0
ARC
  5
4DE
330
1D
100
AcDbEntity
  8
BLACK
100
AcDbCircle
 10
166.852609
 20
13.28
 30
0.0
 40
1.499933
100
AcDbArc
 50
89.99740259
 51
180.0
  0
LINE
  5
4DF
330
1D
100
AcDbEntity
  8
BLACK
  6
Continuous
100
AcDbLine
 10
166.852677
 20
14.78
 30
0.0
 11
214.852709
 21
14.78
 31
0.0
  0
ARC
  5
4E0
330
1D
100
AcDbEntity
  8
BLACK
100
AcDbCircle
 10
214.852709
 20
13.2801
 30
0.0
 40
1.4999
100
AcDbArc
 50
359.996142
 51
90.0
  0
LINE
  5
4E1
330
1D
100
AcDbEntity
  8
BLACK
  6
Continuous
100
AcDbLine
 10
164.663537
 20
-108.965697
 30
0.0
 11
164.663497
 21
-108.965697
 31
0.0
  0
LINE
  5
4E2
330
1D
100
AcDbEntity
  8
BLACK
  6
Continuous
100
AcDbLine
 10
152.179567
 20
-108.040784
 30
0.0
 11
152.179567
 21
-108.040787
 31
0.0
  0
LINE
  5
4E3
330
1D
100
AcDbEntity
  8
BLACK
  6
Continuous
100
AcDbLine
 10
86.765329
 20
-94.57849399999999
 30
0.0
 11
86.765329
 21
-94.578492
 31
0.0
  0
LINE
  5
4E4
330
1D
100
AcDbEntity
  8
BLACK
  6
Continuous
100
AcDbLine
 10
-17.717065
 20
5.072926
 30
0.0
 11
-17.717071
 21
5.072932
 31
0.0
  0
LINE
  5
4E5
330
1D
100
AcDbEntity
  8
BLACK
  6
Continuous
100
AcDbLine
 10
321.336692
 20
8.53
 30
0.0
 11
321.336759
 21
8.53
 31
0.0
  0
ARC
  5
4E6
330
1D
100
AcDbEntity
  8
BLACK
100
AcDbCircle
 10
65.081909
 20
12.2814
 30
0.0
 40
0.4985950000010028
100
AcDbArc
 50
77.98084019
 51
90.00011490999998
  0
CIRCLE
  5
4E7
330
1D
100
AcDbEntity
  8
BLACK
100
AcDbCircle
 10
31.457738
 20
-40.239999
 30
0.0
 40
1.0
  0
CIRCLE
  5
4E8
330
1D
100
AcDbEntity
  8
BLACK
100
AcDbCircle
 10
59.85314899999999
 20
-78.85963799999999
 30
0.0
 40
0.9999979999999999
  0
CIRCLE
  5
4E9
330
1D
100
AcDbEntity
  8
BLACK
100
AcDbCircle
 10
5.86125
 20
-78.340004
 30
0.0
 40
0.999999
  0
CIRCLE
  5
4EA
330
1D
100
AcDbEntity
  8
BLACK
100
AcDbCircle
 10
24.915055
 20
-78.340008
 30
0.0
 40
0.999996
  0
CIRCLE
  5
4EB
330
1D
100
AcDbEntity
  8
BLACK
100
AcDbCircle
 10
146.428177
 20
-17.822555
 30
0.0
 40
1.000001
  0
CIRCLE
  5
4EC
330
1D
100
AcDbEntity
  8
BLACK
100
AcDbCircle
 10
58.613146
 20
-18.62964
 30
0.0
 40
1.0
  0
CIRCLE
  5
4ED
330
1D
100
AcDbEntity
  8
BLACK
100
AcDbCircle
 10
77.946902
 20
-42.220366
 30
0.0
 40
0.9999969999999999
  0
CIRCLE
  5
4EE
330
1D
100
AcDbEntity
  8
BLACK
100
AcDbCircle
 10
114.514284
 20
-30.511791
 30
0.0
 40
0.999999
  0
CIRCLE
  5
4EF
330
1D
100
AcDbEntity
  8
BLACK
100
AcDbCircle
 10
32.545048
 20
-2.139999
 30
0.0
 40
1.0
  0
CIRCLE
  5
4F0
330
1D
100
AcDbEntity
  8
BLACK
100
AcDbCircle
 10
9.332487
 20
-19.999368
 30
0.0
 40
0.999996
  0
CIRCLE
  5
4F1
330
1D
100
AcDbEntity
  8
BLACK
100
AcDbCircle
 10
7.644807999999999
 20
-40.240002
 30
0.0
 40
1.0
  0
CIRCLE
  5
4F2
330
1D
100
AcDbEntity
  8
BLACK
100
AcDbCircle
 10
133.848045
 20
-54.102517
 30
0.0
 40
1.0
  0
CIRCLE
  5
4F3
330
1D
100
AcDbEntity
  8
BLACK
100
AcDbCircle
 10
90.52690199999999
 20
-5.940363
 30
0.0
 40
0.999999
  0
CIRCLE
  5
4F4
330
1D
100
AcDbEntity
  8
BLACK
100
AcDbCircle
 10
146.539132
 20
-76.27291799999999
 30
0.0
 40
1.000003
  0
CIRCLE
  5
4F5
330
1D
100
AcDbEntity
  8
BLACK
100
AcDbCircle
 10
120.564279
 20
-70.75179
 30
0.0
 40
0.9999969999999999
  0
CIRCLE
  5
4F6
330
1D
100
AcDbEntity
  8
BLACK
100
AcDbCircle
 10
144.344019
 20
-95.281876
 30
0.0
 40
1.000002
  0
CIRCLE
  5
4F7
330
1D
100
AcDbEntity
  8
BLACK
100
AcDbCircle
 10
209.753289
 20
-62.830337
 30
0.0
 40
1.000001
  0
CIRCLE
  5
4F8
330
1D
100
AcDbEntity
  8
BLACK
100
AcDbCircle
 10
159.212014
 20
-54.102521
 30
0.0
 40
0.9999979999999999
  0
CIRCLE
  5
4F9
330
1D
100
AcDbEntity
  8
BLACK
100
AcDbCircle
 10
230.48704
 20
0.000389
 30
0.0
 40
1.000002
  0
CIRCLE
  5
4FA
330
1D
100
AcDbEntity
  8
BLACK
100
AcDbCircle
 10
233.196906
 20
-78.859641
 30
0.0
 40
0.9999969999999999
  0
CIRCLE
  5
4FB
330
1D
100
AcDbEntity
  8
BLACK
100
AcDbCircle
 10
174.585768
 20
-11.881792
 30
0.0
 40
1.0
  0
CIRCLE
  5
4FC
330
1D
100
AcDbEntity
  8
BLACK
100
AcDbCircle
 10
285.8963
 20
-21.190002
 30
0.0
 40
1.000001
  0
CIRCLE
  5
4FD
330
1D
100
AcDbEntity
  8
BLACK
100
AcDbCircle
 10
271.717509
 20
-59.290004
 30
0.0
 40
1.000001
  0
CIRCLE
  5
4FE
330
1D
100
AcDbEntity
  8
BLACK
100
AcDbCircle
 10
233.746904
 20
-38.259644
 30
0.0
 40
0.999999
  0
CIRCLE
  5
4FF
330
1D
100
AcDbEntity
  8
BLACK
100
AcDbCircle
 10
206.493185
 20
-24.57036
 30
0.0
 40
0.9999979999999999
  0
CIRCLE
  5
500
330
1D
100
AcDbEntity
  8
BLACK
100
AcDbCircle
 10
169.225262
 20
-32.491899
 30
0.0
 40
0.999999
  0
CIRCLE
  5
501
330
1D
100
AcDbEntity
  8
BLACK
100
AcDbCircle
 10
172.485771
 20
-70.751792
 30
0.0
 40
1.000001
  0
CIRCLE
  5
502
330
1D
100
AcDbEntity
  8
BLACK
100
AcDbCircle
 10
312.090652
 20
-78.388004
 30
0.0
 40
1.0
  0
CIRCLE
  5
503
330
1D
100
AcDbEntity
  8
BLACK
100
AcDbCircle
 10
293.040604
 20
-78.388002
 30
0.0
 40
0.9999939999999999
  0
LINE
  5
504
330
1D
100
AcDbEntity
  8
BLACK
  6
Continuous
100
AcDbLine
 10
63.01498299999999
 20
-74.445568
 30
0.0
 11
60.946262
 21
-84.178135
 31
0.0
  0
LINE
  5
505
330
1D
100
AcDbEntity
  8
BLACK
  6
Continuous
100
AcDbLine
 10
75.795515
 20
-75.040795
 30
0.0
 11
65.476147
 21
-72.84734499999999
 31
0.0
  0
LINE
  5
506
330
1D
100
AcDbEntity
  8
BLACK
  6
Continuous
100
AcDbLine
 10
72.863871
 20
-88.832657
 30
0.0
 11
62.544503
 21
-86.639207
 31
0.0
  0
LINE
  5
507
330
1D
100
AcDbEntity
  8
BLACK
  6
Continuous
100
AcDbLine
 10
77.393754
 20
-77.501868
 30
0.0
 11
75.32503299999999
 21
-87.234431
 31
0.0
  0
ARC
  5
508
330
1D
100
AcDbEntity
  8
BLACK
100
AcDbCircle
 10
65.044709
 20
-74.877
 30
0.0
 40
2.075071373639953
100
AcDbArc
 50
77.99947954000001
 51
167.99998865
  0
ARC
  5
509
330
1D
100
AcDbEntity
  8
BLACK
100
AcDbCircle
 10
62.97590899999999
 20
-84.6096
 30
0.0
 40
2.074948590223864
100
AcDbArc
 50
167.99832802
 51
258.00000197
  0
ARC
  5
50A
330
1D
100
AcDbEntity
  8
BLACK
100
AcDbCircle
 10
75.364109
 20
-77.07039999999999
 30
0.0
 40
2.07494663392869
100
AcDbArc
 50
347.99824125
 51
77.99999049
  0
ARC
  5
50B
330
1D
100
AcDbEntity
  8
BLACK
100
AcDbCircle
 10
73.295309
 20
-86.803
 30
0.0
 40
2.075069209433025
100
AcDbArc
 50
257.99940256
 51
348.00000417
  0
LINE
  5
50C
330
1D
100
AcDbEntity
  8
BLACK
  6
Continuous
100
AcDbLine
 10
8.036258
 20
-73.365
 30
0.0
 11
8.036258
 21
-83.320369
 31
0.0
  0
LINE
  5
50D
330
1D
100
AcDbEntity
  8
BLACK
  6
Continuous
100
AcDbLine
 10
20.661259
 20
-71.289999
 30
0.0
 11
10.111259
 21
-71.289999
 31
0.0
  0
LINE
  5
50E
330
1D
100
AcDbEntity
  8
BLACK
  6
Continuous
100
AcDbLine
 10
20.661259
 20
-85.389999
 30
0.0
 11
10.111269
 21
-85.389999
 31
0.0
  0
LINE
  5
50F
330
1D
100
AcDbEntity
  8
BLACK
  6
Continuous
100
AcDbLine
 10
22.736258
 20
-73.364999
 30
0.0
 11
22.736258
 21
-83.315
 31
0.0
  0
ARC
  5
510
330
1D
100
AcDbEntity
  8
BLACK
100
AcDbCircle
 10
10.111259
 20
-73.365
 30
0.0
 40
2.075001
100
AcDbArc
 50
90.0
 51
180.0
  0
ARC
  5
511
330
1D
100
AcDbEntity
  8
BLACK
100
AcDbCircle
 10
10.111269
 20
-83.31497999999999
 30
0.0
 40
2.075019
100
AcDbArc
 50
180.14880223
 51
270.0
  0
ARC
  5
512
330
1D
100
AcDbEntity
  8
BLACK
100
AcDbCircle
 10
20.661259
 20
-73.36498999999999
 30
0.0
 40
2.074991
100
AcDbArc
 50
359.99975149
 51
90.0
  0
ARC
  5
513
330
1D
100
AcDbEntity
  8
BLACK
100
AcDbCircle
 10
20.661259
 20
-83.315
 30
0.0
 40
2.074999
100
AcDbArc
 50
270.0
 51
0.0
  0
LINE
  5
514
330
1D
100
AcDbEntity
  8
BLACK
  6
Continuous
100
AcDbLine
 10
15.670008
 20
2.835
 30
0.0
 11
15.670008
 21
-7.114999999999999
 31
0.0
  0
LINE
  5
515
330
1D
100
AcDbEntity
  8
BLACK
  6
Continuous
100
AcDbLine
 10
28.295009
 20
4.910000999999999
 30
0.0
 11
17.745009
 21
4.910000999999999
 31
0.0
  0
LINE
  5
516
330
1D
100
AcDbEntity
  8
BLACK
  6
Continuous
100
AcDbLine
 10
28.295009
 20
-9.189999
 30
0.0
 11
17.745009
 21
-9.189999
 31
0.0
  0
LINE
  5
517
330
1D
100
AcDbEntity
  8
BLACK
  6
Continuous
100
AcDbLine
 10
30.370008
 20
2.835
 30
0.0
 11
30.370008
 21
-7.114999999999999
 31
0.0
  0
ARC
  5
518
330
1D
100
AcDbEntity
  8
BLACK
100
AcDbCircle
 10
17.745009
 20
2.835
 30
0.0
 40
2.075001
100
AcDbArc
 50
90.0
 51
180.0
  0
ARC
  5
519
330
1D
100
AcDbEntity
  8
BLACK
100
AcDbCircle
 10
17.745009
 20
-7.114999999999999
 30
0.0
 40
2.074999
100
AcDbArc
 50
180.0
 51
270.0
  0
ARC
  5
51A
330
1D
100
AcDbEntity
  8
BLACK
100
AcDbCircle
 10
28.295009
 20
2.835
 30
0.0
 40
2.075001
100
AcDbArc
 50
0.0
 51
90.0
  0
ARC
  5
51B
330
1D
100
AcDbEntity
  8
BLACK
100
AcDbCircle
 10
28.295009
 20
-7.114999999999999
 30
0.0
 40
2.074999
100
AcDbArc
 50
270.0
 51
0.0
  0
LINE
  5
51C
330
1D
100
AcDbEntity
  8
BLACK
  6
Continuous
100
AcDbLine
 10
16.270008
 20
-16.215
 30
0.0
 11
16.270008
 21
-26.165
 31
0.0
  0
LINE
  5
51D
330
1D
100
AcDbEntity
  8
BLACK
  6
Continuous
100
AcDbLine
 10
28.895009
 20
-14.139999
 30
0.0
 11
18.345009
 21
-14.139999
 31
0.0
  0
LINE
  5
51E
330
1D
100
AcDbEntity
  8
BLACK
  6
Continuous
100
AcDbLine
 10
28.895009
 20
-28.239999
 30
0.0
 11
18.345009
 21
-28.239999
 31
0.0
  0
LINE
  5
51F
330
1D
100
AcDbEntity
  8
BLACK
  6
Continuous
100
AcDbLine
 10
30.970008
 20
-16.215
 30
0.0
 11
30.970008
 21
-26.165
 31
0.0
  0
ARC
  5
520
330
1D
100
AcDbEntity
  8
BLACK
100
AcDbCircle
 10
18.345009
 20
-16.215
 30
0.0
 40
2.075001
100
AcDbArc
 50
90.0
 51
180.0
  0
ARC
  5
521
330
1D
100
AcDbEntity
  8
BLACK
100
AcDbCircle
 10
18.345009
 20
-26.165
 30
0.0
 40
2.074999
100
AcDbArc
 50
180.0
 51
270.0
  0
ARC
  5
522
330
1D
100
AcDbEntity
  8
BLACK
100
AcDbCircle
 10
28.895009
 20
-16.215
 30
0.0
 40
2.075001
100
AcDbArc
 50
0.0
 51
90.0
  0
ARC
  5
523
330
1D
100
AcDbEntity
  8
BLACK
100
AcDbCircle
 10
28.895009
 20
-26.165
 30
0.0
 40
2.074999
100
AcDbArc
 50
270.0
 51
0.0
  0
LINE
  5
524
330
1D
100
AcDbEntity
  8
BLACK
  6
Continuous
100
AcDbLine
 10
46.136258
 20
-54.31504
 30
0.0
 11
46.136258
 21
-64.250834
 31
0.0
  0
LINE
  5
525
330
1D
100
AcDbEntity
  8
BLACK
  6
Continuous
100
AcDbLine
 10
58.761309
 20
-52.239999
 30
0.0
 11
48.211289
 21
-52.239999
 31
0.0
  0
LINE
  5
526
330
1D
100
AcDbEntity
  8
BLACK
  6
Continuous
100
AcDbLine
 10
58.746849
 20
-66.33999899999999
 30
0.0
 11
48.211409
 21
-66.33999899999999
 31
0.0
  0
LINE
  5
527
330
1D
100
AcDbEntity
  8
BLACK
  6
Continuous
100
AcDbLine
 10
60.83625799999999
 20
-54.314999
 30
0.0
 11
60.83625799999999
 21
-64.2649
 31
0.0
  0
ARC
  5
528
330
1D
100
AcDbEntity
  8
BLACK
100
AcDbCircle
 10
48.211299
 20
-54.31504
 30
0.0
 40
2.075041
100
AcDbArc
 50
90.00027611999998
 51
180.0
  0
ARC
  5
529
330
1D
100
AcDbEntity
  8
BLACK
100
AcDbCircle
 10
48.211409
 20
-64.2648
 30
0.0
 40
2.075199
100
AcDbArc
 50
179.61439877
 51
270.0
  0
ARC
  5
52A
330
1D
100
AcDbEntity
  8
BLACK
100
AcDbCircle
 10
58.761309
 20
-54.31489999999999
 30
0.0
 40
2.074901
100
AcDbArc
 50
359.9972662399999
 51
90.0
  0
ARC
  5
52B
330
1D
100
AcDbEntity
  8
BLACK
100
AcDbCircle
 10
58.761109
 20
-64.2649
 30
0.0
 40
2.075149
100
AcDbArc
 50
269.60627182
 51
0.0
  0
LINE
  5
52C
330
1D
100
AcDbEntity
  8
BLACK
  6
Continuous
100
AcDbLine
 10
99.742409
 20
-41.766995
 30
0.0
 11
97.672484
 21
-51.505225
 31
0.0
  0
LINE
  5
52D
330
1D
100
AcDbEntity
  8
BLACK
  6
Continuous
100
AcDbLine
 10
112.522929
 20
-42.36222799999999
 30
0.0
 11
102.213166
 21
-40.17082
 31
0.0
  0
LINE
  5
52E
330
1D
100
AcDbEntity
  8
BLACK
  6
Continuous
100
AcDbLine
 10
109.582055
 20
-56.152128
 30
0.0
 11
99.271896
 21
-53.960636
 31
0.0
  0
LINE
  5
52F
330
1D
100
AcDbEntity
  8
BLACK
  6
Continuous
100
AcDbLine
 10
114.120054
 20
-44.82859
 30
0.0
 11
112.052447
 21
-54.555913
 31
0.0
  0
ARC
  5
530
330
1D
100
AcDbEntity
  8
BLACK
100
AcDbCircle
 10
101.772009
 20
-42.1984
 30
0.0
 40
2.074942513426576
100
AcDbArc
 50
77.72499855
 51
167.99999453
  0
ARC
  5
531
330
1D
100
AcDbEntity
  8
BLACK
100
AcDbCircle
 10
99.70330899999999
 20
-51.931
 30
0.0
 40
2.07497939003379
100
AcDbArc
 50
168.15908988
 51
257.99998513
  0
ARC
  5
532
330
1D
100
AcDbEntity
  8
BLACK
100
AcDbCircle
 10
112.091509
 20
-44.3919
 30
0.0
 40
2.075016058729185
100
AcDbArc
 50
347.85119614
 51
78.00000275000001
  0
ARC
  5
533
330
1D
100
AcDbEntity
  8
BLACK
100
AcDbCircle
 10
110.022809
 20
-54.1245
 30
0.0
 40
2.074981346328925
100
AcDbArc
 50
257.7361624500001
 51
347.99999662
  0
LINE
  5
534
330
1D
100
AcDbEntity
  8
BLACK
  6
Continuous
100
AcDbLine
 10
112.322409
 20
-5.486994999999999
 30
0.0
 11
110.252484
 21
-15.225225
 31
0.0
  0
LINE
  5
535
330
1D
100
AcDbEntity
  8
BLACK
  6
Continuous
100
AcDbLine
 10
125.102929
 20
-6.082228
 30
0.0
 11
114.793166
 21
-3.89082
 31
0.0
  0
LINE
  5
536
330
1D
100
AcDbEntity
  8
BLACK
  6
Continuous
100
AcDbLine
 10
122.162055
 20
-19.872128
 30
0.0
 11
111.851897
 21
-17.680636
 31
0.0
  0
LINE
  5
537
330
1D
100
AcDbEntity
  8
BLACK
  6
Continuous
100
AcDbLine
 10
126.700054
 20
-8.548589999999999
 30
0.0
 11
124.632447
 21
-18.275913
 31
0.0
  0
ARC
  5
538
330
1D
100
AcDbEntity
  8
BLACK
100
AcDbCircle
 10
114.352009
 20
-5.9184
 30
0.0
 40
2.074942513426576
100
AcDbArc
 50
77.72499855
 51
167.99999453
  0
ARC
  5
539
330
1D
100
AcDbEntity
  8
BLACK
100
AcDbCircle
 10
112.283309
 20
-15.651
 30
0.0
 40
2.074979182122076
100
AcDbArc
 50
168.15908988
 51
258.00001214
  0
ARC
  5
53A
330
1D
100
AcDbEntity
  8
BLACK
100
AcDbCircle
 10
124.671509
 20
-8.1119
 30
0.0
 40
2.075016058729185
100
AcDbArc
 50
347.85119614
 51
78.00000275000001
  0
ARC
  5
53B
330
1D
100
AcDbEntity
  8
BLACK
100
AcDbCircle
 10
122.602809
 20
-17.8445
 30
0.0
 40
2.074981346328925
100
AcDbArc
 50
257.7361624500001
 51
347.99999662
  0
LINE
  5
53C
330
1D
100
AcDbEntity
  8
BLACK
  6
Continuous
100
AcDbLine
 10
81.10869799999999
 20
-37.806272
 30
0.0
 11
79.039974
 21
-47.538852
 31
0.0
  0
LINE
  5
53D
330
1D
100
AcDbEntity
  8
BLACK
  6
Continuous
100
AcDbLine
 10
93.889212
 20
-38.401509
 30
0.0
 11
83.56984399999999
 21
-36.208059
 31
0.0
  0
LINE
  5
53E
330
1D
100
AcDbEntity
  8
BLACK
  6
Continuous
100
AcDbLine
 10
90.957568
 20
-52.193371
 30
0.0
 11
80.6382
 21
-49.999921
 31
0.0
  0
LINE
  5
53F
330
1D
100
AcDbEntity
  8
BLACK
  6
Continuous
100
AcDbLine
 10
95.487466
 20
-40.862585
 30
0.0
 11
93.418748
 21
-50.59513399999999
 31
0.0
  0
ARC
  5
540
330
1D
100
AcDbEntity
  8
BLACK
100
AcDbCircle
 10
83.138409
 20
-38.2377
 30
0.0
 40
2.075055869779173
100
AcDbArc
 50
77.99947445
 51
168.00001057
  0
ARC
  5
541
330
1D
100
AcDbEntity
  8
BLACK
100
AcDbCircle
 10
81.069609
 20
-47.97029999999999
 30
0.0
 40
2.074962908025346
100
AcDbArc
 50
167.99889053
 51
258.00000132
  0
ARC
  5
542
330
1D
100
AcDbEntity
  8
BLACK
100
AcDbCircle
 10
93.457809
 20
-40.4311
 30
0.0
 40
2.074933294274782
100
AcDbArc
 50
347.99768447
 51
77.99999688
  0
ARC
  5
543
330
1D
100
AcDbEntity
  8
BLACK
100
AcDbCircle
 10
91.389009
 20
-50.1637
 30
0.0
 40
2.07508450538213
100
AcDbArc
 50
257.99946167
 51
348.00000926
  0
LINE
  5
544
330
1D
100
AcDbEntity
  8
BLACK
  6
Continuous
100
AcDbLine
 10
80.408698
 20
-18.176272
 30
0.0
 11
78.339974
 21
-27.908852
 31
0.0
  0
LINE
  5
545
330
1D
100
AcDbEntity
  8
BLACK
  6
Continuous
100
AcDbLine
 10
93.189212
 20
-18.771509
 30
0.0
 11
82.869844
 21
-16.578059
 31
0.0
  0
LINE
  5
546
330
1D
100
AcDbEntity
  8
BLACK
  6
Continuous
100
AcDbLine
 10
90.25756799999999
 20
-32.563371
 30
0.0
 11
79.9382
 21
-30.369921
 31
0.0
  0
LINE
  5
547
330
1D
100
AcDbEntity
  8
BLACK
  6
Continuous
100
AcDbLine
 10
94.787466
 20
-21.232585
 30
0.0
 11
92.71874799999999
 21
-30.965134
 31
0.0
  0
ARC
  5
548
330
1D
100
AcDbEntity
  8
BLACK
100
AcDbCircle
 10
82.438409
 20
-18.6077
 30
0.0
 40
2.075055869779173
100
AcDbArc
 50
77.99947445
 51
168.00001057
  0
ARC
  5
549
330
1D
100
AcDbEntity
  8
BLACK
100
AcDbCircle
 10
80.369609
 20
-28.3403
 30
0.0
 40
2.074962908025346
100
AcDbArc
 50
167.99889053
 51
258.00000132
  0
ARC
  5
54A
330
1D
100
AcDbEntity
  8
BLACK
100
AcDbCircle
 10
92.757809
 20
-20.8011
 30
0.0
 40
2.074933294274782
100
AcDbArc
 50
347.99768447
 51
77.99999688
  0
ARC
  5
54B
330
1D
100
AcDbEntity
  8
BLACK
100
AcDbCircle
 10
90.689009
 20
-30.5337
 30
0.0
 40
2.07508450538213
100
AcDbArc
 50
257.99946167
 51
348.00000926
  0
LINE
  5
54C
330
1D
100
AcDbEntity
  8
BLACK
  6
Continuous
100
AcDbLine
 10
67.824983
 20
-54.455568
 30
0.0
 11
65.75626199999999
 21
-64.188135
 31
0.0
  0
LINE
  5
54D
330
1D
100
AcDbEntity
  8
BLACK
  6
Continuous
100
AcDbLine
 10
80.605515
 20
-55.050795
 30
0.0
 11
70.286147
 21
-52.857345
 31
0.0
  0
LINE
  5
54E
330
1D
100
AcDbEntity
  8
BLACK
  6
Continuous
100
AcDbLine
 10
77.67387099999999
 20
-68.842657
 30
0.0
 11
67.354503
 21
-66.649207
 31
0.0
  0
LINE
  5
54F
330
1D
100
AcDbEntity
  8
BLACK
  6
Continuous
100
AcDbLine
 10
82.20375399999999
 20
-57.511868
 30
0.0
 11
80.13503299999999
 21
-67.24443099999999
 31
0.0
  0
ARC
  5
550
330
1D
100
AcDbEntity
  8
BLACK
100
AcDbCircle
 10
69.854709
 20
-54.887
 30
0.0
 40
2.075071373639953
100
AcDbArc
 50
77.99947954000001
 51
167.99998865
  0
ARC
  5
551
330
1D
100
AcDbEntity
  8
BLACK
100
AcDbCircle
 10
67.785909
 20
-64.61959999999999
 30
0.0
 40
2.074948590223864
100
AcDbArc
 50
167.99832802
 51
258.00000197
  0
ARC
  5
552
330
1D
100
AcDbEntity
  8
BLACK
100
AcDbCircle
 10
80.174109
 20
-57.0804
 30
0.0
 40
2.07494663392869
100
AcDbArc
 50
347.99824125
 51
77.99999049
  0
ARC
  5
553
330
1D
100
AcDbEntity
  8
BLACK
100
AcDbCircle
 10
78.10530899999999
 20
-66.813
 30
0.0
 40
2.075069209433025
100
AcDbArc
 50
257.99940256
 51
348.00000417
  0
LINE
  5
554
330
1D
100
AcDbEntity
  8
BLACK
  6
Continuous
100
AcDbLine
 10
61.774983
 20
-14.215568
 30
0.0
 11
59.706262
 21
-23.948135
 31
0.0
  0
LINE
  5
555
330
1D
100
AcDbEntity
  8
BLACK
  6
Continuous
100
AcDbLine
 10
74.555515
 20
-14.810795
 30
0.0
 11
64.236147
 21
-12.617345
 31
0.0
  0
LINE
  5
556
330
1D
100
AcDbEntity
  8
BLACK
  6
Continuous
100
AcDbLine
 10
71.623871
 20
-28.602657
 30
0.0
 11
61.304503
 21
-26.409207
 31
0.0
  0
LINE
  5
557
330
1D
100
AcDbEntity
  8
BLACK
  6
Continuous
100
AcDbLine
 10
76.15375399999999
 20
-17.271868
 30
0.0
 11
74.085033
 21
-27.004431
 31
0.0
  0
ARC
  5
558
330
1D
100
AcDbEntity
  8
BLACK
100
AcDbCircle
 10
63.804709
 20
-14.647
 30
0.0
 40
2.075071373639953
100
AcDbArc
 50
77.99947954000001
 51
167.99998865
  0
ARC
  5
559
330
1D
100
AcDbEntity
  8
BLACK
100
AcDbCircle
 10
61.735909
 20
-24.3796
 30
0.0
 40
2.074948590223864
100
AcDbArc
 50
167.99832802
 51
258.00000197
  0
ARC
  5
55A
330
1D
100
AcDbEntity
  8
BLACK
100
AcDbCircle
 10
74.12410899999999
 20
-16.8404
 30
0.0
 40
2.07494663392869
100
AcDbArc
 50
347.99824125
 51
77.99999049
  0
ARC
  5
55B
330
1D
100
AcDbEntity
  8
BLACK
100
AcDbCircle
 10
72.055309
 20
-26.573
 30
0.0
 40
2.075069209433025
100
AcDbArc
 50
257.99940256
 51
348.00000417
  0
LINE
  5
55C
330
1D
100
AcDbEntity
  8
BLACK
  6
Continuous
100
AcDbLine
 10
34.720008
 20
2.835
 30
0.0
 11
34.720008
 21
-7.114999999999999
 31
0.0
  0
LINE
  5
55D
330
1D
100
AcDbEntity
  8
BLACK
  6
Continuous
100
AcDbLine
 10
47.345009
 20
4.910000999999999
 30
0.0
 11
36.795009
 21
4.910000999999999
 31
0.0
  0
LINE
  5
55E
330
1D
100
AcDbEntity
  8
BLACK
  6
Continuous
100
AcDbLine
 10
47.345009
 20
-9.189999
 30
0.0
 11
36.795009
 21
-9.189999
 31
0.0
  0
LINE
  5
55F
330
1D
100
AcDbEntity
  8
BLACK
  6
Continuous
100
AcDbLine
 10
49.420008
 20
2.835
 30
0.0
 11
49.420008
 21
-7.114999999999999
 31
0.0
  0
ARC
  5
560
330
1D
100
AcDbEntity
  8
BLACK
100
AcDbCircle
 10
36.795009
 20
2.835
 30
0.0
 40
2.075001
100
AcDbArc
 50
90.0
 51
180.0
  0
ARC
  5
561
330
1D
100
AcDbEntity
  8
BLACK
100
AcDbCircle
 10
36.795009
 20
-7.114999999999999
 30
0.0
 40
2.074999
100
AcDbArc
 50
180.0
 51
270.0
  0
ARC
  5
562
330
1D
100
AcDbEntity
  8
BLACK
100
AcDbCircle
 10
47.345009
 20
2.835
 30
0.0
 40
2.075001
100
AcDbArc
 50
0.0
 51
90.0
  0
ARC
  5
563
330
1D
100
AcDbEntity
  8
BLACK
100
AcDbCircle
 10
47.345009
 20
-7.114999999999999
 30
0.0
 40
2.074999
100
AcDbArc
 50
270.0
 51
0.0
  0
LINE
  5
564
330
1D
100
AcDbEntity
  8
BLACK
  6
Continuous
100
AcDbLine
 10
40.082508
 20
-16.215
 30
0.0
 11
40.082508
 21
-26.165
 31
0.0
  0
LINE
  5
565
330
1D
100
AcDbEntity
  8
BLACK
  6
Continuous
100
AcDbLine
 10
52.70750899999999
 20
-14.139999
 30
0.0
 11
42.157509
 21
-14.139999
 31
0.0
  0
LINE
  5
566
330
1D
100
AcDbEntity
  8
BLACK
  6
Continuous
100
AcDbLine
 10
52.70750899999999
 20
-28.239999
 30
0.0
 11
42.157509
 21
-28.239999
 31
0.0
  0
LINE
  5
567
330
1D
100
AcDbEntity
  8
BLACK
  6
Continuous
100
AcDbLine
 10
54.782508
 20
-16.215
 30
0.0
 11
54.782508
 21
-26.165
 31
0.0
  0
ARC
  5
568
330
1D
100
AcDbEntity
  8
BLACK
100
AcDbCircle
 10
42.157509
 20
-16.215
 30
0.0
 40
2.075001
100
AcDbArc
 50
90.0
 51
180.0
  0
ARC
  5
569
330
1D
100
AcDbEntity
  8
BLACK
100
AcDbCircle
 10
42.157509
 20
-26.165
 30
0.0
 40
2.074999
100
AcDbArc
 50
180.0
 51
270.0
  0
ARC
  5
56A
330
1D
100
AcDbEntity
  8
BLACK
100
AcDbCircle
 10
52.70750899999999
 20
-16.215
 30
0.0
 40
2.075001
100
AcDbArc
 50
0.0
 51
90.0
  0
ARC
  5
56B
330
1D
100
AcDbEntity
  8
BLACK
100
AcDbCircle
 10
52.70750899999999
 20
-26.165
 30
0.0
 40
2.074999
100
AcDbArc
 50
270.0
 51
0.0
  0
LINE
  5
56C
330
1D
100
AcDbEntity
  8
BLACK
  6
Continuous
100
AcDbLine
 10
130.956125
 20
-9.447697999999999
 30
0.0
 11
128.887398
 21
-19.180288
 31
0.0
  0
LINE
  5
56D
330
1D
100
AcDbEntity
  8
BLACK
  6
Continuous
100
AcDbLine
 10
143.736626
 20
-10.042943
 30
0.0
 11
133.417121
 21
-7.849464999999999
 31
0.0
  0
LINE
  5
56E
330
1D
100
AcDbEntity
  8
BLACK
  6
Continuous
100
AcDbLine
 10
140.795752
 20
-23.832843
 30
0.0
 11
130.485614
 21
-21.641355
 31
0.0
  0
LINE
  5
56F
330
1D
100
AcDbEntity
  8
BLACK
  6
Continuous
100
AcDbLine
 10
145.33489
 20
-12.504023
 30
0.0
 11
143.266162
 21
-22.236616
 31
0.0
  0
ARC
  5
570
330
1D
100
AcDbEntity
  8
BLACK
100
AcDbCircle
 10
132.985709
 20
-9.8791
 30
0.0
 40
2.074926239329967
100
AcDbArc
 50
78.00001071
 51
167.9999837
  0
ARC
  5
571
330
1D
100
AcDbEntity
  8
BLACK
100
AcDbCircle
 10
130.917009
 20
-19.6118
 30
0.0
 40
2.074896417667639
100
AcDbArc
 50
167.99669105
 51
258.00000628
  0
ARC
  5
572
330
1D
100
AcDbEntity
  8
BLACK
100
AcDbCircle
 10
143.305209
 20
-12.0726
 30
0.0
 40
2.074999784632519
100
AcDbArc
 50
347.9999649100001
 51
77.99999192
  0
ARC
  5
573
330
1D
100
AcDbEntity
  8
BLACK
100
AcDbCircle
 10
141.236509
 20
-21.8052
 30
0.0
 40
2.074996642278006
100
AcDbArc
 50
257.73616948
 51
348.0000017
  0
LINE
  5
574
330
1D
100
AcDbEntity
  8
BLACK
  6
Continuous
100
AcDbLine
 10
-11.509991
 20
-14.075005
 30
0.0
 11
-11.509991
 21
-24.024997
 31
0.0
  0
LINE
  5
575
330
1D
100
AcDbEntity
  8
BLACK
  6
Continuous
100
AcDbLine
 10
1.115009
 20
-11.999999
 30
0.0
 11
-9.434985
 21
-11.999999
 31
0.0
  0
LINE
  5
576
330
1D
100
AcDbEntity
  8
BLACK
  6
Continuous
100
AcDbLine
 10
1.115012
 20
-26.099999
 30
0.0
 11
-9.434989
 21
-26.099999
 31
0.0
  0
LINE
  5
577
330
1D
100
AcDbEntity
  8
BLACK
  6
Continuous
100
AcDbLine
 10
3.190009
 20
-14.075
 30
0.0
 11
3.190009
 21
-24.025002
 31
0.0
  0
ARC
  5
578
330
1D
100
AcDbEntity
  8
BLACK
100
AcDbCircle
 10
-9.434986
 20
-14.075004
 30
0.0
 40
2.075005000000241
100
AcDbArc
 50
89.99997238999998
 51
180.00002761
  0
ARC
  5
579
330
1D
100
AcDbEntity
  8
BLACK
100
AcDbCircle
 10
-9.434989
 20
-24.024997
 30
0.0
 40
2.075002
100
AcDbArc
 50
180.0
 51
270.0
  0
ARC
  5
57A
330
1D
100
AcDbEntity
  8
BLACK
100
AcDbCircle
 10
1.115009
 20
-14.075
 30
0.0
 40
2.075001
100
AcDbArc
 50
0.0
 51
90.0
  0
ARC
  5
57B
330
1D
100
AcDbEntity
  8
BLACK
100
AcDbCircle
 10
1.115012
 20
-24.025002
 30
0.0
 40
2.074997
100
AcDbArc
 50
270.0
 51
0.0
  0
LINE
  5
57C
330
1D
100
AcDbEntity
  8
BLACK
  6
Continuous
100
AcDbLine
 10
117.676125
 20
-26.097698
 30
0.0
 11
115.607398
 21
-35.830288
 31
0.0
  0
LINE
  5
57D
330
1D
100
AcDbEntity
  8
BLACK
  6
Continuous
100
AcDbLine
 10
130.456626
 20
-26.692943
 30
0.0
 11
120.137121
 21
-24.499465
 31
0.0
  0
LINE
  5
57E
330
1D
100
AcDbEntity
  8
BLACK
  6
Continuous
100
AcDbLine
 10
127.515752
 20
-40.482843
 30
0.0
 11
117.205614
 21
-38.291355
 31
0.0
  0
LINE
  5
57F
330
1D
100
AcDbEntity
  8
BLACK
  6
Continuous
100
AcDbLine
 10
132.05489
 20
-29.154023
 30
0.0
 11
129.986162
 21
-38.886616
 31
0.0
  0
ARC
  5
580
330
1D
100
AcDbEntity
  8
BLACK
100
AcDbCircle
 10
119.705709
 20
-26.5291
 30
0.0
 40
2.074926239329967
100
AcDbArc
 50
78.00001071
 51
167.9999837
  0
ARC
  5
581
330
1D
100
AcDbEntity
  8
BLACK
100
AcDbCircle
 10
117.637009
 20
-36.2618
 30
0.0
 40
2.074896417667639
100
AcDbArc
 50
167.99669105
 51
258.00000628
  0
ARC
  5
582
330
1D
100
AcDbEntity
  8
BLACK
100
AcDbCircle
 10
130.025209
 20
-28.7226
 30
0.0
 40
2.074999784632519
100
AcDbArc
 50
347.9999649100001
 51
77.99999192
  0
ARC
  5
583
330
1D
100
AcDbEntity
  8
BLACK
100
AcDbCircle
 10
127.956509
 20
-38.4552
 30
0.0
 40
2.074996642278006
100
AcDbArc
 50
257.73616948
 51
348.0000017
  0
LINE
  5
584
330
1D
100
AcDbEntity
  8
BLACK
  6
Continuous
100
AcDbLine
 10
99.04240899999999
 20
-22.136995
 30
0.0
 11
96.972484
 21
-31.875225
 31
0.0
  0
LINE
  5
585
330
1D
100
AcDbEntity
  8
BLACK
  6
Continuous
100
AcDbLine
 10
111.822929
 20
-22.732228
 30
0.0
 11
101.513166
 21
-20.54082
 31
0.0
  0
LINE
  5
586
330
1D
100
AcDbEntity
  8
BLACK
  6
Continuous
100
AcDbLine
 10
108.882055
 20
-36.522128
 30
0.0
 11
98.571896
 21
-34.330636
 31
0.0
  0
LINE
  5
587
330
1D
100
AcDbEntity
  8
BLACK
  6
Continuous
100
AcDbLine
 10
113.420054
 20
-25.19859
 30
0.0
 11
111.352447
 21
-34.925913
 31
0.0
  0
ARC
  5
588
330
1D
100
AcDbEntity
  8
BLACK
100
AcDbCircle
 10
101.072009
 20
-22.5684
 30
0.0
 40
2.074942513426576
100
AcDbArc
 50
77.72500441999999
 51
167.99999453
  0
ARC
  5
589
330
1D
100
AcDbEntity
  8
BLACK
100
AcDbCircle
 10
99.003309
 20
-32.301
 30
0.0
 40
2.07497939003379
100
AcDbArc
 50
168.15908988
 51
257.99998513
  0
ARC
  5
58A
330
1D
100
AcDbEntity
  8
BLACK
100
AcDbCircle
 10
111.391509
 20
-24.7619
 30
0.0
 40
2.075016058729185
100
AcDbArc
 50
347.85119614
 51
78.00000275000001
  0
ARC
  5
58B
330
1D
100
AcDbEntity
  8
BLACK
100
AcDbCircle
 10
109.322809
 20
-34.4945
 30
0.0
 40
2.074981346328925
100
AcDbArc
 50
257.7361624500001
 51
347.99999662
  0
LINE
  5
58C
330
1D
100
AcDbEntity
  8
BLACK
  6
Continuous
100
AcDbLine
 10
-15.57999
 20
-33.125005
 30
0.0
 11
-15.57999
 21
-43.074997
 31
0.0
  0
LINE
  5
58D
330
1D
100
AcDbEntity
  8
BLACK
  6
Continuous
100
AcDbLine
 10
-2.954989
 20
-31.049999
 30
0.0
 11
-13.504984
 21
-31.049999
 31
0.0
  0
LINE
  5
58E
330
1D
100
AcDbEntity
  8
BLACK
  6
Continuous
100
AcDbLine
 10
-2.954989
 20
-45.149999
 30
0.0
 11
-13.504988
 21
-45.149999
 31
0.0
  0
LINE
  5
58F
330
1D
100
AcDbEntity
  8
BLACK
  6
Continuous
100
AcDbLine
 10
-0.8799899999999999
 20
-33.124998
 30
0.0
 11
-0.8799899999999999
 21
-43.075
 31
0.0
  0
ARC
  5
590
330
1D
100
AcDbEntity
  8
BLACK
100
AcDbCircle
 10
-13.504985
 20
-33.125004
 30
0.0
 40
2.075005000000241
100
AcDbArc
 50
89.99997238999998
 51
180.00002761
  0
ARC
  5
591
330
1D
100
AcDbEntity
  8
BLACK
100
AcDbCircle
 10
-13.504988
 20
-43.074997
 30
0.0
 40
2.075002
100
AcDbArc
 50
180.0
 51
270.0
  0
ARC
  5
592
330
1D
100
AcDbEntity
  8
BLACK
100
AcDbCircle
 10
-2.954989
 20
-33.124998
 30
0.0
 40
2.074999
100
AcDbArc
 50
0.0
 51
90.0
  0
ARC
  5
593
330
1D
100
AcDbEntity
  8
BLACK
100
AcDbCircle
 10
-2.954989
 20
-43.075
 30
0.0
 40
2.074999
100
AcDbArc
 50
270.0
 51
0.0
  0
LINE
  5
594
330
1D
100
AcDbEntity
  8
BLACK
  6
Continuous
100
AcDbLine
 10
118.376125
 20
-45.727698
 30
0.0
 11
116.307398
 21
-55.460288
 31
0.0
  0
LINE
  5
595
330
1D
100
AcDbEntity
  8
BLACK
  6
Continuous
100
AcDbLine
 10
131.156626
 20
-46.322943
 30
0.0
 11
120.837121
 21
-44.129465
 31
0.0
  0
LINE
  5
596
330
1D
100
AcDbEntity
  8
BLACK
  6
Continuous
100
AcDbLine
 10
128.215752
 20
-60.112843
 30
0.0
 11
117.905614
 21
-57.921355
 31
0.0
  0
LINE
  5
597
330
1D
100
AcDbEntity
  8
BLACK
  6
Continuous
100
AcDbLine
 10
132.75489
 20
-48.784023
 30
0.0
 11
130.686162
 21
-58.516616
 31
0.0
  0
ARC
  5
598
330
1D
100
AcDbEntity
  8
BLACK
100
AcDbCircle
 10
120.405709
 20
-46.1591
 30
0.0
 40
2.074926239329967
100
AcDbArc
 50
78.00001071
 51
167.9999837
  0
ARC
  5
599
330
1D
100
AcDbEntity
  8
BLACK
100
AcDbCircle
 10
118.337009
 20
-55.8918
 30
0.0
 40
2.074896417667639
100
AcDbArc
 50
167.99669105
 51
258.00000628
  0
ARC
  5
59A
330
1D
100
AcDbEntity
  8
BLACK
100
AcDbCircle
 10
130.725209
 20
-48.3526
 30
0.0
 40
2.074999784632519
100
AcDbArc
 50
347.9999649100001
 51
77.99999192
  0
ARC
  5
59B
330
1D
100
AcDbEntity
  8
BLACK
100
AcDbCircle
 10
128.656509
 20
-58.0852
 30
0.0
 40
2.074996642278006
100
AcDbArc
 50
257.73616948
 51
348.0000017
  0
LINE
  5
59C
330
1D
100
AcDbEntity
  8
BLACK
  6
Continuous
100
AcDbLine
 10
93.688698
 20
-1.526272
 30
0.0
 11
91.619974
 21
-11.258852
 31
0.0
  0
LINE
  5
59D
330
1D
100
AcDbEntity
  8
BLACK
  6
Continuous
100
AcDbLine
 10
106.469212
 20
-2.121509
 30
0.0
 11
96.149844
 21
0.071941
 31
0.0
  0
LINE
  5
59E
330
1D
100
AcDbEntity
  8
BLACK
  6
Continuous
100
AcDbLine
 10
103.537568
 20
-15.913371
 30
0.0
 11
93.2182
 21
-13.719921
 31
0.0
  0
LINE
  5
59F
330
1D
100
AcDbEntity
  8
BLACK
  6
Continuous
100
AcDbLine
 10
108.067466
 20
-4.582585
 30
0.0
 11
105.998748
 21
-14.315134
 31
0.0
  0
ARC
  5
5A0
330
1D
100
AcDbEntity
  8
BLACK
100
AcDbCircle
 10
95.718409
 20
-1.9577
 30
0.0
 40
2.075055869779173
100
AcDbArc
 50
77.99947445
 51
168.00001057
  0
ARC
  5
5A1
330
1D
100
AcDbEntity
  8
BLACK
100
AcDbCircle
 10
93.649609
 20
-11.6903
 30
0.0
 40
2.074962908025346
100
AcDbArc
 50
167.99889053
 51
258.00000132
  0
ARC
  5
5A2
330
1D
100
AcDbEntity
  8
BLACK
100
AcDbCircle
 10
106.037809
 20
-4.1511
 30
0.0
 40
2.074933294274782
100
AcDbArc
 50
347.99768447
 51
77.99999688
  0
ARC
  5
5A3
330
1D
100
AcDbEntity
  8
BLACK
100
AcDbCircle
 10
103.969009
 20
-13.8837
 30
0.0
 40
2.07508450538213
100
AcDbArc
 50
257.99946167
 51
348.00000926
  0
LINE
  5
5A4
330
1D
100
AcDbEntity
  8
BLACK
  6
Continuous
100
AcDbLine
 10
62.47498299999999
 20
-33.845568
 30
0.0
 11
60.406262
 21
-43.578135
 31
0.0
  0
LINE
  5
5A5
330
1D
100
AcDbEntity
  8
BLACK
  6
Continuous
100
AcDbLine
 10
75.255515
 20
-34.440795
 30
0.0
 11
64.93614699999999
 21
-32.247345
 31
0.0
  0
LINE
  5
5A6
330
1D
100
AcDbEntity
  8
BLACK
  6
Continuous
100
AcDbLine
 10
72.323871
 20
-48.232657
 30
0.0
 11
62.004503
 21
-46.039207
 31
0.0
  0
LINE
  5
5A7
330
1D
100
AcDbEntity
  8
BLACK
  6
Continuous
100
AcDbLine
 10
76.853754
 20
-36.901868
 30
0.0
 11
74.785033
 21
-46.634431
 31
0.0
  0
ARC
  5
5A8
330
1D
100
AcDbEntity
  8
BLACK
100
AcDbCircle
 10
64.50470899999999
 20
-34.277
 30
0.0
 40
2.075071373639953
100
AcDbArc
 50
77.99947954000001
 51
167.99998865
  0
ARC
  5
5A9
330
1D
100
AcDbEntity
  8
BLACK
100
AcDbCircle
 10
62.435909
 20
-44.0096
 30
0.0
 40
2.074948590223864
100
AcDbArc
 50
167.99832802
 51
258.00000197
  0
ARC
  5
5AA
330
1D
100
AcDbEntity
  8
BLACK
100
AcDbCircle
 10
74.82410899999999
 20
-36.4704
 30
0.0
 40
2.07494663392869
100
AcDbArc
 50
347.99824125
 51
77.99999049
  0
ARC
  5
5AB
330
1D
100
AcDbEntity
  8
BLACK
100
AcDbCircle
 10
72.755309
 20
-46.203
 30
0.0
 40
2.075069209433025
100
AcDbArc
 50
257.99940256
 51
348.00000417
  0
LINE
  5
5AC
330
1D
100
AcDbEntity
  8
BLACK
  6
Continuous
100
AcDbLine
 10
40.776258
 20
-35.26503
 30
0.0
 11
40.776258
 21
-45.200834
 31
0.0
  0
LINE
  5
5AD
330
1D
100
AcDbEntity
  8
BLACK
  6
Continuous
100
AcDbLine
 10
53.401309
 20
-33.189999
 30
0.0
 11
42.851289
 21
-33.189999
 31
0.0
  0
LINE
  5
5AE
330
1D
100
AcDbEntity
  8
BLACK
  6
Continuous
100
AcDbLine
 10
53.394848
 20
-47.28999899999999
 30
0.0
 11
42.851409
 21
-47.28999899999999
 31
0.0
  0
LINE
  5
5AF
330
1D
100
AcDbEntity
  8
BLACK
  6
Continuous
100
AcDbLine
 10
55.47625799999999
 20
-35.264999
 30
0.0
 11
55.47625799999999
 21
-45.21503999999999
 31
0.0
  0
ARC
  5
5B0
330
1D
100
AcDbEntity
  8
BLACK
100
AcDbCircle
 10
42.851299
 20
-35.26504
 30
0.0
 40
2.075041000024096
100
AcDbArc
 50
90.00027611999998
 51
179.99972388
  0
ARC
  5
5B1
330
1D
100
AcDbEntity
  8
BLACK
100
AcDbCircle
 10
42.851409
 20
-45.2148
 30
0.0
 40
2.075199
100
AcDbArc
 50
179.61439877
 51
270.0
  0
ARC
  5
5B2
330
1D
100
AcDbEntity
  8
BLACK
100
AcDbCircle
 10
53.401309
 20
-35.2649
 30
0.0
 40
2.074901
100
AcDbArc
 50
359.9972662399999
 51
90.0
  0
ARC
  5
5B3
330
1D
100
AcDbEntity
  8
BLACK
100
AcDbCircle
 10
53.401309
 20
-45.215
 30
0.0
 40
2.074949000385552
100
AcDbArc
 50
269.82159662
 51
359.99889548
  0
LINE
  5
5B4
330
1D
100
AcDbEntity
  8
BLACK
  6
Continuous
100
AcDbLine
 10
105.092409
 20
-62.37699499999999
 30
0.0
 11
103.022484
 21
-72.115225
 31
0.0
  0
LINE
  5
5B5
330
1D
100
AcDbEntity
  8
BLACK
  6
Continuous
100
AcDbLine
 10
117.872929
 20
-62.97222799999999
 30
0.0
 11
107.563166
 21
-60.78082
 31
0.0
  0
LINE
  5
5B6
330
1D
100
AcDbEntity
  8
BLACK
  6
Continuous
100
AcDbLine
 10
114.932055
 20
-76.76212799999999
 30
0.0
 11
104.621896
 21
-74.570636
 31
0.0
  0
LINE
  5
5B7
330
1D
100
AcDbEntity
  8
BLACK
  6
Continuous
100
AcDbLine
 10
119.470054
 20
-65.43858999999999
 30
0.0
 11
117.402447
 21
-75.165913
 31
0.0
  0
ARC
  5
5B8
330
1D
100
AcDbEntity
  8
BLACK
100
AcDbCircle
 10
107.122009
 20
-62.8084
 30
0.0
 40
2.074942513426576
100
AcDbArc
 50
77.72499855
 51
167.99999453
  0
ARC
  5
5B9
330
1D
100
AcDbEntity
  8
BLACK
100
AcDbCircle
 10
105.053309
 20
-72.541
 30
0.0
 40
2.07497939003379
100
AcDbArc
 50
168.15908988
 51
257.99998513
  0
ARC
  5
5BA
330
1D
100
AcDbEntity
  8
BLACK
100
AcDbCircle
 10
117.441509
 20
-65.00189999999999
 30
0.0
 40
2.075016058729185
100
AcDbArc
 50
347.85119614
 51
78.00000275000001
  0
ARC
  5
5BB
330
1D
100
AcDbEntity
  8
BLACK
100
AcDbCircle
 10
115.372809
 20
-74.7345
 30
0.0
 40
2.074981346328925
100
AcDbArc
 50
257.7361624500001
 51
347.99999662
  0
LINE
  5
5BC
330
1D
100
AcDbEntity
  8
BLACK
  6
Continuous
100
AcDbLine
 10
53.360008
 20
4.975
 30
0.0
 11
53.360008
 21
-4.975001
 31
0.0
  0
LINE
  5
5BD
330
1D
100
AcDbEntity
  8
BLACK
  6
Continuous
100
AcDbLine
 10
65.98500899999999
 20
7.05
 30
0.0
 11
55.435009
 21
7.05
 31
0.0
  0
LINE
  5
5BE
330
1D
100
AcDbEntity
  8
BLACK
  6
Continuous
100
AcDbLine
 10
65.98500899999999
 20
-7.05
 30
0.0
 11
55.435009
 21
-7.05
 31
0.0
  0
LINE
  5
5BF
330
1D
100
AcDbEntity
  8
BLACK
  6
Continuous
100
AcDbLine
 10
68.060008
 20
4.975
 30
0.0
 11
68.060008
 21
-4.975
 31
0.0
  0
ARC
  5
5C0
330
1D
100
AcDbEntity
  8
BLACK
100
AcDbCircle
 10
55.435009
 20
4.975
 30
0.0
 40
2.075001
100
AcDbArc
 50
90.0
 51
180.0
  0
ARC
  5
5C1
330
1D
100
AcDbEntity
  8
BLACK
100
AcDbCircle
 10
55.435009
 20
-4.975
 30
0.0
 40
2.075
100
AcDbArc
 50
180.00002761
 51
270.0
  0
ARC
  5
5C2
330
1D
100
AcDbEntity
  8
BLACK
100
AcDbCircle
 10
65.98500899999999
 20
4.975
 30
0.0
 40
2.075
100
AcDbArc
 50
0.0
 51
90.0
  0
ARC
  5
5C3
330
1D
100
AcDbEntity
  8
BLACK
100
AcDbCircle
 10
65.98500899999999
 20
-4.975
 30
0.0
 40
2.074999
100
AcDbArc
 50
270.0
 51
0.0
  0
LINE
  5
5C4
330
1D
100
AcDbEntity
  8
BLACK
  6
Continuous
100
AcDbLine
 10
75.054983
 20
2.434432
 30
0.0
 11
72.986262
 21
-7.298134999999999
 31
0.0
  0
LINE
  5
5C5
330
1D
100
AcDbEntity
  8
BLACK
  6
Continuous
100
AcDbLine
 10
87.835515
 20
1.839205
 30
0.0
 11
77.51614699999999
 21
4.032655
 31
0.0
  0
LINE
  5
5C6
330
1D
100
AcDbEntity
  8
BLACK
  6
Continuous
100
AcDbLine
 10
84.903871
 20
-11.952657
 30
0.0
 11
74.584503
 21
-9.759207
 31
0.0
  0
LINE
  5
5C7
330
1D
100
AcDbEntity
  8
BLACK
  6
Continuous
100
AcDbLine
 10
89.433754
 20
-0.621868
 30
0.0
 11
87.365033
 21
-10.354431
 31
0.0
  0
ARC
  5
5C8
330
1D
100
AcDbEntity
  8
BLACK
100
AcDbCircle
 10
77.08470899999999
 20
2.003
 30
0.0
 40
2.075071373639953
100
AcDbArc
 50
77.99947954000001
 51
167.99998865
  0
ARC
  5
5C9
330
1D
100
AcDbEntity
  8
BLACK
100
AcDbCircle
 10
75.015909
 20
-7.7296
 30
0.0
 40
2.074948590223864
100
AcDbArc
 50
167.99832802
 51
258.00000197
  0
ARC
  5
5CA
330
1D
100
AcDbEntity
  8
BLACK
100
AcDbCircle
 10
87.40410899999999
 20
-0.1904
 30
0.0
 40
2.07494663392869
100
AcDbArc
 50
347.99823551
 51
77.99999049
  0
ARC
  5
5CB
330
1D
100
AcDbEntity
  8
BLACK
100
AcDbCircle
 10
85.335309
 20
-9.923
 30
0.0
 40
2.075069209433025
100
AcDbArc
 50
257.99940256
 51
348.00000417
  0
LINE
  5
5CC
330
1D
100
AcDbEntity
  8
BLACK
  6
Continuous
100
AcDbLine
 10
86.458698
 20
-58.416272
 30
0.0
 11
84.389974
 21
-68.14885199999999
 31
0.0
  0
LINE
  5
5CD
330
1D
100
AcDbEntity
  8
BLACK
  6
Continuous
100
AcDbLine
 10
99.239212
 20
-59.011509
 30
0.0
 11
88.919844
 21
-56.818059
 31
0.0
  0
LINE
  5
5CE
330
1D
100
AcDbEntity
  8
BLACK
  6
Continuous
100
AcDbLine
 10
96.30756799999999
 20
-72.803371
 30
0.0
 11
85.98819999999999
 21
-70.609921
 31
0.0
  0
LINE
  5
5CF
330
1D
100
AcDbEntity
  8
BLACK
  6
Continuous
100
AcDbLine
 10
100.837466
 20
-61.472585
 30
0.0
 11
98.768748
 21
-71.205134
 31
0.0
  0
ARC
  5
5D0
330
1D
100
AcDbEntity
  8
BLACK
100
AcDbCircle
 10
88.48840899999999
 20
-58.8477
 30
0.0
 40
2.075055869779173
100
AcDbArc
 50
77.99947445
 51
168.00001057
  0
ARC
  5
5D1
330
1D
100
AcDbEntity
  8
BLACK
100
AcDbCircle
 10
86.419609
 20
-68.5803
 30
0.0
 40
2.074962908025346
100
AcDbArc
 50
167.99889053
 51
258.00000132
  0
ARC
  5
5D2
330
1D
100
AcDbEntity
  8
BLACK
100
AcDbCircle
 10
98.80780899999999
 20
-61.0411
 30
0.0
 40
2.074933294274782
100
AcDbArc
 50
347.99768447
 51
77.99999688
  0
ARC
  5
5D3
330
1D
100
AcDbEntity
  8
BLACK
100
AcDbCircle
 10
96.739009
 20
-70.77369999999999
 30
0.0
 40
2.07508450538213
100
AcDbArc
 50
257.99946167
 51
348.00000926
  0
LINE
  5
5D4
330
1D
100
AcDbEntity
  8
BLACK
  6
Continuous
100
AcDbLine
 10
-7.349990999999999
 20
4.974996
 30
0.0
 11
-7.349990999999999
 21
-4.974997999999999
 31
0.0
  0
LINE
  5
5D5
330
1D
100
AcDbEntity
  8
BLACK
  6
Continuous
100
AcDbLine
 10
5.275009
 20
7.05
 30
0.0
 11
-5.274986999999999
 21
7.05
 31
0.0
  0
LINE
  5
5D6
330
1D
100
AcDbEntity
  8
BLACK
  6
Continuous
100
AcDbLine
 10
5.275009
 20
-7.05
 30
0.0
 11
-5.274989
 21
-7.05
 31
0.0
  0
LINE
  5
5D7
330
1D
100
AcDbEntity
  8
BLACK
  6
Continuous
100
AcDbLine
 10
7.350009
 20
4.975
 30
0.0
 11
7.350009
 21
-4.975
 31
0.0
  0
ARC
  5
5D8
330
1D
100
AcDbEntity
  8
BLACK
100
AcDbCircle
 10
-5.274986999999999
 20
4.974996
 30
0.0
 40
2.075004
100
AcDbArc
 50
90.0
 51
180.0
  0
ARC
  5
5D9
330
1D
100
AcDbEntity
  8
BLACK
100
AcDbCircle
 10
-5.274989
 20
-4.974997999999999
 30
0.0
 40
2.075002
100
AcDbArc
 50
180.0
 51
270.0
  0
ARC
  5
5DA
330
1D
100
AcDbEntity
  8
BLACK
100
AcDbCircle
 10
5.275009
 20
4.975
 30
0.0
 40
2.075
100
AcDbArc
 50
0.0
 51
90.0
  0
ARC
  5
5DB
330
1D
100
AcDbEntity
  8
BLACK
100
AcDbCircle
 10
5.275009
 20
-4.975
 30
0.0
 40
2.075
100
AcDbArc
 50
270.0
 51
0.0
  0
LINE
  5
5DC
330
1D
100
AcDbEntity
  8
BLACK
  6
Continuous
100
AcDbLine
 10
123.726124
 20
-66.337698
 30
0.0
 11
121.657398
 21
-76.07028799999999
 31
0.0
  0
LINE
  5
5DD
330
1D
100
AcDbEntity
  8
BLACK
  6
Continuous
100
AcDbLine
 10
136.506626
 20
-66.932943
 30
0.0
 11
126.196862
 21
-64.741535
 31
0.0
  0
LINE
  5
5DE
330
1D
100
AcDbEntity
  8
BLACK
  6
Continuous
100
AcDbLine
 10
133.565752
 20
-80.722843
 30
0.0
 11
123.255614
 21
-78.53135499999999
 31
0.0
  0
LINE
  5
5DF
330
1D
100
AcDbEntity
  8
BLACK
  6
Continuous
100
AcDbLine
 10
138.10489
 20
-69.39402299999999
 30
0.0
 11
136.036162
 21
-79.126616
 31
0.0
  0
ARC
  5
5E0
330
1D
100
AcDbEntity
  8
BLACK
100
AcDbCircle
 10
125.755709
 20
-66.7691
 30
0.0
 40
2.074927217477519
100
AcDbArc
 50
77.72501842
 51
167.99998944
  0
ARC
  5
5E1
330
1D
100
AcDbEntity
  8
BLACK
100
AcDbCircle
 10
123.687009
 20
-76.5018
 30
0.0
 40
2.074896417667639
100
AcDbArc
 50
167.99669105
 51
258.00000628
  0
ARC
  5
5E2
330
1D
100
AcDbEntity
  8
BLACK
100
AcDbCircle
 10
136.075209
 20
-68.9626
 30
0.0
 40
2.074999784632519
100
AcDbArc
 50
347.9999649100001
 51
77.99999192
  0
ARC
  5
5E3
330
1D
100
AcDbEntity
  8
BLACK
100
AcDbCircle
 10
134.006509
 20
-78.6952
 30
0.0
 40
2.074996642278006
100
AcDbArc
 50
257.73616948
 51
348.0000017
  0
LINE
  5
5E4
330
1D
100
AcDbEntity
  8
BLACK
  6
Continuous
100
AcDbLine
 10
252.950008
 20
2.835
 30
0.0
 11
252.950008
 21
-7.115000999999999
 31
0.0
  0
LINE
  5
5E5
330
1D
100
AcDbEntity
  8
BLACK
  6
Continuous
100
AcDbLine
 10
265.575009
 20
4.91
 30
0.0
 11
255.025009
 21
4.91
 31
0.0
  0
LINE
  5
5E6
330
1D
100
AcDbEntity
  8
BLACK
  6
Continuous
100
AcDbLine
 10
265.575009
 20
-9.19
 30
0.0
 11
255.025009
 21
-9.19
 31
0.0
  0
LINE
  5
5E7
330
1D
100
AcDbEntity
  8
BLACK
  6
Continuous
100
AcDbLine
 10
267.650008
 20
2.835
 30
0.0
 11
267.650008
 21
-7.114999999999999
 31
0.0
  0
ARC
  5
5E8
330
1D
100
AcDbEntity
  8
BLACK
100
AcDbCircle
 10
255.025009
 20
2.835
 30
0.0
 40
2.075001
100
AcDbArc
 50
90.0
 51
180.0
  0
ARC
  5
5E9
330
1D
100
AcDbEntity
  8
BLACK
100
AcDbCircle
 10
255.025009
 20
-7.114999999999999
 30
0.0
 40
2.075
100
AcDbArc
 50
180.00002761
 51
270.0
  0
ARC
  5
5EA
330
1D
100
AcDbEntity
  8
BLACK
100
AcDbCircle
 10
265.575009
 20
2.835
 30
0.0
 40
2.075
100
AcDbArc
 50
0.0
 51
90.0
  0
ARC
  5
5EB
330
1D
100
AcDbEntity
  8
BLACK
100
AcDbCircle
 10
265.575009
 20
-7.114999999999999
 30
0.0
 40
2.074999
100
AcDbArc
 50
270.0
 51
0.0
  0
LINE
  5
5EC
330
1D
100
AcDbEntity
  8
BLACK
  6
Continuous
100
AcDbLine
 10
215.656276
 20
-77.501933
 30
0.0
 11
217.724984
 21
-87.234436
 31
0.0
  0
LINE
  5
5ED
330
1D
100
AcDbEntity
  8
BLACK
  6
Continuous
100
AcDbLine
 10
227.574007
 20
-72.847315
 30
0.0
 11
217.24797
 21
-75.042183
 31
0.0
  0
LINE
  5
5EE
330
1D
100
AcDbEntity
  8
BLACK
  6
Continuous
100
AcDbLine
 10
230.499463
 20
-86.64049299999999
 30
0.0
 11
220.186011
 21
-88.832685
 31
0.0
  0
LINE
  5
5EF
330
1D
100
AcDbEntity
  8
BLACK
  6
Continuous
100
AcDbLine
 10
230.035032
 20
-74.445565
 30
0.0
 11
232.10374
 21
-84.178067
 31
0.0
  0
ARC
  5
5F0
330
1D
100
AcDbEntity
  8
BLACK
100
AcDbCircle
 10
217.686009
 20
-77.0705
 30
0.0
 40
2.075078428584809
100
AcDbArc
 50
102.18654231
 51
191.99999817
  0
ARC
  5
5F1
330
1D
100
AcDbEntity
  8
BLACK
100
AcDbCircle
 10
219.754609
 20
-86.8031
 30
0.0
 40
2.074927217477519
100
AcDbArc
 50
191.99801247
 51
282.00001056
  0
ARC
  5
5F2
330
1D
100
AcDbEntity
  8
BLACK
100
AcDbCircle
 10
228.005409
 20
-74.87689999999999
 30
0.0
 40
2.074927217477519
100
AcDbArc
 50
11.99812051
 51
102.00001056
  0
ARC
  5
5F3
330
1D
100
AcDbEntity
  8
BLACK
100
AcDbCircle
 10
230.074009
 20
-84.6095
 30
0.0
 40
2.075076472289636
100
AcDbArc
 50
281.83128362
 51
12.00000966
  0
LINE
  5
5F4
330
1D
100
AcDbEntity
  8
BLACK
  6
Continuous
100
AcDbLine
 10
178.938843
 20
-44.823319
 30
0.0
 11
181.007561
 21
-54.555871
 31
0.0
  0
LINE
  5
5F5
330
1D
100
AcDbEntity
  8
BLACK
  6
Continuous
100
AcDbLine
 10
190.856477
 20
-40.168773
 30
0.0
 11
180.537088
 21
-42.362227
 31
0.0
  0
LINE
  5
5F6
330
1D
100
AcDbEntity
  8
BLACK
  6
Continuous
100
AcDbLine
 10
193.788091
 20
-53.960641
 30
0.0
 11
183.468617
 21
-56.154114
 31
0.0
  0
LINE
  5
5F7
330
1D
100
AcDbEntity
  8
BLACK
  6
Continuous
100
AcDbLine
 10
193.319151
 20
-41.774255
 30
0.0
 11
195.386336
 21
-51.499589
 31
0.0
  0
ARC
  5
5F8
330
1D
100
AcDbEntity
  8
BLACK
100
AcDbCircle
 10
180.968509
 20
-44.3919
 30
0.0
 40
2.075009981931894
100
AcDbArc
 50
102.00000469
 51
192.00000469
  0
ARC
  5
5F9
330
1D
100
AcDbEntity
  8
BLACK
100
AcDbCircle
 10
183.037209
 20
-54.1245
 30
0.0
 40
2.074955853080494
100
AcDbArc
 50
191.99882579
 51
282.00001186
  0
ARC
  5
5FA
330
1D
100
AcDbEntity
  8
BLACK
100
AcDbCircle
 10
191.287909
 20
-42.1985
 30
0.0
 40
2.075072351787523
100
AcDbArc
 50
11.79720092
 51
102.00000561
  0
ARC
  5
5FB
330
1D
100
AcDbEntity
  8
BLACK
100
AcDbCircle
 10
193.356709
 20
-51.931
 30
0.0
 40
2.074970170881981
100
AcDbArc
 50
281.9992005400001
 51
12.00001252
  0
LINE
  5
5FC
330
1D
100
AcDbEntity
  8
BLACK
  6
Continuous
100
AcDbLine
 10
197.572562
 20
-40.86263599999999
 30
0.0
 11
199.641273
 21
-50.595153
 31
0.0
  0
LINE
  5
5FD
330
1D
100
AcDbEntity
  8
BLACK
  6
Continuous
100
AcDbLine
 10
209.49031
 20
-36.208029
 30
0.0
 11
199.183325
 21
-38.398847
 31
0.0
  0
LINE
  5
5FE
330
1D
100
AcDbEntity
  8
BLACK
  6
Continuous
100
AcDbLine
 10
212.412472
 20
-50.001907
 30
0.0
 11
202.102314
 21
-52.193399
 31
0.0
  0
LINE
  5
5FF
330
1D
100
AcDbEntity
  8
BLACK
  6
Continuous
100
AcDbLine
 10
211.951321
 20
-37.806282
 30
0.0
 11
214.020051
 21
-47.538886
 31
0.0
  0
ARC
  5
600
330
1D
100
AcDbEntity
  8
BLACK
100
AcDbCircle
 10
199.602309
 20
-40.4312
 30
0.0
 40
2.075092746386291
100
AcDbArc
 50
101.64873488
 51
191.99999883
  0
ARC
  5
601
330
1D
100
AcDbEntity
  8
BLACK
100
AcDbCircle
 10
201.670909
 20
-50.16379999999999
 30
0.0
 40
2.074941535279006
100
AcDbArc
 50
191.9984085
 51
282.00001121
  0
ARC
  5
602
330
1D
100
AcDbEntity
  8
BLACK
100
AcDbCircle
 10
209.921709
 20
-38.2376
 30
0.0
 40
2.074911921528478
100
AcDbArc
 50
11.99773022
 51
102.00001564
  0
ARC
  5
603
330
1D
100
AcDbEntity
  8
BLACK
100
AcDbCircle
 10
211.990409
 20
-47.97029999999999
 30
0.0
 40
2.074985466831033
100
AcDbArc
 50
281.73616227
 51
12.00000743
  0
LINE
  5
604
330
1D
100
AcDbEntity
  8
BLACK
  6
Continuous
100
AcDbLine
 10
207.586277
 20
-19.251933
 30
0.0
 11
209.654985
 21
-28.984435
 31
0.0
  0
LINE
  5
605
330
1D
100
AcDbEntity
  8
BLACK
  6
Continuous
100
AcDbLine
 10
219.504007
 20
-14.597314
 30
0.0
 11
209.178601
 21
-16.792048
 31
0.0
  0
LINE
  5
606
330
1D
100
AcDbEntity
  8
BLACK
  6
Continuous
100
AcDbLine
 10
222.428832
 20
-28.390626
 30
0.0
 11
212.11601
 21
-30.582684
 31
0.0
  0
LINE
  5
607
330
1D
100
AcDbEntity
  8
BLACK
  6
Continuous
100
AcDbLine
 10
221.965033
 20
-16.195564
 30
0.0
 11
224.033741
 21
-25.928067
 31
0.0
  0
ARC
  5
608
330
1D
100
AcDbEntity
  8
BLACK
100
AcDbCircle
 10
209.616009
 20
-18.8205
 30
0.0
 40
2.075077450437212
100
AcDbArc
 50
102.16872527
 51
192.00000392
  0
ARC
  5
609
330
1D
100
AcDbEntity
  8
BLACK
100
AcDbCircle
 10
211.684609
 20
-28.5531
 30
0.0
 40
2.074926031418229
100
AcDbArc
 50
191.9979912
 51
281.99998929
  0
ARC
  5
60A
330
1D
100
AcDbEntity
  8
BLACK
100
AcDbCircle
 10
219.935409
 20
-16.6269
 30
0.0
 40
2.074928195625092
100
AcDbArc
 50
11.99814752
 51
102.00000481
  0
ARC
  5
60B
330
1D
100
AcDbEntity
  8
BLACK
100
AcDbCircle
 10
222.004009
 20
-26.3595
 30
0.0
 40
2.075077450437212
100
AcDbArc
 50
281.81347803
 51
12.00000392
  0
LINE
  5
60C
330
1D
100
AcDbEntity
  8
BLACK
  6
Continuous
100
AcDbLine
 10
256.630009
 20
-35.265
 30
0.0
 11
256.630009
 21
-45.215001
 31
0.0
  0
LINE
  5
60D
330
1D
100
AcDbEntity
  8
BLACK
  6
Continuous
100
AcDbLine
 10
269.255009
 20
-33.19
 30
0.0
 11
258.705009
 21
-33.19
 31
0.0
  0
LINE
  5
60E
330
1D
100
AcDbEntity
  8
BLACK
  6
Continuous
100
AcDbLine
 10
269.255009
 20
-47.29
 30
0.0
 11
258.705009
 21
-47.29
 31
0.0
  0
LINE
  5
60F
330
1D
100
AcDbEntity
  8
BLACK
  6
Continuous
100
AcDbLine
 10
271.330009
 20
-35.265
 30
0.0
 11
271.330009
 21
-45.215
 31
0.0
  0
ARC
  5
610
330
1D
100
AcDbEntity
  8
BLACK
100
AcDbCircle
 10
258.705009
 20
-35.265
 30
0.0
 40
2.075
100
AcDbArc
 50
90.0
 51
180.0
  0
ARC
  5
611
330
1D
100
AcDbEntity
  8
BLACK
100
AcDbCircle
 10
258.705009
 20
-45.215
 30
0.0
 40
2.075
100
AcDbArc
 50
180.00002761
 51
270.0
  0
ARC
  5
612
330
1D
100
AcDbEntity
  8
BLACK
100
AcDbCircle
 10
269.255009
 20
-35.265
 30
0.0
 40
2.075
100
AcDbArc
 50
0.0
 51
90.0
  0
ARC
  5
613
330
1D
100
AcDbEntity
  8
BLACK
100
AcDbCircle
 10
269.255009
 20
-45.215
 30
0.0
 40
2.075
100
AcDbArc
 50
270.0
 51
0.0
  0
LINE
  5
614
330
1D
100
AcDbEntity
  8
BLACK
  6
Continuous
100
AcDbLine
 10
212.946276
 20
1.358067
 30
0.0
 11
215.014984
 21
-8.374436
 31
0.0
  0
LINE
  5
615
330
1D
100
AcDbEntity
  8
BLACK
  6
Continuous
100
AcDbLine
 10
224.864007
 20
6.012684999999999
 30
0.0
 11
214.53797
 21
3.817817
 31
0.0
  0
LINE
  5
616
330
1D
100
AcDbEntity
  8
BLACK
  6
Continuous
100
AcDbLine
 10
227.789463
 20
-7.780493
 30
0.0
 11
217.476011
 21
-9.972685
 31
0.0
  0
LINE
  5
617
330
1D
100
AcDbEntity
  8
BLACK
  6
Continuous
100
AcDbLine
 10
227.325032
 20
4.414435
 30
0.0
 11
229.39374
 21
-5.318067
 31
0.0
  0
ARC
  5
618
330
1D
100
AcDbEntity
  8
BLACK
100
AcDbCircle
 10
214.976009
 20
1.7895
 30
0.0
 40
2.075078428584809
100
AcDbArc
 50
102.18654231
 51
191.99999817
  0
ARC
  5
619
330
1D
100
AcDbEntity
  8
BLACK
100
AcDbCircle
 10
217.044609
 20
-7.943099999999999
 30
0.0
 40
2.074927217477519
100
AcDbArc
 50
191.99801247
 51
282.00001056
  0
ARC
  5
61A
330
1D
100
AcDbEntity
  8
BLACK
100
AcDbCircle
 10
225.295409
 20
3.9831
 30
0.0
 40
2.074927217477519
100
AcDbArc
 50
11.99813199
 51
102.00001056
  0
ARC
  5
61B
330
1D
100
AcDbEntity
  8
BLACK
100
AcDbCircle
 10
227.364009
 20
-5.749499999999999
 30
0.0
 40
2.075076472289636
100
AcDbArc
 50
281.83128362
 51
12.00000966
  0
LINE
  5
61C
330
1D
100
AcDbEntity
  8
BLACK
  6
Continuous
100
AcDbLine
 10
216.206277
 20
-36.901933
 30
0.0
 11
218.274985
 21
-46.634436
 31
0.0
  0
LINE
  5
61D
330
1D
100
AcDbEntity
  8
BLACK
  6
Continuous
100
AcDbLine
 10
228.124007
 20
-32.247315
 30
0.0
 11
217.79797
 21
-34.442184
 31
0.0
  0
LINE
  5
61E
330
1D
100
AcDbEntity
  8
BLACK
  6
Continuous
100
AcDbLine
 10
231.049139
 20
-46.040561
 30
0.0
 11
220.736011
 21
-48.232685
 31
0.0
  0
LINE
  5
61F
330
1D
100
AcDbEntity
  8
BLACK
  6
Continuous
100
AcDbLine
 10
230.585033
 20
-33.845565
 30
0.0
 11
232.653741
 21
-43.578067
 31
0.0
  0
ARC
  5
620
330
1D
100
AcDbEntity
  8
BLACK
100
AcDbCircle
 10
218.236009
 20
-36.4705
 30
0.0
 40
2.075077450437212
100
AcDbArc
 50
102.18654814
 51
192.00000392
  0
ARC
  5
621
330
1D
100
AcDbEntity
  8
BLACK
100
AcDbCircle
 10
220.304609
 20
-46.2031
 30
0.0
 40
2.074927217477519
100
AcDbArc
 50
191.99801247
 51
282.00001056
  0
ARC
  5
622
330
1D
100
AcDbEntity
  8
BLACK
100
AcDbCircle
 10
228.555409
 20
-34.2769
 30
0.0
 40
2.074927217477519
100
AcDbArc
 50
11.99812051
 51
102.00001056
  0
ARC
  5
623
330
1D
100
AcDbEntity
  8
BLACK
100
AcDbCircle
 10
230.624009
 20
-44.0095
 30
0.0
 40
2.075077450437212
100
AcDbArc
 50
281.82214262
 51
12.00000392
  0
LINE
  5
624
330
1D
100
AcDbEntity
  8
BLACK
  6
Continuous
100
AcDbLine
 10
192.212562
 20
-61.47263599999999
 30
0.0
 11
194.281273
 21
-71.205153
 31
0.0
  0
LINE
  5
625
330
1D
100
AcDbEntity
  8
BLACK
  6
Continuous
100
AcDbLine
 10
204.13031
 20
-56.818029
 30
0.0
 11
193.823325
 21
-59.008847
 31
0.0
  0
LINE
  5
626
330
1D
100
AcDbEntity
  8
BLACK
  6
Continuous
100
AcDbLine
 10
207.052472
 20
-70.611907
 30
0.0
 11
196.742314
 21
-72.803399
 31
0.0
  0
LINE
  5
627
330
1D
100
AcDbEntity
  8
BLACK
  6
Continuous
100
AcDbLine
 10
206.591321
 20
-58.416282
 30
0.0
 11
208.660051
 21
-68.14888599999999
 31
0.0
  0
ARC
  5
628
330
1D
100
AcDbEntity
  8
BLACK
100
AcDbCircle
 10
194.242309
 20
-61.0412
 30
0.0
 40
2.075092746386291
100
AcDbArc
 50
101.64873488
 51
191.99999883
  0
ARC
  5
629
330
1D
100
AcDbEntity
  8
BLACK
100
AcDbCircle
 10
196.310909
 20
-70.7738
 30
0.0
 40
2.074941535279006
100
AcDbArc
 50
191.9984085
 51
282.00001121
  0
ARC
  5
62A
330
1D
100
AcDbEntity
  8
BLACK
100
AcDbCircle
 10
204.561709
 20
-58.8476
 30
0.0
 40
2.074911921528478
100
AcDbArc
 50
11.99773022
 51
102.00001564
  0
ARC
  5
62B
330
1D
100
AcDbEntity
  8
BLACK
100
AcDbCircle
 10
206.630409
 20
-68.5803
 30
0.0
 40
2.074985466831033
100
AcDbArc
 50
281.73616227
 51
12.00000743
  0
LINE
  5
62C
330
1D
100
AcDbEntity
  8
BLACK
  6
Continuous
100
AcDbLine
 10
210.846276
 20
-57.511933
 30
0.0
 11
212.914984
 21
-67.244435
 31
0.0
  0
LINE
  5
62D
330
1D
100
AcDbEntity
  8
BLACK
  6
Continuous
100
AcDbLine
 10
222.764007
 20
-52.857314
 30
0.0
 11
212.438277
 21
-55.052116
 31
0.0
  0
LINE
  5
62E
330
1D
100
AcDbEntity
  8
BLACK
  6
Continuous
100
AcDbLine
 10
225.689139
 20
-66.65056
 30
0.0
 11
215.376011
 21
-68.84268399999999
 31
0.0
  0
LINE
  5
62F
330
1D
100
AcDbEntity
  8
BLACK
  6
Continuous
100
AcDbLine
 10
225.225032
 20
-54.455564
 30
0.0
 11
227.29374
 21
-64.188067
 31
0.0
  0
ARC
  5
630
330
1D
100
AcDbEntity
  8
BLACK
100
AcDbCircle
 10
212.876009
 20
-57.0805
 30
0.0
 40
2.075078428584809
100
AcDbArc
 50
102.17786612
 51
191.99999817
  0
ARC
  5
631
330
1D
100
AcDbEntity
  8
BLACK
100
AcDbCircle
 10
214.944609
 20
-66.81309999999999
 30
0.0
 40
2.074926239329967
100
AcDbArc
 50
191.99796419
 51
282.0000163
  0
ARC
  5
632
330
1D
100
AcDbEntity
  8
BLACK
100
AcDbCircle
 10
223.195409
 20
-54.8869
 30
0.0
 40
2.074928195625092
100
AcDbArc
 50
11.99814752
 51
102.00000481
  0
ARC
  5
633
330
1D
100
AcDbEntity
  8
BLACK
100
AcDbCircle
 10
225.264009
 20
-64.6195
 30
0.0
 40
2.075076472289636
100
AcDbArc
 50
281.82214827
 51
12.00000966
  0
LINE
  5
634
330
1D
100
AcDbEntity
  8
BLACK
  6
Continuous
100
AcDbLine
 10
157.045128
 20
-10.524022
 30
0.0
 11
159.113849
 21
-20.256589
 31
0.0
  0
LINE
  5
635
330
1D
100
AcDbEntity
  8
BLACK
  6
Continuous
100
AcDbLine
 10
168.96278
 20
-5.869486999999999
 30
0.0
 11
158.633836
 21
-8.064973
 31
0.0
  0
LINE
  5
636
330
1D
100
AcDbEntity
  8
BLACK
  6
Continuous
100
AcDbLine
 10
171.882209
 20
-19.663946
 30
0.0
 11
161.57492
 21
-21.854828
 31
0.0
  0
LINE
  5
637
330
1D
100
AcDbEntity
  8
BLACK
  6
Continuous
100
AcDbLine
 10
171.425436
 20
-7.474958
 30
0.0
 11
173.492616
 21
-17.200272
 31
0.0
  0
ARC
  5
638
330
1D
100
AcDbEntity
  8
BLACK
100
AcDbCircle
 10
159.074809
 20
-10.0926
 30
0.0
 40
2.075025277880971
100
AcDbArc
 50
102.26975247
 51
191.9999996
  0
ARC
  5
639
330
1D
100
AcDbEntity
  8
BLACK
100
AcDbCircle
 10
161.143509
 20
-19.8252
 30
0.0
 40
2.074971149029547
100
AcDbArc
 50
191.99922181
 51
282.00000678
  0
ARC
  5
63A
330
1D
100
AcDbEntity
  8
BLACK
100
AcDbCircle
 10
169.394209
 20
-7.8992
 30
0.0
 40
2.075058033986037
100
AcDbArc
 50
11.79720451
 51
102.00000496
  0
ARC
  5
63B
330
1D
100
AcDbEntity
  8
BLACK
100
AcDbCircle
 10
171.462909
 20
-17.6317
 30
0.0
 40
2.075051957188783
100
AcDbArc
 50
281.65787703
 51
12.00001239
  0
LINE
  5
63C
330
1D
100
AcDbEntity
  8
BLACK
  6
Continuous
100
AcDbLine
 10
290.460008
 20
-16.215
 30
0.0
 11
290.460008
 21
-26.165001
 31
0.0
  0
LINE
  5
63D
330
1D
100
AcDbEntity
  8
BLACK
  6
Continuous
100
AcDbLine
 10
303.085009
 20
-14.14
 30
0.0
 11
292.535009
 21
-14.14
 31
0.0
  0
LINE
  5
63E
330
1D
100
AcDbEntity
  8
BLACK
  6
Continuous
100
AcDbLine
 10
303.085009
 20
-28.24
 30
0.0
 11
292.535009
 21
-28.24
 31
0.0
  0
LINE
  5
63F
330
1D
100
AcDbEntity
  8
BLACK
  6
Continuous
100
AcDbLine
 10
305.160008
 20
-16.215
 30
0.0
 11
305.160008
 21
-26.165
 31
0.0
  0
ARC
  5
640
330
1D
100
AcDbEntity
  8
BLACK
100
AcDbCircle
 10
292.535009
 20
-16.215
 30
0.0
 40
2.075001
100
AcDbArc
 50
90.0
 51
180.0
  0
ARC
  5
641
330
1D
100
AcDbEntity
  8
BLACK
100
AcDbCircle
 10
292.535009
 20
-26.165
 30
0.0
 40
2.075
100
AcDbArc
 50
180.00002761
 51
270.0
  0
ARC
  5
642
330
1D
100
AcDbEntity
  8
BLACK
100
AcDbCircle
 10
303.085009
 20
-16.215
 30
0.0
 40
2.075
100
AcDbArc
 50
0.0
 51
90.0
  0
ARC
  5
643
330
1D
100
AcDbEntity
  8
BLACK
100
AcDbCircle
 10
303.085009
 20
-26.165
 30
0.0
 40
2.074999
100
AcDbArc
 50
270.0
 51
0.0
  0
LINE
  5
644
330
1D
100
AcDbEntity
  8
BLACK
  6
Continuous
100
AcDbLine
 10
266.640009
 20
-16.215
 30
0.0
 11
266.640009
 21
-26.165001
 31
0.0
  0
LINE
  5
645
330
1D
100
AcDbEntity
  8
BLACK
  6
Continuous
100
AcDbLine
 10
279.265009
 20
-14.14
 30
0.0
 11
268.715009
 21
-14.14
 31
0.0
  0
LINE
  5
646
330
1D
100
AcDbEntity
  8
BLACK
  6
Continuous
100
AcDbLine
 10
279.265009
 20
-28.24
 30
0.0
 11
268.715009
 21
-28.24
 31
0.0
  0
LINE
  5
647
330
1D
100
AcDbEntity
  8
BLACK
  6
Continuous
100
AcDbLine
 10
281.340009
 20
-16.215
 30
0.0
 11
281.340009
 21
-26.165
 31
0.0
  0
ARC
  5
648
330
1D
100
AcDbEntity
  8
BLACK
100
AcDbCircle
 10
268.715009
 20
-16.215
 30
0.0
 40
2.075
100
AcDbArc
 50
90.0
 51
180.0
  0
ARC
  5
649
330
1D
100
AcDbEntity
  8
BLACK
100
AcDbCircle
 10
268.715009
 20
-26.165
 30
0.0
 40
2.075
100
AcDbArc
 50
180.00002761
 51
270.0
  0
ARC
  5
64A
330
1D
100
AcDbEntity
  8
BLACK
100
AcDbCircle
 10
279.265009
 20
-16.215
 30
0.0
 40
2.075
100
AcDbArc
 50
0.0
 51
90.0
  0
ARC
  5
64B
330
1D
100
AcDbEntity
  8
BLACK
100
AcDbCircle
 10
279.265009
 20
-26.165
 30
0.0
 40
2.075
100
AcDbArc
 50
270.0
 51
0.0
  0
LINE
  5
64C
330
1D
100
AcDbEntity
  8
BLACK
  6
Continuous
100
AcDbLine
 10
151.685128
 20
-31.134022
 30
0.0
 11
153.753849
 21
-40.866589
 31
0.0
  0
LINE
  5
64D
330
1D
100
AcDbEntity
  8
BLACK
  6
Continuous
100
AcDbLine
 10
163.60278
 20
-26.479487
 30
0.0
 11
153.273836
 21
-28.674973
 31
0.0
  0
LINE
  5
64E
330
1D
100
AcDbEntity
  8
BLACK
  6
Continuous
100
AcDbLine
 10
166.522209
 20
-40.273946
 30
0.0
 11
156.21492
 21
-42.464828
 31
0.0
  0
LINE
  5
64F
330
1D
100
AcDbEntity
  8
BLACK
  6
Continuous
100
AcDbLine
 10
166.065436
 20
-28.084958
 30
0.0
 11
168.132616
 21
-37.810272
 31
0.0
  0
ARC
  5
650
330
1D
100
AcDbEntity
  8
BLACK
100
AcDbCircle
 10
153.714809
 20
-30.7026
 30
0.0
 40
2.075025277880971
100
AcDbArc
 50
102.26975247
 51
191.9999996
  0
ARC
  5
651
330
1D
100
AcDbEntity
  8
BLACK
100
AcDbCircle
 10
155.783509
 20
-40.43519999999999
 30
0.0
 40
2.074971149029547
100
AcDbArc
 50
191.99922181
 51
282.00000678
  0
ARC
  5
652
330
1D
100
AcDbEntity
  8
BLACK
100
AcDbCircle
 10
164.034209
 20
-28.5092
 30
0.0
 40
2.075058033986037
100
AcDbArc
 50
11.79720451
 51
102.00000496
  0
ARC
  5
653
330
1D
100
AcDbEntity
  8
BLACK
100
AcDbCircle
 10
166.102909
 20
-38.2417
 30
0.0
 40
2.075051957188783
100
AcDbArc
 50
281.65787703
 51
12.00001239
  0
LINE
  5
654
330
1D
100
AcDbEntity
  8
BLACK
  6
Continuous
100
AcDbLine
 10
232.220009
 20
-54.315
 30
0.0
 11
232.220009
 21
-64.265001
 31
0.0
  0
LINE
  5
655
330
1D
100
AcDbEntity
  8
BLACK
  6
Continuous
100
AcDbLine
 10
244.845009
 20
-52.23999999999999
 30
0.0
 11
234.295009
 21
-52.23999999999999
 31
0.0
  0
LINE
  5
656
330
1D
100
AcDbEntity
  8
BLACK
  6
Continuous
100
AcDbLine
 10
244.845009
 20
-66.34
 30
0.0
 11
234.295009
 21
-66.34
 31
0.0
  0
LINE
  5
657
330
1D
100
AcDbEntity
  8
BLACK
  6
Continuous
100
AcDbLine
 10
246.920009
 20
-54.315
 30
0.0
 11
246.920009
 21
-64.265
 31
0.0
  0
ARC
  5
658
330
1D
100
AcDbEntity
  8
BLACK
100
AcDbCircle
 10
234.295009
 20
-54.315
 30
0.0
 40
2.075
100
AcDbArc
 50
90.0
 51
180.0
  0
ARC
  5
659
330
1D
100
AcDbEntity
  8
BLACK
100
AcDbCircle
 10
234.295009
 20
-64.265
 30
0.0
 40
2.075
100
AcDbArc
 50
180.00002761
 51
270.0
  0
ARC
  5
65A
330
1D
100
AcDbEntity
  8
BLACK
100
AcDbCircle
 10
244.845009
 20
-54.315
 30
0.0
 40
2.075
100
AcDbArc
 50
0.0
 51
90.0
  0
ARC
  5
65B
330
1D
100
AcDbEntity
  8
BLACK
100
AcDbCircle
 10
244.845009
 20
-64.265
 30
0.0
 40
2.075
100
AcDbArc
 50
270.0
 51
0.0
  0
LINE
  5
65C
330
1D
100
AcDbEntity
  8
BLACK
  6
Continuous
100
AcDbLine
 10
160.305128
 20
-48.784022
 30
0.0
 11
162.373849
 21
-58.516589
 31
0.0
  0
LINE
  5
65D
330
1D
100
AcDbEntity
  8
BLACK
  6
Continuous
100
AcDbLine
 10
172.22278
 20
-44.129487
 30
0.0
 11
161.893836
 21
-46.324973
 31
0.0
  0
LINE
  5
65E
330
1D
100
AcDbEntity
  8
BLACK
  6
Continuous
100
AcDbLine
 10
175.142209
 20
-57.923946
 30
0.0
 11
164.83492
 21
-60.114828
 31
0.0
  0
LINE
  5
65F
330
1D
100
AcDbEntity
  8
BLACK
  6
Continuous
100
AcDbLine
 10
174.685436
 20
-45.734958
 30
0.0
 11
176.752616
 21
-55.460272
 31
0.0
  0
ARC
  5
660
330
1D
100
AcDbEntity
  8
BLACK
100
AcDbCircle
 10
162.334809
 20
-48.3526
 30
0.0
 40
2.075025277880971
100
AcDbArc
 50
102.26975247
 51
191.9999996
  0
ARC
  5
661
330
1D
100
AcDbEntity
  8
BLACK
100
AcDbCircle
 10
164.403509
 20
-58.0852
 30
0.0
 40
2.074971149029547
100
AcDbArc
 50
191.99922181
 51
282.00000678
  0
ARC
  5
662
330
1D
100
AcDbEntity
  8
BLACK
100
AcDbCircle
 10
172.654209
 20
-46.1592
 30
0.0
 40
2.075058033986037
100
AcDbArc
 50
11.79720451
 51
102.00000496
  0
ARC
  5
663
330
1D
100
AcDbEntity
  8
BLACK
100
AcDbCircle
 10
174.722909
 20
-55.8917
 30
0.0
 40
2.075051957188783
100
AcDbArc
 50
281.65787703
 51
12.00001239
  0
LINE
  5
664
330
1D
100
AcDbEntity
  8
BLACK
  6
Continuous
100
AcDbLine
 10
237.580008
 20
-35.265
 30
0.0
 11
237.580008
 21
-45.215001
 31
0.0
  0
LINE
  5
665
330
1D
100
AcDbEntity
  8
BLACK
  6
Continuous
100
AcDbLine
 10
250.205009
 20
-33.19
 30
0.0
 11
239.655009
 21
-33.19
 31
0.0
  0
LINE
  5
666
330
1D
100
AcDbEntity
  8
BLACK
  6
Continuous
100
AcDbLine
 10
250.205009
 20
-47.29
 30
0.0
 11
239.655009
 21
-47.29
 31
0.0
  0
LINE
  5
667
330
1D
100
AcDbEntity
  8
BLACK
  6
Continuous
100
AcDbLine
 10
252.280008
 20
-35.265
 30
0.0
 11
252.280008
 21
-45.215
 31
0.0
  0
ARC
  5
668
330
1D
100
AcDbEntity
  8
BLACK
100
AcDbCircle
 10
239.655009
 20
-35.265
 30
0.0
 40
2.075001
100
AcDbArc
 50
90.0
 51
180.0
  0
ARC
  5
669
330
1D
100
AcDbEntity
  8
BLACK
100
AcDbCircle
 10
239.655009
 20
-45.215
 30
0.0
 40
2.075
100
AcDbArc
 50
180.00002761
 51
270.0
  0
ARC
  5
66A
330
1D
100
AcDbEntity
  8
BLACK
100
AcDbCircle
 10
250.205009
 20
-35.265
 30
0.0
 40
2.075
100
AcDbArc
 50
0.0
 51
90.0
  0
ARC
  5
66B
330
1D
100
AcDbEntity
  8
BLACK
100
AcDbCircle
 10
250.205009
 20
-45.215
 30
0.0
 40
2.074999
100
AcDbArc
 50
270.0
 51
0.0
  0
LINE
  5
66C
330
1D
100
AcDbEntity
  8
BLACK
  6
Continuous
100
AcDbLine
 10
234.320008
 20
4.975
 30
0.0
 11
234.320008
 21
-4.975001
 31
0.0
  0
LINE
  5
66D
330
1D
100
AcDbEntity
  8
BLACK
  6
Continuous
100
AcDbLine
 10
246.945009
 20
7.05
 30
0.0
 11
236.395009
 21
7.05
 31
0.0
  0
LINE
  5
66E
330
1D
100
AcDbEntity
  8
BLACK
  6
Continuous
100
AcDbLine
 10
246.945009
 20
-7.05
 30
0.0
 11
236.395009
 21
-7.05
 31
0.0
  0
LINE
  5
66F
330
1D
100
AcDbEntity
  8
BLACK
  6
Continuous
100
AcDbLine
 10
249.020008
 20
4.975
 30
0.0
 11
249.020008
 21
-4.975
 31
0.0
  0
ARC
  5
670
330
1D
100
AcDbEntity
  8
BLACK
100
AcDbCircle
 10
236.395009
 20
4.975
 30
0.0
 40
2.075001
100
AcDbArc
 50
90.0
 51
180.0
  0
ARC
  5
671
330
1D
100
AcDbEntity
  8
BLACK
100
AcDbCircle
 10
236.395009
 20
-4.975
 30
0.0
 40
2.075
100
AcDbArc
 50
180.00002761
 51
270.0
  0
ARC
  5
672
330
1D
100
AcDbEntity
  8
BLACK
100
AcDbCircle
 10
246.945009
 20
4.975
 30
0.0
 40
2.075
100
AcDbArc
 50
0.0
 51
90.0
  0
ARC
  5
673
330
1D
100
AcDbEntity
  8
BLACK
100
AcDbCircle
 10
246.945009
 20
-4.975
 30
0.0
 40
2.074999
100
AcDbArc
 50
270.0
 51
0.0
  0
LINE
  5
674
330
1D
100
AcDbEntity
  8
BLACK
  6
Continuous
100
AcDbLine
 10
170.318843
 20
-27.173319
 30
0.0
 11
172.387561
 21
-36.905871
 31
0.0
  0
LINE
  5
675
330
1D
100
AcDbEntity
  8
BLACK
  6
Continuous
100
AcDbLine
 10
182.236477
 20
-22.518773
 30
0.0
 11
171.917088
 21
-24.712227
 31
0.0
  0
LINE
  5
676
330
1D
100
AcDbEntity
  8
BLACK
  6
Continuous
100
AcDbLine
 10
185.168091
 20
-36.310641
 30
0.0
 11
174.848617
 21
-38.504114
 31
0.0
  0
LINE
  5
677
330
1D
100
AcDbEntity
  8
BLACK
  6
Continuous
100
AcDbLine
 10
184.699151
 20
-24.124255
 30
0.0
 11
186.766336
 21
-33.849589
 31
0.0
  0
ARC
  5
678
330
1D
100
AcDbEntity
  8
BLACK
100
AcDbCircle
 10
172.348509
 20
-26.7419
 30
0.0
 40
2.075009981931894
100
AcDbArc
 50
102.00000469
 51
192.00000469
  0
ARC
  5
679
330
1D
100
AcDbEntity
  8
BLACK
100
AcDbCircle
 10
174.417209
 20
-36.4745
 30
0.0
 40
2.074955853080494
100
AcDbArc
 50
191.99882579
 51
282.00001186
  0
ARC
  5
67A
330
1D
100
AcDbEntity
  8
BLACK
100
AcDbCircle
 10
182.667909
 20
-24.5485
 30
0.0
 40
2.075072351787523
100
AcDbArc
 50
11.79720092
 51
102.00000561
  0
ARC
  5
67B
330
1D
100
AcDbEntity
  8
BLACK
100
AcDbCircle
 10
184.736709
 20
-34.281
 30
0.0
 40
2.074970170881981
100
AcDbArc
 50
281.9992005400001
 51
12.00001252
  0
LINE
  5
67C
330
1D
100
AcDbEntity
  8
BLACK
  6
Continuous
100
AcDbLine
 10
173.578843
 20
-65.433319
 30
0.0
 11
175.647561
 21
-75.165871
 31
0.0
  0
LINE
  5
67D
330
1D
100
AcDbEntity
  8
BLACK
  6
Continuous
100
AcDbLine
 10
185.496477
 20
-60.77877299999999
 30
0.0
 11
175.177088
 21
-62.972227
 31
0.0
  0
LINE
  5
67E
330
1D
100
AcDbEntity
  8
BLACK
  6
Continuous
100
AcDbLine
 10
188.428091
 20
-74.570641
 30
0.0
 11
178.108617
 21
-76.76411399999999
 31
0.0
  0
LINE
  5
67F
330
1D
100
AcDbEntity
  8
BLACK
  6
Continuous
100
AcDbLine
 10
187.959151
 20
-62.384255
 30
0.0
 11
190.026336
 21
-72.109589
 31
0.0
  0
ARC
  5
680
330
1D
100
AcDbEntity
  8
BLACK
100
AcDbCircle
 10
175.608509
 20
-65.00189999999999
 30
0.0
 40
2.075009981931894
100
AcDbArc
 50
102.00000469
 51
192.00000469
  0
ARC
  5
681
330
1D
100
AcDbEntity
  8
BLACK
100
AcDbCircle
 10
177.677209
 20
-74.7345
 30
0.0
 40
2.074955853080494
100
AcDbArc
 50
191.99882579
 51
282.00001186
  0
ARC
  5
682
330
1D
100
AcDbEntity
  8
BLACK
100
AcDbCircle
 10
185.927909
 20
-62.8085
 30
0.0
 40
2.075072351787523
100
AcDbArc
 50
11.79720092
 51
102.00000561
  0
ARC
  5
683
330
1D
100
AcDbEntity
  8
BLACK
100
AcDbCircle
 10
187.996709
 20
-72.541
 30
0.0
 40
2.074970170881981
100
AcDbArc
 50
281.9992005400001
 51
12.00001252
  0
LINE
  5
684
330
1D
100
AcDbEntity
  8
BLACK
  6
Continuous
100
AcDbLine
 10
188.952562
 20
-23.212636
 30
0.0
 11
191.021273
 21
-32.945153
 31
0.0
  0
LINE
  5
685
330
1D
100
AcDbEntity
  8
BLACK
  6
Continuous
100
AcDbLine
 10
200.87031
 20
-18.558029
 30
0.0
 11
190.563325
 21
-20.748847
 31
0.0
  0
LINE
  5
686
330
1D
100
AcDbEntity
  8
BLACK
  6
Continuous
100
AcDbLine
 10
203.792472
 20
-32.351907
 30
0.0
 11
193.482314
 21
-34.543399
 31
0.0
  0
LINE
  5
687
330
1D
100
AcDbEntity
  8
BLACK
  6
Continuous
100
AcDbLine
 10
203.331321
 20
-20.156282
 30
0.0
 11
205.400051
 21
-29.888886
 31
0.0
  0
ARC
  5
688
330
1D
100
AcDbEntity
  8
BLACK
100
AcDbCircle
 10
190.982309
 20
-22.7812
 30
0.0
 40
2.075092746386291
100
AcDbArc
 50
101.64873488
 51
191.99999883
  0
ARC
  5
689
330
1D
100
AcDbEntity
  8
BLACK
100
AcDbCircle
 10
193.050909
 20
-32.5138
 30
0.0
 40
2.074941535279006
100
AcDbArc
 50
191.9984085
 51
282.00001121
  0
ARC
  5
68A
330
1D
100
AcDbEntity
  8
BLACK
100
AcDbCircle
 10
201.301709
 20
-20.5876
 30
0.0
 40
2.074911921528478
100
AcDbArc
 50
11.99773022
 51
102.00001564
  0
ARC
  5
68B
330
1D
100
AcDbEntity
  8
BLACK
100
AcDbCircle
 10
203.370409
 20
-30.3203
 30
0.0
 40
2.074985466831033
100
AcDbArc
 50
281.73616227
 51
12.00000743
  0
LINE
  5
68C
330
1D
100
AcDbEntity
  8
BLACK
  6
Continuous
100
AcDbLine
 10
228.960008
 20
-15.155
 30
0.0
 11
228.960008
 21
-25.105
 31
0.0
  0
LINE
  5
68D
330
1D
100
AcDbEntity
  8
BLACK
  6
Continuous
100
AcDbLine
 10
241.585009
 20
-13.079999
 30
0.0
 11
231.035009
 21
-13.079999
 31
0.0
  0
LINE
  5
68E
330
1D
100
AcDbEntity
  8
BLACK
  6
Continuous
100
AcDbLine
 10
241.585009
 20
-27.179999
 30
0.0
 11
231.035009
 21
-27.179999
 31
0.0
  0
LINE
  5
68F
330
1D
100
AcDbEntity
  8
BLACK
  6
Continuous
100
AcDbLine
 10
243.660008
 20
-15.155
 30
0.0
 11
243.660008
 21
-25.105
 31
0.0
  0
ARC
  5
690
330
1D
100
AcDbEntity
  8
BLACK
100
AcDbCircle
 10
231.035009
 20
-15.155
 30
0.0
 40
2.075001
100
AcDbArc
 50
90.0
 51
180.0
  0
ARC
  5
691
330
1D
100
AcDbEntity
  8
BLACK
100
AcDbCircle
 10
231.035009
 20
-25.105
 30
0.0
 40
2.074999
100
AcDbArc
 50
180.0
 51
270.0
  0
ARC
  5
692
330
1D
100
AcDbEntity
  8
BLACK
100
AcDbCircle
 10
241.585009
 20
-15.155
 30
0.0
 40
2.075001
100
AcDbArc
 50
0.0
 51
90.0
  0
ARC
  5
693
330
1D
100
AcDbEntity
  8
BLACK
100
AcDbCircle
 10
241.585009
 20
-25.105
 30
0.0
 40
2.074999
100
AcDbArc
 50
270.0
 51
0.0
  0
LINE
  5
694
330
1D
100
AcDbEntity
  8
BLACK
  6
Continuous
100
AcDbLine
 10
175.678843
 20
-6.563319
 30
0.0
 11
177.747561
 21
-16.295871
 31
0.0
  0
LINE
  5
695
330
1D
100
AcDbEntity
  8
BLACK
  6
Continuous
100
AcDbLine
 10
187.596477
 20
-1.908773
 30
0.0
 11
177.277088
 21
-4.102227
 31
0.0
  0
LINE
  5
696
330
1D
100
AcDbEntity
  8
BLACK
  6
Continuous
100
AcDbLine
 10
190.528091
 20
-15.700641
 30
0.0
 11
180.208617
 21
-17.894114
 31
0.0
  0
LINE
  5
697
330
1D
100
AcDbEntity
  8
BLACK
  6
Continuous
100
AcDbLine
 10
190.059151
 20
-3.514255
 30
0.0
 11
192.126336
 21
-13.239589
 31
0.0
  0
ARC
  5
698
330
1D
100
AcDbEntity
  8
BLACK
100
AcDbCircle
 10
177.708509
 20
-6.1319
 30
0.0
 40
2.075009981931894
100
AcDbArc
 50
102.00000469
 51
192.00000469
  0
ARC
  5
699
330
1D
100
AcDbEntity
  8
BLACK
100
AcDbCircle
 10
179.777209
 20
-15.8645
 30
0.0
 40
2.074955853080494
100
AcDbArc
 50
191.99882579
 51
282.00001186
  0
ARC
  5
69A
330
1D
100
AcDbEntity
  8
BLACK
100
AcDbCircle
 10
188.027909
 20
-3.9385
 30
0.0
 40
2.075072351787523
100
AcDbArc
 50
11.79720092
 51
102.00000561
  0
ARC
  5
69B
330
1D
100
AcDbEntity
  8
BLACK
100
AcDbCircle
 10
190.096709
 20
-13.671
 30
0.0
 40
2.074970170881981
100
AcDbArc
 50
281.9992005400001
 51
12.00001252
  0
LINE
  5
69C
330
1D
100
AcDbEntity
  8
BLACK
  6
Continuous
100
AcDbLine
 10
194.312562
 20
-2.602636
 30
0.0
 11
196.381273
 21
-12.335153
 31
0.0
  0
LINE
  5
69D
330
1D
100
AcDbEntity
  8
BLACK
  6
Continuous
100
AcDbLine
 10
206.23031
 20
2.051971
 30
0.0
 11
195.923325
 21
-0.138847
 31
0.0
  0
LINE
  5
69E
330
1D
100
AcDbEntity
  8
BLACK
  6
Continuous
100
AcDbLine
 10
209.152472
 20
-11.741907
 30
0.0
 11
198.842314
 21
-13.933399
 31
0.0
  0
LINE
  5
69F
330
1D
100
AcDbEntity
  8
BLACK
  6
Continuous
100
AcDbLine
 10
208.691321
 20
0.453718
 30
0.0
 11
210.760051
 21
-9.278886
 31
0.0
  0
ARC
  5
6A0
330
1D
100
AcDbEntity
  8
BLACK
100
AcDbCircle
 10
196.342309
 20
-2.1712
 30
0.0
 40
2.075092746386291
100
AcDbArc
 50
101.64873488
 51
191.99999883
  0
ARC
  5
6A1
330
1D
100
AcDbEntity
  8
BLACK
100
AcDbCircle
 10
198.410909
 20
-11.9038
 30
0.0
 40
2.074941535279006
100
AcDbArc
 50
191.9984085
 51
282.00001121
  0
ARC
  5
6A2
330
1D
100
AcDbEntity
  8
BLACK
100
AcDbCircle
 10
206.661709
 20
0.0224
 30
0.0
 40
2.074911921528478
100
AcDbArc
 50
11.99773596
 51
102.00001564
  0
ARC
  5
6A3
330
1D
100
AcDbEntity
  8
BLACK
100
AcDbCircle
 10
208.730409
 20
-9.7103
 30
0.0
 40
2.074985466831033
100
AcDbArc
 50
281.73616227
 51
12.00000743
  0
LINE
  5
6A4
330
1D
100
AcDbEntity
  8
BLACK
  6
Continuous
100
AcDbLine
 10
247.590008
 20
-16.215
 30
0.0
 11
247.590008
 21
-26.165
 31
0.0
  0
LINE
  5
6A5
330
1D
100
AcDbEntity
  8
BLACK
  6
Continuous
100
AcDbLine
 10
260.215009
 20
-14.139999
 30
0.0
 11
249.665009
 21
-14.139999
 31
0.0
  0
LINE
  5
6A6
330
1D
100
AcDbEntity
  8
BLACK
  6
Continuous
100
AcDbLine
 10
260.215009
 20
-28.239999
 30
0.0
 11
249.665009
 21
-28.239999
 31
0.0
  0
LINE
  5
6A7
330
1D
100
AcDbEntity
  8
BLACK
  6
Continuous
100
AcDbLine
 10
262.290008
 20
-16.215
 30
0.0
 11
262.290008
 21
-26.165
 31
0.0
  0
ARC
  5
6A8
330
1D
100
AcDbEntity
  8
BLACK
100
AcDbCircle
 10
249.665009
 20
-16.215
 30
0.0
 40
2.075001
100
AcDbArc
 50
90.0
 51
180.0
  0
ARC
  5
6A9
330
1D
100
AcDbEntity
  8
BLACK
100
AcDbCircle
 10
249.665009
 20
-26.165
 30
0.0
 40
2.074999
100
AcDbArc
 50
180.0
 51
270.0
  0
ARC
  5
6AA
330
1D
100
AcDbEntity
  8
BLACK
100
AcDbCircle
 10
260.215009
 20
-16.215
 30
0.0
 40
2.075001
100
AcDbArc
 50
0.0
 51
90.0
  0
ARC
  5
6AB
330
1D
100
AcDbEntity
  8
BLACK
100
AcDbCircle
 10
260.215009
 20
-26.165
 30
0.0
 40
2.074999
100
AcDbArc
 50
270.0
 51
0.0
  0
LINE
  5
6AC
330
1D
100
AcDbEntity
  8
BLACK
  6
Continuous
100
AcDbLine
 10
154.945128
 20
-69.39402199999999
 30
0.0
 11
157.013849
 21
-79.126589
 31
0.0
  0
LINE
  5
6AD
330
1D
100
AcDbEntity
  8
BLACK
  6
Continuous
100
AcDbLine
 10
166.86278
 20
-64.739487
 30
0.0
 11
156.533836
 21
-66.934973
 31
0.0
  0
LINE
  5
6AE
330
1D
100
AcDbEntity
  8
BLACK
  6
Continuous
100
AcDbLine
 10
169.782209
 20
-78.533946
 30
0.0
 11
159.47492
 21
-80.724828
 31
0.0
  0
LINE
  5
6AF
330
1D
100
AcDbEntity
  8
BLACK
  6
Continuous
100
AcDbLine
 10
169.325436
 20
-66.34495799999999
 30
0.0
 11
171.392616
 21
-76.070272
 31
0.0
  0
ARC
  5
6B0
330
1D
100
AcDbEntity
  8
BLACK
100
AcDbCircle
 10
156.974809
 20
-68.9626
 30
0.0
 40
2.075025277880971
100
AcDbArc
 50
102.26975247
 51
191.9999996
  0
ARC
  5
6B1
330
1D
100
AcDbEntity
  8
BLACK
100
AcDbCircle
 10
159.043509
 20
-78.6952
 30
0.0
 40
2.074971149029547
100
AcDbArc
 50
191.99922181
 51
282.00000678
  0
ARC
  5
6B2
330
1D
100
AcDbEntity
  8
BLACK
100
AcDbCircle
 10
167.294209
 20
-66.7692
 30
0.0
 40
2.075058033986037
100
AcDbArc
 50
11.79720451
 51
102.00000496
  0
ARC
  5
6B3
330
1D
100
AcDbEntity
  8
BLACK
100
AcDbCircle
 10
169.362909
 20
-76.5017
 30
0.0
 40
2.075051957188783
100
AcDbArc
 50
281.65787703
 51
12.00001239
  0
LINE
  5
6B4
330
1D
100
AcDbEntity
  8
BLACK
  6
Continuous
100
AcDbLine
 10
251.270009
 20
-54.315
 30
0.0
 11
251.270009
 21
-64.265001
 31
0.0
  0
LINE
  5
6B5
330
1D
100
AcDbEntity
  8
BLACK
  6
Continuous
100
AcDbLine
 10
263.895009
 20
-52.23999999999999
 30
0.0
 11
253.345009
 21
-52.23999999999999
 31
0.0
  0
LINE
  5
6B6
330
1D
100
AcDbEntity
  8
BLACK
  6
Continuous
100
AcDbLine
 10
263.895009
 20
-66.34
 30
0.0
 11
253.345009
 21
-66.34
 31
0.0
  0
LINE
  5
6B7
330
1D
100
AcDbEntity
  8
BLACK
  6
Continuous
100
AcDbLine
 10
265.970009
 20
-54.315
 30
0.0
 11
265.970009
 21
-64.265
 31
0.0
  0
ARC
  5
6B8
330
1D
100
AcDbEntity
  8
BLACK
100
AcDbCircle
 10
253.345009
 20
-54.315
 30
0.0
 40
2.075
100
AcDbArc
 50
90.0
 51
180.0
  0
ARC
  5
6B9
330
1D
100
AcDbEntity
  8
BLACK
100
AcDbCircle
 10
253.345009
 20
-64.265
 30
0.0
 40
2.075
100
AcDbArc
 50
180.00002761
 51
270.0
  0
ARC
  5
6BA
330
1D
100
AcDbEntity
  8
BLACK
100
AcDbCircle
 10
263.895009
 20
-54.315
 30
0.0
 40
2.075
100
AcDbArc
 50
0.0
 51
90.0
  0
ARC
  5
6BB
330
1D
100
AcDbEntity
  8
BLACK
100
AcDbCircle
 10
263.895009
 20
-64.265
 30
0.0
 40
2.075
100
AcDbArc
 50
270.0
 51
0.0
  0
LINE
  5
6BC
330
1D
100
AcDbEntity
  8
BLACK
  6
Continuous
100
AcDbLine
 10
295.215609
 20
-73.413
 30
0.0
 11
295.215609
 21
-83.363
 31
0.0
  0
LINE
  5
6BD
330
1D
100
AcDbEntity
  8
BLACK
  6
Continuous
100
AcDbLine
 10
307.840609
 20
-71.337999
 30
0.0
 11
297.290609
 21
-71.337999
 31
0.0
  0
LINE
  5
6BE
330
1D
100
AcDbEntity
  8
BLACK
  6
Continuous
100
AcDbLine
 10
307.840609
 20
-85.43799899999999
 30
0.0
 11
297.290609
 21
-85.43799899999999
 31
0.0
  0
LINE
  5
6BF
330
1D
100
AcDbEntity
  8
BLACK
  6
Continuous
100
AcDbLine
 10
309.915609
 20
-73.413
 30
0.0
 11
309.915609
 21
-83.363
 31
0.0
  0
ARC
  5
6C0
330
1D
100
AcDbEntity
  8
BLACK
100
AcDbCircle
 10
297.290609
 20
-73.413
 30
0.0
 40
2.075
100
AcDbArc
 50
90.0
 51
180.0
  0
ARC
  5
6C1
330
1D
100
AcDbEntity
  8
BLACK
100
AcDbCircle
 10
297.290609
 20
-83.363
 30
0.0
 40
2.074999
100
AcDbArc
 50
180.0
 51
270.0
  0
ARC
  5
6C2
330
1D
100
AcDbEntity
  8
BLACK
100
AcDbCircle
 10
307.840609
 20
-73.413
 30
0.0
 40
2.075001
100
AcDbArc
 50
0.0
 51
90.0
  0
ARC
  5
6C3
330
1D
100
AcDbEntity
  8
BLACK
100
AcDbCircle
 10
307.840609
 20
-83.363
 30
0.0
 40
2.075
100
AcDbArc
 50
270.0
 51
0.0
  0
LINE
  5
6C4
330
1D
100
AcDbEntity
  8
BLACK
  6
Continuous
100
AcDbLine
 10
278.860744
 20
-43.475878
 30
0.0
 11
278.860744
 21
-35.8896
 31
0.0
  0
LINE
  5
6C5
330
1D
100
AcDbEntity
  8
BLACK
  6
Continuous
100
AcDbLine
 10
280.29425
 20
-34.46456
 30
0.0
 11
281.151334
 21
-34.46456
 31
0.0
  0
LINE
  5
6C6
330
1D
100
AcDbEntity
  8
BLACK
  6
Continuous
100
AcDbLine
 10
280.689809
 20
-44.91544
 30
0.0
 11
280.285709
 21
-44.91544
 31
0.0
  0
LINE
  5
6C7
330
1D
100
AcDbEntity
  8
BLACK
  6
Continuous
100
AcDbLine
 10
281.151334
 20
-34.46453899999999
 30
0.0
 11
281.151334
 21
-34.46456
 31
0.0
  0
LINE
  5
6C8
330
1D
100
AcDbEntity
  8
BLACK
  6
Continuous
100
AcDbLine
 10
283.008634
 20
-33.2124
 30
0.0
 11
306.863809
 21
-33.2124
 31
0.0
  0
LINE
  5
6C9
330
1D
100
AcDbEntity
  8
BLACK
  6
Continuous
100
AcDbLine
 10
283.008634
 20
-33.212411
 30
0.0
 11
283.008634
 21
-33.2124
 31
0.0
  0
LINE
  5
6CA
330
1D
100
AcDbEntity
  8
BLACK
  6
Continuous
100
AcDbLine
 10
305.795658
 20
-47.25191
 30
0.0
 11
284.060709
 21
-47.25191
 31
0.0
  0
LINE
  5
6CB
330
1D
100
AcDbEntity
  8
BLACK
  6
Continuous
100
AcDbLine
 10
308.721109
 20
-34.46456
 30
0.0
 11
309.586509
 21
-34.46456
 31
0.0
  0
LINE
  5
6CC
330
1D
100
AcDbEntity
  8
BLACK
  6
Continuous
100
AcDbLine
 10
309.574717
 20
-44.91544
 30
0.0
 11
309.182609
 21
-44.91544
 31
0.0
  0
LINE
  5
6CD
330
1D
100
AcDbEntity
  8
BLACK
  6
Continuous
100
AcDbLine
 10
311.011624
 20
-35.898141
 30
0.0
 11
311.011624
 21
-43.4904
 31
0.0
  0
ARC
  5
6CE
330
1D
100
AcDbEntity
  8
BLACK
100
AcDbCircle
 10
280.285809
 20
-35.8896
 30
0.0
 40
1.425065
100
AcDbArc
 50
89.66062143999999
 51
180.0
  0
ARC
  5
6CF
330
1D
100
AcDbEntity
  8
BLACK
100
AcDbCircle
 10
280.285709
 20
-43.4904
 30
0.0
 40
1.42504
100
AcDbArc
 50
179.41611162
 51
270.0
  0
ARC
  5
6D0
330
1D
100
AcDbEntity
  8
BLACK
100
AcDbCircle
 10
280.689809
 20
-46.6404
 30
0.0
 40
1.72496
100
AcDbArc
 50
20.54667608999999
 51
90.0
  0
ARC
  5
6D1
330
1D
100
AcDbEntity
  8
BLACK
100
AcDbCircle
 10
281.151409
 20
-33.5362
 30
0.0
 40
0.9283414590682676
100
AcDbArc
 50
269.99537111
 51
337.9788859600001
  0
ARC
  5
6D2
330
1D
100
AcDbEntity
  8
BLACK
100
AcDbCircle
 10
283.008509
 20
-34.2873
 30
0.0
 40
1.07489882111062
100
AcDbArc
 50
89.99333707000001
 51
157.9795429
  0
ARC
  5
6D3
330
1D
100
AcDbEntity
  8
BLACK
100
AcDbCircle
 10
284.060709
 20
-45.377
 30
0.0
 40
1.87491
100
AcDbArc
 50
200.54513274
 51
270.0
  0
ARC
  5
6D4
330
1D
100
AcDbEntity
  8
BLACK
100
AcDbCircle
 10
306.863809
 20
-34.2874
 30
0.0
 40
1.075
100
AcDbArc
 50
22.02437567
 51
90.0
  0
ARC
  5
6D5
330
1D
100
AcDbEntity
  8
BLACK
100
AcDbCircle
 10
305.811509
 20
-45.3768
 30
0.0
 40
1.875177095163281
100
AcDbArc
 50
269.51566907
 51
339.4510892499999
  0
ARC
  5
6D6
330
1D
100
AcDbEntity
  8
BLACK
100
AcDbCircle
 10
309.182609
 20
-46.6404
 30
0.0
 40
1.724961815584623
100
AcDbArc
 50
90.0
 51
159.45369322
  0
ARC
  5
6D7
330
1D
100
AcDbEntity
  8
BLACK
100
AcDbCircle
 10
308.721109
 20
-33.536
 30
0.0
 40
0.9285599999999999
100
AcDbArc
 50
202.02907195
 51
270.0
  0
ARC
  5
6D8
330
1D
100
AcDbEntity
  8
BLACK
100
AcDbCircle
 10
309.586509
 20
-35.8897
 30
0.0
 40
1.42514
100
AcDbArc
 50
359.6606393
 51
90.0
  0
ARC
  5
6D9
330
1D
100
AcDbEntity
  8
BLACK
100
AcDbCircle
 10
309.586609
 20
-43.4904
 30
0.0
 40
1.425015
100
AcDbArc
 50
269.52185066
 51
0.0
  0
CIRCLE
  5
6DA
330
1D
100
AcDbEntity
  8
BLACK
100
AcDbCircle
 10
278.536259
 20
-47.44
 30
0.0
 40
1.0
  0
CIRCLE
  5
6DB
330
1D
100
AcDbEntity
  8
BLACK
100
AcDbCircle
 10
311.336259
 20
-47.44
 30
0.0
 40
1.0
  0
LINE
  5
6DC
330
1D
100
AcDbEntity
  8
BLACK
  6
Continuous
100
AcDbLine
 10
168.421586
 20
-94.421697
 30
0.0
 11
166.841294
 21
-86.98700699999999
 31
0.0
  0
LINE
  5
6DD
330
1D
100
AcDbEntity
  8
BLACK
  6
Continuous
100
AcDbLine
 10
167.952122
 20
-85.293961
 30
0.0
 11
168.785535
 21
-85.116813
 31
0.0
  0
LINE
  5
6DE
330
1D
100
AcDbEntity
  8
BLACK
  6
Continuous
100
AcDbLine
 10
170.506995
 20
-95.435265
 30
0.0
 11
170.111669
 21
-95.519294
 31
0.0
  0
LINE
  5
6DF
330
1D
100
AcDbEntity
  8
BLACK
  6
Continuous
100
AcDbLine
 10
168.785525
 20
-85.116762
 30
0.0
 11
168.785535
 21
-85.116813
 31
0.0
  0
LINE
  5
6E0
330
1D
100
AcDbEntity
  8
BLACK
  6
Continuous
100
AcDbLine
 10
170.34191
 20
-83.505862
 30
0.0
 11
193.675824
 21
-78.546086
 31
0.0
  0
LINE
  5
6E1
330
1D
100
AcDbEntity
  8
BLACK
  6
Continuous
100
AcDbLine
 10
170.34191
 20
-83.505862
 30
0.0
 11
170.341904
 21
-83.505837
 31
0.0
  0
LINE
  5
6E2
330
1D
100
AcDbEntity
  8
BLACK
  6
Continuous
100
AcDbLine
 10
195.565637
 20
-92.497554
 30
0.0
 11
174.289926
 21
-97.019846
 31
0.0
  0
LINE
  5
6E3
330
1D
100
AcDbEntity
  8
BLACK
  6
Continuous
100
AcDbLine
 10
195.752722
 20
-79.38476
 30
0.0
 11
196.599446
 21
-79.20478399999999
 31
0.0
  0
LINE
  5
6E4
330
1D
100
AcDbEntity
  8
BLACK
  6
Continuous
100
AcDbLine
 10
198.75919
 20
-89.430075
 30
0.0
 11
198.372275
 21
-89.512317
 31
0.0
  0
LINE
  5
6E5
330
1D
100
AcDbEntity
  8
BLACK
  6
Continuous
100
AcDbLine
 10
198.28958
 20
-80.30237
 30
0.0
 11
199.869882
 21
-87.737102
 31
0.0
  0
ARC
  5
6E6
330
1D
100
AcDbEntity
  8
BLACK
100
AcDbCircle
 10
168.235309
 20
-86.69069999999999
 30
0.0
 40
1.425158117008074
100
AcDbArc
 50
101.46128311
 51
191.99999861
  0
ARC
  5
6E7
330
1D
100
AcDbEntity
  8
BLACK
100
AcDbCircle
 10
169.815409
 20
-94.1255
 30
0.0
 40
1.424932174538844
100
AcDbArc
 50
191.99728475
 51
281.9999976300001
  0
ARC
  5
6E8
330
1D
100
AcDbEntity
  8
BLACK
100
AcDbCircle
 10
170.865609
 20
-97.1224
 30
0.0
 40
1.724827095456527
100
AcDbArc
 50
32.54335667
 51
102.0000775
  0
ARC
  5
6E9
330
1D
100
AcDbEntity
  8
BLACK
100
AcDbCircle
 10
168.592609
 20
-84.2087
 30
0.0
 40
0.928328555133903
100
AcDbArc
 50
281.99405129
 51
349.9772220200001
  0
ARC
  5
6EA
330
1D
100
AcDbEntity
  8
BLACK
100
AcDbCircle
 10
170.565309
 20
-84.5573
 30
0.0
 40
1.074935594199485
100
AcDbArc
 50
101.99528891
 51
169.9797899
  0
ARC
  5
6EB
330
1D
100
AcDbEntity
  8
BLACK
100
AcDbCircle
 10
173.900109
 20
-95.18589999999999
 30
0.0
 40
1.874917391354883
100
AcDbArc
 50
212.54534715
 51
281.99999235
  0
ARC
  5
6EC
330
1D
100
AcDbEntity
  8
BLACK
100
AcDbCircle
 10
193.899309
 20
-79.5975
 30
0.0
 40
1.074903225700342
100
AcDbArc
 50
34.0203805
 51
102.00000288
  0
ARC
  5
6ED
330
1D
100
AcDbEntity
  8
BLACK
100
AcDbCircle
 10
195.175709
 20
-90.6635
 30
0.0
 40
1.875071077006949
100
AcDbArc
 50
282.00247141
 51
351.45195846
  0
ARC
  5
6EE
330
1D
100
AcDbEntity
  8
BLACK
100
AcDbCircle
 10
198.735709
 20
-91.1985
 30
0.0
 40
1.72490461876244
100
AcDbArc
 50
102.16325855
 51
171.45516504
  0
ARC
  5
6EF
330
1D
100
AcDbEntity
  8
BLACK
100
AcDbCircle
 10
195.559709
 20
-78.4767
 30
0.0
 40
0.9283463695027842
100
AcDbArc
 50
214.01971959
 51
281.99993291
  0
ARC
  5
6F0
330
1D
100
AcDbEntity
  8
BLACK
100
AcDbCircle
 10
196.895709
 20
-80.59859999999999
 30
0.0
 40
1.424954317522144
100
AcDbArc
 50
11.99817362
 51
101.9999317
  0
ARC
  5
6F1
330
1D
100
AcDbEntity
  8
BLACK
100
AcDbCircle
 10
198.475909
 20
-88.0334
 30
0.0
 40
1.42511516360363
100
AcDbArc
 50
281.46549825
 51
11.99999576
  0
CIRCLE
  5
6F2
330
1D
100
AcDbEntity
  8
BLACK
100
AcDbCircle
 10
168.925352
 20
-98.352413
 30
0.0
 40
0.999999
  0
CIRCLE
  5
6F3
330
1D
100
AcDbEntity
  8
BLACK
100
AcDbCircle
 10
201.008593
 20
-91.53291
 30
0.0
 40
0.999999
  0
LINE
  5
6F4
330
1D
100
AcDbEntity
  8
BLACK
  6
Continuous
100
AcDbLine
 10
6.454492999999999
 20
-62.53248199999999
 30
0.0
 11
6.454492999999999
 21
-54.93958
 31
0.0
  0
LINE
  5
6F5
330
1D
100
AcDbEntity
  8
BLACK
  6
Continuous
100
AcDbLine
 10
7.890883
 20
-53.514559
 30
0.0
 11
8.745083
 21
-53.514559
 31
0.0
  0
LINE
  5
6F6
330
1D
100
AcDbEntity
  8
BLACK
  6
Continuous
100
AcDbLine
 10
8.283559
 20
-63.965439
 30
0.0
 11
7.879509
 21
-63.965439
 31
0.0
  0
LINE
  5
6F7
330
1D
100
AcDbEntity
  8
BLACK
  6
Continuous
100
AcDbLine
 10
8.745083
 20
-53.514547
 30
0.0
 11
8.745083
 21
-53.514554
 31
0.0
  0
LINE
  5
6F8
330
1D
100
AcDbEntity
  8
BLACK
  6
Continuous
100
AcDbLine
 10
10.602383
 20
-52.26239899999999
 30
0.0
 11
34.457509
 21
-52.26239899999999
 31
0.0
  0
LINE
  5
6F9
330
1D
100
AcDbEntity
  8
BLACK
  6
Continuous
100
AcDbLine
 10
10.602383
 20
-52.26239899999999
 30
0.0
 11
10.602383
 21
-52.26238499999999
 31
0.0
  0
LINE
  5
6FA
330
1D
100
AcDbEntity
  8
BLACK
  6
Continuous
100
AcDbLine
 10
33.396868
 20
-66.301909
 30
0.0
 11
11.654469
 21
-66.301909
 31
0.0
  0
LINE
  5
6FB
330
1D
100
AcDbEntity
  8
BLACK
  6
Continuous
100
AcDbLine
 10
36.314809
 20
-53.514559
 30
0.0
 11
37.180409
 21
-53.514559
 31
0.0
  0
LINE
  5
6FC
330
1D
100
AcDbEntity
  8
BLACK
  6
Continuous
100
AcDbLine
 10
37.169252
 20
-63.965439
 30
0.0
 11
36.776409
 21
-63.965439
 31
0.0
  0
LINE
  5
6FD
330
1D
100
AcDbEntity
  8
BLACK
  6
Continuous
100
AcDbLine
 10
38.605373
 20
-54.939559
 30
0.0
 11
38.605373
 21
-62.54056
 31
0.0
  0
ARC
  5
6FE
330
1D
100
AcDbEntity
  8
BLACK
100
AcDbCircle
 10
7.879559
 20
-54.93958
 30
0.0
 40
1.425066
100
AcDbArc
 50
89.54470582999998
 51
180.0
  0
ARC
  5
6FF
330
1D
100
AcDbEntity
  8
BLACK
100
AcDbCircle
 10
7.879509
 20
-62.5404
 30
0.0
 40
1.425039
100
AcDbArc
 50
179.68164335
 51
270.0
  0
ARC
  5
700
330
1D
100
AcDbEntity
  8
BLACK
100
AcDbCircle
 10
8.283559
 20
-65.69035
 30
0.0
 40
1.724911
100
AcDbArc
 50
20.54554839
 51
90.0
  0
ARC
  5
701
330
1D
100
AcDbEntity
  8
BLACK
100
AcDbCircle
 10
8.745209
 20
-52.58629999999999
 30
0.0
 40
0.9282563129529473
100
AcDbArc
 50
269.99222274
 51
337.98348497
  0
ARC
  5
702
330
1D
100
AcDbEntity
  8
BLACK
100
AcDbCircle
 10
10.602209
 20
-53.3372
 30
0.0
 40
1.074816279341265
100
AcDbArc
 50
89.99072448
 51
157.983456
  0
ARC
  5
703
330
1D
100
AcDbEntity
  8
BLACK
100
AcDbCircle
 10
11.654469
 20
-64.42690999999999
 30
0.0
 40
1.874999
100
AcDbArc
 50
200.54701451
 51
270.0
  0
ARC
  5
704
330
1D
100
AcDbEntity
  8
BLACK
100
AcDbCircle
 10
34.457509
 20
-53.3375
 30
0.0
 40
1.075101
100
AcDbArc
 50
22.02844172
 51
90.0
  0
ARC
  5
705
330
1D
100
AcDbEntity
  8
BLACK
100
AcDbCircle
 10
33.405309
 20
-64.4268
 30
0.0
 40
1.875128989215675
100
AcDbArc
 50
269.74207878
 51
339.45057088
  0
ARC
  5
706
330
1D
100
AcDbEntity
  8
BLACK
100
AcDbCircle
 10
36.776409
 20
-65.6905
 30
0.0
 40
1.725045020513088
100
AcDbArc
 50
90.0
 51
159.4511465
  0
ARC
  5
707
330
1D
100
AcDbEntity
  8
BLACK
100
AcDbCircle
 10
36.314809
 20
-52.58609999999999
 30
0.0
 40
0.9284589999999999
100
AcDbArc
 50
202.02445548
 51
270.0
  0
ARC
  5
708
330
1D
100
AcDbEntity
  8
BLACK
100
AcDbCircle
 10
37.180409
 20
-54.9395
 30
0.0
 40
1.424941
100
AcDbArc
 50
359.99762765
 51
90.0
  0
ARC
  5
709
330
1D
100
AcDbEntity
  8
BLACK
100
AcDbCircle
 10
37.180449
 20
-62.54056
 30
0.0
 40
1.424924
100
AcDbArc
 50
269.54976694
 51
0.0
  0
CIRCLE
  5
70A
330
1D
100
AcDbEntity
  8
BLACK
100
AcDbCircle
 10
6.130008
 20
-66.489999
 30
0.0
 40
1.0
  0
CIRCLE
  5
70B
330
1D
100
AcDbEntity
  8
BLACK
100
AcDbCircle
 10
38.930008
 20
-66.489999
 30
0.0
 40
1.0
  0
LINE
  5
70C
330
1D
100
AcDbEntity
  8
BLACK
  6
Continuous
100
AcDbLine
 10
65.185738
 20
12.769074
 30
0.0
 11
65.185735
 21
12.769061
 31
0.0
  0
LINE
  5
70D
330
1D
100
AcDbEntity
  8
BLACK
  6
Continuous
100
AcDbLine
 10
65.476147
 20
-72.84734499999999
 30
0.0
 11
65.476159
 21
-72.847278
 31
0.0
  0
LINE
  5
70E
330
1D
100
AcDbEntity
  8
BLACK
  6
Continuous
100
AcDbLine
 10
77.3937
 20
-77.501868
 30
0.0
 11
77.393754
 21
-77.501868
 31
0.0
  0
LINE
  5
70F
330
1D
100
AcDbEntity
  8
BLACK
  6
Continuous
100
AcDbLine
 10
72.863871
 20
-88.832657
 30
0.0
 11
72.863857
 21
-88.832718
 31
0.0
  0
LINE
  5
710
330
1D
100
AcDbEntity
  8
BLACK
  6
Continuous
100
AcDbLine
 10
60.946317
 20
-84.178135
 30
0.0
 11
60.946262
 21
-84.178135
 31
0.0
  0
LINE
  5
711
330
1D
100
AcDbEntity
  8
BLACK
  6
Continuous
100
AcDbLine
 10
83.56984399999999
 20
-36.208059
 30
0.0
 11
83.569856
 21
-36.207993
 31
0.0
  0
LINE
  5
712
330
1D
100
AcDbEntity
  8
BLACK
  6
Continuous
100
AcDbLine
 10
95.487383
 20
-40.862585
 30
0.0
 11
95.487466
 21
-40.862585
 31
0.0
  0
LINE
  5
713
330
1D
100
AcDbEntity
  8
BLACK
  6
Continuous
100
AcDbLine
 10
90.957568
 20
-52.193371
 30
0.0
 11
90.957556
 21
-52.193433
 31
0.0
  0
LINE
  5
714
330
1D
100
AcDbEntity
  8
BLACK
  6
Continuous
100
AcDbLine
 10
79.039999
 20
-47.538852
 30
0.0
 11
79.039974
 21
-47.538852
 31
0.0
  0
LINE
  5
715
330
1D
100
AcDbEntity
  8
BLACK
  6
Continuous
100
AcDbLine
 10
82.869844
 20
-16.578059
 30
0.0
 11
82.869856
 21
-16.577993
 31
0.0
  0
LINE
  5
716
330
1D
100
AcDbEntity
  8
BLACK
  6
Continuous
100
AcDbLine
 10
94.78738299999999
 20
-21.232585
 30
0.0
 11
94.787466
 21
-21.232585
 31
0.0
  0
LINE
  5
717
330
1D
100
AcDbEntity
  8
BLACK
  6
Continuous
100
AcDbLine
 10
90.25756799999999
 20
-32.563371
 30
0.0
 11
90.257556
 21
-32.563433
 31
0.0
  0
LINE
  5
718
330
1D
100
AcDbEntity
  8
BLACK
  6
Continuous
100
AcDbLine
 10
78.33999899999999
 20
-27.908852
 30
0.0
 11
78.339974
 21
-27.908852
 31
0.0
  0
LINE
  5
719
330
1D
100
AcDbEntity
  8
BLACK
  6
Continuous
100
AcDbLine
 10
70.286147
 20
-52.857345
 30
0.0
 11
70.286159
 21
-52.857278
 31
0.0
  0
LINE
  5
71A
330
1D
100
AcDbEntity
  8
BLACK
  6
Continuous
100
AcDbLine
 10
82.2037
 20
-57.511868
 30
0.0
 11
82.20375399999999
 21
-57.511868
 31
0.0
  0
LINE
  5
71B
330
1D
100
AcDbEntity
  8
BLACK
  6
Continuous
100
AcDbLine
 10
77.67387099999999
 20
-68.842657
 30
0.0
 11
77.673857
 21
-68.84271799999999
 31
0.0
  0
LINE
  5
71C
330
1D
100
AcDbEntity
  8
BLACK
  6
Continuous
100
AcDbLine
 10
65.756317
 20
-64.188135
 30
0.0
 11
65.75626199999999
 21
-64.188135
 31
0.0
  0
LINE
  5
71D
330
1D
100
AcDbEntity
  8
BLACK
  6
Continuous
100
AcDbLine
 10
64.236147
 20
-12.617345
 30
0.0
 11
64.236159
 21
-12.617278
 31
0.0
  0
LINE
  5
71E
330
1D
100
AcDbEntity
  8
BLACK
  6
Continuous
100
AcDbLine
 10
76.1537
 20
-17.271868
 30
0.0
 11
76.15375399999999
 21
-17.271868
 31
0.0
  0
LINE
  5
71F
330
1D
100
AcDbEntity
  8
BLACK
  6
Continuous
100
AcDbLine
 10
71.623871
 20
-28.602657
 30
0.0
 11
71.623857
 21
-28.602718
 31
0.0
  0
LINE
  5
720
330
1D
100
AcDbEntity
  8
BLACK
  6
Continuous
100
AcDbLine
 10
59.706317
 20
-23.948135
 30
0.0
 11
59.706262
 21
-23.948135
 31
0.0
  0
LINE
  5
721
330
1D
100
AcDbEntity
  8
BLACK
  6
Continuous
100
AcDbLine
 10
145.334865
 20
-12.504018
 30
0.0
 11
145.33489
 21
-12.504023
 31
0.0
  0
LINE
  5
722
330
1D
100
AcDbEntity
  8
BLACK
  6
Continuous
100
AcDbLine
 10
128.887481
 20
-19.180288
 30
0.0
 11
128.887398
 21
-19.180288
 31
0.0
  0
LINE
  5
723
330
1D
100
AcDbEntity
  8
BLACK
  6
Continuous
100
AcDbLine
 10
132.054865
 20
-29.154018
 30
0.0
 11
132.05489
 21
-29.154023
 31
0.0
  0
LINE
  5
724
330
1D
100
AcDbEntity
  8
BLACK
  6
Continuous
100
AcDbLine
 10
115.607481
 20
-35.830288
 30
0.0
 11
115.607398
 21
-35.830288
 31
0.0
  0
LINE
  5
725
330
1D
100
AcDbEntity
  8
BLACK
  6
Continuous
100
AcDbLine
 10
132.754865
 20
-48.784018
 30
0.0
 11
132.75489
 21
-48.784023
 31
0.0
  0
LINE
  5
726
330
1D
100
AcDbEntity
  8
BLACK
  6
Continuous
100
AcDbLine
 10
116.307481
 20
-55.460288
 30
0.0
 11
116.307398
 21
-55.460288
 31
0.0
  0
LINE
  5
727
330
1D
100
AcDbEntity
  8
BLACK
  6
Continuous
100
AcDbLine
 10
96.149844
 20
0.071941
 30
0.0
 11
96.149856
 21
0.072007
 31
0.0
  0
LINE
  5
728
330
1D
100
AcDbEntity
  8
BLACK
  6
Continuous
100
AcDbLine
 10
108.067383
 20
-4.582585
 30
0.0
 11
108.067466
 21
-4.582585
 31
0.0
  0
LINE
  5
729
330
1D
100
AcDbEntity
  8
BLACK
  6
Continuous
100
AcDbLine
 10
103.537568
 20
-15.913371
 30
0.0
 11
103.537556
 21
-15.913433
 31
0.0
  0
LINE
  5
72A
330
1D
100
AcDbEntity
  8
BLACK
  6
Continuous
100
AcDbLine
 10
91.61999899999999
 20
-11.258852
 30
0.0
 11
91.619974
 21
-11.258852
 31
0.0
  0
LINE
  5
72B
330
1D
100
AcDbEntity
  8
BLACK
  6
Continuous
100
AcDbLine
 10
64.93614699999999
 20
-32.247345
 30
0.0
 11
64.936159
 21
-32.247278
 31
0.0
  0
LINE
  5
72C
330
1D
100
AcDbEntity
  8
BLACK
  6
Continuous
100
AcDbLine
 10
76.8537
 20
-36.901868
 30
0.0
 11
76.853754
 21
-36.901868
 31
0.0
  0
LINE
  5
72D
330
1D
100
AcDbEntity
  8
BLACK
  6
Continuous
100
AcDbLine
 10
72.323871
 20
-48.232657
 30
0.0
 11
72.32385699999999
 21
-48.232718
 31
0.0
  0
LINE
  5
72E
330
1D
100
AcDbEntity
  8
BLACK
  6
Continuous
100
AcDbLine
 10
60.40631699999999
 20
-43.578135
 30
0.0
 11
60.406262
 21
-43.578135
 31
0.0
  0
LINE
  5
72F
330
1D
100
AcDbEntity
  8
BLACK
  6
Continuous
100
AcDbLine
 10
53.360011
 20
-4.975001
 30
0.0
 11
53.360008
 21
-4.975001
 31
0.0
  0
LINE
  5
730
330
1D
100
AcDbEntity
  8
BLACK
  6
Continuous
100
AcDbLine
 10
77.51614699999999
 20
4.032655
 30
0.0
 11
77.516159
 21
4.032722
 31
0.0
  0
LINE
  5
731
330
1D
100
AcDbEntity
  8
BLACK
  6
Continuous
100
AcDbLine
 10
89.43369899999999
 20
-0.621868
 30
0.0
 11
89.433754
 21
-0.621868
 31
0.0
  0
LINE
  5
732
330
1D
100
AcDbEntity
  8
BLACK
  6
Continuous
100
AcDbLine
 10
84.903871
 20
-11.952657
 30
0.0
 11
84.903857
 21
-11.952718
 31
0.0
  0
LINE
  5
733
330
1D
100
AcDbEntity
  8
BLACK
  6
Continuous
100
AcDbLine
 10
72.986317
 20
-7.298134999999999
 30
0.0
 11
72.986262
 21
-7.298134999999999
 31
0.0
  0
LINE
  5
734
330
1D
100
AcDbEntity
  8
BLACK
  6
Continuous
100
AcDbLine
 10
88.919844
 20
-56.818059
 30
0.0
 11
88.919856
 21
-56.81799299999999
 31
0.0
  0
LINE
  5
735
330
1D
100
AcDbEntity
  8
BLACK
  6
Continuous
100
AcDbLine
 10
100.837383
 20
-61.472585
 30
0.0
 11
100.837466
 21
-61.472585
 31
0.0
  0
LINE
  5
736
330
1D
100
AcDbEntity
  8
BLACK
  6
Continuous
100
AcDbLine
 10
96.30756799999999
 20
-72.803371
 30
0.0
 11
96.30755599999999
 21
-72.803433
 31
0.0
  0
LINE
  5
737
330
1D
100
AcDbEntity
  8
BLACK
  6
Continuous
100
AcDbLine
 10
84.389999
 20
-68.14885199999999
 30
0.0
 11
84.389974
 21
-68.14885199999999
 31
0.0
  0
LINE
  5
738
330
1D
100
AcDbEntity
  8
BLACK
  6
Continuous
100
AcDbLine
 10
5.275009
 20
-7.050001
 30
0.0
 11
5.275009
 21
-7.049999
 31
0.0
  0
LINE
  5
739
330
1D
100
AcDbEntity
  8
BLACK
  6
Continuous
100
AcDbLine
 10
138.104865
 20
-69.394018
 30
0.0
 11
138.10489
 21
-69.39402299999999
 31
0.0
  0
LINE
  5
73A
330
1D
100
AcDbEntity
  8
BLACK
  6
Continuous
100
AcDbLine
 10
121.657481
 20
-76.07028799999999
 30
0.0
 11
121.657398
 21
-76.07028799999999
 31
0.0
  0
LINE
  5
73B
330
1D
100
AcDbEntity
  8
BLACK
  6
Continuous
100
AcDbLine
 10
252.950011
 20
-7.115000999999999
 30
0.0
 11
252.950008
 21
-7.115000999999999
 31
0.0
  0
LINE
  5
73C
330
1D
100
AcDbEntity
  8
BLACK
  6
Continuous
100
AcDbLine
 10
230.035033
 20
-74.445565
 30
0.0
 11
230.035008
 21
-74.445565
 31
0.0
  0
LINE
  5
73D
330
1D
100
AcDbEntity
  8
BLACK
  6
Continuous
100
AcDbLine
 10
180.53709
 20
-42.362234
 30
0.0
 11
180.537088
 21
-42.362227
 31
0.0
  0
LINE
  5
73E
330
1D
100
AcDbEntity
  8
BLACK
  6
Continuous
100
AcDbLine
 10
193.788091
 20
-53.960642
 30
0.0
 11
193.788091
 21
-53.960632
 31
0.0
  0
LINE
  5
73F
330
1D
100
AcDbEntity
  8
BLACK
  6
Continuous
100
AcDbLine
 10
211.951322
 20
-37.806282
 30
0.0
 11
211.951296
 21
-37.806282
 31
0.0
  0
LINE
  5
740
330
1D
100
AcDbEntity
  8
BLACK
  6
Continuous
100
AcDbLine
 10
221.965008
 20
-16.195564
 30
0.0
 11
221.965034
 21
-16.195564
 31
0.0
  0
LINE
  5
741
330
1D
100
AcDbEntity
  8
BLACK
  6
Continuous
100
AcDbLine
 10
269.255009
 20
-47.290001
 30
0.0
 11
269.255009
 21
-47.29
 31
0.0
  0
LINE
  5
742
330
1D
100
AcDbEntity
  8
BLACK
  6
Continuous
100
AcDbLine
 10
256.630011
 20
-45.215001
 30
0.0
 11
256.630009
 21
-45.215001
 31
0.0
  0
LINE
  5
743
330
1D
100
AcDbEntity
  8
BLACK
  6
Continuous
100
AcDbLine
 10
227.325033
 20
4.414435
 30
0.0
 11
227.325006
 21
4.414435
 31
0.0
  0
LINE
  5
744
330
1D
100
AcDbEntity
  8
BLACK
  6
Continuous
100
AcDbLine
 10
230.585034
 20
-33.845565
 30
0.0
 11
230.585008
 21
-33.845565
 31
0.0
  0
LINE
  5
745
330
1D
100
AcDbEntity
  8
BLACK
  6
Continuous
100
AcDbLine
 10
206.591322
 20
-58.416282
 30
0.0
 11
206.591296
 21
-58.416282
 31
0.0
  0
LINE
  5
746
330
1D
100
AcDbEntity
  8
BLACK
  6
Continuous
100
AcDbLine
 10
225.225033
 20
-54.455564
 30
0.0
 11
225.225008
 21
-54.455564
 31
0.0
  0
LINE
  5
747
330
1D
100
AcDbEntity
  8
BLACK
  6
Continuous
100
AcDbLine
 10
290.460011
 20
-26.165001
 30
0.0
 11
290.460008
 21
-26.165001
 31
0.0
  0
LINE
  5
748
330
1D
100
AcDbEntity
  8
BLACK
  6
Continuous
100
AcDbLine
 10
266.640011
 20
-26.165001
 30
0.0
 11
266.640009
 21
-26.165001
 31
0.0
  0
LINE
  5
749
330
1D
100
AcDbEntity
  8
BLACK
  6
Continuous
100
AcDbLine
 10
279.265009
 20
-28.240001
 30
0.0
 11
279.265009
 21
-28.239999
 31
0.0
  0
LINE
  5
74A
330
1D
100
AcDbEntity
  8
BLACK
  6
Continuous
100
AcDbLine
 10
232.220011
 20
-64.265001
 30
0.0
 11
232.220009
 21
-64.265001
 31
0.0
  0
LINE
  5
74B
330
1D
100
AcDbEntity
  8
BLACK
  6
Continuous
100
AcDbLine
 10
244.845009
 20
-66.340001
 30
0.0
 11
244.845009
 21
-66.33999899999999
 31
0.0
  0
LINE
  5
74C
330
1D
100
AcDbEntity
  8
BLACK
  6
Continuous
100
AcDbLine
 10
237.580011
 20
-45.215001
 30
0.0
 11
237.580008
 21
-45.215001
 31
0.0
  0
LINE
  5
74D
330
1D
100
AcDbEntity
  8
BLACK
  6
Continuous
100
AcDbLine
 10
234.320011
 20
-4.975001
 30
0.0
 11
234.320008
 21
-4.975001
 31
0.0
  0
LINE
  5
74E
330
1D
100
AcDbEntity
  8
BLACK
  6
Continuous
100
AcDbLine
 10
171.91709
 20
-24.712234
 30
0.0
 11
171.917088
 21
-24.712227
 31
0.0
  0
LINE
  5
74F
330
1D
100
AcDbEntity
  8
BLACK
  6
Continuous
100
AcDbLine
 10
185.168091
 20
-36.310642
 30
0.0
 11
185.168091
 21
-36.310632
 31
0.0
  0
LINE
  5
750
330
1D
100
AcDbEntity
  8
BLACK
  6
Continuous
100
AcDbLine
 10
175.17709
 20
-62.972234
 30
0.0
 11
175.177088
 21
-62.972227
 31
0.0
  0
LINE
  5
751
330
1D
100
AcDbEntity
  8
BLACK
  6
Continuous
100
AcDbLine
 10
188.428091
 20
-74.57064199999999
 30
0.0
 11
188.428091
 21
-74.570632
 31
0.0
  0
LINE
  5
752
330
1D
100
AcDbEntity
  8
BLACK
  6
Continuous
100
AcDbLine
 10
203.331322
 20
-20.156282
 30
0.0
 11
203.331296
 21
-20.156282
 31
0.0
  0
LINE
  5
753
330
1D
100
AcDbEntity
  8
BLACK
  6
Continuous
100
AcDbLine
 10
177.27709
 20
-4.102234
 30
0.0
 11
177.277088
 21
-4.102227
 31
0.0
  0
LINE
  5
754
330
1D
100
AcDbEntity
  8
BLACK
  6
Continuous
100
AcDbLine
 10
190.528091
 20
-15.700642
 30
0.0
 11
190.528091
 21
-15.700632
 31
0.0
  0
LINE
  5
755
330
1D
100
AcDbEntity
  8
BLACK
  6
Continuous
100
AcDbLine
 10
208.691295
 20
0.453718
 30
0.0
 11
208.691322
 21
0.453718
 31
0.0
  0
LINE
  5
756
330
1D
100
AcDbEntity
  8
BLACK
  6
Continuous
100
AcDbLine
 10
263.895009
 20
-66.340001
 30
0.0
 11
263.895009
 21
-66.34
 31
0.0
  0
LINE
  5
757
330
1D
100
AcDbEntity
  8
BLACK
  6
Continuous
100
AcDbLine
 10
251.270011
 20
-64.265001
 30
0.0
 11
251.270009
 21
-64.265001
 31
0.0
  0
LINE
  5
758
330
1D
100
AcDbEntity
  8
BLACK
  6
Continuous
100
AcDbLine
 10
307.840609
 20
-85.438001
 30
0.0
 11
307.840609
 21
-85.43799899999999
 31
0.0
  0
LINE
  5
759
330
1D
100
AcDbEntity
  8
BLACK
  6
Continuous
100
AcDbLine
 10
307.860341
 20
-33.884281
 30
0.0
 11
307.86036
 21
-33.884274
 31
0.0
  0
LINE
  5
75A
330
1D
100
AcDbEntity
  8
BLACK
  6
Continuous
100
AcDbLine
 10
309.574717
 20
-44.915364
 30
0.0
 11
309.574717
 21
-44.91544
 31
0.0
  0
LINE
  5
75B
330
1D
100
AcDbEntity
  8
BLACK
  6
Continuous
100
AcDbLine
 10
282.305052
 20
-46.03499
 30
0.0
 11
282.305003
 21
-46.03499
 31
0.0
  0
LINE
  5
75C
330
1D
100
AcDbEntity
  8
BLACK
  6
Continuous
100
AcDbLine
 10
194.79023
 20
-78.996105
 30
0.0
 11
194.790256
 21
-78.996088
 31
0.0
  0
LINE
  5
75D
330
1D
100
AcDbEntity
  8
BLACK
  6
Continuous
100
AcDbLine
 10
198.289533
 20
-80.30238
 30
0.0
 11
198.28958
 21
-80.30237
 31
0.0
  0
LINE
  5
75E
330
1D
100
AcDbEntity
  8
BLACK
  6
Continuous
100
AcDbLine
 10
195.565637
 20
-92.49757799999999
 30
0.0
 11
195.565637
 21
-92.497554
 31
0.0
  0
LINE
  5
75F
330
1D
100
AcDbEntity
  8
BLACK
  6
Continuous
100
AcDbLine
 10
172.319622
 20
-96.19453999999999
 30
0.0
 11
172.319611
 21
-96.19455099999999
 31
0.0
  0
LINE
  5
760
330
1D
100
AcDbEntity
  8
BLACK
  6
Continuous
100
AcDbLine
 10
35.454095
 20
-52.934278
 30
0.0
 11
35.454104
 21
-52.934275
 31
0.0
  0
LINE
  5
761
330
1D
100
AcDbEntity
  8
BLACK
  6
Continuous
100
AcDbLine
 10
38.605349
 20
-54.939559
 30
0.0
 11
38.605373
 21
-54.939559
 31
0.0
  0
LINE
  5
762
330
1D
100
AcDbEntity
  8
BLACK
  6
Continuous
100
AcDbLine
 10
36.776409
 20
-63.965455
 30
0.0
 11
36.776409
 21
-63.965439
 31
0.0
  0
LINE
  5
763
330
1D
100
AcDbEntity
  8
BLACK
  6
Continuous
100
AcDbLine
 10
9.898755
 20
-65.084989
 30
0.0
 11
9.89875
 21
-65.084989
 31
0.0
  0
LINE
  5
7AC
330
1D
100
AcDbEntity
  8
BLACK
  6
Continuous
100
AcDbLine
 10
9.820108
 20
-35.265
 30
0.0
 11
9.820108
 21
-45.215001
 31
0.0
  0
LINE
  5
7AD
330
1D
100
AcDbEntity
  8
BLACK
  6
Continuous
100
AcDbLine
 10
22.445108
 20
-33.19
 30
0.0
 11
11.895107
 21
-33.19
 31
0.0
  0
LINE
  5
7AE
330
1D
100
AcDbEntity
  8
BLACK
  6
Continuous
100
AcDbLine
 10
22.445108
 20
-47.29
 30
0.0
 11
11.895108
 21
-47.29
 31
0.0
  0
LINE
  5
7AF
330
1D
100
AcDbEntity
  8
BLACK
  6
Continuous
100
AcDbLine
 10
24.520108
 20
-35.265
 30
0.0
 11
24.520108
 21
-45.215
 31
0.0
  0
ARC
  5
7B0
330
1D
100
AcDbEntity
  8
BLACK
100
AcDbCircle
 10
11.895112
 20
-35.265004
 30
0.0
 40
2.075004000003855
100
AcDbArc
 50
90.00013806
 51
179.99988955
  0
ARC
  5
7B1
330
1D
100
AcDbEntity
  8
BLACK
100
AcDbCircle
 10
11.89511
 20
-45.214998
 30
0.0
 40
2.075002000000964
100
AcDbArc
 50
180.00008284
 51
269.99994478
  0
ARC
  5
7B2
330
1D
100
AcDbEntity
  8
BLACK
100
AcDbCircle
 10
22.445108
 20
-35.265
 30
0.0
 40
2.075
100
AcDbArc
 50
0.0
 51
90.0
  0
ARC
  5
7B3
330
1D
100
AcDbEntity
  8
BLACK
100
AcDbCircle
 10
22.445108
 20
-45.215
 30
0.0
 40
2.075
100
AcDbArc
 50
270.0
 51
0.0
  0
LINE
  5
7B4
330
1D
100
AcDbEntity
  8
BLACK
  6
Continuous
100
AcDbLine
 10
272.799484
 20
-5.39044
 30
0.0
 11
272.799484
 21
2.2103
 31
0.0
  0
LINE
  5
7B5
330
1D
100
AcDbEntity
  8
BLACK
  6
Continuous
100
AcDbLine
 10
274.236511
 20
3.63544
 30
0.0
 11
275.090074
 21
3.63544
 31
0.0
  0
LINE
  5
7B6
330
1D
100
AcDbEntity
  8
BLACK
  6
Continuous
100
AcDbLine
 10
274.628574
 20
-6.81544
 30
0.0
 11
274.224474
 21
-6.81544
 31
0.0
  0
LINE
  5
7B7
330
1D
100
AcDbEntity
  8
BLACK
  6
Continuous
100
AcDbLine
 10
275.090074
 20
3.635452
 30
0.0
 11
275.090074
 21
3.63544
 31
0.0
  0
LINE
  5
7B8
330
1D
100
AcDbEntity
  8
BLACK
  6
Continuous
100
AcDbLine
 10
276.947374
 20
4.8876
 30
0.0
 11
300.802574
 21
4.8876
 31
0.0
  0
LINE
  5
7B9
330
1D
100
AcDbEntity
  8
BLACK
  6
Continuous
100
AcDbLine
 10
276.947374
 20
4.887589
 30
0.0
 11
276.947374
 21
4.8876
 31
0.0
  0
LINE
  5
7BA
330
1D
100
AcDbEntity
  8
BLACK
  6
Continuous
100
AcDbLine
 10
299.750424
 20
-9.151909999999999
 30
0.0
 11
277.999574
 21
-9.151909999999999
 31
0.0
  0
LINE
  5
7BB
330
1D
100
AcDbEntity
  8
BLACK
  6
Continuous
100
AcDbLine
 10
302.659774
 20
3.63544
 30
0.0
 11
303.525374
 21
3.63544
 31
0.0
  0
LINE
  5
7BC
330
1D
100
AcDbEntity
  8
BLACK
  6
Continuous
100
AcDbLine
 10
303.513457
 20
-6.81544
 30
0.0
 11
303.121324
 21
-6.81544
 31
0.0
  0
LINE
  5
7BD
330
1D
100
AcDbEntity
  8
BLACK
  6
Continuous
100
AcDbLine
 10
304.950364
 20
2.21044
 30
0.0
 11
304.950364
 21
-5.3904
 31
0.0
  0
ARC
  5
7BE
330
1D
100
AcDbEntity
  8
BLACK
100
AcDbCircle
 10
274.224566
 20
2.210408
 30
0.0
 40
1.425082004092396
100
AcDbArc
 50
89.51974267000003
 51
180.00434217
  0
ARC
  5
7BF
330
1D
100
AcDbEntity
  8
BLACK
100
AcDbCircle
 10
274.224485
 20
-5.390439
 30
0.0
 40
1.425001000042456
100
AcDbArc
 50
180.00004021
 51
269.99955772
  0
ARC
  5
7C0
330
1D
100
AcDbEntity
  8
BLACK
100
AcDbCircle
 10
274.62855
 20
-8.540348
 30
0.0
 40
1.724908000166965
100
AcDbArc
 50
20.54547839
 51
89.9992028
  0
ARC
  5
7C1
330
1D
100
AcDbEntity
  8
BLACK
100
AcDbCircle
 10
275.090123
 20
4.563829
 30
0.0
 40
0.9283764359148717
100
AcDbArc
 50
269.99697591
 51
337.97782841
  0
ARC
  5
7C2
330
1D
100
AcDbEntity
  8
BLACK
100
AcDbCircle
 10
276.947273
 20
3.812649
 30
0.0
 40
1.074940192811674
100
AcDbArc
 50
89.99461656
 51
157.97750247
  0
ARC
  5
7C3
330
1D
100
AcDbEntity
  8
BLACK
100
AcDbCircle
 10
277.999461
 20
-7.276915
 30
0.0
 40
1.874995003405076
100
AcDbArc
 50
200.54692151
 51
270.00345303
  0
ARC
  5
7C4
330
1D
100
AcDbEntity
  8
BLACK
100
AcDbCircle
 10
300.802539
 20
3.81261
 30
0.0
 40
1.074990000569773
100
AcDbArc
 50
22.02370504
 51
89.99813454
  0
ARC
  5
7C5
330
1D
100
AcDbEntity
  8
BLACK
100
AcDbCircle
 10
299.750339
 20
-7.276829999999999
 30
0.0
 40
1.875082291400833
100
AcDbArc
 50
270.0025973
 51
339.45098232
  0
ARC
  5
7C6
330
1D
100
AcDbEntity
  8
BLACK
100
AcDbCircle
 10
303.121329
 20
-8.540379999999999
 30
0.0
 40
1.724936068561673
100
AcDbArc
 50
90.00016608000001
 51
159.45408213
  0
ARC
  5
7C7
330
1D
100
AcDbEntity
  8
BLACK
100
AcDbCircle
 10
302.659799
 20
4.563899999999999
 30
0.0
 40
0.9284600003365787
100
AcDbArc
 50
202.02452102
 51
269.99845724
  0
ARC
  5
7C8
330
1D
100
AcDbEntity
  8
BLACK
100
AcDbCircle
 10
303.525399
 20
2.2105
 30
0.0
 40
1.424940000219307
100
AcDbArc
 50
359.99758749
 51
90.00100523000002
  0
ARC
  5
7C9
330
1D
100
AcDbEntity
  8
BLACK
100
AcDbCircle
 10
303.525239
 20
-5.390359999999999
 30
0.0
 40
1.425125000561354
100
AcDbArc
 50
269.52631186
 51
359.99839184
  0
CIRCLE
  5
7CA
330
1D
100
AcDbEntity
  8
BLACK
100
AcDbCircle
 10
272.474999
 20
-9.34
 30
0.0
 40
1.0
  0
CIRCLE
  5
7CB
330
1D
100
AcDbEntity
  8
BLACK
100
AcDbCircle
 10
305.274999
 20
-9.34
 30
0.0
 40
1.0
  0
LINE
  5
7CC
330
1D
100
AcDbEntity
  8
BLACK
  6
Continuous
100
AcDbLine
 10
278.264487
 20
-62.54044099999999
 30
0.0
 11
278.264487
 21
-54.939701
 31
0.0
  0
LINE
  5
7CD
330
1D
100
AcDbEntity
  8
BLACK
  6
Continuous
100
AcDbLine
 10
279.701514
 20
-53.514561
 30
0.0
 11
280.555077
 21
-53.514561
 31
0.0
  0
LINE
  5
7CE
330
1D
100
AcDbEntity
  8
BLACK
  6
Continuous
100
AcDbLine
 10
280.093577
 20
-63.965441
 30
0.0
 11
279.689477
 21
-63.965441
 31
0.0
  0
LINE
  5
7CF
330
1D
100
AcDbEntity
  8
BLACK
  6
Continuous
100
AcDbLine
 10
280.555077
 20
-53.514549
 30
0.0
 11
280.555077
 21
-53.514561
 31
0.0
  0
LINE
  5
7D0
330
1D
100
AcDbEntity
  8
BLACK
  6
Continuous
100
AcDbLine
 10
282.412377
 20
-52.262401
 30
0.0
 11
306.267577
 21
-52.262401
 31
0.0
  0
LINE
  5
7D1
330
1D
100
AcDbEntity
  8
BLACK
  6
Continuous
100
AcDbLine
 10
282.412377
 20
-52.262412
 30
0.0
 11
282.412377
 21
-52.262401
 31
0.0
  0
LINE
  5
7D2
330
1D
100
AcDbEntity
  8
BLACK
  6
Continuous
100
AcDbLine
 10
305.215427
 20
-66.301911
 30
0.0
 11
283.464577
 21
-66.301911
 31
0.0
  0
LINE
  5
7D3
330
1D
100
AcDbEntity
  8
BLACK
  6
Continuous
100
AcDbLine
 10
308.124777
 20
-53.514561
 30
0.0
 11
308.990377
 21
-53.514561
 31
0.0
  0
LINE
  5
7D4
330
1D
100
AcDbEntity
  8
BLACK
  6
Continuous
100
AcDbLine
 10
308.97846
 20
-63.965441
 30
0.0
 11
308.586327
 21
-63.965441
 31
0.0
  0
LINE
  5
7D5
330
1D
100
AcDbEntity
  8
BLACK
  6
Continuous
100
AcDbLine
 10
310.415367
 20
-54.939561
 30
0.0
 11
310.415367
 21
-62.540401
 31
0.0
  0
ARC
  5
7D6
330
1D
100
AcDbEntity
  8
BLACK
100
AcDbCircle
 10
279.689569
 20
-54.939593
 30
0.0
 40
1.425082004092396
100
AcDbArc
 50
89.51974267000003
 51
180.00434217
  0
ARC
  5
7D7
330
1D
100
AcDbEntity
  8
BLACK
100
AcDbCircle
 10
279.689488
 20
-62.54044
 30
0.0
 40
1.425001000042456
100
AcDbArc
 50
180.00004021
 51
269.99955772
  0
ARC
  5
7D8
330
1D
100
AcDbEntity
  8
BLACK
100
AcDbCircle
 10
280.093553
 20
-65.690349
 30
0.0
 40
1.724908000166965
100
AcDbArc
 50
20.54547839
 51
89.9992028
  0
ARC
  5
7D9
330
1D
100
AcDbEntity
  8
BLACK
100
AcDbCircle
 10
280.555126
 20
-52.586172
 30
0.0
 40
0.9283764359148717
100
AcDbArc
 50
269.99697591
 51
337.97782841
  0
ARC
  5
7DA
330
1D
100
AcDbEntity
  8
BLACK
100
AcDbCircle
 10
282.412276
 20
-53.337352
 30
0.0
 40
1.074940192811674
100
AcDbArc
 50
89.99461656
 51
157.97750247
  0
ARC
  5
7DB
330
1D
100
AcDbEntity
  8
BLACK
100
AcDbCircle
 10
283.464464
 20
-64.42691599999999
 30
0.0
 40
1.874995003405076
100
AcDbArc
 50
200.54692151
 51
270.00345303
  0
ARC
  5
7DC
330
1D
100
AcDbEntity
  8
BLACK
100
AcDbCircle
 10
306.267542
 20
-53.337391
 30
0.0
 40
1.074990000569773
100
AcDbArc
 50
22.02370504
 51
89.99813454
  0
ARC
  5
7DD
330
1D
100
AcDbEntity
  8
BLACK
100
AcDbCircle
 10
305.215342
 20
-64.42683099999999
 30
0.0
 40
1.875082291400833
100
AcDbArc
 50
270.0025973
 51
339.45098232
  0
ARC
  5
7DE
330
1D
100
AcDbEntity
  8
BLACK
100
AcDbCircle
 10
308.586332
 20
-65.690381
 30
0.0
 40
1.724936068561673
100
AcDbArc
 50
90.00016608000001
 51
159.45408213
  0
ARC
  5
7DF
330
1D
100
AcDbEntity
  8
BLACK
100
AcDbCircle
 10
308.124802
 20
-52.586101
 30
0.0
 40
0.9284600003365787
100
AcDbArc
 50
202.02452102
 51
269.99845724
  0
ARC
  5
7E0
330
1D
100
AcDbEntity
  8
BLACK
100
AcDbCircle
 10
308.990402
 20
-54.939501
 30
0.0
 40
1.424940000219307
100
AcDbArc
 50
359.99758749
 51
90.00100523000002
  0
ARC
  5
7E1
330
1D
100
AcDbEntity
  8
BLACK
100
AcDbCircle
 10
308.990242
 20
-62.540361
 30
0.0
 40
1.425125000561354
100
AcDbArc
 50
269.52631186
 51
359.99839184
  0
CIRCLE
  5
7E2
330
1D
100
AcDbEntity
  8
BLACK
100
AcDbCircle
 10
277.940002
 20
-66.49000099999999
 30
0.0
 40
1.0
  0
CIRCLE
  5
7E3
330
1D
100
AcDbEntity
  8
BLACK
100
AcDbCircle
 10
310.740002
 20
-66.49000099999999
 30
0.0
 40
1.0
  0
LINE
  5
7E4
330
1D
100
AcDbEntity
  8
BLACK
  6
Continuous
100
AcDbLine
 10
88.311737
 20
-86.697266
 30
0.0
 11
89.89202
 21
-79.26262
 31
0.0
  0
LINE
  5
7E5
330
1D
100
AcDbEntity
  8
BLACK
  6
Continuous
100
AcDbLine
 10
91.593948
 20
-78.167397
 30
0.0
 11
92.42885799999999
 21
-78.34486299999999
 31
0.0
  0
LINE
  5
7E6
330
1D
100
AcDbEntity
  8
BLACK
  6
Continuous
100
AcDbLine
 10
89.804583
 20
-88.471415
 30
0.0
 11
89.409313
 21
-88.38739799999999
 31
0.0
  0
LINE
  5
7E7
330
1D
100
AcDbEntity
  8
BLACK
  6
Continuous
100
AcDbLine
 10
92.428861
 20
-78.34485099999999
 30
0.0
 11
92.42885799999999
 21
-78.34486299999999
 31
0.0
  0
LINE
  5
7E8
330
1D
100
AcDbEntity
  8
BLACK
  6
Continuous
100
AcDbLine
 10
94.50591
 20
-77.50622
 30
0.0
 11
117.839817
 21
-82.46599499999999
 31
0.0
  0
LINE
  5
7E9
330
1D
100
AcDbEntity
  8
BLACK
  6
Continuous
100
AcDbLine
 10
94.50590799999999
 20
-77.506231
 30
0.0
 11
94.50591
 21
-77.50622
 31
0.0
  0
LINE
  5
7EA
330
1D
100
AcDbEntity
  8
BLACK
  6
Continuous
100
AcDbLine
 10
113.891681
 20
-95.97995399999999
 30
0.0
 11
92.61613899999999
 21
-91.457698
 31
0.0
  0
LINE
  5
7EB
330
1D
100
AcDbEntity
  8
BLACK
  6
Continuous
100
AcDbLine
 10
119.396094
 20
-84.076926
 30
0.0
 11
120.242779
 21
-84.256894
 31
0.0
  0
LINE
  5
7EC
330
1D
100
AcDbEntity
  8
BLACK
  6
Continuous
100
AcDbLine
 10
118.058262
 20
-94.47691999999999
 30
0.0
 11
117.674698
 21
-94.39539099999999
 31
0.0
  0
LINE
  5
7ED
330
1D
100
AcDbEntity
  8
BLACK
  6
Continuous
100
AcDbLine
 10
121.340355
 20
-85.94702699999999
 30
0.0
 11
119.760052
 21
-93.38176999999999
 31
0.0
  0
ARC
  5
7EE
330
1D
100
AcDbEntity
  8
BLACK
100
AcDbCircle
 10
91.285983
 20
-79.55880599999999
 30
0.0
 40
1.425082100078799
100
AcDbArc
 50
77.51974185
 51
168.00432524
  0
ARC
  5
7EF
330
1D
100
AcDbEntity
  8
BLACK
100
AcDbCircle
 10
89.70559899999999
 20
-86.993539
 30
0.0
 40
1.425001159886194
100
AcDbArc
 50
168.00005955
 51
257.9995232
  0
ARC
  5
7F0
330
1D
100
AcDbEntity
  8
BLACK
100
AcDbCircle
 10
89.445931
 20
-90.158625
 30
0.0
 40
1.724908357334963
100
AcDbArc
 50
8.54548698
 51
77.99920581
  0
ARC
  5
7F1
330
1D
100
AcDbEntity
  8
BLACK
100
AcDbCircle
 10
92.621929
 20
-77.43677199999999
 30
0.0
 40
0.9283762644989367
100
AcDbArc
 50
257.9969906800001
 51
325.97784425
  0
ARC
  5
7F2
330
1D
100
AcDbEntity
  8
BLACK
100
AcDbCircle
 10
94.28231699999999
 20
-78.55766
 30
0.0
 40
1.074940539983957
100
AcDbArc
 50
77.99463687
 51
145.97750227
  0
ARC
  5
7F3
330
1D
100
AcDbEntity
  8
BLACK
100
AcDbCircle
 10
93.005862
 20
-89.62365299999999
 30
0.0
 40
1.874994687660208
100
AcDbArc
 50
188.546909
 51
258.0034463
  0
ARC
  5
7F4
330
1D
100
AcDbEntity
  8
BLACK
100
AcDbCircle
 10
117.61628
 20
-83.517487
 30
0.0
 40
1.074990333181187
100
AcDbArc
 50
10.02372311
 51
77.99815049999998
  0
ARC
  5
7F5
330
1D
100
AcDbEntity
  8
BLACK
100
AcDbCircle
 10
114.281449
 20
-94.145831
 30
0.0
 40
1.875082643488548
100
AcDbArc
 50
258.00259669
 51
327.45097307
  0
ARC
  5
7F6
330
1D
100
AcDbEntity
  8
BLACK
100
AcDbCircle
 10
117.316068
 20
-96.08263799999999
 30
0.0
 40
1.724935945343478
100
AcDbArc
 50
78.00017613
 51
147.45408252
  0
ARC
  5
7F7
330
1D
100
AcDbEntity
  8
BLACK
100
AcDbCircle
 10
119.589156
 20
-83.16875999999999
 30
0.0
 40
0.9284602411519838
100
AcDbArc
 50
190.02453805
 51
257.99846936
  0
ARC
  5
7F8
330
1D
100
AcDbEntity
  8
BLACK
100
AcDbCircle
 10
119.946541
 20
-85.650701
 30
0.0
 40
1.424940316607331
100
AcDbArc
 50
347.9975738
 51
78.00097632
  0
ARC
  5
7F9
330
1D
100
AcDbEntity
  8
BLACK
100
AcDbCircle
 10
118.366077
 20
-93.085431
 30
0.0
 40
1.425125644827852
100
AcDbArc
 50
257.526325
 51
347.99840862
  0
CIRCLE
  5
7FA
330
1D
100
AcDbEntity
  8
BLACK
100
AcDbCircle
 10
87.173183
 20
-90.493054
 30
0.0
 40
1.0
  0
CIRCLE
  5
7FB
330
1D
100
AcDbEntity
  8
BLACK
100
AcDbCircle
 10
119.256424
 20
-97.312557
 30
0.0
 40
1.0
  0
LINE
  5
7FC
330
1D
100
AcDbEntity
  8
BLACK
  6
Continuous
100
AcDbLine
 10
128.864974
 20
-86.905565
 30
0.0
 11
126.796252
 21
-96.638134
 31
0.0
  0
LINE
  5
7FD
330
1D
100
AcDbEntity
  8
BLACK
  6
Continuous
100
AcDbLine
 10
141.645504
 20
-87.500794
 30
0.0
 11
131.326046
 21
-85.30732499999999
 31
0.0
  0
LINE
  5
7FE
330
1D
100
AcDbEntity
  8
BLACK
  6
Continuous
100
AcDbLine
 10
138.713949
 20
-101.292675
 30
0.0
 11
128.394492
 21
-99.099206
 31
0.0
  0
LINE
  5
7FF
330
1D
100
AcDbEntity
  8
BLACK
  6
Continuous
100
AcDbLine
 10
143.243744
 20
-89.961867
 30
0.0
 11
141.175022
 21
-99.694435
 31
0.0
  0
ARC
  5
800
330
1D
100
AcDbEntity
  8
BLACK
100
AcDbCircle
 10
130.894633
 20
-87.336986
 30
0.0
 40
2.075003550725155
100
AcDbArc
 50
78.00012866
 51
167.9999011
  0
ARC
  5
801
330
1D
100
AcDbEntity
  8
BLACK
100
AcDbCircle
 10
128.825911
 20
-97.069549
 30
0.0
 40
2.075001178604484
100
AcDbArc
 50
168.00006316
 51
257.9999436399999
  0
ARC
  5
802
330
1D
100
AcDbEntity
  8
BLACK
100
AcDbCircle
 10
141.214087
 20
-89.53045
 30
0.0
 40
2.074999784632519
100
AcDbArc
 50
347.99999766
 51
77.99999192
  0
ARC
  5
803
330
1D
100
AcDbEntity
  8
BLACK
100
AcDbCircle
 10
139.145366
 20
-99.263018
 30
0.0
 40
2.074999784632519
100
AcDbArc
 50
257.99999766
 51
347.99999192
  0
ENDSEC
  0
SECTION
  2
OBJECTS
  0
DICTIONARY
  5
C
330
0
100
AcDbDictionary
281
1
  3
ACAD_DETAILVIEWSTYLE
350
7A3
  3
ACAD_GROUP
350
D
  3
ACAD_LAYOUT
350
1A
  3
ACAD_MATERIAL
350
793
  3
ACAD_MLEADERSTYLE
350
799
  3
ACAD_MLINESTYLE
350
17
  3
ACAD_PLOTSETTINGS
350
19
  3
ACAD_PLOTSTYLENAME
350
E
  3
ACAD_SCALELIST
350
764
  3
ACAD_SECTIONVIEWSTYLE
350
7A4
  3
ACAD_TABLESTYLE
350
797
  3
ACAD_VISUALSTYLE
350
77A
  3
AcDbVariableDictionary
350
79B
  3
ACDB_RECOMPOSE_DATA
350
79F
  3
ACAD_COLOR
350
7A5
  3
EZDXF_META
350
7AA
  0
DICTIONARY
  5
7A3
102
{ACAD_REACTORS
330
C
102
}
330
C
100
AcDbDictionary
281
1
  0
DICTIONARY
  5
D
102
{ACAD_REACTORS
330
C
102
}
330
C
100
AcDbDictionary
281
1
  0
DICTIONARY
  5
1A
102
{ACAD_REACTORS
330
C
102
}
330
C
100
AcDbDictionary
281
1
  3
Layout1
350
1C
  3
Model
350
1E
  0
DICTIONARY
  5
793
102
{ACAD_REACTORS
330
C
102
}
330
C
100
AcDbDictionary
281
1
  3
ByBlock
350
795
  3
ByLayer
350
794
  3
Global
350
796
  0
DICTIONARY
  5
799
102
{ACAD_REACTORS
330
C
102
}
330
C
100
AcDbDictionary
281
1
  3
Standard
350
79A
  0
DICTIONARY
  5
17
102
{ACAD_REACTORS
330
C
102
}
330
C
100
AcDbDictionary
281
1
  3
Standard
350
18
  0
DICTIONARY
  5
19
102
{ACAD_REACTORS
330
C
102
}
330
C
100
AcDbDictionary
281
1
  0
ACDBDICTIONARYWDFLT
  5
E
102
{ACAD_REACTORS
330
C
102
}
330
C
100
AcDbDictionary
281
1
  3
Normal
350
F
100
AcDbDictionaryWithDefault
340
F
  0
DICTIONARY
  5
764
102
{ACAD_REACTORS
330
C
102
}
330
C
100
AcDbDictionary
281
1
  3
A0
350
765
  3
A1
350
766
  3
A2
350
767
  3
A3
350
768
  3
A4
350
769
  3
A5
350
76A
  3
A6
350
76B
  3
A7
350
76C
  3
A8
350
76D
  3
A9
350
76E
  3
B0
350
76F
  3
B1
350
770
  3
B2
350
771
  3
B3
350
772
  3
B4
350
773
  3
B5
350
774
  3
B6
350
775
  0
DICTIONARY
  5
7A4
102
{ACAD_REACTORS
330
C
102
}
330
C
100
AcDbDictionary
281
1
  0
DICTIONARY
  5
797
102
{ACAD_REACTORS
330
C
102
}
330
C
100
AcDbDictionary
281
1
  3
Standard
350
798
  0
DICTIONARY
  5
77A
102
{ACAD_REACTORS
330
C
102
}
330
C
100
AcDbDictionary
281
1
  3
2dWireframe
350
77F
  3
Basic
350
782
  3
Brighten
350
786
  3
ColorChange
350
78A
  3
Conceptual
350
784
  3
Dim
350
785
  3
EdgeColorOff
350
78D
  3
Facepattern
350
789
  3
Flat
350
77B
  3
FlatWithEdges
350
77C
  3
Gouraud
350
77D
  3
GouraudWithEdges
350
77E
  3
Hidden
350
781
  3
JitterOff
350
78B
  3
Linepattern
350
788
  3
OverhangOff
350
78C
  3
Realistic
350
783
  3
Shaded
350
792
  3
Shaded with edges
350
791
  3
Shades of Gray
350
78E
  3
Sketchy
350
78F
  3
Thicken
350
787
  3
Wireframe
350
780
  3
X-Ray
350
790
  0
DICTIONARY
  5
79B
102
{ACAD_REACTORS
330
C
102
}
330
C
100
AcDbDictionary
281
1
  3
CANNOSCALE
350
79C
  3
CMLEADERSTYLE
350
7A1
  3
CTABLESTYLE
350
7A0
  3
MSLTSCALE
350
7A2
  0
XRECORD
  5
79F
102
{ACAD_REACTORS
330
C
102
}
330
C
100
AcDbXrecord
280
1
 90
1
330
798
  0
LAYOUT
  5
1C
102
{ACAD_REACTORS
330
1A
102
}
330
1A
100
AcDbPlotSettings
  1

  2
none_device
  4

  6

 40
0.0
 41
0.0
 42
0.0
 43
0.0
 44
0.0
 45
0.0
 46
0.0
 47
0.0
 48
0.0
 49
0.0
140
0.0
141
0.0
142
1.0
143
1.0
 70
688
 72
0
 73
0
 74
5
  7

 75
16
 76
0
 77
2
 78
300
147
1.0
148
0.0
149
0.0
100
AcDbLayout
  1
Layout1
 70
1
 71
1
 10
0.0
 20
0.0
 11
12.0
 21
9.0
 12
0.0
 22
0.0
 32
0.0
 14
1e+20
 24
1e+20
 34
1e+20
 15
-1e+20
 25
-1e+20
 35
-1e+20
146
0.0
 13
0.0
 23
0.0
 33
0.0
 16
1.0
 26
0.0
 36
0.0
 17
0.0
 27
1.0
 37
0.0
 76
0
330
1B
  0
LAYOUT
  5
1E
102
{ACAD_REACTORS
330
1A
102
}
330
1A
100
AcDbPlotSettings
  1

  2
none_device
  4
Letter_(8.50_x_11.00_Inches)
  6

 40
6.35
 41
6.35
 42
6.35000508
 43
6.35000508
 44
215.9
 45
279.4
 46
0.0
 47
0.0
 48
0.0
 49
0.0
140
0.0
141
0.0
142
1.0
143
1.0
 70
1712
 72
0
 73
0
 74
0
  7

 75
0
 76
0
 77
2
 78
300
147
1.0
148
0.0
149
0.0
100
AcDbLayout
  1
Model
 70
1
 71
0
 10
0.0
 20
0.0
 11
12.0
 21
9.0
 12
0.0
 22
0.0
 32
0.0
 14
1e+20
 24
1e+20
 34
1e+20
 15
-1e+20
 25
-1e+20
 35
-1e+20
146
0.0
 13
0.0
 23
0.0
 33
0.0
 16
1.0
 26
0.0
 36
0.0
 17
0.0
 27
1.0
 37
0.0
 76
0
330
1D
331
442
  0
MATERIAL
  5
795
102
{ACAD_REACTORS
330
793
102
}
330
793
100
AcDbMaterial
  1
ByBlock
  2

 70
0
 40
1.0
 71
0
 41
1.0
 91
-1023410177
 42
1.0
 72
1
  3

 73
1
 74
1
 75
1
 44
0.5
 73
0
 45
1.0
 46
1.0
 77
1
  4

 78
1
 79
1
170
1
 48
1.0
171
1
  6

172
1
173
1
174
1
140
1.0
141
1.0
175
1
  7

176
1
177
1
178
1
143
1.0
179
1
  8

270
1
271
1
272
1
145
1.0
146
1.0
273
1
  9

274
1
275
1
276
1
 42
1.0
 72
1
  3

 73
1
 74
1
 75
1
 94
127
  0
MATERIAL
  5
794
102
{ACAD_REACTORS
330
793
102
}
330
793
100
AcDbMaterial
  1
ByLayer
  2

 70
0
 40
1.0
 71
0
 41
1.0
 91
-1023410177
 42
1.0
 72
1
  3

 73
1
 74
1
 75
1
 44
0.5
 73
0
 45
1.0
 46
1.0
 77
1
  4

 78
1
 79
1
170
1
 48
1.0
171
1
  6

172
1
173
1
174
1
140
1.0
141
1.0
175
1
  7

176
1
177
1
178
1
143
1.0
179
1
  8

270
1
271
1
272
1
145
1.0
146
1.0
273
1
  9

274
1
275
1
276
1
 42
1.0
 72
1
  3

 73
1
 74
1
 75
1
 94
127
  0
MATERIAL
  5
796
102
{ACAD_REACTORS
330
793
102
}
330
793
100
AcDbMaterial
  1
Global
  2

 70
0
 40
1.0
 71
0
 41
1.0
 91
-1023410177
 42
1.0
 72
1
  3

 73
1
 74
1
 75
1
 44
0.5
 73
0
 45
1.0
 46
1.0
 77
1
  4

 78
1
 79
1
170
1
 48
1.0
171
1
  6

172
1
173
1
174
1
140
1.0
141
1.0
175
1
  7

176
1
177
1
178
1
143
1.0
179
1
  8

270
1
271
1
272
1
145
1.0
146
1.0
273
1
  9

274
1
275
1
276
1
 42
1.0
 72
1
  3

 73
1
 74
1
 75
1
 94
127
  0
MLEADERSTYLE
  5
79A
102
{ACAD_REACTORS
330
799
102
}
330
799
100
AcDbMLeaderStyle
179
2
170
2
171
1
172
0
 90
2
 40
0.0
 41
0.0
173
1
 91
-1056964608
340
14
 92
-2
290
1
 42
2.0
291
1
 43
8.0
  3
Standard
341
0
 44
4.0
300

342
11
174
1
175
1
176
0
178
6
 93
-1056964608
 45
4.0
292
0
297
0
 46
4.0
293
1
343
0
 94
-1056964608
 47
1.0
 49
1.0
140
1.0
294
1
141
0.0
177
0
142
1.0
295
0
296
0
143
3.75
271
0
272
9
273
9
298
0
  0
MLINESTYLE
  5
18
102
{ACAD_REACTORS
330
17
102
}
330
17
100
AcDbMlineStyle
  2
Standard
 70
0
  3

 62
256
 51
90.0
 52
90.0
 71
2
 49
0.5
 62
256
  6
BYLAYER
 49
-0.5
 62
256
  6
BYLAYER
  0
ACDBPLACEHOLDER
  5
F
102
{ACAD_REACTORS
330
E
102
}
330
E
  0
SCALE
  5
765
102
{ACAD_REACTORS
330
764
102
}
330
764
100
AcDbScale
 70
0
300
1:1
140
1.0
141
1.0
290
1
  0
SCALE
  5
766
102
{ACAD_REACTORS
330
764
102
}
330
764
100
AcDbScale
 70
0
300
1:2
140
1.0
141
2.0
290
0
  0
SCALE
  5
767
102
{ACAD_REACTORS
330
764
102
}
330
764
100
AcDbScale
 70
0
300
1:4
140
1.0
141
4.0
290
0
  0
SCALE
  5
768
102
{ACAD_REACTORS
330
764
102
}
330
764
100
AcDbScale
 70
0
300
1:5
140
1.0
141
5.0
290
0
  0
SCALE
  5
769
102
{ACAD_REACTORS
330
764
102
}
330
764
100
AcDbScale
 70
0
300
1:8
140
1.0
141
8.0
290
0
  0
SCALE
  5
76A
102
{ACAD_REACTORS
330
764
102
}
330
764
100
AcDbScale
 70
0
300
1:10
140
1.0
141
10.0
290
0
  0
SCALE
  5
76B
102
{ACAD_REACTORS
330
764
102
}
330
764
100
AcDbScale
 70
0
300
1:16
140
1.0
141
16.0
290
0
  0
SCALE
  5
76C
102
{ACAD_REACTORS
330
764
102
}
330
764
100
AcDbScale
 70
0
300
1:20
140
1.0
141
20.0
290
0
  0
SCALE
  5
76D
102
{ACAD_REACTORS
330
764
102
}
330
764
100
AcDbScale
 70
0
300
1:30
140
1.0
141
30.0
290
0
  0
SCALE
  5
76E
102
{ACAD_REACTORS
330
764
102
}
330
764
100
AcDbScale
 70
0
300
1:40
140
1.0
141
40.0
290
0
  0
SCALE
  5
76F
102
{ACAD_REACTORS
330
764
102
}
330
764
100
AcDbScale
 70
0
300
1:50
140
1.0
141
50.0
290
0
  0
SCALE
  5
770
102
{ACAD_REACTORS
330
764
102
}
330
764
100
AcDbScale
 70
0
300
1:100
140
1.0
141
100.0
290
0
  0
SCALE
  5
771
102
{ACAD_REACTORS
330
764
102
}
330
764
100
AcDbScale
 70
0
300
2:1
140
2.0
141
1.0
290
0
  0
SCALE
  5
772
102
{ACAD_REACTORS
330
764
102
}
330
764
100
AcDbScale
 70
0
300
4:1
140
4.0
141
1.0
290
0
  0
SCALE
  5
773
102
{ACAD_REACTORS
330
764
102
}
330
764
100
AcDbScale
 70
0
300
8:1
140
8.0
141
1.0
290
0
  0
SCALE
  5
774
102
{ACAD_REACTORS
330
764
102
}
330
764
100
AcDbScale
 70
0
300
10:1
140
10.0
141
1.0
290
0
  0
SCALE
  5
775
102
{ACAD_REACTORS
330
764
102
}
330
764
100
AcDbScale
 70
0
300
100:1
140
100.0
141
1.0
290
0
  0
TABLESTYLE
  5
798
102
{ACAD_XDICTIONARY
360
79D
102
}
102
{ACAD_REACTORS
330
797
102
}
330
797
100
AcDbTableStyle
  3
Standard
 70
0
 71
0
 40
0.06
 41
0.06
280
0
281
0
  7
Standard
140
4.5
170
2
 62
0
 63
257
283
0
 90
4
 91
0
  1

274
-2
284
1
 64
0
275
-2
285
1
 65
0
276
-2
286
1
 66
0
277
-2
287
1
 67
0
278
-2
288
1
 68
0
279
-2
289
1
 69
0
  7
Standard
140
6.0
170
5
 62
0
 63
257
283
0
 90
4
 91
0
  1

274
-2
284
1
 64
0
275
-2
285
1
 65
0
276
-2
286
1
 66
0
277
-2
287
1
 67
0
278
-2
288
1
 68
0
279
-2
289
1
 69
0
  7
Standard
140
4.5
170
5
 62
0
 63
257
283
0
 90
4
 91
0
  1

274
-2
284
1
 64
0
275
-2
285
1
 65
0
276
-2
286
1
 66
0
277
-2
287
1
 67
0
278
-2
288
1
 68
0
279
-2
289
1
 69
0
  0
VISUALSTYLE
  5
77F
102
{ACAD_REACTORS
330
77A
102
}
330
77A
100
AcDbVisualStyle
  2
2dWireframe
 70
4
177
3
291
0
 70
58
 90
0
176
1
 90
2
176
1
 90
0
176
1
 90
0
176
1
 40
0.6
176
1
 40
30.0
176
1
 62
7
420
16777215
176
1
 90
1
176
1
 90
4
176
1
 62
7
176
1
 62
257
176
1
 90
1
176
1
 90
1
176
1
 40
1.0
176
1
 90
0
176
1
 62
257
176
1
 40
1.0
176
1
 90
1
176
1
 90
6
176
1
 90
2
176
1
 62
7
176
1
 90
5
176
1
 90
0
176
1
 90
0
176
1
290
0
176
1
 90
1
176
1
 40
0.0
176
1
 90
0
176
1
290
1
176
1
290
1
176
1
290
0
176
1
290
0
176
1
290
0
176
1
290
0
176
1
290
0
176
1
290
0
176
1
290
0
176
1
 90
50
176
1
 40
0.0
176
1
 40
1.0
176
1
 90
0
176
1
 62
18
420
0
176
1
 90
50
176
1
 90
3
176
1
 62
5
420
255
176
1
290
0
176
1
 90
50
176
1
 90
50
176
1
 90
50
176
1
290
0
176
1
 90
50
176
1
 62
256
176
0
 40
1.0
176
0
 90
2
176
1
  1
strokes_ogs.tif
176
1
290
0
176
1
 40
1.0
176
1
 40
1.0
176
1
  0
VISUALSTYLE
  5
782
102
{ACAD_REACTORS
330
77A
102
}
330
77A
100
AcDbVisualStyle
  2
Basic
 70
7
177
3
291
1
 70
58
 90
1
176
1
 90
0
176
1
 90
1
176
1
 90
0
176
1
 40
0.6
176
1
 40
30.0
176
1
 62
7
420
16777215
176
1
 90
0
176
1
 90
4
176
1
 62
7
176
1
 62
257
176
1
 90
1
176
1
 90
1
176
1
 40
1.0
176
1
 90
8
176
1
 62
7
176
1
 40
1.0
176
1
 90
1
176
1
 90
6
176
1
 90
2
176
1
 62
7
176
1
 90
5
176
1
 90
0
176
1
 90
0
176
1
290
0
176
1
 90
1
176
1
 40
0.0
176
1
 90
0
176
1
290
0
176
1
290
1
176
1
290
1
176
1
290
0
176
1
290
0
176
1
290
0
176
1
290
0
176
1
290
0
176
1
290
0
176
1
 90
50
176
1
 40
0.0
176
1
 40
1.0
176
1
 90
0
176
1
 62
18
420
0
176
1
 90
50
176
1
 90
3
176
1
 62
5
420
255
176
1
290
0
176
1
 90
50
176
1
 90
50
176
1
 90
50
176
1
290
0
176
1
 90
50
176
1
 62
256
176
0
 40
1.0
176
0
 90
2
176
1
  1
strokes_ogs.tif
176
1
290
0
176
1
 40
1.0
176
1
 40
1.0
176
1
  0
VISUALSTYLE
  5
786
102
{ACAD_REACTORS
330
77A
102
}
330
77A
100
AcDbVisualStyle
  2
Brighten
 70
12
177
3
291
1
 70
58
 90
2
176
1
 90
2
176
1
 90
0
176
1
 90
0
176
1
 40
0.6
176
1
 40
30.0
176
1
 62
7
420
16777215
176
1
 90
1
176
1
 90
4
176
1
 62
7
176
1
 62
257
176
1
 90
1
176
1
 90
1
176
1
 40
1.0
176
1
 90
8
176
1
 62
7
176
1
 40
1.0
176
1
 90
1
176
1
 90
6
176
1
 90
2
176
1
 62
7
176
1
 90
5
176
1
 90
0
176
1
 90
0
176
1
290
0
176
1
 90
1
176
1
 40
50.0
176
1
 90
0
176
1
290
0
176
1
290
1
176
1
290
1
176
1
290
0
176
1
290
0
176
1
290
0
176
1
290
0
176
1
290
0
176
1
290
0
176
1
 90
50
176
1
 40
0.0
176
1
 40
1.0
176
1
 90
0
176
1
 62
18
420
0
176
1
 90
50
176
1
 90
3
176
1
 62
5
420
255
176
1
290
0
176
1
 90
50
176
1
 90
50
176
1
 90
50
176
1
290
0
176
1
 90
50
176
1
 62
256
176
0
 40
1.0
176
0
 90
2
176
1
  1
strokes_ogs.tif
176
1
290
0
176
1
 40
1.0
176
1
 40
1.0
176
1
  0
VISUALSTYLE
  5
78A
102
{ACAD_REACTORS
330
77A
102
}
330
77A
100
AcDbVisualStyle
  2
ColorChange
 70
16
177
3
291
1
 70
58
 90
2
176
1
 90
2
176
1
 90
3
176
1
 90
0
176
1
 40
0.6
176
1
 40
30.0
176
1
 62
8
420
8421504
176
1
 90
1
176
1
 90
4
176
1
 62
7
176
1
 62
257
176
1
 90
1
176
1
 90
1
176
1
 40
1.0
176
1
 90
8
176
1
 62
8
420
8421504
176
1
 40
1.0
176
1
 90
1
176
1
 90
6
176
1
 90
2
176
1
 62
7
176
1
 90
5
176
1
 90
0
176
1
 90
0
176
1
290
0
176
1
 90
1
176
1
 40
0.0
176
1
 90
0
176
1
290
0
176
1
290
1
176
1
290
1
176
1
290
0
176
1
290
0
176
1
290
0
176
1
290
0
176
1
290
0
176
1
290
0
176
1
 90
50
176
1
 40
0.0
176
1
 40
1.0
176
1
 90
0
176
1
 62
18
420
0
176
1
 90
50
176
1
 90
3
176
1
 62
5
420
255
176
1
290
0
176
1
 90
50
176
1
 90
50
176
1
 90
50
176
1
290
0
176
1
 90
50
176
1
 62
256
176
0
 40
1.0
176
0
 90
2
176
1
  1
strokes_ogs.tif
176
1
290
0
176
1
 40
1.0
176
1
 40
1.0
176
1
  0
VISUALSTYLE
  5
784
102
{ACAD_REACTORS
330
77A
102
}
330
77A
100
AcDbVisualStyle
  2
Conceptual
 70
9
177
3
291
0
 70
58
 90
3
176
1
 90
2
176
1
 90
0
176
1
 90
0
176
1
 40
0.6
176
1
 40
30.0
176
1
 62
7
420
16777215
176
1
 90
2
176
1
 90
2
176
1
 62
7
176
1
 62
257
176
1
 90
1
176
1
 90
1
176
1
 40
179.0
176
1
 90
8
176
1
 62
7
176
1
 40
1.0
176
1
 90
1
176
1
 90
6
176
1
 90
2
176
1
 62
7
176
1
 90
3
176
1
 90
0
176
1
 90
0
176
1
290
0
176
1
 90
1
176
1
 40
0.0
176
1
 90
0
176
1
290
0
176
1
290
1
176
1
290
1
176
1
290
0
176
1
290
0
176
1
290
0
176
1
290
0
176
1
290
0
176
1
290
0
176
1
 90
50
176
1
 40
0.0
176
1
 40
1.0
176
1
 90
0
176
1
 62
18
420
0
176
1
 90
50
176
1
 90
3
176
1
 62
5
420
255
176
1
290
0
176
1
 90
50
176
1
 90
50
176
1
 90
50
176
1
290
0
176
1
 90
50
176
1
 62
256
176
0
 40
1.0
176
0
 90
2
176
1
  1
strokes_ogs.tif
176
1
290
0
176
1
 40
1.0
176
1
 40
1.0
176
1
  0
VISUALSTYLE
  5
785
102
{ACAD_REACTORS
330
77A
102
}
330
77A
100
AcDbVisualStyle
  2
Dim
 70
11
177
3
291
1
 70
58
 90
2
176
1
 90
2
176
1
 90
0
176
1
 90
0
176
1
 40
0.6
176
1
 40
30.0
176
1
 62
7
420
16777215
176
1
 90
1
176
1
 90
4
176
1
 62
7
176
1
 62
257
176
1
 90
1
176
1
 90
1
176
1
 40
1.0
176
1
 90
8
176
1
 62
7
176
1
 40
1.0
176
1
 90
1
176
1
 90
6
176
1
 90
2
176
1
 62
7
176
1
 90
5
176
1
 90
0
176
1
 90
0
176
1
290
0
176
1
 90
1
176
1
 40
-50.0
176
1
 90
0
176
1
290
0
176
1
290
1
176
1
290
1
176
1
290
0
176
1
290
0
176
1
290
0
176
1
290
0
176
1
290
0
176
1
290
0
176
1
 90
50
176
1
 40
0.0
176
1
 40
1.0
176
1
 90
0
176
1
 62
18
420
0
176
1
 90
50
176
1
 90
3
176
1
 62
5
420
255
176
1
290
0
176
1
 90
50
176
1
 90
50
176
1
 90
50
176
1
290
0
176
1
 90
50
176
1
 62
256
176
0
 40
1.0
176
0
 90
2
176
1
  1
strokes_ogs.tif
176
1
290
0
176
1
 40
1.0
176
1
 40
1.0
176
1
  0
VISUALSTYLE
  5
78D
102
{ACAD_REACTORS
330
77A
102
}
330
77A
100
AcDbVisualStyle
  2
EdgeColorOff
 70
22
177
3
291
1
 70
58
 90
2
176
0
 90
2
176
0
 90
0
176
0
 90
0
176
0
 40
0.6
176
0
 40
30.0
176
0
 62
7
420
16777215
176
0
 90
1
176
0
 90
4
176
0
 62
7
176
0
 62
257
176
0
 90
1
176
0
 90
1
176
0
 40
1.0
176
0
 90
8
176
2
 62
7
176
0
 40
1.0
176
0
 90
1
176
0
 90
6
176
0
 90
2
176
0
 62
7
176
0
 90
5
176
0
 90
0
176
0
 90
0
176
0
290
0
176
0
 90
1
176
0
 40
0.0
176
0
 90
0
176
0
290
0
176
0
290
1
176
0
290
1
176
0
290
0
176
0
290
0
176
0
290
0
176
0
290
0
176
0
290
0
176
0
290
0
176
0
 90
50
176
0
 40
0.0
176
0
 40
1.0
176
0
 90
0
176
0
 62
18
420
0
176
0
 90
50
176
0
 90
3
176
0
 62
5
420
255
176
0
290
0
176
0
 90
50
176
0
 90
50
176
0
 90
50
176
0
290
0
176
0
 90
50
176
0
 62
256
176
0
 40
1.0
176
0
 90
2
176
0
  1
strokes_ogs.tif
176
0
290
0
176
0
 40
1.0
176
0
 40
1.0
176
0
  0
VISUALSTYLE
  5
789
102
{ACAD_REACTORS
330
77A
102
}
330
77A
100
AcDbVisualStyle
  2
Facepattern
 70
15
177
3
291
1
 70
58
 90
2
176
1
 90
2
176
1
 90
0
176
1
 90
0
176
1
 40
0.6
176
1
 40
30.0
176
1
 62
7
420
16777215
176
1
 90
1
176
1
 90
4
176
1
 62
7
176
1
 62
257
176
1
 90
1
176
1
 90
1
176
1
 40
1.0
176
1
 90
8
176
1
 62
7
176
1
 40
1.0
176
1
 90
1
176
1
 90
6
176
1
 90
2
176
1
 62
7
176
1
 90
5
176
1
 90
0
176
1
 90
0
176
1
290
0
176
1
 90
1
176
1
 40
0.0
176
1
 90
0
176
1
290
0
176
1
290
1
176
1
290
1
176
1
290
0
176
1
290
0
176
1
290
0
176
1
290
0
176
1
290
0
176
1
290
0
176
1
 90
50
176
1
 40
0.0
176
1
 40
1.0
176
1
 90
0
176
1
 62
18
420
0
176
1
 90
50
176
1
 90
3
176
1
 62
5
420
255
176
1
290
0
176
1
 90
50
176
1
 90
50
176
1
 90
50
176
1
290
0
176
1
 90
50
176
1
 62
256
176
0
 40
1.0
176
0
 90
2
176
1
  1
strokes_ogs.tif
176
1
290
0
176
1
 40
1.0
176
1
 40
1.0
176
1
  0
VISUALSTYLE
  5
77B
102
{ACAD_REACTORS
330
77A
102
}
330
77A
100
AcDbVisualStyle
  2
Flat
 70
0
177
3
291
1
 70
58
 90
2
176
1
 90
1
176
1
 90
1
176
1
 90
2
176
1
 40
0.6
176
1
 40
30.0
176
1
 62
7
420
16777215
176
1
 90
0
176
1
 90
0
176
1
 62
7
176
1
 62
257
176
1
 90
1
176
1
 90
1
176
1
 40
1.0
176
1
 90
8
176
1
 62
7
176
1
 40
1.0
176
1
 90
1
176
1
 90
6
176
1
 90
2
176
1
 62
7
176
1
 90
5
176
1
 90
0
176
1
 90
0
176
1
290
0
176
1
 90
13
176
1
 40
0.0
176
1
 90
0
176
1
290
0
176
1
290
1
176
1
290
1
176
1
290
0
176
1
290
0
176
1
290
0
176
1
290
0
176
1
290
0
176
1
290
0
176
1
 90
50
176
1
 40
0.0
176
1
 40
1.0
176
1
 90
0
176
1
 62
18
420
0
176
1
 90
50
176
1
 90
3
176
1
 62
5
420
255
176
1
290
0
176
1
 90
50
176
1
 90
50
176
1
 90
50
176
1
290
0
176
1
 90
50
176
1
 62
256
176
0
 40
1.0
176
0
 90
2
176
1
  1
strokes_ogs.tif
176
1
290
0
176
1
 40
1.0
176
1
 40
1.0
176
1
  0
VISUALSTYLE
  5
77C
102
{ACAD_REACTORS
330
77A
102
}
330
77A
100
AcDbVisualStyle
  2
FlatWithEdges
 70
1
177
3
291
1
 70
58
 90
2
176
1
 90
1
176
1
 90
1
176
1
 90
2
176
1
 40
0.6
176
1
 40
30.0
176
1
 62
7
420
16777215
176
1
 90
1
176
1
 90
0
176
1
 62
7
176
1
 62
257
176
1
 90
1
176
1
 90
1
176
1
 40
1.0
176
1
 90
0
176
1
 62
257
176
1
 40
1.0
176
1
 90
1
176
1
 90
6
176
1
 90
2
176
1
 62
7
176
1
 90
5
176
1
 90
0
176
1
 90
0
176
1
290
0
176
1
 90
13
176
1
 40
0.0
176
1
 90
0
176
1
290
0
176
1
290
1
176
1
290
1
176
1
290
0
176
1
290
0
176
1
290
0
176
1
290
0
176
1
290
0
176
1
290
0
176
1
 90
50
176
1
 40
0.0
176
1
 40
1.0
176
1
 90
0
176
1
 62
18
420
0
176
1
 90
50
176
1
 90
3
176
1
 62
5
420
255
176
1
290
0
176
1
 90
50
176
1
 90
50
176
1
 90
50
176
1
290
0
176
1
 90
50
176
1
 62
256
176
0
 40
1.0
176
0
 90
2
176
1
  1
strokes_ogs.tif
176
1
290
0
176
1
 40
1.0
176
1
 40
1.0
176
1
  0
VISUALSTYLE
  5
77D
102
{ACAD_REACTORS
330
77A
102
}
330
77A
100
AcDbVisualStyle
  2
Gouraud
 70
2
177
3
291
1
 70
58
 90
2
176
1
 90
2
176
1
 90
1
176
1
 90
2
176
1
 40
0.6
176
1
 40
30.0
176
1
 62
7
420
16777215
176
1
 90
0
176
1
 90
0
176
1
 62
7
176
1
 62
257
176
1
 90
1
176
1
 90
1
176
1
 40
1.0
176
1
 90
0
176
1
 62
7
176
1
 40
1.0
176
1
 90
1
176
1
 90
6
176
1
 90
2
176
1
 62
7
176
1
 90
5
176
1
 90
0
176
1
 90
0
176
1
290
0
176
1
 90
13
176
1
 40
0.0
176
1
 90
0
176
1
290
0
176
1
290
1
176
1
290
1
176
1
290
0
176
1
290
0
176
1
290
0
176
1
290
0
176
1
290
0
176
1
290
0
176
1
 90
50
176
1
 40
0.0
176
1
 40
1.0
176
1
 90
0
176
1
 62
18
420
0
176
1
 90
50
176
1
 90
3
176
1
 62
5
420
255
176
1
290
0
176
1
 90
50
176
1
 90
50
176
1
 90
50
176
1
290
0
176
1
 90
50
176
1
 62
256
176
0
 40
1.0
176
0
 90
2
176
1
  1
strokes_ogs.tif
176
1
290
0
176
1
 40
1.0
176
1
 40
1.0
176
1
  0
VISUALSTYLE
  5
77E
102
{ACAD_REACTORS
330
77A
102
}
330
77A
100
AcDbVisualStyle
  2
GouraudWithEdges
 70
3
177
3
291
1
 70
58
 90
2
176
1
 90
2
176
1
 90
1
176
1
 90
2
176
1
 40
0.6
176
1
 40
30.0
176
1
 62
7
420
16777215
176
1
 90
1
176
1
 90
0
176
1
 62
7
176
1
 62
257
176
1
 90
1
176
1
 90
1
176
1
 40
1.0
176
1
 90
0
176
1
 62
257
176
1
 40
1.0
176
1
 90
1
176
1
 90
6
176
1
 90
2
176
1
 62
7
176
1
 90
5
176
1
 90
0
176
1
 90
0
176
1
290
0
176
1
 90
13
176
1
 40
0.0
176
1
 90
0
176
1
290
0
176
1
290
1
176
1
290
1
176
1
290
0
176
1
290
0
176
1
290
0
176
1
290
0
176
1
290
0
176
1
290
0
176
1
 90
50
176
1
 40
0.0
176
1
 40
1.0
176
1
 90
0
176
1
 62
18
420
0
176
1
 90
50
176
1
 90
3
176
1
 62
5
420
255
176
1
290
0
176
1
 90
50
176
1
 90
50
176
1
 90
50
176
1
290
0
176
1
 90
50
176
1
 62
256
176
0
 40
1.0
176
0
 90
2
176
1
  1
strokes_ogs.tif
176
1
290
0
176
1
 40
1.0
176
1
 40
1.0
176
1
  0
VISUALSTYLE
  5
781
102
{ACAD_REACTORS
330
77A
102
}
330
77A
100
AcDbVisualStyle
  2
Hidden
 70
6
177
3
291
0
 70
58
 90
1
176
1
 90
2
176
1
 90
2
176
1
 90
0
176
1
 40
0.6
176
1
 40
30.0
176
1
 62
7
420
16777215
176
1
 90
2
176
1
 90
2
176
1
 62
7
176
1
 62
257
176
1
 90
2
176
1
 90
1
176
1
 40
40.0
176
1
 90
0
176
1
 62
257
176
1
 40
1.0
176
1
 90
1
176
1
 90
6
176
1
 90
2
176
1
 62
7
176
1
 90
3
176
1
 90
0
176
1
 90
0
176
1
290
0
176
1
 90
1
176
1
 40
0.0
176
1
 90
0
176
1
290
0
176
1
290
1
176
1
290
1
176
1
290
0
176
1
290
0
176
1
290
0
176
1
290
0
176
1
290
0
176
1
290
0
176
1
 90
50
176
1
 40
0.0
176
1
 40
1.0
176
1
 90
0
176
1
 62
18
420
0
176
1
 90
50
176
1
 90
3
176
1
 62
5
420
255
176
1
290
0
176
1
 90
50
176
1
 90
50
176
1
 90
50
176
1
290
0
176
1
 90
50
176
1
 62
256
176
0
 40
1.0
176
0
 90
2
176
1
  1
strokes_ogs.tif
176
1
290
0
176
1
 40
1.0
176
1
 40
1.0
176
1
  0
VISUALSTYLE
  5
78B
102
{ACAD_REACTORS
330
77A
102
}
330
77A
100
AcDbVisualStyle
  2
JitterOff
 70
20
177
3
291
1
 70
58
 90
2
176
0
 90
2
176
0
 90
0
176
0
 90
0
176
0
 40
0.6
176
0
 40
30.0
176
0
 62
7
420
16777215
176
0
 90
1
176
0
 90
4
176
0
 62
7
176
0
 62
257
176
0
 90
1
176
0
 90
1
176
0
 40
1.0
176
0
 90
10
176
2
 62
7
176
0
 40
1.0
176
0
 90
1
176
0
 90
6
176
0
 90
2
176
0
 62
7
176
0
 90
5
176
0
 90
0
176
0
 90
0
176
0
290
0
176
0
 90
1
176
0
 40
0.0
176
0
 90
0
176
0
290
0
176
0
290
1
176
0
290
1
176
0
290
0
176
0
290
0
176
0
290
0
176
0
290
0
176
0
290
0
176
0
290
0
176
0
 90
50
176
0
 40
0.0
176
0
 40
1.0
176
0
 90
0
176
0
 62
18
420
0
176
0
 90
50
176
0
 90
3
176
0
 62
5
420
255
176
0
290
0
176
0
 90
50
176
0
 90
50
176
0
 90
50
176
0
290
0
176
0
 90
50
176
0
 62
256
176
0
 40
1.0
176
0
 90
2
176
0
  1
strokes_ogs.tif
176
0
290
0
176
0
 40
1.0
176
0
 40
1.0
176
0
  0
VISUALSTYLE
  5
788
102
{ACAD_REACTORS
330
77A
102
}
330
77A
100
AcDbVisualStyle
  2
Linepattern
 70
14
177
3
291
1
 70
58
 90
2
176
1
 90
2
176
1
 90
0
176
1
 90
0
176
1
 40
0.6
176
1
 40
30.0
176
1
 62
7
420
16777215
176
1
 90
1
176
1
 90
4
176
1
 62
7
176
1
 62
257
176
1
 90
7
176
1
 90
7
176
1
 40
1.0
176
1
 90
8
176
1
 62
7
176
1
 40
1.0
176
1
 90
1
176
1
 90
6
176
1
 90
2
176
1
 62
7
176
1
 90
5
176
1
 90
0
176
1
 90
0
176
1
290
0
176
1
 90
1
176
1
 40
0.0
176
1
 90
0
176
1
290
0
176
1
290
1
176
1
290
1
176
1
290
0
176
1
290
0
176
1
290
0
176
1
290
0
176
1
290
0
176
1
290
0
176
1
 90
50
176
1
 40
0.0
176
1
 40
1.0
176
1
 90
0
176
1
 62
18
420
0
176
1
 90
50
176
1
 90
3
176
1
 62
5
420
255
176
1
290
0
176
1
 90
50
176
1
 90
50
176
1
 90
50
176
1
290
0
176
1
 90
50
176
1
 62
256
176
0
 40
1.0
176
0
 90
2
176
1
  1
strokes_ogs.tif
176
1
290
0
176
1
 40
1.0
176
1
 40
1.0
176
1
  0
VISUALSTYLE
  5
78C
102
{ACAD_REACTORS
330
77A
102
}
330
77A
100
AcDbVisualStyle
  2
OverhangOff
 70
21
177
3
291
1
 70
58
 90
2
176
0
 90
2
176
0
 90
0
176
0
 90
0
176
0
 40
0.6
176
0
 40
30.0
176
0
 62
7
420
16777215
176
0
 90
1
176
0
 90
4
176
0
 62
7
176
0
 62
257
176
0
 90
1
176
0
 90
1
176
0
 40
1.0
176
0
 90
9
176
2
 62
7
176
0
 40
1.0
176
0
 90
1
176
0
 90
6
176
0
 90
2
176
0
 62
7
176
0
 90
5
176
0
 90
0
176
0
 90
0
176
0
290
0
176
0
 90
1
176
0
 40
0.0
176
0
 90
0
176
0
290
0
176
0
290
1
176
0
290
1
176
0
290
0
176
0
290
0
176
0
290
0
176
0
290
0
176
0
290
0
176
0
290
0
176
0
 90
50
176
0
 40
0.0
176
0
 40
1.0
176
0
 90
0
176
0
 62
18
420
0
176
0
 90
50
176
0
 90
3
176
0
 62
5
420
255
176
0
290
0
176
0
 90
50
176
0
 90
50
176
0
 90
50
176
0
290
0
176
0
 90
50
176
0
 62
256
176
0
 40
1.0
176
0
 90
2
176
0
  1
strokes_ogs.tif
176
0
290
0
176
0
 40
1.0
176
0
 40
1.0
176
0
  0
VISUALSTYLE
  5
783
102
{ACAD_REACTORS
330
77A
102
}
330
77A
100
AcDbVisualStyle
  2
Realistic
 70
8
177
3
291
0
 70
58
 90
2
176
1
 90
3
176
1
 90
0
176
1
 90
2
176
1
 40
0.6
176
1
 40
30.0
176
1
 62
7
420
16777215
176
1
 90
0
176
1
 90
0
176
1
 62
7
176
1
 62
257
176
1
 90
1
176
1
 90
1
176
1
 40
1.0
176
1
 90
8
176
1
 62
257
176
1
 40
1.0
176
1
 90
1
176
1
 90
6
176
1
 90
2
176
1
 62
7
176
1
 90
3
176
1
 90
0
176
1
 90
0
176
1
290
0
176
1
 90
13
176
1
 40
0.0
176
1
 90
0
176
1
290
0
176
1
290
1
176
1
290
1
176
1
290
0
176
1
290
0
176
1
290
0
176
1
290
0
176
1
290
0
176
1
290
0
176
1
 90
50
176
1
 40
0.0
176
1
 40
1.0
176
1
 90
0
176
1
 62
18
420
0
176
1
 90
50
176
1
 90
3
176
1
 62
5
420
255
176
1
290
0
176
1
 90
50
176
1
 90
50
176
1
 90
50
176
1
290
0
176
1
 90
50
176
1
 62
256
176
0
 40
1.0
176
0
 90
2
176
1
  1
strokes_ogs.tif
176
1
290
0
176
1
 40
1.0
176
1
 40
1.0
176
1
  0
VISUALSTYLE
  5
792
102
{ACAD_REACTORS
330
77A
102
}
330
77A
100
AcDbVisualStyle
  2
Shaded
 70
27
177
3
291
0
 70
58
 90
2
176
1
 90
2
176
1
 90
1
176
1
 90
2
176
1
 40
0.6
176
1
 40
30.0
176
1
 62
7
420
16777215
176
1
 90
0
176
1
 90
4
176
1
 62
7
176
1
 62
257
176
1
 90
1
176
1
 90
1
176
1
 40
1.0
176
1
 90
8
176
1
 62
257
176
1
 40
1.0
176
1
 90
1
176
1
 90
6
176
1
 90
2
176
1
 62
8
420
7895160
176
1
 90
3
176
1
 90
0
176
1
 90
0
176
1
290
0
176
1
 90
5
176
1
 40
0.0
176
1
 90
0
176
1
290
0
176
1
290
1
176
1
290
1
176
1
290
0
176
1
290
0
176
1
290
0
176
1
290
0
176
1
290
0
176
1
290
0
176
1
 90
50
176
1
 40
0.0
176
1
 40
1.0
176
1
 90
0
176
1
 62
18
420
0
176
1
 90
50
176
1
 90
3
176
1
 62
5
420
255
176
1
290
0
176
1
 90
50
176
1
 90
50
176
1
 90
50
176
1
290
0
176
1
 90
50
176
1
 62
256
176
0
 40
1.0
176
0
 90
2
176
1
  1
strokes_ogs.tif
176
1
290
0
176
1
 40
1.0
176
1
 40
1.0
176
1
  0
VISUALSTYLE
  5
791
102
{ACAD_REACTORS
330
77A
102
}
330
77A
100
AcDbVisualStyle
  2
Shaded with edges
 70
26
177
3
291
0
 70
58
 90
2
176
1
 90
2
176
1
 90
1
176
1
 90
2
176
1
 40
0.6
176
1
 40
30.0
176
1
 62
7
420
16777215
176
1
 90
1
176
1
 90
10
176
1
 62
7
176
1
 62
257
176
1
 90
2
176
1
 90
1
176
1
 40
1.0
176
1
 90
8
176
1
 62
257
176
1
 40
1.0
176
1
 90
1
176
1
 90
6
176
1
 90
2
176
1
 62
7
176
1
 90
3
176
1
 90
0
176
1
 90
0
176
1
290
0
176
1
 90
5
176
1
 40
0.0
176
1
 90
0
176
1
290
0
176
1
290
1
176
1
290
1
176
1
290
0
176
1
290
0
176
1
290
0
176
1
290
0
176
1
290
0
176
1
290
0
176
1
 90
50
176
1
 40
0.0
176
1
 40
1.0
176
1
 90
0
176
1
 62
18
420
0
176
1
 90
50
176
1
 90
3
176
1
 62
5
420
255
176
1
290
0
176
1
 90
50
176
1
 90
50
176
1
 90
50
176
1
290
0
176
1
 90
50
176
1
 62
256
176
0
 40
1.0
176
0
 90
2
176
1
  1
strokes_ogs.tif
176
1
290
0
176
1
 40
1.0
176
1
 40
1.0
176
1
  0
VISUALSTYLE
  5
78E
102
{ACAD_REACTORS
330
77A
102
}
330
77A
100
AcDbVisualStyle
  2
Shades of Gray
 70
23
177
3
291
0
 70
58
 90
2
176
1
 90
2
176
1
 90
3
176
1
 90
0
176
1
 40
0.6
176
1
 40
30.0
176
1
 62
7
420
16777215
176
1
 90
2
176
1
 90
2
176
1
 62
7
176
1
 62
7
176
1
 90
1
176
1
 90
1
176
1
 40
40.0
176
1
 90
8
176
1
 62
7
176
1
 40
1.0
176
1
 90
1
176
1
 90
6
176
1
 90
2
176
1
 62
7
176
1
 90
3
176
1
 90
0
176
1
 90
0
176
1
290
0
176
1
 90
1
176
1
 40
0.0
176
1
 90
0
176
1
290
0
176
1
290
1
176
1
290
1
176
1
290
0
176
1
290
0
176
1
290
0
176
1
290
0
176
1
290
0
176
1
290
0
176
1
 90
50
176
1
 40
0.0
176
1
 40
1.0
176
1
 90
0
176
1
 62
18
420
0
176
1
 90
50
176
1
 90
3
176
1
 62
5
420
255
176
1
290
0
176
1
 90
50
176
1
 90
50
176
1
 90
50
176
1
290
0
176
1
 90
50
176
1
 62
256
176
0
 40
1.0
176
0
 90
2
176
1
  1
strokes_ogs.tif
176
1
290
0
176
1
 40
1.0
176
1
 40
1.0
176
1
  0
VISUALSTYLE
  5
78F
102
{ACAD_REACTORS
330
77A
102
}
330
77A
100
AcDbVisualStyle
  2
Sketchy
 70
24
177
3
291
0
 70
58
 90
1
176
1
 90
2
176
1
 90
2
176
1
 90
0
176
1
 40
0.6
176
1
 40
30.0
176
1
 62
7
420
16777215
176
1
 90
2
176
1
 90
2
176
1
 62
7
176
1
 62
7
176
1
 90
1
176
1
 90
1
176
1
 40
40.0
176
1
 90
11
176
1
 62
7
176
1
 40
1.0
176
1
 90
1
176
1
 90
6
176
1
 90
2
176
1
 62
7
176
1
 90
6
176
1
 90
0
176
1
 90
0
176
1
290
0
176
1
 90
1
176
1
 40
0.0
176
1
 90
0
176
1
290
0
176
1
290
1
176
1
290
1
176
1
290
0
176
1
290
0
176
1
290
0
176
1
290
0
176
1
290
0
176
1
290
0
176
1
 90
50
176
1
 40
0.0
176
1
 40
1.0
176
1
 90
0
176
1
 62
18
420
0
176
1
 90
50
176
1
 90
3
176
1
 62
5
420
255
176
1
290
0
176
1
 90
50
176
1
 90
50
176
1
 90
50
176
1
290
0
176
1
 90
50
176
1
 62
256
176
0
 40
1.0
176
0
 90
2
176
1
  1
strokes_ogs.tif
176
1
290
0
176
1
 40
1.0
176
1
 40
1.0
176
1
  0
VISUALSTYLE
  5
787
102
{ACAD_REACTORS
330
77A
102
}
330
77A
100
AcDbVisualStyle
  2
Thicken
 70
13
177
3
291
1
 70
58
 90
2
176
1
 90
2
176
1
 90
0
176
1
 90
0
176
1
 40
0.6
176
1
 40
30.0
176
1
 62
7
420
16777215
176
1
 90
1
176
1
 90
4
176
1
 62
7
176
1
 62
257
176
1
 90
1
176
1
 90
1
176
1
 40
1.0
176
1
 90
12
176
1
 62
7
176
1
 40
1.0
176
1
 90
1
176
1
 90
6
176
1
 90
2
176
1
 62
7
176
1
 90
5
176
1
 90
0
176
1
 90
0
176
1
290
0
176
1
 90
1
176
1
 40
0.0
176
1
 90
0
176
1
290
0
176
1
290
1
176
1
290
1
176
1
290
0
176
1
290
0
176
1
290
0
176
1
290
0
176
1
290
0
176
1
290
0
176
1
 90
50
176
1
 40
0.0
176
1
 40
1.0
176
1
 90
0
176
1
 62
18
420
0
176
1
 90
50
176
1
 90
3
176
1
 62
5
420
255
176
1
290
0
176
1
 90
50
176
1
 90
50
176
1
 90
50
176
1
290
0
176
1
 90
50
176
1
 62
256
176
0
 40
1.0
176
0
 90
2
176
1
  1
strokes_ogs.tif
176
1
290
0
176
1
 40
1.0
176
1
 40
1.0
176
1
  0
VISUALSTYLE
  5
780
102
{ACAD_REACTORS
330
77A
102
}
330
77A
100
AcDbVisualStyle
  2
Wireframe
 70
5
177
3
291
0
 70
58
 90
0
176
1
 90
2
176
1
 90
0
176
1
 90
0
176
1
 40
0.6
176
1
 40
30.0
176
1
 62
7
420
16777215
176
1
 90
1
176
1
 90
4
176
1
 62
7
176
1
 62
257
176
1
 90
1
176
1
 90
1
176
1
 40
1.0
176
1
 90
0
176
1
 62
257
176
1
 40
1.0
176
1
 90
1
176
1
 90
6
176
1
 90
2
176
1
 62
7
176
1
 90
3
176
1
 90
0
176
1
 90
0
176
1
290
0
176
1
 90
1
176
1
 40
0.0
176
1
 90
0
176
1
290
0
176
1
290
1
176
1
290
1
176
1
290
0
176
1
290
0
176
1
290
0
176
1
290
0
176
1
290
0
176
1
290
0
176
1
 90
50
176
1
 40
0.0
176
1
 40
1.0
176
1
 90
0
176
1
 62
18
420
0
176
1
 90
50
176
1
 90
3
176
1
 62
5
420
255
176
1
290
0
176
1
 90
50
176
1
 90
50
176
1
 90
50
176
1
290
0
176
1
 90
50
176
1
 62
256
176
0
 40
1.0
176
0
 90
2
176
1
  1
strokes_ogs.tif
176
1
290
0
176
1
 40
1.0
176
1
 40
1.0
176
1
  0
VISUALSTYLE
  5
790
102
{ACAD_REACTORS
330
77A
102
}
330
77A
100
AcDbVisualStyle
  2
X-Ray
 70
25
177
3
291
0
 70
58
 90
2
176
1
 90
2
176
1
 90
1
176
1
 90
1
176
1
 40
0.5
176
1
 40
30.0
176
1
 62
7
420
16777215
176
1
 90
1
176
1
 90
0
176
1
 62
7
176
1
 62
257
176
1
 90
1
176
1
 90
1
176
1
 40
1.0
176
1
 90
8
176
1
 62
7
176
1
 40
1.0
176
1
 90
1
176
1
 90
6
176
1
 90
2
176
1
 62
7
176
1
 90
3
176
1
 90
0
176
1
 90
0
176
1
290
0
176
1
 90
13
176
1
 40
0.0
176
1
 90
0
176
1
290
0
176
1
290
1
176
1
290
1
176
1
290
0
176
1
290
0
176
1
290
0
176
1
290
0
176
1
290
0
176
1
290
0
176
1
 90
50
176
1
 40
0.0
176
1
 40
1.0
176
1
 90
0
176
1
 62
18
420
0
176
1
 90
50
176
1
 90
3
176
1
 62
5
420
255
176
1
290
0
176
1
 90
50
176
1
 90
50
176
1
 90
50
176
1
290
0
176
1
 90
50
176
1
 62
256
176
0
 40
1.0
176
0
 90
2
176
1
  1
strokes_ogs.tif
176
1
290
0
176
1
 40
1.0
176
1
 40
1.0
176
1
  0
DICTIONARYVAR
  5
79C
102
{ACAD_REACTORS
330
79B
102
}
330
79B
100
DictionaryVariables
280
0
  1
1:1
  0
DICTIONARYVAR
  5
7A1
102
{ACAD_REACTORS
330
79B
102
}
330
79B
100
DictionaryVariables
280
0
  1
Standard
  0
DICTIONARYVAR
  5
7A0
102
{ACAD_REACTORS
330
79B
102
}
330
79B
100
DictionaryVariables
280
0
  1
Standard
  0
DICTIONARYVAR
  5
7A2
102
{ACAD_REACTORS
330
79B
102
}
330
79B
100
DictionaryVariables
280
0
  1
0
  0
DICTIONARY
  5
79D
330
798
100
AcDbDictionary
280
1
281
1
  3
ACAD_ROUNDTRIP_2008_TABLESTYLE_CELLSTYLEMAP
360
79E
  0
CELLSTYLEMAP
  5
79E
102
{ACAD_REACTORS
330
79D
102
}
330
79D
100
AcDbCellStyleMap
 90
3
300
CELLSTYLE
  1
TABLEFORMAT_BEGIN
 90
5
170
1
 91
0
 92
32768
 62
257
 93
1
300
CONTENTFORMAT
  1
CONTENTFORMAT_BEGIN
 90
0
 91
0
 92
4
 93
0
300

 40
0.0
140
1.0
 94
5
 62
0
340
11
144
6.0
309
CONTENTFORMAT_END
171
1
301
MARGIN
  1
CELLMARGIN_BEGIN
 40
1.5
 40
1.5
 40
1.5
 40
1.5
 40
1.5
 40
1.5
309
CELLMARGIN_END
 94
6
 95
1
302
GRIDFORMAT
  1
GRIDFORMAT_BEGIN
 90
0
 91
1
 62
0
 92
-2
340
14
 93
0
 40
0.045
309
GRIDFORMAT_END
 95
2
302
GRIDFORMAT
  1
GRIDFORMAT_BEGIN
 90
0
 91
1
 62
0
 92
-2
340
14
 93
0
 40
0.045
309
GRIDFORMAT_END
 95
4
302
GRIDFORMAT
  1
GRIDFORMAT_BEGIN
 90
0
 91
1
 62
0
 92
-2
340
14
 93
0
 40
0.045
309
GRIDFORMAT_END
 95
8
302
GRIDFORMAT
  1
GRIDFORMAT_BEGIN
 90
0
 91
1
 62
0
 92
-2
340
14
 93
0
 40
0.045
309
GRIDFORMAT_END
 95
16
302
GRIDFORMAT
  1
GRIDFORMAT_BEGIN
 90
0
 91
1
 62
0
 92
-2
340
14
 93
0
 40
0.045
309
GRIDFORMAT_END
 95
32
302
GRIDFORMAT
  1
GRIDFORMAT_BEGIN
 90
0
 91
1
 62
0
 92
-2
340
14
 93
0
 40
0.045
309
GRIDFORMAT_END
309
TABLEFORMAT_END
  1
CELLSTYLE_BEGIN
 90
1
 91
1
300
_TITLE
309
CELLSTYLE_END
300
CELLSTYLE
  1
TABLEFORMAT_BEGIN
 90
5
170
1
 91
0
 92
0
 62
257
 93
1
300
CONTENTFORMAT
  1
CONTENTFORMAT_BEGIN
 90
0
 91
0
 92
4
 93
0
300

 40
0.0
140
1.0
 94
5
 62
0
340
11
144
4.5
309
CONTENTFORMAT_END
171
1
301
MARGIN
  1
CELLMARGIN_BEGIN
 40
1.5
 40
1.5
 40
1.5
 40
1.5
 40
1.5
 40
1.5
309
CELLMARGIN_END
 94
6
 95
1
302
GRIDFORMAT
  1
GRIDFORMAT_BEGIN
 90
0
 91
1
 62
0
 92
-2
340
14
 93
0
 40
0.045
309
GRIDFORMAT_END
 95
2
302
GRIDFORMAT
  1
GRIDFORMAT_BEGIN
 90
0
 91
1
 62
0
 92
-2
340
14
 93
0
 40
0.045
309
GRIDFORMAT_END
 95
4
302
GRIDFORMAT
  1
GRIDFORMAT_BEGIN
 90
0
 91
1
 62
0
 92
-2
340
14
 93
0
 40
0.045
309
GRIDFORMAT_END
 95
8
302
GRIDFORMAT
  1
GRIDFORMAT_BEGIN
 90
0
 91
1
 62
0
 92
-2
340
14
 93
0
 40
0.045
309
GRIDFORMAT_END
 95
16
302
GRIDFORMAT
  1
GRIDFORMAT_BEGIN
 90
0
 91
1
 62
0
 92
-2
340
14
 93
0
 40
0.045
309
GRIDFORMAT_END
 95
32
302
GRIDFORMAT
  1
GRIDFORMAT_BEGIN
 90
0
 91
1
 62
0
 92
-2
340
14
 93
0
 40
0.045
309
GRIDFORMAT_END
309
TABLEFORMAT_END
  1
CELLSTYLE_BEGIN
 90
2
 91
1
300
_HEADER
309
CELLSTYLE_END
300
CELLSTYLE
  1
TABLEFORMAT_BEGIN
 90
5
170
1
 91
0
 92
0
 62
257
 93
1
300
CONTENTFORMAT
  1
CONTENTFORMAT_BEGIN
 90
0
 91
0
 92
4
 93
0
300

 40
0.0
140
1.0
 94
2
 62
0
340
11
144
4.5
309
CONTENTFORMAT_END
171
1
301
MARGIN
  1
CELLMARGIN_BEGIN
 40
1.5
 40
1.5
 40
1.5
 40
1.5
 40
1.5
 40
1.5
309
CELLMARGIN_END
 94
6
 95
1
302
GRIDFORMAT
  1
GRIDFORMAT_BEGIN
 90
0
 91
1
 62
0
 92
-2
340
14
 93
0
 40
0.045
309
GRIDFORMAT_END
 95
2
302
GRIDFORMAT
  1
GRIDFORMAT_BEGIN
 90
0
 91
1
 62
0
 92
-2
340
14
 93
0
 40
0.045
309
GRIDFORMAT_END
 95
4
302
GRIDFORMAT
  1
GRIDFORMAT_BEGIN
 90
0
 91
1
 62
0
 92
-2
340
14
 93
0
 40
0.045
309
GRIDFORMAT_END
 95
8
302
GRIDFORMAT
  1
GRIDFORMAT_BEGIN
 90
0
 91
1
 62
0
 92
-2
340
14
 93
0
 40
0.045
309
GRIDFORMAT_END
 95
16
302
GRIDFORMAT
  1
GRIDFORMAT_BEGIN
 90
0
 91
1
 62
0
 92
-2
340
14
 93
0
 40
0.045
309
GRIDFORMAT_END
 95
32
302
GRIDFORMAT
  1
GRIDFORMAT_BEGIN
 90
0
 91
1
 62
0
 92
-2
340
14
 93
0
 40
0.045
309
GRIDFORMAT_END
309
TABLEFORMAT_END
  1
CELLSTYLE_BEGIN
 90
3
 91
2
300
_DATA
309
CELLSTYLE_END
  0
DICTIONARY
  5
7A5
330
C
100
AcDbDictionary
281
1
  0
DICTIONARY
  5
7AA
330
C
100
AcDbDictionary
280
1
281
1
  3
WRITTEN_BY_EZDXF
350
7AB
  0
DICTIONARYVAR
  5
7AB
330
7AA
100
DictionaryVariables
280
0
  1
1.4.3 @ 2025-12-17T10:21:11.416658+00:00
  0
ENDSEC
  0
EOF
