  0
SECTION
  2
HEADER
  9
$ACADVER
  1
AC1032
  9
$ACADMAINTVER
 90
       55
  9
$DWGCODEPAGE
  3
ANSI_1252
  9
$LASTSAVEDBY
  1
cipulot
  9
$REQUIREDVERSIONS
160
                 0
  9
$INSBASE
 10
0.0
 20
0.0
 30
0.0
  9
$EXTMIN
 10
1.000000000000000E+20
 20
1.000000000000000E+20
 30
1.000000000000000E+20
  9
$EXTMAX
 10
-1.000000000000000E+20
 20
-1.000000000000000E+20
 30
-1.000000000000000E+20
  9
$LIMMIN
 10
0.0
 20
0.0
  9
$LIMMAX
 10
12.0
 20
9.0
  9
$ORTHOMODE
 70
     0
  9
$REGENMODE
 70
     1
  9
$FILLMODE
 70
     1
  9
$QTEXTMODE
 70
     0
  9
$MIRRTEXT
 70
     1
  9
$LTSCALE
 40
1.0
  9
$ATTMODE
 70
     1
  9
$TEXTSIZE
 40
0.2
  9
$TRACEWID
 40
0.05
  9
$TEXTSTYLE
  7
Standard
  9
$CLAYER
  8
0
  9
$CELTYPE
  6
ByBlock
  9
$CECOLOR
 62
   256
  9
$CELTSCALE
 40
1.0
  9
$DISPSILH
 70
     0
  9
$DIMSCALE
 40
1.0
  9
$DIMASZ
 40
0.18
  9
$DIMEXO
 40
0.0625
  9
$DIMDLI
 40
0.38
  9
$DIMRND
 40
0.0
  9
$DIMDLE
 40
0.0
  9
$DIMEXE
 40
0.18
  9
$DIMTP
 40
0.0
  9
$DIMTM
 40
0.0
  9
$DIMTXT
 40
0.18
  9
$DIMCEN
 40
0.09
  9
$DIMTSZ
 40
0.0
  9
$DIMTOL
 70
     0
  9
$DIMLIM
 70
     0
  9
$DIMTIH
 70
     1
  9
$DIMTOH
 70
     1
  9
$DIMSE1
 70
     0
  9
$DIMSE2
 70
     0
  9
$DIMTAD
 70
     0
  9
$DIMZIN
 70
     0
  9
$DIMBLK
  1

  9
$DIMASO
 70
     1
  9
$DIMSHO
 70
     1
  9
$DIMPOST
  1

  9
$DIMAPOST
  1

  9
$DIMALT
 70
     0
  9
$DIMALTD
 70
     2
  9
$DIMALTF
 40
25.4
  9
$DIMLFAC
 40
1.0
  9
$DIMTOFL
 70
     0
  9
$DIMTVP
 40
0.0
  9
$DIMTIX
 70
     0
  9
$DIMSOXD
 70
     0
  9
$DIMSAH
 70
     0
  9
$DIMBLK1
  1

  9
$DIMBLK2
  1

  9
$DIMSTYLE
  2
ISO-25
  9
$DIMCLRD
 70
     0
  9
$DIMCLRE
 70
     0
  9
$DIMCLRT
 70
     0
  9
$DIMTFAC
 40
1.0
  9
$DIMGAP
 40
0.09
  9
$DIMJUST
 70
     0
  9
$DIMSD1
 70
     0
  9
$DIMSD2
 70
     0
  9
$DIMTOLJ
 70
     1
  9
$DIMTZIN
 70
     0
  9
$DIMALTZ
 70
     0
  9
$DIMALTTZ
 70
     0
  9
$DIMUPT
 70
     0
  9
$DIMDEC
 70
     4
  9
$DIMTDEC
 70
     4
  9
$DIMALTU
 70
     2
  9
$DIMALTTD
 70
     2
  9
$DIMTXSTY
  7
Standard
  9
$DIMAUNIT
 70
     0
  9
$DIMADEC
 70
     0
  9
$DIMALTRND
 40
0.0
  9
$DIMAZIN
 70
     0
  9
$DIMDSEP
 70
    46
  9
$DIMATFIT
 70
     3
  9
$DIMFRAC
 70
     0
  9
$DIMLDRBLK
  1

  9
$DIMLUNIT
 70
     2
  9
$DIMLWD
 70
    -2
  9
$DIMLWE
 70
    -2
  9
$DIMTMOVE
 70
     2
  9
$DIMFXL
 40
1.0
  9
$DIMFXLON
 70
     0
  9
$DIMJOGANG
 40
0.7853981633974483
  9
$DIMTFILL
 70
     0
  9
$DIMTFILLCLR
 70
     0
  9
$DIMARCSYM
 70
     0
  9
$DIMLTYPE
  6

  9
$DIMLTEX1
  6

  9
$DIMLTEX2
  6

  9
$DIMTXTDIRECTION
 70
     0
  9
$LUNITS
 70
     2
  9
$LUPREC
 70
     4
  9
$SKETCHINC
 40
0.1
  9
$FILLETRAD
 40
0.0
  9
$AUNITS
 70
     0
  9
$AUPREC
 70
     0
  9
$MENU
  1
.
  9
$ELEVATION
 40
0.0
  9
$PELEVATION
 40
0.0
  9
$THICKNESS
 40
0.0
  9
$LIMCHECK
 70
     0
  9
$CHAMFERA
 40
0.0
  9
$CHAMFERB
 40
0.0
  9
$CHAMFERC
 40
0.0
  9
$CHAMFERD
 40
0.0
  9
$SKPOLY
 70
     0
  9
$TDCREATE
 40
2460883.834737987
  9
$TDUCREATE
 40
2460883.79307132
  9
$TDUPDATE
 40
2460883.842486829
  9
$TDUUPDATE
 40
2460883.800820162
  9
$TDINDWG
 40
0.0000000116
  9
$TDUSRTIMER
 40
0.0000000116
  9
$USRTIMER
 70
     1
  9
$ANGBASE
 50
0.0
  9
$ANGDIR
 70
     1
  9
$PDMODE
 70
     0
  9
$PDSIZE
 40
0.0
  9
$PLINEWID
 40
0.0
  9
$SPLFRAME
 70
     0
  9
$SPLINETYPE
 70
     6
  9
$SPLINESEGS
 70
     8
  9
$HANDSEED
  5
814
  9
$SURFTAB1
 70
     6
  9
$SURFTAB2
 70
     6
  9
$SURFTYPE
 70
     6
  9
$SURFU
 70
     6
  9
$SURFV
 70
     6
  9
$UCSBASE
  2

  9
$UCSNAME
  2

  9
$UCSORG
 10
0.0
 20
0.0
 30
0.0
  9
$UCSXDIR
 10
1.0
 20
0.0
 30
0.0
  9
$UCSYDIR
 10
0.0
 20
1.0
 30
0.0
  9
$UCSORTHOREF
  2

  9
$UCSORTHOVIEW
 70
     0
  9
$UCSORGTOP
 10
0.0
 20
0.0
 30
0.0
  9
$UCSORGBOTTOM
 10
0.0
 20
0.0
 30
0.0
  9
$UCSORGLEFT
 10
0.0
 20
0.0
 30
0.0
  9
$UCSORGRIGHT
 10
0.0
 20
0.0
 30
0.0
  9
$UCSORGFRONT
 10
0.0
 20
0.0
 30
0.0
  9
$UCSORGBACK
 10
0.0
 20
0.0
 30
0.0
  9
$PUCSBASE
  2

  9
$PUCSNAME
  2

  9
$PUCSORG
 10
0.0
 20
0.0
 30
0.0
  9
$PUCSXDIR
 10
1.0
 20
0.0
 30
0.0
  9
$PUCSYDIR
 10
0.0
 20
1.0
 30
0.0
  9
$PUCSORTHOREF
  2

  9
$PUCSORTHOVIEW
 70
     0
  9
$PUCSORGTOP
 10
0.0
 20
0.0
 30
0.0
  9
$PUCSORGBOTTOM
 10
0.0
 20
0.0
 30
0.0
  9
$PUCSORGLEFT
 10
0.0
 20
0.0
 30
0.0
  9
$PUCSORGRIGHT
 10
0.0
 20
0.0
 30
0.0
  9
$PUCSORGFRONT
 10
0.0
 20
0.0
 30
0.0
  9
$PUCSORGBACK
 10
0.0
 20
0.0
 30
0.0
  9
$USERI1
 70
     0
  9
$USERI2
 70
     0
  9
$USERI3
 70
     0
  9
$USERI4
 70
     0
  9
$USERI5
 70
     0
  9
$USERR1
 40
0.0
  9
$USERR2
 40
0.0
  9
$USERR3
 40
0.0
  9
$USERR4
 40
0.0
  9
$USERR5
 40
0.0
  9
$WORLDVIEW
 70
     1
  9
$SHADEDGE
 70
     3
  9
$SHADEDIF
 70
    70
  9
$TILEMODE
 70
     1
  9
$MAXACTVP
 70
    64
  9
$PINSBASE
 10
0.0
 20
0.0
 30
0.0
  9
$PLIMCHECK
 70
     0
  9
$PEXTMIN
 10
1.000000000000000E+20
 20
1.000000000000000E+20
 30
1.000000000000000E+20
  9
$PEXTMAX
 10
-1.000000000000000E+20
 20
-1.000000000000000E+20
 30
-1.000000000000000E+20
  9
$PLIMMIN
 10
0.0
 20
0.0
  9
$PLIMMAX
 10
12.0
 20
9.0
  9
$UNITMODE
 70
     0
  9
$VISRETAIN
 70
     1
  9
$PLINEGEN
 70
     0
  9
$PSLTSCALE
 70
     1
  9
$TREEDEPTH
 70
  3020
  9
$CMLSTYLE
  2
Standard
  9
$CMLJUST
 70
     0
  9
$CMLSCALE
 40
1.0
  9
$PROXYGRAPHICS
 70
     1
  9
$MEASUREMENT
 70
     1
  9
$CELWEIGHT
370
    -1
  9
$ENDCAPS
280
     0
  9
$JOINSTYLE
280
     0
  9
$LWDISPLAY
290
     0
  9
$INSUNITS
 70
     4
  9
$HYPERLINKBASE
  1

  9
$STYLESHEET
  1

  9
$XEDIT
290
     1
  9
$CEPSNTYPE
380
     0
  9
$PSTYLEMODE
290
     1
  9
$FINGERPRINTGUID
  2
{e137b48b-0395-3143-bac2-84829c7f48f3}
  9
$VERSIONGUID
  2
{780DF33A-C0F6-459E-A083-C84D3AC1A1FC}
  9
$EXTNAMES
290
     1
  9
$PSVPSCALE
 40
0.0
  9
$OLESTARTUP
290
     0
  9
$SORTENTS
280
   127
  9
$INDEXCTL
280
     0
  9
$HIDETEXT
280
     1
  9
$XCLIPFRAME
280
     2
  9
$HALOGAP
280
     0
  9
$OBSCOLOR
 70
   257
  9
$OBSLTYPE
280
     0
  9
$INTERSECTIONDISPLAY
280
     0
  9
$INTERSECTIONCOLOR
 70
   257
  9
$DIMASSOC
280
     2
  9
$PROJECTNAME
  1

  9
$CAMERADISPLAY
290
     0
  9
$LENSLENGTH
 40
50.0
  9
$CAMERAHEIGHT
 40
0.0
  9
$STEPSPERSEC
 40
2.0
  9
$STEPSIZE
 40
6.0
  9
$3DDWFPREC
 40
2.0
  9
$PSOLWIDTH
 40
0.25
  9
$PSOLHEIGHT
 40
4.0
  9
$LOFTANG1
 40
1.570796326794897
  9
$LOFTANG2
 40
1.570796326794897
  9
$LOFTMAG1
 40
0.0
  9
$LOFTMAG2
 40
0.0
  9
$LOFTPARAM
 70
     7
  9
$LOFTNORMALS
280
     1
  9
$LATITUDE
 40
37.795
  9
$LONGITUDE
 40
-122.394
  9
$NORTHDIRECTION
 40
0.0
  9
$TIMEZONE
 70
 -8000
  9
$LIGHTGLYPHDISPLAY
280
     1
  9
$TILEMODELIGHTSYNCH
280
     1
  9
$CMATERIAL
347
758
  9
$SOLIDHIST
280
     0
  9
$SHOWHIST
280
     1
  9
$DWFFRAME
280
     2
  9
$DGNFRAME
280
     2
  9
$REALWORLDSCALE
290
     1
  9
$INTERFERECOLOR
 62
   256
  9
$CSHADOW
280
     0
  9
$SHADOWPLANELOCATION
 40
0.0
  0
ENDSEC
  0
SECTION
  2
CLASSES
  0
CLASS
  1
ACDBDICTIONARYWDFLT
  2
AcDbDictionaryWithDefault
  3
ObjectDBX Classes
 90
        0
 91
        3
280
     0
281
     0
  0
CLASS
  1
SCALE
  2
AcDbScale
  3
ObjectDBX Classes
 90
     1153
 91
        3
280
     0
281
     0
  0
CLASS
  1
VISUALSTYLE
  2
AcDbVisualStyle
  3
ObjectDBX Classes
 90
     4095
 91
        3
280
     0
281
     0
  0
CLASS
  1
MATERIAL
  2
AcDbMaterial
  3
ObjectDBX Classes
 90
     1153
 91
        3
280
     0
281
     0
  0
CLASS
  1
TABLESTYLE
  2
AcDbTableStyle
  3
ObjectDBX Classes
 90
     4095
 91
        3
280
     0
281
     0
  0
CLASS
  1
MLEADERSTYLE
  2
AcDbMLeaderStyle
  3
ACDB_MLEADERSTYLE_CLASS
 90
     4095
 91
        3
280
     0
281
     0
  0
CLASS
  1
DICTIONARYVAR
  2
AcDbDictionaryVar
  3
ObjectDBX Classes
 90
        0
 91
        3
280
     0
281
     0
  0
CLASS
  1
CELLSTYLEMAP
  2
AcDbCellStyleMap
  3
ObjectDBX Classes
 90
     1152
 91
        3
280
     0
281
     0
  0
CLASS
  1
SUN
  2
AcDbSun
  3
SCENEOE
 90
     1153
 91
        3
280
     0
281
     0
  0
CLASS
  1
MENTALRAYRENDERSETTINGS
  2
AcDbMentalRayRenderSettings
  3
SCENEOE
 90
     1024
 91
        3
280
     0
281
     0
  0
CLASS
  1
ACDBDETAILVIEWSTYLE
  2
AcDbDetailViewStyle
  3
ObjectDBX Classes
 90
     1025
 91
        3
280
     0
281
     0
  0
CLASS
  1
ACDBSECTIONVIEWSTYLE
  2
AcDbSectionViewStyle
  3
ObjectDBX Classes
 90
     1025
 91
        3
280
     0
281
     0
  0
CLASS
  1
RASTERVARIABLES
  2
AcDbRasterVariables
  3
ISM
 90
        0
 91
        3
280
     0
281
     0
  0
CLASS
  1
LAYOUT
  2
AcDbLayout
  3
ObjectDBX Classes
 90
        0
 91
        1
280
     0
281
     0
  0
CLASS
  1
ACDBPLACEHOLDER
  2
AcDbPlaceHolder
  3
ObjectDBX Classes
 90
        0
 91
        1
280
     0
281
     0
  0
ENDSEC
  0
SECTION
  2
TABLES
  0
TABLE
  2
VPORT
  5
8
330
0
100
AcDbSymbolTable
 70
     1
  0
VPORT
  5
442
330
8
100
AcDbSymbolTableRecord
100
AcDbViewportTableRecord
  2
*Active
 70
     0
 10
0.0
 20
0.0
 11
1.0
 21
1.0
 12
344.1869158878504
 22
148.5
 13
0.0
 23
0.0
 14
10.0
 24
10.0
 15
10.0
 25
10.0
 16
0.0
 26
0.0
 36
1.0
 17
0.0
 27
0.0
 37
0.0
 40
297.0
 41
1.972972972850329
 42
50.0
 43
0.0
 44
0.0
 50
0.0
 51
0.0
 71
     0
 72
   100
 73
     1
 74
     3
 75
     0
 76
     0
 77
     0
 78
     0
281
     0
 65
     1
110
0.0
120
0.0
130
0.0
111
1.0
121
0.0
131
0.0
112
0.0
122
1.0
132
0.0
 79
     0
146
0.0
348
743
 60
     3
 61
     5
292
     1
282
     1
141
0.0
142
0.0
 63
   250
  0
ENDTAB
  0
TABLE
  2
LTYPE
  5
5
330
0
100
AcDbSymbolTable
 70
     4
  0
LTYPE
  5
14
330
5
100
AcDbSymbolTableRecord
100
AcDbLinetypeTableRecord
  2
ByBlock
 70
     0
  3

 72
    65
 73
     0
 40
0.0
  0
LTYPE
  5
15
330
5
100
AcDbSymbolTableRecord
100
AcDbLinetypeTableRecord
  2
ByLayer
 70
     0
  3

 72
    65
 73
     0
 40
0.0
  0
LTYPE
  5
16
330
5
100
AcDbSymbolTableRecord
100
AcDbLinetypeTableRecord
  2
CONTINUOUS
 70
     0
  3
Solid line
 72
    65
 73
     0
 40
0.0
  0
LTYPE
  5
410
330
5
100
AcDbSymbolTableRecord
100
AcDbLinetypeTableRecord
  2
DASHDOT
 70
     0
  3
Dash Dot ____ _ ____ _
 72
    65
 73
     4
 40
2.0
 49
1.25
 74
     0
 49
-0.25
 74
     0
 49
0.25
 74
     0
 49
-0.25
 74
     0
  0
LTYPE
  5
411
330
5
100
AcDbSymbolTableRecord
100
AcDbLinetypeTableRecord
  2
DASHED
 70
     0
  3
Dashed __ __ __ __ __
 72
    65
 73
     2
 40
0.75
 49
0.5
 74
     0
 49
-0.25
 74
     0
  0
LTYPE
  5
43B
330
5
100
AcDbSymbolTableRecord
100
AcDbLinetypeTableRecord
  2
DOTTED
 70
     0
  3
Dotted .  .  .  .
 72
    65
 73
     2
 40
0.2
 49
0.0
 74
     0
 49
-0.2
 74
     0
  0
ENDTAB
  0
TABLE
  2
LAYER
  5
2
330
0
100
AcDbSymbolTable
 70
     3
  0
LAYER
  5
10
330
2
100
AcDbSymbolTableRecord
100
AcDbLayerTableRecord
  2
0
 70
     0
 62
     7
  6
CONTINUOUS
370
    -3
390
F
347
75A
348
0
  0
LAYER
  5
440
330
2
100
AcDbSymbolTableRecord
100
AcDbLayerTableRecord
  2
BLACK
 70
     0
 62
     7
  6
CONTINUOUS
370
    -3
390
F
347
75A
348
0
  0
LAYER
  5
76D
330
2
100
AcDbSymbolTableRecord
100
AcDbLayerTableRecord
  2
Defpoints
 70
     0
 62
     7
  6
CONTINUOUS
290
     0
370
    -3
390
F
347
75A
348
0
  0
ENDTAB
  0
TABLE
  2
STYLE
  5
3
330
0
100
AcDbSymbolTable
 70
     5
  0
STYLE
  5
11
330
3
100
AcDbSymbolTableRecord
100
AcDbTextStyleTableRecord
  2
Standard
 70
     0
 40
0.0
 41
1.0
 50
0.0
 71
     0
 42
0.2
  3
txt
  4

  0
STYLE
  5
43C
330
3
100
AcDbSymbolTableRecord
100
AcDbTextStyleTableRecord
  2
KICAD
 70
     0
 40
0.0
 41
1.0
 50
0.0
 71
     0
 42
1.0
  3
isocp.shx
  4

  0
STYLE
  5
43D
330
3
100
AcDbSymbolTableRecord
100
AcDbTextStyleTableRecord
  2
KICADB
 70
     0
 40
0.0
 41
1.0
 50
0.0
 71
     0
 42
1.0
  3
isocp.shx
  4

  0
STYLE
  5
43E
330
3
100
AcDbSymbolTableRecord
100
AcDbTextStyleTableRecord
  2
KICADI
 70
     0
 40
0.0
 41
1.0
 50
15.0
 71
     0
 42
1.0
  3
isocp.shx
  4

  0
STYLE
  5
43F
330
3
100
AcDbSymbolTableRecord
100
AcDbTextStyleTableRecord
  2
KICADBI
 70
     0
 40
0.0
 41
1.0
 50
15.0
 71
     0
 42
1.0
  3
isocp.shx
  4

  0
ENDTAB
  0
TABLE
  2
VIEW
  5
6
330
0
100
AcDbSymbolTable
 70
     0
  0
ENDTAB
  0
TABLE
  2
UCS
  5
7
330
0
100
AcDbSymbolTable
 70
     0
  0
ENDTAB
  0
TABLE
  2
APPID
  5
9
330
0
100
AcDbSymbolTable
 70
     3
  0
APPID
  5
12
330
9
100
AcDbSymbolTableRecord
100
AcDbRegAppTableRecord
  2
ACAD
 70
     0
  0
APPID
  5
7B9
330
9
100
AcDbSymbolTableRecord
100
AcDbRegAppTableRecord
  2
HATCHBACKGROUNDCOLOR
 70
     0
  0
APPID
  5
7BA
330
9
100
AcDbSymbolTableRecord
100
AcDbRegAppTableRecord
  2
EZDXF
 70
     0
  0
ENDTAB
  0
TABLE
  2
DIMSTYLE
  5
A
330
0
100
AcDbSymbolTable
 70
     2
100
AcDbDimStyleTable
  0
DIMSTYLE
105
441
330
A
100
AcDbSymbolTableRecord
100
AcDbDimStyleTableRecord
  2
ISO-25
 70
     0
 41
2.5
 42
0.625
 43
3.75
 44
1.25
 49
2.5
 73
     0
 74
     0
 77
     1
 78
     8
 79
     3
140
2.5
141
2.5
143
0.03937007874016
147
0.625
171
     3
172
     1
178
     0
179
     2
271
     2
272
     2
274
     3
278
    44
283
     0
284
     8
340
11
  0
DIMSTYLE
105
76E
330
A
100
AcDbSymbolTableRecord
100
AcDbDimStyleTableRecord
  2
Standard
 70
     0
 41
2.5
 42
0.625
 43
3.75
 44
1.25
 49
2.5
 73
     0
 74
     0
 77
     1
 78
     8
 79
     3
140
2.5
141
2.5
143
0.03937007874
147
0.625
171
     3
172
     1
178
     0
179
     2
271
     2
272
     2
274
     3
278
    44
283
     0
284
     8
340
11
  0
ENDTAB
  0
TABLE
  2
BLOCK_RECORD
  5
1
330
0
100
AcDbSymbolTable
 70
     0
  0
BLOCK_RECORD
  5
1D
330
1
100
AcDbSymbolTableRecord
100
AcDbBlockTableRecord
  2
*Model_Space
340
1E
 70
     0
280
     1
281
     0
  0
BLOCK_RECORD
  5
1B
330
1
100
AcDbSymbolTableRecord
100
AcDbBlockTableRecord
  2
*Paper_Space
340
1C
 70
     0
280
     1
281
     0
  0
ENDTAB
  0
ENDSEC
  0
SECTION
  2
BLOCKS
  0
BLOCK
  5
73A
330
1D
100
AcDbEntity
  8
0
100
AcDbBlockBegin
  2
*Model_Space
 70
     0
 10
0.0
 20
0.0
 30
0.0
  3
*Model_Space
  1

  0
ENDBLK
  5
73B
330
1D
100
AcDbEntity
  8
0
100
AcDbBlockEnd
  0
BLOCK
  5
73C
330
1B
100
AcDbEntity
 67
     1
  8
0
100
AcDbBlockBegin
  2
*Paper_Space
 70
     0
 10
0.0
 20
0.0
 30
0.0
  3
*Paper_Space
  1

  0
ENDBLK
  5
73D
330
1B
100
AcDbEntity
 67
     1
  8
0
100
AcDbBlockEnd
  0
ENDSEC
  0
SECTION
  2
ENTITIES
  0
LINE
  5
443
330
1D
100
AcDbEntity
  8
BLACK
  6
Continuous
100
AcDbLine
 10
9.898743999999999
 20
-65.084989
 30
0.0
 11
9.898743
 21
-65.084989
 31
0.0
  0
LINE
  5
444
330
1D
100
AcDbEntity
  8
BLACK
  6
Continuous
100
AcDbLine
 10
36.7764
 20
-63.965456
 30
0.0
 11
36.7764
 21
-63.965439
 31
0.0
  0
LINE
  5
445
330
1D
100
AcDbEntity
  8
BLACK
  6
Continuous
100
AcDbLine
 10
38.605339
 20
-54.939559
 30
0.0
 11
38.605364
 21
-54.939559
 31
0.0
  0
LINE
  5
446
330
1D
100
AcDbEntity
  8
BLACK
  6
Continuous
100
AcDbLine
 10
35.454086
 20
-52.934278
 30
0.0
 11
35.454095
 21
-52.934275
 31
0.0
  0
LINE
  5
447
330
1D
100
AcDbEntity
  8
BLACK
  6
Continuous
100
AcDbLine
 10
172.319613
 20
-96.19453999999999
 30
0.0
 11
172.319612
 21
-96.194541
 31
0.0
  0
LINE
  5
448
330
1D
100
AcDbEntity
  8
BLACK
  6
Continuous
100
AcDbLine
 10
195.565628
 20
-92.49755599999999
 30
0.0
 11
195.565628
 21
-92.497554
 31
0.0
  0
LINE
  5
449
330
1D
100
AcDbEntity
  8
BLACK
  6
Continuous
100
AcDbLine
 10
198.289547
 20
-80.302375
 30
0.0
 11
198.289571
 21
-80.30237
 31
0.0
  0
LINE
  5
44A
330
1D
100
AcDbEntity
  8
BLACK
  6
Continuous
100
AcDbLine
 10
194.790234
 20
-78.99609699999999
 30
0.0
 11
194.790243
 21
-78.99609099999999
 31
0.0
  0
LINE
  5
44B
330
1D
100
AcDbEntity
  8
BLACK
  6
Continuous
100
AcDbLine
 10
282.304995
 20
-46.03499
 30
0.0
 11
282.304994
 21
-46.03499
 31
0.0
  0
LINE
  5
44C
330
1D
100
AcDbEntity
  8
BLACK
  6
Continuous
100
AcDbLine
 10
309.574708
 20
-44.915436
 30
0.0
 11
309.574708
 21
-44.91544
 31
0.0
  0
LINE
  5
44D
330
1D
100
AcDbEntity
  8
BLACK
  6
Continuous
100
AcDbLine
 10
307.860337
 20
-33.884279
 30
0.0
 11
307.860346
 21
-33.884276
 31
0.0
  0
LINE
  5
44E
330
1D
100
AcDbEntity
  8
BLACK
  6
Continuous
100
AcDbLine
 10
307.8406
 20
-85.438001
 30
0.0
 11
307.8406
 21
-85.43799899999999
 31
0.0
  0
LINE
  5
44F
330
1D
100
AcDbEntity
  8
BLACK
  6
Continuous
100
AcDbLine
 10
251.270001
 20
-64.265001
 30
0.0
 11
251.27
 21
-64.265001
 31
0.0
  0
LINE
  5
450
330
1D
100
AcDbEntity
  8
BLACK
  6
Continuous
100
AcDbLine
 10
263.895
 20
-66.340001
 30
0.0
 11
263.895
 21
-66.34
 31
0.0
  0
LINE
  5
451
330
1D
100
AcDbEntity
  8
BLACK
  6
Continuous
100
AcDbLine
 10
208.691312
 20
0.453718
 30
0.0
 11
208.691313
 21
0.453718
 31
0.0
  0
LINE
  5
452
330
1D
100
AcDbEntity
  8
BLACK
  6
Continuous
100
AcDbLine
 10
190.528082
 20
-15.700642
 30
0.0
 11
190.528082
 21
-15.700641
 31
0.0
  0
LINE
  5
453
330
1D
100
AcDbEntity
  8
BLACK
  6
Continuous
100
AcDbLine
 10
177.277081
 20
-4.102234999999999
 30
0.0
 11
177.277079
 21
-4.102227
 31
0.0
  0
LINE
  5
454
330
1D
100
AcDbEntity
  8
BLACK
  6
Continuous
100
AcDbLine
 10
203.331313
 20
-20.156282
 30
0.0
 11
203.331312
 21
-20.156282
 31
0.0
  0
LINE
  5
455
330
1D
100
AcDbEntity
  8
BLACK
  6
Continuous
100
AcDbLine
 10
188.428082
 20
-74.57064199999999
 30
0.0
 11
188.428082
 21
-74.570641
 31
0.0
  0
LINE
  5
456
330
1D
100
AcDbEntity
  8
BLACK
  6
Continuous
100
AcDbLine
 10
175.177081
 20
-62.972235
 30
0.0
 11
175.177079
 21
-62.972227
 31
0.0
  0
LINE
  5
457
330
1D
100
AcDbEntity
  8
BLACK
  6
Continuous
100
AcDbLine
 10
185.168082
 20
-36.310642
 30
0.0
 11
185.168082
 21
-36.310641
 31
0.0
  0
LINE
  5
458
330
1D
100
AcDbEntity
  8
BLACK
  6
Continuous
100
AcDbLine
 10
171.917081
 20
-24.712235
 30
0.0
 11
171.917079
 21
-24.712227
 31
0.0
  0
LINE
  5
459
330
1D
100
AcDbEntity
  8
BLACK
  6
Continuous
100
AcDbLine
 10
234.320001
 20
-4.975001
 30
0.0
 11
234.319999
 21
-4.975001
 31
0.0
  0
LINE
  5
45A
330
1D
100
AcDbEntity
  8
BLACK
  6
Continuous
100
AcDbLine
 10
237.580001
 20
-45.215001
 30
0.0
 11
237.579999
 21
-45.215001
 31
0.0
  0
LINE
  5
45B
330
1D
100
AcDbEntity
  8
BLACK
  6
Continuous
100
AcDbLine
 10
244.845
 20
-66.340001
 30
0.0
 11
244.845
 21
-66.34
 31
0.0
  0
LINE
  5
45C
330
1D
100
AcDbEntity
  8
BLACK
  6
Continuous
100
AcDbLine
 10
232.220001
 20
-64.265001
 30
0.0
 11
232.22
 21
-64.265001
 31
0.0
  0
LINE
  5
45D
330
1D
100
AcDbEntity
  8
BLACK
  6
Continuous
100
AcDbLine
 10
279.265
 20
-28.240001
 30
0.0
 11
279.265
 21
-28.24
 31
0.0
  0
LINE
  5
45E
330
1D
100
AcDbEntity
  8
BLACK
  6
Continuous
100
AcDbLine
 10
266.640001
 20
-26.165001
 30
0.0
 11
266.64
 21
-26.165001
 31
0.0
  0
LINE
  5
45F
330
1D
100
AcDbEntity
  8
BLACK
  6
Continuous
100
AcDbLine
 10
290.460001
 20
-26.165001
 30
0.0
 11
290.459999
 21
-26.165001
 31
0.0
  0
LINE
  5
460
330
1D
100
AcDbEntity
  8
BLACK
  6
Continuous
100
AcDbLine
 10
225.225024
 20
-54.455564
 30
0.0
 11
225.225023
 21
-54.455564
 31
0.0
  0
LINE
  5
461
330
1D
100
AcDbEntity
  8
BLACK
  6
Continuous
100
AcDbLine
 10
206.591313
 20
-58.416282
 30
0.0
 11
206.591312
 21
-58.416282
 31
0.0
  0
LINE
  5
462
330
1D
100
AcDbEntity
  8
BLACK
  6
Continuous
100
AcDbLine
 10
230.585025
 20
-33.845565
 30
0.0
 11
230.585024
 21
-33.845565
 31
0.0
  0
LINE
  5
463
330
1D
100
AcDbEntity
  8
BLACK
  6
Continuous
100
AcDbLine
 10
227.325024
 20
4.414435
 30
0.0
 11
227.325023
 21
4.414435
 31
0.0
  0
LINE
  5
464
330
1D
100
AcDbEntity
  8
BLACK
  6
Continuous
100
AcDbLine
 10
256.630001
 20
-45.215001
 30
0.0
 11
256.63
 21
-45.215001
 31
0.0
  0
LINE
  5
465
330
1D
100
AcDbEntity
  8
BLACK
  6
Continuous
100
AcDbLine
 10
269.255
 20
-47.290001
 30
0.0
 11
269.255
 21
-47.29
 31
0.0
  0
LINE
  5
466
330
1D
100
AcDbEntity
  8
BLACK
  6
Continuous
100
AcDbLine
 10
221.965024
 20
-16.195564
 30
0.0
 11
221.965025
 21
-16.195564
 31
0.0
  0
LINE
  5
467
330
1D
100
AcDbEntity
  8
BLACK
  6
Continuous
100
AcDbLine
 10
211.951313
 20
-37.806282
 30
0.0
 11
211.951312
 21
-37.806282
 31
0.0
  0
LINE
  5
468
330
1D
100
AcDbEntity
  8
BLACK
  6
Continuous
100
AcDbLine
 10
193.788082
 20
-53.960642
 30
0.0
 11
193.788082
 21
-53.960641
 31
0.0
  0
LINE
  5
469
330
1D
100
AcDbEntity
  8
BLACK
  6
Continuous
100
AcDbLine
 10
180.537081
 20
-42.362235
 30
0.0
 11
180.537079
 21
-42.362227
 31
0.0
  0
LINE
  5
46A
330
1D
100
AcDbEntity
  8
BLACK
  6
Continuous
100
AcDbLine
 10
230.035024
 20
-74.445565
 30
0.0
 11
230.035023
 21
-74.445565
 31
0.0
  0
LINE
  5
46B
330
1D
100
AcDbEntity
  8
BLACK
  6
Continuous
100
AcDbLine
 10
252.950001
 20
-7.115000999999999
 30
0.0
 11
252.949999
 21
-7.115000999999999
 31
0.0
  0
LINE
  5
46C
330
1D
100
AcDbEntity
  8
BLACK
  6
Continuous
100
AcDbLine
 10
121.65739
 20
-76.07028799999999
 30
0.0
 11
121.657389
 21
-76.07028799999999
 31
0.0
  0
LINE
  5
46D
330
1D
100
AcDbEntity
  8
BLACK
  6
Continuous
100
AcDbLine
 10
138.104857
 20
-69.394018
 30
0.0
 11
138.104881
 21
-69.39402299999999
 31
0.0
  0
LINE
  5
46E
330
1D
100
AcDbEntity
  8
BLACK
  6
Continuous
100
AcDbLine
 10
5.274999999999999
 20
-7.050001
 30
0.0
 11
5.274999999999999
 21
-7.05
 31
0.0
  0
LINE
  5
46F
330
1D
100
AcDbEntity
  8
BLACK
  6
Continuous
100
AcDbLine
 10
84.389966
 20
-68.14885199999999
 30
0.0
 11
84.38996499999999
 21
-68.14885199999999
 31
0.0
  0
LINE
  5
470
330
1D
100
AcDbEntity
  8
BLACK
  6
Continuous
100
AcDbLine
 10
96.30756099999999
 20
-72.80336
 30
0.0
 11
96.307559
 21
-72.803371
 31
0.0
  0
LINE
  5
471
330
1D
100
AcDbEntity
  8
BLACK
  6
Continuous
100
AcDbLine
 10
100.837456
 20
-61.472585
 30
0.0
 11
100.837457
 21
-61.472585
 31
0.0
  0
LINE
  5
472
330
1D
100
AcDbEntity
  8
BLACK
  6
Continuous
100
AcDbLine
 10
88.919833
 20
-56.81807
 30
0.0
 11
88.91983499999999
 21
-56.818059
 31
0.0
  0
LINE
  5
473
330
1D
100
AcDbEntity
  8
BLACK
  6
Continuous
100
AcDbLine
 10
72.986254
 20
-7.298134999999999
 30
0.0
 11
72.98625299999999
 21
-7.298134999999999
 31
0.0
  0
LINE
  5
474
330
1D
100
AcDbEntity
  8
BLACK
  6
Continuous
100
AcDbLine
 10
84.903865
 20
-11.952644
 30
0.0
 11
84.90386199999999
 21
-11.952657
 31
0.0
  0
LINE
  5
475
330
1D
100
AcDbEntity
  8
BLACK
  6
Continuous
100
AcDbLine
 10
89.43374399999999
 20
-0.621868
 30
0.0
 11
89.433745
 21
-0.621868
 31
0.0
  0
LINE
  5
476
330
1D
100
AcDbEntity
  8
BLACK
  6
Continuous
100
AcDbLine
 10
77.516136
 20
4.032643999999999
 30
0.0
 11
77.516138
 21
4.032655
 31
0.0
  0
LINE
  5
477
330
1D
100
AcDbEntity
  8
BLACK
  6
Continuous
100
AcDbLine
 10
53.360001
 20
-4.975001
 30
0.0
 11
53.35999899999999
 21
-4.975001
 31
0.0
  0
LINE
  5
478
330
1D
100
AcDbEntity
  8
BLACK
  6
Continuous
100
AcDbLine
 10
60.406254
 20
-43.578135
 30
0.0
 11
60.406253
 21
-43.578135
 31
0.0
  0
LINE
  5
479
330
1D
100
AcDbEntity
  8
BLACK
  6
Continuous
100
AcDbLine
 10
72.323865
 20
-48.232644
 30
0.0
 11
72.32386199999999
 21
-48.232657
 31
0.0
  0
LINE
  5
47A
330
1D
100
AcDbEntity
  8
BLACK
  6
Continuous
100
AcDbLine
 10
76.85374399999999
 20
-36.901868
 30
0.0
 11
76.853745
 21
-36.901868
 31
0.0
  0
LINE
  5
47B
330
1D
100
AcDbEntity
  8
BLACK
  6
Continuous
100
AcDbLine
 10
64.93613599999999
 20
-32.247356
 30
0.0
 11
64.936138
 21
-32.247345
 31
0.0
  0
LINE
  5
47C
330
1D
100
AcDbEntity
  8
BLACK
  6
Continuous
100
AcDbLine
 10
91.61996599999999
 20
-11.258852
 30
0.0
 11
91.619965
 21
-11.258852
 31
0.0
  0
LINE
  5
47D
330
1D
100
AcDbEntity
  8
BLACK
  6
Continuous
100
AcDbLine
 10
103.537561
 20
-15.91336
 30
0.0
 11
103.537559
 21
-15.913371
 31
0.0
  0
LINE
  5
47E
330
1D
100
AcDbEntity
  8
BLACK
  6
Continuous
100
AcDbLine
 10
108.067456
 20
-4.582585
 30
0.0
 11
108.067457
 21
-4.582585
 31
0.0
  0
LINE
  5
47F
330
1D
100
AcDbEntity
  8
BLACK
  6
Continuous
100
AcDbLine
 10
96.149833
 20
0.07193
 30
0.0
 11
96.149835
 21
0.071941
 31
0.0
  0
LINE
  5
480
330
1D
100
AcDbEntity
  8
BLACK
  6
Continuous
100
AcDbLine
 10
116.30739
 20
-55.460288
 30
0.0
 11
116.307389
 21
-55.460288
 31
0.0
  0
LINE
  5
481
330
1D
100
AcDbEntity
  8
BLACK
  6
Continuous
100
AcDbLine
 10
132.754857
 20
-48.784018
 30
0.0
 11
132.754881
 21
-48.784023
 31
0.0
  0
LINE
  5
482
330
1D
100
AcDbEntity
  8
BLACK
  6
Continuous
100
AcDbLine
 10
115.60739
 20
-35.830288
 30
0.0
 11
115.607389
 21
-35.830288
 31
0.0
  0
LINE
  5
483
330
1D
100
AcDbEntity
  8
BLACK
  6
Continuous
100
AcDbLine
 10
132.054857
 20
-29.154018
 30
0.0
 11
132.054881
 21
-29.154023
 31
0.0
  0
LINE
  5
484
330
1D
100
AcDbEntity
  8
BLACK
  6
Continuous
100
AcDbLine
 10
128.88739
 20
-19.180288
 30
0.0
 11
128.887389
 21
-19.180288
 31
0.0
  0
LINE
  5
485
330
1D
100
AcDbEntity
  8
BLACK
  6
Continuous
100
AcDbLine
 10
145.334857
 20
-12.504018
 30
0.0
 11
145.334881
 21
-12.504023
 31
0.0
  0
LINE
  5
486
330
1D
100
AcDbEntity
  8
BLACK
  6
Continuous
100
AcDbLine
 10
59.70625399999999
 20
-23.948135
 30
0.0
 11
59.706253
 21
-23.948135
 31
0.0
  0
LINE
  5
487
330
1D
100
AcDbEntity
  8
BLACK
  6
Continuous
100
AcDbLine
 10
71.623865
 20
-28.602644
 30
0.0
 11
71.623862
 21
-28.602657
 31
0.0
  0
LINE
  5
488
330
1D
100
AcDbEntity
  8
BLACK
  6
Continuous
100
AcDbLine
 10
76.153744
 20
-17.271868
 30
0.0
 11
76.153745
 21
-17.271868
 31
0.0
  0
LINE
  5
489
330
1D
100
AcDbEntity
  8
BLACK
  6
Continuous
100
AcDbLine
 10
64.236136
 20
-12.617356
 30
0.0
 11
64.236138
 21
-12.617345
 31
0.0
  0
LINE
  5
48A
330
1D
100
AcDbEntity
  8
BLACK
  6
Continuous
100
AcDbLine
 10
65.756254
 20
-64.188135
 30
0.0
 11
65.756253
 21
-64.188135
 31
0.0
  0
LINE
  5
48B
330
1D
100
AcDbEntity
  8
BLACK
  6
Continuous
100
AcDbLine
 10
77.67386499999999
 20
-68.84264399999999
 30
0.0
 11
77.673862
 21
-68.842657
 31
0.0
  0
LINE
  5
48C
330
1D
100
AcDbEntity
  8
BLACK
  6
Continuous
100
AcDbLine
 10
82.203744
 20
-57.511868
 30
0.0
 11
82.203745
 21
-57.511868
 31
0.0
  0
LINE
  5
48D
330
1D
100
AcDbEntity
  8
BLACK
  6
Continuous
100
AcDbLine
 10
70.286136
 20
-52.857356
 30
0.0
 11
70.286138
 21
-52.857345
 31
0.0
  0
LINE
  5
48E
330
1D
100
AcDbEntity
  8
BLACK
  6
Continuous
100
AcDbLine
 10
78.33996599999999
 20
-27.908852
 30
0.0
 11
78.33996499999999
 21
-27.908852
 31
0.0
  0
LINE
  5
48F
330
1D
100
AcDbEntity
  8
BLACK
  6
Continuous
100
AcDbLine
 10
90.257561
 20
-32.56336
 30
0.0
 11
90.257559
 21
-32.563371
 31
0.0
  0
LINE
  5
490
330
1D
100
AcDbEntity
  8
BLACK
  6
Continuous
100
AcDbLine
 10
94.78745599999999
 20
-21.232585
 30
0.0
 11
94.78745699999999
 21
-21.232585
 31
0.0
  0
LINE
  5
491
330
1D
100
AcDbEntity
  8
BLACK
  6
Continuous
100
AcDbLine
 10
82.869833
 20
-16.57807
 30
0.0
 11
82.869835
 21
-16.578059
 31
0.0
  0
LINE
  5
492
330
1D
100
AcDbEntity
  8
BLACK
  6
Continuous
100
AcDbLine
 10
79.03996599999999
 20
-47.538852
 30
0.0
 11
79.039965
 21
-47.538852
 31
0.0
  0
LINE
  5
493
330
1D
100
AcDbEntity
  8
BLACK
  6
Continuous
100
AcDbLine
 10
90.957561
 20
-52.19336
 30
0.0
 11
90.95755899999999
 21
-52.193371
 31
0.0
  0
LINE
  5
494
330
1D
100
AcDbEntity
  8
BLACK
  6
Continuous
100
AcDbLine
 10
95.487456
 20
-40.862585
 30
0.0
 11
95.48745699999999
 21
-40.862585
 31
0.0
  0
LINE
  5
495
330
1D
100
AcDbEntity
  8
BLACK
  6
Continuous
100
AcDbLine
 10
83.569833
 20
-36.20807
 30
0.0
 11
83.569835
 21
-36.208059
 31
0.0
  0
LINE
  5
496
330
1D
100
AcDbEntity
  8
BLACK
  6
Continuous
100
AcDbLine
 10
60.946254
 20
-84.178135
 30
0.0
 11
60.946253
 21
-84.178135
 31
0.0
  0
LINE
  5
497
330
1D
100
AcDbEntity
  8
BLACK
  6
Continuous
100
AcDbLine
 10
72.86386499999999
 20
-88.832644
 30
0.0
 11
72.863862
 21
-88.832657
 31
0.0
  0
LINE
  5
498
330
1D
100
AcDbEntity
  8
BLACK
  6
Continuous
100
AcDbLine
 10
77.393744
 20
-77.501868
 30
0.0
 11
77.393745
 21
-77.501868
 31
0.0
  0
LINE
  5
499
330
1D
100
AcDbEntity
  8
BLACK
  6
Continuous
100
AcDbLine
 10
65.476136
 20
-72.84735599999999
 30
0.0
 11
65.47613799999999
 21
-72.84734499999999
 31
0.0
  0
LINE
  5
49A
330
1D
100
AcDbEntity
  8
BLACK
  6
Continuous
100
AcDbLine
 10
65.185729
 20
12.769074
 30
0.0
 11
65.185727
 21
12.769063
 31
0.0
  0
ARC
  5
49D
330
1D
100
AcDbEntity
  8
BLACK
100
AcDbCircle
 10
37.18034
 20
-62.540461
 30
0.0
 40
1.425024
100
AcDbArc
 50
269.54469209
 51
0.0
  0
ARC
  5
49E
330
1D
100
AcDbEntity
  8
BLACK
100
AcDbCircle
 10
37.1804
 20
-54.939501
 30
0.0
 40
1.424942
100
AcDbArc
 50
359.99766786
 51
90.0
  0
ARC
  5
49F
330
1D
100
AcDbEntity
  8
BLACK
100
AcDbCircle
 10
36.3148
 20
-52.586101
 30
0.0
 40
0.928458
100
AcDbArc
 50
202.0244092
 51
270.0
  0
ARC
  5
4A0
330
1D
100
AcDbEntity
  8
BLACK
100
AcDbCircle
 10
36.7764
 20
-65.690501
 30
0.0
 40
1.725045371519254
100
AcDbArc
 50
90.0
 51
159.4511154
  0
ARC
  5
4A1
330
1D
100
AcDbEntity
  8
BLACK
100
AcDbCircle
 10
33.4053
 20
-64.426801
 30
0.0
 40
1.87512863820059
100
AcDbArc
 50
269.73538702
 51
339.45059949
  0
ARC
  5
4A2
330
1D
100
AcDbEntity
  8
BLACK
100
AcDbCircle
 10
34.4575
 20
-53.337501
 30
0.0
 40
1.075102
100
AcDbArc
 50
22.02846853
 51
90.0
  0
ARC
  5
4A3
330
1D
100
AcDbEntity
  8
BLACK
100
AcDbCircle
 10
11.65446
 20
-64.426911
 30
0.0
 40
1.874998
100
AcDbArc
 50
200.54701807
 51
270.0
  0
ARC
  5
4A4
330
1D
100
AcDbEntity
  8
BLACK
100
AcDbCircle
 10
10.60223
 20
-53.337241
 30
0.0
 40
1.074859461790238
100
AcDbArc
 50
89.99232400000001
 51
157.98202934
  0
ARC
  5
4A5
330
1D
100
AcDbEntity
  8
BLACK
100
AcDbCircle
 10
8.74518
 20
-52.586261
 30
0.0
 40
0.9282894749915028
100
AcDbArc
 50
269.99345751
 51
337.9817161199999
  0
ARC
  5
4A6
330
1D
100
AcDbEntity
  8
BLACK
100
AcDbCircle
 10
8.28355
 20
-65.69035099999999
 30
0.0
 40
1.724912
100
AcDbArc
 50
20.54561447
 51
90.0
  0
ARC
  5
4A7
330
1D
100
AcDbEntity
  8
BLACK
100
AcDbCircle
 10
7.879499999999999
 20
-62.540401
 30
0.0
 40
1.425038
100
AcDbArc
 50
179.68896083
 51
270.0
  0
ARC
  5
4A8
330
1D
100
AcDbEntity
  8
BLACK
100
AcDbCircle
 10
7.87955
 20
-54.939581
 30
0.0
 40
1.425066000035086
100
AcDbArc
 50
89.54936987000002
 51
180.00040206
  0
LINE
  5
4A9
330
1D
100
AcDbEntity
  8
BLACK
  6
Continuous
100
AcDbLine
 10
38.605364
 20
-54.939559
 30
0.0
 11
38.605364
 21
-62.540461
 31
0.0
  0
LINE
  5
4AA
330
1D
100
AcDbEntity
  8
BLACK
  6
Continuous
100
AcDbLine
 10
37.169016
 20
-63.965439
 30
0.0
 11
36.7764
 21
-63.965439
 31
0.0
  0
LINE
  5
4AB
330
1D
100
AcDbEntity
  8
BLACK
  6
Continuous
100
AcDbLine
 10
36.3148
 20
-53.514559
 30
0.0
 11
37.1804
 21
-53.514559
 31
0.0
  0
LINE
  5
4AC
330
1D
100
AcDbEntity
  8
BLACK
  6
Continuous
100
AcDbLine
 10
33.39664
 20
-66.301909
 30
0.0
 11
11.65446
 21
-66.301909
 31
0.0
  0
LINE
  5
4AD
330
1D
100
AcDbEntity
  8
BLACK
  6
Continuous
100
AcDbLine
 10
10.602374
 20
-52.26239899999999
 30
0.0
 11
10.602374
 21
-52.262386
 31
0.0
  0
LINE
  5
4AE
330
1D
100
AcDbEntity
  8
BLACK
  6
Continuous
100
AcDbLine
 10
10.602374
 20
-52.26239899999999
 30
0.0
 11
34.4575
 21
-52.26239899999999
 31
0.0
  0
LINE
  5
4AF
330
1D
100
AcDbEntity
  8
BLACK
  6
Continuous
100
AcDbLine
 10
8.745073999999999
 20
-53.514547
 30
0.0
 11
8.745073999999999
 21
-53.51455499999999
 31
0.0
  0
LINE
  5
4B0
330
1D
100
AcDbEntity
  8
BLACK
  6
Continuous
100
AcDbLine
 10
8.28355
 20
-63.965439
 30
0.0
 11
7.879499999999999
 21
-63.965439
 31
0.0
  0
LINE
  5
4B1
330
1D
100
AcDbEntity
  8
BLACK
  6
Continuous
100
AcDbLine
 10
7.890758
 20
-53.514559
 30
0.0
 11
8.745073999999999
 21
-53.514559
 31
0.0
  0
LINE
  5
4B2
330
1D
100
AcDbEntity
  8
BLACK
  6
Continuous
100
AcDbLine
 10
6.454484
 20
-62.53266499999999
 30
0.0
 11
6.454484
 21
-54.939591
 31
0.0
  0
ARC
  5
4B5
330
1D
100
AcDbEntity
  8
BLACK
100
AcDbCircle
 10
198.4759
 20
-88.033401
 30
0.0
 40
1.42511516360363
100
AcDbArc
 50
281.45703778
 51
11.99999576
  0
ARC
  5
4B6
330
1D
100
AcDbEntity
  8
BLACK
100
AcDbCircle
 10
196.8957
 20
-80.598601
 30
0.0
 40
1.424955295670008
100
AcDbArc
 50
11.99821736
 51
101.99992334
  0
ARC
  5
4B7
330
1D
100
AcDbEntity
  8
BLACK
100
AcDbCircle
 10
195.5597
 20
-78.47670099999999
 30
0.0
 40
0.9283453913549633
100
AcDbArc
 50
214.01968378
 51
281.99994574
  0
ARC
  5
4B8
330
1D
100
AcDbEntity
  8
BLACK
100
AcDbCircle
 10
198.7357
 20
-91.198501
 30
0.0
 40
1.724904767346012
100
AcDbArc
 50
102.13794779
 51
171.45513219
  0
ARC
  5
4B9
330
1D
100
AcDbEntity
  8
BLACK
100
AcDbCircle
 10
195.1757
 20
-90.663501
 30
0.0
 40
1.875070928368578
100
AcDbArc
 50
282.00261756
 51
351.45198868
  0
ARC
  5
4BA
330
1D
100
AcDbEntity
  8
BLACK
100
AcDbCircle
 10
193.8993
 20
-79.597501
 30
0.0
 40
1.074904203847952
100
AcDbArc
 50
34.02039042
 51
101.9999918
  0
ARC
  5
4BB
330
1D
100
AcDbEntity
  8
BLACK
100
AcDbCircle
 10
173.9001
 20
-95.185901
 30
0.0
 40
1.874916413207266
100
AcDbArc
 50
212.54530274
 51
281.9999987
  0
ARC
  5
4BC
330
1D
100
AcDbEntity
  8
BLACK
100
AcDbCircle
 10
170.5653
 20
-84.557301
 30
0.0
 40
1.074935768195477
100
AcDbArc
 50
101.9952446
 51
169.97973742
  0
ARC
  5
4BD
330
1D
100
AcDbEntity
  8
BLACK
100
AcDbCircle
 10
168.5926
 20
-84.20870099999999
 30
0.0
 40
0.9283283810947504
100
AcDbArc
 50
281.99408977
 51
349.9772828
  0
ARC
  5
4BE
330
1D
100
AcDbEntity
  8
BLACK
100
AcDbCircle
 10
170.8656
 20
-97.122401
 30
0.0
 40
1.724828635926769
100
AcDbArc
 50
32.54348600000001
 51
101.99999871
  0
ARC
  5
4BF
330
1D
100
AcDbEntity
  8
BLACK
100
AcDbCircle
 10
169.8154
 20
-94.125501
 30
0.0
 40
1.424931404303379
100
AcDbArc
 50
191.99723804
 51
282.00004532
  0
ARC
  5
4C0
330
1D
100
AcDbEntity
  8
BLACK
100
AcDbCircle
 10
168.2353
 20
-86.69070099999999
 30
0.0
 40
1.425158117008074
100
AcDbArc
 50
101.46558802
 51
191.99999861
  0
LINE
  5
4C1
330
1D
100
AcDbEntity
  8
BLACK
  6
Continuous
100
AcDbLine
 10
198.289571
 20
-80.30237
 30
0.0
 11
199.869873
 21
-87.73710299999999
 31
0.0
  0
LINE
  5
4C2
330
1D
100
AcDbEntity
  8
BLACK
  6
Continuous
100
AcDbLine
 10
198.758975
 20
-89.43011899999999
 30
0.0
 11
198.373011
 21
-89.512158
 31
0.0
  0
LINE
  5
4C3
330
1D
100
AcDbEntity
  8
BLACK
  6
Continuous
100
AcDbLine
 10
195.752713
 20
-79.38476
 30
0.0
 11
196.599437
 21
-79.20478399999999
 31
0.0
  0
LINE
  5
4C4
330
1D
100
AcDbEntity
  8
BLACK
  6
Continuous
100
AcDbLine
 10
195.565628
 20
-92.497554
 30
0.0
 11
174.289917
 21
-97.019846
 31
0.0
  0
LINE
  5
4C5
330
1D
100
AcDbEntity
  8
BLACK
  6
Continuous
100
AcDbLine
 10
170.341901
 20
-83.505862
 30
0.0
 11
170.341895
 21
-83.505834
 31
0.0
  0
LINE
  5
4C6
330
1D
100
AcDbEntity
  8
BLACK
  6
Continuous
100
AcDbLine
 10
170.341901
 20
-83.505862
 30
0.0
 11
193.675815
 21
-78.546086
 31
0.0
  0
LINE
  5
4C7
330
1D
100
AcDbEntity
  8
BLACK
  6
Continuous
100
AcDbLine
 10
168.785516
 20
-85.11676
 30
0.0
 11
168.785526
 21
-85.116813
 31
0.0
  0
LINE
  5
4C8
330
1D
100
AcDbEntity
  8
BLACK
  6
Continuous
100
AcDbLine
 10
170.506988
 20
-95.43526399999999
 30
0.0
 11
170.111661
 21
-95.519294
 31
0.0
  0
LINE
  5
4C9
330
1D
100
AcDbEntity
  8
BLACK
  6
Continuous
100
AcDbLine
 10
167.952008
 20
-85.293983
 30
0.0
 11
168.785526
 21
-85.116813
 31
0.0
  0
LINE
  5
4CA
330
1D
100
AcDbEntity
  8
BLACK
  6
Continuous
100
AcDbLine
 10
168.421577
 20
-94.421697
 30
0.0
 11
166.841285
 21
-86.987008
 31
0.0
  0
ARC
  5
4CD
330
1D
100
AcDbEntity
  8
BLACK
100
AcDbCircle
 10
309.5866
 20
-43.490401
 30
0.0
 40
1.425015
100
AcDbArc
 50
269.52187448
 51
0.0
  0
ARC
  5
4CE
330
1D
100
AcDbEntity
  8
BLACK
100
AcDbCircle
 10
309.5865
 20
-35.889701
 30
0.0
 40
1.425141003508425
100
AcDbArc
 50
359.65794571
 51
89.99597964
  0
ARC
  5
4CF
330
1D
100
AcDbEntity
  8
BLACK
100
AcDbCircle
 10
308.7211
 20
-33.536001
 30
0.0
 40
0.9285589999999999
100
AcDbArc
 50
202.02905277
 51
270.0
  0
ARC
  5
4D0
330
1D
100
AcDbEntity
  8
BLACK
100
AcDbCircle
 10
309.1826
 20
-46.640401
 30
0.0
 40
1.724962166549168
100
AcDbArc
 50
90.0
 51
159.45366212
  0
ARC
  5
4D1
330
1D
100
AcDbEntity
  8
BLACK
100
AcDbCircle
 10
305.8115
 20
-45.376801
 30
0.0
 40
1.875176744156667
100
AcDbArc
 50
270.0
 51
339.45111786
  0
ARC
  5
4D2
330
1D
100
AcDbEntity
  8
BLACK
100
AcDbCircle
 10
306.8638
 20
-34.287401
 30
0.0
 40
1.075001
100
AcDbArc
 50
22.02445785
 51
90.0
  0
ARC
  5
4D3
330
1D
100
AcDbEntity
  8
BLACK
100
AcDbCircle
 10
284.0607
 20
-45.377001
 30
0.0
 40
1.874909
100
AcDbArc
 50
200.54458936
 51
270.0
  0
ARC
  5
4D4
330
1D
100
AcDbEntity
  8
BLACK
100
AcDbCircle
 10
283.0085
 20
-34.287301
 30
0.0
 40
1.074899196048634
100
AcDbArc
 50
89.99333707000001
 51
157.97949349
  0
ARC
  5
4D5
330
1D
100
AcDbEntity
  8
BLACK
100
AcDbCircle
 10
281.1514
 20
-33.536201
 30
0.0
 40
0.9283410841204863
100
AcDbArc
 50
269.99537111
 51
337.97894317
  0
ARC
  5
4D6
330
1D
100
AcDbEntity
  8
BLACK
100
AcDbCircle
 10
280.6898
 20
-46.640401
 30
0.0
 40
1.724961
100
AcDbArc
 50
20.54712688
 51
90.0
  0
ARC
  5
4D7
330
1D
100
AcDbEntity
  8
BLACK
100
AcDbCircle
 10
280.2857
 20
-43.490401
 30
0.0
 40
1.425039003508676
100
AcDbArc
 50
179.4241123
 51
269.99597935
  0
ARC
  5
4D8
330
1D
100
AcDbEntity
  8
BLACK
100
AcDbCircle
 10
280.2858
 20
-35.889601
 30
0.0
 40
1.425065
100
AcDbArc
 50
89.66749674
 51
180.0
  0
LINE
  5
4D9
330
1D
100
AcDbEntity
  8
BLACK
  6
Continuous
100
AcDbLine
 10
311.011615
 20
-35.898209
 30
0.0
 11
311.011615
 21
-43.490401
 31
0.0
  0
LINE
  5
4DA
330
1D
100
AcDbEntity
  8
BLACK
  6
Continuous
100
AcDbLine
 10
309.574708
 20
-44.91544
 30
0.0
 11
309.1826
 21
-44.91544
 31
0.0
  0
LINE
  5
4DB
330
1D
100
AcDbEntity
  8
BLACK
  6
Continuous
100
AcDbLine
 10
308.7211
 20
-34.46456
 30
0.0
 11
309.5866
 21
-34.46456
 31
0.0
  0
LINE
  5
4DC
330
1D
100
AcDbEntity
  8
BLACK
  6
Continuous
100
AcDbLine
 10
305.8115
 20
-47.25191
 30
0.0
 11
284.0607
 21
-47.25191
 31
0.0
  0
LINE
  5
4DD
330
1D
100
AcDbEntity
  8
BLACK
  6
Continuous
100
AcDbLine
 10
283.008625
 20
-33.212411
 30
0.0
 11
283.008625
 21
-33.2124
 31
0.0
  0
LINE
  5
4DE
330
1D
100
AcDbEntity
  8
BLACK
  6
Continuous
100
AcDbLine
 10
283.008625
 20
-33.2124
 30
0.0
 11
306.8638
 21
-33.2124
 31
0.0
  0
LINE
  5
4DF
330
1D
100
AcDbEntity
  8
BLACK
  6
Continuous
100
AcDbLine
 10
281.151325
 20
-34.46454
 30
0.0
 11
281.151325
 21
-34.46456
 31
0.0
  0
LINE
  5
4E0
330
1D
100
AcDbEntity
  8
BLACK
  6
Continuous
100
AcDbLine
 10
280.6898
 20
-44.91544
 30
0.0
 11
280.2856
 21
-44.91544
 31
0.0
  0
LINE
  5
4E1
330
1D
100
AcDbEntity
  8
BLACK
  6
Continuous
100
AcDbLine
 10
280.29407
 20
-34.46456
 30
0.0
 11
281.151325
 21
-34.46456
 31
0.0
  0
LINE
  5
4E2
330
1D
100
AcDbEntity
  8
BLACK
  6
Continuous
100
AcDbLine
 10
278.860735
 20
-43.476078
 30
0.0
 11
278.860735
 21
-35.889601
 31
0.0
  0
ARC
  5
4E3
330
1D
100
AcDbEntity
  8
BLACK
100
AcDbCircle
 10
307.8406
 20
-83.363001
 30
0.0
 40
2.075
100
AcDbArc
 50
270.0
 51
0.0
  0
ARC
  5
4E4
330
1D
100
AcDbEntity
  8
BLACK
100
AcDbCircle
 10
307.8406
 20
-73.413001
 30
0.0
 40
2.075002
100
AcDbArc
 50
0.0
 51
90.0
  0
ARC
  5
4E5
330
1D
100
AcDbEntity
  8
BLACK
100
AcDbCircle
 10
297.2906
 20
-83.363001
 30
0.0
 40
2.074998
100
AcDbArc
 50
180.0
 51
270.0
  0
ARC
  5
4E6
330
1D
100
AcDbEntity
  8
BLACK
100
AcDbCircle
 10
297.2906
 20
-73.413001
 30
0.0
 40
2.075
100
AcDbArc
 50
90.0
 51
180.0
  0
LINE
  5
4E7
330
1D
100
AcDbEntity
  8
BLACK
  6
Continuous
100
AcDbLine
 10
309.9156
 20
-73.413001
 30
0.0
 11
309.9156
 21
-83.363001
 31
0.0
  0
LINE
  5
4E8
330
1D
100
AcDbEntity
  8
BLACK
  6
Continuous
100
AcDbLine
 10
307.8406
 20
-85.43799899999999
 30
0.0
 11
297.2906
 21
-85.43799899999999
 31
0.0
  0
LINE
  5
4E9
330
1D
100
AcDbEntity
  8
BLACK
  6
Continuous
100
AcDbLine
 10
307.8406
 20
-71.337999
 30
0.0
 11
297.2906
 21
-71.337999
 31
0.0
  0
LINE
  5
4EA
330
1D
100
AcDbEntity
  8
BLACK
  6
Continuous
100
AcDbLine
 10
295.2156
 20
-73.413001
 30
0.0
 11
295.2156
 21
-83.363001
 31
0.0
  0
ARC
  5
4EB
330
1D
100
AcDbEntity
  8
BLACK
100
AcDbCircle
 10
263.895
 20
-64.265001
 30
0.0
 40
2.075
100
AcDbArc
 50
270.0
 51
0.0
  0
ARC
  5
4EC
330
1D
100
AcDbEntity
  8
BLACK
100
AcDbCircle
 10
263.895
 20
-54.315001
 30
0.0
 40
2.075001
100
AcDbArc
 50
0.0
 51
90.0
  0
ARC
  5
4ED
330
1D
100
AcDbEntity
  8
BLACK
100
AcDbCircle
 10
253.345
 20
-64.265001
 30
0.0
 40
2.074999
100
AcDbArc
 50
180.0
 51
270.0
  0
ARC
  5
4EE
330
1D
100
AcDbEntity
  8
BLACK
100
AcDbCircle
 10
253.345
 20
-54.315001
 30
0.0
 40
2.075
100
AcDbArc
 50
90.0
 51
180.0
  0
LINE
  5
4EF
330
1D
100
AcDbEntity
  8
BLACK
  6
Continuous
100
AcDbLine
 10
265.97
 20
-54.315001
 30
0.0
 11
265.97
 21
-64.265001
 31
0.0
  0
LINE
  5
4F0
330
1D
100
AcDbEntity
  8
BLACK
  6
Continuous
100
AcDbLine
 10
263.895
 20
-66.34
 30
0.0
 11
253.345
 21
-66.34
 31
0.0
  0
LINE
  5
4F1
330
1D
100
AcDbEntity
  8
BLACK
  6
Continuous
100
AcDbLine
 10
263.895
 20
-52.23999999999999
 30
0.0
 11
253.345
 21
-52.23999999999999
 31
0.0
  0
LINE
  5
4F2
330
1D
100
AcDbEntity
  8
BLACK
  6
Continuous
100
AcDbLine
 10
251.27
 20
-54.315001
 30
0.0
 11
251.27
 21
-64.265001
 31
0.0
  0
ARC
  5
4F3
330
1D
100
AcDbEntity
  8
BLACK
100
AcDbCircle
 10
169.3629
 20
-76.501701
 30
0.0
 40
2.075051957188783
100
AcDbArc
 50
281.6532794500001
 51
12.00001239
  0
ARC
  5
4F4
330
1D
100
AcDbEntity
  8
BLACK
100
AcDbCircle
 10
167.2942
 20
-66.769201
 30
0.0
 40
2.075059012133631
100
AcDbArc
 50
11.78955239
 51
101.99999922
  0
ARC
  5
4F5
330
1D
100
AcDbEntity
  8
BLACK
100
AcDbCircle
 10
159.0435
 20
-78.695201
 30
0.0
 40
2.074970170881981
100
AcDbArc
 50
191.99920186
 51
282.00001252
  0
ARC
  5
4F6
330
1D
100
AcDbEntity
  8
BLACK
100
AcDbCircle
 10
156.9748
 20
-68.96260099999999
 30
0.0
 40
2.075025277880971
100
AcDbArc
 50
102.26977359
 51
191.9999996
  0
LINE
  5
4F7
330
1D
100
AcDbEntity
  8
BLACK
  6
Continuous
100
AcDbLine
 10
169.325485
 20
-66.34523
 30
0.0
 11
171.392607
 21
-76.070273
 31
0.0
  0
LINE
  5
4F8
330
1D
100
AcDbEntity
  8
BLACK
  6
Continuous
100
AcDbLine
 10
169.782037
 20
-78.533981
 30
0.0
 11
159.474911
 21
-80.724828
 31
0.0
  0
LINE
  5
4F9
330
1D
100
AcDbEntity
  8
BLACK
  6
Continuous
100
AcDbLine
 10
166.862771
 20
-64.739487
 30
0.0
 11
156.533826
 21
-66.934973
 31
0.0
  0
LINE
  5
4FA
330
1D
100
AcDbEntity
  8
BLACK
  6
Continuous
100
AcDbLine
 10
154.945119
 20
-69.39402299999999
 30
0.0
 11
157.01384
 21
-79.126589
 31
0.0
  0
ARC
  5
4FB
330
1D
100
AcDbEntity
  8
BLACK
100
AcDbCircle
 10
260.215
 20
-26.165001
 30
0.0
 40
2.074999
100
AcDbArc
 50
270.0
 51
0.0
  0
ARC
  5
4FC
330
1D
100
AcDbEntity
  8
BLACK
100
AcDbCircle
 10
260.215
 20
-16.215001
 30
0.0
 40
2.075002
100
AcDbArc
 50
0.0
 51
90.0
  0
ARC
  5
4FD
330
1D
100
AcDbEntity
  8
BLACK
100
AcDbCircle
 10
249.665
 20
-26.165001
 30
0.0
 40
2.074998
100
AcDbArc
 50
180.0
 51
270.0
  0
ARC
  5
4FE
330
1D
100
AcDbEntity
  8
BLACK
100
AcDbCircle
 10
249.665
 20
-16.215001
 30
0.0
 40
2.075001
100
AcDbArc
 50
90.0
 51
180.0
  0
LINE
  5
4FF
330
1D
100
AcDbEntity
  8
BLACK
  6
Continuous
100
AcDbLine
 10
262.289999
 20
-16.215001
 30
0.0
 11
262.289999
 21
-26.165001
 31
0.0
  0
LINE
  5
500
330
1D
100
AcDbEntity
  8
BLACK
  6
Continuous
100
AcDbLine
 10
260.215
 20
-28.239999
 30
0.0
 11
249.665
 21
-28.239999
 31
0.0
  0
LINE
  5
501
330
1D
100
AcDbEntity
  8
BLACK
  6
Continuous
100
AcDbLine
 10
260.215
 20
-14.139999
 30
0.0
 11
249.665
 21
-14.139999
 31
0.0
  0
LINE
  5
502
330
1D
100
AcDbEntity
  8
BLACK
  6
Continuous
100
AcDbLine
 10
247.589999
 20
-16.215001
 30
0.0
 11
247.589999
 21
-26.165001
 31
0.0
  0
ARC
  5
503
330
1D
100
AcDbEntity
  8
BLACK
100
AcDbCircle
 10
208.7304
 20
-9.710301
 30
0.0
 40
2.074985466831033
100
AcDbArc
 50
281.73024333
 51
12.00000743
  0
ARC
  5
504
330
1D
100
AcDbEntity
  8
BLACK
100
AcDbCircle
 10
206.6617
 20
0.022399
 30
0.0
 40
2.074913877823607
100
AcDbArc
 50
11.99760799
 51
102.00000416
  0
ARC
  5
505
330
1D
100
AcDbEntity
  8
BLACK
100
AcDbCircle
 10
198.4109
 20
-11.903801
 30
0.0
 40
2.074940349219707
100
AcDbArc
 50
191.99836729
 51
281.99998994
  0
ARC
  5
506
330
1D
100
AcDbEntity
  8
BLACK
100
AcDbCircle
 10
196.3423
 20
-2.171201
 30
0.0
 40
2.075092746386291
100
AcDbArc
 50
101.65324566
 51
191.99999883
  0
LINE
  5
507
330
1D
100
AcDbEntity
  8
BLACK
  6
Continuous
100
AcDbLine
 10
208.691312
 20
0.453718
 30
0.0
 11
210.760042
 21
-9.278887
 31
0.0
  0
LINE
  5
508
330
1D
100
AcDbEntity
  8
BLACK
  6
Continuous
100
AcDbLine
 10
209.152253
 20
-11.741951
 30
0.0
 11
198.842304
 21
-13.933399
 31
0.0
  0
LINE
  5
509
330
1D
100
AcDbEntity
  8
BLACK
  6
Continuous
100
AcDbLine
 10
206.230301
 20
2.051971
 30
0.0
 11
195.923156
 21
-0.138881
 31
0.0
  0
LINE
  5
50A
330
1D
100
AcDbEntity
  8
BLACK
  6
Continuous
100
AcDbLine
 10
194.312553
 20
-2.602637
 30
0.0
 11
196.381264
 21
-12.335153
 31
0.0
  0
ARC
  5
50B
330
1D
100
AcDbEntity
  8
BLACK
100
AcDbCircle
 10
190.0967
 20
-13.671001
 30
0.0
 40
2.074970170881981
100
AcDbArc
 50
281.9991488700001
 51
12.00001252
  0
ARC
  5
50C
330
1D
100
AcDbEntity
  8
BLACK
100
AcDbCircle
 10
188.0279
 20
-3.938501
 30
0.0
 40
2.075073329935113
100
AcDbArc
 50
11.79720092
 51
101.99999987
  0
ARC
  5
50D
330
1D
100
AcDbEntity
  8
BLACK
100
AcDbCircle
 10
179.7772
 20
-15.864501
 30
0.0
 40
2.074955853080494
100
AcDbArc
 50
191.99878458
 51
282.00001186
  0
ARC
  5
50E
330
1D
100
AcDbEntity
  8
BLACK
100
AcDbCircle
 10
177.7085
 20
-6.131901
 30
0.0
 40
2.075009981931894
100
AcDbArc
 50
102.00000469
 51
192.00000469
  0
LINE
  5
50F
330
1D
100
AcDbEntity
  8
BLACK
  6
Continuous
100
AcDbLine
 10
190.059142
 20
-3.514256
 30
0.0
 11
192.126327
 21
-13.23959
 31
0.0
  0
LINE
  5
510
330
1D
100
AcDbEntity
  8
BLACK
  6
Continuous
100
AcDbLine
 10
190.528082
 20
-15.700641
 30
0.0
 11
180.208608
 21
-17.894114
 31
0.0
  0
LINE
  5
511
330
1D
100
AcDbEntity
  8
BLACK
  6
Continuous
100
AcDbLine
 10
187.596468
 20
-1.908773
 30
0.0
 11
177.277079
 21
-4.102227
 31
0.0
  0
LINE
  5
512
330
1D
100
AcDbEntity
  8
BLACK
  6
Continuous
100
AcDbLine
 10
175.678834
 20
-6.56332
 30
0.0
 11
177.747552
 21
-16.295871
 31
0.0
  0
ARC
  5
513
330
1D
100
AcDbEntity
  8
BLACK
100
AcDbCircle
 10
241.585
 20
-25.105001
 30
0.0
 40
2.074999
100
AcDbArc
 50
270.0
 51
0.0
  0
ARC
  5
514
330
1D
100
AcDbEntity
  8
BLACK
100
AcDbCircle
 10
241.585
 20
-15.155001
 30
0.0
 40
2.075002
100
AcDbArc
 50
0.0
 51
90.0
  0
ARC
  5
515
330
1D
100
AcDbEntity
  8
BLACK
100
AcDbCircle
 10
231.035
 20
-25.105001
 30
0.0
 40
2.074998
100
AcDbArc
 50
180.0
 51
270.0
  0
ARC
  5
516
330
1D
100
AcDbEntity
  8
BLACK
100
AcDbCircle
 10
231.035
 20
-15.155001
 30
0.0
 40
2.075001
100
AcDbArc
 50
90.0
 51
180.0
  0
LINE
  5
517
330
1D
100
AcDbEntity
  8
BLACK
  6
Continuous
100
AcDbLine
 10
243.659999
 20
-15.155001
 30
0.0
 11
243.659999
 21
-25.105001
 31
0.0
  0
LINE
  5
518
330
1D
100
AcDbEntity
  8
BLACK
  6
Continuous
100
AcDbLine
 10
241.585
 20
-27.179999
 30
0.0
 11
231.035
 21
-27.179999
 31
0.0
  0
LINE
  5
519
330
1D
100
AcDbEntity
  8
BLACK
  6
Continuous
100
AcDbLine
 10
241.585
 20
-13.079999
 30
0.0
 11
231.035
 21
-13.079999
 31
0.0
  0
LINE
  5
51A
330
1D
100
AcDbEntity
  8
BLACK
  6
Continuous
100
AcDbLine
 10
228.959999
 20
-15.155001
 30
0.0
 11
228.959999
 21
-25.105001
 31
0.0
  0
ARC
  5
51B
330
1D
100
AcDbEntity
  8
BLACK
100
AcDbCircle
 10
203.3704
 20
-30.320301
 30
0.0
 40
2.074985466831033
100
AcDbArc
 50
281.73024333
 51
12.00000743
  0
ARC
  5
51C
330
1D
100
AcDbEntity
  8
BLACK
100
AcDbCircle
 10
201.3017
 20
-20.587601
 30
0.0
 40
2.074913877823607
100
AcDbArc
 50
11.99760799
 51
102.00000416
  0
ARC
  5
51D
330
1D
100
AcDbEntity
  8
BLACK
100
AcDbCircle
 10
193.0509
 20
-32.513801
 30
0.0
 40
2.074940349219707
100
AcDbArc
 50
191.99836729
 51
281.99998994
  0
ARC
  5
51E
330
1D
100
AcDbEntity
  8
BLACK
100
AcDbCircle
 10
190.9823
 20
-22.781201
 30
0.0
 40
2.075092746386291
100
AcDbArc
 50
101.65324566
 51
191.99999883
  0
LINE
  5
51F
330
1D
100
AcDbEntity
  8
BLACK
  6
Continuous
100
AcDbLine
 10
203.331312
 20
-20.156282
 30
0.0
 11
205.400042
 21
-29.888887
 31
0.0
  0
LINE
  5
520
330
1D
100
AcDbEntity
  8
BLACK
  6
Continuous
100
AcDbLine
 10
203.792253
 20
-32.351951
 30
0.0
 11
193.482304
 21
-34.543399
 31
0.0
  0
LINE
  5
521
330
1D
100
AcDbEntity
  8
BLACK
  6
Continuous
100
AcDbLine
 10
200.870301
 20
-18.558029
 30
0.0
 11
190.563156
 21
-20.748881
 31
0.0
  0
LINE
  5
522
330
1D
100
AcDbEntity
  8
BLACK
  6
Continuous
100
AcDbLine
 10
188.952553
 20
-23.212637
 30
0.0
 11
191.021264
 21
-32.945153
 31
0.0
  0
ARC
  5
523
330
1D
100
AcDbEntity
  8
BLACK
100
AcDbCircle
 10
187.9967
 20
-72.541001
 30
0.0
 40
2.074970170881981
100
AcDbArc
 50
281.9991488700001
 51
12.00001252
  0
ARC
  5
524
330
1D
100
AcDbEntity
  8
BLACK
100
AcDbCircle
 10
185.9279
 20
-62.808501
 30
0.0
 40
2.075073329935113
100
AcDbArc
 50
11.79720092
 51
101.99999987
  0
ARC
  5
525
330
1D
100
AcDbEntity
  8
BLACK
100
AcDbCircle
 10
177.6772
 20
-74.734501
 30
0.0
 40
2.074955853080494
100
AcDbArc
 50
191.99878458
 51
282.00001186
  0
ARC
  5
526
330
1D
100
AcDbEntity
  8
BLACK
100
AcDbCircle
 10
175.6085
 20
-65.001901
 30
0.0
 40
2.075009981931894
100
AcDbArc
 50
102.00000469
 51
192.00000469
  0
LINE
  5
527
330
1D
100
AcDbEntity
  8
BLACK
  6
Continuous
100
AcDbLine
 10
187.959142
 20
-62.384256
 30
0.0
 11
190.026327
 21
-72.10959
 31
0.0
  0
LINE
  5
528
330
1D
100
AcDbEntity
  8
BLACK
  6
Continuous
100
AcDbLine
 10
188.428082
 20
-74.570641
 30
0.0
 11
178.108608
 21
-76.76411399999999
 31
0.0
  0
LINE
  5
529
330
1D
100
AcDbEntity
  8
BLACK
  6
Continuous
100
AcDbLine
 10
185.496468
 20
-60.77877299999999
 30
0.0
 11
175.177079
 21
-62.972227
 31
0.0
  0
LINE
  5
52A
330
1D
100
AcDbEntity
  8
BLACK
  6
Continuous
100
AcDbLine
 10
173.578834
 20
-65.43332
 30
0.0
 11
175.647552
 21
-75.165871
 31
0.0
  0
ARC
  5
52B
330
1D
100
AcDbEntity
  8
BLACK
100
AcDbCircle
 10
184.7367
 20
-34.281001
 30
0.0
 40
2.074970170881981
100
AcDbArc
 50
281.9991488700001
 51
12.00001252
  0
ARC
  5
52C
330
1D
100
AcDbEntity
  8
BLACK
100
AcDbCircle
 10
182.6679
 20
-24.548501
 30
0.0
 40
2.075073329935113
100
AcDbArc
 50
11.79720092
 51
101.99999987
  0
ARC
  5
52D
330
1D
100
AcDbEntity
  8
BLACK
100
AcDbCircle
 10
174.4172
 20
-36.474501
 30
0.0
 40
2.074955853080494
100
AcDbArc
 50
191.99878458
 51
282.00001186
  0
ARC
  5
52E
330
1D
100
AcDbEntity
  8
BLACK
100
AcDbCircle
 10
172.3485
 20
-26.741901
 30
0.0
 40
2.075009981931894
100
AcDbArc
 50
102.00000469
 51
192.00000469
  0
LINE
  5
52F
330
1D
100
AcDbEntity
  8
BLACK
  6
Continuous
100
AcDbLine
 10
184.699142
 20
-24.124256
 30
0.0
 11
186.766327
 21
-33.84959
 31
0.0
  0
LINE
  5
530
330
1D
100
AcDbEntity
  8
BLACK
  6
Continuous
100
AcDbLine
 10
185.168082
 20
-36.310641
 30
0.0
 11
174.848608
 21
-38.504114
 31
0.0
  0
LINE
  5
531
330
1D
100
AcDbEntity
  8
BLACK
  6
Continuous
100
AcDbLine
 10
182.236468
 20
-22.518773
 30
0.0
 11
171.917079
 21
-24.712227
 31
0.0
  0
LINE
  5
532
330
1D
100
AcDbEntity
  8
BLACK
  6
Continuous
100
AcDbLine
 10
170.318834
 20
-27.17332
 30
0.0
 11
172.387552
 21
-36.905871
 31
0.0
  0
ARC
  5
533
330
1D
100
AcDbEntity
  8
BLACK
100
AcDbCircle
 10
246.945
 20
-4.975001
 30
0.0
 40
2.074999
100
AcDbArc
 50
270.0
 51
0.0
  0
ARC
  5
534
330
1D
100
AcDbEntity
  8
BLACK
100
AcDbCircle
 10
246.945
 20
4.974999
 30
0.0
 40
2.075001
100
AcDbArc
 50
0.0
 51
90.0
  0
ARC
  5
535
330
1D
100
AcDbEntity
  8
BLACK
100
AcDbCircle
 10
236.395
 20
-4.975001
 30
0.0
 40
2.074999
100
AcDbArc
 50
180.0
 51
270.0
  0
ARC
  5
536
330
1D
100
AcDbEntity
  8
BLACK
100
AcDbCircle
 10
236.395
 20
4.974999
 30
0.0
 40
2.075001
100
AcDbArc
 50
90.0
 51
180.0
  0
LINE
  5
537
330
1D
100
AcDbEntity
  8
BLACK
  6
Continuous
100
AcDbLine
 10
249.019999
 20
4.974999
 30
0.0
 11
249.019999
 21
-4.975001
 31
0.0
  0
LINE
  5
538
330
1D
100
AcDbEntity
  8
BLACK
  6
Continuous
100
AcDbLine
 10
246.945
 20
-7.05
 30
0.0
 11
236.395
 21
-7.05
 31
0.0
  0
LINE
  5
539
330
1D
100
AcDbEntity
  8
BLACK
  6
Continuous
100
AcDbLine
 10
246.945
 20
7.05
 30
0.0
 11
236.395
 21
7.05
 31
0.0
  0
LINE
  5
53A
330
1D
100
AcDbEntity
  8
BLACK
  6
Continuous
100
AcDbLine
 10
234.319999
 20
4.974999
 30
0.0
 11
234.319999
 21
-4.975001
 31
0.0
  0
ARC
  5
53B
330
1D
100
AcDbEntity
  8
BLACK
100
AcDbCircle
 10
250.205
 20
-45.215001
 30
0.0
 40
2.074999
100
AcDbArc
 50
270.0
 51
0.0
  0
ARC
  5
53C
330
1D
100
AcDbEntity
  8
BLACK
100
AcDbCircle
 10
250.205
 20
-35.265001
 30
0.0
 40
2.075001
100
AcDbArc
 50
0.0
 51
90.0
  0
ARC
  5
53D
330
1D
100
AcDbEntity
  8
BLACK
100
AcDbCircle
 10
239.655
 20
-45.215001
 30
0.0
 40
2.074999
100
AcDbArc
 50
180.0
 51
270.0
  0
ARC
  5
53E
330
1D
100
AcDbEntity
  8
BLACK
100
AcDbCircle
 10
239.655
 20
-35.265001
 30
0.0
 40
2.075001
100
AcDbArc
 50
90.0
 51
180.0
  0
LINE
  5
53F
330
1D
100
AcDbEntity
  8
BLACK
  6
Continuous
100
AcDbLine
 10
252.279999
 20
-35.265001
 30
0.0
 11
252.279999
 21
-45.215001
 31
0.0
  0
LINE
  5
540
330
1D
100
AcDbEntity
  8
BLACK
  6
Continuous
100
AcDbLine
 10
250.205
 20
-47.29
 30
0.0
 11
239.655
 21
-47.29
 31
0.0
  0
LINE
  5
541
330
1D
100
AcDbEntity
  8
BLACK
  6
Continuous
100
AcDbLine
 10
250.205
 20
-33.19
 30
0.0
 11
239.655
 21
-33.19
 31
0.0
  0
LINE
  5
542
330
1D
100
AcDbEntity
  8
BLACK
  6
Continuous
100
AcDbLine
 10
237.579999
 20
-35.265001
 30
0.0
 11
237.579999
 21
-45.215001
 31
0.0
  0
ARC
  5
543
330
1D
100
AcDbEntity
  8
BLACK
100
AcDbCircle
 10
174.7229
 20
-55.891701
 30
0.0
 40
2.075051957188783
100
AcDbArc
 50
281.6532524100002
 51
12.00001239
  0
ARC
  5
544
330
1D
100
AcDbEntity
  8
BLACK
100
AcDbCircle
 10
172.6542
 20
-46.159201
 30
0.0
 40
2.075059012133631
100
AcDbArc
 50
11.78955239
 51
101.99999922
  0
ARC
  5
545
330
1D
100
AcDbEntity
  8
BLACK
100
AcDbCircle
 10
164.4035
 20
-58.085201
 30
0.0
 40
2.074970170881981
100
AcDbArc
 50
191.99920186
 51
282.00001252
  0
ARC
  5
546
330
1D
100
AcDbEntity
  8
BLACK
100
AcDbCircle
 10
162.3348
 20
-48.352601
 30
0.0
 40
2.075025277880971
100
AcDbArc
 50
102.26977359
 51
191.9999996
  0
LINE
  5
547
330
1D
100
AcDbEntity
  8
BLACK
  6
Continuous
100
AcDbLine
 10
174.685485
 20
-45.73523
 30
0.0
 11
176.752607
 21
-55.460273
 31
0.0
  0
LINE
  5
548
330
1D
100
AcDbEntity
  8
BLACK
  6
Continuous
100
AcDbLine
 10
175.142036
 20
-57.923981
 30
0.0
 11
164.834911
 21
-60.114828
 31
0.0
  0
LINE
  5
549
330
1D
100
AcDbEntity
  8
BLACK
  6
Continuous
100
AcDbLine
 10
172.222771
 20
-44.129487
 30
0.0
 11
161.893826
 21
-46.324973
 31
0.0
  0
LINE
  5
54A
330
1D
100
AcDbEntity
  8
BLACK
  6
Continuous
100
AcDbLine
 10
160.305119
 20
-48.784023
 30
0.0
 11
162.37384
 21
-58.516589
 31
0.0
  0
ARC
  5
54B
330
1D
100
AcDbEntity
  8
BLACK
100
AcDbCircle
 10
244.845
 20
-64.265001
 30
0.0
 40
2.075
100
AcDbArc
 50
270.0
 51
0.0
  0
ARC
  5
54C
330
1D
100
AcDbEntity
  8
BLACK
100
AcDbCircle
 10
244.845
 20
-54.315001
 30
0.0
 40
2.075001
100
AcDbArc
 50
0.0
 51
90.0
  0
ARC
  5
54D
330
1D
100
AcDbEntity
  8
BLACK
100
AcDbCircle
 10
234.295
 20
-64.265001
 30
0.0
 40
2.074999
100
AcDbArc
 50
180.0
 51
270.0
  0
ARC
  5
54E
330
1D
100
AcDbEntity
  8
BLACK
100
AcDbCircle
 10
234.295
 20
-54.315001
 30
0.0
 40
2.075
100
AcDbArc
 50
90.0
 51
180.0
  0
LINE
  5
54F
330
1D
100
AcDbEntity
  8
BLACK
  6
Continuous
100
AcDbLine
 10
246.92
 20
-54.315001
 30
0.0
 11
246.92
 21
-64.265001
 31
0.0
  0
LINE
  5
550
330
1D
100
AcDbEntity
  8
BLACK
  6
Continuous
100
AcDbLine
 10
244.845
 20
-66.34
 30
0.0
 11
234.295
 21
-66.34
 31
0.0
  0
LINE
  5
551
330
1D
100
AcDbEntity
  8
BLACK
  6
Continuous
100
AcDbLine
 10
244.845
 20
-52.23999999999999
 30
0.0
 11
234.295
 21
-52.23999999999999
 31
0.0
  0
LINE
  5
552
330
1D
100
AcDbEntity
  8
BLACK
  6
Continuous
100
AcDbLine
 10
232.22
 20
-54.315001
 30
0.0
 11
232.22
 21
-64.265001
 31
0.0
  0
ARC
  5
553
330
1D
100
AcDbEntity
  8
BLACK
100
AcDbCircle
 10
166.1029
 20
-38.241701
 30
0.0
 40
2.075051957188783
100
AcDbArc
 50
281.6532524100002
 51
12.00001239
  0
ARC
  5
554
330
1D
100
AcDbEntity
  8
BLACK
100
AcDbCircle
 10
164.0342
 20
-28.509201
 30
0.0
 40
2.075059012133631
100
AcDbArc
 50
11.78955239
 51
101.99999922
  0
ARC
  5
555
330
1D
100
AcDbEntity
  8
BLACK
100
AcDbCircle
 10
155.7835
 20
-40.435201
 30
0.0
 40
2.074970170881981
100
AcDbArc
 50
191.99920186
 51
282.00001252
  0
ARC
  5
556
330
1D
100
AcDbEntity
  8
BLACK
100
AcDbCircle
 10
153.7148
 20
-30.702601
 30
0.0
 40
2.075025277880971
100
AcDbArc
 50
102.26977359
 51
191.9999996
  0
LINE
  5
557
330
1D
100
AcDbEntity
  8
BLACK
  6
Continuous
100
AcDbLine
 10
166.065485
 20
-28.08523
 30
0.0
 11
168.132607
 21
-37.810273
 31
0.0
  0
LINE
  5
558
330
1D
100
AcDbEntity
  8
BLACK
  6
Continuous
100
AcDbLine
 10
166.522036
 20
-40.273981
 30
0.0
 11
156.214911
 21
-42.464828
 31
0.0
  0
LINE
  5
559
330
1D
100
AcDbEntity
  8
BLACK
  6
Continuous
100
AcDbLine
 10
163.602771
 20
-26.479487
 30
0.0
 11
153.273826
 21
-28.674973
 31
0.0
  0
LINE
  5
55A
330
1D
100
AcDbEntity
  8
BLACK
  6
Continuous
100
AcDbLine
 10
151.685119
 20
-31.134023
 30
0.0
 11
153.75384
 21
-40.866589
 31
0.0
  0
ARC
  5
55B
330
1D
100
AcDbEntity
  8
BLACK
100
AcDbCircle
 10
279.265
 20
-26.165001
 30
0.0
 40
2.075
100
AcDbArc
 50
270.0
 51
0.0
  0
ARC
  5
55C
330
1D
100
AcDbEntity
  8
BLACK
100
AcDbCircle
 10
279.265
 20
-16.215001
 30
0.0
 40
2.075001
100
AcDbArc
 50
0.0
 51
90.0
  0
ARC
  5
55D
330
1D
100
AcDbEntity
  8
BLACK
100
AcDbCircle
 10
268.715
 20
-26.165001
 30
0.0
 40
2.074999
100
AcDbArc
 50
180.0
 51
270.0
  0
ARC
  5
55E
330
1D
100
AcDbEntity
  8
BLACK
100
AcDbCircle
 10
268.715
 20
-16.215001
 30
0.0
 40
2.075
100
AcDbArc
 50
90.0
 51
180.0
  0
LINE
  5
55F
330
1D
100
AcDbEntity
  8
BLACK
  6
Continuous
100
AcDbLine
 10
281.34
 20
-16.215001
 30
0.0
 11
281.34
 21
-26.165001
 31
0.0
  0
LINE
  5
560
330
1D
100
AcDbEntity
  8
BLACK
  6
Continuous
100
AcDbLine
 10
279.265
 20
-28.24
 30
0.0
 11
268.715
 21
-28.24
 31
0.0
  0
LINE
  5
561
330
1D
100
AcDbEntity
  8
BLACK
  6
Continuous
100
AcDbLine
 10
279.265
 20
-14.14
 30
0.0
 11
268.715
 21
-14.14
 31
0.0
  0
LINE
  5
562
330
1D
100
AcDbEntity
  8
BLACK
  6
Continuous
100
AcDbLine
 10
266.64
 20
-16.215001
 30
0.0
 11
266.64
 21
-26.165001
 31
0.0
  0
ARC
  5
563
330
1D
100
AcDbEntity
  8
BLACK
100
AcDbCircle
 10
303.085
 20
-26.165001
 30
0.0
 40
2.074999
100
AcDbArc
 50
270.0
 51
0.0
  0
ARC
  5
564
330
1D
100
AcDbEntity
  8
BLACK
100
AcDbCircle
 10
303.085
 20
-16.215001
 30
0.0
 40
2.075001
100
AcDbArc
 50
0.0
 51
90.0
  0
ARC
  5
565
330
1D
100
AcDbEntity
  8
BLACK
100
AcDbCircle
 10
292.535
 20
-26.165001
 30
0.0
 40
2.074999
100
AcDbArc
 50
180.0
 51
270.0
  0
ARC
  5
566
330
1D
100
AcDbEntity
  8
BLACK
100
AcDbCircle
 10
292.535
 20
-16.215001
 30
0.0
 40
2.075001
100
AcDbArc
 50
90.0
 51
180.0
  0
LINE
  5
567
330
1D
100
AcDbEntity
  8
BLACK
  6
Continuous
100
AcDbLine
 10
305.159999
 20
-16.215001
 30
0.0
 11
305.159999
 21
-26.165001
 31
0.0
  0
LINE
  5
568
330
1D
100
AcDbEntity
  8
BLACK
  6
Continuous
100
AcDbLine
 10
303.085
 20
-28.24
 30
0.0
 11
292.535
 21
-28.24
 31
0.0
  0
LINE
  5
569
330
1D
100
AcDbEntity
  8
BLACK
  6
Continuous
100
AcDbLine
 10
303.085
 20
-14.14
 30
0.0
 11
292.535
 21
-14.14
 31
0.0
  0
LINE
  5
56A
330
1D
100
AcDbEntity
  8
BLACK
  6
Continuous
100
AcDbLine
 10
290.459999
 20
-16.215001
 30
0.0
 11
290.459999
 21
-26.165001
 31
0.0
  0
ARC
  5
56B
330
1D
100
AcDbEntity
  8
BLACK
100
AcDbCircle
 10
171.4629
 20
-17.631701
 30
0.0
 40
2.075051957188783
100
AcDbArc
 50
281.6532524100002
 51
12.00001239
  0
ARC
  5
56C
330
1D
100
AcDbEntity
  8
BLACK
100
AcDbCircle
 10
169.3942
 20
-7.899201
 30
0.0
 40
2.075059012133631
100
AcDbArc
 50
11.78955239
 51
101.99999922
  0
ARC
  5
56D
330
1D
100
AcDbEntity
  8
BLACK
100
AcDbCircle
 10
161.1435
 20
-19.825201
 30
0.0
 40
2.074970170881981
100
AcDbArc
 50
191.99920186
 51
282.00001252
  0
ARC
  5
56E
330
1D
100
AcDbEntity
  8
BLACK
100
AcDbCircle
 10
159.0748
 20
-10.092601
 30
0.0
 40
2.075025277880971
100
AcDbArc
 50
102.26977359
 51
191.9999996
  0
LINE
  5
56F
330
1D
100
AcDbEntity
  8
BLACK
  6
Continuous
100
AcDbLine
 10
171.425485
 20
-7.47523
 30
0.0
 11
173.492607
 21
-17.200273
 31
0.0
  0
LINE
  5
570
330
1D
100
AcDbEntity
  8
BLACK
  6
Continuous
100
AcDbLine
 10
171.882036
 20
-19.663981
 30
0.0
 11
161.574911
 21
-21.854828
 31
0.0
  0
LINE
  5
571
330
1D
100
AcDbEntity
  8
BLACK
  6
Continuous
100
AcDbLine
 10
168.962771
 20
-5.869486999999999
 30
0.0
 11
158.633826
 21
-8.064973
 31
0.0
  0
LINE
  5
572
330
1D
100
AcDbEntity
  8
BLACK
  6
Continuous
100
AcDbLine
 10
157.045119
 20
-10.524023
 30
0.0
 11
159.11384
 21
-20.256589
 31
0.0
  0
ARC
  5
573
330
1D
100
AcDbEntity
  8
BLACK
100
AcDbCircle
 10
225.264
 20
-64.619501
 30
0.0
 40
2.075076472289636
100
AcDbArc
 50
281.8134566499999
 51
12.00000966
  0
ARC
  5
574
330
1D
100
AcDbEntity
  8
BLACK
100
AcDbCircle
 10
223.1954
 20
-54.88690099999999
 30
0.0
 40
2.074929173772686
100
AcDbArc
 50
11.99803103
 51
101.99999907
  0
ARC
  5
575
330
1D
100
AcDbEntity
  8
BLACK
100
AcDbCircle
 10
214.9446
 20
-66.813101
 30
0.0
 40
2.074925053270599
100
AcDbArc
 50
191.99794426
 51
281.99999503
  0
ARC
  5
576
330
1D
100
AcDbEntity
  8
BLACK
100
AcDbCircle
 10
212.876
 20
-57.080501
 30
0.0
 40
2.075078428584809
100
AcDbArc
 50
102.15909064
 51
191.99999817
  0
LINE
  5
577
330
1D
100
AcDbEntity
  8
BLACK
  6
Continuous
100
AcDbLine
 10
225.225023
 20
-54.455564
 30
0.0
 11
227.293731
 21
-64.188068
 31
0.0
  0
LINE
  5
578
330
1D
100
AcDbEntity
  8
BLACK
  6
Continuous
100
AcDbLine
 10
225.688822
 20
-66.650626
 30
0.0
 11
215.376001
 21
-68.84268399999999
 31
0.0
  0
LINE
  5
579
330
1D
100
AcDbEntity
  8
BLACK
  6
Continuous
100
AcDbLine
 10
222.763998
 20
-52.857314
 30
0.0
 11
212.438933
 21
-55.051975
 31
0.0
  0
LINE
  5
57A
330
1D
100
AcDbEntity
  8
BLACK
  6
Continuous
100
AcDbLine
 10
210.846267
 20
-57.511934
 30
0.0
 11
212.914975
 21
-67.244435
 31
0.0
  0
ARC
  5
57B
330
1D
100
AcDbEntity
  8
BLACK
100
AcDbCircle
 10
206.6304
 20
-68.58030099999999
 30
0.0
 40
2.074985466831033
100
AcDbArc
 50
281.73024333
 51
12.00000743
  0
ARC
  5
57C
330
1D
100
AcDbEntity
  8
BLACK
100
AcDbCircle
 10
204.5617
 20
-58.847601
 30
0.0
 40
2.074913877823607
100
AcDbArc
 50
11.99760799
 51
102.00000416
  0
ARC
  5
57D
330
1D
100
AcDbEntity
  8
BLACK
100
AcDbCircle
 10
196.3109
 20
-70.77380099999999
 30
0.0
 40
2.074940349219707
100
AcDbArc
 50
191.99836729
 51
281.99998994
  0
ARC
  5
57E
330
1D
100
AcDbEntity
  8
BLACK
100
AcDbCircle
 10
194.2423
 20
-61.04120099999999
 30
0.0
 40
2.075092746386291
100
AcDbArc
 50
101.65324566
 51
191.99999883
  0
LINE
  5
57F
330
1D
100
AcDbEntity
  8
BLACK
  6
Continuous
100
AcDbLine
 10
206.591312
 20
-58.416282
 30
0.0
 11
208.660042
 21
-68.148887
 31
0.0
  0
LINE
  5
580
330
1D
100
AcDbEntity
  8
BLACK
  6
Continuous
100
AcDbLine
 10
207.052253
 20
-70.61195099999999
 30
0.0
 11
196.742304
 21
-72.803399
 31
0.0
  0
LINE
  5
581
330
1D
100
AcDbEntity
  8
BLACK
  6
Continuous
100
AcDbLine
 10
204.130301
 20
-56.818029
 30
0.0
 11
193.823156
 21
-59.008881
 31
0.0
  0
LINE
  5
582
330
1D
100
AcDbEntity
  8
BLACK
  6
Continuous
100
AcDbLine
 10
192.212553
 20
-61.472637
 30
0.0
 11
194.281264
 21
-71.205153
 31
0.0
  0
ARC
  5
583
330
1D
100
AcDbEntity
  8
BLACK
100
AcDbCircle
 10
230.624
 20
-44.009501
 30
0.0
 40
2.075077450437212
100
AcDbArc
 50
281.81347803
 51
12.00000392
  0
ARC
  5
584
330
1D
100
AcDbEntity
  8
BLACK
100
AcDbCircle
 10
228.5554
 20
-34.276901
 30
0.0
 40
2.074928195625092
100
AcDbArc
 50
11.99799828
 51
102.00000481
  0
ARC
  5
585
330
1D
100
AcDbEntity
  8
BLACK
100
AcDbCircle
 10
220.3046
 20
-46.203101
 30
0.0
 40
2.074926031418229
100
AcDbArc
 50
191.99797701
 51
281.99998929
  0
ARC
  5
586
330
1D
100
AcDbEntity
  8
BLACK
100
AcDbCircle
 10
218.236
 20
-36.470501
 30
0.0
 40
2.075077450437212
100
AcDbArc
 50
102.16872527
 51
192.00000392
  0
LINE
  5
587
330
1D
100
AcDbEntity
  8
BLACK
  6
Continuous
100
AcDbLine
 10
230.585024
 20
-33.845565
 30
0.0
 11
232.653732
 21
-43.57806799999999
 31
0.0
  0
LINE
  5
588
330
1D
100
AcDbEntity
  8
BLACK
  6
Continuous
100
AcDbLine
 10
231.048823
 20
-46.040627
 30
0.0
 11
220.736001
 21
-48.232685
 31
0.0
  0
LINE
  5
589
330
1D
100
AcDbEntity
  8
BLACK
  6
Continuous
100
AcDbLine
 10
228.123998
 20
-32.247315
 30
0.0
 11
217.798592
 21
-34.442049
 31
0.0
  0
LINE
  5
58A
330
1D
100
AcDbEntity
  8
BLACK
  6
Continuous
100
AcDbLine
 10
216.206268
 20
-36.901934
 30
0.0
 11
218.274976
 21
-46.634436
 31
0.0
  0
ARC
  5
58B
330
1D
100
AcDbEntity
  8
BLACK
100
AcDbCircle
 10
227.364
 20
-5.749501
 30
0.0
 40
2.075076472289636
100
AcDbArc
 50
281.82214827
 51
12.00000966
  0
ARC
  5
58C
330
1D
100
AcDbEntity
  8
BLACK
100
AcDbCircle
 10
225.2954
 20
3.983099
 30
0.0
 40
2.074928195625092
100
AcDbArc
 50
11.99800402
 51
102.00000481
  0
ARC
  5
58D
330
1D
100
AcDbEntity
  8
BLACK
100
AcDbCircle
 10
217.0446
 20
-7.943101
 30
0.0
 40
2.074926239329967
100
AcDbArc
 50
191.99797127
 51
282.0000163
  0
ARC
  5
58E
330
1D
100
AcDbEntity
  8
BLACK
100
AcDbCircle
 10
214.976
 20
1.789499
 30
0.0
 40
2.075078428584809
100
AcDbArc
 50
102.17786612
 51
191.99999817
  0
LINE
  5
58F
330
1D
100
AcDbEntity
  8
BLACK
  6
Continuous
100
AcDbLine
 10
227.325023
 20
4.414435
 30
0.0
 11
229.393731
 21
-5.318067999999999
 31
0.0
  0
LINE
  5
590
330
1D
100
AcDbEntity
  8
BLACK
  6
Continuous
100
AcDbLine
 10
227.78913
 20
-7.780561
 30
0.0
 11
217.476002
 21
-9.972685
 31
0.0
  0
LINE
  5
591
330
1D
100
AcDbEntity
  8
BLACK
  6
Continuous
100
AcDbLine
 10
224.863998
 20
6.012684999999999
 30
0.0
 11
214.538268
 21
3.817883
 31
0.0
  0
LINE
  5
592
330
1D
100
AcDbEntity
  8
BLACK
  6
Continuous
100
AcDbLine
 10
212.946267
 20
1.358066
 30
0.0
 11
215.014975
 21
-8.374436
 31
0.0
  0
ARC
  5
593
330
1D
100
AcDbEntity
  8
BLACK
100
AcDbCircle
 10
269.255
 20
-45.215001
 30
0.0
 40
2.075
100
AcDbArc
 50
270.0
 51
0.0
  0
ARC
  5
594
330
1D
100
AcDbEntity
  8
BLACK
100
AcDbCircle
 10
269.255
 20
-35.265001
 30
0.0
 40
2.075001
100
AcDbArc
 50
0.0
 51
90.0
  0
ARC
  5
595
330
1D
100
AcDbEntity
  8
BLACK
100
AcDbCircle
 10
258.705
 20
-45.215001
 30
0.0
 40
2.074999
100
AcDbArc
 50
180.0
 51
270.0
  0
ARC
  5
596
330
1D
100
AcDbEntity
  8
BLACK
100
AcDbCircle
 10
258.705
 20
-35.265001
 30
0.0
 40
2.075
100
AcDbArc
 50
90.0
 51
180.0
  0
LINE
  5
597
330
1D
100
AcDbEntity
  8
BLACK
  6
Continuous
100
AcDbLine
 10
271.33
 20
-35.265001
 30
0.0
 11
271.33
 21
-45.215001
 31
0.0
  0
LINE
  5
598
330
1D
100
AcDbEntity
  8
BLACK
  6
Continuous
100
AcDbLine
 10
269.255
 20
-47.29
 30
0.0
 11
258.705
 21
-47.29
 31
0.0
  0
LINE
  5
599
330
1D
100
AcDbEntity
  8
BLACK
  6
Continuous
100
AcDbLine
 10
269.255
 20
-33.19
 30
0.0
 11
258.705
 21
-33.19
 31
0.0
  0
LINE
  5
59A
330
1D
100
AcDbEntity
  8
BLACK
  6
Continuous
100
AcDbLine
 10
256.63
 20
-35.265001
 30
0.0
 11
256.63
 21
-45.215001
 31
0.0
  0
ARC
  5
59B
330
1D
100
AcDbEntity
  8
BLACK
100
AcDbCircle
 10
222.004
 20
-26.359501
 30
0.0
 40
2.075077450437212
100
AcDbArc
 50
281.80513334
 51
12.00000392
  0
ARC
  5
59C
330
1D
100
AcDbEntity
  8
BLACK
100
AcDbCircle
 10
219.9354
 20
-16.626901
 30
0.0
 40
2.074929173772686
100
AcDbArc
 50
11.99802529
 51
101.99999907
  0
ARC
  5
59D
330
1D
100
AcDbEntity
  8
BLACK
100
AcDbCircle
 10
211.6846
 20
-28.553101
 30
0.0
 40
2.074925053270599
100
AcDbArc
 50
191.99795
 51
281.99999503
  0
ARC
  5
59E
330
1D
100
AcDbEntity
  8
BLACK
100
AcDbCircle
 10
209.616
 20
-18.820501
 30
0.0
 40
2.075077450437212
100
AcDbArc
 50
102.14878494
 51
192.00000392
  0
LINE
  5
59F
330
1D
100
AcDbEntity
  8
BLACK
  6
Continuous
100
AcDbLine
 10
221.965024
 20
-16.195564
 30
0.0
 11
224.033732
 21
-25.928068
 31
0.0
  0
LINE
  5
5A0
330
1D
100
AcDbEntity
  8
BLACK
  6
Continuous
100
AcDbLine
 10
222.428527
 20
-28.390688
 30
0.0
 11
212.116001
 21
-30.582684
 31
0.0
  0
LINE
  5
5A1
330
1D
100
AcDbEntity
  8
BLACK
  6
Continuous
100
AcDbLine
 10
219.503998
 20
-14.597314
 30
0.0
 11
209.179298
 21
-16.791897
 31
0.0
  0
LINE
  5
5A2
330
1D
100
AcDbEntity
  8
BLACK
  6
Continuous
100
AcDbLine
 10
207.586268
 20
-19.251934
 30
0.0
 11
209.654976
 21
-28.984435
 31
0.0
  0
ARC
  5
5A3
330
1D
100
AcDbEntity
  8
BLACK
100
AcDbCircle
 10
211.9904
 20
-47.970301
 30
0.0
 40
2.074985466831033
100
AcDbArc
 50
281.73024333
 51
12.00000743
  0
ARC
  5
5A4
330
1D
100
AcDbEntity
  8
BLACK
100
AcDbCircle
 10
209.9217
 20
-38.237601
 30
0.0
 40
2.074913877823607
100
AcDbArc
 50
11.99760799
 51
102.00000416
  0
ARC
  5
5A5
330
1D
100
AcDbEntity
  8
BLACK
100
AcDbCircle
 10
201.6709
 20
-50.163801
 30
0.0
 40
2.074940349219707
100
AcDbArc
 50
191.99836729
 51
281.99998994
  0
ARC
  5
5A6
330
1D
100
AcDbEntity
  8
BLACK
100
AcDbCircle
 10
199.6023
 20
-40.431201
 30
0.0
 40
2.075092746386291
100
AcDbArc
 50
101.65324566
 51
191.99999883
  0
LINE
  5
5A7
330
1D
100
AcDbEntity
  8
BLACK
  6
Continuous
100
AcDbLine
 10
211.951312
 20
-37.806282
 30
0.0
 11
214.020042
 21
-47.538887
 31
0.0
  0
LINE
  5
5A8
330
1D
100
AcDbEntity
  8
BLACK
  6
Continuous
100
AcDbLine
 10
212.412253
 20
-50.001951
 30
0.0
 11
202.102304
 21
-52.193399
 31
0.0
  0
LINE
  5
5A9
330
1D
100
AcDbEntity
  8
BLACK
  6
Continuous
100
AcDbLine
 10
209.490301
 20
-36.208029
 30
0.0
 11
199.183156
 21
-38.398881
 31
0.0
  0
LINE
  5
5AA
330
1D
100
AcDbEntity
  8
BLACK
  6
Continuous
100
AcDbLine
 10
197.572553
 20
-40.862637
 30
0.0
 11
199.641264
 21
-50.595153
 31
0.0
  0
ARC
  5
5AB
330
1D
100
AcDbEntity
  8
BLACK
100
AcDbCircle
 10
193.3567
 20
-51.93100099999999
 30
0.0
 40
2.074970170881981
100
AcDbArc
 50
281.9991488700001
 51
12.00001252
  0
ARC
  5
5AC
330
1D
100
AcDbEntity
  8
BLACK
100
AcDbCircle
 10
191.2879
 20
-42.198501
 30
0.0
 40
2.075073329935113
100
AcDbArc
 50
11.79720092
 51
101.99999987
  0
ARC
  5
5AD
330
1D
100
AcDbEntity
  8
BLACK
100
AcDbCircle
 10
183.0372
 20
-54.124501
 30
0.0
 40
2.074955853080494
100
AcDbArc
 50
191.99878458
 51
282.00001186
  0
ARC
  5
5AE
330
1D
100
AcDbEntity
  8
BLACK
100
AcDbCircle
 10
180.9685
 20
-44.391901
 30
0.0
 40
2.075009981931894
100
AcDbArc
 50
102.00000469
 51
192.00000469
  0
LINE
  5
5AF
330
1D
100
AcDbEntity
  8
BLACK
  6
Continuous
100
AcDbLine
 10
193.319142
 20
-41.774256
 30
0.0
 11
195.386327
 21
-51.49959
 31
0.0
  0
LINE
  5
5B0
330
1D
100
AcDbEntity
  8
BLACK
  6
Continuous
100
AcDbLine
 10
193.788082
 20
-53.960641
 30
0.0
 11
183.468608
 21
-56.154114
 31
0.0
  0
LINE
  5
5B1
330
1D
100
AcDbEntity
  8
BLACK
  6
Continuous
100
AcDbLine
 10
190.856468
 20
-40.168773
 30
0.0
 11
180.537079
 21
-42.362227
 31
0.0
  0
LINE
  5
5B2
330
1D
100
AcDbEntity
  8
BLACK
  6
Continuous
100
AcDbLine
 10
178.938834
 20
-44.82332
 30
0.0
 11
181.007552
 21
-54.555871
 31
0.0
  0
ARC
  5
5B3
330
1D
100
AcDbEntity
  8
BLACK
100
AcDbCircle
 10
230.074
 20
-84.609501
 30
0.0
 40
2.075076472289636
100
AcDbArc
 50
281.82214827
 51
12.00000966
  0
ARC
  5
5B4
330
1D
100
AcDbEntity
  8
BLACK
100
AcDbCircle
 10
228.0054
 20
-74.876901
 30
0.0
 40
2.074928195625092
100
AcDbArc
 50
11.99800402
 51
102.00000481
  0
ARC
  5
5B5
330
1D
100
AcDbEntity
  8
BLACK
100
AcDbCircle
 10
219.7546
 20
-86.803101
 30
0.0
 40
2.074926239329967
100
AcDbArc
 50
191.99797127
 51
282.0000163
  0
ARC
  5
5B6
330
1D
100
AcDbEntity
  8
BLACK
100
AcDbCircle
 10
217.686
 20
-77.070501
 30
0.0
 40
2.075078428584809
100
AcDbArc
 50
102.17786612
 51
191.99999817
  0
LINE
  5
5B7
330
1D
100
AcDbEntity
  8
BLACK
  6
Continuous
100
AcDbLine
 10
230.035023
 20
-74.445565
 30
0.0
 11
232.103731
 21
-84.178068
 31
0.0
  0
LINE
  5
5B8
330
1D
100
AcDbEntity
  8
BLACK
  6
Continuous
100
AcDbLine
 10
230.49913
 20
-86.64056099999999
 30
0.0
 11
220.186002
 21
-88.832685
 31
0.0
  0
LINE
  5
5B9
330
1D
100
AcDbEntity
  8
BLACK
  6
Continuous
100
AcDbLine
 10
227.573998
 20
-72.847315
 30
0.0
 11
217.248268
 21
-75.04211699999999
 31
0.0
  0
LINE
  5
5BA
330
1D
100
AcDbEntity
  8
BLACK
  6
Continuous
100
AcDbLine
 10
215.656267
 20
-77.50193399999999
 30
0.0
 11
217.724975
 21
-87.234436
 31
0.0
  0
ARC
  5
5BB
330
1D
100
AcDbEntity
  8
BLACK
100
AcDbCircle
 10
265.575
 20
-7.115000999999999
 30
0.0
 40
2.074999
100
AcDbArc
 50
270.0
 51
0.0
  0
ARC
  5
5BC
330
1D
100
AcDbEntity
  8
BLACK
100
AcDbCircle
 10
265.575
 20
2.834999
 30
0.0
 40
2.075001
100
AcDbArc
 50
0.0
 51
90.0
  0
ARC
  5
5BD
330
1D
100
AcDbEntity
  8
BLACK
100
AcDbCircle
 10
255.025
 20
-7.115000999999999
 30
0.0
 40
2.074999
100
AcDbArc
 50
180.0
 51
270.0
  0
ARC
  5
5BE
330
1D
100
AcDbEntity
  8
BLACK
100
AcDbCircle
 10
255.025
 20
2.834999
 30
0.0
 40
2.075001
100
AcDbArc
 50
90.0
 51
180.0
  0
LINE
  5
5BF
330
1D
100
AcDbEntity
  8
BLACK
  6
Continuous
100
AcDbLine
 10
267.649999
 20
2.834999
 30
0.0
 11
267.649999
 21
-7.115000999999999
 31
0.0
  0
LINE
  5
5C0
330
1D
100
AcDbEntity
  8
BLACK
  6
Continuous
100
AcDbLine
 10
265.575
 20
-9.19
 30
0.0
 11
255.025
 21
-9.19
 31
0.0
  0
LINE
  5
5C1
330
1D
100
AcDbEntity
  8
BLACK
  6
Continuous
100
AcDbLine
 10
265.575
 20
4.91
 30
0.0
 11
255.025
 21
4.91
 31
0.0
  0
LINE
  5
5C2
330
1D
100
AcDbEntity
  8
BLACK
  6
Continuous
100
AcDbLine
 10
252.949999
 20
2.834999
 30
0.0
 11
252.949999
 21
-7.115000999999999
 31
0.0
  0
ARC
  5
5C3
330
1D
100
AcDbEntity
  8
BLACK
100
AcDbCircle
 10
134.0065
 20
-78.695201
 30
0.0
 40
2.074996642278006
100
AcDbArc
 50
257.7302392400001
 51
348.0000017
  0
ARC
  5
5C4
330
1D
100
AcDbEntity
  8
BLACK
100
AcDbCircle
 10
136.0752
 20
-68.96260099999999
 30
0.0
 40
2.075001740927704
100
AcDbArc
 50
347.99999766
 51
78.0000034
  0
ARC
  5
5C5
330
1D
100
AcDbEntity
  8
BLACK
100
AcDbCircle
 10
123.687
 20
-76.501801
 30
0.0
 40
2.074895439520025
100
AcDbArc
 50
167.99713493
 51
258.00000054
  0
ARC
  5
5C6
330
1D
100
AcDbEntity
  8
BLACK
100
AcDbCircle
 10
125.7557
 20
-66.76910099999999
 30
0.0
 40
2.074927217477519
100
AcDbArc
 50
77.72503288
 51
167.99998944
  0
LINE
  5
5C7
330
1D
100
AcDbEntity
  8
BLACK
  6
Continuous
100
AcDbLine
 10
138.104881
 20
-69.39402299999999
 30
0.0
 11
136.036153
 21
-79.126617
 31
0.0
  0
LINE
  5
5C8
330
1D
100
AcDbEntity
  8
BLACK
  6
Continuous
100
AcDbLine
 10
133.565533
 20
-80.722799
 30
0.0
 11
123.255605
 21
-78.53135499999999
 31
0.0
  0
LINE
  5
5C9
330
1D
100
AcDbEntity
  8
BLACK
  6
Continuous
100
AcDbLine
 10
136.506617
 20
-66.932943
 30
0.0
 11
126.196853
 21
-64.741535
 31
0.0
  0
LINE
  5
5CA
330
1D
100
AcDbEntity
  8
BLACK
  6
Continuous
100
AcDbLine
 10
123.726115
 20
-66.337699
 30
0.0
 11
121.657389
 21
-76.07028799999999
 31
0.0
  0
ARC
  5
5CB
330
1D
100
AcDbEntity
  8
BLACK
100
AcDbCircle
 10
5.274999999999999
 20
-4.975001
 30
0.0
 40
2.075
100
AcDbArc
 50
270.0
 51
0.0
  0
ARC
  5
5CC
330
1D
100
AcDbEntity
  8
BLACK
100
AcDbCircle
 10
5.274999999999999
 20
4.974999
 30
0.0
 40
2.075001
100
AcDbArc
 50
0.0
 51
90.0
  0
ARC
  5
5CD
330
1D
100
AcDbEntity
  8
BLACK
100
AcDbCircle
 10
-5.274998
 20
-4.974997999999999
 30
0.0
 40
2.075002
100
AcDbArc
 50
180.0
 51
270.0
  0
ARC
  5
5CE
330
1D
100
AcDbEntity
  8
BLACK
100
AcDbCircle
 10
-5.274996
 20
4.974996
 30
0.0
 40
2.075004000000241
100
AcDbArc
 50
90.0
 51
180.00002761
  0
LINE
  5
5CF
330
1D
100
AcDbEntity
  8
BLACK
  6
Continuous
100
AcDbLine
 10
7.35
 20
4.974999
 30
0.0
 11
7.35
 21
-4.975001
 31
0.0
  0
LINE
  5
5D0
330
1D
100
AcDbEntity
  8
BLACK
  6
Continuous
100
AcDbLine
 10
5.274999999999999
 20
-7.05
 30
0.0
 11
-5.274998
 21
-7.05
 31
0.0
  0
LINE
  5
5D1
330
1D
100
AcDbEntity
  8
BLACK
  6
Continuous
100
AcDbLine
 10
5.274999999999999
 20
7.05
 30
0.0
 11
-5.274996
 21
7.05
 31
0.0
  0
LINE
  5
5D2
330
1D
100
AcDbEntity
  8
BLACK
  6
Continuous
100
AcDbLine
 10
-7.35
 20
4.974995
 30
0.0
 11
-7.35
 21
-4.974997999999999
 31
0.0
  0
ARC
  5
5D3
330
1D
100
AcDbEntity
  8
BLACK
100
AcDbCircle
 10
96.73899999999999
 20
-70.773701
 30
0.0
 40
2.075084319010194
100
AcDbArc
 50
257.99941494
 51
348.0026898300001
  0
ARC
  5
5D4
330
1D
100
AcDbEntity
  8
BLACK
100
AcDbCircle
 10
98.8078
 20
-61.041101
 30
0.0
 40
2.074934272422382
100
AcDbArc
 50
347.99818232
 51
78.00000262
  0
ARC
  5
5D5
330
1D
100
AcDbEntity
  8
BLACK
100
AcDbCircle
 10
86.4196
 20
-68.58030099999999
 30
0.0
 40
2.074962908025346
100
AcDbArc
 50
167.99900132
 51
258.00000132
  0
ARC
  5
5D6
330
1D
100
AcDbEntity
  8
BLACK
100
AcDbCircle
 10
88.4884
 20
-58.847701
 30
0.0
 40
2.075055869779173
100
AcDbArc
 50
77.99941624
 51
168.00001057
  0
LINE
  5
5D7
330
1D
100
AcDbEntity
  8
BLACK
  6
Continuous
100
AcDbLine
 10
100.837457
 20
-61.472585
 30
0.0
 11
98.76875899999999
 21
-71.20504
 31
0.0
  0
LINE
  5
5D8
330
1D
100
AcDbEntity
  8
BLACK
  6
Continuous
100
AcDbLine
 10
96.307559
 20
-72.803371
 30
0.0
 11
85.988191
 21
-70.609921
 31
0.0
  0
LINE
  5
5D9
330
1D
100
AcDbEntity
  8
BLACK
  6
Continuous
100
AcDbLine
 10
99.23920299999999
 20
-59.011509
 30
0.0
 11
88.91983499999999
 21
-56.818059
 31
0.0
  0
LINE
  5
5DA
330
1D
100
AcDbEntity
  8
BLACK
  6
Continuous
100
AcDbLine
 10
86.45868899999999
 20
-58.416273
 30
0.0
 11
84.38996499999999
 21
-68.14885199999999
 31
0.0
  0
ARC
  5
5DB
330
1D
100
AcDbEntity
  8
BLACK
100
AcDbCircle
 10
85.33529999999999
 20
-9.923001
 30
0.0
 40
2.075069023052486
100
AcDbArc
 50
257.9994311200001
 51
348.00268476
  0
ARC
  5
5DC
330
1D
100
AcDbEntity
  8
BLACK
100
AcDbCircle
 10
87.4041
 20
-0.190401
 30
0.0
 40
2.074948590223864
100
AcDbArc
 50
347.9985725700001
 51
78.00000197
  0
ARC
  5
5DD
330
1D
100
AcDbEntity
  8
BLACK
100
AcDbCircle
 10
75.0159
 20
-7.729601
 30
0.0
 40
2.074948590223864
100
AcDbArc
 50
167.99861107
 51
258.00000197
  0
ARC
  5
5DE
330
1D
100
AcDbEntity
  8
BLACK
100
AcDbCircle
 10
77.0847
 20
2.002999
 30
0.0
 40
2.075071373639953
100
AcDbArc
 50
77.99941558999998
 51
167.99998865
  0
LINE
  5
5DF
330
1D
100
AcDbEntity
  8
BLACK
  6
Continuous
100
AcDbLine
 10
89.433745
 20
-0.621868
 30
0.0
 11
87.365044
 21
-10.354337
 31
0.0
  0
LINE
  5
5E0
330
1D
100
AcDbEntity
  8
BLACK
  6
Continuous
100
AcDbLine
 10
84.90386199999999
 20
-11.952657
 30
0.0
 11
74.58449399999999
 21
-9.759207
 31
0.0
  0
LINE
  5
5E1
330
1D
100
AcDbEntity
  8
BLACK
  6
Continuous
100
AcDbLine
 10
87.835506
 20
1.839205
 30
0.0
 11
77.516138
 21
4.032655
 31
0.0
  0
LINE
  5
5E2
330
1D
100
AcDbEntity
  8
BLACK
  6
Continuous
100
AcDbLine
 10
75.054974
 20
2.434431
 30
0.0
 11
72.98625299999999
 21
-7.298134999999999
 31
0.0
  0
ARC
  5
5E3
330
1D
100
AcDbEntity
  8
BLACK
100
AcDbCircle
 10
65.985
 20
-4.975001
 30
0.0
 40
2.074999
100
AcDbArc
 50
270.0
 51
0.0
  0
ARC
  5
5E4
330
1D
100
AcDbEntity
  8
BLACK
100
AcDbCircle
 10
65.985
 20
4.974999
 30
0.0
 40
2.075001
100
AcDbArc
 50
0.0
 51
90.0
  0
ARC
  5
5E5
330
1D
100
AcDbEntity
  8
BLACK
100
AcDbCircle
 10
55.435
 20
-4.975001
 30
0.0
 40
2.074999
100
AcDbArc
 50
180.0
 51
270.0
  0
ARC
  5
5E6
330
1D
100
AcDbEntity
  8
BLACK
100
AcDbCircle
 10
55.435
 20
4.974999
 30
0.0
 40
2.075001
100
AcDbArc
 50
90.0
 51
180.0
  0
LINE
  5
5E7
330
1D
100
AcDbEntity
  8
BLACK
  6
Continuous
100
AcDbLine
 10
68.05999899999999
 20
4.974999
 30
0.0
 11
68.05999899999999
 21
-4.975001
 31
0.0
  0
LINE
  5
5E8
330
1D
100
AcDbEntity
  8
BLACK
  6
Continuous
100
AcDbLine
 10
65.985
 20
-7.05
 30
0.0
 11
55.435
 21
-7.05
 31
0.0
  0
LINE
  5
5E9
330
1D
100
AcDbEntity
  8
BLACK
  6
Continuous
100
AcDbLine
 10
65.985
 20
7.05
 30
0.0
 11
55.435
 21
7.05
 31
0.0
  0
LINE
  5
5EA
330
1D
100
AcDbEntity
  8
BLACK
  6
Continuous
100
AcDbLine
 10
53.35999899999999
 20
4.974999
 30
0.0
 11
53.35999899999999
 21
-4.975001
 31
0.0
  0
ARC
  5
5EB
330
1D
100
AcDbEntity
  8
BLACK
100
AcDbCircle
 10
115.3728
 20
-74.734501
 30
0.0
 40
2.074981346328925
100
AcDbArc
 50
257.7302321700001
 51
347.99999662
  0
ARC
  5
5EC
330
1D
100
AcDbEntity
  8
BLACK
100
AcDbCircle
 10
117.4415
 20
-65.001901
 30
0.0
 40
2.075017036876806
100
AcDbArc
 50
347.84091713
 51
78.00000849
  0
ARC
  5
5ED
330
1D
100
AcDbEntity
  8
BLACK
100
AcDbCircle
 10
105.0533
 20
-72.541001
 30
0.0
 40
2.074978203974442
100
AcDbArc
 50
168.14878375
 51
258.0000064
  0
ARC
  5
5EE
330
1D
100
AcDbEntity
  8
BLACK
100
AcDbCircle
 10
107.122
 20
-62.808401
 30
0.0
 40
2.074942513426576
100
AcDbArc
 50
77.72501301
 51
167.99999453
  0
LINE
  5
5EF
330
1D
100
AcDbEntity
  8
BLACK
  6
Continuous
100
AcDbLine
 10
119.469967
 20
-65.43895499999999
 30
0.0
 11
117.402438
 21
-75.165914
 31
0.0
  0
LINE
  5
5F0
330
1D
100
AcDbEntity
  8
BLACK
  6
Continuous
100
AcDbLine
 10
114.931836
 20
-76.762084
 30
0.0
 11
104.621888
 21
-74.570636
 31
0.0
  0
LINE
  5
5F1
330
1D
100
AcDbEntity
  8
BLACK
  6
Continuous
100
AcDbLine
 10
117.87292
 20
-62.97222799999999
 30
0.0
 11
107.563157
 21
-60.78082
 31
0.0
  0
LINE
  5
5F2
330
1D
100
AcDbEntity
  8
BLACK
  6
Continuous
100
AcDbLine
 10
105.0924
 20
-62.376996
 30
0.0
 11
103.022553
 21
-72.11486099999999
 31
0.0
  0
ARC
  5
5F3
330
1D
100
AcDbEntity
  8
BLACK
100
AcDbCircle
 10
53.40122
 20
-45.214971
 30
0.0
 40
2.075029
100
AcDbArc
 50
270.0
 51
0.0
  0
ARC
  5
5F4
330
1D
100
AcDbEntity
  8
BLACK
100
AcDbCircle
 10
53.4013
 20
-35.264901
 30
0.0
 40
2.074902
100
AcDbArc
 50
359.9972939199999
 51
90.0
  0
ARC
  5
5F5
330
1D
100
AcDbEntity
  8
BLACK
100
AcDbCircle
 10
42.8514
 20
-45.214801
 30
0.0
 40
2.075198002409409
100
AcDbArc
 50
179.62130107
 51
269.99723902
  0
ARC
  5
5F6
330
1D
100
AcDbEntity
  8
BLACK
100
AcDbCircle
 10
42.85122
 20
-35.264971
 30
0.0
 40
2.074971
100
AcDbArc
 50
90.0
 51
180.0
  0
LINE
  5
5F7
330
1D
100
AcDbEntity
  8
BLACK
  6
Continuous
100
AcDbLine
 10
55.476249
 20
-35.264999
 30
0.0
 11
55.476249
 21
-45.214971
 31
0.0
  0
LINE
  5
5F8
330
1D
100
AcDbEntity
  8
BLACK
  6
Continuous
100
AcDbLine
 10
53.40122
 20
-47.28999899999999
 30
0.0
 11
42.85129999999999
 21
-47.28999899999999
 31
0.0
  0
LINE
  5
5F9
330
1D
100
AcDbEntity
  8
BLACK
  6
Continuous
100
AcDbLine
 10
53.4013
 20
-33.189999
 30
0.0
 11
42.85122
 21
-33.189999
 31
0.0
  0
LINE
  5
5FA
330
1D
100
AcDbEntity
  8
BLACK
  6
Continuous
100
AcDbLine
 10
40.776249
 20
-35.264971
 30
0.0
 11
40.776249
 21
-45.201085
 31
0.0
  0
ARC
  5
5FB
330
1D
100
AcDbEntity
  8
BLACK
100
AcDbCircle
 10
72.75529999999999
 20
-46.203001
 30
0.0
 40
2.075069023052486
100
AcDbArc
 50
257.9994311200001
 51
348.00268476
  0
ARC
  5
5FC
330
1D
100
AcDbEntity
  8
BLACK
100
AcDbCircle
 10
74.8241
 20
-36.470401
 30
0.0
 40
2.074948590223864
100
AcDbArc
 50
347.9985725700001
 51
78.00000197
  0
ARC
  5
5FD
330
1D
100
AcDbEntity
  8
BLACK
100
AcDbCircle
 10
62.4359
 20
-44.009601
 30
0.0
 40
2.074948590223864
100
AcDbArc
 50
167.99861107
 51
258.00000197
  0
ARC
  5
5FE
330
1D
100
AcDbEntity
  8
BLACK
100
AcDbCircle
 10
64.5047
 20
-34.277001
 30
0.0
 40
2.075071373639953
100
AcDbArc
 50
77.99941558999998
 51
167.99998865
  0
LINE
  5
5FF
330
1D
100
AcDbEntity
  8
BLACK
  6
Continuous
100
AcDbLine
 10
76.853745
 20
-36.901868
 30
0.0
 11
74.785044
 21
-46.634337
 31
0.0
  0
LINE
  5
600
330
1D
100
AcDbEntity
  8
BLACK
  6
Continuous
100
AcDbLine
 10
72.32386199999999
 20
-48.232657
 30
0.0
 11
62.00449399999999
 21
-46.039207
 31
0.0
  0
LINE
  5
601
330
1D
100
AcDbEntity
  8
BLACK
  6
Continuous
100
AcDbLine
 10
75.255506
 20
-34.440795
 30
0.0
 11
64.936138
 21
-32.247345
 31
0.0
  0
LINE
  5
602
330
1D
100
AcDbEntity
  8
BLACK
  6
Continuous
100
AcDbLine
 10
62.474974
 20
-33.845569
 30
0.0
 11
60.406253
 21
-43.578135
 31
0.0
  0
ARC
  5
603
330
1D
100
AcDbEntity
  8
BLACK
100
AcDbCircle
 10
103.969
 20
-13.883701
 30
0.0
 40
2.075084319010194
100
AcDbArc
 50
257.99941494
 51
348.0026898300001
  0
ARC
  5
604
330
1D
100
AcDbEntity
  8
BLACK
100
AcDbCircle
 10
106.0378
 20
-4.151101
 30
0.0
 40
2.074934272422382
100
AcDbArc
 50
347.99818232
 51
78.00000262
  0
ARC
  5
605
330
1D
100
AcDbEntity
  8
BLACK
100
AcDbCircle
 10
93.64959999999999
 20
-11.690301
 30
0.0
 40
2.074962908025346
100
AcDbArc
 50
167.99900132
 51
258.00000132
  0
ARC
  5
606
330
1D
100
AcDbEntity
  8
BLACK
100
AcDbCircle
 10
95.7184
 20
-1.957701
 30
0.0
 40
2.075055683409484
100
AcDbArc
 50
77.99941624
 51
168.00269117
  0
LINE
  5
607
330
1D
100
AcDbEntity
  8
BLACK
  6
Continuous
100
AcDbLine
 10
108.067457
 20
-4.582585
 30
0.0
 11
105.998759
 21
-14.31504
 31
0.0
  0
LINE
  5
608
330
1D
100
AcDbEntity
  8
BLACK
  6
Continuous
100
AcDbLine
 10
103.537559
 20
-15.913371
 30
0.0
 11
93.21819099999999
 21
-13.719921
 31
0.0
  0
LINE
  5
609
330
1D
100
AcDbEntity
  8
BLACK
  6
Continuous
100
AcDbLine
 10
106.469203
 20
-2.121509
 30
0.0
 11
96.149835
 21
0.071941
 31
0.0
  0
LINE
  5
60A
330
1D
100
AcDbEntity
  8
BLACK
  6
Continuous
100
AcDbLine
 10
93.68866899999999
 20
-1.526368
 30
0.0
 11
91.619965
 21
-11.258852
 31
0.0
  0
ARC
  5
60B
330
1D
100
AcDbEntity
  8
BLACK
100
AcDbCircle
 10
128.6565
 20
-58.085201
 30
0.0
 40
2.074996642278006
100
AcDbArc
 50
257.7302392400001
 51
348.0000017
  0
ARC
  5
60C
330
1D
100
AcDbEntity
  8
BLACK
100
AcDbCircle
 10
130.7252
 20
-48.352601
 30
0.0
 40
2.075001740927704
100
AcDbArc
 50
347.99999766
 51
78.0000034
  0
ARC
  5
60D
330
1D
100
AcDbEntity
  8
BLACK
100
AcDbCircle
 10
118.337
 20
-55.891801
 30
0.0
 40
2.074895439520025
100
AcDbArc
 50
167.99713493
 51
258.00000054
  0
ARC
  5
60E
330
1D
100
AcDbEntity
  8
BLACK
100
AcDbCircle
 10
120.4057
 20
-46.159101
 30
0.0
 40
2.074926430287349
100
AcDbArc
 50
78.27033978
 51
167.99730293
  0
LINE
  5
60F
330
1D
100
AcDbEntity
  8
BLACK
  6
Continuous
100
AcDbLine
 10
132.754881
 20
-48.784023
 30
0.0
 11
130.686153
 21
-58.516617
 31
0.0
  0
LINE
  5
610
330
1D
100
AcDbEntity
  8
BLACK
  6
Continuous
100
AcDbLine
 10
128.215533
 20
-60.112799
 30
0.0
 11
117.905605
 21
-57.921355
 31
0.0
  0
LINE
  5
611
330
1D
100
AcDbEntity
  8
BLACK
  6
Continuous
100
AcDbLine
 10
131.156617
 20
-46.322943
 30
0.0
 11
120.827536
 21
-44.127429
 31
0.0
  0
LINE
  5
612
330
1D
100
AcDbEntity
  8
BLACK
  6
Continuous
100
AcDbLine
 10
118.376136
 20
-45.727604
 30
0.0
 11
116.307389
 21
-55.460288
 31
0.0
  0
ARC
  5
613
330
1D
100
AcDbEntity
  8
BLACK
100
AcDbCircle
 10
-2.954998
 20
-43.075
 30
0.0
 40
2.074999
100
AcDbArc
 50
270.0
 51
0.0
  0
ARC
  5
614
330
1D
100
AcDbEntity
  8
BLACK
100
AcDbCircle
 10
-2.954998
 20
-33.124998
 30
0.0
 40
2.074999
100
AcDbArc
 50
0.0
 51
90.0
  0
ARC
  5
615
330
1D
100
AcDbEntity
  8
BLACK
100
AcDbCircle
 10
-13.504997
 20
-43.074997
 30
0.0
 40
2.075002
100
AcDbArc
 50
180.0
 51
270.0
  0
ARC
  5
616
330
1D
100
AcDbEntity
  8
BLACK
100
AcDbCircle
 10
-13.504995
 20
-33.125003
 30
0.0
 40
2.075004
100
AcDbArc
 50
90.0
 51
180.0
  0
LINE
  5
617
330
1D
100
AcDbEntity
  8
BLACK
  6
Continuous
100
AcDbLine
 10
-0.879999
 20
-33.124998
 30
0.0
 11
-0.879999
 21
-43.075
 31
0.0
  0
LINE
  5
618
330
1D
100
AcDbEntity
  8
BLACK
  6
Continuous
100
AcDbLine
 10
-2.954998
 20
-45.149999
 30
0.0
 11
-13.504997
 21
-45.149999
 31
0.0
  0
LINE
  5
619
330
1D
100
AcDbEntity
  8
BLACK
  6
Continuous
100
AcDbLine
 10
-2.954998
 20
-31.049999
 30
0.0
 11
-13.504995
 21
-31.049999
 31
0.0
  0
LINE
  5
61A
330
1D
100
AcDbEntity
  8
BLACK
  6
Continuous
100
AcDbLine
 10
-15.579999
 20
-33.125003
 30
0.0
 11
-15.579999
 21
-43.074997
 31
0.0
  0
ARC
  5
61B
330
1D
100
AcDbEntity
  8
BLACK
100
AcDbCircle
 10
109.3228
 20
-34.494501
 30
0.0
 40
2.074981346328925
100
AcDbArc
 50
257.7302321700001
 51
347.99999662
  0
ARC
  5
61C
330
1D
100
AcDbEntity
  8
BLACK
100
AcDbCircle
 10
111.3915
 20
-24.761901
 30
0.0
 40
2.075017036876806
100
AcDbArc
 50
347.84091713
 51
78.00000849
  0
ARC
  5
61D
330
1D
100
AcDbEntity
  8
BLACK
100
AcDbCircle
 10
99.0033
 20
-32.301001
 30
0.0
 40
2.074978203974442
100
AcDbArc
 50
168.14878375
 51
258.0000064
  0
ARC
  5
61E
330
1D
100
AcDbEntity
  8
BLACK
100
AcDbCircle
 10
101.072
 20
-22.568401
 30
0.0
 40
2.074942912323373
100
AcDbArc
 50
77.72501301
 51
167.99728677
  0
LINE
  5
61F
330
1D
100
AcDbEntity
  8
BLACK
  6
Continuous
100
AcDbLine
 10
113.419967
 20
-25.198955
 30
0.0
 11
111.352438
 21
-34.925914
 31
0.0
  0
LINE
  5
620
330
1D
100
AcDbEntity
  8
BLACK
  6
Continuous
100
AcDbLine
 10
108.881836
 20
-36.522084
 30
0.0
 11
98.571888
 21
-34.330636
 31
0.0
  0
LINE
  5
621
330
1D
100
AcDbEntity
  8
BLACK
  6
Continuous
100
AcDbLine
 10
111.82292
 20
-22.732228
 30
0.0
 11
101.513157
 21
-20.54082
 31
0.0
  0
LINE
  5
622
330
1D
100
AcDbEntity
  8
BLACK
  6
Continuous
100
AcDbLine
 10
99.04241999999999
 20
-22.1369
 30
0.0
 11
96.97255299999999
 21
-31.874861
 31
0.0
  0
ARC
  5
623
330
1D
100
AcDbEntity
  8
BLACK
100
AcDbCircle
 10
127.9565
 20
-38.455201
 30
0.0
 40
2.074996642278006
100
AcDbArc
 50
257.7302392400001
 51
348.0000017
  0
ARC
  5
624
330
1D
100
AcDbEntity
  8
BLACK
100
AcDbCircle
 10
130.0252
 20
-28.722601
 30
0.0
 40
2.075001740927704
100
AcDbArc
 50
347.99999766
 51
78.0000034
  0
ARC
  5
625
330
1D
100
AcDbEntity
  8
BLACK
100
AcDbCircle
 10
117.637
 20
-36.261801
 30
0.0
 40
2.074895439520025
100
AcDbArc
 50
167.99713493
 51
258.00000054
  0
ARC
  5
626
330
1D
100
AcDbEntity
  8
BLACK
100
AcDbCircle
 10
119.7057
 20
-26.529101
 30
0.0
 40
2.074926430287349
100
AcDbArc
 50
78.27033978
 51
167.99730293
  0
LINE
  5
627
330
1D
100
AcDbEntity
  8
BLACK
  6
Continuous
100
AcDbLine
 10
132.054881
 20
-29.154023
 30
0.0
 11
129.986153
 21
-38.886617
 31
0.0
  0
LINE
  5
628
330
1D
100
AcDbEntity
  8
BLACK
  6
Continuous
100
AcDbLine
 10
127.515533
 20
-40.482799
 30
0.0
 11
117.205605
 21
-38.291355
 31
0.0
  0
LINE
  5
629
330
1D
100
AcDbEntity
  8
BLACK
  6
Continuous
100
AcDbLine
 10
130.456617
 20
-26.692943
 30
0.0
 11
120.127536
 21
-24.497429
 31
0.0
  0
LINE
  5
62A
330
1D
100
AcDbEntity
  8
BLACK
  6
Continuous
100
AcDbLine
 10
117.676136
 20
-26.097604
 30
0.0
 11
115.607389
 21
-35.830288
 31
0.0
  0
ARC
  5
62B
330
1D
100
AcDbEntity
  8
BLACK
100
AcDbCircle
 10
1.115003
 20
-24.025002
 30
0.0
 40
2.074997
100
AcDbArc
 50
270.0000276100001
 51
0.0
  0
ARC
  5
62C
330
1D
100
AcDbEntity
  8
BLACK
100
AcDbCircle
 10
1.115
 20
-14.075001
 30
0.0
 40
2.075002
100
AcDbArc
 50
0.0
 51
90.0
  0
ARC
  5
62D
330
1D
100
AcDbEntity
  8
BLACK
100
AcDbCircle
 10
-9.434998
 20
-24.024997
 30
0.0
 40
2.075002
100
AcDbArc
 50
180.0
 51
270.0
  0
ARC
  5
62E
330
1D
100
AcDbEntity
  8
BLACK
100
AcDbCircle
 10
-9.434996
 20
-14.075003
 30
0.0
 40
2.075004
100
AcDbArc
 50
90.0
 51
180.0
  0
LINE
  5
62F
330
1D
100
AcDbEntity
  8
BLACK
  6
Continuous
100
AcDbLine
 10
3.19
 20
-14.075001
 30
0.0
 11
3.19
 21
-24.025002
 31
0.0
  0
LINE
  5
630
330
1D
100
AcDbEntity
  8
BLACK
  6
Continuous
100
AcDbLine
 10
1.115004
 20
-26.099999
 30
0.0
 11
-9.434998
 21
-26.099999
 31
0.0
  0
LINE
  5
631
330
1D
100
AcDbEntity
  8
BLACK
  6
Continuous
100
AcDbLine
 10
1.115
 20
-11.999999
 30
0.0
 11
-9.434996
 21
-11.999999
 31
0.0
  0
LINE
  5
632
330
1D
100
AcDbEntity
  8
BLACK
  6
Continuous
100
AcDbLine
 10
-11.51
 20
-14.075003
 30
0.0
 11
-11.51
 21
-24.024997
 31
0.0
  0
ARC
  5
633
330
1D
100
AcDbEntity
  8
BLACK
100
AcDbCircle
 10
141.2365
 20
-21.805201
 30
0.0
 40
2.074996642278006
100
AcDbArc
 50
257.7302392400001
 51
348.0000017
  0
ARC
  5
634
330
1D
100
AcDbEntity
  8
BLACK
100
AcDbCircle
 10
143.3052
 20
-12.072601
 30
0.0
 40
2.075001740927704
100
AcDbArc
 50
347.99999766
 51
78.0000034
  0
ARC
  5
635
330
1D
100
AcDbEntity
  8
BLACK
100
AcDbCircle
 10
130.917
 20
-19.611801
 30
0.0
 40
2.074895439520025
100
AcDbArc
 50
167.99713493
 51
258.00000054
  0
ARC
  5
636
330
1D
100
AcDbEntity
  8
BLACK
100
AcDbCircle
 10
132.9857
 20
-9.879101
 30
0.0
 40
2.074926430287349
100
AcDbArc
 50
78.27033978
 51
167.99730293
  0
LINE
  5
637
330
1D
100
AcDbEntity
  8
BLACK
  6
Continuous
100
AcDbLine
 10
145.334881
 20
-12.504023
 30
0.0
 11
143.266153
 21
-22.236617
 31
0.0
  0
LINE
  5
638
330
1D
100
AcDbEntity
  8
BLACK
  6
Continuous
100
AcDbLine
 10
140.795533
 20
-23.832799
 30
0.0
 11
130.485605
 21
-21.641355
 31
0.0
  0
LINE
  5
639
330
1D
100
AcDbEntity
  8
BLACK
  6
Continuous
100
AcDbLine
 10
143.736617
 20
-10.042943
 30
0.0
 11
133.407536
 21
-7.847429
 31
0.0
  0
LINE
  5
63A
330
1D
100
AcDbEntity
  8
BLACK
  6
Continuous
100
AcDbLine
 10
130.956136
 20
-9.447604
 30
0.0
 11
128.887389
 21
-19.180288
 31
0.0
  0
ARC
  5
63B
330
1D
100
AcDbEntity
  8
BLACK
100
AcDbCircle
 10
52.7075
 20
-26.165001
 30
0.0
 40
2.074999
100
AcDbArc
 50
270.0
 51
0.0
  0
ARC
  5
63C
330
1D
100
AcDbEntity
  8
BLACK
100
AcDbCircle
 10
52.7075
 20
-16.215001
 30
0.0
 40
2.075002
100
AcDbArc
 50
0.0
 51
90.0
  0
ARC
  5
63D
330
1D
100
AcDbEntity
  8
BLACK
100
AcDbCircle
 10
42.1575
 20
-26.165001
 30
0.0
 40
2.074998
100
AcDbArc
 50
180.0
 51
270.0
  0
ARC
  5
63E
330
1D
100
AcDbEntity
  8
BLACK
100
AcDbCircle
 10
42.1575
 20
-16.215001
 30
0.0
 40
2.075001
100
AcDbArc
 50
90.0
 51
180.0
  0
LINE
  5
63F
330
1D
100
AcDbEntity
  8
BLACK
  6
Continuous
100
AcDbLine
 10
54.78249899999999
 20
-16.215001
 30
0.0
 11
54.78249899999999
 21
-26.165001
 31
0.0
  0
LINE
  5
640
330
1D
100
AcDbEntity
  8
BLACK
  6
Continuous
100
AcDbLine
 10
52.7075
 20
-28.239999
 30
0.0
 11
42.1575
 21
-28.239999
 31
0.0
  0
LINE
  5
641
330
1D
100
AcDbEntity
  8
BLACK
  6
Continuous
100
AcDbLine
 10
52.7075
 20
-14.139999
 30
0.0
 11
42.1575
 21
-14.139999
 31
0.0
  0
LINE
  5
642
330
1D
100
AcDbEntity
  8
BLACK
  6
Continuous
100
AcDbLine
 10
40.082499
 20
-16.215001
 30
0.0
 11
40.082499
 21
-26.165001
 31
0.0
  0
LINE
  5
643
330
1D
100
AcDbEntity
  8
BLACK
  6
Continuous
100
AcDbLine
 10
29.282499
 20
-35.265001
 30
0.0
 11
29.282499
 21
-45.215001
 31
0.0
  0
ARC
  5
644
330
1D
100
AcDbEntity
  8
BLACK
100
AcDbCircle
 10
27.2075
 20
-35.265001
 30
0.0
 40
2.075002
100
AcDbArc
 50
0.0
 51
90.0
  0
ARC
  5
645
330
1D
100
AcDbEntity
  8
BLACK
100
AcDbCircle
 10
27.2075
 20
-45.215001
 30
0.0
 40
2.074999
100
AcDbArc
 50
270.0
 51
0.0
  0
ARC
  5
646
330
1D
100
AcDbEntity
  8
BLACK
100
AcDbCircle
 10
11.89503
 20
-35.265001
 30
0.0
 40
2.075001
100
AcDbArc
 50
90.0
 51
180.0
  0
ARC
  5
647
330
1D
100
AcDbEntity
  8
BLACK
100
AcDbCircle
 10
11.89504
 20
-45.21498099999999
 30
0.0
 40
2.075018
100
AcDbArc
 50
180.13803351
 51
270.0
  0
LINE
  5
648
330
1D
100
AcDbEntity
  8
BLACK
  6
Continuous
100
AcDbLine
 10
27.2075
 20
-47.28999899999999
 30
0.0
 11
11.89504
 21
-47.28999899999999
 31
0.0
  0
LINE
  5
649
330
1D
100
AcDbEntity
  8
BLACK
  6
Continuous
100
AcDbLine
 10
27.2075
 20
-33.189999
 30
0.0
 11
11.89503
 21
-33.189999
 31
0.0
  0
LINE
  5
64A
330
1D
100
AcDbEntity
  8
BLACK
  6
Continuous
100
AcDbLine
 10
9.820029
 20
-35.265001
 30
0.0
 11
9.820029
 21
-45.21998
 31
0.0
  0
ARC
  5
64B
330
1D
100
AcDbEntity
  8
BLACK
100
AcDbCircle
 10
47.345
 20
-7.115000999999999
 30
0.0
 40
2.074999
100
AcDbArc
 50
270.0
 51
0.0
  0
ARC
  5
64C
330
1D
100
AcDbEntity
  8
BLACK
100
AcDbCircle
 10
47.345
 20
2.834999
 30
0.0
 40
2.075002
100
AcDbArc
 50
0.0
 51
90.0
  0
ARC
  5
64D
330
1D
100
AcDbEntity
  8
BLACK
100
AcDbCircle
 10
36.795
 20
-7.115000999999999
 30
0.0
 40
2.074998
100
AcDbArc
 50
180.0
 51
270.0
  0
ARC
  5
64E
330
1D
100
AcDbEntity
  8
BLACK
100
AcDbCircle
 10
36.795
 20
2.834999
 30
0.0
 40
2.075001
100
AcDbArc
 50
90.0
 51
180.0
  0
LINE
  5
64F
330
1D
100
AcDbEntity
  8
BLACK
  6
Continuous
100
AcDbLine
 10
49.419999
 20
2.834999
 30
0.0
 11
49.419999
 21
-7.115000999999999
 31
0.0
  0
LINE
  5
650
330
1D
100
AcDbEntity
  8
BLACK
  6
Continuous
100
AcDbLine
 10
47.345
 20
-9.189999
 30
0.0
 11
36.795
 21
-9.189999
 31
0.0
  0
LINE
  5
651
330
1D
100
AcDbEntity
  8
BLACK
  6
Continuous
100
AcDbLine
 10
47.345
 20
4.910000999999999
 30
0.0
 11
36.795
 21
4.910000999999999
 31
0.0
  0
LINE
  5
652
330
1D
100
AcDbEntity
  8
BLACK
  6
Continuous
100
AcDbLine
 10
34.719999
 20
2.834999
 30
0.0
 11
34.719999
 21
-7.115000999999999
 31
0.0
  0
ARC
  5
653
330
1D
100
AcDbEntity
  8
BLACK
100
AcDbCircle
 10
72.0553
 20
-26.573001
 30
0.0
 40
2.075069023052486
100
AcDbArc
 50
257.9994311200001
 51
348.00268476
  0
ARC
  5
654
330
1D
100
AcDbEntity
  8
BLACK
100
AcDbCircle
 10
74.1241
 20
-16.840401
 30
0.0
 40
2.074948590223864
100
AcDbArc
 50
347.9985725700001
 51
78.00000197
  0
ARC
  5
655
330
1D
100
AcDbEntity
  8
BLACK
100
AcDbCircle
 10
61.73589999999999
 20
-24.379601
 30
0.0
 40
2.074948590223864
100
AcDbArc
 50
167.99861107
 51
258.00000197
  0
ARC
  5
656
330
1D
100
AcDbEntity
  8
BLACK
100
AcDbCircle
 10
63.8047
 20
-14.647001
 30
0.0
 40
2.075071373639953
100
AcDbArc
 50
77.99941558999998
 51
167.99998865
  0
LINE
  5
657
330
1D
100
AcDbEntity
  8
BLACK
  6
Continuous
100
AcDbLine
 10
76.153745
 20
-17.271868
 30
0.0
 11
74.085044
 21
-27.004337
 31
0.0
  0
LINE
  5
658
330
1D
100
AcDbEntity
  8
BLACK
  6
Continuous
100
AcDbLine
 10
71.623862
 20
-28.602657
 30
0.0
 11
61.304494
 21
-26.409207
 31
0.0
  0
LINE
  5
659
330
1D
100
AcDbEntity
  8
BLACK
  6
Continuous
100
AcDbLine
 10
74.555506
 20
-14.810795
 30
0.0
 11
64.236138
 21
-12.617345
 31
0.0
  0
LINE
  5
65A
330
1D
100
AcDbEntity
  8
BLACK
  6
Continuous
100
AcDbLine
 10
61.774974
 20
-14.215569
 30
0.0
 11
59.706253
 21
-23.948135
 31
0.0
  0
ARC
  5
65B
330
1D
100
AcDbEntity
  8
BLACK
100
AcDbCircle
 10
78.1053
 20
-66.813001
 30
0.0
 40
2.075069023052486
100
AcDbArc
 50
257.9994311200001
 51
348.00268476
  0
ARC
  5
65C
330
1D
100
AcDbEntity
  8
BLACK
100
AcDbCircle
 10
80.1741
 20
-57.08040099999999
 30
0.0
 40
2.074948590223864
100
AcDbArc
 50
347.9985725700001
 51
78.00000197
  0
ARC
  5
65D
330
1D
100
AcDbEntity
  8
BLACK
100
AcDbCircle
 10
67.7859
 20
-64.619601
 30
0.0
 40
2.074948590223864
100
AcDbArc
 50
167.99861107
 51
258.00000197
  0
ARC
  5
65E
330
1D
100
AcDbEntity
  8
BLACK
100
AcDbCircle
 10
69.8547
 20
-54.887001
 30
0.0
 40
2.075071373639953
100
AcDbArc
 50
77.99941558999998
 51
167.99998865
  0
LINE
  5
65F
330
1D
100
AcDbEntity
  8
BLACK
  6
Continuous
100
AcDbLine
 10
82.203745
 20
-57.511868
 30
0.0
 11
80.135044
 21
-67.244337
 31
0.0
  0
LINE
  5
660
330
1D
100
AcDbEntity
  8
BLACK
  6
Continuous
100
AcDbLine
 10
77.673862
 20
-68.842657
 30
0.0
 11
67.354494
 21
-66.649207
 31
0.0
  0
LINE
  5
661
330
1D
100
AcDbEntity
  8
BLACK
  6
Continuous
100
AcDbLine
 10
80.60550599999999
 20
-55.050795
 30
0.0
 11
70.286138
 21
-52.857345
 31
0.0
  0
LINE
  5
662
330
1D
100
AcDbEntity
  8
BLACK
  6
Continuous
100
AcDbLine
 10
67.824974
 20
-54.455569
 30
0.0
 11
65.756253
 21
-64.188135
 31
0.0
  0
ARC
  5
663
330
1D
100
AcDbEntity
  8
BLACK
100
AcDbCircle
 10
90.689
 20
-30.533701
 30
0.0
 40
2.075084319010194
100
AcDbArc
 50
257.99941494
 51
348.0026898300001
  0
ARC
  5
664
330
1D
100
AcDbEntity
  8
BLACK
100
AcDbCircle
 10
92.75779999999999
 20
-20.801101
 30
0.0
 40
2.074934272422382
100
AcDbArc
 50
347.99818232
 51
78.00000262
  0
ARC
  5
665
330
1D
100
AcDbEntity
  8
BLACK
100
AcDbCircle
 10
80.36959999999999
 20
-28.340301
 30
0.0
 40
2.074962908025346
100
AcDbArc
 50
167.99900132
 51
258.00000132
  0
ARC
  5
666
330
1D
100
AcDbEntity
  8
BLACK
100
AcDbCircle
 10
82.4384
 20
-18.607701
 30
0.0
 40
2.075055683409484
100
AcDbArc
 50
77.99941624
 51
168.00269117
  0
LINE
  5
667
330
1D
100
AcDbEntity
  8
BLACK
  6
Continuous
100
AcDbLine
 10
94.78745699999999
 20
-21.232585
 30
0.0
 11
92.71875899999999
 21
-30.96504
 31
0.0
  0
LINE
  5
668
330
1D
100
AcDbEntity
  8
BLACK
  6
Continuous
100
AcDbLine
 10
90.257559
 20
-32.563371
 30
0.0
 11
79.938191
 21
-30.369921
 31
0.0
  0
LINE
  5
669
330
1D
100
AcDbEntity
  8
BLACK
  6
Continuous
100
AcDbLine
 10
93.18920299999999
 20
-18.771509
 30
0.0
 11
82.869835
 21
-16.578059
 31
0.0
  0
LINE
  5
66A
330
1D
100
AcDbEntity
  8
BLACK
  6
Continuous
100
AcDbLine
 10
80.408669
 20
-18.176368
 30
0.0
 11
78.33996499999999
 21
-27.908852
 31
0.0
  0
ARC
  5
66B
330
1D
100
AcDbEntity
  8
BLACK
100
AcDbCircle
 10
91.389
 20
-50.163701
 30
0.0
 40
2.075084319010194
100
AcDbArc
 50
257.99941494
 51
348.0026898300001
  0
ARC
  5
66C
330
1D
100
AcDbEntity
  8
BLACK
100
AcDbCircle
 10
93.45779999999999
 20
-40.431101
 30
0.0
 40
2.074934272422382
100
AcDbArc
 50
347.99818232
 51
78.00000262
  0
ARC
  5
66D
330
1D
100
AcDbEntity
  8
BLACK
100
AcDbCircle
 10
81.0696
 20
-47.970301
 30
0.0
 40
2.074962908025346
100
AcDbArc
 50
167.99900132
 51
258.00000132
  0
ARC
  5
66E
330
1D
100
AcDbEntity
  8
BLACK
100
AcDbCircle
 10
83.13839999999999
 20
-38.237701
 30
0.0
 40
2.075055869779173
100
AcDbArc
 50
77.99941624
 51
168.00001057
  0
LINE
  5
66F
330
1D
100
AcDbEntity
  8
BLACK
  6
Continuous
100
AcDbLine
 10
95.48745699999999
 20
-40.862585
 30
0.0
 11
93.418759
 21
-50.59504
 31
0.0
  0
LINE
  5
670
330
1D
100
AcDbEntity
  8
BLACK
  6
Continuous
100
AcDbLine
 10
90.95755899999999
 20
-52.193371
 30
0.0
 11
80.63819099999999
 21
-49.999921
 31
0.0
  0
LINE
  5
671
330
1D
100
AcDbEntity
  8
BLACK
  6
Continuous
100
AcDbLine
 10
93.889203
 20
-38.401509
 30
0.0
 11
83.569835
 21
-36.208059
 31
0.0
  0
LINE
  5
672
330
1D
100
AcDbEntity
  8
BLACK
  6
Continuous
100
AcDbLine
 10
81.108689
 20
-37.806273
 30
0.0
 11
79.039965
 21
-47.538852
 31
0.0
  0
ARC
  5
673
330
1D
100
AcDbEntity
  8
BLACK
100
AcDbCircle
 10
122.6028
 20
-17.844501
 30
0.0
 40
2.074981346328925
100
AcDbArc
 50
257.7302321700001
 51
347.99999662
  0
ARC
  5
674
330
1D
100
AcDbEntity
  8
BLACK
100
AcDbCircle
 10
124.6715
 20
-8.111901
 30
0.0
 40
2.075017036876806
100
AcDbArc
 50
347.84091713
 51
78.00000849
  0
ARC
  5
675
330
1D
100
AcDbEntity
  8
BLACK
100
AcDbCircle
 10
112.2833
 20
-15.651001
 30
0.0
 40
2.074978203974442
100
AcDbArc
 50
168.14878375
 51
258.0000064
  0
ARC
  5
676
330
1D
100
AcDbEntity
  8
BLACK
100
AcDbCircle
 10
114.352
 20
-5.918400999999999
 30
0.0
 40
2.074942513426576
100
AcDbArc
 50
77.72501301
 51
167.99999453
  0
LINE
  5
677
330
1D
100
AcDbEntity
  8
BLACK
  6
Continuous
100
AcDbLine
 10
126.699967
 20
-8.548955
 30
0.0
 11
124.632438
 21
-18.275914
 31
0.0
  0
LINE
  5
678
330
1D
100
AcDbEntity
  8
BLACK
  6
Continuous
100
AcDbLine
 10
122.161836
 20
-19.872084
 30
0.0
 11
111.851888
 21
-17.680636
 31
0.0
  0
LINE
  5
679
330
1D
100
AcDbEntity
  8
BLACK
  6
Continuous
100
AcDbLine
 10
125.10292
 20
-6.082228
 30
0.0
 11
114.793157
 21
-3.89082
 31
0.0
  0
LINE
  5
67A
330
1D
100
AcDbEntity
  8
BLACK
  6
Continuous
100
AcDbLine
 10
112.3224
 20
-5.486996
 30
0.0
 11
110.252553
 21
-15.224861
 31
0.0
  0
ARC
  5
67B
330
1D
100
AcDbEntity
  8
BLACK
100
AcDbCircle
 10
110.0228
 20
-54.124501
 30
0.0
 40
2.074981346328925
100
AcDbArc
 50
257.7302321700001
 51
347.99999662
  0
ARC
  5
67C
330
1D
100
AcDbEntity
  8
BLACK
100
AcDbCircle
 10
112.0915
 20
-44.391901
 30
0.0
 40
2.075017036876806
100
AcDbArc
 50
347.84091713
 51
78.00000849
  0
ARC
  5
67D
330
1D
100
AcDbEntity
  8
BLACK
100
AcDbCircle
 10
99.7033
 20
-51.93100099999999
 30
0.0
 40
2.074978203974442
100
AcDbArc
 50
168.14878375
 51
258.0000064
  0
ARC
  5
67E
330
1D
100
AcDbEntity
  8
BLACK
100
AcDbCircle
 10
101.772
 20
-42.198401
 30
0.0
 40
2.074942513426576
100
AcDbArc
 50
77.72501301
 51
167.99999453
  0
LINE
  5
67F
330
1D
100
AcDbEntity
  8
BLACK
  6
Continuous
100
AcDbLine
 10
114.119967
 20
-44.828955
 30
0.0
 11
112.052438
 21
-54.55591399999999
 31
0.0
  0
LINE
  5
680
330
1D
100
AcDbEntity
  8
BLACK
  6
Continuous
100
AcDbLine
 10
109.581836
 20
-56.152084
 30
0.0
 11
99.27188799999999
 21
-53.960636
 31
0.0
  0
LINE
  5
681
330
1D
100
AcDbEntity
  8
BLACK
  6
Continuous
100
AcDbLine
 10
112.52292
 20
-42.36222799999999
 30
0.0
 11
102.213157
 21
-40.17082
 31
0.0
  0
LINE
  5
682
330
1D
100
AcDbEntity
  8
BLACK
  6
Continuous
100
AcDbLine
 10
99.74239999999999
 20
-41.766996
 30
0.0
 11
97.672553
 21
-51.504861
 31
0.0
  0
ARC
  5
683
330
1D
100
AcDbEntity
  8
BLACK
100
AcDbCircle
 10
58.7611
 20
-64.264901
 30
0.0
 40
2.075149002409466
100
AcDbArc
 50
269.6050568
 51
359.9972389599999
  0
ARC
  5
684
330
1D
100
AcDbEntity
  8
BLACK
100
AcDbCircle
 10
58.7613
 20
-54.314901
 30
0.0
 40
2.074902
100
AcDbArc
 50
359.9972939199999
 51
90.0
  0
ARC
  5
685
330
1D
100
AcDbEntity
  8
BLACK
100
AcDbCircle
 10
48.2114
 20
-64.26480099999999
 30
0.0
 40
2.075198002409409
100
AcDbArc
 50
179.62130107
 51
269.99723902
  0
ARC
  5
686
330
1D
100
AcDbEntity
  8
BLACK
100
AcDbCircle
 10
48.21122
 20
-54.314971
 30
0.0
 40
2.074971
100
AcDbArc
 50
90.0
 51
180.0
  0
LINE
  5
687
330
1D
100
AcDbEntity
  8
BLACK
  6
Continuous
100
AcDbLine
 10
60.836249
 20
-54.314999
 30
0.0
 11
60.836249
 21
-64.265001
 31
0.0
  0
LINE
  5
688
330
1D
100
AcDbEntity
  8
BLACK
  6
Continuous
100
AcDbLine
 10
58.746796
 20
-66.33999899999999
 30
0.0
 11
48.21129999999999
 21
-66.33999899999999
 31
0.0
  0
LINE
  5
689
330
1D
100
AcDbEntity
  8
BLACK
  6
Continuous
100
AcDbLine
 10
58.7613
 20
-52.239999
 30
0.0
 11
48.21122
 21
-52.239999
 31
0.0
  0
LINE
  5
68A
330
1D
100
AcDbEntity
  8
BLACK
  6
Continuous
100
AcDbLine
 10
46.136249
 20
-54.314971
 30
0.0
 11
46.136249
 21
-64.251085
 31
0.0
  0
ARC
  5
68B
330
1D
100
AcDbEntity
  8
BLACK
100
AcDbCircle
 10
28.895
 20
-26.165001
 30
0.0
 40
2.074999
100
AcDbArc
 50
270.0
 51
0.0
  0
ARC
  5
68C
330
1D
100
AcDbEntity
  8
BLACK
100
AcDbCircle
 10
28.895
 20
-16.215001
 30
0.0
 40
2.075002
100
AcDbArc
 50
0.0
 51
90.0
  0
ARC
  5
68D
330
1D
100
AcDbEntity
  8
BLACK
100
AcDbCircle
 10
18.345
 20
-26.165001
 30
0.0
 40
2.074998
100
AcDbArc
 50
180.0
 51
270.0
  0
ARC
  5
68E
330
1D
100
AcDbEntity
  8
BLACK
100
AcDbCircle
 10
18.345
 20
-16.215001
 30
0.0
 40
2.075001
100
AcDbArc
 50
90.0
 51
180.0
  0
LINE
  5
68F
330
1D
100
AcDbEntity
  8
BLACK
  6
Continuous
100
AcDbLine
 10
30.969999
 20
-16.215001
 30
0.0
 11
30.969999
 21
-26.165001
 31
0.0
  0
LINE
  5
690
330
1D
100
AcDbEntity
  8
BLACK
  6
Continuous
100
AcDbLine
 10
28.895
 20
-28.239999
 30
0.0
 11
18.345
 21
-28.239999
 31
0.0
  0
LINE
  5
691
330
1D
100
AcDbEntity
  8
BLACK
  6
Continuous
100
AcDbLine
 10
28.895
 20
-14.139999
 30
0.0
 11
18.345
 21
-14.139999
 31
0.0
  0
LINE
  5
692
330
1D
100
AcDbEntity
  8
BLACK
  6
Continuous
100
AcDbLine
 10
16.269999
 20
-16.215001
 30
0.0
 11
16.269999
 21
-26.165001
 31
0.0
  0
ARC
  5
693
330
1D
100
AcDbEntity
  8
BLACK
100
AcDbCircle
 10
28.295
 20
-7.115000999999999
 30
0.0
 40
2.074999
100
AcDbArc
 50
270.0
 51
0.0
  0
ARC
  5
694
330
1D
100
AcDbEntity
  8
BLACK
100
AcDbCircle
 10
28.295
 20
2.834999
 30
0.0
 40
2.075002
100
AcDbArc
 50
0.0
 51
90.0
  0
ARC
  5
695
330
1D
100
AcDbEntity
  8
BLACK
100
AcDbCircle
 10
17.745
 20
-7.115000999999999
 30
0.0
 40
2.074998
100
AcDbArc
 50
180.0
 51
270.0
  0
ARC
  5
696
330
1D
100
AcDbEntity
  8
BLACK
100
AcDbCircle
 10
17.745
 20
2.834999
 30
0.0
 40
2.075001
100
AcDbArc
 50
90.0
 51
180.0
  0
LINE
  5
697
330
1D
100
AcDbEntity
  8
BLACK
  6
Continuous
100
AcDbLine
 10
30.369999
 20
2.834999
 30
0.0
 11
30.369999
 21
-7.115000999999999
 31
0.0
  0
LINE
  5
698
330
1D
100
AcDbEntity
  8
BLACK
  6
Continuous
100
AcDbLine
 10
28.295
 20
-9.189999
 30
0.0
 11
17.745
 21
-9.189999
 31
0.0
  0
LINE
  5
699
330
1D
100
AcDbEntity
  8
BLACK
  6
Continuous
100
AcDbLine
 10
28.295
 20
4.910000999999999
 30
0.0
 11
17.745
 21
4.910000999999999
 31
0.0
  0
LINE
  5
69A
330
1D
100
AcDbEntity
  8
BLACK
  6
Continuous
100
AcDbLine
 10
15.669999
 20
2.834999
 30
0.0
 11
15.669999
 21
-7.115000999999999
 31
0.0
  0
ARC
  5
69B
330
1D
100
AcDbEntity
  8
BLACK
100
AcDbCircle
 10
20.66125
 20
-83.315001
 30
0.0
 40
2.074999
100
AcDbArc
 50
270.0
 51
0.0
  0
ARC
  5
69C
330
1D
100
AcDbEntity
  8
BLACK
100
AcDbCircle
 10
20.66125
 20
-73.364991
 30
0.0
 40
2.074992
100
AcDbArc
 50
359.9997791
 51
90.0
  0
ARC
  5
69D
330
1D
100
AcDbEntity
  8
BLACK
100
AcDbCircle
 10
10.11126
 20
-83.314981
 30
0.0
 40
2.075018000024096
100
AcDbArc
 50
180.13803351
 51
269.99972388
  0
ARC
  5
69E
330
1D
100
AcDbEntity
  8
BLACK
100
AcDbCircle
 10
10.11125
 20
-73.36500099999999
 30
0.0
 40
2.075001
100
AcDbArc
 50
90.0
 51
180.0
  0
LINE
  5
69F
330
1D
100
AcDbEntity
  8
BLACK
  6
Continuous
100
AcDbLine
 10
22.736249
 20
-73.364999
 30
0.0
 11
22.736249
 21
-83.315001
 31
0.0
  0
LINE
  5
6A0
330
1D
100
AcDbEntity
  8
BLACK
  6
Continuous
100
AcDbLine
 10
20.66125
 20
-85.389999
 30
0.0
 11
10.11125
 21
-85.389999
 31
0.0
  0
LINE
  5
6A1
330
1D
100
AcDbEntity
  8
BLACK
  6
Continuous
100
AcDbLine
 10
20.66125
 20
-71.289999
 30
0.0
 11
10.11125
 21
-71.289999
 31
0.0
  0
LINE
  5
6A2
330
1D
100
AcDbEntity
  8
BLACK
  6
Continuous
100
AcDbLine
 10
8.036249
 20
-73.36500099999999
 30
0.0
 11
8.036249
 21
-83.31998
 31
0.0
  0
ARC
  5
6A3
330
1D
100
AcDbEntity
  8
BLACK
100
AcDbCircle
 10
73.2953
 20
-86.803001
 30
0.0
 40
2.075069023052486
100
AcDbArc
 50
257.9994311200001
 51
348.00268476
  0
ARC
  5
6A4
330
1D
100
AcDbEntity
  8
BLACK
100
AcDbCircle
 10
75.3641
 20
-77.07040099999999
 30
0.0
 40
2.074948590223864
100
AcDbArc
 50
347.9985725700001
 51
78.00000197
  0
ARC
  5
6A5
330
1D
100
AcDbEntity
  8
BLACK
100
AcDbCircle
 10
62.9759
 20
-84.609601
 30
0.0
 40
2.074948590223864
100
AcDbArc
 50
167.99861107
 51
258.00000197
  0
ARC
  5
6A6
330
1D
100
AcDbEntity
  8
BLACK
100
AcDbCircle
 10
65.04469999999999
 20
-74.87700099999999
 30
0.0
 40
2.075071373639953
100
AcDbArc
 50
77.99941558999998
 51
167.99998865
  0
LINE
  5
6A7
330
1D
100
AcDbEntity
  8
BLACK
  6
Continuous
100
AcDbLine
 10
77.393745
 20
-77.501868
 30
0.0
 11
75.32504399999999
 21
-87.234337
 31
0.0
  0
LINE
  5
6A8
330
1D
100
AcDbEntity
  8
BLACK
  6
Continuous
100
AcDbLine
 10
72.863862
 20
-88.832657
 30
0.0
 11
62.544494
 21
-86.639207
 31
0.0
  0
LINE
  5
6A9
330
1D
100
AcDbEntity
  8
BLACK
  6
Continuous
100
AcDbLine
 10
75.795506
 20
-75.040795
 30
0.0
 11
65.47613799999999
 21
-72.84734499999999
 31
0.0
  0
LINE
  5
6AA
330
1D
100
AcDbEntity
  8
BLACK
  6
Continuous
100
AcDbLine
 10
63.014974
 20
-74.44556899999999
 30
0.0
 11
60.946253
 21
-84.178135
 31
0.0
  0
ARC
  5
6C8
330
1D
100
AcDbEntity
  8
BLACK
100
AcDbCircle
 10
65.08189999999999
 20
12.281599
 30
0.0
 40
0.4983960000010032
100
AcDbArc
 50
77.97601175
 51
90.00011496
  0
LINE
  5
6C9
330
1D
100
AcDbEntity
  8
BLACK
  6
Continuous
100
AcDbLine
 10
321.336683
 20
8.53
 30
0.0
 11
321.33675
 21
8.53
 31
0.0
  0
LINE
  5
6CA
330
1D
100
AcDbEntity
  8
BLACK
  6
Continuous
100
AcDbLine
 10
-17.717071
 20
5.072922999999999
 30
0.0
 11
-17.717074
 21
5.072926
 31
0.0
  0
LINE
  5
6CB
330
1D
100
AcDbEntity
  8
BLACK
  6
Continuous
100
AcDbLine
 10
86.76532
 20
-94.578493
 30
0.0
 11
86.76532
 21
-94.578492
 31
0.0
  0
LINE
  5
6CC
330
1D
100
AcDbEntity
  8
BLACK
  6
Continuous
100
AcDbLine
 10
152.179558
 20
-108.040786
 30
0.0
 11
152.179558
 21
-108.040787
 31
0.0
  0
LINE
  5
6CD
330
1D
100
AcDbEntity
  8
BLACK
  6
Continuous
100
AcDbLine
 10
164.663529
 20
-108.965697
 30
0.0
 11
164.663528
 21
-108.965697
 31
0.0
  0
ARC
  5
6CE
330
1D
100
AcDbEntity
  8
BLACK
100
AcDbCircle
 10
214.852666
 20
13.279999
 30
0.0
 40
1.500001
100
AcDbArc
 50
0.0
 51
90.0
  0
LINE
  5
6CF
330
1D
100
AcDbEntity
  8
BLACK
  6
Continuous
100
AcDbLine
 10
166.852668
 20
14.78
 30
0.0
 11
214.852666
 21
14.78
 31
0.0
  0
ARC
  5
6D0
330
1D
100
AcDbEntity
  8
BLACK
100
AcDbCircle
 10
166.852668
 20
13.279999
 30
0.0
 40
1.500001
100
AcDbArc
 50
90.0
 51
180.0
  0
LINE
  5
6D1
330
1D
100
AcDbEntity
  8
BLACK
  6
Continuous
100
AcDbLine
 10
165.352667
 20
11.280001
 30
0.0
 11
165.352667
 21
13.279999
 31
0.0
  0
ARC
  5
6D2
330
1D
100
AcDbEntity
  8
BLACK
100
AcDbCircle
 10
163.852666
 20
11.280001
 30
0.0
 40
1.500001
100
AcDbArc
 50
270.0
 51
0.0
  0
LINE
  5
6D3
330
1D
100
AcDbEntity
  8
BLACK
  6
Continuous
100
AcDbLine
 10
138.926334
 20
9.78
 30
0.0
 11
163.852666
 21
9.78
 31
0.0
  0
ARC
  5
6D4
330
1D
100
AcDbEntity
  8
BLACK
100
AcDbCircle
 10
138.926334
 20
11.280001
 30
0.0
 40
1.500001
100
AcDbArc
 50
180.0
 51
270.0
  0
LINE
  5
6D5
330
1D
100
AcDbEntity
  8
BLACK
  6
Continuous
100
AcDbLine
 10
137.426333
 20
13.279999
 30
0.0
 11
137.426333
 21
11.280001
 31
0.0
  0
ARC
  5
6D6
330
1D
100
AcDbEntity
  8
BLACK
100
AcDbCircle
 10
135.926332
 20
13.279999
 30
0.0
 40
1.500001
100
AcDbArc
 50
0.0
 51
90.0
  0
LINE
  5
6D7
330
1D
100
AcDbEntity
  8
BLACK
  6
Continuous
100
AcDbLine
 10
87.926334
 20
14.78
 30
0.0
 11
135.926332
 21
14.78
 31
0.0
  0
ARC
  5
6D8
330
1D
100
AcDbEntity
  8
BLACK
100
AcDbCircle
 10
87.926334
 20
13.279999
 30
0.0
 40
1.500001
100
AcDbArc
 50
90.0
 51
180.0
  0
LINE
  5
6D9
330
1D
100
AcDbEntity
  8
BLACK
  6
Continuous
100
AcDbLine
 10
86.426333
 20
11.280001
 30
0.0
 11
86.426333
 21
13.279999
 31
0.0
  0
ARC
  5
6DA
330
1D
100
AcDbEntity
  8
BLACK
100
AcDbCircle
 10
84.926332
 20
11.280001
 30
0.0
 40
1.500001
100
AcDbArc
 50
270.0
 51
0.0
  0
LINE
  5
6DB
330
1D
100
AcDbEntity
  8
BLACK
  6
Continuous
100
AcDbLine
 10
49.890001
 20
9.78
 30
0.0
 11
84.926332
 21
9.78
 31
0.0
  0
ARC
  5
6DC
330
1D
100
AcDbEntity
  8
BLACK
100
AcDbCircle
 10
49.890001
 20
11.280001
 30
0.0
 40
1.500001
100
AcDbArc
 50
180.0
 51
270.0
  0
LINE
  5
6DD
330
1D
100
AcDbEntity
  8
BLACK
  6
Continuous
100
AcDbLine
 10
48.39
 20
13.279999
 30
0.0
 11
48.39
 21
11.280001
 31
0.0
  0
ARC
  5
6DE
330
1D
100
AcDbEntity
  8
BLACK
100
AcDbCircle
 10
46.889999
 20
13.279999
 30
0.0
 40
1.500001
100
AcDbArc
 50
0.0
 51
90.0
  0
LINE
  5
6DF
330
1D
100
AcDbEntity
  8
BLACK
  6
Continuous
100
AcDbLine
 10
-1.109999
 20
14.78
 30
0.0
 11
46.889999
 21
14.78
 31
0.0
  0
ARC
  5
6E0
330
1D
100
AcDbEntity
  8
BLACK
100
AcDbCircle
 10
-1.109999
 20
13.279999
 30
0.0
 40
1.500001
100
AcDbArc
 50
90.0
 51
180.0
  0
LINE
  5
6E1
330
1D
100
AcDbEntity
  8
BLACK
  6
Continuous
100
AcDbLine
 10
-2.61
 20
11.280001
 30
0.0
 11
-2.61
 21
13.279999
 31
0.0
  0
ARC
  5
6E2
330
1D
100
AcDbEntity
  8
BLACK
100
AcDbCircle
 10
-4.110001
 20
11.280001
 30
0.0
 40
1.500001
100
AcDbArc
 50
270.0
 51
0.0
  0
LINE
  5
6E3
330
1D
100
AcDbEntity
  8
BLACK
  6
Continuous
100
AcDbLine
 10
-12.589536
 20
9.78
 30
0.0
 11
-4.110001
 21
9.78
 31
0.0
  0
ARC
  5
6E4
330
1D
100
AcDbEntity
  8
BLACK
100
AcDbCircle
 10
-12.59565
 20
8.779741
 30
0.0
 40
1.000279617887418
100
AcDbArc
 50
89.64978867000002
 51
134.99712429
  0
LINE
  5
6E5
330
1D
100
AcDbEntity
  8
BLACK
  6
Continuous
100
AcDbLine
 10
-17.717074
 20
5.072926
 30
0.0
 11
-13.302919
 21
9.487081
 31
0.0
  0
ARC
  5
6E6
330
1D
100
AcDbEntity
  8
BLACK
100
AcDbCircle
 10
-17.0099
 20
4.365761
 30
0.0
 40
1.000100000449955
100
AcDbArc
 50
135.0003646
 51
180.0017187
  0
LINE
  5
6E7
330
1D
100
AcDbEntity
  8
BLACK
  6
Continuous
100
AcDbLine
 10
-18.01
 20
-68.067
 30
0.0
 11
-18.01
 21
4.365730999999999
 31
0.0
  0
ARC
  5
6E8
330
1D
100
AcDbEntity
  8
BLACK
100
AcDbCircle
 10
-16.51
 20
-68.067039
 30
0.0
 40
1.499961
100
AcDbArc
 50
179.99851031
 51
270.0
  0
LINE
  5
6E9
330
1D
100
AcDbEntity
  8
BLACK
  6
Continuous
100
AcDbLine
 10
-9.93
 20
-69.567
 30
0.0
 11
-16.51
 21
-69.567
 31
0.0
  0
ARC
  5
6EA
330
1D
100
AcDbEntity
  8
BLACK
100
AcDbCircle
 10
-9.93
 20
-71.066999
 30
0.0
 40
1.499999
100
AcDbArc
 50
0.0
 51
90.0
  0
LINE
  5
6EB
330
1D
100
AcDbEntity
  8
BLACK
  6
Continuous
100
AcDbLine
 10
-8.43
 20
-86.61999899999999
 30
0.0
 11
-8.43
 21
-71.066999
 31
0.0
  0
ARC
  5
6EC
330
1D
100
AcDbEntity
  8
BLACK
100
AcDbCircle
 10
-6.929999
 20
-86.61999899999999
 30
0.0
 40
1.500001
100
AcDbArc
 50
180.0
 51
270.0
  0
LINE
  5
6ED
330
1D
100
AcDbEntity
  8
BLACK
  6
Continuous
100
AcDbLine
 10
-4.110001
 20
-88.11999999999999
 30
0.0
 11
-6.929999
 21
-88.11999999999999
 31
0.0
  0
ARC
  5
6EE
330
1D
100
AcDbEntity
  8
BLACK
100
AcDbCircle
 10
-4.110001
 20
-89.620001
 30
0.0
 40
1.500001
100
AcDbArc
 50
0.0
 51
90.0
  0
LINE
  5
6EF
330
1D
100
AcDbEntity
  8
BLACK
  6
Continuous
100
AcDbLine
 10
-2.61
 20
-91.61999899999999
 30
0.0
 11
-2.61
 21
-89.620001
 31
0.0
  0
ARC
  5
6F0
330
1D
100
AcDbEntity
  8
BLACK
100
AcDbCircle
 10
-1.109999
 20
-91.61999899999999
 30
0.0
 40
1.500001
100
AcDbArc
 50
180.0
 51
270.0
  0
LINE
  5
6F1
330
1D
100
AcDbEntity
  8
BLACK
  6
Continuous
100
AcDbLine
 10
46.889999
 20
-93.11999999999999
 30
0.0
 11
-1.109999
 21
-93.11999999999999
 31
0.0
  0
ARC
  5
6F2
330
1D
100
AcDbEntity
  8
BLACK
100
AcDbCircle
 10
46.889999
 20
-91.61999899999999
 30
0.0
 40
1.500001
100
AcDbArc
 50
270.0
 51
0.0
  0
LINE
  5
6F3
330
1D
100
AcDbEntity
  8
BLACK
  6
Continuous
100
AcDbLine
 10
48.39
 20
-89.620001
 30
0.0
 11
48.39
 21
-91.61999899999999
 31
0.0
  0
ARC
  5
6F4
330
1D
100
AcDbEntity
  8
BLACK
100
AcDbCircle
 10
49.890001
 20
-89.620001
 30
0.0
 40
1.500001
100
AcDbArc
 50
90.0
 51
180.0
  0
LINE
  5
6F5
330
1D
100
AcDbEntity
  8
BLACK
  6
Continuous
100
AcDbLine
 10
55.854975
 20
-88.11999999999999
 30
0.0
 11
49.890001
 21
-88.11999999999999
 31
0.0
  0
ARC
  5
6F6
330
1D
100
AcDbEntity
  8
BLACK
100
AcDbCircle
 10
55.854975
 20
-93.120094
 30
0.0
 40
5.000094
100
AcDbArc
 50
78.0000001
 51
90.0
  0
LINE
  5
6F7
330
1D
100
AcDbEntity
  8
BLACK
  6
Continuous
100
AcDbLine
 10
86.76532
 20
-94.578492
 30
0.0
 11
56.89455299999999
 21
-88.229264
 31
0.0
  0
ARC
  5
6F8
330
1D
100
AcDbEntity
  8
BLACK
100
AcDbCircle
 10
86.453454
 20
-96.045712
 30
0.0
 40
1.49999733196996
100
AcDbArc
 50
347.9999636
 51
78.00003833
  0
LINE
  5
6F9
330
1D
100
AcDbEntity
  8
BLACK
  6
Continuous
100
AcDbLine
 10
87.50484999999999
 20
-98.313876
 30
0.0
 11
87.920673
 21
-96.35758
 31
0.0
  0
ARC
  5
6FA
330
1D
100
AcDbEntity
  8
BLACK
100
AcDbCircle
 10
88.972072
 20
-98.625743
 30
0.0
 40
1.500000474324258
100
AcDbArc
 50
168.00002479
 51
258.00002479
  0
LINE
  5
6FB
330
1D
100
AcDbEntity
  8
BLACK
  6
Continuous
100
AcDbLine
 10
135.611288
 20
-110.072726
 30
0.0
 11
88.66020499999999
 21
-100.092965
 31
0.0
  0
ARC
  5
6FC
330
1D
100
AcDbEntity
  8
BLACK
100
AcDbCircle
 10
135.923156
 20
-108.605504
 30
0.0
 40
1.50000026641331
100
AcDbArc
 50
257.99998743
 51
348.00006215
  0
LINE
  5
6FD
330
1D
100
AcDbEntity
  8
BLACK
  6
Continuous
100
AcDbLine
 10
137.806201
 20
-106.961078
 30
0.0
 11
137.390378
 21
-108.91737
 31
0.0
  0
ARC
  5
6FE
330
1D
100
AcDbEntity
  8
BLACK
100
AcDbCircle
 10
139.273424
 20
-107.272946
 30
0.0
 40
1.500001660383414
100
AcDbArc
 50
78.00003273
 51
167.99999537
  0
LINE
  5
6FF
330
1D
100
AcDbEntity
  8
BLACK
  6
Continuous
100
AcDbLine
 10
150.100445
 20
-108.040788
 30
0.0
 11
139.585291
 21
-105.805723
 31
0.0
  0
ARC
  5
700
330
1D
100
AcDbEntity
  8
BLACK
100
AcDbCircle
 10
151.139997
 20
-103.150068
 30
0.0
 40
4.999980962788259
100
AcDbArc
 50
258.00002945
 51
282.0000762
  0
LINE
  5
701
330
1D
100
AcDbEntity
  8
BLACK
  6
Continuous
100
AcDbLine
 10
162.46856
 20
-105.853792
 30
0.0
 11
152.179558
 21
-108.040787
 31
0.0
  0
ARC
  5
702
330
1D
100
AcDbEntity
  8
BLACK
100
AcDbCircle
 10
162.780428
 20
-107.321014
 30
0.0
 40
1.500000682235845
100
AcDbArc
 50
11.99993785
 51
102.00001257
  0
LINE
  5
703
330
1D
100
AcDbEntity
  8
BLACK
  6
Continuous
100
AcDbLine
 10
164.663528
 20
-108.965697
 30
0.0
 11
164.24765
 21
-107.009148
 31
0.0
  0
ARC
  5
704
330
1D
100
AcDbEntity
  8
BLACK
100
AcDbCircle
 10
166.13075
 20
-108.653831
 30
0.0
 40
1.499999704088304
100
AcDbArc
 50
191.99994579
 51
282.00002051
  0
LINE
  5
705
330
1D
100
AcDbEntity
  8
BLACK
  6
Continuous
100
AcDbLine
 10
213.393702
 20
-100.14129
 30
0.0
 11
166.442618
 21
-110.121052
 31
0.0
  0
ARC
  5
706
330
1D
100
AcDbEntity
  8
BLACK
100
AcDbCircle
 10
213.081836
 20
-98.67406899999999
 30
0.0
 40
1.499998933853288
100
AcDbArc
 50
281.99994579
 51
12.00006582
  0
LINE
  5
707
330
1D
100
AcDbEntity
  8
BLACK
  6
Continuous
100
AcDbLine
 10
214.133178
 20
-96.40565099999999
 30
0.0
 11
214.549056
 21
-98.3622
 31
0.0
  0
ARC
  5
708
330
1D
100
AcDbEntity
  8
BLACK
100
AcDbCircle
 10
215.600401
 20
-96.093784
 30
0.0
 40
1.500001452471963
100
AcDbArc
 50
102.00000463
 51
191.99996727
  0
LINE
  5
709
330
1D
100
AcDbEntity
  8
BLACK
  6
Continuous
100
AcDbLine
 10
245.159626
 20
-88.277264
 30
0.0
 11
215.288533
 21
-94.626561
 31
0.0
  0
ARC
  5
70A
330
1D
100
AcDbEntity
  8
BLACK
100
AcDbCircle
 10
246.199202
 20
-93.168075
 30
0.0
 40
5.000075049186461
100
AcDbArc
 50
90.00001146
 51
102.00002275
  0
LINE
  5
70B
330
1D
100
AcDbEntity
  8
BLACK
  6
Continuous
100
AcDbLine
 10
252.888999
 20
-88.16799999999999
 30
0.0
 11
246.199201
 21
-88.16799999999999
 31
0.0
  0
ARC
  5
70C
330
1D
100
AcDbEntity
  8
BLACK
100
AcDbCircle
 10
252.888999
 20
-89.66800099999999
 30
0.0
 40
1.500001
100
AcDbArc
 50
0.0
 51
90.0
  0
LINE
  5
70D
330
1D
100
AcDbEntity
  8
BLACK
  6
Continuous
100
AcDbLine
 10
254.389
 20
-91.61999899999999
 30
0.0
 11
254.389
 21
-89.66800099999999
 31
0.0
  0
ARC
  5
70E
330
1D
100
AcDbEntity
  8
BLACK
100
AcDbCircle
 10
255.889001
 20
-91.61999899999999
 30
0.0
 40
1.500001
100
AcDbArc
 50
180.0
 51
270.0
  0
LINE
  5
70F
330
1D
100
AcDbEntity
  8
BLACK
  6
Continuous
100
AcDbLine
 10
303.888749
 20
-93.11999999999999
 30
0.0
 11
255.889001
 21
-93.11999999999999
 31
0.0
  0
ARC
  5
710
330
1D
100
AcDbEntity
  8
BLACK
100
AcDbCircle
 10
303.888749
 20
-91.61999899999999
 30
0.0
 40
1.500001
100
AcDbArc
 50
270.0
 51
0.0
  0
LINE
  5
711
330
1D
100
AcDbEntity
  8
BLACK
  6
Continuous
100
AcDbLine
 10
305.38875
 20
-89.66800099999999
 30
0.0
 11
305.38875
 21
-91.61999899999999
 31
0.0
  0
ARC
  5
712
330
1D
100
AcDbEntity
  8
BLACK
100
AcDbCircle
 10
306.888751
 20
-89.66800099999999
 30
0.0
 40
1.500001
100
AcDbArc
 50
90.0
 51
180.0
  0
LINE
  5
713
330
1D
100
AcDbEntity
  8
BLACK
  6
Continuous
100
AcDbLine
 10
315.37454
 20
-88.16799999999999
 30
0.0
 11
306.888751
 21
-88.16799999999999
 31
0.0
  0
ARC
  5
714
330
1D
100
AcDbEntity
  8
BLACK
100
AcDbCircle
 10
315.374539
 20
-87.16800599999999
 30
0.0
 40
0.9999939454881713
100
AcDbArc
 50
270.0000573
 51
315.00004051
  0
LINE
  5
715
330
1D
100
AcDbEntity
  8
BLACK
  6
Continuous
100
AcDbLine
 10
320.495859
 20
-83.46089099999999
 30
0.0
 11
316.081642
 21
-87.875108
 31
0.0
  0
ARC
  5
716
330
1D
100
AcDbEntity
  8
BLACK
100
AcDbCircle
 10
319.788756
 20
-82.753789
 30
0.0
 40
0.9999940000005
100
AcDbArc
 50
315.00004051
 51
359.9999427
  0
LINE
  5
717
330
1D
100
AcDbEntity
  8
BLACK
  6
Continuous
100
AcDbLine
 10
320.78875
 20
4.36579
 30
0.0
 11
320.78875
 21
-82.75379
 31
0.0
  0
ARC
  5
718
330
1D
100
AcDbEntity
  8
BLACK
100
AcDbCircle
 10
319.788756
 20
4.365788999999999
 30
0.0
 40
0.9999939454881713
100
AcDbArc
 50
0.0000573
 51
45.00004051000001
  0
LINE
  5
719
330
1D
100
AcDbEntity
  8
BLACK
  6
Continuous
100
AcDbLine
 10
316.081647
 20
9.487103
 30
0.0
 11
320.495858
 21
5.072892
 31
0.0
  0
ARC
  5
71A
330
1D
100
AcDbEntity
  8
BLACK
100
AcDbCircle
 10
315.374532
 20
8.77999
 30
0.0
 40
1.0000100000005
100
AcDbArc
 50
44.99991897
 51
89.99994269999999
  0
LINE
  5
71B
330
1D
100
AcDbEntity
  8
BLACK
  6
Continuous
100
AcDbLine
 10
306.888751
 20
9.78
 30
0.0
 11
315.374533
 21
9.78
 31
0.0
  0
ARC
  5
71C
330
1D
100
AcDbEntity
  8
BLACK
100
AcDbCircle
 10
306.888751
 20
11.280001
 30
0.0
 40
1.500001
100
AcDbArc
 50
180.0
 51
270.0
  0
LINE
  5
71D
330
1D
100
AcDbEntity
  8
BLACK
  6
Continuous
100
AcDbLine
 10
305.38875
 20
13.279999
 30
0.0
 11
305.38875
 21
11.280001
 31
0.0
  0
ARC
  5
71E
330
1D
100
AcDbEntity
  8
BLACK
100
AcDbCircle
 10
303.888749
 20
13.279999
 30
0.0
 40
1.500001
100
AcDbArc
 50
0.0
 51
90.0
  0
LINE
  5
71F
330
1D
100
AcDbEntity
  8
BLACK
  6
Continuous
100
AcDbLine
 10
255.889001
 20
14.78
 30
0.0
 11
303.888749
 21
14.78
 31
0.0
  0
ARC
  5
720
330
1D
100
AcDbEntity
  8
BLACK
100
AcDbCircle
 10
255.889001
 20
13.279999
 30
0.0
 40
1.500001
100
AcDbArc
 50
90.0
 51
180.0
  0
LINE
  5
721
330
1D
100
AcDbEntity
  8
BLACK
  6
Continuous
100
AcDbLine
 10
254.389
 20
11.280001
 30
0.0
 11
254.389
 21
13.279999
 31
0.0
  0
ARC
  5
722
330
1D
100
AcDbEntity
  8
BLACK
100
AcDbCircle
 10
252.888999
 20
11.280001
 30
0.0
 40
1.500001
100
AcDbArc
 50
270.0
 51
0.0
  0
LINE
  5
723
330
1D
100
AcDbEntity
  8
BLACK
  6
Continuous
100
AcDbLine
 10
217.852668
 20
9.78
 30
0.0
 11
252.888999
 21
9.78
 31
0.0
  0
ARC
  5
724
330
1D
100
AcDbEntity
  8
BLACK
100
AcDbCircle
 10
217.852668
 20
11.280001
 30
0.0
 40
1.500001
100
AcDbArc
 50
180.0
 51
270.0
  0
LINE
  5
725
330
1D
100
AcDbEntity
  8
BLACK
  6
Continuous
100
AcDbLine
 10
216.352667
 20
13.279999
 30
0.0
 11
216.352667
 21
11.280001
 31
0.0
  0
ARC
  5
726
330
1D
100
AcDbEntity
  8
BLACK
100
AcDbCircle
 10
74.47
 20
-88.6118
 30
0.0
 40
0.4999684494545631
100
AcDbArc
 50
257.99996199
 51
348.00003347
  0
LINE
  5
771
330
1D
100
AcDbEntity
  8
BLACK
  6
Continuous
100
AcDbLine
 10
271.999999
 20
2.835
 30
0.0
 11
271.999999
 21
-7.115000999999999
 31
0.0
  0
LINE
  5
772
330
1D
100
AcDbEntity
  8
BLACK
  6
Continuous
100
AcDbLine
 10
284.624999
 20
4.91
 30
0.0
 11
274.074998
 21
4.91
 31
0.0
  0
LINE
  5
773
330
1D
100
AcDbEntity
  8
BLACK
  6
Continuous
100
AcDbLine
 10
284.624999
 20
-9.19
 30
0.0
 11
274.074999
 21
-9.19
 31
0.0
  0
LINE
  5
774
330
1D
100
AcDbEntity
  8
BLACK
  6
Continuous
100
AcDbLine
 10
286.699999
 20
2.835
 30
0.0
 11
286.699999
 21
-7.114999999999999
 31
0.0
  0
ARC
  5
775
330
1D
100
AcDbEntity
  8
BLACK
100
AcDbCircle
 10
274.075003
 20
2.834996
 30
0.0
 40
2.075004000003855
100
AcDbArc
 50
90.00013806
 51
179.99988955
  0
ARC
  5
776
330
1D
100
AcDbEntity
  8
BLACK
100
AcDbCircle
 10
274.075001
 20
-7.114998
 30
0.0
 40
2.075002000000964
100
AcDbArc
 50
180.00008284
 51
269.99994478
  0
ARC
  5
777
330
1D
100
AcDbEntity
  8
BLACK
100
AcDbCircle
 10
284.624999
 20
2.835
 30
0.0
 40
2.075
100
AcDbArc
 50
0.0
 51
90.0
  0
ARC
  5
778
330
1D
100
AcDbEntity
  8
BLACK
100
AcDbCircle
 10
284.624999
 20
-7.114999999999999
 30
0.0
 40
2.075
100
AcDbArc
 50
270.0
 51
0.0
  0
LINE
  5
779
330
1D
100
AcDbEntity
  8
BLACK
  6
Continuous
100
AcDbLine
 10
291.049999
 20
2.835001
 30
0.0
 11
291.049999
 21
-7.114999999999999
 31
0.0
  0
LINE
  5
77A
330
1D
100
AcDbEntity
  8
BLACK
  6
Continuous
100
AcDbLine
 10
303.674999
 20
4.910000999999999
 30
0.0
 11
293.124998
 21
4.910000999999999
 31
0.0
  0
LINE
  5
77B
330
1D
100
AcDbEntity
  8
BLACK
  6
Continuous
100
AcDbLine
 10
303.674999
 20
-9.189999
 30
0.0
 11
293.124999
 21
-9.189999
 31
0.0
  0
LINE
  5
77C
330
1D
100
AcDbEntity
  8
BLACK
  6
Continuous
100
AcDbLine
 10
305.749999
 20
2.835001
 30
0.0
 11
305.749999
 21
-7.114999
 31
0.0
  0
ARC
  5
77D
330
1D
100
AcDbEntity
  8
BLACK
100
AcDbCircle
 10
293.125003
 20
2.834997
 30
0.0
 40
2.075004000003855
100
AcDbArc
 50
90.00013806
 51
179.99988955
  0
ARC
  5
77E
330
1D
100
AcDbEntity
  8
BLACK
100
AcDbCircle
 10
293.125001
 20
-7.114997
 30
0.0
 40
2.075002000000964
100
AcDbArc
 50
180.00008284
 51
269.99994478
  0
ARC
  5
77F
330
1D
100
AcDbEntity
  8
BLACK
100
AcDbCircle
 10
303.674999
 20
2.835001
 30
0.0
 40
2.075
100
AcDbArc
 50
0.0
 51
90.0
  0
ARC
  5
780
330
1D
100
AcDbEntity
  8
BLACK
100
AcDbCircle
 10
303.674999
 20
-7.114999
 30
0.0
 40
2.075
100
AcDbArc
 50
270.0
 51
0.0
  0
LINE
  5
781
330
1D
100
AcDbEntity
  8
BLACK
  6
Continuous
100
AcDbLine
 10
278.264487
 20
-62.54044099999999
 30
0.0
 11
278.264487
 21
-54.939701
 31
0.0
  0
LINE
  5
782
330
1D
100
AcDbEntity
  8
BLACK
  6
Continuous
100
AcDbLine
 10
279.701514
 20
-53.514561
 30
0.0
 11
280.555077
 21
-53.514561
 31
0.0
  0
LINE
  5
783
330
1D
100
AcDbEntity
  8
BLACK
  6
Continuous
100
AcDbLine
 10
280.093577
 20
-63.965441
 30
0.0
 11
279.689477
 21
-63.965441
 31
0.0
  0
LINE
  5
784
330
1D
100
AcDbEntity
  8
BLACK
  6
Continuous
100
AcDbLine
 10
280.555077
 20
-53.514549
 30
0.0
 11
280.555077
 21
-53.514561
 31
0.0
  0
LINE
  5
785
330
1D
100
AcDbEntity
  8
BLACK
  6
Continuous
100
AcDbLine
 10
282.412377
 20
-52.262401
 30
0.0
 11
306.267577
 21
-52.262401
 31
0.0
  0
LINE
  5
786
330
1D
100
AcDbEntity
  8
BLACK
  6
Continuous
100
AcDbLine
 10
282.412377
 20
-52.262412
 30
0.0
 11
282.412377
 21
-52.262401
 31
0.0
  0
LINE
  5
787
330
1D
100
AcDbEntity
  8
BLACK
  6
Continuous
100
AcDbLine
 10
305.215427
 20
-66.301911
 30
0.0
 11
283.464577
 21
-66.301911
 31
0.0
  0
LINE
  5
788
330
1D
100
AcDbEntity
  8
BLACK
  6
Continuous
100
AcDbLine
 10
308.124777
 20
-53.514561
 30
0.0
 11
308.990377
 21
-53.514561
 31
0.0
  0
LINE
  5
789
330
1D
100
AcDbEntity
  8
BLACK
  6
Continuous
100
AcDbLine
 10
308.97846
 20
-63.965441
 30
0.0
 11
308.586327
 21
-63.965441
 31
0.0
  0
LINE
  5
78A
330
1D
100
AcDbEntity
  8
BLACK
  6
Continuous
100
AcDbLine
 10
310.415367
 20
-54.939561
 30
0.0
 11
310.415367
 21
-62.540401
 31
0.0
  0
ARC
  5
78B
330
1D
100
AcDbEntity
  8
BLACK
100
AcDbCircle
 10
279.689569
 20
-54.939593
 30
0.0
 40
1.425082004092396
100
AcDbArc
 50
89.51974267000003
 51
180.00434217
  0
ARC
  5
78C
330
1D
100
AcDbEntity
  8
BLACK
100
AcDbCircle
 10
279.689488
 20
-62.54044
 30
0.0
 40
1.425001000042456
100
AcDbArc
 50
180.00004021
 51
269.99955772
  0
ARC
  5
78D
330
1D
100
AcDbEntity
  8
BLACK
100
AcDbCircle
 10
280.093553
 20
-65.690349
 30
0.0
 40
1.724908000166965
100
AcDbArc
 50
20.54547839
 51
89.9992028
  0
ARC
  5
78E
330
1D
100
AcDbEntity
  8
BLACK
100
AcDbCircle
 10
280.555126
 20
-52.586172
 30
0.0
 40
0.9283764359148717
100
AcDbArc
 50
269.99697591
 51
337.97782841
  0
ARC
  5
78F
330
1D
100
AcDbEntity
  8
BLACK
100
AcDbCircle
 10
282.412276
 20
-53.337352
 30
0.0
 40
1.074940192811674
100
AcDbArc
 50
89.99461656
 51
157.97750247
  0
ARC
  5
790
330
1D
100
AcDbEntity
  8
BLACK
100
AcDbCircle
 10
283.464464
 20
-64.42691599999999
 30
0.0
 40
1.874995003405076
100
AcDbArc
 50
200.54692151
 51
270.00345303
  0
ARC
  5
791
330
1D
100
AcDbEntity
  8
BLACK
100
AcDbCircle
 10
306.267542
 20
-53.337391
 30
0.0
 40
1.074990000569773
100
AcDbArc
 50
22.02370504
 51
89.99813454
  0
ARC
  5
792
330
1D
100
AcDbEntity
  8
BLACK
100
AcDbCircle
 10
305.215342
 20
-64.42683099999999
 30
0.0
 40
1.875082291400833
100
AcDbArc
 50
270.0025973
 51
339.45098232
  0
ARC
  5
793
330
1D
100
AcDbEntity
  8
BLACK
100
AcDbCircle
 10
308.586332
 20
-65.690381
 30
0.0
 40
1.724936068561673
100
AcDbArc
 50
90.00016608000001
 51
159.45408213
  0
ARC
  5
794
330
1D
100
AcDbEntity
  8
BLACK
100
AcDbCircle
 10
308.124802
 20
-52.586101
 30
0.0
 40
0.9284600003365787
100
AcDbArc
 50
202.02452102
 51
269.99845724
  0
ARC
  5
795
330
1D
100
AcDbEntity
  8
BLACK
100
AcDbCircle
 10
308.990402
 20
-54.939501
 30
0.0
 40
1.424940000219307
100
AcDbArc
 50
359.99758749
 51
90.00100523000002
  0
ARC
  5
796
330
1D
100
AcDbEntity
  8
BLACK
100
AcDbCircle
 10
308.990242
 20
-62.540361
 30
0.0
 40
1.425125000561354
100
AcDbArc
 50
269.52631186
 51
359.99839184
  0
LINE
  5
799
330
1D
100
AcDbEntity
  8
BLACK
  6
Continuous
100
AcDbLine
 10
88.311737
 20
-86.697266
 30
0.0
 11
89.89202
 21
-79.26262
 31
0.0
  0
LINE
  5
79A
330
1D
100
AcDbEntity
  8
BLACK
  6
Continuous
100
AcDbLine
 10
91.593948
 20
-78.167397
 30
0.0
 11
92.42885799999999
 21
-78.34486299999999
 31
0.0
  0
LINE
  5
79B
330
1D
100
AcDbEntity
  8
BLACK
  6
Continuous
100
AcDbLine
 10
89.804583
 20
-88.471415
 30
0.0
 11
89.409313
 21
-88.38739799999999
 31
0.0
  0
LINE
  5
79C
330
1D
100
AcDbEntity
  8
BLACK
  6
Continuous
100
AcDbLine
 10
92.428861
 20
-78.34485099999999
 30
0.0
 11
92.42885799999999
 21
-78.34486299999999
 31
0.0
  0
LINE
  5
79D
330
1D
100
AcDbEntity
  8
BLACK
  6
Continuous
100
AcDbLine
 10
94.50591
 20
-77.50622
 30
0.0
 11
117.839817
 21
-82.46599499999999
 31
0.0
  0
LINE
  5
79E
330
1D
100
AcDbEntity
  8
BLACK
  6
Continuous
100
AcDbLine
 10
94.50590799999999
 20
-77.506231
 30
0.0
 11
94.50591
 21
-77.50622
 31
0.0
  0
LINE
  5
79F
330
1D
100
AcDbEntity
  8
BLACK
  6
Continuous
100
AcDbLine
 10
113.891681
 20
-95.97995399999999
 30
0.0
 11
92.61613899999999
 21
-91.457698
 31
0.0
  0
LINE
  5
7A0
330
1D
100
AcDbEntity
  8
BLACK
  6
Continuous
100
AcDbLine
 10
119.396094
 20
-84.076926
 30
0.0
 11
120.242779
 21
-84.256894
 31
0.0
  0
LINE
  5
7A1
330
1D
100
AcDbEntity
  8
BLACK
  6
Continuous
100
AcDbLine
 10
118.058262
 20
-94.47691999999999
 30
0.0
 11
117.674698
 21
-94.39539099999999
 31
0.0
  0
LINE
  5
7A2
330
1D
100
AcDbEntity
  8
BLACK
  6
Continuous
100
AcDbLine
 10
121.340355
 20
-85.94702699999999
 30
0.0
 11
119.760052
 21
-93.38176999999999
 31
0.0
  0
ARC
  5
7A3
330
1D
100
AcDbEntity
  8
BLACK
100
AcDbCircle
 10
91.285983
 20
-79.55880599999999
 30
0.0
 40
1.425082100078799
100
AcDbArc
 50
77.51974185
 51
168.00432524
  0
ARC
  5
7A4
330
1D
100
AcDbEntity
  8
BLACK
100
AcDbCircle
 10
89.70559899999999
 20
-86.993539
 30
0.0
 40
1.425001159886194
100
AcDbArc
 50
168.00005955
 51
257.9995232
  0
ARC
  5
7A5
330
1D
100
AcDbEntity
  8
BLACK
100
AcDbCircle
 10
89.445931
 20
-90.158625
 30
0.0
 40
1.724908357334963
100
AcDbArc
 50
8.54548698
 51
77.99920581
  0
ARC
  5
7A6
330
1D
100
AcDbEntity
  8
BLACK
100
AcDbCircle
 10
92.621929
 20
-77.43677199999999
 30
0.0
 40
0.9283762644989367
100
AcDbArc
 50
257.9969906800001
 51
325.97784425
  0
ARC
  5
7A7
330
1D
100
AcDbEntity
  8
BLACK
100
AcDbCircle
 10
94.28231699999999
 20
-78.55766
 30
0.0
 40
1.074940539983957
100
AcDbArc
 50
77.99463687
 51
145.97750227
  0
ARC
  5
7A8
330
1D
100
AcDbEntity
  8
BLACK
100
AcDbCircle
 10
93.005862
 20
-89.62365299999999
 30
0.0
 40
1.874994687660208
100
AcDbArc
 50
188.546909
 51
258.0034463
  0
ARC
  5
7A9
330
1D
100
AcDbEntity
  8
BLACK
100
AcDbCircle
 10
117.61628
 20
-83.517487
 30
0.0
 40
1.074990333181187
100
AcDbArc
 50
10.02372311
 51
77.99815049999998
  0
ARC
  5
7AA
330
1D
100
AcDbEntity
  8
BLACK
100
AcDbCircle
 10
114.281449
 20
-94.145831
 30
0.0
 40
1.875082643488548
100
AcDbArc
 50
258.00259669
 51
327.45097307
  0
ARC
  5
7AB
330
1D
100
AcDbEntity
  8
BLACK
100
AcDbCircle
 10
117.316068
 20
-96.08263799999999
 30
0.0
 40
1.724935945343478
100
AcDbArc
 50
78.00017613
 51
147.45408252
  0
ARC
  5
7AC
330
1D
100
AcDbEntity
  8
BLACK
100
AcDbCircle
 10
119.589156
 20
-83.16875999999999
 30
0.0
 40
0.9284602411519838
100
AcDbArc
 50
190.02453805
 51
257.99846936
  0
ARC
  5
7AD
330
1D
100
AcDbEntity
  8
BLACK
100
AcDbCircle
 10
119.946541
 20
-85.650701
 30
0.0
 40
1.424940316607331
100
AcDbArc
 50
347.9975738
 51
78.00097632
  0
ARC
  5
7AE
330
1D
100
AcDbEntity
  8
BLACK
100
AcDbCircle
 10
118.366077
 20
-93.085431
 30
0.0
 40
1.425125644827852
100
AcDbArc
 50
257.526325
 51
347.99840862
  0
LINE
  5
7B1
330
1D
100
AcDbEntity
  8
BLACK
  6
Continuous
100
AcDbLine
 10
128.864974
 20
-86.905565
 30
0.0
 11
126.796252
 21
-96.638134
 31
0.0
  0
LINE
  5
7B2
330
1D
100
AcDbEntity
  8
BLACK
  6
Continuous
100
AcDbLine
 10
141.645504
 20
-87.500794
 30
0.0
 11
131.326046
 21
-85.30732499999999
 31
0.0
  0
LINE
  5
7B3
330
1D
100
AcDbEntity
  8
BLACK
  6
Continuous
100
AcDbLine
 10
138.713949
 20
-101.292675
 30
0.0
 11
128.394492
 21
-99.099206
 31
0.0
  0
LINE
  5
7B4
330
1D
100
AcDbEntity
  8
BLACK
  6
Continuous
100
AcDbLine
 10
143.243744
 20
-89.961867
 30
0.0
 11
141.175022
 21
-99.694435
 31
0.0
  0
ARC
  5
7B5
330
1D
100
AcDbEntity
  8
BLACK
100
AcDbCircle
 10
130.894633
 20
-87.336986
 30
0.0
 40
2.075003550725155
100
AcDbArc
 50
78.00012866
 51
167.9999011
  0
ARC
  5
7B6
330
1D
100
AcDbEntity
  8
BLACK
100
AcDbCircle
 10
128.825911
 20
-97.069549
 30
0.0
 40
2.075001178604484
100
AcDbArc
 50
168.00006316
 51
257.9999436399999
  0
ARC
  5
7B7
330
1D
100
AcDbEntity
  8
BLACK
100
AcDbCircle
 10
141.214087
 20
-89.53045
 30
0.0
 40
2.074999784632519
100
AcDbArc
 50
347.99999766
 51
77.99999192
  0
ARC
  5
7B8
330
1D
100
AcDbEntity
  8
BLACK
100
AcDbCircle
 10
139.145366
 20
-99.263018
 30
0.0
 40
2.074999784632519
100
AcDbArc
 50
257.99999766
 51
347.99999192
  0
CIRCLE
  5
7BD
330
1D
100
AcDbEntity
  8
BLACK
100
AcDbCircle
 10
38.929999
 20
-66.489999
 30
0.0
 40
1.325
  0
CIRCLE
  5
7BE
330
1D
100
AcDbEntity
  8
BLACK
100
AcDbCircle
 10
38.929999
 20
-66.489999
 30
0.0
 40
1.775
  0
CIRCLE
  5
7BF
330
1D
100
AcDbEntity
  8
BLACK
100
AcDbCircle
 10
6.129999
 20
-66.489999
 30
0.0
 40
1.325
  0
CIRCLE
  5
7C0
330
1D
100
AcDbEntity
  8
BLACK
100
AcDbCircle
 10
6.129999
 20
-66.489999
 30
0.0
 40
1.775
  0
CIRCLE
  5
7C1
330
1D
100
AcDbEntity
  8
BLACK
100
AcDbCircle
 10
201.008584
 20
-91.53291
 30
0.0
 40
1.325
  0
CIRCLE
  5
7C2
330
1D
100
AcDbEntity
  8
BLACK
100
AcDbCircle
 10
201.008584
 20
-91.53291
 30
0.0
 40
1.775
  0
CIRCLE
  5
7C3
330
1D
100
AcDbEntity
  8
BLACK
100
AcDbCircle
 10
168.925343
 20
-98.352413
 30
0.0
 40
1.325
  0
CIRCLE
  5
7C4
330
1D
100
AcDbEntity
  8
BLACK
100
AcDbCircle
 10
168.925343
 20
-98.352413
 30
0.0
 40
1.775
  0
CIRCLE
  5
7C5
330
1D
100
AcDbEntity
  8
BLACK
100
AcDbCircle
 10
311.33625
 20
-47.44
 30
0.0
 40
1.325
  0
CIRCLE
  5
7C6
330
1D
100
AcDbEntity
  8
BLACK
100
AcDbCircle
 10
311.33625
 20
-47.44
 30
0.0
 40
1.775
  0
CIRCLE
  5
7C7
330
1D
100
AcDbEntity
  8
BLACK
100
AcDbCircle
 10
278.53625
 20
-47.44
 30
0.0
 40
1.325
  0
CIRCLE
  5
7C8
330
1D
100
AcDbEntity
  8
BLACK
100
AcDbCircle
 10
278.53625
 20
-47.44
 30
0.0
 40
1.775
  0
CIRCLE
  5
7C9
330
1D
100
AcDbEntity
  8
BLACK
100
AcDbCircle
 10
293.040595
 20
-78.388002
 30
0.0
 40
1.325
  0
CIRCLE
  5
7CA
330
1D
100
AcDbEntity
  8
BLACK
100
AcDbCircle
 10
293.040595
 20
-78.388002
 30
0.0
 40
1.775
  0
CIRCLE
  5
7CB
330
1D
100
AcDbEntity
  8
BLACK
100
AcDbCircle
 10
312.090643
 20
-78.388004
 30
0.0
 40
1.325
  0
CIRCLE
  5
7CC
330
1D
100
AcDbEntity
  8
BLACK
100
AcDbCircle
 10
312.090643
 20
-78.388004
 30
0.0
 40
1.775
  0
CIRCLE
  5
7CD
330
1D
100
AcDbEntity
  8
BLACK
100
AcDbCircle
 10
172.485762
 20
-70.751792
 30
0.0
 40
1.325
  0
CIRCLE
  5
7CE
330
1D
100
AcDbEntity
  8
BLACK
100
AcDbCircle
 10
172.485762
 20
-70.751792
 30
0.0
 40
1.775
  0
CIRCLE
  5
7CF
330
1D
100
AcDbEntity
  8
BLACK
100
AcDbCircle
 10
169.225253
 20
-32.491899
 30
0.0
 40
1.325
  0
CIRCLE
  5
7D0
330
1D
100
AcDbEntity
  8
BLACK
100
AcDbCircle
 10
169.225253
 20
-32.491899
 30
0.0
 40
1.775
  0
CIRCLE
  5
7D1
330
1D
100
AcDbEntity
  8
BLACK
100
AcDbCircle
 10
206.493176
 20
-24.57036
 30
0.0
 40
1.325
  0
CIRCLE
  5
7D2
330
1D
100
AcDbEntity
  8
BLACK
100
AcDbCircle
 10
206.493176
 20
-24.57036
 30
0.0
 40
1.775
  0
CIRCLE
  5
7D3
330
1D
100
AcDbEntity
  8
BLACK
100
AcDbCircle
 10
233.746895
 20
-38.259644
 30
0.0
 40
1.325
  0
CIRCLE
  5
7D4
330
1D
100
AcDbEntity
  8
BLACK
100
AcDbCircle
 10
233.746895
 20
-38.259644
 30
0.0
 40
1.775
  0
CIRCLE
  5
7D5
330
1D
100
AcDbEntity
  8
BLACK
100
AcDbCircle
 10
271.7175
 20
-59.290004
 30
0.0
 40
1.325
  0
CIRCLE
  5
7D6
330
1D
100
AcDbEntity
  8
BLACK
100
AcDbCircle
 10
271.7175
 20
-59.290004
 30
0.0
 40
1.775
  0
CIRCLE
  5
7D7
330
1D
100
AcDbEntity
  8
BLACK
100
AcDbCircle
 10
285.896291
 20
-21.190002
 30
0.0
 40
1.325
  0
CIRCLE
  5
7D8
330
1D
100
AcDbEntity
  8
BLACK
100
AcDbCircle
 10
285.896291
 20
-21.190002
 30
0.0
 40
1.775
  0
CIRCLE
  5
7D9
330
1D
100
AcDbEntity
  8
BLACK
100
AcDbCircle
 10
174.585759
 20
-11.881792
 30
0.0
 40
1.325
  0
CIRCLE
  5
7DA
330
1D
100
AcDbEntity
  8
BLACK
100
AcDbCircle
 10
174.585759
 20
-11.881792
 30
0.0
 40
1.775
  0
CIRCLE
  5
7DB
330
1D
100
AcDbEntity
  8
BLACK
100
AcDbCircle
 10
233.196897
 20
-78.859641
 30
0.0
 40
1.325
  0
CIRCLE
  5
7DC
330
1D
100
AcDbEntity
  8
BLACK
100
AcDbCircle
 10
233.196897
 20
-78.859641
 30
0.0
 40
1.775
  0
CIRCLE
  5
7DD
330
1D
100
AcDbEntity
  8
BLACK
100
AcDbCircle
 10
230.487031
 20
0.000389
 30
0.0
 40
1.325
  0
CIRCLE
  5
7DE
330
1D
100
AcDbEntity
  8
BLACK
100
AcDbCircle
 10
230.487031
 20
0.000389
 30
0.0
 40
1.775
  0
CIRCLE
  5
7DF
330
1D
100
AcDbEntity
  8
BLACK
100
AcDbCircle
 10
159.212005
 20
-54.102521
 30
0.0
 40
1.325
  0
CIRCLE
  5
7E0
330
1D
100
AcDbEntity
  8
BLACK
100
AcDbCircle
 10
159.212005
 20
-54.102521
 30
0.0
 40
1.775
  0
CIRCLE
  5
7E1
330
1D
100
AcDbEntity
  8
BLACK
100
AcDbCircle
 10
209.75328
 20
-62.830337
 30
0.0
 40
1.325
  0
CIRCLE
  5
7E2
330
1D
100
AcDbEntity
  8
BLACK
100
AcDbCircle
 10
209.75328
 20
-62.830337
 30
0.0
 40
1.775
  0
CIRCLE
  5
7E3
330
1D
100
AcDbEntity
  8
BLACK
100
AcDbCircle
 10
144.34401
 20
-95.281876
 30
0.0
 40
1.325
  0
CIRCLE
  5
7E4
330
1D
100
AcDbEntity
  8
BLACK
100
AcDbCircle
 10
144.34401
 20
-95.281876
 30
0.0
 40
1.775
  0
CIRCLE
  5
7E5
330
1D
100
AcDbEntity
  8
BLACK
100
AcDbCircle
 10
120.56427
 20
-70.75179
 30
0.0
 40
1.325
  0
CIRCLE
  5
7E6
330
1D
100
AcDbEntity
  8
BLACK
100
AcDbCircle
 10
120.56427
 20
-70.75179
 30
0.0
 40
1.775
  0
CIRCLE
  5
7E7
330
1D
100
AcDbEntity
  8
BLACK
100
AcDbCircle
 10
146.539123
 20
-76.27291799999999
 30
0.0
 40
1.325
  0
CIRCLE
  5
7E8
330
1D
100
AcDbEntity
  8
BLACK
100
AcDbCircle
 10
146.539123
 20
-76.27291799999999
 30
0.0
 40
1.775
  0
CIRCLE
  5
7E9
330
1D
100
AcDbEntity
  8
BLACK
100
AcDbCircle
 10
90.526893
 20
-5.940363
 30
0.0
 40
1.325
  0
CIRCLE
  5
7EA
330
1D
100
AcDbEntity
  8
BLACK
100
AcDbCircle
 10
90.526893
 20
-5.940363
 30
0.0
 40
1.775
  0
CIRCLE
  5
7EB
330
1D
100
AcDbEntity
  8
BLACK
100
AcDbCircle
 10
133.848036
 20
-54.102517
 30
0.0
 40
1.325
  0
CIRCLE
  5
7EC
330
1D
100
AcDbEntity
  8
BLACK
100
AcDbCircle
 10
133.848036
 20
-54.102517
 30
0.0
 40
1.775
  0
CIRCLE
  5
7ED
330
1D
100
AcDbEntity
  8
BLACK
100
AcDbCircle
 10
7.644799
 20
-40.240002
 30
0.0
 40
1.325
  0
CIRCLE
  5
7EE
330
1D
100
AcDbEntity
  8
BLACK
100
AcDbCircle
 10
7.644799
 20
-40.240002
 30
0.0
 40
1.775
  0
CIRCLE
  5
7EF
330
1D
100
AcDbEntity
  8
BLACK
100
AcDbCircle
 10
9.332478
 20
-19.999368
 30
0.0
 40
1.325
  0
CIRCLE
  5
7F0
330
1D
100
AcDbEntity
  8
BLACK
100
AcDbCircle
 10
9.332478
 20
-19.999368
 30
0.0
 40
1.775
  0
CIRCLE
  5
7F1
330
1D
100
AcDbEntity
  8
BLACK
100
AcDbCircle
 10
32.545039
 20
-2.139999
 30
0.0
 40
1.325
  0
CIRCLE
  5
7F2
330
1D
100
AcDbEntity
  8
BLACK
100
AcDbCircle
 10
32.545039
 20
-2.139999
 30
0.0
 40
1.775
  0
CIRCLE
  5
7F3
330
1D
100
AcDbEntity
  8
BLACK
100
AcDbCircle
 10
114.514275
 20
-30.511791
 30
0.0
 40
1.325
  0
CIRCLE
  5
7F4
330
1D
100
AcDbEntity
  8
BLACK
100
AcDbCircle
 10
114.514275
 20
-30.511791
 30
0.0
 40
1.775
  0
CIRCLE
  5
7F5
330
1D
100
AcDbEntity
  8
BLACK
100
AcDbCircle
 10
77.946893
 20
-42.220366
 30
0.0
 40
1.325
  0
CIRCLE
  5
7F6
330
1D
100
AcDbEntity
  8
BLACK
100
AcDbCircle
 10
77.946893
 20
-42.220366
 30
0.0
 40
1.775
  0
CIRCLE
  5
7F7
330
1D
100
AcDbEntity
  8
BLACK
100
AcDbCircle
 10
58.61313699999999
 20
-18.62964
 30
0.0
 40
1.325
  0
CIRCLE
  5
7F8
330
1D
100
AcDbEntity
  8
BLACK
100
AcDbCircle
 10
58.61313699999999
 20
-18.62964
 30
0.0
 40
1.775
  0
CIRCLE
  5
7F9
330
1D
100
AcDbEntity
  8
BLACK
100
AcDbCircle
 10
146.428168
 20
-17.822555
 30
0.0
 40
1.325
  0
CIRCLE
  5
7FA
330
1D
100
AcDbEntity
  8
BLACK
100
AcDbCircle
 10
146.428168
 20
-17.822555
 30
0.0
 40
1.775
  0
CIRCLE
  5
7FB
330
1D
100
AcDbEntity
  8
BLACK
100
AcDbCircle
 10
24.915046
 20
-78.340008
 30
0.0
 40
1.325
  0
CIRCLE
  5
7FC
330
1D
100
AcDbEntity
  8
BLACK
100
AcDbCircle
 10
24.915046
 20
-78.340008
 30
0.0
 40
1.775
  0
CIRCLE
  5
7FD
330
1D
100
AcDbEntity
  8
BLACK
100
AcDbCircle
 10
5.861241
 20
-78.340004
 30
0.0
 40
1.325
  0
CIRCLE
  5
7FE
330
1D
100
AcDbEntity
  8
BLACK
100
AcDbCircle
 10
5.861241
 20
-78.340004
 30
0.0
 40
1.775
  0
CIRCLE
  5
7FF
330
1D
100
AcDbEntity
  8
BLACK
100
AcDbCircle
 10
59.85314
 20
-78.85963799999999
 30
0.0
 40
1.325
  0
CIRCLE
  5
800
330
1D
100
AcDbEntity
  8
BLACK
100
AcDbCircle
 10
59.85314
 20
-78.85963799999999
 30
0.0
 40
1.775
  0
CIRCLE
  5
801
330
1D
100
AcDbEntity
  8
BLACK
100
AcDbCircle
 10
31.457729
 20
-40.239999
 30
0.0
 40
1.325
  0
CIRCLE
  5
802
330
1D
100
AcDbEntity
  8
BLACK
100
AcDbCircle
 10
31.457729
 20
-40.239999
 30
0.0
 40
1.775
  0
CIRCLE
  5
803
330
1D
100
AcDbEntity
  8
BLACK
100
AcDbCircle
 10
-9.525008999999999
 20
0.0
 30
0.0
 40
1.325
  0
CIRCLE
  5
804
330
1D
100
AcDbEntity
  8
BLACK
100
AcDbCircle
 10
-9.525008999999999
 20
0.0
 30
0.0
 40
1.775
  0
CIRCLE
  5
805
330
1D
100
AcDbEntity
  8
BLACK
100
AcDbCircle
 10
307.925077
 20
-2.139998
 30
0.0
 40
1.325
  0
CIRCLE
  5
806
330
1D
100
AcDbEntity
  8
BLACK
100
AcDbCircle
 10
307.925077
 20
-2.139998
 30
0.0
 40
1.775
  0
CIRCLE
  5
807
330
1D
100
AcDbEntity
  8
BLACK
100
AcDbCircle
 10
269.824964
 20
-2.139991
 30
0.0
 40
1.325
  0
CIRCLE
  5
808
330
1D
100
AcDbEntity
  8
BLACK
100
AcDbCircle
 10
269.824964
 20
-2.139991
 30
0.0
 40
1.775
  0
CIRCLE
  5
809
330
1D
100
AcDbEntity
  8
BLACK
100
AcDbCircle
 10
277.940002
 20
-66.49000099999999
 30
0.0
 40
1.325
  0
CIRCLE
  5
80A
330
1D
100
AcDbEntity
  8
BLACK
100
AcDbCircle
 10
277.940002
 20
-66.49000099999999
 30
0.0
 40
1.775
  0
CIRCLE
  5
80B
330
1D
100
AcDbEntity
  8
BLACK
100
AcDbCircle
 10
310.740002
 20
-66.49000099999999
 30
0.0
 40
1.325
  0
CIRCLE
  5
80C
330
1D
100
AcDbEntity
  8
BLACK
100
AcDbCircle
 10
310.740002
 20
-66.49000099999999
 30
0.0
 40
1.775
  0
CIRCLE
  5
80D
330
1D
100
AcDbEntity
  8
BLACK
100
AcDbCircle
 10
87.173183
 20
-90.493054
 30
0.0
 40
1.325
  0
CIRCLE
  5
80E
330
1D
100
AcDbEntity
  8
BLACK
100
AcDbCircle
 10
87.173183
 20
-90.493054
 30
0.0
 40
1.775
  0
CIRCLE
  5
80F
330
1D
100
AcDbEntity
  8
BLACK
100
AcDbCircle
 10
119.256424
 20
-97.312557
 30
0.0
 40
1.325
  0
CIRCLE
  5
810
330
1D
100
AcDbEntity
  8
BLACK
100
AcDbCircle
 10
119.256424
 20
-97.312557
 30
0.0
 40
1.775
  0
ENDSEC
  0
SECTION
  2
OBJECTS
  0
DICTIONARY
  5
C
330
0
100
AcDbDictionary
281
     1
  3
ACAD_COLOR
350
76C
  3
ACAD_DETAILVIEWSTYLE
350
767
  3
ACAD_GROUP
350
D
  3
ACAD_LAYOUT
350
1A
  3
ACAD_MATERIAL
350
757
  3
ACAD_MLEADERSTYLE
350
75D
  3
ACAD_MLINESTYLE
350
17
  3
ACAD_PLOTSETTINGS
350
19
  3
ACAD_PLOTSTYLENAME
350
E
  3
ACAD_SCALELIST
350
728
  3
ACAD_SECTIONVIEWSTYLE
350
768
  3
ACAD_TABLESTYLE
350
75B
  3
ACAD_VISUALSTYLE
350
73E
  3
AcDbVariableDictionary
350
75F
  3
ACDB_RECOMPOSE_DATA
350
813
  3
EZDXF_META
350
7BB
  0
DICTIONARY
  5
76C
330
C
100
AcDbDictionary
281
     1
  0
DICTIONARY
  5
767
102
{ACAD_REACTORS
330
C
102
}
330
C
100
AcDbDictionary
281
     1
  0
DICTIONARY
  5
D
102
{ACAD_REACTORS
330
C
102
}
330
C
100
AcDbDictionary
281
     1
  0
DICTIONARY
  5
1A
102
{ACAD_REACTORS
330
C
102
}
330
C
100
AcDbDictionary
281
     1
  3
Layout1
350
1C
  3
Model
350
1E
  0
DICTIONARY
  5
757
102
{ACAD_REACTORS
330
C
102
}
330
C
100
AcDbDictionary
281
     1
  3
ByBlock
350
759
  3
ByLayer
350
758
  3
Global
350
75A
  0
DICTIONARY
  5
75D
102
{ACAD_REACTORS
330
C
102
}
330
C
100
AcDbDictionary
281
     1
  3
Standard
350
75E
  0
DICTIONARY
  5
17
102
{ACAD_REACTORS
330
C
102
}
330
C
100
AcDbDictionary
281
     1
  3
Standard
350
18
  0
DICTIONARY
  5
19
102
{ACAD_REACTORS
330
C
102
}
330
C
100
AcDbDictionary
281
     1
  0
ACDBDICTIONARYWDFLT
  5
E
102
{ACAD_REACTORS
330
C
102
}
330
C
100
AcDbDictionary
281
     1
  3
Normal
350
F
100
AcDbDictionaryWithDefault
340
F
  0
DICTIONARY
  5
728
102
{ACAD_REACTORS
330
C
102
}
330
C
100
AcDbDictionary
281
     1
  3
A0
350
729
  3
A1
350
72A
  3
A2
350
72B
  3
A3
350
72C
  3
A4
350
72D
  3
A5
350
72E
  3
A6
350
72F
  3
A7
350
730
  3
A8
350
731
  3
A9
350
732
  3
B0
350
733
  3
B1
350
734
  3
B2
350
735
  3
B3
350
736
  3
B4
350
737
  3
B5
350
738
  3
B6
350
739
  0
DICTIONARY
  5
768
102
{ACAD_REACTORS
330
C
102
}
330
C
100
AcDbDictionary
281
     1
  0
DICTIONARY
  5
75B
102
{ACAD_REACTORS
330
C
102
}
330
C
100
AcDbDictionary
281
     1
  3
Standard
350
75C
  0
DICTIONARY
  5
73E
102
{ACAD_REACTORS
330
C
102
}
330
C
100
AcDbDictionary
281
     1
  3
2dWireframe
350
743
  3
Basic
350
746
  3
Brighten
350
74A
  3
ColorChange
350
74E
  3
Conceptual
350
748
  3
Dim
350
749
  3
EdgeColorOff
350
751
  3
Facepattern
350
74D
  3
Flat
350
73F
  3
FlatWithEdges
350
740
  3
Gouraud
350
741
  3
GouraudWithEdges
350
742
  3
Hidden
350
745
  3
JitterOff
350
74F
  3
Linepattern
350
74C
  3
OverhangOff
350
750
  3
Realistic
350
747
  3
Shaded
350
756
  3
Shaded with edges
350
755
  3
Shades of Gray
350
752
  3
Sketchy
350
753
  3
Thicken
350
74B
  3
Wireframe
350
744
  3
X-Ray
350
754
  0
DICTIONARY
  5
75F
102
{ACAD_REACTORS
330
C
102
}
330
C
100
AcDbDictionary
281
     1
  3
CANNOSCALE
350
760
  3
CMLEADERSTYLE
350
765
  3
CTABLESTYLE
350
764
  3
MSLTSCALE
350
766
  0
XRECORD
  5
813
102
{ACAD_REACTORS
330
C
102
}
330
C
100
AcDbXrecord
280
     1
 90
        1
330
75C
  0
DICTIONARY
  5
7BB
330
C
100
AcDbDictionary
281
     1
  3
WRITTEN_BY_EZDXF
350
7BC
  0
LAYOUT
  5
1C
102
{ACAD_REACTORS
330
1A
102
}
330
1A
100
AcDbPlotSettings
  1

  2
none_device
  4

  6

 40
0.0
 41
0.0
 42
0.0
 43
0.0
 44
0.0
 45
0.0
 46
0.0
 47
0.0
 48
0.0
 49
0.0
140
0.0
141
0.0
142
1.0
143
1.0
 70
   688
 72
     0
 73
     0
 74
     5
  7

 75
    16
 76
     0
 77
     2
 78
   300
147
1.0
148
0.0
149
0.0
100
AcDbLayout
  1
Layout1
 70
     1
 71
     1
 10
0.0
 20
0.0
 11
12.0
 21
9.0
 12
0.0
 22
0.0
 32
0.0
 14
1.000000000000000E+20
 24
1.000000000000000E+20
 34
1.000000000000000E+20
 15
-1.000000000000000E+20
 25
-1.000000000000000E+20
 35
-1.000000000000000E+20
146
0.0
 13
0.0
 23
0.0
 33
0.0
 16
1.0
 26
0.0
 36
0.0
 17
0.0
 27
1.0
 37
0.0
 76
     0
330
1B
  0
LAYOUT
  5
1E
102
{ACAD_REACTORS
330
1A
102
}
330
1A
100
AcDbPlotSettings
  1

  2
none_device
  4
Letter_(8.50_x_11.00_Inches)
  6

 40
6.35
 41
6.35
 42
6.35000508
 43
6.35000508
 44
215.9
 45
279.4
 46
0.0
 47
0.0
 48
0.0
 49
0.0
140
0.0
141
0.0
142
1.0
143
1.0
 70
  1712
 72
     0
 73
     0
 74
     0
  7

 75
     0
 76
     0
 77
     2
 78
   300
147
1.0
148
0.0
149
0.0
100
AcDbLayout
  1
Model
 70
     1
 71
     0
 10
0.0
 20
0.0
 11
12.0
 21
9.0
 12
0.0
 22
0.0
 32
0.0
 14
1.000000000000000E+20
 24
1.000000000000000E+20
 34
1.000000000000000E+20
 15
-1.000000000000000E+20
 25
-1.000000000000000E+20
 35
-1.000000000000000E+20
146
0.0
 13
0.0
 23
0.0
 33
0.0
 16
1.0
 26
0.0
 36
0.0
 17
0.0
 27
1.0
 37
0.0
 76
     0
330
1D
331
442
  0
MATERIAL
  5
759
102
{ACAD_REACTORS
330
757
102
}
330
757
100
AcDbMaterial
  1
ByBlock
 72
     1
273
     1
 94
      127
  0
MATERIAL
  5
758
102
{ACAD_REACTORS
330
757
102
}
330
757
100
AcDbMaterial
  1
ByLayer
 72
     1
273
     1
 94
      127
  0
MATERIAL
  5
75A
102
{ACAD_REACTORS
330
757
102
}
330
757
100
AcDbMaterial
  1
Global
 72
     1
273
     1
 94
      127
  0
MLEADERSTYLE
  5
75E
102
{ACAD_REACTORS
330
75D
102
}
330
75D
100
AcDbMLeaderStyle
179
     2
170
     2
171
     1
172
     0
 90
        2
 40
0.0
 41
0.0
173
     1
 91
-1056964608
340
14
 92
       -2
290
     1
 42
2.0
291
     1
 43
8.0
  3
Standard
341
0
 44
4.0
300

342
11
174
     1
178
     6
175
     1
176
     0
 93
-1056964608
 45
4.0
292
     0
297
     0
 46
4.0
343
0
 94
-1056964608
 47
1.0
 49
1.0
140
1.0
293
     1
141
0.0
294
     1
177
     0
142
1.0
295
     0
296
     0
143
3.75
271
     0
272
     9
273
     9
298
     0
  0
MLINESTYLE
  5
18
102
{ACAD_REACTORS
330
17
102
}
330
17
100
AcDbMlineStyle
  2
Standard
 70
     0
  3

 62
   256
 51
90.0
 52
90.0
 71
     2
 49
0.5
 62
   256
  6
BYLAYER
 49
-0.5
 62
   256
  6
BYLAYER
  0
ACDBPLACEHOLDER
  5
F
102
{ACAD_REACTORS
330
E
102
}
330
E
  0
SCALE
  5
729
102
{ACAD_REACTORS
330
728
102
}
330
728
100
AcDbScale
 70
     0
300
1:1
140
1.0
141
1.0
290
     1
  0
SCALE
  5
72A
102
{ACAD_REACTORS
330
728
102
}
330
728
100
AcDbScale
 70
     0
300
1:2
140
1.0
141
2.0
290
     0
  0
SCALE
  5
72B
102
{ACAD_REACTORS
330
728
102
}
330
728
100
AcDbScale
 70
     0
300
1:4
140
1.0
141
4.0
290
     0
  0
SCALE
  5
72C
102
{ACAD_REACTORS
330
728
102
}
330
728
100
AcDbScale
 70
     0
300
1:5
140
1.0
141
5.0
290
     0
  0
SCALE
  5
72D
102
{ACAD_REACTORS
330
728
102
}
330
728
100
AcDbScale
 70
     0
300
1:8
140
1.0
141
8.0
290
     0
  0
SCALE
  5
72E
102
{ACAD_REACTORS
330
728
102
}
330
728
100
AcDbScale
 70
     0
300
1:10
140
1.0
141
10.0
290
     0
  0
SCALE
  5
72F
102
{ACAD_REACTORS
330
728
102
}
330
728
100
AcDbScale
 70
     0
300
1:16
140
1.0
141
16.0
290
     0
  0
SCALE
  5
730
102
{ACAD_REACTORS
330
728
102
}
330
728
100
AcDbScale
 70
     0
300
1:20
140
1.0
141
20.0
290
     0
  0
SCALE
  5
731
102
{ACAD_REACTORS
330
728
102
}
330
728
100
AcDbScale
 70
     0
300
1:30
140
1.0
141
30.0
290
     0
  0
SCALE
  5
732
102
{ACAD_REACTORS
330
728
102
}
330
728
100
AcDbScale
 70
     0
300
1:40
140
1.0
141
40.0
290
     0
  0
SCALE
  5
733
102
{ACAD_REACTORS
330
728
102
}
330
728
100
AcDbScale
 70
     0
300
1:50
140
1.0
141
50.0
290
     0
  0
SCALE
  5
734
102
{ACAD_REACTORS
330
728
102
}
330
728
100
AcDbScale
 70
     0
300
1:100
140
1.0
141
100.0
290
     0
  0
SCALE
  5
735
102
{ACAD_REACTORS
330
728
102
}
330
728
100
AcDbScale
 70
     0
300
2:1
140
2.0
141
1.0
290
     0
  0
SCALE
  5
736
102
{ACAD_REACTORS
330
728
102
}
330
728
100
AcDbScale
 70
     0
300
4:1
140
4.0
141
1.0
290
     0
  0
SCALE
  5
737
102
{ACAD_REACTORS
330
728
102
}
330
728
100
AcDbScale
 70
     0
300
8:1
140
8.0
141
1.0
290
     0
  0
SCALE
  5
738
102
{ACAD_REACTORS
330
728
102
}
330
728
100
AcDbScale
 70
     0
300
10:1
140
10.0
141
1.0
290
     0
  0
SCALE
  5
739
102
{ACAD_REACTORS
330
728
102
}
330
728
100
AcDbScale
 70
     0
300
100:1
140
100.0
141
1.0
290
     0
  0
TABLESTYLE
  5
75C
102
{ACAD_REACTORS
330
75B
102
}
102
{ACAD_XDICTIONARY
360
811
102
}
330
75B
100
AcDbTableStyle
  3
Standard
 70
     0
 71
     0
 40
0.06
 41
0.06
280
     0
281
     0
  7
Standard
140
4.5
170
     2
 62
     0
 63
   257
283
     0
 90
        4
 91
        0
  1

274
    -2
284
     1
 64
     0
275
    -2
285
     1
 65
     0
276
    -2
286
     1
 66
     0
277
    -2
287
     1
 67
     0
278
    -2
288
     1
 68
     0
279
    -2
289
     1
 69
     0
  7
Standard
140
6.0
170
     5
 62
     0
 63
   257
283
     0
 90
        4
 91
        0
  1

274
    -2
284
     1
 64
     0
275
    -2
285
     1
 65
     0
276
    -2
286
     1
 66
     0
277
    -2
287
     1
 67
     0
278
    -2
288
     1
 68
     0
279
    -2
289
     1
 69
     0
  7
Standard
140
4.5
170
     5
 62
     0
 63
   257
283
     0
 90
        4
 91
        0
  1

274
    -2
284
     1
 64
     0
275
    -2
285
     1
 65
     0
276
    -2
286
     1
 66
     0
277
    -2
287
     1
 67
     0
278
    -2
288
     1
 68
     0
279
    -2
289
     1
 69
     0
  0
VISUALSTYLE
  5
743
102
{ACAD_REACTORS
330
73E
102
}
330
73E
100
AcDbVisualStyle
  2
2dWireframe
 70
     4
177
     3
291
     0
 70
    58
 90
        0
176
     1
 90
        2
176
     1
 90
        0
176
     1
 90
        0
176
     1
 40
0.6
176
     1
 40
30.0
176
     1
 62
     7
420
 16777215
176
     1
 90
        1
176
     1
 90
        4
176
     1
 62
     7
176
     1
 62
   257
176
     1
 90
        1
176
     1
 90
        1
176
     1
 40
1.0
176
     1
 90
        0
176
     1
 62
   257
176
     1
 40
1.0
176
     1
 90
        1
176
     1
 90
        6
176
     1
 90
        2
176
     1
 62
     7
176
     1
 90
        5
176
     1
 90
        0
176
     1
 90
        0
176
     1
290
     0
176
     1
 90
        1
176
     1
 40
0.0
176
     1
 90
        0
176
     1
290
     1
176
     1
290
     1
176
     1
290
     0
176
     1
290
     0
176
     1
290
     0
176
     1
290
     0
176
     1
290
     0
176
     1
290
     0
176
     1
290
     0
176
     1
 90
       50
176
     1
 40
0.0
176
     1
 40
1.0
176
     1
 90
        0
176
     1
 62
    18
420
        0
176
     1
 90
       50
176
     1
 90
        3
176
     1
 62
     5
420
      255
176
     1
290
     0
176
     1
 90
       50
176
     1
 90
       50
176
     1
 90
       50
176
     1
290
     0
176
     1
 90
       50
176
     1
 62
   256
176
     0
 40
1.0
176
     0
 90
        2
176
     1
  1
strokes_ogs.tif
176
     1
290
     0
176
     1
 40
1.0
176
     1
 40
1.0
176
     1
  0
VISUALSTYLE
  5
746
102
{ACAD_REACTORS
330
73E
102
}
330
73E
100
AcDbVisualStyle
  2
Basic
 70
     7
177
     3
291
     1
 70
    58
 90
        1
176
     1
 90
        0
176
     1
 90
        1
176
     1
 90
        0
176
     1
 40
0.6
176
     1
 40
30.0
176
     1
 62
     7
420
 16777215
176
     1
 90
        0
176
     1
 90
        4
176
     1
 62
     7
176
     1
 62
   257
176
     1
 90
        1
176
     1
 90
        1
176
     1
 40
1.0
176
     1
 90
        8
176
     1
 62
     7
176
     1
 40
1.0
176
     1
 90
        1
176
     1
 90
        6
176
     1
 90
        2
176
     1
 62
     7
176
     1
 90
        5
176
     1
 90
        0
176
     1
 90
        0
176
     1
290
     0
176
     1
 90
        1
176
     1
 40
0.0
176
     1
 90
        0
176
     1
290
     0
176
     1
290
     1
176
     1
290
     1
176
     1
290
     0
176
     1
290
     0
176
     1
290
     0
176
     1
290
     0
176
     1
290
     0
176
     1
290
     0
176
     1
 90
       50
176
     1
 40
0.0
176
     1
 40
1.0
176
     1
 90
        0
176
     1
 62
    18
420
        0
176
     1
 90
       50
176
     1
 90
        3
176
     1
 62
     5
420
      255
176
     1
290
     0
176
     1
 90
       50
176
     1
 90
       50
176
     1
 90
       50
176
     1
290
     0
176
     1
 90
       50
176
     1
 62
   256
176
     0
 40
1.0
176
     0
 90
        2
176
     1
  1
strokes_ogs.tif
176
     1
290
     0
176
     1
 40
1.0
176
     1
 40
1.0
176
     1
  0
VISUALSTYLE
  5
74A
102
{ACAD_REACTORS
330
73E
102
}
330
73E
100
AcDbVisualStyle
  2
Brighten
 70
    12
177
     3
291
     1
 70
    58
 90
        2
176
     1
 90
        2
176
     1
 90
        0
176
     1
 90
        0
176
     1
 40
0.6
176
     1
 40
30.0
176
     1
 62
     7
420
 16777215
176
     1
 90
        1
176
     1
 90
        4
176
     1
 62
     7
176
     1
 62
   257
176
     1
 90
        1
176
     1
 90
        1
176
     1
 40
1.0
176
     1
 90
        8
176
     1
 62
     7
176
     1
 40
1.0
176
     1
 90
        1
176
     1
 90
        6
176
     1
 90
        2
176
     1
 62
     7
176
     1
 90
        5
176
     1
 90
        0
176
     1
 90
        0
176
     1
290
     0
176
     1
 90
        1
176
     1
 40
50.0
176
     1
 90
        0
176
     1
290
     0
176
     1
290
     1
176
     1
290
     1
176
     1
290
     0
176
     1
290
     0
176
     1
290
     0
176
     1
290
     0
176
     1
290
     0
176
     1
290
     0
176
     1
 90
       50
176
     1
 40
0.0
176
     1
 40
1.0
176
     1
 90
        0
176
     1
 62
    18
420
        0
176
     1
 90
       50
176
     1
 90
        3
176
     1
 62
     5
420
      255
176
     1
290
     0
176
     1
 90
       50
176
     1
 90
       50
176
     1
 90
       50
176
     1
290
     0
176
     1
 90
       50
176
     1
 62
   256
176
     0
 40
1.0
176
     0
 90
        2
176
     1
  1
strokes_ogs.tif
176
     1
290
     0
176
     1
 40
1.0
176
     1
 40
1.0
176
     1
  0
VISUALSTYLE
  5
74E
102
{ACAD_REACTORS
330
73E
102
}
330
73E
100
AcDbVisualStyle
  2
ColorChange
 70
    16
177
     3
291
     1
 70
    58
 90
        2
176
     1
 90
        2
176
     1
 90
        3
176
     1
 90
        0
176
     1
 40
0.6
176
     1
 40
30.0
176
     1
 62
     8
420
  8421504
176
     1
 90
        1
176
     1
 90
        4
176
     1
 62
     7
176
     1
 62
   257
176
     1
 90
        1
176
     1
 90
        1
176
     1
 40
1.0
176
     1
 90
        8
176
     1
 62
     8
420
  8421504
176
     1
 40
1.0
176
     1
 90
        1
176
     1
 90
        6
176
     1
 90
        2
176
     1
 62
     7
176
     1
 90
        5
176
     1
 90
        0
176
     1
 90
        0
176
     1
290
     0
176
     1
 90
        1
176
     1
 40
0.0
176
     1
 90
        0
176
     1
290
     0
176
     1
290
     1
176
     1
290
     1
176
     1
290
     0
176
     1
290
     0
176
     1
290
     0
176
     1
290
     0
176
     1
290
     0
176
     1
290
     0
176
     1
 90
       50
176
     1
 40
0.0
176
     1
 40
1.0
176
     1
 90
        0
176
     1
 62
    18
420
        0
176
     1
 90
       50
176
     1
 90
        3
176
     1
 62
     5
420
      255
176
     1
290
     0
176
     1
 90
       50
176
     1
 90
       50
176
     1
 90
       50
176
     1
290
     0
176
     1
 90
       50
176
     1
 62
   256
176
     0
 40
1.0
176
     0
 90
        2
176
     1
  1
strokes_ogs.tif
176
     1
290
     0
176
     1
 40
1.0
176
     1
 40
1.0
176
     1
  0
VISUALSTYLE
  5
748
102
{ACAD_REACTORS
330
73E
102
}
330
73E
100
AcDbVisualStyle
  2
Conceptual
 70
     9
177
     3
291
     0
 70
    58
 90
        3
176
     1
 90
        2
176
     1
 90
        0
176
     1
 90
        0
176
     1
 40
0.6
176
     1
 40
30.0
176
     1
 62
     7
420
 16777215
176
     1
 90
        2
176
     1
 90
        2
176
     1
 62
     7
176
     1
 62
   257
176
     1
 90
        1
176
     1
 90
        1
176
     1
 40
179.0
176
     1
 90
        8
176
     1
 62
     7
176
     1
 40
1.0
176
     1
 90
        1
176
     1
 90
        6
176
     1
 90
        2
176
     1
 62
     7
176
     1
 90
        3
176
     1
 90
        0
176
     1
 90
        0
176
     1
290
     0
176
     1
 90
        1
176
     1
 40
0.0
176
     1
 90
        0
176
     1
290
     0
176
     1
290
     1
176
     1
290
     1
176
     1
290
     0
176
     1
290
     0
176
     1
290
     0
176
     1
290
     0
176
     1
290
     0
176
     1
290
     0
176
     1
 90
       50
176
     1
 40
0.0
176
     1
 40
1.0
176
     1
 90
        0
176
     1
 62
    18
420
        0
176
     1
 90
       50
176
     1
 90
        3
176
     1
 62
     5
420
      255
176
     1
290
     0
176
     1
 90
       50
176
     1
 90
       50
176
     1
 90
       50
176
     1
290
     0
176
     1
 90
       50
176
     1
 62
   256
176
     0
 40
1.0
176
     0
 90
        2
176
     1
  1
strokes_ogs.tif
176
     1
290
     0
176
     1
 40
1.0
176
     1
 40
1.0
176
     1
  0
VISUALSTYLE
  5
749
102
{ACAD_REACTORS
330
73E
102
}
330
73E
100
AcDbVisualStyle
  2
Dim
 70
    11
177
     3
291
     1
 70
    58
 90
        2
176
     1
 90
        2
176
     1
 90
        0
176
     1
 90
        0
176
     1
 40
0.6
176
     1
 40
30.0
176
     1
 62
     7
420
 16777215
176
     1
 90
        1
176
     1
 90
        4
176
     1
 62
     7
176
     1
 62
   257
176
     1
 90
        1
176
     1
 90
        1
176
     1
 40
1.0
176
     1
 90
        8
176
     1
 62
     7
176
     1
 40
1.0
176
     1
 90
        1
176
     1
 90
        6
176
     1
 90
        2
176
     1
 62
     7
176
     1
 90
        5
176
     1
 90
        0
176
     1
 90
        0
176
     1
290
     0
176
     1
 90
        1
176
     1
 40
-50.0
176
     1
 90
        0
176
     1
290
     0
176
     1
290
     1
176
     1
290
     1
176
     1
290
     0
176
     1
290
     0
176
     1
290
     0
176
     1
290
     0
176
     1
290
     0
176
     1
290
     0
176
     1
 90
       50
176
     1
 40
0.0
176
     1
 40
1.0
176
     1
 90
        0
176
     1
 62
    18
420
        0
176
     1
 90
       50
176
     1
 90
        3
176
     1
 62
     5
420
      255
176
     1
290
     0
176
     1
 90
       50
176
     1
 90
       50
176
     1
 90
       50
176
     1
290
     0
176
     1
 90
       50
176
     1
 62
   256
176
     0
 40
1.0
176
     0
 90
        2
176
     1
  1
strokes_ogs.tif
176
     1
290
     0
176
     1
 40
1.0
176
     1
 40
1.0
176
     1
  0
VISUALSTYLE
  5
751
102
{ACAD_REACTORS
330
73E
102
}
330
73E
100
AcDbVisualStyle
  2
EdgeColorOff
 70
    22
177
     3
291
     1
 70
    58
 90
        2
176
     0
 90
        2
176
     0
 90
        0
176
     0
 90
        0
176
     0
 40
0.6
176
     0
 40
30.0
176
     0
 62
     7
420
 16777215
176
     0
 90
        1
176
     0
 90
        4
176
     0
 62
     7
176
     0
 62
   257
176
     0
 90
        1
176
     0
 90
        1
176
     0
 40
1.0
176
     0
 90
        8
176
     2
 62
     7
176
     0
 40
1.0
176
     0
 90
        1
176
     0
 90
        6
176
     0
 90
        2
176
     0
 62
     7
176
     0
 90
        5
176
     0
 90
        0
176
     0
 90
        0
176
     0
290
     0
176
     0
 90
        1
176
     0
 40
0.0
176
     0
 90
        0
176
     0
290
     0
176
     0
290
     1
176
     0
290
     1
176
     0
290
     0
176
     0
290
     0
176
     0
290
     0
176
     0
290
     0
176
     0
290
     0
176
     0
290
     0
176
     0
 90
       50
176
     0
 40
0.0
176
     0
 40
1.0
176
     0
 90
        0
176
     0
 62
    18
420
        0
176
     0
 90
       50
176
     0
 90
        3
176
     0
 62
     5
420
      255
176
     0
290
     0
176
     0
 90
       50
176
     0
 90
       50
176
     0
 90
       50
176
     0
290
     0
176
     0
 90
       50
176
     0
 62
   256
176
     0
 40
1.0
176
     0
 90
        2
176
     0
  1
strokes_ogs.tif
176
     0
290
     0
176
     0
 40
1.0
176
     0
 40
1.0
176
     0
  0
VISUALSTYLE
  5
74D
102
{ACAD_REACTORS
330
73E
102
}
330
73E
100
AcDbVisualStyle
  2
Facepattern
 70
    15
177
     3
291
     1
 70
    58
 90
        2
176
     1
 90
        2
176
     1
 90
        0
176
     1
 90
        0
176
     1
 40
0.6
176
     1
 40
30.0
176
     1
 62
     7
420
 16777215
176
     1
 90
        1
176
     1
 90
        4
176
     1
 62
     7
176
     1
 62
   257
176
     1
 90
        1
176
     1
 90
        1
176
     1
 40
1.0
176
     1
 90
        8
176
     1
 62
     7
176
     1
 40
1.0
176
     1
 90
        1
176
     1
 90
        6
176
     1
 90
        2
176
     1
 62
     7
176
     1
 90
        5
176
     1
 90
        0
176
     1
 90
        0
176
     1
290
     0
176
     1
 90
        1
176
     1
 40
0.0
176
     1
 90
        0
176
     1
290
     0
176
     1
290
     1
176
     1
290
     1
176
     1
290
     0
176
     1
290
     0
176
     1
290
     0
176
     1
290
     0
176
     1
290
     0
176
     1
290
     0
176
     1
 90
       50
176
     1
 40
0.0
176
     1
 40
1.0
176
     1
 90
        0
176
     1
 62
    18
420
        0
176
     1
 90
       50
176
     1
 90
        3
176
     1
 62
     5
420
      255
176
     1
290
     0
176
     1
 90
       50
176
     1
 90
       50
176
     1
 90
       50
176
     1
290
     0
176
     1
 90
       50
176
     1
 62
   256
176
     0
 40
1.0
176
     0
 90
        2
176
     1
  1
strokes_ogs.tif
176
     1
290
     0
176
     1
 40
1.0
176
     1
 40
1.0
176
     1
  0
VISUALSTYLE
  5
73F
102
{ACAD_REACTORS
330
73E
102
}
330
73E
100
AcDbVisualStyle
  2
Flat
 70
     0
177
     3
291
     1
 70
    58
 90
        2
176
     1
 90
        1
176
     1
 90
        1
176
     1
 90
        2
176
     1
 40
0.6
176
     1
 40
30.0
176
     1
 62
     7
420
 16777215
176
     1
 90
        0
176
     1
 90
        0
176
     1
 62
     7
176
     1
 62
   257
176
     1
 90
        1
176
     1
 90
        1
176
     1
 40
1.0
176
     1
 90
        8
176
     1
 62
     7
176
     1
 40
1.0
176
     1
 90
        1
176
     1
 90
        6
176
     1
 90
        2
176
     1
 62
     7
176
     1
 90
        5
176
     1
 90
        0
176
     1
 90
        0
176
     1
290
     0
176
     1
 90
       13
176
     1
 40
0.0
176
     1
 90
        0
176
     1
290
     0
176
     1
290
     1
176
     1
290
     1
176
     1
290
     0
176
     1
290
     0
176
     1
290
     0
176
     1
290
     0
176
     1
290
     0
176
     1
290
     0
176
     1
 90
       50
176
     1
 40
0.0
176
     1
 40
1.0
176
     1
 90
        0
176
     1
 62
    18
420
        0
176
     1
 90
       50
176
     1
 90
        3
176
     1
 62
     5
420
      255
176
     1
290
     0
176
     1
 90
       50
176
     1
 90
       50
176
     1
 90
       50
176
     1
290
     0
176
     1
 90
       50
176
     1
 62
   256
176
     0
 40
1.0
176
     0
 90
        2
176
     1
  1
strokes_ogs.tif
176
     1
290
     0
176
     1
 40
1.0
176
     1
 40
1.0
176
     1
  0
VISUALSTYLE
  5
740
102
{ACAD_REACTORS
330
73E
102
}
330
73E
100
AcDbVisualStyle
  2
FlatWithEdges
 70
     1
177
     3
291
     1
 70
    58
 90
        2
176
     1
 90
        1
176
     1
 90
        1
176
     1
 90
        2
176
     1
 40
0.6
176
     1
 40
30.0
176
     1
 62
     7
420
 16777215
176
     1
 90
        1
176
     1
 90
        0
176
     1
 62
     7
176
     1
 62
   257
176
     1
 90
        1
176
     1
 90
        1
176
     1
 40
1.0
176
     1
 90
        0
176
     1
 62
   257
176
     1
 40
1.0
176
     1
 90
        1
176
     1
 90
        6
176
     1
 90
        2
176
     1
 62
     7
176
     1
 90
        5
176
     1
 90
        0
176
     1
 90
        0
176
     1
290
     0
176
     1
 90
       13
176
     1
 40
0.0
176
     1
 90
        0
176
     1
290
     0
176
     1
290
     1
176
     1
290
     1
176
     1
290
     0
176
     1
290
     0
176
     1
290
     0
176
     1
290
     0
176
     1
290
     0
176
     1
290
     0
176
     1
 90
       50
176
     1
 40
0.0
176
     1
 40
1.0
176
     1
 90
        0
176
     1
 62
    18
420
        0
176
     1
 90
       50
176
     1
 90
        3
176
     1
 62
     5
420
      255
176
     1
290
     0
176
     1
 90
       50
176
     1
 90
       50
176
     1
 90
       50
176
     1
290
     0
176
     1
 90
       50
176
     1
 62
   256
176
     0
 40
1.0
176
     0
 90
        2
176
     1
  1
strokes_ogs.tif
176
     1
290
     0
176
     1
 40
1.0
176
     1
 40
1.0
176
     1
  0
VISUALSTYLE
  5
741
102
{ACAD_REACTORS
330
73E
102
}
330
73E
100
AcDbVisualStyle
  2
Gouraud
 70
     2
177
     3
291
     1
 70
    58
 90
        2
176
     1
 90
        2
176
     1
 90
        1
176
     1
 90
        2
176
     1
 40
0.6
176
     1
 40
30.0
176
     1
 62
     7
420
 16777215
176
     1
 90
        0
176
     1
 90
        0
176
     1
 62
     7
176
     1
 62
   257
176
     1
 90
        1
176
     1
 90
        1
176
     1
 40
1.0
176
     1
 90
        0
176
     1
 62
     7
176
     1
 40
1.0
176
     1
 90
        1
176
     1
 90
        6
176
     1
 90
        2
176
     1
 62
     7
176
     1
 90
        5
176
     1
 90
        0
176
     1
 90
        0
176
     1
290
     0
176
     1
 90
       13
176
     1
 40
0.0
176
     1
 90
        0
176
     1
290
     0
176
     1
290
     1
176
     1
290
     1
176
     1
290
     0
176
     1
290
     0
176
     1
290
     0
176
     1
290
     0
176
     1
290
     0
176
     1
290
     0
176
     1
 90
       50
176
     1
 40
0.0
176
     1
 40
1.0
176
     1
 90
        0
176
     1
 62
    18
420
        0
176
     1
 90
       50
176
     1
 90
        3
176
     1
 62
     5
420
      255
176
     1
290
     0
176
     1
 90
       50
176
     1
 90
       50
176
     1
 90
       50
176
     1
290
     0
176
     1
 90
       50
176
     1
 62
   256
176
     0
 40
1.0
176
     0
 90
        2
176
     1
  1
strokes_ogs.tif
176
     1
290
     0
176
     1
 40
1.0
176
     1
 40
1.0
176
     1
  0
VISUALSTYLE
  5
742
102
{ACAD_REACTORS
330
73E
102
}
330
73E
100
AcDbVisualStyle
  2
GouraudWithEdges
 70
     3
177
     3
291
     1
 70
    58
 90
        2
176
     1
 90
        2
176
     1
 90
        1
176
     1
 90
        2
176
     1
 40
0.6
176
     1
 40
30.0
176
     1
 62
     7
420
 16777215
176
     1
 90
        1
176
     1
 90
        0
176
     1
 62
     7
176
     1
 62
   257
176
     1
 90
        1
176
     1
 90
        1
176
     1
 40
1.0
176
     1
 90
        0
176
     1
 62
   257
176
     1
 40
1.0
176
     1
 90
        1
176
     1
 90
        6
176
     1
 90
        2
176
     1
 62
     7
176
     1
 90
        5
176
     1
 90
        0
176
     1
 90
        0
176
     1
290
     0
176
     1
 90
       13
176
     1
 40
0.0
176
     1
 90
        0
176
     1
290
     0
176
     1
290
     1
176
     1
290
     1
176
     1
290
     0
176
     1
290
     0
176
     1
290
     0
176
     1
290
     0
176
     1
290
     0
176
     1
290
     0
176
     1
 90
       50
176
     1
 40
0.0
176
     1
 40
1.0
176
     1
 90
        0
176
     1
 62
    18
420
        0
176
     1
 90
       50
176
     1
 90
        3
176
     1
 62
     5
420
      255
176
     1
290
     0
176
     1
 90
       50
176
     1
 90
       50
176
     1
 90
       50
176
     1
290
     0
176
     1
 90
       50
176
     1
 62
   256
176
     0
 40
1.0
176
     0
 90
        2
176
     1
  1
strokes_ogs.tif
176
     1
290
     0
176
     1
 40
1.0
176
     1
 40
1.0
176
     1
  0
VISUALSTYLE
  5
745
102
{ACAD_REACTORS
330
73E
102
}
330
73E
100
AcDbVisualStyle
  2
Hidden
 70
     6
177
     3
291
     0
 70
    58
 90
        1
176
     1
 90
        2
176
     1
 90
        2
176
     1
 90
        0
176
     1
 40
0.6
176
     1
 40
30.0
176
     1
 62
     7
420
 16777215
176
     1
 90
        2
176
     1
 90
        2
176
     1
 62
     7
176
     1
 62
   257
176
     1
 90
        2
176
     1
 90
        1
176
     1
 40
40.0
176
     1
 90
        0
176
     1
 62
   257
176
     1
 40
1.0
176
     1
 90
        1
176
     1
 90
        6
176
     1
 90
        2
176
     1
 62
     7
176
     1
 90
        3
176
     1
 90
        0
176
     1
 90
        0
176
     1
290
     0
176
     1
 90
        1
176
     1
 40
0.0
176
     1
 90
        0
176
     1
290
     0
176
     1
290
     1
176
     1
290
     1
176
     1
290
     0
176
     1
290
     0
176
     1
290
     0
176
     1
290
     0
176
     1
290
     0
176
     1
290
     0
176
     1
 90
       50
176
     1
 40
0.0
176
     1
 40
1.0
176
     1
 90
        0
176
     1
 62
    18
420
        0
176
     1
 90
       50
176
     1
 90
        3
176
     1
 62
     5
420
      255
176
     1
290
     0
176
     1
 90
       50
176
     1
 90
       50
176
     1
 90
       50
176
     1
290
     0
176
     1
 90
       50
176
     1
 62
   256
176
     0
 40
1.0
176
     0
 90
        2
176
     1
  1
strokes_ogs.tif
176
     1
290
     0
176
     1
 40
1.0
176
     1
 40
1.0
176
     1
  0
VISUALSTYLE
  5
74F
102
{ACAD_REACTORS
330
73E
102
}
330
73E
100
AcDbVisualStyle
  2
JitterOff
 70
    20
177
     3
291
     1
 70
    58
 90
        2
176
     0
 90
        2
176
     0
 90
        0
176
     0
 90
        0
176
     0
 40
0.6
176
     0
 40
30.0
176
     0
 62
     7
420
 16777215
176
     0
 90
        1
176
     0
 90
        4
176
     0
 62
     7
176
     0
 62
   257
176
     0
 90
        1
176
     0
 90
        1
176
     0
 40
1.0
176
     0
 90
       10
176
     2
 62
     7
176
     0
 40
1.0
176
     0
 90
        1
176
     0
 90
        6
176
     0
 90
        2
176
     0
 62
     7
176
     0
 90
        5
176
     0
 90
        0
176
     0
 90
        0
176
     0
290
     0
176
     0
 90
        1
176
     0
 40
0.0
176
     0
 90
        0
176
     0
290
     0
176
     0
290
     1
176
     0
290
     1
176
     0
290
     0
176
     0
290
     0
176
     0
290
     0
176
     0
290
     0
176
     0
290
     0
176
     0
290
     0
176
     0
 90
       50
176
     0
 40
0.0
176
     0
 40
1.0
176
     0
 90
        0
176
     0
 62
    18
420
        0
176
     0
 90
       50
176
     0
 90
        3
176
     0
 62
     5
420
      255
176
     0
290
     0
176
     0
 90
       50
176
     0
 90
       50
176
     0
 90
       50
176
     0
290
     0
176
     0
 90
       50
176
     0
 62
   256
176
     0
 40
1.0
176
     0
 90
        2
176
     0
  1
strokes_ogs.tif
176
     0
290
     0
176
     0
 40
1.0
176
     0
 40
1.0
176
     0
  0
VISUALSTYLE
  5
74C
102
{ACAD_REACTORS
330
73E
102
}
330
73E
100
AcDbVisualStyle
  2
Linepattern
 70
    14
177
     3
291
     1
 70
    58
 90
        2
176
     1
 90
        2
176
     1
 90
        0
176
     1
 90
        0
176
     1
 40
0.6
176
     1
 40
30.0
176
     1
 62
     7
420
 16777215
176
     1
 90
        1
176
     1
 90
        4
176
     1
 62
     7
176
     1
 62
   257
176
     1
 90
        7
176
     1
 90
        7
176
     1
 40
1.0
176
     1
 90
        8
176
     1
 62
     7
176
     1
 40
1.0
176
     1
 90
        1
176
     1
 90
        6
176
     1
 90
        2
176
     1
 62
     7
176
     1
 90
        5
176
     1
 90
        0
176
     1
 90
        0
176
     1
290
     0
176
     1
 90
        1
176
     1
 40
0.0
176
     1
 90
        0
176
     1
290
     0
176
     1
290
     1
176
     1
290
     1
176
     1
290
     0
176
     1
290
     0
176
     1
290
     0
176
     1
290
     0
176
     1
290
     0
176
     1
290
     0
176
     1
 90
       50
176
     1
 40
0.0
176
     1
 40
1.0
176
     1
 90
        0
176
     1
 62
    18
420
        0
176
     1
 90
       50
176
     1
 90
        3
176
     1
 62
     5
420
      255
176
     1
290
     0
176
     1
 90
       50
176
     1
 90
       50
176
     1
 90
       50
176
     1
290
     0
176
     1
 90
       50
176
     1
 62
   256
176
     0
 40
1.0
176
     0
 90
        2
176
     1
  1
strokes_ogs.tif
176
     1
290
     0
176
     1
 40
1.0
176
     1
 40
1.0
176
     1
  0
VISUALSTYLE
  5
750
102
{ACAD_REACTORS
330
73E
102
}
330
73E
100
AcDbVisualStyle
  2
OverhangOff
 70
    21
177
     3
291
     1
 70
    58
 90
        2
176
     0
 90
        2
176
     0
 90
        0
176
     0
 90
        0
176
     0
 40
0.6
176
     0
 40
30.0
176
     0
 62
     7
420
 16777215
176
     0
 90
        1
176
     0
 90
        4
176
     0
 62
     7
176
     0
 62
   257
176
     0
 90
        1
176
     0
 90
        1
176
     0
 40
1.0
176
     0
 90
        9
176
     2
 62
     7
176
     0
 40
1.0
176
     0
 90
        1
176
     0
 90
        6
176
     0
 90
        2
176
     0
 62
     7
176
     0
 90
        5
176
     0
 90
        0
176
     0
 90
        0
176
     0
290
     0
176
     0
 90
        1
176
     0
 40
0.0
176
     0
 90
        0
176
     0
290
     0
176
     0
290
     1
176
     0
290
     1
176
     0
290
     0
176
     0
290
     0
176
     0
290
     0
176
     0
290
     0
176
     0
290
     0
176
     0
290
     0
176
     0
 90
       50
176
     0
 40
0.0
176
     0
 40
1.0
176
     0
 90
        0
176
     0
 62
    18
420
        0
176
     0
 90
       50
176
     0
 90
        3
176
     0
 62
     5
420
      255
176
     0
290
     0
176
     0
 90
       50
176
     0
 90
       50
176
     0
 90
       50
176
     0
290
     0
176
     0
 90
       50
176
     0
 62
   256
176
     0
 40
1.0
176
     0
 90
        2
176
     0
  1
strokes_ogs.tif
176
     0
290
     0
176
     0
 40
1.0
176
     0
 40
1.0
176
     0
  0
VISUALSTYLE
  5
747
102
{ACAD_REACTORS
330
73E
102
}
330
73E
100
AcDbVisualStyle
  2
Realistic
 70
     8
177
     3
291
     0
 70
    58
 90
        2
176
     1
 90
        3
176
     1
 90
        0
176
     1
 90
        2
176
     1
 40
0.6
176
     1
 40
30.0
176
     1
 62
     7
420
 16777215
176
     1
 90
        0
176
     1
 90
        0
176
     1
 62
     7
176
     1
 62
   257
176
     1
 90
        1
176
     1
 90
        1
176
     1
 40
1.0
176
     1
 90
        8
176
     1
 62
   257
176
     1
 40
1.0
176
     1
 90
        1
176
     1
 90
        6
176
     1
 90
        2
176
     1
 62
     7
176
     1
 90
        3
176
     1
 90
        0
176
     1
 90
        0
176
     1
290
     0
176
     1
 90
       13
176
     1
 40
0.0
176
     1
 90
        0
176
     1
290
     0
176
     1
290
     1
176
     1
290
     1
176
     1
290
     0
176
     1
290
     0
176
     1
290
     0
176
     1
290
     0
176
     1
290
     0
176
     1
290
     0
176
     1
 90
       50
176
     1
 40
0.0
176
     1
 40
1.0
176
     1
 90
        0
176
     1
 62
    18
420
        0
176
     1
 90
       50
176
     1
 90
        3
176
     1
 62
     5
420
      255
176
     1
290
     0
176
     1
 90
       50
176
     1
 90
       50
176
     1
 90
       50
176
     1
290
     0
176
     1
 90
       50
176
     1
 62
   256
176
     0
 40
1.0
176
     0
 90
        2
176
     1
  1
strokes_ogs.tif
176
     1
290
     0
176
     1
 40
1.0
176
     1
 40
1.0
176
     1
  0
VISUALSTYLE
  5
756
102
{ACAD_REACTORS
330
73E
102
}
330
73E
100
AcDbVisualStyle
  2
Shaded
 70
    27
177
     3
291
     0
 70
    58
 90
        2
176
     1
 90
        2
176
     1
 90
        1
176
     1
 90
        2
176
     1
 40
0.6
176
     1
 40
30.0
176
     1
 62
     7
420
 16777215
176
     1
 90
        0
176
     1
 90
        4
176
     1
 62
     7
176
     1
 62
   257
176
     1
 90
        1
176
     1
 90
        1
176
     1
 40
1.0
176
     1
 90
        8
176
     1
 62
   257
176
     1
 40
1.0
176
     1
 90
        1
176
     1
 90
        6
176
     1
 90
        2
176
     1
 62
     8
420
  7895160
176
     1
 90
        3
176
     1
 90
        0
176
     1
 90
        0
176
     1
290
     0
176
     1
 90
        5
176
     1
 40
0.0
176
     1
 90
        0
176
     1
290
     0
176
     1
290
     1
176
     1
290
     1
176
     1
290
     0
176
     1
290
     0
176
     1
290
     0
176
     1
290
     0
176
     1
290
     0
176
     1
290
     0
176
     1
 90
       50
176
     1
 40
0.0
176
     1
 40
1.0
176
     1
 90
        0
176
     1
 62
    18
420
        0
176
     1
 90
       50
176
     1
 90
        3
176
     1
 62
     5
420
      255
176
     1
290
     0
176
     1
 90
       50
176
     1
 90
       50
176
     1
 90
       50
176
     1
290
     0
176
     1
 90
       50
176
     1
 62
   256
176
     0
 40
1.0
176
     0
 90
        2
176
     1
  1
strokes_ogs.tif
176
     1
290
     0
176
     1
 40
1.0
176
     1
 40
1.0
176
     1
  0
VISUALSTYLE
  5
755
102
{ACAD_REACTORS
330
73E
102
}
330
73E
100
AcDbVisualStyle
  2
Shaded with edges
 70
    26
177
     3
291
     0
 70
    58
 90
        2
176
     1
 90
        2
176
     1
 90
        1
176
     1
 90
        2
176
     1
 40
0.6
176
     1
 40
30.0
176
     1
 62
     7
420
 16777215
176
     1
 90
        1
176
     1
 90
       10
176
     1
 62
     7
176
     1
 62
   257
176
     1
 90
        2
176
     1
 90
        1
176
     1
 40
1.0
176
     1
 90
        8
176
     1
 62
   257
176
     1
 40
1.0
176
     1
 90
        1
176
     1
 90
        6
176
     1
 90
        2
176
     1
 62
     7
176
     1
 90
        3
176
     1
 90
        0
176
     1
 90
        0
176
     1
290
     0
176
     1
 90
        5
176
     1
 40
0.0
176
     1
 90
        0
176
     1
290
     0
176
     1
290
     1
176
     1
290
     1
176
     1
290
     0
176
     1
290
     0
176
     1
290
     0
176
     1
290
     0
176
     1
290
     0
176
     1
290
     0
176
     1
 90
       50
176
     1
 40
0.0
176
     1
 40
1.0
176
     1
 90
        0
176
     1
 62
    18
420
        0
176
     1
 90
       50
176
     1
 90
        3
176
     1
 62
     5
420
      255
176
     1
290
     0
176
     1
 90
       50
176
     1
 90
       50
176
     1
 90
       50
176
     1
290
     0
176
     1
 90
       50
176
     1
 62
   256
176
     0
 40
1.0
176
     0
 90
        2
176
     1
  1
strokes_ogs.tif
176
     1
290
     0
176
     1
 40
1.0
176
     1
 40
1.0
176
     1
  0
VISUALSTYLE
  5
752
102
{ACAD_REACTORS
330
73E
102
}
330
73E
100
AcDbVisualStyle
  2
Shades of Gray
 70
    23
177
     3
291
     0
 70
    58
 90
        2
176
     1
 90
        2
176
     1
 90
        3
176
     1
 90
        0
176
     1
 40
0.6
176
     1
 40
30.0
176
     1
 62
     7
420
 16777215
176
     1
 90
        2
176
     1
 90
        2
176
     1
 62
     7
176
     1
 62
     7
176
     1
 90
        1
176
     1
 90
        1
176
     1
 40
40.0
176
     1
 90
        8
176
     1
 62
     7
176
     1
 40
1.0
176
     1
 90
        1
176
     1
 90
        6
176
     1
 90
        2
176
     1
 62
     7
176
     1
 90
        3
176
     1
 90
        0
176
     1
 90
        0
176
     1
290
     0
176
     1
 90
        1
176
     1
 40
0.0
176
     1
 90
        0
176
     1
290
     0
176
     1
290
     1
176
     1
290
     1
176
     1
290
     0
176
     1
290
     0
176
     1
290
     0
176
     1
290
     0
176
     1
290
     0
176
     1
290
     0
176
     1
 90
       50
176
     1
 40
0.0
176
     1
 40
1.0
176
     1
 90
        0
176
     1
 62
    18
420
        0
176
     1
 90
       50
176
     1
 90
        3
176
     1
 62
     5
420
      255
176
     1
290
     0
176
     1
 90
       50
176
     1
 90
       50
176
     1
 90
       50
176
     1
290
     0
176
     1
 90
       50
176
     1
 62
   256
176
     0
 40
1.0
176
     0
 90
        2
176
     1
  1
strokes_ogs.tif
176
     1
290
     0
176
     1
 40
1.0
176
     1
 40
1.0
176
     1
  0
VISUALSTYLE
  5
753
102
{ACAD_REACTORS
330
73E
102
}
330
73E
100
AcDbVisualStyle
  2
Sketchy
 70
    24
177
     3
291
     0
 70
    58
 90
        1
176
     1
 90
        2
176
     1
 90
        2
176
     1
 90
        0
176
     1
 40
0.6
176
     1
 40
30.0
176
     1
 62
     7
420
 16777215
176
     1
 90
        2
176
     1
 90
        2
176
     1
 62
     7
176
     1
 62
     7
176
     1
 90
        1
176
     1
 90
        1
176
     1
 40
40.0
176
     1
 90
       11
176
     1
 62
     7
176
     1
 40
1.0
176
     1
 90
        1
176
     1
 90
        6
176
     1
 90
        2
176
     1
 62
     7
176
     1
 90
        6
176
     1
 90
        0
176
     1
 90
        0
176
     1
290
     0
176
     1
 90
        1
176
     1
 40
0.0
176
     1
 90
        0
176
     1
290
     0
176
     1
290
     1
176
     1
290
     1
176
     1
290
     0
176
     1
290
     0
176
     1
290
     0
176
     1
290
     0
176
     1
290
     0
176
     1
290
     0
176
     1
 90
       50
176
     1
 40
0.0
176
     1
 40
1.0
176
     1
 90
        0
176
     1
 62
    18
420
        0
176
     1
 90
       50
176
     1
 90
        3
176
     1
 62
     5
420
      255
176
     1
290
     0
176
     1
 90
       50
176
     1
 90
       50
176
     1
 90
       50
176
     1
290
     0
176
     1
 90
       50
176
     1
 62
   256
176
     0
 40
1.0
176
     0
 90
        2
176
     1
  1
strokes_ogs.tif
176
     1
290
     0
176
     1
 40
1.0
176
     1
 40
1.0
176
     1
  0
VISUALSTYLE
  5
74B
102
{ACAD_REACTORS
330
73E
102
}
330
73E
100
AcDbVisualStyle
  2
Thicken
 70
    13
177
     3
291
     1
 70
    58
 90
        2
176
     1
 90
        2
176
     1
 90
        0
176
     1
 90
        0
176
     1
 40
0.6
176
     1
 40
30.0
176
     1
 62
     7
420
 16777215
176
     1
 90
        1
176
     1
 90
        4
176
     1
 62
     7
176
     1
 62
   257
176
     1
 90
        1
176
     1
 90
        1
176
     1
 40
1.0
176
     1
 90
       12
176
     1
 62
     7
176
     1
 40
1.0
176
     1
 90
        1
176
     1
 90
        6
176
     1
 90
        2
176
     1
 62
     7
176
     1
 90
        5
176
     1
 90
        0
176
     1
 90
        0
176
     1
290
     0
176
     1
 90
        1
176
     1
 40
0.0
176
     1
 90
        0
176
     1
290
     0
176
     1
290
     1
176
     1
290
     1
176
     1
290
     0
176
     1
290
     0
176
     1
290
     0
176
     1
290
     0
176
     1
290
     0
176
     1
290
     0
176
     1
 90
       50
176
     1
 40
0.0
176
     1
 40
1.0
176
     1
 90
        0
176
     1
 62
    18
420
        0
176
     1
 90
       50
176
     1
 90
        3
176
     1
 62
     5
420
      255
176
     1
290
     0
176
     1
 90
       50
176
     1
 90
       50
176
     1
 90
       50
176
     1
290
     0
176
     1
 90
       50
176
     1
 62
   256
176
     0
 40
1.0
176
     0
 90
        2
176
     1
  1
strokes_ogs.tif
176
     1
290
     0
176
     1
 40
1.0
176
     1
 40
1.0
176
     1
  0
VISUALSTYLE
  5
744
102
{ACAD_REACTORS
330
73E
102
}
330
73E
100
AcDbVisualStyle
  2
Wireframe
 70
     5
177
     3
291
     0
 70
    58
 90
        0
176
     1
 90
        2
176
     1
 90
        0
176
     1
 90
        0
176
     1
 40
0.6
176
     1
 40
30.0
176
     1
 62
     7
420
 16777215
176
     1
 90
        1
176
     1
 90
        4
176
     1
 62
     7
176
     1
 62
   257
176
     1
 90
        1
176
     1
 90
        1
176
     1
 40
1.0
176
     1
 90
        0
176
     1
 62
   257
176
     1
 40
1.0
176
     1
 90
        1
176
     1
 90
        6
176
     1
 90
        2
176
     1
 62
     7
176
     1
 90
        3
176
     1
 90
        0
176
     1
 90
        0
176
     1
290
     0
176
     1
 90
        1
176
     1
 40
0.0
176
     1
 90
        0
176
     1
290
     0
176
     1
290
     1
176
     1
290
     1
176
     1
290
     0
176
     1
290
     0
176
     1
290
     0
176
     1
290
     0
176
     1
290
     0
176
     1
290
     0
176
     1
 90
       50
176
     1
 40
0.0
176
     1
 40
1.0
176
     1
 90
        0
176
     1
 62
    18
420
        0
176
     1
 90
       50
176
     1
 90
        3
176
     1
 62
     5
420
      255
176
     1
290
     0
176
     1
 90
       50
176
     1
 90
       50
176
     1
 90
       50
176
     1
290
     0
176
     1
 90
       50
176
     1
 62
   256
176
     0
 40
1.0
176
     0
 90
        2
176
     1
  1
strokes_ogs.tif
176
     1
290
     0
176
     1
 40
1.0
176
     1
 40
1.0
176
     1
  0
VISUALSTYLE
  5
754
102
{ACAD_REACTORS
330
73E
102
}
330
73E
100
AcDbVisualStyle
  2
X-Ray
 70
    25
177
     3
291
     0
 70
    58
 90
        2
176
     1
 90
        2
176
     1
 90
        1
176
     1
 90
        1
176
     1
 40
0.5
176
     1
 40
30.0
176
     1
 62
     7
420
 16777215
176
     1
 90
        1
176
     1
 90
        0
176
     1
 62
     7
176
     1
 62
   257
176
     1
 90
        1
176
     1
 90
        1
176
     1
 40
1.0
176
     1
 90
        8
176
     1
 62
     7
176
     1
 40
1.0
176
     1
 90
        1
176
     1
 90
        6
176
     1
 90
        2
176
     1
 62
     7
176
     1
 90
        3
176
     1
 90
        0
176
     1
 90
        0
176
     1
290
     0
176
     1
 90
       13
176
     1
 40
0.0
176
     1
 90
        0
176
     1
290
     0
176
     1
290
     1
176
     1
290
     1
176
     1
290
     0
176
     1
290
     0
176
     1
290
     0
176
     1
290
     0
176
     1
290
     0
176
     1
290
     0
176
     1
 90
       50
176
     1
 40
0.0
176
     1
 40
1.0
176
     1
 90
        0
176
     1
 62
    18
420
        0
176
     1
 90
       50
176
     1
 90
        3
176
     1
 62
     5
420
      255
176
     1
290
     0
176
     1
 90
       50
176
     1
 90
       50
176
     1
 90
       50
176
     1
290
     0
176
     1
 90
       50
176
     1
 62
   256
176
     0
 40
1.0
176
     0
 90
        2
176
     1
  1
strokes_ogs.tif
176
     1
290
     0
176
     1
 40
1.0
176
     1
 40
1.0
176
     1
  0
DICTIONARYVAR
  5
760
102
{ACAD_REACTORS
330
75F
102
}
330
75F
100
DictionaryVariables
280
     0
  1
1:1
  0
DICTIONARYVAR
  5
765
102
{ACAD_REACTORS
330
75F
102
}
330
75F
100
DictionaryVariables
280
     0
  1
Standard
  0
DICTIONARYVAR
  5
764
102
{ACAD_REACTORS
330
75F
102
}
330
75F
100
DictionaryVariables
280
     0
  1
Standard
  0
DICTIONARYVAR
  5
766
102
{ACAD_REACTORS
330
75F
102
}
330
75F
100
DictionaryVariables
280
     0
  1
0
  0
DICTIONARYVAR
  5
7BC
330
7BB
100
DictionaryVariables
280
     0
  1
1.3.4 @ 2025-07-26T18:12:43.265637+00:00
  0
DICTIONARY
  5
811
330
75C
100
AcDbDictionary
280
     1
281
     1
  3
ACAD_ROUNDTRIP_2008_TABLESTYLE_CELLSTYLEMAP
360
812
  0
CELLSTYLEMAP
  5
812
102
{ACAD_REACTORS
330
811
102
}
330
811
100
AcDbCellStyleMap
 90
        3
300
CELLSTYLE
  1
TABLEFORMAT_BEGIN
 90
        5
170
     1
 91
        0
 92
    32768
 62
   257
 93
        1
300
CONTENTFORMAT
  1
CONTENTFORMAT_BEGIN
 90
        0
 91
        0
 92
        4
 93
        0
300

 40
0.0
140
1.0
 94
        5
 62
     0
340
11
144
6.0
309
CONTENTFORMAT_END
171
     1
301
MARGIN
  1
CELLMARGIN_BEGIN
 40
1.5
 40
1.5
 40
1.5
 40
1.5
 40
1.5
 40
1.5
309
CELLMARGIN_END
 94
        6
 95
        1
302
GRIDFORMAT
  1
GRIDFORMAT_BEGIN
 90
        0
 91
        1
 62
     0
 92
       -2
340
14
 93
        0
 40
0.045
309
GRIDFORMAT_END
 95
        2
302
GRIDFORMAT
  1
GRIDFORMAT_BEGIN
 90
        0
 91
        1
 62
     0
 92
       -2
340
14
 93
        0
 40
0.045
309
GRIDFORMAT_END
 95
        4
302
GRIDFORMAT
  1
GRIDFORMAT_BEGIN
 90
        0
 91
        1
 62
     0
 92
       -2
340
14
 93
        0
 40
0.045
309
GRIDFORMAT_END
 95
        8
302
GRIDFORMAT
  1
GRIDFORMAT_BEGIN
 90
        0
 91
        1
 62
     0
 92
       -2
340
14
 93
        0
 40
0.045
309
GRIDFORMAT_END
 95
       16
302
GRIDFORMAT
  1
GRIDFORMAT_BEGIN
 90
        0
 91
        1
 62
     0
 92
       -2
340
14
 93
        0
 40
0.045
309
GRIDFORMAT_END
 95
       32
302
GRIDFORMAT
  1
GRIDFORMAT_BEGIN
 90
        0
 91
        1
 62
     0
 92
       -2
340
14
 93
        0
 40
0.045
309
GRIDFORMAT_END
309
TABLEFORMAT_END
  1
CELLSTYLE_BEGIN
 90
        1
 91
        1
300
_TITLE
309
CELLSTYLE_END
300
CELLSTYLE
  1
TABLEFORMAT_BEGIN
 90
        5
170
     1
 91
        0
 92
        0
 62
   257
 93
        1
300
CONTENTFORMAT
  1
CONTENTFORMAT_BEGIN
 90
        0
 91
        0
 92
        4
 93
        0
300

 40
0.0
140
1.0
 94
        5
 62
     0
340
11
144
4.5
309
CONTENTFORMAT_END
171
     1
301
MARGIN
  1
CELLMARGIN_BEGIN
 40
1.5
 40
1.5
 40
1.5
 40
1.5
 40
1.5
 40
1.5
309
CELLMARGIN_END
 94
        6
 95
        1
302
GRIDFORMAT
  1
GRIDFORMAT_BEGIN
 90
        0
 91
        1
 62
     0
 92
       -2
340
14
 93
        0
 40
0.045
309
GRIDFORMAT_END
 95
        2
302
GRIDFORMAT
  1
GRIDFORMAT_BEGIN
 90
        0
 91
        1
 62
     0
 92
       -2
340
14
 93
        0
 40
0.045
309
GRIDFORMAT_END
 95
        4
302
GRIDFORMAT
  1
GRIDFORMAT_BEGIN
 90
        0
 91
        1
 62
     0
 92
       -2
340
14
 93
        0
 40
0.045
309
GRIDFORMAT_END
 95
        8
302
GRIDFORMAT
  1
GRIDFORMAT_BEGIN
 90
        0
 91
        1
 62
     0
 92
       -2
340
14
 93
        0
 40
0.045
309
GRIDFORMAT_END
 95
       16
302
GRIDFORMAT
  1
GRIDFORMAT_BEGIN
 90
        0
 91
        1
 62
     0
 92
       -2
340
14
 93
        0
 40
0.045
309
GRIDFORMAT_END
 95
       32
302
GRIDFORMAT
  1
GRIDFORMAT_BEGIN
 90
        0
 91
        1
 62
     0
 92
       -2
340
14
 93
        0
 40
0.045
309
GRIDFORMAT_END
309
TABLEFORMAT_END
  1
CELLSTYLE_BEGIN
 90
        2
 91
        1
300
_HEADER
309
CELLSTYLE_END
300
CELLSTYLE
  1
TABLEFORMAT_BEGIN
 90
        5
170
     1
 91
        0
 92
        0
 62
   257
 93
        1
300
CONTENTFORMAT
  1
CONTENTFORMAT_BEGIN
 90
        0
 91
        0
 92
        4
 93
        0
300

 40
0.0
140
1.0
 94
        2
 62
     0
340
11
144
4.5
309
CONTENTFORMAT_END
171
     1
301
MARGIN
  1
CELLMARGIN_BEGIN
 40
1.5
 40
1.5
 40
1.5
 40
1.5
 40
1.5
 40
1.5
309
CELLMARGIN_END
 94
        6
 95
        1
302
GRIDFORMAT
  1
GRIDFORMAT_BEGIN
 90
        0
 91
        1
 62
     0
 92
       -2
340
14
 93
        0
 40
0.045
309
GRIDFORMAT_END
 95
        2
302
GRIDFORMAT
  1
GRIDFORMAT_BEGIN
 90
        0
 91
        1
 62
     0
 92
       -2
340
14
 93
        0
 40
0.045
309
GRIDFORMAT_END
 95
        4
302
GRIDFORMAT
  1
GRIDFORMAT_BEGIN
 90
        0
 91
        1
 62
     0
 92
       -2
340
14
 93
        0
 40
0.045
309
GRIDFORMAT_END
 95
        8
302
GRIDFORMAT
  1
GRIDFORMAT_BEGIN
 90
        0
 91
        1
 62
     0
 92
       -2
340
14
 93
        0
 40
0.045
309
GRIDFORMAT_END
 95
       16
302
GRIDFORMAT
  1
GRIDFORMAT_BEGIN
 90
        0
 91
        1
 62
     0
 92
       -2
340
14
 93
        0
 40
0.045
309
GRIDFORMAT_END
 95
       32
302
GRIDFORMAT
  1
GRIDFORMAT_BEGIN
 90
        0
 91
        1
 62
     0
 92
       -2
340
14
 93
        0
 40
0.045
309
GRIDFORMAT_END
309
TABLEFORMAT_END
  1
CELLSTYLE_BEGIN
 90
        3
 91
        2
300
_DATA
309
CELLSTYLE_END
  0
ENDSEC
  0
EOF
