  0
SECTION
  2
HEADER
  9
$ACADVER
  1
AC1032
  9
$ACADMAINTVER
 90
4
  9
$DWGCODEPAGE
  3
ANSI_1252
  9
$LASTSAVEDBY
  1
cipulot
  9
$REQUIREDVERSIONS
160
0
  9
$INSBASE
 10
0.0
 20
0.0
 30
0.0
  9
$EXTMIN
 10
1e+20
 20
1e+20
 30
1e+20
  9
$EXTMAX
 10
-1e+20
 20
-1e+20
 30
-1e+20
  9
$LIMMIN
 10
0.0
 20
0.0
  9
$LIMMAX
 10
12.0
 20
9.0
  9
$ORTHOMODE
 70
0
  9
$REGENMODE
 70
1
  9
$FILLMODE
 70
1
  9
$QTEXTMODE
 70
0
  9
$MIRRTEXT
 70
1
  9
$LTSCALE
 40
1.0
  9
$ATTMODE
 70
1
  9
$TEXTSIZE
 40
0.2
  9
$TRACEWID
 40
0.05
  9
$TEXTSTYLE
  7
Standard
  9
$CLAYER
  8
0
  9
$CELTYPE
  6
ByBlock
  9
$CECOLOR
 62
256
  9
$CELTSCALE
 40
1.0
  9
$DISPSILH
 70
0
  9
$DIMSCALE
 40
1.0
  9
$DIMASZ
 40
0.18
  9
$DIMEXO
 40
0.0625
  9
$DIMDLI
 40
0.38
  9
$DIMRND
 40
0.0
  9
$DIMDLE
 40
0.0
  9
$DIMEXE
 40
0.18
  9
$DIMTP
 40
0.0
  9
$DIMTM
 40
0.0
  9
$DIMTXT
 40
0.18
  9
$DIMCEN
 40
0.09
  9
$DIMTSZ
 40
0.0
  9
$DIMTOL
 70
0
  9
$DIMLIM
 70
0
  9
$DIMTIH
 70
1
  9
$DIMTOH
 70
1
  9
$DIMSE1
 70
0
  9
$DIMSE2
 70
0
  9
$DIMTAD
 70
0
  9
$DIMZIN
 70
0
  9
$DIMBLK
  1

  9
$DIMASO
 70
1
  9
$DIMSHO
 70
1
  9
$DIMPOST
  1

  9
$DIMAPOST
  1

  9
$DIMALT
 70
0
  9
$DIMALTD
 70
2
  9
$DIMALTF
 40
25.4
  9
$DIMLFAC
 40
1.0
  9
$DIMTOFL
 70
0
  9
$DIMTVP
 40
0.0
  9
$DIMTIX
 70
0
  9
$DIMSOXD
 70
0
  9
$DIMSAH
 70
0
  9
$DIMBLK1
  1

  9
$DIMBLK2
  1

  9
$DIMSTYLE
  2
ISO-25
  9
$DIMCLRD
 70
0
  9
$DIMCLRE
 70
0
  9
$DIMCLRT
 70
0
  9
$DIMTFAC
 40
1.0
  9
$DIMGAP
 40
0.09
  9
$DIMJUST
 70
0
  9
$DIMSD1
 70
0
  9
$DIMSD2
 70
0
  9
$DIMTOLJ
 70
1
  9
$DIMTZIN
 70
0
  9
$DIMALTZ
 70
0
  9
$DIMALTTZ
 70
0
  9
$DIMUPT
 70
0
  9
$DIMDEC
 70
4
  9
$DIMTDEC
 70
4
  9
$DIMALTU
 70
2
  9
$DIMALTTD
 70
2
  9
$DIMTXSTY
  7
Standard
  9
$DIMAUNIT
 70
0
  9
$DIMADEC
 70
0
  9
$DIMALTRND
 40
0.0
  9
$DIMAZIN
 70
0
  9
$DIMDSEP
 70
46
  9
$DIMATFIT
 70
3
  9
$DIMFRAC
 70
0
  9
$DIMLDRBLK
  1

  9
$DIMLUNIT
 70
2
  9
$DIMLWD
 70
-2
  9
$DIMLWE
 70
-2
  9
$DIMTMOVE
 70
2
  9
$DIMFXL
 40
1.0
  9
$DIMFXLON
 70
0
  9
$DIMJOGANG
 40
0.7853981633974483
  9
$DIMTFILL
 70
0
  9
$DIMTFILLCLR
 70
0
  9
$DIMARCSYM
 70
0
  9
$DIMLTYPE
  6

  9
$DIMLTEX1
  6

  9
$DIMLTEX2
  6

  9
$DIMTXTDIRECTION
 70
0
  9
$LUNITS
 70
2
  9
$LUPREC
 70
4
  9
$SKETCHINC
 40
0.1
  9
$FILLETRAD
 40
0.0
  9
$AUNITS
 70
0
  9
$AUPREC
 70
0
  9
$MENU
  1
.
  9
$ELEVATION
 40
0.0
  9
$PELEVATION
 40
0.0
  9
$THICKNESS
 40
0.0
  9
$LIMCHECK
 70
0
  9
$CHAMFERA
 40
0.0
  9
$CHAMFERB
 40
0.0
  9
$CHAMFERC
 40
0.0
  9
$CHAMFERD
 40
0.0
  9
$SKPOLY
 70
0
  9
$TDCREATE
 40
2461027.4730324075
  9
$TDUCREATE
 40
2461027.430993472
  9
$TDUPDATE
 40
2461027.4730324075
  9
$TDUUPDATE
 40
2461027.430993554
  9
$TDINDWG
 40
1.16e-08
  9
$TDUSRTIMER
 40
1.16e-08
  9
$USRTIMER
 70
1
  9
$ANGBASE
 50
0.0
  9
$ANGDIR
 70
1
  9
$PDMODE
 70
0
  9
$PDSIZE
 40
0.0
  9
$PLINEWID
 40
0.0
  9
$SPLFRAME
 70
0
  9
$SPLINETYPE
 70
6
  9
$SPLINESEGS
 70
8
  9
$HANDSEED
  5
7D1
  9
$SURFTAB1
 70
6
  9
$SURFTAB2
 70
6
  9
$SURFTYPE
 70
6
  9
$SURFU
 70
6
  9
$SURFV
 70
6
  9
$UCSBASE
  2

  9
$UCSNAME
  2

  9
$UCSORG
 10
0.0
 20
0.0
 30
0.0
  9
$UCSXDIR
 10
1.0
 20
0.0
 30
0.0
  9
$UCSYDIR
 10
0.0
 20
1.0
 30
0.0
  9
$UCSORTHOREF
  2

  9
$UCSORTHOVIEW
 70
0
  9
$UCSORGTOP
 10
0.0
 20
0.0
 30
0.0
  9
$UCSORGBOTTOM
 10
0.0
 20
0.0
 30
0.0
  9
$UCSORGLEFT
 10
0.0
 20
0.0
 30
0.0
  9
$UCSORGRIGHT
 10
0.0
 20
0.0
 30
0.0
  9
$UCSORGFRONT
 10
0.0
 20
0.0
 30
0.0
  9
$UCSORGBACK
 10
0.0
 20
0.0
 30
0.0
  9
$PUCSBASE
  2

  9
$PUCSNAME
  2

  9
$PUCSORG
 10
0.0
 20
0.0
 30
0.0
  9
$PUCSXDIR
 10
1.0
 20
0.0
 30
0.0
  9
$PUCSYDIR
 10
0.0
 20
1.0
 30
0.0
  9
$PUCSORTHOREF
  2

  9
$PUCSORTHOVIEW
 70
0
  9
$PUCSORGTOP
 10
0.0
 20
0.0
 30
0.0
  9
$PUCSORGBOTTOM
 10
0.0
 20
0.0
 30
0.0
  9
$PUCSORGLEFT
 10
0.0
 20
0.0
 30
0.0
  9
$PUCSORGRIGHT
 10
0.0
 20
0.0
 30
0.0
  9
$PUCSORGFRONT
 10
0.0
 20
0.0
 30
0.0
  9
$PUCSORGBACK
 10
0.0
 20
0.0
 30
0.0
  9
$USERI1
 70
0
  9
$USERI2
 70
0
  9
$USERI3
 70
0
  9
$USERI4
 70
0
  9
$USERI5
 70
0
  9
$USERR1
 40
0.0
  9
$USERR2
 40
0.0
  9
$USERR3
 40
0.0
  9
$USERR4
 40
0.0
  9
$USERR5
 40
0.0
  9
$WORLDVIEW
 70
1
  9
$SHADEDGE
 70
3
  9
$SHADEDIF
 70
70
  9
$TILEMODE
 70
1
  9
$MAXACTVP
 70
64
  9
$PINSBASE
 10
0.0
 20
0.0
 30
0.0
  9
$PLIMCHECK
 70
0
  9
$PEXTMIN
 10
1e+20
 20
1e+20
 30
1e+20
  9
$PEXTMAX
 10
-1e+20
 20
-1e+20
 30
-1e+20
  9
$PLIMMIN
 10
0.0
 20
0.0
  9
$PLIMMAX
 10
12.0
 20
9.0
  9
$UNITMODE
 70
0
  9
$VISRETAIN
 70
1
  9
$PLINEGEN
 70
0
  9
$PSLTSCALE
 70
1
  9
$TREEDEPTH
 70
3020
  9
$CMLSTYLE
  2
Standard
  9
$CMLJUST
 70
0
  9
$CMLSCALE
 40
1.0
  9
$PROXYGRAPHICS
 70
1
  9
$MEASUREMENT
 70
1
  9
$CELWEIGHT
370
-1
  9
$ENDCAPS
280
0
  9
$JOINSTYLE
280
0
  9
$LWDISPLAY
290
0
  9
$INSUNITS
 70
4
  9
$HYPERLINKBASE
  1

  9
$STYLESHEET
  1

  9
$XEDIT
290
1
  9
$CEPSNTYPE
380
0
  9
$PSTYLEMODE
290
1
  9
$FINGERPRINTGUID
  2
{bba5e9a7-bdce-9344-bd1d-a7947813983f}
  9
$VERSIONGUID
  2
{9752E9D3-33C2-49FE-A514-366E3093CEAD}
  9
$EXTNAMES
290
1
  9
$PSVPSCALE
 40
0.0
  9
$OLESTARTUP
290
0
  9
$SORTENTS
280
127
  9
$INDEXCTL
280
0
  9
$HIDETEXT
280
1
  9
$XCLIPFRAME
280
2
  9
$HALOGAP
280
0
  9
$OBSCOLOR
 70
257
  9
$OBSLTYPE
280
0
  9
$INTERSECTIONDISPLAY
280
0
  9
$INTERSECTIONCOLOR
 70
257
  9
$DIMASSOC
280
2
  9
$PROJECTNAME
  1

  9
$CAMERADISPLAY
290
0
  9
$LENSLENGTH
 40
50.0
  9
$CAMERAHEIGHT
 40
0.0
  9
$STEPSPERSEC
 40
2.0
  9
$STEPSIZE
 40
6.0
  9
$3DDWFPREC
 40
2.0
  9
$PSOLWIDTH
 40
0.25
  9
$PSOLHEIGHT
 40
4.0
  9
$LOFTANG1
 40
1.570796326794897
  9
$LOFTANG2
 40
1.570796326794897
  9
$LOFTMAG1
 40
0.0
  9
$LOFTMAG2
 40
0.0
  9
$LOFTPARAM
 70
7
  9
$LOFTNORMALS
280
1
  9
$LATITUDE
 40
37.795
  9
$LONGITUDE
 40
-122.394
  9
$NORTHDIRECTION
 40
0.0
  9
$TIMEZONE
 70
-8000
  9
$LIGHTGLYPHDISPLAY
280
1
  9
$TILEMODELIGHTSYNCH
280
1
  9
$CMATERIAL
347
7A6
  9
$SOLIDHIST
280
0
  9
$SHOWHIST
280
1
  9
$DWFFRAME
280
2
  9
$DGNFRAME
280
2
  9
$REALWORLDSCALE
290
1
  9
$INTERFERECOLOR
 62
256
  9
$CSHADOW
280
0
  9
$SHADOWPLANELOCATION
 40
0.0
  0
ENDSEC
  0
SECTION
  2
CLASSES
  0
CLASS
  1
ACDBDICTIONARYWDFLT
  2
AcDbDictionaryWithDefault
  3
ObjectDBX Classes
 90
0
 91
3
280
0
281
0
  0
CLASS
  1
SCALE
  2
AcDbScale
  3
ObjectDBX Classes
 90
1153
 91
3
280
0
281
0
  0
CLASS
  1
VISUALSTYLE
  2
AcDbVisualStyle
  3
ObjectDBX Classes
 90
4095
 91
3
280
0
281
0
  0
CLASS
  1
MATERIAL
  2
AcDbMaterial
  3
ObjectDBX Classes
 90
1153
 91
3
280
0
281
0
  0
CLASS
  1
TABLESTYLE
  2
AcDbTableStyle
  3
ObjectDBX Classes
 90
4095
 91
3
280
0
281
0
  0
CLASS
  1
MLEADERSTYLE
  2
AcDbMLeaderStyle
  3
ACDB_MLEADERSTYLE_CLASS
 90
4095
 91
3
280
0
281
0
  0
CLASS
  1
DICTIONARYVAR
  2
AcDbDictionaryVar
  3
ObjectDBX Classes
 90
0
 91
3
280
0
281
0
  0
CLASS
  1
CELLSTYLEMAP
  2
AcDbCellStyleMap
  3
ObjectDBX Classes
 90
1152
 91
3
280
0
281
0
  0
CLASS
  1
SUN
  2
AcDbSun
  3
SCENEOE
 90
1153
 91
0
280
0
281
0
  0
CLASS
  1
MENTALRAYRENDERSETTINGS
  2
AcDbMentalRayRenderSettings
  3
SCENEOE
 90
1024
 91
0
280
0
281
0
  0
CLASS
  1
ACDBDETAILVIEWSTYLE
  2
AcDbDetailViewStyle
  3
ObjectDBX Classes
 90
1025
 91
0
280
0
281
0
  0
CLASS
  1
ACDBSECTIONVIEWSTYLE
  2
AcDbSectionViewStyle
  3
ObjectDBX Classes
 90
1025
 91
0
280
0
281
0
  0
CLASS
  1
RASTERVARIABLES
  2
AcDbRasterVariables
  3
ISM
 90
0
 91
0
280
0
281
0
  0
CLASS
  1
ACDBPLACEHOLDER
  2
AcDbPlaceHolder
  3
ObjectDBX Classes
 90
0
 91
0
280
0
281
0
  0
CLASS
  1
LAYOUT
  2
AcDbLayout
  3
ObjectDBX Classes
 90
0
 91
0
280
0
281
0
  0
ENDSEC
  0
SECTION
  2
TABLES
  0
TABLE
  2
VPORT
  5
8
330
0
100
AcDbSymbolTable
 70
1
  0
VPORT
  5
442
330
8
100
AcDbSymbolTableRecord
100
AcDbViewportTableRecord
  2
*Active
 70
0
 10
0.0
 20
0.0
 11
1.0
 21
1.0
 12
344.1869158878504
 22
148.5
 13
0.0
 23
0.0
 14
10.0
 24
10.0
 15
10.0
 25
10.0
 16
0.0
 26
0.0
 36
1.0
 17
0.0
 27
0.0
 37
0.0
 40
297.0
 41
1.972972972850329
 42
50.0
 43
0.0
 44
0.0
 50
0.0
 51
0.0
 71
0
 72
100
 73
1
 74
3
 75
0
 76
0
 77
0
 78
0
281
0
 65
1
110
0.0
120
0.0
130
0.0
111
1.0
121
0.0
131
0.0
112
0.0
122
1.0
132
0.0
 79
0
146
0.0
 60
3
 61
5
348
791
292
1
282
1
141
0.0
142
0.0
 63
250
  0
ENDTAB
  0
TABLE
  2
LTYPE
  5
5
330
0
100
AcDbSymbolTable
 70
6
  0
LTYPE
  5
14
330
5
100
AcDbSymbolTableRecord
100
AcDbLinetypeTableRecord
  2
ByBlock
 70
0
  3

 72
65
 73
0
 40
0.0
  0
LTYPE
  5
15
330
5
100
AcDbSymbolTableRecord
100
AcDbLinetypeTableRecord
  2
ByLayer
 70
0
  3

 72
65
 73
0
 40
0.0
  0
LTYPE
  5
16
330
5
100
AcDbSymbolTableRecord
100
AcDbLinetypeTableRecord
  2
CONTINUOUS
 70
0
  3
Solid line
 72
65
 73
0
 40
0.0
  0
LTYPE
  5
410
330
5
100
AcDbSymbolTableRecord
100
AcDbLinetypeTableRecord
  2
DASHDOT
 70
0
  3
Dash Dot ____ _ ____ _
 72
65
 73
4
 40
2.0
 49
1.25
 74
0
 49
-0.25
 74
0
 49
0.25
 74
0
 49
-0.25
 74
0
  0
LTYPE
  5
411
330
5
100
AcDbSymbolTableRecord
100
AcDbLinetypeTableRecord
  2
DASHED
 70
0
  3
Dashed __ __ __ __ __
 72
65
 73
2
 40
0.75
 49
0.5
 74
0
 49
-0.25
 74
0
  0
LTYPE
  5
43B
330
5
100
AcDbSymbolTableRecord
100
AcDbLinetypeTableRecord
  2
DOTTED
 70
0
  3
Dotted .  .  .  .
 72
65
 73
2
 40
0.2
 49
0.0
 74
0
 49
-0.2
 74
0
  0
ENDTAB
  0
TABLE
  2
LAYER
  5
2
330
0
100
AcDbSymbolTable
 70
3
  0
LAYER
  5
10
330
2
100
AcDbSymbolTableRecord
100
AcDbLayerTableRecord
  2
0
 70
0
 62
7
  6
CONTINUOUS
370
-3
390
F
347
7A8
348
0
  0
LAYER
  5
440
330
2
100
AcDbSymbolTableRecord
100
AcDbLayerTableRecord
  2
BLACK
 70
0
 62
7
  6
CONTINUOUS
370
-3
390
F
347
7A8
348
0
  0
LAYER
  5
7B8
330
2
100
AcDbSymbolTableRecord
100
AcDbLayerTableRecord
  2
Defpoints
 70
0
 62
7
  6
Continuous
290
0
370
-3
390
F
347
7A8
  0
ENDTAB
  0
TABLE
  2
STYLE
  5
3
330
0
100
AcDbSymbolTable
 70
5
  0
STYLE
  5
11
330
3
100
AcDbSymbolTableRecord
100
AcDbTextStyleTableRecord
  2
Standard
 70
0
 40
0.0
 41
1.0
 50
0.0
 71
0
 42
0.2
  3
txt
  4

  0
STYLE
  5
43C
330
3
100
AcDbSymbolTableRecord
100
AcDbTextStyleTableRecord
  2
KICAD
 70
0
 40
0.0
 41
1.0
 50
0.0
 71
0
 42
1.0
  3
isocp.shx
  4

  0
STYLE
  5
43D
330
3
100
AcDbSymbolTableRecord
100
AcDbTextStyleTableRecord
  2
KICADB
 70
0
 40
0.0
 41
1.0
 50
0.0
 71
0
 42
1.0
  3
isocp.shx
  4

  0
STYLE
  5
43E
330
3
100
AcDbSymbolTableRecord
100
AcDbTextStyleTableRecord
  2
KICADI
 70
0
 40
0.0
 41
1.0
 50
15.0
 71
0
 42
1.0
  3
isocp.shx
  4

  0
STYLE
  5
43F
330
3
100
AcDbSymbolTableRecord
100
AcDbTextStyleTableRecord
  2
KICADBI
 70
0
 40
0.0
 41
1.0
 50
15.0
 71
0
 42
1.0
  3
isocp.shx
  4

  0
ENDTAB
  0
TABLE
  2
VIEW
  5
6
330
0
100
AcDbSymbolTable
 70
0
  0
ENDTAB
  0
TABLE
  2
UCS
  5
7
330
0
100
AcDbSymbolTable
 70
0
  0
ENDTAB
  0
TABLE
  2
APPID
  5
9
330
0
100
AcDbSymbolTable
 70
3
  0
APPID
  5
12
330
9
100
AcDbSymbolTableRecord
100
AcDbRegAppTableRecord
  2
ACAD
 70
0
  0
APPID
  5
7BA
330
9
100
AcDbSymbolTableRecord
100
AcDbRegAppTableRecord
  2
HATCHBACKGROUNDCOLOR
 70
0
  0
APPID
  5
7BB
330
9
100
AcDbSymbolTableRecord
100
AcDbRegAppTableRecord
  2
EZDXF
 70
0
  0
ENDTAB
  0
TABLE
  2
DIMSTYLE
  5
A
330
0
100
AcDbSymbolTable
 70
2
100
AcDbDimStyleTable
  0
DIMSTYLE
105
441
330
A
100
AcDbSymbolTableRecord
100
AcDbDimStyleTableRecord
  2
ISO-25
 70
0
 40
1.0
 41
2.5
 42
0.625
 43
3.75
 44
1.25
 45
0.0
 46
0.0
 47
0.0
 48
0.0
 49
2.5
140
2.5
141
2.5
142
0.0
143
0.03937007874016
144
1.0
145
0.0
146
1.0
147
0.625
148
0.0
 69
0
 70
0
 71
0
 72
0
 73
0
 74
0
 75
0
 76
0
 77
1
 78
8
 79
3
170
0
171
3
172
1
173
0
174
0
175
0
176
0
177
0
178
0
179
2
271
2
272
2
273
2
274
3
275
0
276
0
277
2
278
44
279
0
280
0
281
0
282
0
283
0
284
8
285
0
286
0
288
0
289
3
290
0
340
11
371
-2
372
-2
  0
DIMSTYLE
105
7B9
330
A
100
AcDbSymbolTableRecord
100
AcDbDimStyleTableRecord
  2
Standard
 70
0
 40
1.0
 41
2.5
 42
0.625
 43
3.75
 44
1.25
 45
0.0
 46
0.0
 47
0.0
 48
0.0
 49
2.5
140
2.5
141
2.5
142
0.0
143
0.03937007874
144
1.0
145
0.0
146
1.0
147
0.625
148
0.0
 69
0
 70
0
 71
0
 72
0
 73
0
 74
0
 75
0
 76
0
 77
1
 78
8
 79
3
170
0
171
3
172
1
173
0
174
0
175
0
176
0
177
0
178
0
179
2
271
2
272
2
273
2
274
3
275
0
276
0
277
2
278
44
279
0
280
0
281
0
282
0
283
0
284
8
285
0
286
0
288
0
289
3
290
0
371
-2
372
-2
  0
ENDTAB
  0
TABLE
  2
BLOCK_RECORD
  5
1
330
0
100
AcDbSymbolTable
 70
2
  0
BLOCK_RECORD
  5
1D
330
1
100
AcDbSymbolTableRecord
100
AcDbBlockTableRecord
  2
*Model_Space
340
1E
 70
0
280
1
281
0
  0
BLOCK_RECORD
  5
1B
330
1
100
AcDbSymbolTableRecord
100
AcDbBlockTableRecord
  2
*Paper_Space
340
1C
 70
0
280
1
281
0
  0
ENDTAB
  0
ENDSEC
  0
SECTION
  2
BLOCKS
  0
BLOCK
  5
788
330
1D
100
AcDbEntity
  8
0
100
AcDbBlockBegin
  2
*Model_Space
 70
0
 10
0.0
 20
0.0
 30
0.0
  3
*Model_Space
  1

  0
ENDBLK
  5
789
330
1D
100
AcDbEntity
  8
0
100
AcDbBlockEnd
  0
BLOCK
  5
78A
330
1B
100
AcDbEntity
 67
1
  8
0
100
AcDbBlockBegin
  2
*Paper_Space
 70
0
 10
0.0
 20
0.0
 30
0.0
  3
*Paper_Space
  1

  0
ENDBLK
  5
78B
330
1B
100
AcDbEntity
 67
1
  8
0
100
AcDbBlockEnd
  0
ENDSEC
  0
SECTION
  2
ENTITIES
  0
LINE
  5
443
330
1D
100
AcDbEntity
  8
BLACK
  6
Continuous
100
AcDbLine
 10
34.77001
 20
-8.639999999999999
 30
0.0
 11
34.770008
 21
-8.639999999999999
 31
0.0
  0
LINE
  5
444
330
1D
100
AcDbEntity
  8
BLACK
  6
Continuous
100
AcDbLine
 10
35.270009
 20
4.859976
 30
0.0
 11
35.270009
 21
4.860001
 31
0.0
  0
LINE
  5
445
330
1D
100
AcDbEntity
  8
BLACK
  6
Continuous
100
AcDbLine
 10
16.220009
 20
4.859976
 30
0.0
 11
16.220009
 21
4.860001
 31
0.0
  0
LINE
  5
446
330
1D
100
AcDbEntity
  8
BLACK
  6
Continuous
100
AcDbLine
 10
15.72001
 20
-8.639999999999999
 30
0.0
 11
15.720008
 21
-8.639999999999999
 31
0.0
  0
LINE
  5
447
330
1D
100
AcDbEntity
  8
BLACK
  6
Continuous
100
AcDbLine
 10
16.320008
 20
-27.69
 30
0.0
 11
16.32001
 21
-27.69
 31
0.0
  0
LINE
  5
448
330
1D
100
AcDbEntity
  8
BLACK
  6
Continuous
100
AcDbLine
 10
16.820009
 20
-14.190024
 30
0.0
 11
16.820009
 21
-14.189999
 31
0.0
  0
LINE
  5
449
330
1D
100
AcDbEntity
  8
BLACK
  6
Continuous
100
AcDbLine
 10
40.632509
 20
-14.190024
 30
0.0
 11
40.632509
 21
-14.189999
 31
0.0
  0
LINE
  5
44A
330
1D
100
AcDbEntity
  8
BLACK
  6
Continuous
100
AcDbLine
 10
40.13251
 20
-27.69
 30
0.0
 11
40.132508
 21
-27.69
 31
0.0
  0
LINE
  5
44B
330
1D
100
AcDbEntity
  8
BLACK
  6
Continuous
100
AcDbLine
 10
253.500009
 20
4.859976
 30
0.0
 11
253.500009
 21
4.859999999999999
 31
0.0
  0
LINE
  5
44C
330
1D
100
AcDbEntity
  8
BLACK
  6
Continuous
100
AcDbLine
 10
253.000009
 20
-8.639999999999999
 30
0.0
 11
253.000008
 21
-8.639999999999999
 31
0.0
  0
LINE
  5
44D
330
1D
100
AcDbEntity
  8
BLACK
  6
Continuous
100
AcDbLine
 10
53.910009
 20
6.999975999999999
 30
0.0
 11
53.910009
 21
7.0
 31
0.0
  0
LINE
  5
44E
330
1D
100
AcDbEntity
  8
BLACK
  6
Continuous
100
AcDbLine
 10
291.010009
 20
-14.190024
 30
0.0
 11
291.010009
 21
-14.19
 31
0.0
  0
LINE
  5
44F
330
1D
100
AcDbEntity
  8
BLACK
  6
Continuous
100
AcDbLine
 10
247.640008
 20
-27.69
 30
0.0
 11
247.64001
 21
-27.69
 31
0.0
  0
LINE
  5
450
330
1D
100
AcDbEntity
  8
BLACK
  6
Continuous
100
AcDbLine
 10
248.140009
 20
-14.190024
 30
0.0
 11
248.140009
 21
-14.189999
 31
0.0
  0
LINE
  5
451
330
1D
100
AcDbEntity
  8
BLACK
  6
Continuous
100
AcDbLine
 10
229.01001
 20
-26.63
 30
0.0
 11
229.010008
 21
-26.63
 31
0.0
  0
LINE
  5
452
330
1D
100
AcDbEntity
  8
BLACK
  6
Continuous
100
AcDbLine
 10
229.510009
 20
-13.130024
 30
0.0
 11
229.510009
 21
-13.129999
 31
0.0
  0
LINE
  5
453
330
1D
100
AcDbEntity
  8
BLACK
  6
Continuous
100
AcDbLine
 10
251.820009
 20
-52.290025
 30
0.0
 11
251.820009
 21
-52.29
 31
0.0
  0
LINE
  5
454
330
1D
100
AcDbEntity
  8
BLACK
  6
Continuous
100
AcDbLine
 10
234.870009
 20
6.999975999999999
 30
0.0
 11
234.870009
 21
7.0
 31
0.0
  0
LINE
  5
455
330
1D
100
AcDbEntity
  8
BLACK
  6
Continuous
100
AcDbLine
 10
232.770009
 20
-52.290025
 30
0.0
 11
232.770009
 21
-52.29
 31
0.0
  0
LINE
  5
456
330
1D
100
AcDbEntity
  8
BLACK
  6
Continuous
100
AcDbLine
 10
295.265609
 20
-84.88799999999999
 30
0.0
 11
295.26561
 21
-84.88799999999999
 31
0.0
  0
LINE
  5
457
330
1D
100
AcDbEntity
  8
BLACK
  6
Continuous
100
AcDbLine
 10
257.180009
 20
-33.240025
 30
0.0
 11
257.180009
 21
-33.24
 31
0.0
  0
LINE
  5
458
330
1D
100
AcDbEntity
  8
BLACK
  6
Continuous
100
AcDbLine
 10
238.130009
 20
-33.240024
 30
0.0
 11
238.130009
 21
-33.24
 31
0.0
  0
LINE
  5
459
330
1D
100
AcDbEntity
  8
BLACK
  6
Continuous
100
AcDbLine
 10
267.190009
 20
-14.190025
 30
0.0
 11
267.190009
 21
-14.19
 31
0.0
  0
LINE
  5
45A
330
1D
100
AcDbEntity
  8
BLACK
  6
Continuous
100
AcDbLine
 10
7.030009
 20
-52.315024
 30
0.0
 11
7.030009
 21
-52.314999
 31
0.0
  0
LINE
  5
45B
330
1D
100
AcDbEntity
  8
BLACK
  6
Continuous
100
AcDbLine
 10
68.783959
 20
-52.589178
 30
0.0
 11
68.783962
 21
-52.589163
 31
0.0
  0
LINE
  5
45C
330
1D
100
AcDbEntity
  8
BLACK
  6
Continuous
100
AcDbLine
 10
128.619248
 20
-20.682372
 30
0.0
 11
128.619239
 21
-20.68237
 31
0.0
  0
LINE
  5
45D
330
1D
100
AcDbEntity
  8
BLACK
  6
Continuous
100
AcDbLine
 10
186.649447
 20
-35.944614
 30
0.0
 11
186.649455
 21
-35.94465
 31
0.0
  0
LINE
  5
45E
330
1D
100
AcDbEntity
  8
BLACK
  6
Continuous
100
AcDbLine
 10
121.390196
 20
-77.567864
 30
0.0
 11
121.390197
 21
-77.567864
 31
0.0
  0
LINE
  5
45F
330
1D
100
AcDbEntity
  8
BLACK
  6
Continuous
100
AcDbLine
 10
189.909447
 20
-74.20461399999999
 30
0.0
 11
189.909455
 21
-74.20465
 31
0.0
  0
LINE
  5
460
330
1D
100
AcDbEntity
  8
BLACK
  6
Continuous
100
AcDbLine
 10
49.890009
 20
-88.120025
 30
0.0
 11
49.890009
 21
-88.11999999999999
 31
0.0
  0
LINE
  5
461
330
1D
100
AcDbEntity
  8
BLACK
  6
Continuous
100
AcDbLine
 10
56.894562
 20
-88.229264
 30
0.0
 11
56.89456
 21
-88.229272
 31
0.0
  0
LINE
  5
462
330
1D
100
AcDbEntity
  8
BLACK
  6
Continuous
100
AcDbLine
 10
139.585271
 20
-105.805729
 30
0.0
 11
139.585274
 21
-105.805717
 31
0.0
  0
LINE
  5
463
330
1D
100
AcDbEntity
  8
BLACK
  6
Continuous
100
AcDbLine
 10
150.100462
 20
-108.040786
 30
0.0
 11
150.100461
 21
-108.040789
 31
0.0
  0
LINE
  5
464
330
1D
100
AcDbEntity
  8
BLACK
  6
Continuous
100
AcDbLine
 10
213.393708
 20
-100.141277
 30
0.0
 11
213.393711
 21
-100.14129
 31
0.0
  0
LINE
  5
465
330
1D
100
AcDbEntity
  8
BLACK
  6
Continuous
100
AcDbLine
 10
246.199209
 20
-88.16800599999999
 30
0.0
 11
246.199209
 21
-88.16799999999999
 31
0.0
  0
LINE
  5
466
330
1D
100
AcDbEntity
  8
BLACK
  6
Continuous
100
AcDbLine
 10
303.888758
 20
-93.11995
 30
0.0
 11
303.888758
 21
-93.11999999999999
 31
0.0
  0
LINE
  5
467
330
1D
100
AcDbEntity
  8
BLACK
  6
Continuous
100
AcDbLine
 10
306.88876
 20
-88.16799999999999
 30
0.0
 11
306.88876
 21
-88.16805
 31
0.0
  0
LINE
  5
468
330
1D
100
AcDbEntity
  8
BLACK
  6
Continuous
100
AcDbLine
 10
315.374549
 20
-88.16798399999999
 30
0.0
 11
315.374549
 21
-88.16799999999999
 31
0.0
  0
LINE
  5
469
330
1D
100
AcDbEntity
  8
BLACK
  6
Continuous
100
AcDbLine
 10
320.495864
 20
-83.460887
 30
0.0
 11
320.495868
 21
-83.46089099999999
 31
0.0
  0
LINE
  5
46A
330
1D
100
AcDbEntity
  8
BLACK
  6
Continuous
100
AcDbLine
 10
320.788764
 20
4.3658
 30
0.0
 11
320.788759
 21
4.3658
 31
0.0
  0
LINE
  5
46B
330
1D
100
AcDbEntity
  8
BLACK
  6
Continuous
100
AcDbLine
 10
255.889009
 20
14.779975
 30
0.0
 11
255.889009
 21
14.78
 31
0.0
  0
LINE
  5
46C
330
1D
100
AcDbEntity
  8
BLACK
  6
Continuous
100
AcDbLine
 10
216.352609
 20
13.279999
 30
0.0
 11
216.352676
 21
13.279999
 31
0.0
  0
LINE
  5
46D
330
1D
100
AcDbEntity
  8
BLACK
  6
Continuous
100
AcDbLine
 10
166.852677
 20
14.779933
 30
0.0
 11
166.852677
 21
14.78
 31
0.0
  0
LINE
  5
46E
330
1D
100
AcDbEntity
  8
BLACK
  6
Continuous
100
AcDbLine
 10
137.426342
 20
11.280001
 30
0.0
 11
137.426409
 21
11.280001
 31
0.0
  0
LINE
  5
46F
330
1D
100
AcDbEntity
  8
BLACK
  6
Continuous
100
AcDbLine
 10
84.926341
 20
9.78
 30
0.0
 11
84.926341
 21
9.780066999999999
 31
0.0
  0
LINE
  5
470
330
1D
100
AcDbEntity
  8
BLACK
  6
Continuous
100
AcDbLine
 10
76.013959
 20
4.300822
 30
0.0
 11
76.01396199999999
 21
4.300837
 31
0.0
  0
LINE
  5
471
330
1D
100
AcDbEntity
  8
BLACK
  6
Continuous
100
AcDbLine
 10
116.039248
 20
-56.96237199999999
 30
0.0
 11
116.039239
 21
-56.96237
 31
0.0
  0
LINE
  5
472
330
1D
100
AcDbEntity
  8
BLACK
  6
Continuous
100
AcDbLine
 10
192.009447
 20
-15.334614
 30
0.0
 11
192.009455
 21
-15.33465
 31
0.0
  0
LINE
  5
473
330
1D
100
AcDbEntity
  8
BLACK
  6
Continuous
100
AcDbLine
 10
62.733959
 20
-12.349178
 30
0.0
 11
62.733962
 21
-12.349163
 31
0.0
  0
LINE
  5
474
330
1D
100
AcDbEntity
  8
BLACK
  6
Continuous
100
AcDbLine
 10
63.97395899999999
 20
-72.579178
 30
0.0
 11
63.973962
 21
-72.579163
 31
0.0
  0
LINE
  5
475
330
1D
100
AcDbEntity
  8
BLACK
  6
Continuous
100
AcDbLine
 10
63.43395899999999
 20
-31.979178
 30
0.0
 11
63.43396199999999
 21
-31.979163
 31
0.0
  0
LINE
  5
476
330
1D
100
AcDbEntity
  8
BLACK
  6
Continuous
100
AcDbLine
 10
195.269447
 20
-53.594614
 30
0.0
 11
195.269455
 21
-53.59464999999999
 31
0.0
  0
LINE
  5
477
330
1D
100
AcDbEntity
  8
BLACK
  6
Continuous
100
AcDbLine
 10
115.340197
 20
-37.327864
 30
0.0
 11
115.340196
 21
-37.327864
 31
0.0
  0
LINE
  5
478
330
1D
100
AcDbEntity
  8
BLACK
  6
Continuous
100
AcDbLine
 10
-17.717065
 20
5.072926
 30
0.0
 11
-17.71707
 21
5.072931
 31
0.0
  0
LINE
  5
479
330
1D
100
AcDbEntity
  8
BLACK
  6
Continuous
100
AcDbLine
 10
86.765329
 20
-94.57849499999999
 30
0.0
 11
86.765329
 21
-94.578492
 31
0.0
  0
LINE
  5
47A
330
1D
100
AcDbEntity
  8
BLACK
  6
Continuous
100
AcDbLine
 10
152.179567
 20
-108.040782
 30
0.0
 11
152.179567
 21
-108.040787
 31
0.0
  0
LINE
  5
47B
330
1D
100
AcDbEntity
  8
BLACK
  6
Continuous
100
AcDbLine
 10
164.663537
 20
-108.965697
 30
0.0
 11
164.663516
 21
-108.965697
 31
0.0
  0
ARC
  5
47C
330
1D
100
AcDbEntity
  8
BLACK
100
AcDbCircle
 10
214.852709
 20
13.280075
 30
0.0
 40
1.499925
100
AcDbArc
 50
359.99709682
 51
90.0
  0
LINE
  5
47D
330
1D
100
AcDbEntity
  8
BLACK
  6
Continuous
100
AcDbLine
 10
166.852677
 20
14.78
 30
0.0
 11
214.852709
 21
14.78
 31
0.0
  0
ARC
  5
47E
330
1D
100
AcDbEntity
  8
BLACK
100
AcDbCircle
 10
166.852609
 20
13.279975
 30
0.0
 40
1.499933
100
AcDbArc
 50
89.99740251999998
 51
180.0
  0
LINE
  5
47F
330
1D
100
AcDbEntity
  8
BLACK
  6
Continuous
100
AcDbLine
 10
165.352676
 20
11.280075
 30
0.0
 11
165.352676
 21
13.279975
 31
0.0
  0
ARC
  5
480
330
1D
100
AcDbEntity
  8
BLACK
100
AcDbCircle
 10
163.852509
 20
11.280075
 30
0.0
 40
1.500167
100
AcDbArc
 50
269.36892497
 51
0.0
  0
LINE
  5
481
330
1D
100
AcDbEntity
  8
BLACK
  6
Continuous
100
AcDbLine
 10
138.926309
 20
9.78
 30
0.0
 11
163.835986
 21
9.78
 31
0.0
  0
ARC
  5
482
330
1D
100
AcDbEntity
  8
BLACK
100
AcDbCircle
 10
138.926309
 20
11.279875
 30
0.0
 40
1.499875
100
AcDbArc
 50
179.99518683
 51
270.0
  0
LINE
  5
483
330
1D
100
AcDbEntity
  8
BLACK
  6
Continuous
100
AcDbLine
 10
137.426342
 20
13.263252
 30
0.0
 11
137.426342
 21
11.280001
 31
0.0
  0
ARC
  5
484
330
1D
100
AcDbEntity
  8
BLACK
100
AcDbCircle
 10
135.926209
 20
13.279775
 30
0.0
 40
1.500225
100
AcDbArc
 50
359.3689493599999
 51
90.0
  0
LINE
  5
485
330
1D
100
AcDbEntity
  8
BLACK
  6
Continuous
100
AcDbLine
 10
87.93773399999999
 20
14.78
 30
0.0
 11
135.926209
 21
14.78
 31
0.0
  0
ARC
  5
486
330
1D
100
AcDbEntity
  8
BLACK
100
AcDbCircle
 10
87.926509
 20
13.279875
 30
0.0
 40
1.500167
100
AcDbArc
 50
89.57128031
 51
180.0
  0
LINE
  5
487
330
1D
100
AcDbEntity
  8
BLACK
  6
Continuous
100
AcDbLine
 10
86.42634199999999
 20
11.279975
 30
0.0
 11
86.42634199999999
 21
13.279875
 31
0.0
  0
ARC
  5
488
330
1D
100
AcDbEntity
  8
BLACK
100
AcDbCircle
 10
84.92640899999999
 20
11.279975
 30
0.0
 40
1.499933
100
AcDbArc
 50
269.99740243
 51
0.0
  0
LINE
  5
489
330
1D
100
AcDbEntity
  8
BLACK
  6
Continuous
100
AcDbLine
 10
49.890009
 20
9.78
 30
0.0
 11
84.926341
 21
9.78
 31
0.0
  0
ARC
  5
48A
330
1D
100
AcDbEntity
  8
BLACK
100
AcDbCircle
 10
49.890009
 20
11.279975
 30
0.0
 40
1.499975
100
AcDbArc
 50
179.99904507
 51
270.0
  0
LINE
  5
48B
330
1D
100
AcDbEntity
  8
BLACK
  6
Continuous
100
AcDbLine
 10
48.390009
 20
13.27149
 30
0.0
 11
48.390009
 21
11.28
 31
0.0
  0
ARC
  5
48C
330
1D
100
AcDbEntity
  8
BLACK
100
AcDbCircle
 10
46.890009
 20
13.279975
 30
0.0
 40
1.500025
100
AcDbArc
 50
359.67590033
 51
90.0
  0
LINE
  5
48D
330
1D
100
AcDbEntity
  8
BLACK
  6
Continuous
100
AcDbLine
 10
-1.10999
 20
14.78
 30
0.0
 11
46.890009
 21
14.78
 31
0.0
  0
ARC
  5
48E
330
1D
100
AcDbEntity
  8
BLACK
100
AcDbCircle
 10
-1.10999
 20
13.279999
 30
0.0
 40
1.500001
100
AcDbArc
 50
90.0
 51
180.0
  0
LINE
  5
48F
330
1D
100
AcDbEntity
  8
BLACK
  6
Continuous
100
AcDbLine
 10
-2.609991
 20
11.280001
 30
0.0
 11
-2.609991
 21
13.279999
 31
0.0
  0
ARC
  5
490
330
1D
100
AcDbEntity
  8
BLACK
100
AcDbCircle
 10
-4.109992
 20
11.280001
 30
0.0
 40
1.500001
100
AcDbArc
 50
270.0000382
 51
0.0
  0
LINE
  5
491
330
1D
100
AcDbEntity
  8
BLACK
  6
Continuous
100
AcDbLine
 10
-12.589647
 20
9.78
 30
0.0
 11
-4.109991
 21
9.78
 31
0.0
  0
ARC
  5
492
330
1D
100
AcDbEntity
  8
BLACK
100
AcDbCircle
 10
-12.595651
 20
8.779755999999999
 30
0.0
 40
1.000261938957991
100
AcDbArc
 50
89.65608419
 51
135.0
  0
LINE
  5
493
330
1D
100
AcDbEntity
  8
BLACK
  6
Continuous
100
AcDbLine
 10
-17.717065
 20
5.072926
 30
0.0
 11
-13.302943
 21
9.487048
 31
0.0
  0
ARC
  5
494
330
1D
100
AcDbEntity
  8
BLACK
100
AcDbCircle
 10
-17.009918
 20
4.365766
 30
0.0
 40
1.000073000002
100
AcDbArc
 50
134.99947335
 51
180.00011458
  0
LINE
  5
495
330
1D
100
AcDbEntity
  8
BLACK
  6
Continuous
100
AcDbLine
 10
-18.009991
 20
-68.067
 30
0.0
 11
-18.009991
 21
4.365764
 31
0.0
  0
ARC
  5
496
330
1D
100
AcDbEntity
  8
BLACK
100
AcDbCircle
 10
-16.509992
 20
-68.067042
 30
0.0
 40
1.499958000000333
100
AcDbArc
 50
179.99839567
 51
270.0000382
  0
LINE
  5
497
330
1D
100
AcDbEntity
  8
BLACK
  6
Continuous
100
AcDbLine
 10
-9.929993
 20
-69.567
 30
0.0
 11
-16.509991
 21
-69.567
 31
0.0
  0
ARC
  5
498
330
1D
100
AcDbEntity
  8
BLACK
100
AcDbCircle
 10
-9.929993
 20
-71.067002
 30
0.0
 40
1.500002
100
AcDbArc
 50
0.0
 51
90.0
  0
LINE
  5
499
330
1D
100
AcDbEntity
  8
BLACK
  6
Continuous
100
AcDbLine
 10
-8.429991
 20
-86.61999899999999
 30
0.0
 11
-8.429991
 21
-71.067002
 31
0.0
  0
ARC
  5
49A
330
1D
100
AcDbEntity
  8
BLACK
100
AcDbCircle
 10
-6.92999
 20
-86.61999899999999
 30
0.0
 40
1.500001
100
AcDbArc
 50
180.0
 51
270.0
  0
LINE
  5
49B
330
1D
100
AcDbEntity
  8
BLACK
  6
Continuous
100
AcDbLine
 10
-4.109992
 20
-88.11999999999999
 30
0.0
 11
-6.92999
 21
-88.11999999999999
 31
0.0
  0
ARC
  5
49C
330
1D
100
AcDbEntity
  8
BLACK
100
AcDbCircle
 10
-4.109992
 20
-89.620001
 30
0.0
 40
1.500001
100
AcDbArc
 50
3.82e-05
 51
90.0
  0
LINE
  5
49D
330
1D
100
AcDbEntity
  8
BLACK
  6
Continuous
100
AcDbLine
 10
-2.609991
 20
-91.61999899999999
 30
0.0
 11
-2.609991
 21
-89.61999999999999
 31
0.0
  0
ARC
  5
49E
330
1D
100
AcDbEntity
  8
BLACK
100
AcDbCircle
 10
-1.10999
 20
-91.61999899999999
 30
0.0
 40
1.500001
100
AcDbArc
 50
180.0
 51
270.0
  0
LINE
  5
49F
330
1D
100
AcDbEntity
  8
BLACK
  6
Continuous
100
AcDbLine
 10
46.881524
 20
-93.11999999999999
 30
0.0
 11
-1.10999
 21
-93.11999999999999
 31
0.0
  0
ARC
  5
4A0
330
1D
100
AcDbEntity
  8
BLACK
100
AcDbCircle
 10
46.890009
 20
-91.620025
 30
0.0
 40
1.5
100
AcDbArc
 50
269.67589493
 51
0.0
  0
LINE
  5
4A1
330
1D
100
AcDbEntity
  8
BLACK
  6
Continuous
100
AcDbLine
 10
48.390009
 20
-89.620025
 30
0.0
 11
48.390009
 21
-91.620025
 31
0.0
  0
ARC
  5
4A2
330
1D
100
AcDbEntity
  8
BLACK
100
AcDbCircle
 10
49.890009
 20
-89.620025
 30
0.0
 40
1.5
100
AcDbArc
 50
90.0
 51
180.0
  0
LINE
  5
4A3
330
1D
100
AcDbEntity
  8
BLACK
  6
Continuous
100
AcDbLine
 10
55.855009
 20
-88.11999999999999
 30
0.0
 11
49.890009
 21
-88.11999999999999
 31
0.0
  0
ARC
  5
4A4
330
1D
100
AcDbEntity
  8
BLACK
100
AcDbCircle
 10
55.855009
 20
-93.119525
 30
0.0
 40
4.999524999999999
100
AcDbArc
 50
77.99892793
 51
90.0
  0
LINE
  5
4A5
330
1D
100
AcDbEntity
  8
BLACK
  6
Continuous
100
AcDbLine
 10
86.765329
 20
-94.578492
 30
0.0
 11
56.894562
 21
-88.229264
 31
0.0
  0
ARC
  5
4A6
330
1D
100
AcDbEntity
  8
BLACK
100
AcDbCircle
 10
86.453509
 20
-96.04572499999999
 30
0.0
 40
1.499998528432612
100
AcDbArc
 50
348.463117
 51
78.00184436
  0
LINE
  5
4A7
330
1D
100
AcDbEntity
  8
BLACK
  6
Continuous
100
AcDbLine
 10
87.504864
 20
-98.313853
 30
0.0
 11
87.923203
 21
-96.34572299999999
 31
0.0
  0
ARC
  5
4A8
330
1D
100
AcDbEntity
  8
BLACK
100
AcDbCircle
 10
88.97210899999999
 20
-98.62572499999999
 30
0.0
 40
1.500024219189144
100
AcDbArc
 50
168.00002064
 51
257.99998327
  0
LINE
  5
4A9
330
1D
100
AcDbEntity
  8
BLACK
  6
Continuous
100
AcDbLine
 10
135.611223
 20
-110.07271
 30
0.0
 11
88.660236
 21
-100.09297
 31
0.0
  0
ARC
  5
4AA
330
1D
100
AcDbEntity
  8
BLACK
100
AcDbCircle
 10
135.923109
 20
-108.605525
 30
0.0
 40
1.500049712437558
100
AcDbArc
 50
257.99904274
 51
347.999995
  0
LINE
  5
4AB
330
1D
100
AcDbEntity
  8
BLACK
  6
Continuous
100
AcDbLine
 10
137.806213
 20
-106.961062
 30
0.0
 11
137.390379
 21
-108.917403
 31
0.0
  0
ARC
  5
4AC
330
1D
100
AcDbEntity
  8
BLACK
100
AcDbCircle
 10
139.273409
 20
-107.272925
 30
0.0
 40
1.499974210839973
100
AcDbArc
 50
78.00000511999998
 51
167.99996776
  0
LINE
  5
4AD
330
1D
100
AcDbEntity
  8
BLACK
  6
Continuous
100
AcDbLine
 10
150.100461
 20
-108.040789
 30
0.0
 11
139.585274
 21
-105.805717
 31
0.0
  0
ARC
  5
4AE
330
1D
100
AcDbEntity
  8
BLACK
100
AcDbCircle
 10
151.140009
 20
-103.150225
 30
0.0
 40
4.999822857423351
100
AcDbArc
 50
257.99970667
 51
282.00042617
  0
LINE
  5
4AF
330
1D
100
AcDbEntity
  8
BLACK
  6
Continuous
100
AcDbLine
 10
162.46852
 20
-105.853802
 30
0.0
 11
152.179567
 21
-108.040787
 31
0.0
  0
ARC
  5
4B0
330
1D
100
AcDbEntity
  8
BLACK
100
AcDbCircle
 10
162.780409
 20
-107.321125
 30
0.0
 40
1.500103841288995
100
AcDbArc
 50
12.48162143
 51
101.99999508
  0
LINE
  5
4B1
330
1D
100
AcDbEntity
  8
BLACK
  6
Continuous
100
AcDbLine
 10
164.663537
 20
-108.965697
 30
0.0
 11
164.245058
 21
-106.996913
 31
0.0
  0
ARC
  5
4B2
330
1D
100
AcDbEntity
  8
BLACK
100
AcDbCircle
 10
166.130809
 20
-108.653725
 30
0.0
 40
1.500092665842014
100
AcDbArc
 50
192.00333421
 51
282.00000771
  0
LINE
  5
4B3
330
1D
100
AcDbEntity
  8
BLACK
  6
Continuous
100
AcDbLine
 10
213.393711
 20
-100.14129
 30
0.0
 11
166.442696
 21
-110.121037
 31
0.0
  0
ARC
  5
4B4
330
1D
100
AcDbEntity
  8
BLACK
100
AcDbCircle
 10
213.082009
 20
-98.67412499999999
 30
0.0
 40
1.499849471128686
100
AcDbArc
 50
281.99425383
 51
12.0000297
  0
LINE
  5
4B5
330
1D
100
AcDbEntity
  8
BLACK
  6
Continuous
100
AcDbLine
 10
214.1332
 20
-96.405712
 30
0.0
 11
214.549083
 21
-98.36228799999999
 31
0.0
  0
ARC
  5
4B6
330
1D
100
AcDbEntity
  8
BLACK
100
AcDbCircle
 10
215.600509
 20
-96.093825
 30
0.0
 40
1.500089731399425
100
AcDbArc
 50
102.3500945
 51
192.00003153
  0
LINE
  5
4B7
330
1D
100
AcDbEntity
  8
BLACK
  6
Continuous
100
AcDbLine
 10
245.159604
 20
-88.27727
 30
0.0
 11
215.279663
 21
-94.62844899999999
 31
0.0
  0
ARC
  5
4B8
330
1D
100
AcDbEntity
  8
BLACK
100
AcDbCircle
 10
246.199209
 20
-93.16822499999999
 30
0.0
 40
5.000221931879624
100
AcDbArc
 50
90.0
 51
102.00000473
  0
LINE
  5
4B9
330
1D
100
AcDbEntity
  8
BLACK
  6
Continuous
100
AcDbLine
 10
252.889009
 20
-88.16799999999999
 30
0.0
 11
246.199209
 21
-88.16799999999999
 31
0.0
  0
ARC
  5
4BA
330
1D
100
AcDbEntity
  8
BLACK
100
AcDbCircle
 10
252.889009
 20
-89.668025
 30
0.0
 40
1.500025
100
AcDbArc
 50
0.33078396
 51
90.0
  0
LINE
  5
4BB
330
1D
100
AcDbEntity
  8
BLACK
  6
Continuous
100
AcDbLine
 10
254.389009
 20
-91.61999999999999
 30
0.0
 11
254.389009
 21
-89.659365
 31
0.0
  0
ARC
  5
4BC
330
1D
100
AcDbEntity
  8
BLACK
100
AcDbCircle
 10
255.889009
 20
-91.620025
 30
0.0
 40
1.499975
100
AcDbArc
 50
179.99904507
 51
270.0
  0
LINE
  5
4BD
330
1D
100
AcDbEntity
  8
BLACK
  6
Continuous
100
AcDbLine
 10
303.888758
 20
-93.11999999999999
 30
0.0
 11
255.889009
 21
-93.11999999999999
 31
0.0
  0
ARC
  5
4BE
330
1D
100
AcDbEntity
  8
BLACK
100
AcDbCircle
 10
303.888809
 20
-91.620025
 30
0.0
 40
1.49995
100
AcDbArc
 50
269.99805185
 51
0.0
  0
LINE
  5
4BF
330
1D
100
AcDbEntity
  8
BLACK
  6
Continuous
100
AcDbLine
 10
305.388759
 20
-89.668025
 30
0.0
 11
305.388759
 21
-91.620025
 31
0.0
  0
ARC
  5
4C0
330
1D
100
AcDbEntity
  8
BLACK
100
AcDbCircle
 10
306.888709
 20
-89.668025
 30
0.0
 40
1.49995
100
AcDbArc
 50
89.99805191
 51
180.0
  0
LINE
  5
4C1
330
1D
100
AcDbEntity
  8
BLACK
  6
Continuous
100
AcDbLine
 10
315.374549
 20
-88.16799999999999
 30
0.0
 11
306.88876
 21
-88.16799999999999
 31
0.0
  0
ARC
  5
4C2
330
1D
100
AcDbEntity
  8
BLACK
100
AcDbCircle
 10
315.374609
 20
-87.16812499999999
 30
0.0
 40
0.9998666662675578
100
AcDbArc
 50
269.99656177
 51
314.99995948
  0
LINE
  5
4C3
330
1D
100
AcDbEntity
  8
BLACK
  6
Continuous
100
AcDbLine
 10
320.495868
 20
-83.46089099999999
 30
0.0
 11
316.081621
 21
-87.87513799999999
 31
0.0
  0
ARC
  5
4C4
330
1D
100
AcDbEntity
  8
BLACK
100
AcDbCircle
 10
319.788909
 20
-82.75382499999999
 30
0.0
 40
0.9998499999999999
100
AcDbArc
 50
314.99566437
 51
0.0
  0
LINE
  5
4C5
330
1D
100
AcDbEntity
  8
BLACK
  6
Continuous
100
AcDbLine
 10
320.788759
 20
4.3658
 30
0.0
 11
320.788759
 21
-82.75382499999999
 31
0.0
  0
ARC
  5
4C6
330
1D
100
AcDbEntity
  8
BLACK
100
AcDbCircle
 10
319.788909
 20
4.365875
 30
0.0
 40
0.9998313109284985
100
AcDbArc
 50
359.99570219
 51
44.99995947999999
  0
LINE
  5
4C7
330
1D
100
AcDbEntity
  8
BLACK
  6
Continuous
100
AcDbLine
 10
316.081746
 20
9.487013
 30
0.0
 11
320.495897
 21
5.072862
 31
0.0
  0
ARC
  5
4C8
330
1D
100
AcDbEntity
  8
BLACK
100
AcDbCircle
 10
315.374409
 20
8.779774999999999
 30
0.0
 40
1.000225
100
AcDbArc
 50
44.99599011999999
 51
90.0
  0
LINE
  5
4C9
330
1D
100
AcDbEntity
  8
BLACK
  6
Continuous
100
AcDbLine
 10
306.888909
 20
9.78
 30
0.0
 11
315.374409
 21
9.78
 31
0.0
  0
ARC
  5
4CA
330
1D
100
AcDbEntity
  8
BLACK
100
AcDbCircle
 10
306.888909
 20
11.280175
 30
0.0
 40
1.500175
100
AcDbArc
 50
179.66924912
 51
270.0
  0
LINE
  5
4CB
330
1D
100
AcDbEntity
  8
BLACK
  6
Continuous
100
AcDbLine
 10
305.388759
 20
13.264875
 30
0.0
 11
305.388759
 21
11.288835
 31
0.0
  0
ARC
  5
4CC
330
1D
100
AcDbEntity
  8
BLACK
100
AcDbCircle
 10
303.888609
 20
13.279775
 30
0.0
 40
1.500225
100
AcDbArc
 50
359.43093754
 51
90.0
  0
LINE
  5
4CD
330
1D
100
AcDbEntity
  8
BLACK
  6
Continuous
100
AcDbLine
 10
255.889009
 20
14.78
 30
0.0
 11
303.888609
 21
14.78
 31
0.0
  0
ARC
  5
4CE
330
1D
100
AcDbEntity
  8
BLACK
100
AcDbCircle
 10
255.889009
 20
13.279975
 30
0.0
 40
1.5
100
AcDbArc
 50
90.0
 51
180.0
  0
LINE
  5
4CF
330
1D
100
AcDbEntity
  8
BLACK
  6
Continuous
100
AcDbLine
 10
254.389009
 20
11.279975
 30
0.0
 11
254.389009
 21
13.279975
 31
0.0
  0
ARC
  5
4D0
330
1D
100
AcDbEntity
  8
BLACK
100
AcDbCircle
 10
252.889009
 20
11.279975
 30
0.0
 40
1.5
100
AcDbArc
 50
270.32410507
 51
0.0
  0
LINE
  5
4D1
330
1D
100
AcDbEntity
  8
BLACK
  6
Continuous
100
AcDbLine
 10
217.852809
 20
9.78
 30
0.0
 11
252.897494
 21
9.78
 31
0.0
  0
ARC
  5
4D2
330
1D
100
AcDbEntity
  8
BLACK
100
AcDbCircle
 10
217.852809
 20
11.280175
 30
0.0
 40
1.500175
100
AcDbArc
 50
179.5712826
 51
270.0
  0
LINE
  5
4D3
330
1D
100
AcDbEntity
  8
BLACK
  6
Continuous
100
AcDbLine
 10
216.352676
 20
13.279999
 30
0.0
 11
216.352676
 21
11.2914
 31
0.0
  0
LINE
  5
4D4
330
1D
100
AcDbEntity
  8
BLACK
  6
Continuous
100
AcDbLine
 10
162.739846
 20
-59.99785499999999
 30
0.0
 11
162.73982
 21
-59.997859
 31
0.0
  0
LINE
  5
4D5
330
1D
100
AcDbEntity
  8
BLACK
  6
Continuous
100
AcDbLine
 10
157.379846
 20
-80.607855
 30
0.0
 11
157.37982
 21
-80.60785899999999
 31
0.0
  0
LINE
  5
4D6
330
1D
100
AcDbEntity
  8
BLACK
  6
Continuous
100
AcDbLine
 10
194.429547
 20
-0.507497
 30
0.0
 11
194.429538
 21
-0.507451
 31
0.0
  0
LINE
  5
4D7
330
1D
100
AcDbEntity
  8
BLACK
  6
Continuous
100
AcDbLine
 10
72.718105
 20
-8.800116
 30
0.0
 11
72.718076
 21
-8.800108999999999
 31
0.0
  0
LINE
  5
4D8
330
1D
100
AcDbEntity
  8
BLACK
  6
Continuous
100
AcDbLine
 10
89.701893
 20
0.8801209999999999
 30
0.0
 11
89.70196899999999
 21
0.8801049999999999
 31
0.0
  0
LINE
  5
4D9
330
1D
100
AcDbEntity
  8
BLACK
  6
Continuous
100
AcDbLine
 10
94.647791
 20
0.340095
 30
0.0
 11
94.647796
 21
0.340122
 31
0.0
  0
LINE
  5
4DA
330
1D
100
AcDbEntity
  8
BLACK
  6
Continuous
100
AcDbLine
 10
192.329547
 20
-59.377497
 30
0.0
 11
192.329538
 21
-59.377451
 31
0.0
  0
LINE
  5
4DB
330
1D
100
AcDbEntity
  8
BLACK
  6
Continuous
100
AcDbLine
 10
189.069547
 20
-21.117497
 30
0.0
 11
189.069538
 21
-21.117451
 31
0.0
  0
LINE
  5
4DC
330
1D
100
AcDbEntity
  8
BLACK
  6
Continuous
100
AcDbLine
 10
197.689547
 20
-38.767497
 30
0.0
 11
197.689538
 21
-38.767451
 31
0.0
  0
LINE
  5
4DD
330
1D
100
AcDbEntity
  8
BLACK
  6
Continuous
100
AcDbLine
 10
110.393449
 20
-36.79229
 30
0.0
 11
110.393454
 21
-36.792269
 31
0.0
  0
LINE
  5
4DE
330
1D
100
AcDbEntity
  8
BLACK
  6
Continuous
100
AcDbLine
 10
100.001488
 20
-20.270619
 30
0.0
 11
100.001493
 21
-20.270593
 31
0.0
  0
LINE
  5
4DF
330
1D
100
AcDbEntity
  8
BLACK
  6
Continuous
100
AcDbLine
 10
267.600032
 20
4.359999999999999
 30
0.0
 11
267.600008
 21
4.359999999999999
 31
0.0
  0
LINE
  5
4E0
330
1D
100
AcDbEntity
  8
BLACK
  6
Continuous
100
AcDbLine
 10
253.00001
 20
-8.639999999999999
 30
0.0
 11
253.000008
 21
-8.639999999999999
 31
0.0
  0
LINE
  5
4E1
330
1D
100
AcDbEntity
  8
BLACK
  6
Continuous
100
AcDbLine
 10
81.367791
 20
-16.309905
 30
0.0
 11
81.367796
 21
-16.309878
 31
0.0
  0
LINE
  5
4E2
330
1D
100
AcDbEntity
  8
BLACK
  6
Continuous
100
AcDbLine
 10
68.010032
 20
6.5
 30
0.0
 11
68.010008
 21
6.5
 31
0.0
  0
LINE
  5
4E3
330
1D
100
AcDbEntity
  8
BLACK
  6
Continuous
100
AcDbLine
 10
53.410036
 20
-6.5
 30
0.0
 11
53.410008
 21
-6.5
 31
0.0
  0
LINE
  5
4E4
330
1D
100
AcDbEntity
  8
BLACK
  6
Continuous
100
AcDbLine
 10
59.438105
 20
-25.450116
 30
0.0
 11
59.438076
 21
-25.450109
 31
0.0
  0
LINE
  5
4E5
330
1D
100
AcDbEntity
  8
BLACK
  6
Continuous
100
AcDbLine
 10
76.421893
 20
-15.769879
 30
0.0
 11
76.42196899999999
 21
-15.769895
 31
0.0
  0
LINE
  5
4E6
330
1D
100
AcDbEntity
  8
BLACK
  6
Continuous
100
AcDbLine
 10
290.510036
 20
-27.69
 30
0.0
 11
290.510008
 21
-27.69
 31
0.0
  0
LINE
  5
4E7
330
1D
100
AcDbEntity
  8
BLACK
  6
Continuous
100
AcDbLine
 10
305.110033
 20
-14.69
 30
0.0
 11
305.110008
 21
-14.69
 31
0.0
  0
LINE
  5
4E8
330
1D
100
AcDbEntity
  8
BLACK
  6
Continuous
100
AcDbLine
 10
60.678106
 20
-85.680116
 30
0.0
 11
60.678076
 21
-85.680109
 31
0.0
  0
LINE
  5
4E9
330
1D
100
AcDbEntity
  8
BLACK
  6
Continuous
100
AcDbLine
 10
77.66189299999999
 20
-75.99987899999999
 30
0.0
 11
77.661968
 21
-75.999895
 31
0.0
  0
LINE
  5
4EA
330
1D
100
AcDbEntity
  8
BLACK
  6
Continuous
100
AcDbLine
 10
248.970032
 20
6.5
 30
0.0
 11
248.970008
 21
6.5
 31
0.0
  0
LINE
  5
4EB
330
1D
100
AcDbEntity
  8
BLACK
  6
Continuous
100
AcDbLine
 10
234.370036
 20
-6.5
 30
0.0
 11
234.370008
 21
-6.5
 31
0.0
  0
LINE
  5
4EC
330
1D
100
AcDbEntity
  8
BLACK
  6
Continuous
100
AcDbLine
 10
295.765609
 20
-71.388026
 30
0.0
 11
295.765609
 21
-71.387999
 31
0.0
  0
LINE
  5
4ED
330
1D
100
AcDbEntity
  8
BLACK
  6
Continuous
100
AcDbLine
 10
309.365609
 20
-85.388024
 30
0.0
 11
309.365609
 21
-85.387999
 31
0.0
  0
LINE
  5
4EE
330
1D
100
AcDbEntity
  8
BLACK
  6
Continuous
100
AcDbLine
 10
237.630036
 20
-46.73999999999999
 30
0.0
 11
237.630008
 21
-46.73999999999999
 31
0.0
  0
LINE
  5
4EF
330
1D
100
AcDbEntity
  8
BLACK
  6
Continuous
100
AcDbLine
 10
252.230033
 20
-33.74
 30
0.0
 11
252.230008
 21
-33.74
 31
0.0
  0
LINE
  5
4F0
330
1D
100
AcDbEntity
  8
BLACK
  6
Continuous
100
AcDbLine
 10
60.138105
 20
-45.080116
 30
0.0
 11
60.138076
 21
-45.080109
 31
0.0
  0
LINE
  5
4F1
330
1D
100
AcDbEntity
  8
BLACK
  6
Continuous
100
AcDbLine
 10
77.121893
 20
-35.399879
 30
0.0
 11
77.121968
 21
-35.399895
 31
0.0
  0
LINE
  5
4F2
330
1D
100
AcDbEntity
  8
BLACK
  6
Continuous
100
AcDbLine
 10
2.640009
 20
-26.050003
 30
0.0
 11
2.640009
 21
-26.049999
 31
0.0
  0
LINE
  5
4F3
330
1D
100
AcDbEntity
  8
BLACK
  6
Continuous
100
AcDbLine
 10
87.417791
 20
-56.549905
 30
0.0
 11
87.417796
 21
-56.549878
 31
0.0
  0
LINE
  5
4F4
330
1D
100
AcDbEntity
  8
BLACK
  6
Continuous
100
AcDbLine
 10
82.471893
 20
-56.009879
 30
0.0
 11
82.47196799999999
 21
-56.009895
 31
0.0
  0
LINE
  5
4F5
330
1D
100
AcDbEntity
  8
BLACK
  6
Continuous
100
AcDbLine
 10
65.488106
 20
-65.690116
 30
0.0
 11
65.48807599999999
 21
-65.69010899999999
 31
0.0
  0
LINE
  5
4F6
330
1D
100
AcDbEntity
  8
BLACK
  6
Continuous
100
AcDbLine
 10
82.067791
 20
-35.939905
 30
0.0
 11
82.067796
 21
-35.939878
 31
0.0
  0
LINE
  5
4F7
330
1D
100
AcDbEntity
  8
BLACK
  6
Continuous
100
AcDbLine
 10
111.093449
 20
-56.42229
 30
0.0
 11
111.093454
 21
-56.422269
 31
0.0
  0
LINE
  5
4F8
330
1D
100
AcDbEntity
  8
BLACK
  6
Continuous
100
AcDbLine
 10
100.701488
 20
-39.900619
 30
0.0
 11
100.701493
 21
-39.900593
 31
0.0
  0
LINE
  5
4F9
330
1D
100
AcDbEntity
  8
BLACK
  6
Continuous
100
AcDbLine
 10
159.479846
 20
-21.737855
 30
0.0
 11
159.47982
 21
-21.737859
 31
0.0
  0
LINE
  5
4FA
330
1D
100
AcDbEntity
  8
BLACK
  6
Continuous
100
AcDbLine
 10
154.119846
 20
-42.347855
 30
0.0
 11
154.11982
 21
-42.347859
 31
0.0
  0
LINE
  5
4FB
330
1D
100
AcDbEntity
  8
BLACK
  6
Continuous
100
AcDbLine
 10
123.673449
 20
-20.14229
 30
0.0
 11
123.673454
 21
-20.142269
 31
0.0
  0
LINE
  5
4FC
330
1D
100
AcDbEntity
  8
BLACK
  6
Continuous
100
AcDbLine
 10
113.281488
 20
-3.620619
 30
0.0
 11
113.281493
 21
-3.620593
 31
0.0
  0
LINE
  5
4FD
330
1D
100
AcDbEntity
  8
BLACK
  6
Continuous
100
AcDbLine
 10
116.443449
 20
-77.03229
 30
0.0
 11
116.443454
 21
-77.032269
 31
0.0
  0
LINE
  5
4FE
330
1D
100
AcDbEntity
  8
BLACK
  6
Continuous
100
AcDbLine
 10
106.051488
 20
-60.510619
 30
0.0
 11
106.051493
 21
-60.510593
 31
0.0
  0
CIRCLE
  5
4FF
330
1D
100
AcDbEntity
  8
BLACK
100
AcDbCircle
 10
31.457508
 20
-40.239999
 30
0.0
 40
1.0
  0
CIRCLE
  5
500
330
1D
100
AcDbEntity
  8
BLACK
100
AcDbCircle
 10
90.52690199999999
 20
-5.940363
 30
0.0
 40
0.999999
  0
LINE
  5
501
330
1D
100
AcDbEntity
  8
BLACK
  6
Continuous
100
AcDbLine
 10
48.870009
 20
4.860001
 30
0.0
 11
35.270009
 21
4.860001
 31
0.0
  0
ARC
  5
502
330
1D
100
AcDbEntity
  8
BLACK
100
AcDbCircle
 10
48.870009
 20
4.359974999999999
 30
0.0
 40
0.500026
100
AcDbArc
 50
0.5842832699999999
 51
90.0
  0
LINE
  5
503
330
1D
100
AcDbEntity
  8
BLACK
  6
Continuous
100
AcDbLine
 10
49.370008
 20
-8.640025
 30
0.0
 11
49.370008
 21
4.365074
 31
0.0
  0
ARC
  5
504
330
1D
100
AcDbEntity
  8
BLACK
100
AcDbCircle
 10
48.870009
 20
-8.640025
 30
0.0
 40
0.499999
100
AcDbArc
 50
270.56128069
 51
0.0
  0
LINE
  5
505
330
1D
100
AcDbEntity
  8
BLACK
  6
Continuous
100
AcDbLine
 10
35.270009
 20
-9.139999
 30
0.0
 11
48.874907
 21
-9.139999
 31
0.0
  0
ARC
  5
506
330
1D
100
AcDbEntity
  8
BLACK
100
AcDbCircle
 10
35.270009
 20
-8.640025
 30
0.0
 40
0.499974
100
AcDbArc
 50
179.99713521
 51
270.0
  0
LINE
  5
507
330
1D
100
AcDbEntity
  8
BLACK
  6
Continuous
100
AcDbLine
 10
34.770008
 20
4.359974999999999
 30
0.0
 11
34.770008
 21
-8.639999999999999
 31
0.0
  0
ARC
  5
508
330
1D
100
AcDbEntity
  8
BLACK
100
AcDbCircle
 10
35.270009
 20
4.359974999999999
 30
0.0
 40
0.500001
100
AcDbArc
 50
90.0
 51
180.0
  0
LINE
  5
509
330
1D
100
AcDbEntity
  8
BLACK
  6
Continuous
100
AcDbLine
 10
16.220009
 20
-9.139999
 30
0.0
 11
29.824907
 21
-9.139999
 31
0.0
  0
ARC
  5
50A
330
1D
100
AcDbEntity
  8
BLACK
100
AcDbCircle
 10
16.220009
 20
-8.640025
 30
0.0
 40
0.499974
100
AcDbArc
 50
179.99713521
 51
270.0
  0
LINE
  5
50B
330
1D
100
AcDbEntity
  8
BLACK
  6
Continuous
100
AcDbLine
 10
15.720008
 20
4.359974999999999
 30
0.0
 11
15.720008
 21
-8.639999999999999
 31
0.0
  0
ARC
  5
50C
330
1D
100
AcDbEntity
  8
BLACK
100
AcDbCircle
 10
16.220009
 20
4.359974999999999
 30
0.0
 40
0.500001
100
AcDbArc
 50
90.0
 51
180.0
  0
LINE
  5
50D
330
1D
100
AcDbEntity
  8
BLACK
  6
Continuous
100
AcDbLine
 10
29.820009
 20
4.860001
 30
0.0
 11
16.220009
 21
4.860001
 31
0.0
  0
ARC
  5
50E
330
1D
100
AcDbEntity
  8
BLACK
100
AcDbCircle
 10
29.820009
 20
4.359974999999999
 30
0.0
 40
0.500026
100
AcDbArc
 50
0.5842832699999999
 51
90.0
  0
LINE
  5
50F
330
1D
100
AcDbEntity
  8
BLACK
  6
Continuous
100
AcDbLine
 10
30.320008
 20
-8.640025
 30
0.0
 11
30.320008
 21
4.365074
 31
0.0
  0
ARC
  5
510
330
1D
100
AcDbEntity
  8
BLACK
100
AcDbCircle
 10
29.820009
 20
-8.640025
 30
0.0
 40
0.499999
100
AcDbArc
 50
270.56128069
 51
0.0
  0
CIRCLE
  5
511
330
1D
100
AcDbEntity
  8
BLACK
100
AcDbCircle
 10
32.545048
 20
-2.139999
 30
0.0
 40
1.0
  0
CIRCLE
  5
512
330
1D
100
AcDbEntity
  8
BLACK
100
AcDbCircle
 10
209.753289
 20
-62.830337
 30
0.0
 40
1.000001
  0
LINE
  5
513
330
1D
100
AcDbEntity
  8
BLACK
  6
Continuous
100
AcDbLine
 10
194.044404
 20
-1.100562
 30
0.0
 11
196.747246
 21
-13.816432
 31
0.0
  0
ARC
  5
514
330
1D
100
AcDbEntity
  8
BLACK
100
AcDbCircle
 10
194.533609
 20
-0.996625
 30
0.0
 40
0.500122460181504
100
AcDbArc
 50
102.01051757
 51
191.99481077
  0
LINE
  5
515
330
1D
100
AcDbEntity
  8
BLACK
  6
Continuous
100
AcDbLine
 10
207.732358
 20
2.320124
 30
0.0
 11
194.429543
 21
-0.5074759999999999
 31
0.0
  0
ARC
  5
516
330
1D
100
AcDbEntity
  8
BLACK
100
AcDbCircle
 10
207.836309
 20
1.831075
 30
0.0
 40
0.4999747341636375
100
AcDbArc
 50
11.99726221
 51
102.00004776
  0
LINE
  5
517
330
1D
100
AcDbEntity
  8
BLACK
  6
Continuous
100
AcDbLine
 10
211.028208
 20
-10.78096
 30
0.0
 11
208.325348
 21
1.934998
 31
0.0
  0
ARC
  5
518
330
1D
100
AcDbEntity
  8
BLACK
100
AcDbCircle
 10
210.539309
 20
-10.884925
 30
0.0
 40
0.4998289685822541
100
AcDbArc
 50
281.98064506
 51
12.00524016
  0
LINE
  5
519
330
1D
100
AcDbEntity
  8
BLACK
  6
Continuous
100
AcDbLine
 10
197.34026
 20
-14.201553
 30
0.0
 11
210.643083
 21
-11.373951
 31
0.0
  0
ARC
  5
51A
330
1D
100
AcDbEntity
  8
BLACK
100
AcDbCircle
 10
197.236309
 20
-13.712525
 30
0.0
 40
0.4999512586502808
100
AcDbArc
 50
191.99488852
 51
282.00061962
  0
CIRCLE
  5
51B
330
1D
100
AcDbEntity
  8
BLACK
100
AcDbCircle
 10
206.493185
 20
-24.57036
 30
0.0
 40
0.9999979999999999
  0
LINE
  5
51C
330
1D
100
AcDbEntity
  8
BLACK
  6
Continuous
100
AcDbLine
 10
189.098667
 20
-1.640589
 30
0.0
 11
175.788486
 21
-4.469754
 31
0.0
  0
ARC
  5
51D
330
1D
100
AcDbEntity
  8
BLACK
100
AcDbCircle
 10
189.202609
 20
-2.129625
 30
0.0
 40
0.499959168921823
100
AcDbArc
 50
12.00276623
 51
101.99937247
  0
LINE
  5
51E
330
1D
100
AcDbEntity
  8
BLACK
  6
Continuous
100
AcDbLine
 10
192.394498
 20
-14.741687
 30
0.0
 11
189.691623
 21
-2.025657
 31
0.0
  0
ARC
  5
51F
330
1D
100
AcDbEntity
  8
BLACK
100
AcDbCircle
 10
191.905509
 20
-14.845625
 30
0.0
 40
0.49991334245547
100
AcDbArc
 50
282.00002012
 51
12.00002012
  0
LINE
  5
520
330
1D
100
AcDbEntity
  8
BLACK
  6
Continuous
100
AcDbLine
 10
178.706559
 20
-18.162269
 30
0.0
 11
192.009455
 21
-15.33465
 31
0.0
  0
ARC
  5
521
330
1D
100
AcDbEntity
  8
BLACK
100
AcDbCircle
 10
178.602609
 20
-17.673225
 30
0.0
 40
0.499969635513998
100
AcDbArc
 50
191.99668492
 51
282.0000548
  0
LINE
  5
522
330
1D
100
AcDbEntity
  8
BLACK
  6
Continuous
100
AcDbLine
 10
175.410698
 20
-5.06131
 30
0.0
 11
178.113534
 21
-17.77715
 31
0.0
  0
ARC
  5
523
330
1D
100
AcDbEntity
  8
BLACK
100
AcDbCircle
 10
175.899909
 20
-4.957325
 30
0.0
 40
0.5001402630722706
100
AcDbArc
 50
102.87256695
 51
191.99999909
  0
CIRCLE
  5
524
330
1D
100
AcDbEntity
  8
BLACK
100
AcDbCircle
 10
58.613146
 20
-18.62964
 30
0.0
 40
1.0
  0
CIRCLE
  5
525
330
1D
100
AcDbEntity
  8
BLACK
100
AcDbCircle
 10
38.930007
 20
-66.489997
 30
0.0
 40
0.9999979999999999
  0
CIRCLE
  5
526
330
1D
100
AcDbEntity
  8
BLACK
100
AcDbCircle
 10
24.915055
 20
-78.340008
 30
0.0
 40
0.999996
  0
ARC
  5
527
330
1D
100
AcDbEntity
  8
BLACK
100
AcDbCircle
 10
89.212809
 20
0.9840749999999999
 30
0.0
 40
0.5000890686637731
100
AcDbArc
 50
348.00046707
 51
78.00004262
  0
LINE
  5
528
330
1D
100
AcDbEntity
  8
BLACK
  6
Continuous
100
AcDbLine
 10
86.99904699999999
 20
-11.835773
 30
0.0
 11
89.701893
 21
0.8801209999999999
 31
0.0
  0
ARC
  5
529
330
1D
100
AcDbEntity
  8
BLACK
100
AcDbCircle
 10
86.510009
 20
-11.731825
 30
0.0
 40
0.4999633508048364
100
AcDbArc
 50
258.53748507
 51
348.00002643
  0
LINE
  5
52A
330
1D
100
AcDbEntity
  8
BLACK
  6
Continuous
100
AcDbLine
 10
73.103244
 20
-9.393239999999999
 30
0.0
 11
86.410653
 21
-12.221816
 31
0.0
  0
ARC
  5
52B
330
1D
100
AcDbEntity
  8
BLACK
100
AcDbCircle
 10
73.20720899999999
 20
-8.904124999999999
 30
0.0
 40
0.5000422026689347
100
AcDbArc
 50
167.99476197
 51
257.9999554700001
  0
LINE
  5
52C
330
1D
100
AcDbEntity
  8
BLACK
  6
Continuous
100
AcDbLine
 10
75.420965
 20
3.91575
 30
0.0
 11
72.71812299999999
 21
-8.80012
 31
0.0
  0
ARC
  5
52D
330
1D
100
AcDbEntity
  8
BLACK
100
AcDbCircle
 10
75.910009
 20
3.811775
 30
0.0
 40
0.4999738557904803
100
AcDbArc
 50
78.00001668
 51
167.99711904
  0
LINE
  5
52E
330
1D
100
AcDbEntity
  8
BLACK
  6
Continuous
100
AcDbLine
 10
89.316783
 20
1.473236
 30
0.0
 11
76.01396199999999
 21
4.300837
 31
0.0
  0
ARC
  5
52F
330
1D
100
AcDbEntity
  8
BLACK
100
AcDbCircle
 10
105.143709
 20
-15.692525
 30
0.0
 40
0.4999765919170616
100
AcDbArc
 50
258.53746697
 51
348.00280925
  0
LINE
  5
530
330
1D
100
AcDbEntity
  8
BLACK
  6
Continuous
100
AcDbLine
 10
91.737017
 20
-13.35397
 30
0.0
 11
105.04435
 21
-16.18253
 31
0.0
  0
ARC
  5
531
330
1D
100
AcDbEntity
  8
BLACK
100
AcDbCircle
 10
91.841009
 20
-12.864725
 30
0.0
 40
0.500174975472584
100
AcDbArc
 50
169.09294397
 51
258.00002633
  0
LINE
  5
532
330
1D
100
AcDbEntity
  8
BLACK
  6
Continuous
100
AcDbLine
 10
94.05466299999999
 20
-0.045029
 30
0.0
 11
91.349871
 21
-12.770084
 31
0.0
  0
ARC
  5
533
330
1D
100
AcDbEntity
  8
BLACK
100
AcDbCircle
 10
94.543809
 20
-0.149025
 30
0.0
 40
0.5000779929580984
100
AcDbArc
 50
77.99825221
 51
167.99719594
  0
LINE
  5
534
330
1D
100
AcDbEntity
  8
BLACK
  6
Continuous
100
AcDbLine
 10
107.95048
 20
-2.487478
 30
0.0
 11
94.647791
 21
0.340095
 31
0.0
  0
ARC
  5
535
330
1D
100
AcDbEntity
  8
BLACK
100
AcDbCircle
 10
107.846509
 20
-2.976625
 30
0.0
 40
0.5000747508623086
100
AcDbArc
 50
348.8020576399999
 51
78.00004533000002
  0
LINE
  5
536
330
1D
100
AcDbEntity
  8
BLACK
  6
Continuous
100
AcDbLine
 10
105.632767
 20
-15.796452
 30
0.0
 11
108.337063
 21
-3.073739
 31
0.0
  0
CIRCLE
  5
537
330
1D
100
AcDbEntity
  8
BLACK
100
AcDbCircle
 10
114.514284
 20
-30.511791
 30
0.0
 40
0.999999
  0
ARC
  5
538
330
1D
100
AcDbEntity
  8
BLACK
100
AcDbCircle
 10
30.420009
 20
-27.690025
 30
0.0
 40
0.499999
100
AcDbArc
 50
270.56128069
 51
0.0
  0
LINE
  5
539
330
1D
100
AcDbEntity
  8
BLACK
  6
Continuous
100
AcDbLine
 10
16.820009
 20
-28.189999
 30
0.0
 11
30.424907
 21
-28.189999
 31
0.0
  0
ARC
  5
53A
330
1D
100
AcDbEntity
  8
BLACK
100
AcDbCircle
 10
16.820009
 20
-27.690025
 30
0.0
 40
0.499974
100
AcDbArc
 50
179.99713521
 51
270.0
  0
LINE
  5
53B
330
1D
100
AcDbEntity
  8
BLACK
  6
Continuous
100
AcDbLine
 10
16.320008
 20
-14.690025
 30
0.0
 11
16.320008
 21
-27.69
 31
0.0
  0
ARC
  5
53C
330
1D
100
AcDbEntity
  8
BLACK
100
AcDbCircle
 10
16.820009
 20
-14.690025
 30
0.0
 40
0.500001
100
AcDbArc
 50
90.0
 51
180.0
  0
LINE
  5
53D
330
1D
100
AcDbEntity
  8
BLACK
  6
Continuous
100
AcDbLine
 10
30.420009
 20
-14.189999
 30
0.0
 11
16.820009
 21
-14.189999
 31
0.0
  0
ARC
  5
53E
330
1D
100
AcDbEntity
  8
BLACK
100
AcDbCircle
 10
30.420009
 20
-14.690025
 30
0.0
 40
0.500026
100
AcDbArc
 50
0.5953975000000001
 51
90.0
  0
LINE
  5
53F
330
1D
100
AcDbEntity
  8
BLACK
  6
Continuous
100
AcDbLine
 10
30.920008
 20
-27.690025
 30
0.0
 11
30.920008
 21
-14.684829
 31
0.0
  0
LINE
  5
540
330
1D
100
AcDbEntity
  8
BLACK
  6
Continuous
100
AcDbLine
 10
195.24026
 20
-73.071553
 30
0.0
 11
208.543083
 21
-70.243951
 31
0.0
  0
ARC
  5
541
330
1D
100
AcDbEntity
  8
BLACK
100
AcDbCircle
 10
195.136309
 20
-72.58252499999999
 30
0.0
 40
0.4999512586502808
100
AcDbArc
 50
191.99488852
 51
282.00061962
  0
LINE
  5
542
330
1D
100
AcDbEntity
  8
BLACK
  6
Continuous
100
AcDbLine
 10
191.944404
 20
-59.97056199999999
 30
0.0
 11
194.647246
 21
-72.686432
 31
0.0
  0
ARC
  5
543
330
1D
100
AcDbEntity
  8
BLACK
100
AcDbCircle
 10
192.433609
 20
-59.866625
 30
0.0
 40
0.500122460181504
100
AcDbArc
 50
102.01051757
 51
191.99481077
  0
LINE
  5
544
330
1D
100
AcDbEntity
  8
BLACK
  6
Continuous
100
AcDbLine
 10
205.632358
 20
-56.549876
 30
0.0
 11
192.329543
 21
-59.37747599999999
 31
0.0
  0
ARC
  5
545
330
1D
100
AcDbEntity
  8
BLACK
100
AcDbCircle
 10
205.736309
 20
-57.038925
 30
0.0
 40
0.4999747341636375
100
AcDbArc
 50
12.45826856
 51
102.00004776
  0
LINE
  5
546
330
1D
100
AcDbEntity
  8
BLACK
  6
Continuous
100
AcDbLine
 10
208.928208
 20
-69.65096
 30
0.0
 11
206.224512
 21
-56.93106599999999
 31
0.0
  0
ARC
  5
547
330
1D
100
AcDbEntity
  8
BLACK
100
AcDbCircle
 10
208.439309
 20
-69.754925
 30
0.0
 40
0.4998289685822541
100
AcDbArc
 50
281.98064506
 51
12.00524016
  0
ARC
  5
548
330
1D
100
AcDbEntity
  8
BLACK
100
AcDbCircle
 10
54.232509
 20
-27.690025
 30
0.0
 40
0.499999
100
AcDbArc
 50
270.56128069
 51
0.0
  0
LINE
  5
549
330
1D
100
AcDbEntity
  8
BLACK
  6
Continuous
100
AcDbLine
 10
40.632509
 20
-28.189999
 30
0.0
 11
54.237407
 21
-28.189999
 31
0.0
  0
ARC
  5
54A
330
1D
100
AcDbEntity
  8
BLACK
100
AcDbCircle
 10
40.632509
 20
-27.690025
 30
0.0
 40
0.499974
100
AcDbArc
 50
179.99713521
 51
270.0
  0
LINE
  5
54B
330
1D
100
AcDbEntity
  8
BLACK
  6
Continuous
100
AcDbLine
 10
40.132508
 20
-14.690025
 30
0.0
 11
40.132508
 21
-27.69
 31
0.0
  0
ARC
  5
54C
330
1D
100
AcDbEntity
  8
BLACK
100
AcDbCircle
 10
40.632509
 20
-14.690025
 30
0.0
 40
0.500001
100
AcDbArc
 50
90.0
 51
180.0
  0
LINE
  5
54D
330
1D
100
AcDbEntity
  8
BLACK
  6
Continuous
100
AcDbLine
 10
54.232509
 20
-14.189999
 30
0.0
 11
40.632509
 21
-14.189999
 31
0.0
  0
ARC
  5
54E
330
1D
100
AcDbEntity
  8
BLACK
100
AcDbCircle
 10
54.232509
 20
-14.690025
 30
0.0
 40
0.500026
100
AcDbArc
 50
0.5953975000000001
 51
90.0
  0
LINE
  5
54F
330
1D
100
AcDbEntity
  8
BLACK
  6
Continuous
100
AcDbLine
 10
54.732508
 20
-27.690025
 30
0.0
 11
54.732508
 21
-14.684829
 31
0.0
  0
CIRCLE
  5
550
330
1D
100
AcDbEntity
  8
BLACK
100
AcDbCircle
 10
201.008619
 20
-91.532912
 30
0.0
 40
0.999999
  0
CIRCLE
  5
551
330
1D
100
AcDbEntity
  8
BLACK
100
AcDbCircle
 10
77.946902
 20
-42.220366
 30
0.0
 40
0.9999969999999999
  0
CIRCLE
  5
552
330
1D
100
AcDbEntity
  8
BLACK
100
AcDbCircle
 10
59.85314899999999
 20
-78.85963799999999
 30
0.0
 40
0.9999979999999999
  0
ARC
  5
553
330
1D
100
AcDbEntity
  8
BLACK
100
AcDbCircle
 10
205.179309
 20
-31.494925
 30
0.0
 40
0.4998289685822541
100
AcDbArc
 50
281.98064506
 51
12.00524016
  0
LINE
  5
554
330
1D
100
AcDbEntity
  8
BLACK
  6
Continuous
100
AcDbLine
 10
191.98026
 20
-34.811553
 30
0.0
 11
205.283083
 21
-31.983951
 31
0.0
  0
ARC
  5
555
330
1D
100
AcDbEntity
  8
BLACK
100
AcDbCircle
 10
191.876309
 20
-34.322525
 30
0.0
 40
0.4999512586502808
100
AcDbArc
 50
191.99488852
 51
282.00061962
  0
LINE
  5
556
330
1D
100
AcDbEntity
  8
BLACK
  6
Continuous
100
AcDbLine
 10
188.684404
 20
-21.710562
 30
0.0
 11
191.387246
 21
-34.426432
 31
0.0
  0
ARC
  5
557
330
1D
100
AcDbEntity
  8
BLACK
100
AcDbCircle
 10
189.173609
 20
-21.606625
 30
0.0
 40
0.500122460181504
100
AcDbArc
 50
102.01051757
 51
191.99481077
  0
LINE
  5
558
330
1D
100
AcDbEntity
  8
BLACK
  6
Continuous
100
AcDbLine
 10
202.372358
 20
-18.289876
 30
0.0
 11
189.069543
 21
-21.117476
 31
0.0
  0
ARC
  5
559
330
1D
100
AcDbEntity
  8
BLACK
100
AcDbCircle
 10
202.476309
 20
-18.778925
 30
0.0
 40
0.4999747341636375
100
AcDbArc
 50
12.45826856
 51
102.00004776
  0
LINE
  5
55A
330
1D
100
AcDbEntity
  8
BLACK
  6
Continuous
100
AcDbLine
 10
205.668208
 20
-31.39096
 30
0.0
 11
202.964512
 21
-18.671066
 31
0.0
  0
CIRCLE
  5
55B
330
1D
100
AcDbEntity
  8
BLACK
100
AcDbCircle
 10
233.196906
 20
-78.859641
 30
0.0
 40
0.9999969999999999
  0
ARC
  5
55C
330
1D
100
AcDbEntity
  8
BLACK
100
AcDbCircle
 10
60.286109
 20
-52.790225
 30
0.0
 40
0.500226
100
AcDbArc
 50
1.00525277
 51
90.0
  0
LINE
  5
55D
330
1D
100
AcDbEntity
  8
BLACK
  6
Continuous
100
AcDbLine
 10
60.786258
 20
-65.790025
 30
0.0
 11
60.786258
 21
-52.78144899999999
 31
0.0
  0
ARC
  5
55E
330
1D
100
AcDbEntity
  8
BLACK
100
AcDbCircle
 10
60.286309
 20
-65.790025
 30
0.0
 40
0.499949
100
AcDbArc
 50
269.99415521
 51
0.0
  0
LINE
  5
55F
330
1D
100
AcDbEntity
  8
BLACK
  6
Continuous
100
AcDbLine
 10
46.686409
 20
-66.289999
 30
0.0
 11
60.286258
 21
-66.289999
 31
0.0
  0
ARC
  5
560
330
1D
100
AcDbEntity
  8
BLACK
100
AcDbCircle
 10
46.686409
 20
-65.789825
 30
0.0
 40
0.500174
100
AcDbArc
 50
180.53737096
 51
270.0
  0
LINE
  5
561
330
1D
100
AcDbEntity
  8
BLACK
  6
Continuous
100
AcDbLine
 10
46.186258
 20
-52.790025
 30
0.0
 11
46.186258
 21
-65.794516
 31
0.0
  0
ARC
  5
562
330
1D
100
AcDbEntity
  8
BLACK
100
AcDbCircle
 10
46.686209
 20
-52.790025
 30
0.0
 40
0.499951
100
AcDbArc
 50
89.99438444
 51
180.0
  0
LINE
  5
563
330
1D
100
AcDbEntity
  8
BLACK
  6
Continuous
100
AcDbLine
 10
60.286109
 20
-52.28999899999999
 30
0.0
 11
46.686258
 21
-52.28999899999999
 31
0.0
  0
ARC
  5
564
330
1D
100
AcDbEntity
  8
BLACK
100
AcDbCircle
 10
197.793609
 20
-39.256625
 30
0.0
 40
0.500122460181504
100
AcDbArc
 50
102.01051757
 51
191.99481077
  0
LINE
  5
565
330
1D
100
AcDbEntity
  8
BLACK
  6
Continuous
100
AcDbLine
 10
210.992358
 20
-35.939876
 30
0.0
 11
197.689543
 21
-38.76747599999999
 31
0.0
  0
ARC
  5
566
330
1D
100
AcDbEntity
  8
BLACK
100
AcDbCircle
 10
211.096309
 20
-36.428925
 30
0.0
 40
0.4999747341636375
100
AcDbArc
 50
12.45826856
 51
102.00004776
  0
LINE
  5
567
330
1D
100
AcDbEntity
  8
BLACK
  6
Continuous
100
AcDbLine
 10
214.288208
 20
-49.04096
 30
0.0
 11
211.584512
 21
-36.321066
 31
0.0
  0
ARC
  5
568
330
1D
100
AcDbEntity
  8
BLACK
100
AcDbCircle
 10
213.799309
 20
-49.144925
 30
0.0
 40
0.4998289685822541
100
AcDbArc
 50
281.98064506
 51
12.00524016
  0
LINE
  5
569
330
1D
100
AcDbEntity
  8
BLACK
  6
Continuous
100
AcDbLine
 10
200.60026
 20
-52.46155299999999
 30
0.0
 11
213.903083
 21
-49.633951
 31
0.0
  0
ARC
  5
56A
330
1D
100
AcDbEntity
  8
BLACK
100
AcDbCircle
 10
200.496309
 20
-51.972525
 30
0.0
 40
0.4999512586502808
100
AcDbArc
 50
191.99488852
 51
282.00061962
  0
LINE
  5
56B
330
1D
100
AcDbEntity
  8
BLACK
  6
Continuous
100
AcDbLine
 10
197.304404
 20
-39.360562
 30
0.0
 11
200.007246
 21
-52.076432
 31
0.0
  0
LINE
  5
56C
330
1D
100
AcDbEntity
  8
BLACK
  6
Continuous
100
AcDbLine
 10
97.090659
 20
-33.964673
 30
0.0
 11
110.393454
 21
-36.792269
 31
0.0
  0
ARC
  5
56D
330
1D
100
AcDbEntity
  8
BLACK
100
AcDbCircle
 10
97.194609
 20
-33.475625
 30
0.0
 40
0.4999735481042972
100
AcDbArc
 50
167.99693545
 51
258.00004051
  0
LINE
  5
56E
330
1D
100
AcDbEntity
  8
BLACK
  6
Continuous
100
AcDbLine
 10
99.408374
 20
-20.655756
 30
0.0
 11
96.705529
 21
-33.37164
 31
0.0
  0
ARC
  5
56F
330
1D
100
AcDbEntity
  8
BLACK
100
AcDbCircle
 10
99.897509
 20
-20.759725
 30
0.0
 40
0.5000625972675821
100
AcDbArc
 50
77.99823105
 51
167.99998361
  0
LINE
  5
570
330
1D
100
AcDbEntity
  8
BLACK
  6
Continuous
100
AcDbLine
 10
113.304253
 20
-23.098209
 30
0.0
 11
100.001488
 21
-20.270619
 31
0.0
  0
ARC
  5
571
330
1D
100
AcDbEntity
  8
BLACK
100
AcDbCircle
 10
113.200309
 20
-23.587225
 30
0.0
 40
0.4999409999109894
100
AcDbArc
 50
348.00287228
 51
77.99995063
  0
LINE
  5
572
330
1D
100
AcDbEntity
  8
BLACK
  6
Continuous
100
AcDbLine
 10
110.986477
 20
-36.40718
 30
0.0
 11
113.689352
 21
-23.691149
 31
0.0
  0
ARC
  5
573
330
1D
100
AcDbEntity
  8
BLACK
100
AcDbCircle
 10
110.497409
 20
-36.303225
 30
0.0
 40
0.4999941506147846
100
AcDbArc
 50
257.9993246400001
 51
347.9999565700001
  0
LINE
  5
574
330
1D
100
AcDbEntity
  8
BLACK
  6
Continuous
100
AcDbLine
 10
267.600008
 20
-8.640025
 30
0.0
 11
267.600008
 21
4.359999999999999
 31
0.0
  0
ARC
  5
575
330
1D
100
AcDbEntity
  8
BLACK
100
AcDbCircle
 10
267.100009
 20
-8.640025
 30
0.0
 40
0.499999
100
AcDbArc
 50
270.54947715
 51
0.0
  0
LINE
  5
576
330
1D
100
AcDbEntity
  8
BLACK
  6
Continuous
100
AcDbLine
 10
253.500009
 20
-9.139999999999999
 30
0.0
 11
267.104804
 21
-9.139999999999999
 31
0.0
  0
ARC
  5
577
330
1D
100
AcDbEntity
  8
BLACK
100
AcDbCircle
 10
253.500009
 20
-8.640025
 30
0.0
 40
0.499975
100
AcDbArc
 50
179.99713521
 51
270.0
  0
LINE
  5
578
330
1D
100
AcDbEntity
  8
BLACK
  6
Continuous
100
AcDbLine
 10
253.000008
 20
4.359974999999999
 30
0.0
 11
253.000008
 21
-8.639999999999999
 31
0.0
  0
ARC
  5
579
330
1D
100
AcDbEntity
  8
BLACK
100
AcDbCircle
 10
253.500009
 20
4.359974999999999
 30
0.0
 40
0.500001
100
AcDbArc
 50
90.0
 51
180.0
  0
LINE
  5
57A
330
1D
100
AcDbEntity
  8
BLACK
  6
Continuous
100
AcDbLine
 10
267.100009
 20
4.859999999999999
 30
0.0
 11
253.500009
 21
4.859999999999999
 31
0.0
  0
ARC
  5
57B
330
1D
100
AcDbEntity
  8
BLACK
100
AcDbCircle
 10
267.100009
 20
4.359974999999999
 30
0.0
 40
0.5000249999999999
100
AcDbArc
 50
0.00286466
 51
90.0
  0
LINE
  5
57C
330
1D
100
AcDbEntity
  8
BLACK
  6
Continuous
100
AcDbLine
 10
80.77466299999999
 20
-16.695029
 30
0.0
 11
78.06987099999999
 21
-29.420084
 31
0.0
  0
ARC
  5
57D
330
1D
100
AcDbEntity
  8
BLACK
100
AcDbCircle
 10
81.263809
 20
-16.799025
 30
0.0
 40
0.5000779929580984
100
AcDbArc
 50
77.99825221
 51
167.99719594
  0
LINE
  5
57E
330
1D
100
AcDbEntity
  8
BLACK
  6
Continuous
100
AcDbLine
 10
94.67048
 20
-19.137478
 30
0.0
 11
81.367791
 21
-16.309905
 31
0.0
  0
ARC
  5
57F
330
1D
100
AcDbEntity
  8
BLACK
100
AcDbCircle
 10
94.566509
 20
-19.626625
 30
0.0
 40
0.5000747508623086
100
AcDbArc
 50
348.8020576399999
 51
78.00004533000002
  0
LINE
  5
580
330
1D
100
AcDbEntity
  8
BLACK
  6
Continuous
100
AcDbLine
 10
92.352767
 20
-32.446452
 30
0.0
 11
95.057063
 21
-19.723739
 31
0.0
  0
ARC
  5
581
330
1D
100
AcDbEntity
  8
BLACK
100
AcDbCircle
 10
91.863709
 20
-32.342525
 30
0.0
 40
0.4999765919170616
100
AcDbArc
 50
258.53746697
 51
348.00280925
  0
LINE
  5
582
330
1D
100
AcDbEntity
  8
BLACK
  6
Continuous
100
AcDbLine
 10
78.457017
 20
-30.00397
 30
0.0
 11
91.76435
 21
-32.83253
 31
0.0
  0
ARC
  5
583
330
1D
100
AcDbEntity
  8
BLACK
100
AcDbCircle
 10
78.561009
 20
-29.514725
 30
0.0
 40
0.500174975472584
100
AcDbArc
 50
169.09294397
 51
258.00002633
  0
CIRCLE
  5
584
330
1D
100
AcDbEntity
  8
BLACK
100
AcDbCircle
 10
230.48704
 20
0.000389
 30
0.0
 40
1.000002
  0
CIRCLE
  5
585
330
1D
100
AcDbEntity
  8
BLACK
100
AcDbCircle
 10
285.8963
 20
-21.190002
 30
0.0
 40
1.000001
  0
ARC
  5
586
330
1D
100
AcDbEntity
  8
BLACK
100
AcDbCircle
 10
53.910009
 20
-6.500025
 30
0.0
 40
0.499975
100
AcDbArc
 50
179.99713506
 51
270.0
  0
LINE
  5
587
330
1D
100
AcDbEntity
  8
BLACK
  6
Continuous
100
AcDbLine
 10
53.410008
 20
6.499975
 30
0.0
 11
53.410008
 21
-6.5
 31
0.0
  0
ARC
  5
588
330
1D
100
AcDbEntity
  8
BLACK
100
AcDbCircle
 10
53.910009
 20
6.499975
 30
0.0
 40
0.500001
100
AcDbArc
 50
90.0
 51
180.0
  0
LINE
  5
589
330
1D
100
AcDbEntity
  8
BLACK
  6
Continuous
100
AcDbLine
 10
67.510009
 20
7.0
 30
0.0
 11
53.910009
 21
7.0
 31
0.0
  0
ARC
  5
58A
330
1D
100
AcDbEntity
  8
BLACK
100
AcDbCircle
 10
67.510009
 20
6.499975
 30
0.0
 40
0.5000249999999999
100
AcDbArc
 50
0.00286466
 51
90.0
  0
LINE
  5
58B
330
1D
100
AcDbEntity
  8
BLACK
  6
Continuous
100
AcDbLine
 10
68.010008
 20
-6.500025
 30
0.0
 11
68.010008
 21
6.5
 31
0.0
  0
ARC
  5
58C
330
1D
100
AcDbEntity
  8
BLACK
100
AcDbCircle
 10
67.510009
 20
-6.500025
 30
0.0
 40
0.499999
100
AcDbArc
 50
270.54947715
 51
0.0
  0
LINE
  5
58D
330
1D
100
AcDbEntity
  8
BLACK
  6
Continuous
100
AcDbLine
 10
53.910009
 20
-7.0
 30
0.0
 11
67.514804
 21
-7.0
 31
0.0
  0
ARC
  5
58E
330
1D
100
AcDbEntity
  8
BLACK
100
AcDbCircle
 10
75.93280899999999
 20
-15.665925
 30
0.0
 40
0.5000890686637731
100
AcDbArc
 50
348.00046707
 51
78.00004262
  0
LINE
  5
58F
330
1D
100
AcDbEntity
  8
BLACK
  6
Continuous
100
AcDbLine
 10
73.719047
 20
-28.485773
 30
0.0
 11
76.421893
 21
-15.769879
 31
0.0
  0
ARC
  5
590
330
1D
100
AcDbEntity
  8
BLACK
100
AcDbCircle
 10
73.230009
 20
-28.381825
 30
0.0
 40
0.4999633508048364
100
AcDbArc
 50
258.53748507
 51
348.00002643
  0
LINE
  5
591
330
1D
100
AcDbEntity
  8
BLACK
  6
Continuous
100
AcDbLine
 10
59.823244
 20
-26.04324
 30
0.0
 11
73.130653
 21
-28.871816
 31
0.0
  0
ARC
  5
592
330
1D
100
AcDbEntity
  8
BLACK
100
AcDbCircle
 10
59.927209
 20
-25.554125
 30
0.0
 40
0.5000422026689347
100
AcDbArc
 50
167.99476197
 51
257.9999554700001
  0
LINE
  5
593
330
1D
100
AcDbEntity
  8
BLACK
  6
Continuous
100
AcDbLine
 10
62.14096499999999
 20
-12.73425
 30
0.0
 11
59.438123
 21
-25.45012
 31
0.0
  0
ARC
  5
594
330
1D
100
AcDbEntity
  8
BLACK
100
AcDbCircle
 10
62.63000899999999
 20
-12.838225
 30
0.0
 40
0.4999738557904803
100
AcDbArc
 50
78.00001668
 51
167.99711904
  0
LINE
  5
595
330
1D
100
AcDbEntity
  8
BLACK
  6
Continuous
100
AcDbLine
 10
76.036783
 20
-15.176764
 30
0.0
 11
62.733962
 21
-12.349163
 31
0.0
  0
CIRCLE
  5
596
330
1D
100
AcDbEntity
  8
BLACK
100
AcDbCircle
 10
312.090652
 20
-78.388004
 30
0.0
 40
1.0
  0
CIRCLE
  5
597
330
1D
100
AcDbEntity
  8
BLACK
100
AcDbCircle
 10
311.330024
 20
-47.439995
 30
0.0
 40
0.9999979999999999
  0
ARC
  5
598
330
1D
100
AcDbEntity
  8
BLACK
100
AcDbCircle
 10
179.159909
 20
-43.217325
 30
0.0
 40
0.5001402630722706
100
AcDbArc
 50
102.86497593
 51
191.99999909
  0
LINE
  5
599
330
1D
100
AcDbEntity
  8
BLACK
  6
Continuous
100
AcDbLine
 10
192.358667
 20
-39.900589
 30
0.0
 11
179.048551
 21
-42.729741
 31
0.0
  0
ARC
  5
59A
330
1D
100
AcDbEntity
  8
BLACK
100
AcDbCircle
 10
192.462609
 20
-40.389625
 30
0.0
 40
0.499959168921823
100
AcDbArc
 50
12.45830369
 51
101.99937247
  0
LINE
  5
59B
330
1D
100
AcDbEntity
  8
BLACK
  6
Continuous
100
AcDbLine
 10
195.654498
 20
-53.001687
 30
0.0
 11
192.950797
 21
-40.281769
 31
0.0
  0
ARC
  5
59C
330
1D
100
AcDbEntity
  8
BLACK
100
AcDbCircle
 10
195.165509
 20
-53.105625
 30
0.0
 40
0.49991334245547
100
AcDbArc
 50
282.00002012
 51
12.00002012
  0
LINE
  5
59D
330
1D
100
AcDbEntity
  8
BLACK
  6
Continuous
100
AcDbLine
 10
181.966559
 20
-56.422269
 30
0.0
 11
195.269455
 21
-53.59464999999999
 31
0.0
  0
ARC
  5
59E
330
1D
100
AcDbEntity
  8
BLACK
100
AcDbCircle
 10
181.862609
 20
-55.933225
 30
0.0
 40
0.499969635513998
100
AcDbArc
 50
191.99668492
 51
282.0000548
  0
LINE
  5
59F
330
1D
100
AcDbEntity
  8
BLACK
  6
Continuous
100
AcDbLine
 10
178.670698
 20
-43.32131
 30
0.0
 11
181.373534
 21
-56.03715
 31
0.0
  0
CIRCLE
  5
5A0
330
1D
100
AcDbEntity
  8
BLACK
100
AcDbCircle
 10
174.585768
 20
-11.881792
 30
0.0
 40
1.0
  0
LINE
  5
5A1
330
1D
100
AcDbEntity
  8
BLACK
  6
Continuous
100
AcDbLine
 10
291.010009
 20
-28.19
 30
0.0
 11
304.614804
 21
-28.19
 31
0.0
  0
ARC
  5
5A2
330
1D
100
AcDbEntity
  8
BLACK
100
AcDbCircle
 10
291.010009
 20
-27.690025
 30
0.0
 40
0.499975
100
AcDbArc
 50
179.99713506
 51
270.0
  0
LINE
  5
5A3
330
1D
100
AcDbEntity
  8
BLACK
  6
Continuous
100
AcDbLine
 10
290.510008
 20
-14.690025
 30
0.0
 11
290.510008
 21
-27.69
 31
0.0
  0
ARC
  5
5A4
330
1D
100
AcDbEntity
  8
BLACK
100
AcDbCircle
 10
291.010009
 20
-14.690025
 30
0.0
 40
0.500001
100
AcDbArc
 50
90.0
 51
180.0
  0
LINE
  5
5A5
330
1D
100
AcDbEntity
  8
BLACK
  6
Continuous
100
AcDbLine
 10
304.610009
 20
-14.19
 30
0.0
 11
291.010009
 21
-14.19
 31
0.0
  0
ARC
  5
5A6
330
1D
100
AcDbEntity
  8
BLACK
100
AcDbCircle
 10
304.610009
 20
-14.690025
 30
0.0
 40
0.5000249999999999
100
AcDbArc
 50
0.00286465
 51
90.0
  0
LINE
  5
5A7
330
1D
100
AcDbEntity
  8
BLACK
  6
Continuous
100
AcDbLine
 10
305.110008
 20
-27.690025
 30
0.0
 11
305.110008
 21
-14.69
 31
0.0
  0
ARC
  5
5A8
330
1D
100
AcDbEntity
  8
BLACK
100
AcDbCircle
 10
304.610009
 20
-27.690025
 30
0.0
 40
0.499999
100
AcDbArc
 50
270.54947715
 51
0.0
  0
LINE
  5
5A9
330
1D
100
AcDbEntity
  8
BLACK
  6
Continuous
100
AcDbLine
 10
247.640008
 20
-14.690025
 30
0.0
 11
247.640008
 21
-27.69
 31
0.0
  0
ARC
  5
5AA
330
1D
100
AcDbEntity
  8
BLACK
100
AcDbCircle
 10
248.140009
 20
-14.690025
 30
0.0
 40
0.500001
100
AcDbArc
 50
90.0
 51
180.0
  0
LINE
  5
5AB
330
1D
100
AcDbEntity
  8
BLACK
  6
Continuous
100
AcDbLine
 10
261.740009
 20
-14.189999
 30
0.0
 11
248.140009
 21
-14.189999
 31
0.0
  0
ARC
  5
5AC
330
1D
100
AcDbEntity
  8
BLACK
100
AcDbCircle
 10
261.740009
 20
-14.690025
 30
0.0
 40
0.500026
100
AcDbArc
 50
0.5953975000000001
 51
90.0
  0
LINE
  5
5AD
330
1D
100
AcDbEntity
  8
BLACK
  6
Continuous
100
AcDbLine
 10
262.240008
 20
-27.690025
 30
0.0
 11
262.240008
 21
-14.684829
 31
0.0
  0
ARC
  5
5AE
330
1D
100
AcDbEntity
  8
BLACK
100
AcDbCircle
 10
261.740009
 20
-27.690025
 30
0.0
 40
0.499999
100
AcDbArc
 50
270.56128069
 51
0.0
  0
LINE
  5
5AF
330
1D
100
AcDbEntity
  8
BLACK
  6
Continuous
100
AcDbLine
 10
248.140009
 20
-28.189999
 30
0.0
 11
261.744907
 21
-28.189999
 31
0.0
  0
ARC
  5
5B0
330
1D
100
AcDbEntity
  8
BLACK
100
AcDbCircle
 10
248.140009
 20
-27.690025
 30
0.0
 40
0.499974
100
AcDbArc
 50
179.99713521
 51
270.0
  0
LINE
  5
5B1
330
1D
100
AcDbEntity
  8
BLACK
  6
Continuous
100
AcDbLine
 10
61.063239
 20
-86.27323899999999
 30
0.0
 11
74.37065299999999
 21
-89.101816
 31
0.0
  0
ARC
  5
5B2
330
1D
100
AcDbEntity
  8
BLACK
100
AcDbCircle
 10
61.167209
 20
-85.784125
 30
0.0
 40
0.5000393296741767
100
AcDbArc
 50
167.99473813
 51
257.99929978
  0
LINE
  5
5B3
330
1D
100
AcDbEntity
  8
BLACK
  6
Continuous
100
AcDbLine
 10
63.380965
 20
-72.96424999999999
 30
0.0
 11
60.678123
 21
-85.68012
 31
0.0
  0
ARC
  5
5B4
330
1D
100
AcDbEntity
  8
BLACK
100
AcDbCircle
 10
63.870009
 20
-73.068225
 30
0.0
 40
0.4999738557904803
100
AcDbArc
 50
78.00001668
 51
167.99711904
  0
LINE
  5
5B5
330
1D
100
AcDbEntity
  8
BLACK
  6
Continuous
100
AcDbLine
 10
77.276778
 20
-75.406764
 30
0.0
 11
63.973962
 21
-72.579163
 31
0.0
  0
ARC
  5
5B6
330
1D
100
AcDbEntity
  8
BLACK
100
AcDbCircle
 10
77.172809
 20
-75.89592499999999
 30
0.0
 40
0.5000860728334673
100
AcDbArc
 50
348.00044325
 51
78.00055531000001
  0
LINE
  5
5B7
330
1D
100
AcDbEntity
  8
BLACK
  6
Continuous
100
AcDbLine
 10
74.959047
 20
-88.715773
 30
0.0
 11
77.66189299999999
 21
-75.99987899999999
 31
0.0
  0
ARC
  5
5B8
330
1D
100
AcDbEntity
  8
BLACK
100
AcDbCircle
 10
74.47000899999999
 20
-88.611825
 30
0.0
 40
0.4999633508048364
100
AcDbArc
 50
258.53748507
 51
348.00002643
  0
CIRCLE
  5
5B9
330
1D
100
AcDbEntity
  8
BLACK
100
AcDbCircle
 10
293.040604
 20
-78.388002
 30
0.0
 40
0.9999939999999999
  0
CIRCLE
  5
5BA
330
1D
100
AcDbEntity
  8
BLACK
100
AcDbCircle
 10
278.536263
 20
-47.440001
 30
0.0
 40
0.9999979999999999
  0
LINE
  5
5BB
330
1D
100
AcDbEntity
  8
BLACK
  6
Continuous
100
AcDbLine
 10
243.110009
 20
-13.129999
 30
0.0
 11
229.510009
 21
-13.129999
 31
0.0
  0
ARC
  5
5BC
330
1D
100
AcDbEntity
  8
BLACK
100
AcDbCircle
 10
243.110009
 20
-13.630025
 30
0.0
 40
0.500026
100
AcDbArc
 50
0.5953975000000001
 51
90.0
  0
LINE
  5
5BD
330
1D
100
AcDbEntity
  8
BLACK
  6
Continuous
100
AcDbLine
 10
243.610008
 20
-26.630025
 30
0.0
 11
243.610008
 21
-13.624829
 31
0.0
  0
ARC
  5
5BE
330
1D
100
AcDbEntity
  8
BLACK
100
AcDbCircle
 10
243.110009
 20
-26.630025
 30
0.0
 40
0.499999
100
AcDbArc
 50
270.56128069
 51
0.0
  0
LINE
  5
5BF
330
1D
100
AcDbEntity
  8
BLACK
  6
Continuous
100
AcDbLine
 10
229.510009
 20
-27.129999
 30
0.0
 11
243.114907
 21
-27.129999
 31
0.0
  0
ARC
  5
5C0
330
1D
100
AcDbEntity
  8
BLACK
100
AcDbCircle
 10
229.510009
 20
-26.630025
 30
0.0
 40
0.499974
100
AcDbArc
 50
179.99713521
 51
270.0
  0
LINE
  5
5C1
330
1D
100
AcDbEntity
  8
BLACK
  6
Continuous
100
AcDbLine
 10
229.010008
 20
-13.630025
 30
0.0
 11
229.010008
 21
-26.63
 31
0.0
  0
ARC
  5
5C2
330
1D
100
AcDbEntity
  8
BLACK
100
AcDbCircle
 10
229.510009
 20
-13.630025
 30
0.0
 40
0.500001
100
AcDbArc
 50
90.0
 51
180.0
  0
LINE
  5
5C3
330
1D
100
AcDbEntity
  8
BLACK
  6
Continuous
100
AcDbLine
 10
265.420009
 20
-52.29
 30
0.0
 11
251.820009
 21
-52.29
 31
0.0
  0
ARC
  5
5C4
330
1D
100
AcDbEntity
  8
BLACK
100
AcDbCircle
 10
265.420009
 20
-52.790025
 30
0.0
 40
0.5000249999999999
100
AcDbArc
 50
0.5729387000000001
 51
90.0
  0
LINE
  5
5C5
330
1D
100
AcDbEntity
  8
BLACK
  6
Continuous
100
AcDbLine
 10
265.920009
 20
-65.790025
 30
0.0
 11
265.920009
 21
-52.785025
 31
0.0
  0
ARC
  5
5C6
330
1D
100
AcDbEntity
  8
BLACK
100
AcDbCircle
 10
265.420009
 20
-65.790025
 30
0.0
 40
0.5
100
AcDbArc
 50
270.57285276
 51
0.0
  0
LINE
  5
5C7
330
1D
100
AcDbEntity
  8
BLACK
  6
Continuous
100
AcDbLine
 10
251.820009
 20
-66.28999999999999
 30
0.0
 11
265.425008
 21
-66.28999999999999
 31
0.0
  0
ARC
  5
5C8
330
1D
100
AcDbEntity
  8
BLACK
100
AcDbCircle
 10
251.820009
 20
-65.790025
 30
0.0
 40
0.499975
100
AcDbArc
 50
179.99713521
 51
270.0
  0
LINE
  5
5C9
330
1D
100
AcDbEntity
  8
BLACK
  6
Continuous
100
AcDbLine
 10
251.320009
 20
-52.790025
 30
0.0
 11
251.320009
 21
-65.78999999999999
 31
0.0
  0
ARC
  5
5CA
330
1D
100
AcDbEntity
  8
BLACK
100
AcDbCircle
 10
251.820009
 20
-52.790025
 30
0.0
 40
0.5
100
AcDbArc
 50
90.0
 51
180.0
  0
ARC
  5
5CB
330
1D
100
AcDbEntity
  8
BLACK
100
AcDbCircle
 10
234.870009
 20
-6.500025
 30
0.0
 40
0.499975
100
AcDbArc
 50
179.99713506
 51
270.0
  0
LINE
  5
5CC
330
1D
100
AcDbEntity
  8
BLACK
  6
Continuous
100
AcDbLine
 10
234.370008
 20
6.499975
 30
0.0
 11
234.370008
 21
-6.5
 31
0.0
  0
ARC
  5
5CD
330
1D
100
AcDbEntity
  8
BLACK
100
AcDbCircle
 10
234.870009
 20
6.499975
 30
0.0
 40
0.500001
100
AcDbArc
 50
90.0
 51
180.0
  0
LINE
  5
5CE
330
1D
100
AcDbEntity
  8
BLACK
  6
Continuous
100
AcDbLine
 10
248.470009
 20
7.0
 30
0.0
 11
234.870009
 21
7.0
 31
0.0
  0
ARC
  5
5CF
330
1D
100
AcDbEntity
  8
BLACK
100
AcDbCircle
 10
248.470009
 20
6.499975
 30
0.0
 40
0.5000249999999999
100
AcDbArc
 50
0.00286466
 51
90.0
  0
LINE
  5
5D0
330
1D
100
AcDbEntity
  8
BLACK
  6
Continuous
100
AcDbLine
 10
248.970008
 20
-6.500025
 30
0.0
 11
248.970008
 21
6.5
 31
0.0
  0
ARC
  5
5D1
330
1D
100
AcDbEntity
  8
BLACK
100
AcDbCircle
 10
248.470009
 20
-6.500025
 30
0.0
 40
0.499999
100
AcDbArc
 50
270.54947715
 51
0.0
  0
LINE
  5
5D2
330
1D
100
AcDbEntity
  8
BLACK
  6
Continuous
100
AcDbLine
 10
234.870009
 20
-7.0
 30
0.0
 11
248.474804
 21
-7.0
 31
0.0
  0
CIRCLE
  5
5D3
330
1D
100
AcDbEntity
  8
BLACK
100
AcDbCircle
 10
233.746904
 20
-38.259644
 30
0.0
 40
0.999999
  0
CIRCLE
  5
5D4
330
1D
100
AcDbEntity
  8
BLACK
100
AcDbCircle
 10
-9.525
 20
0.0
 30
0.0
 40
1.000004
  0
ARC
  5
5D5
330
1D
100
AcDbEntity
  8
BLACK
100
AcDbCircle
 10
232.770009
 20
-52.790025
 30
0.0
 40
0.5
100
AcDbArc
 50
90.0
 51
180.0
  0
LINE
  5
5D6
330
1D
100
AcDbEntity
  8
BLACK
  6
Continuous
100
AcDbLine
 10
246.370009
 20
-52.29
 30
0.0
 11
232.770009
 21
-52.29
 31
0.0
  0
ARC
  5
5D7
330
1D
100
AcDbEntity
  8
BLACK
100
AcDbCircle
 10
246.370009
 20
-52.790025
 30
0.0
 40
0.5000249999999999
100
AcDbArc
 50
0.5729387000000001
 51
90.0
  0
LINE
  5
5D8
330
1D
100
AcDbEntity
  8
BLACK
  6
Continuous
100
AcDbLine
 10
246.870009
 20
-65.790025
 30
0.0
 11
246.870009
 21
-52.785025
 31
0.0
  0
ARC
  5
5D9
330
1D
100
AcDbEntity
  8
BLACK
100
AcDbCircle
 10
246.370009
 20
-65.790025
 30
0.0
 40
0.5
100
AcDbArc
 50
270.57285276
 51
0.0
  0
LINE
  5
5DA
330
1D
100
AcDbEntity
  8
BLACK
  6
Continuous
100
AcDbLine
 10
232.770009
 20
-66.28999999999999
 30
0.0
 11
246.375008
 21
-66.28999999999999
 31
0.0
  0
ARC
  5
5DB
330
1D
100
AcDbEntity
  8
BLACK
100
AcDbCircle
 10
232.770009
 20
-65.790025
 30
0.0
 40
0.499975
100
AcDbArc
 50
179.99713521
 51
270.0
  0
LINE
  5
5DC
330
1D
100
AcDbEntity
  8
BLACK
  6
Continuous
100
AcDbLine
 10
232.270009
 20
-52.790025
 30
0.0
 11
232.270009
 21
-65.78999999999999
 31
0.0
  0
CIRCLE
  5
5DD
330
1D
100
AcDbEntity
  8
BLACK
100
AcDbCircle
 10
271.717509
 20
-59.290004
 30
0.0
 40
1.000001
  0
CIRCLE
  5
5DE
330
1D
100
AcDbEntity
  8
BLACK
100
AcDbCircle
 10
7.644807999999999
 20
-40.240002
 30
0.0
 40
1.0
  0
ARC
  5
5DF
330
1D
100
AcDbEntity
  8
BLACK
100
AcDbCircle
 10
295.765609
 20
-71.888025
 30
0.0
 40
0.5
100
AcDbArc
 50
90.0
 51
180.0
  0
LINE
  5
5E0
330
1D
100
AcDbEntity
  8
BLACK
  6
Continuous
100
AcDbLine
 10
309.365609
 20
-71.387999
 30
0.0
 11
295.765609
 21
-71.387999
 31
0.0
  0
ARC
  5
5E1
330
1D
100
AcDbEntity
  8
BLACK
100
AcDbCircle
 10
309.365609
 20
-71.888025
 30
0.0
 40
0.500026
100
AcDbArc
 50
0.58428211
 51
90.0
  0
LINE
  5
5E2
330
1D
100
AcDbEntity
  8
BLACK
  6
Continuous
100
AcDbLine
 10
309.865609
 20
-84.888025
 30
0.0
 11
309.865609
 21
-71.882926
 31
0.0
  0
ARC
  5
5E3
330
1D
100
AcDbEntity
  8
BLACK
100
AcDbCircle
 10
309.365609
 20
-84.888025
 30
0.0
 40
0.5
100
AcDbArc
 50
270.0
 51
0.0
  0
LINE
  5
5E4
330
1D
100
AcDbEntity
  8
BLACK
  6
Continuous
100
AcDbLine
 10
295.765609
 20
-85.387999
 30
0.0
 11
309.365609
 21
-85.387999
 31
0.0
  0
ARC
  5
5E5
330
1D
100
AcDbEntity
  8
BLACK
100
AcDbCircle
 10
295.765609
 20
-84.888025
 30
0.0
 40
0.499974
100
AcDbArc
 50
179.99713521
 51
270.0
  0
LINE
  5
5E6
330
1D
100
AcDbEntity
  8
BLACK
  6
Continuous
100
AcDbLine
 10
295.265609
 20
-71.888025
 30
0.0
 11
295.265609
 21
-84.88799999999999
 31
0.0
  0
ARC
  5
5E7
330
1D
100
AcDbEntity
  8
BLACK
100
AcDbCircle
 10
310.436109
 20
-33.765225
 30
0.0
 40
0.500225
100
AcDbArc
 50
359.00791932
 51
90.0
  0
LINE
  5
5E8
330
1D
100
AcDbEntity
  8
BLACK
  6
Continuous
100
AcDbLine
 10
279.436259
 20
-33.265
 30
0.0
 11
310.436109
 21
-33.265
 31
0.0
  0
ARC
  5
5E9
330
1D
100
AcDbEntity
  8
BLACK
100
AcDbCircle
 10
279.436209
 20
-33.765025
 30
0.0
 40
0.4999499999999999
100
AcDbArc
 50
89.99426983
 51
180.0
  0
LINE
  5
5EA
330
1D
100
AcDbEntity
  8
BLACK
  6
Continuous
100
AcDbLine
 10
278.936259
 20
-45.483
 30
0.0
 11
278.936259
 21
-33.765025
 31
0.0
  0
LINE
  5
5EB
330
1D
100
AcDbEntity
  8
BLACK
  6
Continuous
100
AcDbLine
 10
281.936259
 20
-47.215
 30
0.0
 11
278.936259
 21
-45.483
 31
0.0
  0
LINE
  5
5EC
330
1D
100
AcDbEntity
  8
BLACK
  6
Continuous
100
AcDbLine
 10
307.936259
 20
-47.215
 30
0.0
 11
281.936259
 21
-47.215
 31
0.0
  0
LINE
  5
5ED
330
1D
100
AcDbEntity
  8
BLACK
  6
Continuous
100
AcDbLine
 10
310.936259
 20
-45.483
 30
0.0
 11
307.936259
 21
-47.215
 31
0.0
  0
LINE
  5
5EE
330
1D
100
AcDbEntity
  8
BLACK
  6
Continuous
100
AcDbLine
 10
310.936259
 20
-33.773886
 30
0.0
 11
310.936259
 21
-45.483
 31
0.0
  0
ARC
  5
5EF
330
1D
100
AcDbEntity
  8
BLACK
100
AcDbCircle
 10
270.780009
 20
-46.740025
 30
0.0
 40
0.5
100
AcDbArc
 50
270.56127957
 51
0.0
  0
LINE
  5
5F0
330
1D
100
AcDbEntity
  8
BLACK
  6
Continuous
100
AcDbLine
 10
257.180009
 20
-47.23999999999999
 30
0.0
 11
270.784907
 21
-47.23999999999999
 31
0.0
  0
ARC
  5
5F1
330
1D
100
AcDbEntity
  8
BLACK
100
AcDbCircle
 10
257.180009
 20
-46.740025
 30
0.0
 40
0.499975
100
AcDbArc
 50
179.99713521
 51
270.0
  0
LINE
  5
5F2
330
1D
100
AcDbEntity
  8
BLACK
  6
Continuous
100
AcDbLine
 10
256.680009
 20
-33.740025
 30
0.0
 11
256.680009
 21
-46.73999999999999
 31
0.0
  0
ARC
  5
5F3
330
1D
100
AcDbEntity
  8
BLACK
100
AcDbCircle
 10
257.180009
 20
-33.740025
 30
0.0
 40
0.5
100
AcDbArc
 50
90.0
 51
180.0
  0
LINE
  5
5F4
330
1D
100
AcDbEntity
  8
BLACK
  6
Continuous
100
AcDbLine
 10
270.780009
 20
-33.24
 30
0.0
 11
257.180009
 21
-33.24
 31
0.0
  0
ARC
  5
5F5
330
1D
100
AcDbEntity
  8
BLACK
100
AcDbCircle
 10
270.780009
 20
-33.740025
 30
0.0
 40
0.5000249999999999
100
AcDbArc
 50
0.5729387000000001
 51
90.0
  0
LINE
  5
5F6
330
1D
100
AcDbEntity
  8
BLACK
  6
Continuous
100
AcDbLine
 10
271.280009
 20
-46.740025
 30
0.0
 11
271.280009
 21
-33.735025
 31
0.0
  0
ARC
  5
5F7
330
1D
100
AcDbEntity
  8
BLACK
100
AcDbCircle
 10
251.730009
 20
-46.740025
 30
0.0
 40
0.499999
100
AcDbArc
 50
270.54947715
 51
0.0
  0
LINE
  5
5F8
330
1D
100
AcDbEntity
  8
BLACK
  6
Continuous
100
AcDbLine
 10
238.130009
 20
-47.23999999999999
 30
0.0
 11
251.734804
 21
-47.23999999999999
 31
0.0
  0
ARC
  5
5F9
330
1D
100
AcDbEntity
  8
BLACK
100
AcDbCircle
 10
238.130009
 20
-46.740025
 30
0.0
 40
0.499975
100
AcDbArc
 50
179.99713506
 51
270.0
  0
LINE
  5
5FA
330
1D
100
AcDbEntity
  8
BLACK
  6
Continuous
100
AcDbLine
 10
237.630008
 20
-33.740025
 30
0.0
 11
237.630008
 21
-46.73999999999999
 31
0.0
  0
ARC
  5
5FB
330
1D
100
AcDbEntity
  8
BLACK
100
AcDbCircle
 10
238.130009
 20
-33.740025
 30
0.0
 40
0.500001
100
AcDbArc
 50
90.0
 51
180.0
  0
LINE
  5
5FC
330
1D
100
AcDbEntity
  8
BLACK
  6
Continuous
100
AcDbLine
 10
251.730009
 20
-33.24
 30
0.0
 11
238.130009
 21
-33.24
 31
0.0
  0
ARC
  5
5FD
330
1D
100
AcDbEntity
  8
BLACK
100
AcDbCircle
 10
251.730009
 20
-33.740025
 30
0.0
 40
0.5000249999999999
100
AcDbArc
 50
0.00286465
 51
90.0
  0
LINE
  5
5FE
330
1D
100
AcDbEntity
  8
BLACK
  6
Continuous
100
AcDbLine
 10
252.230008
 20
-46.740025
 30
0.0
 11
252.230008
 21
-33.74
 31
0.0
  0
ARC
  5
5FF
330
1D
100
AcDbEntity
  8
BLACK
100
AcDbCircle
 10
73.930009
 20
-48.01182499999999
 30
0.0
 40
0.4999633508048364
100
AcDbArc
 50
258.53748507
 51
348.00002643
  0
LINE
  5
600
330
1D
100
AcDbEntity
  8
BLACK
  6
Continuous
100
AcDbLine
 10
60.523244
 20
-45.67324
 30
0.0
 11
73.830653
 21
-48.501816
 31
0.0
  0
ARC
  5
601
330
1D
100
AcDbEntity
  8
BLACK
100
AcDbCircle
 10
60.627209
 20
-45.18412499999999
 30
0.0
 40
0.5000422026689347
100
AcDbArc
 50
167.99476197
 51
257.9999554700001
  0
LINE
  5
602
330
1D
100
AcDbEntity
  8
BLACK
  6
Continuous
100
AcDbLine
 10
62.840965
 20
-32.36425
 30
0.0
 11
60.138123
 21
-45.08012
 31
0.0
  0
ARC
  5
603
330
1D
100
AcDbEntity
  8
BLACK
100
AcDbCircle
 10
63.330009
 20
-32.468225
 30
0.0
 40
0.4999738557904803
100
AcDbArc
 50
78.00001668
 51
167.99711904
  0
LINE
  5
604
330
1D
100
AcDbEntity
  8
BLACK
  6
Continuous
100
AcDbLine
 10
76.736778
 20
-34.806764
 30
0.0
 11
63.43396199999999
 21
-31.979163
 31
0.0
  0
ARC
  5
605
330
1D
100
AcDbEntity
  8
BLACK
100
AcDbCircle
 10
76.632809
 20
-35.295925
 30
0.0
 40
0.5000860728334673
100
AcDbArc
 50
348.00044325
 51
78.00055531000001
  0
LINE
  5
606
330
1D
100
AcDbEntity
  8
BLACK
  6
Continuous
100
AcDbLine
 10
74.41904699999999
 20
-48.115773
 30
0.0
 11
77.121893
 21
-35.399879
 31
0.0
  0
LINE
  5
607
330
1D
100
AcDbEntity
  8
BLACK
  6
Continuous
100
AcDbLine
 10
-15.029989
 20
-45.099999
 30
0.0
 11
-1.429991
 21
-45.099999
 31
0.0
  0
ARC
  5
608
330
1D
100
AcDbEntity
  8
BLACK
100
AcDbCircle
 10
-15.029989
 20
-44.599998
 30
0.0
 40
0.500001
100
AcDbArc
 50
180.00011459
 51
270.0
  0
LINE
  5
609
330
1D
100
AcDbEntity
  8
BLACK
  6
Continuous
100
AcDbLine
 10
-15.52999
 20
-31.6
 30
0.0
 11
-15.52999
 21
-44.599999
 31
0.0
  0
ARC
  5
60A
330
1D
100
AcDbEntity
  8
BLACK
100
AcDbCircle
 10
-15.029989
 20
-31.6
 30
0.0
 40
0.500001
100
AcDbArc
 50
90.0
 51
180.0
  0
LINE
  5
60B
330
1D
100
AcDbEntity
  8
BLACK
  6
Continuous
100
AcDbLine
 10
-1.429991
 20
-31.099999
 30
0.0
 11
-15.029989
 21
-31.099999
 31
0.0
  0
ARC
  5
60C
330
1D
100
AcDbEntity
  8
BLACK
100
AcDbCircle
 10
-1.429991
 20
-31.6
 30
0.0
 40
0.500001
100
AcDbArc
 50
0.0
 51
90.0
  0
LINE
  5
60D
330
1D
100
AcDbEntity
  8
BLACK
  6
Continuous
100
AcDbLine
 10
-0.92999
 20
-44.599998
 30
0.0
 11
-0.92999
 21
-31.6
 31
0.0
  0
ARC
  5
60E
330
1D
100
AcDbEntity
  8
BLACK
100
AcDbCircle
 10
-1.429991
 20
-44.599998
 30
0.0
 40
0.500001
100
AcDbArc
 50
270.0
 51
0.0
  0
CIRCLE
  5
60F
330
1D
100
AcDbEntity
  8
BLACK
100
AcDbCircle
 10
9.332487
 20
-19.999368
 30
0.0
 40
0.999996
  0
CIRCLE
  5
610
330
1D
100
AcDbEntity
  8
BLACK
100
AcDbCircle
 10
5.86125
 20
-78.340004
 30
0.0
 40
0.999999
  0
LINE
  5
611
330
1D
100
AcDbEntity
  8
BLACK
  6
Continuous
100
AcDbLine
 10
3.140009
 20
-25.550045
 30
0.0
 11
3.140009
 21
-12.544926
 31
0.0
  0
ARC
  5
612
330
1D
100
AcDbEntity
  8
BLACK
100
AcDbCircle
 10
2.640049
 20
-25.550045
 30
0.0
 40
0.49996
100
AcDbArc
 50
269.99541595
 51
0.0
  0
LINE
  5
613
330
1D
100
AcDbEntity
  8
BLACK
  6
Continuous
100
AcDbLine
 10
-10.95999
 20
-26.049999
 30
0.0
 11
2.640009
 21
-26.049999
 31
0.0
  0
ARC
  5
614
330
1D
100
AcDbEntity
  8
BLACK
100
AcDbCircle
 10
-10.95999
 20
-25.549998
 30
0.0
 40
0.500001
100
AcDbArc
 50
180.0
 51
270.0
  0
LINE
  5
615
330
1D
100
AcDbEntity
  8
BLACK
  6
Continuous
100
AcDbLine
 10
-11.459991
 20
-12.55
 30
0.0
 11
-11.459991
 21
-25.549998
 31
0.0
  0
ARC
  5
616
330
1D
100
AcDbEntity
  8
BLACK
100
AcDbCircle
 10
-10.95999
 20
-12.55
 30
0.0
 40
0.500001
100
AcDbArc
 50
90.0
 51
180.0
  0
LINE
  5
617
330
1D
100
AcDbEntity
  8
BLACK
  6
Continuous
100
AcDbLine
 10
2.640009
 20
-12.049999
 30
0.0
 11
-10.95999
 21
-12.049999
 31
0.0
  0
ARC
  5
618
330
1D
100
AcDbEntity
  8
BLACK
100
AcDbCircle
 10
2.640009
 20
-12.550025
 30
0.0
 40
0.500026
100
AcDbArc
 50
0.58428211
 51
90.0
  0
LINE
  5
619
330
1D
100
AcDbEntity
  8
BLACK
  6
Continuous
100
AcDbLine
 10
86.824663
 20
-56.935029
 30
0.0
 11
84.11987099999999
 21
-69.660084
 31
0.0
  0
ARC
  5
61A
330
1D
100
AcDbEntity
  8
BLACK
100
AcDbCircle
 10
87.31380899999999
 20
-57.039025
 30
0.0
 40
0.5000779929580984
100
AcDbArc
 50
77.99825221
 51
167.99719594
  0
LINE
  5
61B
330
1D
100
AcDbEntity
  8
BLACK
  6
Continuous
100
AcDbLine
 10
100.72048
 20
-59.377478
 30
0.0
 11
87.417791
 21
-56.549905
 31
0.0
  0
ARC
  5
61C
330
1D
100
AcDbEntity
  8
BLACK
100
AcDbCircle
 10
100.616509
 20
-59.866625
 30
0.0
 40
0.5000747508623086
100
AcDbArc
 50
348.8020576399999
 51
78.00004533000002
  0
LINE
  5
61D
330
1D
100
AcDbEntity
  8
BLACK
  6
Continuous
100
AcDbLine
 10
98.402767
 20
-72.686452
 30
0.0
 11
101.107063
 21
-59.963739
 31
0.0
  0
ARC
  5
61E
330
1D
100
AcDbEntity
  8
BLACK
100
AcDbCircle
 10
97.913709
 20
-72.58252499999999
 30
0.0
 40
0.4999765919170616
100
AcDbArc
 50
258.53746697
 51
348.00280925
  0
LINE
  5
61F
330
1D
100
AcDbEntity
  8
BLACK
  6
Continuous
100
AcDbLine
 10
84.50701699999999
 20
-70.24396999999999
 30
0.0
 11
97.81434999999999
 21
-73.07253
 31
0.0
  0
ARC
  5
620
330
1D
100
AcDbEntity
  8
BLACK
100
AcDbCircle
 10
84.611009
 20
-69.754725
 30
0.0
 40
0.500174975472584
100
AcDbArc
 50
169.09294397
 51
258.00002633
  0
CIRCLE
  5
621
330
1D
100
AcDbEntity
  8
BLACK
100
AcDbCircle
 10
146.428177
 20
-17.822555
 30
0.0
 40
1.000001
  0
LINE
  5
622
330
1D
100
AcDbEntity
  8
BLACK
  6
Continuous
100
AcDbLine
 10
82.086778
 20
-55.416764
 30
0.0
 11
68.783962
 21
-52.589163
 31
0.0
  0
ARC
  5
623
330
1D
100
AcDbEntity
  8
BLACK
100
AcDbCircle
 10
81.982809
 20
-55.905925
 30
0.0
 40
0.5000860728334673
100
AcDbArc
 50
348.00044325
 51
78.00055531000001
  0
LINE
  5
624
330
1D
100
AcDbEntity
  8
BLACK
  6
Continuous
100
AcDbLine
 10
79.769047
 20
-68.725773
 30
0.0
 11
82.471893
 21
-56.009879
 31
0.0
  0
ARC
  5
625
330
1D
100
AcDbEntity
  8
BLACK
100
AcDbCircle
 10
79.28000899999999
 20
-68.621825
 30
0.0
 40
0.4999633508048364
100
AcDbArc
 50
258.53748507
 51
348.00002643
  0
LINE
  5
626
330
1D
100
AcDbEntity
  8
BLACK
  6
Continuous
100
AcDbLine
 10
65.873239
 20
-66.283239
 30
0.0
 11
79.18065299999999
 21
-69.11181599999999
 31
0.0
  0
ARC
  5
627
330
1D
100
AcDbEntity
  8
BLACK
100
AcDbCircle
 10
65.977209
 20
-65.794125
 30
0.0
 40
0.5000393296741767
100
AcDbArc
 50
167.99473813
 51
257.99929978
  0
LINE
  5
628
330
1D
100
AcDbEntity
  8
BLACK
  6
Continuous
100
AcDbLine
 10
68.19096499999999
 20
-52.97425
 30
0.0
 11
65.488123
 21
-65.69012
 31
0.0
  0
ARC
  5
629
330
1D
100
AcDbEntity
  8
BLACK
100
AcDbCircle
 10
68.680009
 20
-53.078225
 30
0.0
 40
0.4999738557904803
100
AcDbArc
 50
78.00001668
 51
167.99711904
  0
ARC
  5
62A
330
1D
100
AcDbEntity
  8
BLACK
100
AcDbCircle
 10
54.926309
 20
-46.740025
 30
0.0
 40
0.499949
100
AcDbArc
 50
269.99415521
 51
0.0
  0
LINE
  5
62B
330
1D
100
AcDbEntity
  8
BLACK
  6
Continuous
100
AcDbLine
 10
41.326409
 20
-47.239999
 30
0.0
 11
54.926258
 21
-47.239999
 31
0.0
  0
ARC
  5
62C
330
1D
100
AcDbEntity
  8
BLACK
100
AcDbCircle
 10
41.326409
 20
-46.739825
 30
0.0
 40
0.500174
100
AcDbArc
 50
180.53737096
 51
270.0
  0
LINE
  5
62D
330
1D
100
AcDbEntity
  8
BLACK
  6
Continuous
100
AcDbLine
 10
40.826258
 20
-33.740025
 30
0.0
 11
40.826258
 21
-46.744516
 31
0.0
  0
ARC
  5
62E
330
1D
100
AcDbEntity
  8
BLACK
100
AcDbCircle
 10
41.326209
 20
-33.740025
 30
0.0
 40
0.499951
100
AcDbArc
 50
89.99438444
 51
180.0
  0
LINE
  5
62F
330
1D
100
AcDbEntity
  8
BLACK
  6
Continuous
100
AcDbLine
 10
54.926109
 20
-33.239999
 30
0.0
 11
41.326258
 21
-33.239999
 31
0.0
  0
ARC
  5
630
330
1D
100
AcDbEntity
  8
BLACK
100
AcDbCircle
 10
54.926109
 20
-33.740225
 30
0.0
 40
0.500226
100
AcDbArc
 50
1.00525277
 51
90.0
  0
LINE
  5
631
330
1D
100
AcDbEntity
  8
BLACK
  6
Continuous
100
AcDbLine
 10
55.426258
 20
-46.740025
 30
0.0
 11
55.426258
 21
-33.731449
 31
0.0
  0
CIRCLE
  5
632
330
1D
100
AcDbEntity
  8
BLACK
100
AcDbCircle
 10
6.130021999999999
 20
-66.49000699999999
 30
0.0
 40
0.9999979999999999
  0
ARC
  5
633
330
1D
100
AcDbEntity
  8
BLACK
100
AcDbCircle
 10
280.790009
 20
-14.690025
 30
0.0
 40
0.5000249999999999
100
AcDbArc
 50
0.5729387000000001
 51
90.0
  0
LINE
  5
634
330
1D
100
AcDbEntity
  8
BLACK
  6
Continuous
100
AcDbLine
 10
281.290009
 20
-27.690025
 30
0.0
 11
281.290009
 21
-14.685025
 31
0.0
  0
ARC
  5
635
330
1D
100
AcDbEntity
  8
BLACK
100
AcDbCircle
 10
280.790009
 20
-27.690025
 30
0.0
 40
0.5
100
AcDbArc
 50
270.57285276
 51
0.0
  0
LINE
  5
636
330
1D
100
AcDbEntity
  8
BLACK
  6
Continuous
100
AcDbLine
 10
267.190009
 20
-28.19
 30
0.0
 11
280.795008
 21
-28.19
 31
0.0
  0
ARC
  5
637
330
1D
100
AcDbEntity
  8
BLACK
100
AcDbCircle
 10
267.190009
 20
-27.690025
 30
0.0
 40
0.499975
100
AcDbArc
 50
179.99713521
 51
270.0
  0
LINE
  5
638
330
1D
100
AcDbEntity
  8
BLACK
  6
Continuous
100
AcDbLine
 10
266.690009
 20
-14.690025
 30
0.0
 11
266.690009
 21
-27.69
 31
0.0
  0
ARC
  5
639
330
1D
100
AcDbEntity
  8
BLACK
100
AcDbCircle
 10
267.190009
 20
-14.690025
 30
0.0
 40
0.5
100
AcDbArc
 50
90.0
 51
180.0
  0
LINE
  5
63A
330
1D
100
AcDbEntity
  8
BLACK
  6
Continuous
100
AcDbLine
 10
280.790009
 20
-14.19
 30
0.0
 11
267.190009
 21
-14.19
 31
0.0
  0
ARC
  5
63B
330
1D
100
AcDbEntity
  8
BLACK
100
AcDbCircle
 10
81.963809
 20
-36.429025
 30
0.0
 40
0.5000779929580984
100
AcDbArc
 50
77.99825221
 51
167.99719594
  0
LINE
  5
63C
330
1D
100
AcDbEntity
  8
BLACK
  6
Continuous
100
AcDbLine
 10
95.37048
 20
-38.767478
 30
0.0
 11
82.067791
 21
-35.939905
 31
0.0
  0
ARC
  5
63D
330
1D
100
AcDbEntity
  8
BLACK
100
AcDbCircle
 10
95.266509
 20
-39.256625
 30
0.0
 40
0.5000747508623086
100
AcDbArc
 50
348.8020576399999
 51
78.00004533000002
  0
LINE
  5
63E
330
1D
100
AcDbEntity
  8
BLACK
  6
Continuous
100
AcDbLine
 10
93.05276699999999
 20
-52.076452
 30
0.0
 11
95.757063
 21
-39.353739
 31
0.0
  0
ARC
  5
63F
330
1D
100
AcDbEntity
  8
BLACK
100
AcDbCircle
 10
92.563709
 20
-51.972525
 30
0.0
 40
0.4999765919170616
100
AcDbArc
 50
258.53746697
 51
348.00280925
  0
LINE
  5
640
330
1D
100
AcDbEntity
  8
BLACK
  6
Continuous
100
AcDbLine
 10
79.157017
 20
-49.63397
 30
0.0
 11
92.46435
 21
-52.46253
 31
0.0
  0
ARC
  5
641
330
1D
100
AcDbEntity
  8
BLACK
100
AcDbCircle
 10
79.261009
 20
-49.144725
 30
0.0
 40
0.500174975472584
100
AcDbArc
 50
169.09294397
 51
258.00002633
  0
LINE
  5
642
330
1D
100
AcDbEntity
  8
BLACK
  6
Continuous
100
AcDbLine
 10
81.47466299999999
 20
-36.325029
 30
0.0
 11
78.769871
 21
-49.050084
 31
0.0
  0
ARC
  5
643
330
1D
100
AcDbEntity
  8
BLACK
100
AcDbCircle
 10
229.180009
 20
-73.068225
 30
0.0
 40
0.4999888440535448
100
AcDbArc
 50
12.44362841
 51
101.99993838
  0
LINE
  5
644
330
1D
100
AcDbEntity
  8
BLACK
  6
Continuous
100
AcDbLine
 10
232.371922
 20
-85.680257
 30
0.0
 11
229.668252
 21
-72.960488
 31
0.0
  0
ARC
  5
645
330
1D
100
AcDbEntity
  8
BLACK
100
AcDbCircle
 10
231.883009
 20
-85.78422499999999
 30
0.0
 40
0.4998423082573142
100
AcDbArc
 50
281.98208908
 51
12.00526657
  0
LINE
  5
646
330
1D
100
AcDbEntity
  8
BLACK
  6
Continuous
100
AcDbLine
 10
218.683952
 20
-89.10083999999999
 30
0.0
 11
231.986794
 21
-86.273234
 31
0.0
  0
ARC
  5
647
330
1D
100
AcDbEntity
  8
BLACK
100
AcDbCircle
 10
218.580009
 20
-88.611825
 30
0.0
 40
0.4999398138516275
100
AcDbArc
 50
191.99319712
 51
281.9999611
  0
LINE
  5
648
330
1D
100
AcDbEntity
  8
BLACK
  6
Continuous
100
AcDbLine
 10
215.388094
 20
-75.999743
 30
0.0
 11
218.090957
 21
-88.715715
 31
0.0
  0
ARC
  5
649
330
1D
100
AcDbEntity
  8
BLACK
100
AcDbCircle
 10
215.877209
 20
-75.895825
 30
0.0
 40
0.500030476564179
100
AcDbArc
 50
102.00352337
 51
191.99482439
  0
LINE
  5
64A
330
1D
100
AcDbEntity
  8
BLACK
  6
Continuous
100
AcDbLine
 10
229.076056
 20
-72.579162
 30
0.0
 11
215.773222
 21
-75.40676599999999
 31
0.0
  0
ARC
  5
64B
330
1D
100
AcDbEntity
  8
BLACK
100
AcDbCircle
 10
6.800008999999999
 20
6.499975
 30
0.0
 40
0.5000249999999999
100
AcDbArc
 50
0.56136608
 51
90.0
  0
LINE
  5
64C
330
1D
100
AcDbEntity
  8
BLACK
  6
Continuous
100
AcDbLine
 10
7.300008999999999
 20
-6.500025
 30
0.0
 11
7.300008999999999
 21
6.504874
 31
0.0
  0
ARC
  5
64D
330
1D
100
AcDbEntity
  8
BLACK
100
AcDbCircle
 10
6.800008999999999
 20
-6.500025
 30
0.0
 40
0.5
100
AcDbArc
 50
270.56127957
 51
0.0
  0
LINE
  5
64E
330
1D
100
AcDbEntity
  8
BLACK
  6
Continuous
100
AcDbLine
 10
-6.799990999999999
 20
-7.0
 30
0.0
 11
6.804907
 21
-7.0
 31
0.0
  0
ARC
  5
64F
330
1D
100
AcDbEntity
  8
BLACK
100
AcDbCircle
 10
-6.799989999999999
 20
-6.499999
 30
0.0
 40
0.500001000001
100
AcDbArc
 50
180.0
 51
269.99988541
  0
LINE
  5
650
330
1D
100
AcDbEntity
  8
BLACK
  6
Continuous
100
AcDbLine
 10
-7.299990999999999
 20
6.5
 30
0.0
 11
-7.299990999999999
 21
-6.499999
 31
0.0
  0
ARC
  5
651
330
1D
100
AcDbEntity
  8
BLACK
100
AcDbCircle
 10
-6.799989999999999
 20
6.499999
 30
0.0
 40
0.500001000001
100
AcDbArc
 50
90.0
 51
179.99988541
  0
LINE
  5
652
330
1D
100
AcDbEntity
  8
BLACK
  6
Continuous
100
AcDbLine
 10
6.800008999999999
 20
7.0
 30
0.0
 11
-6.799989999999999
 21
7.0
 31
0.0
  0
ARC
  5
653
330
1D
100
AcDbEntity
  8
BLACK
100
AcDbCircle
 10
111.197409
 20
-55.933225
 30
0.0
 40
0.4999941506147846
100
AcDbArc
 50
257.9993246400001
 51
347.9999565700001
  0
LINE
  5
654
330
1D
100
AcDbEntity
  8
BLACK
  6
Continuous
100
AcDbLine
 10
97.79065899999999
 20
-53.594673
 30
0.0
 11
111.093454
 21
-56.422269
 31
0.0
  0
ARC
  5
655
330
1D
100
AcDbEntity
  8
BLACK
100
AcDbCircle
 10
97.894609
 20
-53.105625
 30
0.0
 40
0.4999735481042972
100
AcDbArc
 50
167.99684719
 51
258.00004051
  0
LINE
  5
656
330
1D
100
AcDbEntity
  8
BLACK
  6
Continuous
100
AcDbLine
 10
100.108374
 20
-40.285756
 30
0.0
 11
97.405529
 21
-53.00163999999999
 31
0.0
  0
ARC
  5
657
330
1D
100
AcDbEntity
  8
BLACK
100
AcDbCircle
 10
100.597509
 20
-40.389725
 30
0.0
 40
0.5000625972675821
100
AcDbArc
 50
77.99823105
 51
167.99998361
  0
LINE
  5
658
330
1D
100
AcDbEntity
  8
BLACK
  6
Continuous
100
AcDbLine
 10
114.004253
 20
-42.728209
 30
0.0
 11
100.701488
 21
-39.900619
 31
0.0
  0
ARC
  5
659
330
1D
100
AcDbEntity
  8
BLACK
100
AcDbCircle
 10
113.900309
 20
-43.217225
 30
0.0
 40
0.4999409999109894
100
AcDbArc
 50
348.00287228
 51
77.99995063
  0
LINE
  5
65A
330
1D
100
AcDbEntity
  8
BLACK
  6
Continuous
100
AcDbLine
 10
111.686477
 20
-56.03718
 30
0.0
 11
114.389352
 21
-43.321149
 31
0.0
  0
LINE
  5
65B
330
1D
100
AcDbEntity
  8
BLACK
  6
Continuous
100
AcDbLine
 10
38.530008
 20
-64.532999
 30
0.0
 11
35.530008
 21
-66.264999
 31
0.0
  0
LINE
  5
65C
330
1D
100
AcDbEntity
  8
BLACK
  6
Continuous
100
AcDbLine
 10
38.530008
 20
-52.820221
 30
0.0
 11
38.530008
 21
-64.532999
 31
0.0
  0
ARC
  5
65D
330
1D
100
AcDbEntity
  8
BLACK
100
AcDbCircle
 10
38.030009
 20
-52.815025
 30
0.0
 40
0.500026
100
AcDbArc
 50
359.4046025000001
 51
90.0
  0
LINE
  5
65E
330
1D
100
AcDbEntity
  8
BLACK
  6
Continuous
100
AcDbLine
 10
7.030009
 20
-52.314999
 30
0.0
 11
38.030009
 21
-52.314999
 31
0.0
  0
ARC
  5
65F
330
1D
100
AcDbEntity
  8
BLACK
100
AcDbCircle
 10
7.030009
 20
-52.815025
 30
0.0
 40
0.500001
100
AcDbArc
 50
90.0
 51
180.0
  0
LINE
  5
660
330
1D
100
AcDbEntity
  8
BLACK
  6
Continuous
100
AcDbLine
 10
6.530008
 20
-64.532999
 30
0.0
 11
6.530008
 21
-52.815025
 31
0.0
  0
LINE
  5
661
330
1D
100
AcDbEntity
  8
BLACK
  6
Continuous
100
AcDbLine
 10
9.530007999999999
 20
-66.264999
 30
0.0
 11
6.530008
 21
-64.532999
 31
0.0
  0
LINE
  5
662
330
1D
100
AcDbEntity
  8
BLACK
  6
Continuous
100
AcDbLine
 10
35.530008
 20
-66.264999
 30
0.0
 11
9.530007999999999
 21
-66.264999
 31
0.0
  0
ARC
  5
663
330
1D
100
AcDbEntity
  8
BLACK
100
AcDbCircle
 10
224.370009
 20
-53.078225
 30
0.0
 40
0.4999889905757925
100
AcDbArc
 50
12.44362841
 51
101.9994662
  0
LINE
  5
664
330
1D
100
AcDbEntity
  8
BLACK
  6
Continuous
100
AcDbLine
 10
227.561922
 20
-65.690257
 30
0.0
 11
224.858252
 21
-52.970488
 31
0.0
  0
ARC
  5
665
330
1D
100
AcDbEntity
  8
BLACK
100
AcDbCircle
 10
227.073009
 20
-65.794225
 30
0.0
 40
0.4998423082573142
100
AcDbArc
 50
281.98195316
 51
12.00526657
  0
LINE
  5
666
330
1D
100
AcDbEntity
  8
BLACK
  6
Continuous
100
AcDbLine
 10
213.873952
 20
-69.110839
 30
0.0
 11
227.176794
 21
-66.283233
 31
0.0
  0
ARC
  5
667
330
1D
100
AcDbEntity
  8
BLACK
100
AcDbCircle
 10
213.770009
 20
-68.621825
 30
0.0
 40
0.4999388357039289
100
AcDbArc
 50
191.99310883
 51
281.99998493
  0
LINE
  5
668
330
1D
100
AcDbEntity
  8
BLACK
  6
Continuous
100
AcDbLine
 10
210.578094
 20
-56.009743
 30
0.0
 11
213.280957
 21
-68.725714
 31
0.0
  0
ARC
  5
669
330
1D
100
AcDbEntity
  8
BLACK
100
AcDbCircle
 10
211.067209
 20
-55.905825
 30
0.0
 40
0.500030476564179
100
AcDbArc
 50
102.00394785
 51
191.99482439
  0
LINE
  5
66A
330
1D
100
AcDbEntity
  8
BLACK
  6
Continuous
100
AcDbLine
 10
224.26606
 20
-52.58916
 30
0.0
 11
210.963222
 21
-55.416765
 31
0.0
  0
ARC
  5
66B
330
1D
100
AcDbEntity
  8
BLACK
100
AcDbCircle
 10
8.586409
 20
-84.83982499999999
 30
0.0
 40
0.500174
100
AcDbArc
 50
180.53737096
 51
270.0
  0
LINE
  5
66C
330
1D
100
AcDbEntity
  8
BLACK
  6
Continuous
100
AcDbLine
 10
8.086257999999999
 20
-71.840025
 30
0.0
 11
8.086257999999999
 21
-84.844516
 31
0.0
  0
ARC
  5
66D
330
1D
100
AcDbEntity
  8
BLACK
100
AcDbCircle
 10
8.586309
 20
-71.840025
 30
0.0
 40
0.500051
100
AcDbArc
 50
90.57290891
 51
180.0
  0
LINE
  5
66E
330
1D
100
AcDbEntity
  8
BLACK
  6
Continuous
100
AcDbLine
 10
22.186109
 20
-71.33999899999999
 30
0.0
 11
8.581309
 21
-71.33999899999999
 31
0.0
  0
ARC
  5
66F
330
1D
100
AcDbEntity
  8
BLACK
100
AcDbCircle
 10
22.186109
 20
-71.840225
 30
0.0
 40
0.500226
100
AcDbArc
 50
1.00525277
 51
90.0
  0
LINE
  5
670
330
1D
100
AcDbEntity
  8
BLACK
  6
Continuous
100
AcDbLine
 10
22.686258
 20
-84.840025
 30
0.0
 11
22.686258
 21
-71.83144899999999
 31
0.0
  0
ARC
  5
671
330
1D
100
AcDbEntity
  8
BLACK
100
AcDbCircle
 10
22.186309
 20
-84.840025
 30
0.0
 40
0.499949
100
AcDbArc
 50
269.99415521
 51
0.0
  0
LINE
  5
672
330
1D
100
AcDbEntity
  8
BLACK
  6
Continuous
100
AcDbLine
 10
8.586409
 20
-85.33999899999999
 30
0.0
 11
22.186258
 21
-85.33999899999999
 31
0.0
  0
ARC
  5
673
330
1D
100
AcDbEntity
  8
BLACK
100
AcDbCircle
 10
215.870009
 20
-9.751825
 30
0.0
 40
0.4999398138516275
100
AcDbArc
 50
191.99319712
 51
281.9999611
  0
LINE
  5
674
330
1D
100
AcDbEntity
  8
BLACK
  6
Continuous
100
AcDbLine
 10
212.678094
 20
2.860257
 30
0.0
 11
215.380957
 21
-9.855715
 31
0.0
  0
ARC
  5
675
330
1D
100
AcDbEntity
  8
BLACK
100
AcDbCircle
 10
213.167209
 20
2.964175
 30
0.0
 40
0.500030476564179
100
AcDbArc
 50
102.00352337
 51
191.99482439
  0
LINE
  5
676
330
1D
100
AcDbEntity
  8
BLACK
  6
Continuous
100
AcDbLine
 10
226.366056
 20
6.280838
 30
0.0
 11
213.063222
 21
3.453234
 31
0.0
  0
ARC
  5
677
330
1D
100
AcDbEntity
  8
BLACK
100
AcDbCircle
 10
226.470009
 20
5.791774999999999
 30
0.0
 40
0.4999888440535448
100
AcDbArc
 50
12.42863819
 51
101.99993838
  0
LINE
  5
678
330
1D
100
AcDbEntity
  8
BLACK
  6
Continuous
100
AcDbLine
 10
229.661922
 20
-6.820257
 30
0.0
 11
226.958279
 21
5.899384
 31
0.0
  0
ARC
  5
679
330
1D
100
AcDbEntity
  8
BLACK
100
AcDbCircle
 10
229.173009
 20
-6.924225
 30
0.0
 40
0.4998423082573142
100
AcDbArc
 50
281.98208908
 51
12.00526657
  0
LINE
  5
67A
330
1D
100
AcDbEntity
  8
BLACK
  6
Continuous
100
AcDbLine
 10
215.973952
 20
-10.24084
 30
0.0
 11
229.276794
 21
-7.413234
 31
0.0
  0
ARC
  5
67B
330
1D
100
AcDbEntity
  8
BLACK
100
AcDbCircle
 10
223.813009
 20
-27.534225
 30
0.0
 40
0.4998442645144585
100
AcDbArc
 50
281.98298612
 51
12.00521888
  0
LINE
  5
67C
330
1D
100
AcDbEntity
  8
BLACK
  6
Continuous
100
AcDbLine
 10
210.613952
 20
-30.850839
 30
0.0
 11
223.916795
 21
-28.023233
 31
0.0
  0
ARC
  5
67D
330
1D
100
AcDbEntity
  8
BLACK
100
AcDbCircle
 10
210.510009
 20
-30.361825
 30
0.0
 40
0.4999388357039289
100
AcDbArc
 50
191.99322094
 51
281.99998493
  0
LINE
  5
67E
330
1D
100
AcDbEntity
  8
BLACK
  6
Continuous
100
AcDbLine
 10
207.318095
 20
-17.749743
 30
0.0
 11
210.020958
 21
-30.465714
 31
0.0
  0
ARC
  5
67F
330
1D
100
AcDbEntity
  8
BLACK
100
AcDbCircle
 10
207.807209
 20
-17.645825
 30
0.0
 40
0.5000294983978445
100
AcDbArc
 50
102.00377136
 51
191.9948482
  0
LINE
  5
680
330
1D
100
AcDbEntity
  8
BLACK
  6
Continuous
100
AcDbLine
 10
221.00606
 20
-14.32916
 30
0.0
 11
207.703223
 21
-17.156765
 31
0.0
  0
ARC
  5
681
330
1D
100
AcDbEntity
  8
BLACK
100
AcDbCircle
 10
221.110009
 20
-14.818225
 30
0.0
 40
0.4999889905757925
100
AcDbArc
 50
12.42872544
 51
101.9994662
  0
LINE
  5
682
330
1D
100
AcDbEntity
  8
BLACK
  6
Continuous
100
AcDbLine
 10
224.301923
 20
-27.430257
 30
0.0
 11
221.59828
 21
-14.710615
 31
0.0
  0
ARC
  5
683
330
1D
100
AcDbEntity
  8
BLACK
100
AcDbCircle
 10
229.730009
 20
-32.468225
 30
0.0
 40
0.4999888440535448
100
AcDbArc
 50
12.42872544
 51
101.99993838
  0
LINE
  5
684
330
1D
100
AcDbEntity
  8
BLACK
  6
Continuous
100
AcDbLine
 10
232.921923
 20
-45.080257
 30
0.0
 11
230.21828
 21
-32.360615
 31
0.0
  0
ARC
  5
685
330
1D
100
AcDbEntity
  8
BLACK
100
AcDbCircle
 10
232.433009
 20
-45.184225
 30
0.0
 40
0.4998442645144585
100
AcDbArc
 50
281.98228955
 51
12.00521888
  0
LINE
  5
686
330
1D
100
AcDbEntity
  8
BLACK
  6
Continuous
100
AcDbLine
 10
219.233952
 20
-48.50084
 30
0.0
 11
232.536795
 21
-45.673234
 31
0.0
  0
ARC
  5
687
330
1D
100
AcDbEntity
  8
BLACK
100
AcDbCircle
 10
219.130009
 20
-48.01182499999999
 30
0.0
 40
0.4999398138516275
100
AcDbArc
 50
191.99319712
 51
281.9999611
  0
LINE
  5
688
330
1D
100
AcDbEntity
  8
BLACK
  6
Continuous
100
AcDbLine
 10
215.938095
 20
-35.399743
 30
0.0
 11
218.640958
 21
-48.11571499999999
 31
0.0
  0
ARC
  5
689
330
1D
100
AcDbEntity
  8
BLACK
100
AcDbCircle
 10
216.427209
 20
-35.295825
 30
0.0
 40
0.5000294983978445
100
AcDbArc
 50
102.00377136
 51
191.9948482
  0
LINE
  5
68A
330
1D
100
AcDbEntity
  8
BLACK
  6
Continuous
100
AcDbLine
 10
229.626056
 20
-31.979162
 30
0.0
 11
216.323223
 21
-34.806766
 31
0.0
  0
LINE
  5
68B
330
1D
100
AcDbEntity
  8
BLACK
  6
Continuous
100
AcDbLine
 10
156.776974
 20
-9.021969
 30
0.0
 11
159.47982
 21
-21.737859
 31
0.0
  0
ARC
  5
68C
330
1D
100
AcDbEntity
  8
BLACK
100
AcDbCircle
 10
157.266209
 20
-8.918025
 30
0.0
 40
0.5001532599363919
100
AcDbArc
 50
103.07476184
 51
191.99488093
  0
LINE
  5
68D
330
1D
100
AcDbEntity
  8
BLACK
  6
Continuous
100
AcDbLine
 10
170.464828
 20
-5.601334
 30
0.0
 11
157.153063
 21
-8.430837
 31
0.0
  0
ARC
  5
68E
330
1D
100
AcDbEntity
  8
BLACK
100
AcDbCircle
 10
170.568809
 20
-6.090525
 30
0.0
 40
0.5001198684735491
100
AcDbArc
 50
12.82610639
 51
102.00002724
  0
LINE
  5
68F
330
1D
100
AcDbEntity
  8
BLACK
  6
Continuous
100
AcDbLine
 10
173.760783
 20
-18.70239
 30
0.0
 11
171.05645
 21
-5.979502
 31
0.0
  0
ARC
  5
690
330
1D
100
AcDbEntity
  8
BLACK
100
AcDbCircle
 10
173.271809
 20
-18.806325
 30
0.0
 40
0.4998980465064851
100
AcDbArc
 50
281.9884657
 51
12.00004124
  0
LINE
  5
691
330
1D
100
AcDbEntity
  8
BLACK
  6
Continuous
100
AcDbLine
 10
160.072862
 20
-22.122984
 30
0.0
 11
173.375659
 21
-19.295387
 31
0.0
  0
ARC
  5
692
330
1D
100
AcDbEntity
  8
BLACK
100
AcDbCircle
 10
159.968909
 20
-21.633925
 30
0.0
 40
0.4999849314629392
100
AcDbArc
 50
191.99736029
 51
282.00003368
  0
LINE
  5
693
330
1D
100
AcDbEntity
  8
BLACK
  6
Continuous
100
AcDbLine
 10
129.004356
 20
-21.275387
 30
0.0
 11
142.311638
 21
-24.103938
 31
0.0
  0
ARC
  5
694
330
1D
100
AcDbEntity
  8
BLACK
100
AcDbCircle
 10
129.108309
 20
-20.786325
 30
0.0
 40
0.4999878659057637
100
AcDbArc
 50
168.00001397
 51
258.00003779
  0
LINE
  5
695
330
1D
100
AcDbEntity
  8
BLACK
  6
Continuous
100
AcDbLine
 10
131.322089
 20
-7.966456
 30
0.0
 11
128.619239
 21
-20.68237
 31
0.0
  0
ARC
  5
696
330
1D
100
AcDbEntity
  8
BLACK
100
AcDbCircle
 10
131.811109
 20
-8.070425
 30
0.0
 40
0.4999491327345213
100
AcDbArc
 50
77.99429803
 51
167.99721964
  0
LINE
  5
697
330
1D
100
AcDbEntity
  8
BLACK
  6
Continuous
100
AcDbLine
 10
145.217944
 20
-10.408923
 30
0.0
 11
131.915122
 21
-7.581321
 31
0.0
  0
ARC
  5
698
330
1D
100
AcDbEntity
  8
BLACK
100
AcDbCircle
 10
145.114009
 20
-10.897925
 30
0.0
 40
0.4999244565191824
100
AcDbArc
 50
347.9913408
 51
78.00060214
  0
LINE
  5
699
330
1D
100
AcDbEntity
  8
BLACK
  6
Continuous
100
AcDbLine
 10
142.900197
 20
-23.717859
 30
0.0
 11
145.603047
 21
-11.00195
 31
0.0
  0
ARC
  5
69A
330
1D
100
AcDbEntity
  8
BLACK
100
AcDbCircle
 10
142.411109
 20
-23.613925
 30
0.0
 40
0.5000064135398665
100
AcDbArc
 50
258.52507105
 51
348.00271539
  0
LINE
  5
69B
330
1D
100
AcDbEntity
  8
BLACK
  6
Continuous
100
AcDbLine
 10
154.712862
 20
-42.73298399999999
 30
0.0
 11
168.015659
 21
-39.905387
 31
0.0
  0
ARC
  5
69C
330
1D
100
AcDbEntity
  8
BLACK
100
AcDbCircle
 10
154.608909
 20
-42.243925
 30
0.0
 40
0.4999849314629392
100
AcDbArc
 50
191.99736029
 51
282.00003368
  0
LINE
  5
69D
330
1D
100
AcDbEntity
  8
BLACK
  6
Continuous
100
AcDbLine
 10
151.416974
 20
-29.631969
 30
0.0
 11
154.11982
 21
-42.347859
 31
0.0
  0
ARC
  5
69E
330
1D
100
AcDbEntity
  8
BLACK
100
AcDbCircle
 10
151.906209
 20
-29.528025
 30
0.0
 40
0.5001532599363919
100
AcDbArc
 50
103.06867427
 51
191.99488093
  0
LINE
  5
69F
330
1D
100
AcDbEntity
  8
BLACK
  6
Continuous
100
AcDbLine
 10
165.104828
 20
-26.211334
 30
0.0
 11
151.793115
 21
-29.040826
 31
0.0
  0
ARC
  5
6A0
330
1D
100
AcDbEntity
  8
BLACK
100
AcDbCircle
 10
165.208809
 20
-26.700525
 30
0.0
 40
0.5001198684735491
100
AcDbArc
 50
12.82610639
 51
102.00002724
  0
LINE
  5
6A1
330
1D
100
AcDbEntity
  8
BLACK
  6
Continuous
100
AcDbLine
 10
168.400783
 20
-39.31239
 30
0.0
 11
165.69645
 21
-26.589502
 31
0.0
  0
ARC
  5
6A2
330
1D
100
AcDbEntity
  8
BLACK
100
AcDbCircle
 10
167.911809
 20
-39.416325
 30
0.0
 40
0.4998980465064851
100
AcDbArc
 50
281.9884895
 51
12.00004124
  0
CIRCLE
  5
6A3
330
1D
100
AcDbEntity
  8
BLACK
100
AcDbCircle
 10
169.225262
 20
-32.491899
 30
0.0
 40
0.999999
  0
LINE
  5
6A4
330
1D
100
AcDbEntity
  8
BLACK
  6
Continuous
100
AcDbLine
 10
170.050698
 20
-25.67131
 30
0.0
 11
172.753534
 21
-38.38715
 31
0.0
  0
ARC
  5
6A5
330
1D
100
AcDbEntity
  8
BLACK
100
AcDbCircle
 10
170.539909
 20
-25.567325
 30
0.0
 40
0.5001402630722706
100
AcDbArc
 50
102.87256695
 51
191.99999909
  0
LINE
  5
6A6
330
1D
100
AcDbEntity
  8
BLACK
  6
Continuous
100
AcDbLine
 10
183.738667
 20
-22.250589
 30
0.0
 11
170.428486
 21
-25.079754
 31
0.0
  0
ARC
  5
6A7
330
1D
100
AcDbEntity
  8
BLACK
100
AcDbCircle
 10
183.842609
 20
-22.739625
 30
0.0
 40
0.499959168921823
100
AcDbArc
 50
12.00276623
 51
101.99937247
  0
LINE
  5
6A8
330
1D
100
AcDbEntity
  8
BLACK
  6
Continuous
100
AcDbLine
 10
187.034498
 20
-35.351687
 30
0.0
 11
184.331623
 21
-22.635657
 31
0.0
  0
ARC
  5
6A9
330
1D
100
AcDbEntity
  8
BLACK
100
AcDbCircle
 10
186.545509
 20
-35.455625
 30
0.0
 40
0.49991334245547
100
AcDbArc
 50
282.00002012
 51
12.00002012
  0
LINE
  5
6AA
330
1D
100
AcDbEntity
  8
BLACK
  6
Continuous
100
AcDbLine
 10
173.346559
 20
-38.772269
 30
0.0
 11
186.649455
 21
-35.94465
 31
0.0
  0
ARC
  5
6AB
330
1D
100
AcDbEntity
  8
BLACK
100
AcDbCircle
 10
173.242609
 20
-38.283225
 30
0.0
 40
0.499969635513998
100
AcDbArc
 50
191.99668492
 51
282.0000548
  0
ARC
  5
6AC
330
1D
100
AcDbEntity
  8
BLACK
100
AcDbCircle
 10
126.480309
 20
-6.937225
 30
0.0
 40
0.4999409999109894
100
AcDbArc
 50
348.00287228
 51
77.99995063
  0
LINE
  5
6AD
330
1D
100
AcDbEntity
  8
BLACK
  6
Continuous
100
AcDbLine
 10
124.266477
 20
-19.75718
 30
0.0
 11
126.969352
 21
-7.041149
 31
0.0
  0
ARC
  5
6AE
330
1D
100
AcDbEntity
  8
BLACK
100
AcDbCircle
 10
123.777409
 20
-19.653225
 30
0.0
 40
0.4999941506147846
100
AcDbArc
 50
257.9993246400001
 51
347.9999565700001
  0
LINE
  5
6AF
330
1D
100
AcDbEntity
  8
BLACK
  6
Continuous
100
AcDbLine
 10
110.370659
 20
-17.314673
 30
0.0
 11
123.673454
 21
-20.142269
 31
0.0
  0
ARC
  5
6B0
330
1D
100
AcDbEntity
  8
BLACK
100
AcDbCircle
 10
110.474609
 20
-16.825625
 30
0.0
 40
0.4999735481042972
100
AcDbArc
 50
167.99693545
 51
258.00004051
  0
LINE
  5
6B1
330
1D
100
AcDbEntity
  8
BLACK
  6
Continuous
100
AcDbLine
 10
112.688374
 20
-4.005756
 30
0.0
 11
109.985529
 21
-16.72164
 31
0.0
  0
ARC
  5
6B2
330
1D
100
AcDbEntity
  8
BLACK
100
AcDbCircle
 10
113.177509
 20
-4.109725
 30
0.0
 40
0.5000625972675821
100
AcDbArc
 50
77.99823105
 51
167.99998361
  0
LINE
  5
6B3
330
1D
100
AcDbEntity
  8
BLACK
  6
Continuous
100
AcDbLine
 10
126.584253
 20
-6.448208999999999
 30
0.0
 11
113.281488
 21
-3.620619
 31
0.0
  0
CIRCLE
  5
6B4
330
1D
100
AcDbEntity
  8
BLACK
100
AcDbCircle
 10
120.564279
 20
-70.75179
 30
0.0
 40
0.9999969999999999
  0
CIRCLE
  5
6B5
330
1D
100
AcDbEntity
  8
BLACK
100
AcDbCircle
 10
133.848045
 20
-54.102517
 30
0.0
 40
1.0
  0
LINE
  5
6B6
330
1D
100
AcDbEntity
  8
BLACK
  6
Continuous
100
AcDbLine
 10
137.987944
 20
-67.298923
 30
0.0
 11
124.685122
 21
-64.471321
 31
0.0
  0
ARC
  5
6B7
330
1D
100
AcDbEntity
  8
BLACK
100
AcDbCircle
 10
137.884009
 20
-67.787925
 30
0.0
 40
0.4999244565191824
100
AcDbArc
 50
347.9913408
 51
78.00060214
  0
LINE
  5
6B8
330
1D
100
AcDbEntity
  8
BLACK
  6
Continuous
100
AcDbLine
 10
135.670197
 20
-80.60785899999999
 30
0.0
 11
138.373047
 21
-67.89195
 31
0.0
  0
ARC
  5
6B9
330
1D
100
AcDbEntity
  8
BLACK
100
AcDbCircle
 10
135.181109
 20
-80.503925
 30
0.0
 40
0.5000064135398665
100
AcDbArc
 50
258.51241837
 51
348.00271539
  0
LINE
  5
6BA
330
1D
100
AcDbEntity
  8
BLACK
  6
Continuous
100
AcDbLine
 10
121.774356
 20
-78.165387
 30
0.0
 11
135.08153
 21
-80.993915
 31
0.0
  0
ARC
  5
6BB
330
1D
100
AcDbEntity
  8
BLACK
100
AcDbCircle
 10
121.878309
 20
-77.67632499999999
 30
0.0
 40
0.4999878659057637
100
AcDbArc
 50
167.4721493
 51
258.00003779
  0
LINE
  5
6BC
330
1D
100
AcDbEntity
  8
BLACK
  6
Continuous
100
AcDbLine
 10
124.092089
 20
-64.856456
 30
0.0
 11
121.390197
 21
-77.567864
 31
0.0
  0
ARC
  5
6BD
330
1D
100
AcDbEntity
  8
BLACK
100
AcDbCircle
 10
124.581109
 20
-64.960425
 30
0.0
 40
0.4999491327345213
100
AcDbArc
 50
77.99429803
 51
167.99721964
  0
ARC
  5
6BE
330
1D
100
AcDbEntity
  8
BLACK
100
AcDbCircle
 10
116.547409
 20
-76.54322499999999
 30
0.0
 40
0.4999941506147846
100
AcDbArc
 50
257.9993246400001
 51
347.9999565700001
  0
LINE
  5
6BF
330
1D
100
AcDbEntity
  8
BLACK
  6
Continuous
100
AcDbLine
 10
103.140659
 20
-74.204673
 30
0.0
 11
116.443454
 21
-77.032269
 31
0.0
  0
ARC
  5
6C0
330
1D
100
AcDbEntity
  8
BLACK
100
AcDbCircle
 10
103.244609
 20
-73.715625
 30
0.0
 40
0.4999735481042972
100
AcDbArc
 50
167.99684719
 51
258.00004051
  0
LINE
  5
6C1
330
1D
100
AcDbEntity
  8
BLACK
  6
Continuous
100
AcDbLine
 10
105.458374
 20
-60.895756
 30
0.0
 11
102.755529
 21
-73.61164
 31
0.0
  0
ARC
  5
6C2
330
1D
100
AcDbEntity
  8
BLACK
100
AcDbCircle
 10
105.947509
 20
-60.999725
 30
0.0
 40
0.5000625972675821
100
AcDbArc
 50
77.99823105
 51
167.99998361
  0
LINE
  5
6C3
330
1D
100
AcDbEntity
  8
BLACK
  6
Continuous
100
AcDbLine
 10
119.354253
 20
-63.338209
 30
0.0
 11
106.051488
 21
-60.510619
 31
0.0
  0
ARC
  5
6C4
330
1D
100
AcDbEntity
  8
BLACK
100
AcDbCircle
 10
119.250309
 20
-63.827225
 30
0.0
 40
0.4999409999109894
100
AcDbArc
 50
348.00287228
 51
77.99995063
  0
LINE
  5
6C5
330
1D
100
AcDbEntity
  8
BLACK
  6
Continuous
100
AcDbLine
 10
117.036477
 20
-76.64717999999999
 30
0.0
 11
119.739352
 21
-63.931149
 31
0.0
  0
LINE
  5
6C6
330
1D
100
AcDbEntity
  8
BLACK
  6
Continuous
100
AcDbLine
 10
186.998667
 20
-60.510589
 30
0.0
 11
173.688486
 21
-63.339754
 31
0.0
  0
ARC
  5
6C7
330
1D
100
AcDbEntity
  8
BLACK
100
AcDbCircle
 10
187.102609
 20
-60.99962499999999
 30
0.0
 40
0.499959168921823
100
AcDbArc
 50
12.00276623
 51
101.99937247
  0
LINE
  5
6C8
330
1D
100
AcDbEntity
  8
BLACK
  6
Continuous
100
AcDbLine
 10
190.294498
 20
-73.611687
 30
0.0
 11
187.591623
 21
-60.895657
 31
0.0
  0
ARC
  5
6C9
330
1D
100
AcDbEntity
  8
BLACK
100
AcDbCircle
 10
189.805509
 20
-73.715625
 30
0.0
 40
0.49991334245547
100
AcDbArc
 50
282.00002012
 51
12.00002012
  0
LINE
  5
6CA
330
1D
100
AcDbEntity
  8
BLACK
  6
Continuous
100
AcDbLine
 10
176.606559
 20
-77.032269
 30
0.0
 11
189.909455
 21
-74.20465
 31
0.0
  0
ARC
  5
6CB
330
1D
100
AcDbEntity
  8
BLACK
100
AcDbCircle
 10
176.502609
 20
-76.54322499999999
 30
0.0
 40
0.499969635513998
100
AcDbArc
 50
191.99668492
 51
282.0000548
  0
LINE
  5
6CC
330
1D
100
AcDbEntity
  8
BLACK
  6
Continuous
100
AcDbLine
 10
173.310698
 20
-63.93131
 30
0.0
 11
176.013534
 21
-76.64715
 31
0.0
  0
ARC
  5
6CD
330
1D
100
AcDbEntity
  8
BLACK
100
AcDbCircle
 10
173.799909
 20
-63.82732499999999
 30
0.0
 40
0.5001402630722706
100
AcDbArc
 50
102.87256695
 51
191.99999909
  0
LINE
  5
6CE
330
1D
100
AcDbEntity
  8
BLACK
  6
Continuous
100
AcDbLine
 10
160.036974
 20
-47.281969
 30
0.0
 11
162.73982
 21
-59.997859
 31
0.0
  0
ARC
  5
6CF
330
1D
100
AcDbEntity
  8
BLACK
100
AcDbCircle
 10
160.526209
 20
-47.178025
 30
0.0
 40
0.5001532599363919
100
AcDbArc
 50
103.07476184
 51
191.99488093
  0
LINE
  5
6D0
330
1D
100
AcDbEntity
  8
BLACK
  6
Continuous
100
AcDbLine
 10
173.724828
 20
-43.861334
 30
0.0
 11
160.413063
 21
-46.69083699999999
 31
0.0
  0
ARC
  5
6D1
330
1D
100
AcDbEntity
  8
BLACK
100
AcDbCircle
 10
173.828809
 20
-44.350525
 30
0.0
 40
0.5001198684735491
100
AcDbArc
 50
12.82610639
 51
102.00002724
  0
LINE
  5
6D2
330
1D
100
AcDbEntity
  8
BLACK
  6
Continuous
100
AcDbLine
 10
177.020783
 20
-56.96239
 30
0.0
 11
174.31645
 21
-44.23950199999999
 31
0.0
  0
ARC
  5
6D3
330
1D
100
AcDbEntity
  8
BLACK
100
AcDbCircle
 10
176.531809
 20
-57.066325
 30
0.0
 40
0.4998980465064851
100
AcDbArc
 50
281.9884657
 51
12.00004124
  0
LINE
  5
6D4
330
1D
100
AcDbEntity
  8
BLACK
  6
Continuous
100
AcDbLine
 10
163.332862
 20
-60.382984
 30
0.0
 11
176.635659
 21
-57.555387
 31
0.0
  0
ARC
  5
6D5
330
1D
100
AcDbEntity
  8
BLACK
100
AcDbCircle
 10
163.228909
 20
-59.893925
 30
0.0
 40
0.4999849314629392
100
AcDbArc
 50
191.99736029
 51
282.00003368
  0
CIRCLE
  5
6D6
330
1D
100
AcDbEntity
  8
BLACK
100
AcDbCircle
 10
172.485771
 20
-70.751792
 30
0.0
 40
1.000001
  0
CIRCLE
  5
6D7
330
1D
100
AcDbEntity
  8
BLACK
100
AcDbCircle
 10
168.925375
 20
-98.352419
 30
0.0
 40
1.0
  0
CIRCLE
  5
6D8
330
1D
100
AcDbEntity
  8
BLACK
100
AcDbCircle
 10
159.212014
 20
-54.102521
 30
0.0
 40
0.9999979999999999
  0
ARC
  5
6D9
330
1D
100
AcDbEntity
  8
BLACK
100
AcDbCircle
 10
155.166209
 20
-67.78802499999999
 30
0.0
 40
0.5001532599363919
100
AcDbArc
 50
103.07476184
 51
191.99488093
  0
LINE
  5
6DA
330
1D
100
AcDbEntity
  8
BLACK
  6
Continuous
100
AcDbLine
 10
168.364828
 20
-64.471334
 30
0.0
 11
155.053063
 21
-67.300837
 31
0.0
  0
ARC
  5
6DB
330
1D
100
AcDbEntity
  8
BLACK
100
AcDbCircle
 10
168.468809
 20
-64.960525
 30
0.0
 40
0.5001198684735491
100
AcDbArc
 50
12.82610639
 51
102.00002724
  0
LINE
  5
6DC
330
1D
100
AcDbEntity
  8
BLACK
  6
Continuous
100
AcDbLine
 10
171.660783
 20
-77.57239
 30
0.0
 11
168.95645
 21
-64.849502
 31
0.0
  0
ARC
  5
6DD
330
1D
100
AcDbEntity
  8
BLACK
100
AcDbCircle
 10
171.171809
 20
-77.67632499999999
 30
0.0
 40
0.4998980465064851
100
AcDbArc
 50
281.9884657
 51
12.00004124
  0
LINE
  5
6DE
330
1D
100
AcDbEntity
  8
BLACK
  6
Continuous
100
AcDbLine
 10
157.972862
 20
-80.99298399999999
 30
0.0
 11
171.275659
 21
-78.165387
 31
0.0
  0
ARC
  5
6DF
330
1D
100
AcDbEntity
  8
BLACK
100
AcDbCircle
 10
157.868909
 20
-80.503925
 30
0.0
 40
0.4999849314629392
100
AcDbArc
 50
191.99736029
 51
282.00003368
  0
LINE
  5
6E0
330
1D
100
AcDbEntity
  8
BLACK
  6
Continuous
100
AcDbLine
 10
154.676974
 20
-67.891969
 30
0.0
 11
157.37982
 21
-80.60785899999999
 31
0.0
  0
CIRCLE
  5
6E1
330
1D
100
AcDbEntity
  8
BLACK
100
AcDbCircle
 10
146.539132
 20
-76.27291799999999
 30
0.0
 40
1.000003
  0
CIRCLE
  5
6E2
330
1D
100
AcDbEntity
  8
BLACK
100
AcDbCircle
 10
144.344019
 20
-95.281876
 30
0.0
 40
1.000002
  0
LINE
  5
6E3
330
1D
100
AcDbEntity
  8
BLACK
  6
Continuous
100
AcDbLine
 10
197.181159
 20
-77.854778
 30
0.0
 11
166.858536
 21
-84.300051
 31
0.0
  0
ARC
  5
6E4
330
1D
100
AcDbEntity
  8
BLACK
100
AcDbCircle
 10
197.285109
 20
-78.343825
 30
0.0
 40
0.4999725699565927
100
AcDbArc
 50
12.52515332
 51
101.99998332
  0
LINE
  5
6E5
330
1D
100
AcDbEntity
  8
BLACK
  6
Continuous
100
AcDbLine
 10
200.210451
 20
-89.70183999999999
 30
0.0
 11
197.773182
 21
-78.23539699999999
 31
0.0
  0
LINE
  5
6E6
330
1D
100
AcDbEntity
  8
BLACK
  6
Continuous
100
AcDbLine
 10
197.636111
 20
-92.01972699999999
 30
0.0
 11
200.210451
 21
-89.70183999999999
 31
0.0
  0
LINE
  5
6E7
330
1D
100
AcDbEntity
  8
BLACK
  6
Continuous
100
AcDbLine
 10
172.204273
 20
-97.42542999999999
 30
0.0
 11
197.636111
 21
-92.01972699999999
 31
0.0
  0
LINE
  5
6E8
330
1D
100
AcDbEntity
  8
BLACK
  6
Continuous
100
AcDbLine
 10
168.909727
 20
-96.355014
 30
0.0
 11
172.204273
 21
-97.42542999999999
 31
0.0
  0
LINE
  5
6E9
330
1D
100
AcDbEntity
  8
BLACK
  6
Continuous
100
AcDbLine
 10
166.47341
 20
-84.89304
 30
0.0
 11
168.909727
 21
-96.355014
 31
0.0
  0
ARC
  5
6EA
330
1D
100
AcDbEntity
  8
BLACK
100
AcDbCircle
 10
166.962509
 20
-84.789125
 30
0.0
 40
0.5000142024322909
100
AcDbArc
 50
102.00192776
 51
191.99486916
  0
ARC
  5
6EB
330
1D
100
AcDbEntity
  8
BLACK
100
AcDbCircle
 10
116.528309
 20
-57.066325
 30
0.0
 40
0.4999878659057637
100
AcDbArc
 50
168.00001397
 51
258.00003779
  0
LINE
  5
6EC
330
1D
100
AcDbEntity
  8
BLACK
  6
Continuous
100
AcDbLine
 10
118.742089
 20
-44.24645599999999
 30
0.0
 11
116.039239
 21
-56.96237
 31
0.0
  0
ARC
  5
6ED
330
1D
100
AcDbEntity
  8
BLACK
100
AcDbCircle
 10
119.231109
 20
-44.350425
 30
0.0
 40
0.4999491327345213
100
AcDbArc
 50
77.99429803
 51
167.99721964
  0
LINE
  5
6EE
330
1D
100
AcDbEntity
  8
BLACK
  6
Continuous
100
AcDbLine
 10
132.637944
 20
-46.688923
 30
0.0
 11
119.335122
 21
-43.861321
 31
0.0
  0
ARC
  5
6EF
330
1D
100
AcDbEntity
  8
BLACK
100
AcDbCircle
 10
132.534009
 20
-47.17792499999999
 30
0.0
 40
0.4999244565191824
100
AcDbArc
 50
347.9913408
 51
78.00060214
  0
LINE
  5
6F0
330
1D
100
AcDbEntity
  8
BLACK
  6
Continuous
100
AcDbLine
 10
130.320197
 20
-59.997859
 30
0.0
 11
133.023047
 21
-47.28194999999999
 31
0.0
  0
ARC
  5
6F1
330
1D
100
AcDbEntity
  8
BLACK
100
AcDbCircle
 10
129.831109
 20
-59.893925
 30
0.0
 40
0.5000054353824566
100
AcDbArc
 50
258.49940591
 51
348.00269157
  0
LINE
  5
6F2
330
1D
100
AcDbEntity
  8
BLACK
  6
Continuous
100
AcDbLine
 10
116.424356
 20
-57.555387
 30
0.0
 11
129.731419
 21
-60.383891
 31
0.0
  0
ARC
  5
6F3
330
1D
100
AcDbEntity
  8
BLACK
100
AcDbCircle
 10
118.531109
 20
-24.720425
 30
0.0
 40
0.4999491327345213
100
AcDbArc
 50
77.99429803
 51
167.99721964
  0
LINE
  5
6F4
330
1D
100
AcDbEntity
  8
BLACK
  6
Continuous
100
AcDbLine
 10
131.937944
 20
-27.058923
 30
0.0
 11
118.635122
 21
-24.231321
 31
0.0
  0
ARC
  5
6F5
330
1D
100
AcDbEntity
  8
BLACK
100
AcDbCircle
 10
131.834009
 20
-27.547925
 30
0.0
 40
0.4999244565191824
100
AcDbArc
 50
347.9913408
 51
78.00060214
  0
LINE
  5
6F6
330
1D
100
AcDbEntity
  8
BLACK
  6
Continuous
100
AcDbLine
 10
129.620197
 20
-40.367859
 30
0.0
 11
132.323047
 21
-27.65195
 31
0.0
  0
ARC
  5
6F7
330
1D
100
AcDbEntity
  8
BLACK
100
AcDbCircle
 10
129.131109
 20
-40.263925
 30
0.0
 40
0.5000064135398665
100
AcDbArc
 50
258.52507105
 51
348.00271539
  0
LINE
  5
6F8
330
1D
100
AcDbEntity
  8
BLACK
  6
Continuous
100
AcDbLine
 10
115.724356
 20
-37.925387
 30
0.0
 11
129.031638
 21
-40.753938
 31
0.0
  0
ARC
  5
6F9
330
1D
100
AcDbEntity
  8
BLACK
100
AcDbCircle
 10
115.828309
 20
-37.436325
 30
0.0
 40
0.4999878659057637
100
AcDbArc
 50
167.4721493
 51
258.00003779
  0
LINE
  5
6FA
330
1D
100
AcDbEntity
  8
BLACK
  6
Continuous
100
AcDbLine
 10
118.042089
 20
-24.616456
 30
0.0
 11
115.340197
 21
-37.327864
 31
0.0
  0
LINE
  5
6FB
330
1D
100
AcDbEntity
  8
BLACK
  6
Continuous
100
AcDbLine
 10
86.824664
 20
-56.935029
 30
0.0
 11
86.824663
 21
-56.935029
 31
0.0
  0
LINE
  5
6FC
330
1D
100
AcDbEntity
  8
BLACK
  6
Continuous
100
AcDbLine
 10
98.402765
 20
-72.686452
 30
0.0
 11
98.402767
 21
-72.686452
 31
0.0
  0
LINE
  5
6FD
330
1D
100
AcDbEntity
  8
BLACK
  6
Continuous
100
AcDbLine
 10
82.086778
 20
-55.416766
 30
0.0
 11
82.086778
 21
-55.416764
 31
0.0
  0
LINE
  5
6FE
330
1D
100
AcDbEntity
  8
BLACK
  6
Continuous
100
AcDbLine
 10
68.190966
 20
-52.97425
 30
0.0
 11
68.19096499999999
 21
-52.97425
 31
0.0
  0
LINE
  5
6FF
330
1D
100
AcDbEntity
  8
BLACK
  6
Continuous
100
AcDbLine
 10
65.873239
 20
-66.283236
 30
0.0
 11
65.873239
 21
-66.283239
 31
0.0
  0
LINE
  5
700
330
1D
100
AcDbEntity
  8
BLACK
  6
Continuous
100
AcDbLine
 10
41.326258
 20
-33.239999
 30
0.0
 11
41.326258
 21
-33.240076
 31
0.0
  0
LINE
  5
701
330
1D
100
AcDbEntity
  8
BLACK
  6
Continuous
100
AcDbLine
 10
54.926258
 20
-47.239999
 30
0.0
 11
54.926258
 21
-47.23997199999999
 31
0.0
  0
LINE
  5
702
330
1D
100
AcDbEntity
  8
BLACK
  6
Continuous
100
AcDbLine
 10
81.47466399999999
 20
-36.325029
 30
0.0
 11
81.47466299999999
 21
-36.325029
 31
0.0
  0
LINE
  5
703
330
1D
100
AcDbEntity
  8
BLACK
  6
Continuous
100
AcDbLine
 10
93.052765
 20
-52.076452
 30
0.0
 11
93.05276699999999
 21
-52.076452
 31
0.0
  0
LINE
  5
704
330
1D
100
AcDbEntity
  8
BLACK
  6
Continuous
100
AcDbLine
 10
232.371919
 20
-85.680257
 30
0.0
 11
232.371922
 21
-85.680257
 31
0.0
  0
LINE
  5
705
330
1D
100
AcDbEntity
  8
BLACK
  6
Continuous
100
AcDbLine
 10
231.986779
 20
-86.27317599999999
 30
0.0
 11
231.986794
 21
-86.273234
 31
0.0
  0
LINE
  5
706
330
1D
100
AcDbEntity
  8
BLACK
  6
Continuous
100
AcDbLine
 10
218.090983
 20
-88.71571
 30
0.0
 11
218.090957
 21
-88.715715
 31
0.0
  0
LINE
  5
707
330
1D
100
AcDbEntity
  8
BLACK
  6
Continuous
100
AcDbLine
 10
215.388096
 20
-75.999743
 30
0.0
 11
215.388094
 21
-75.999743
 31
0.0
  0
LINE
  5
708
330
1D
100
AcDbEntity
  8
BLACK
  6
Continuous
100
AcDbLine
 10
215.773223
 20
-75.406773
 30
0.0
 11
215.773217
 21
-75.406729
 31
0.0
  0
LINE
  5
709
330
1D
100
AcDbEntity
  8
BLACK
  6
Continuous
100
AcDbLine
 10
114.389301
 20
-43.321138
 30
0.0
 11
114.38933
 21
-43.321144
 31
0.0
  0
LINE
  5
70A
330
1D
100
AcDbEntity
  8
BLACK
  6
Continuous
100
AcDbLine
 10
97.405529
 20
-53.00163999999999
 30
0.0
 11
97.405568
 21
-53.001648
 31
0.0
  0
LINE
  5
70B
330
1D
100
AcDbEntity
  8
BLACK
  6
Continuous
100
AcDbLine
 10
224.26606
 20
-52.589161
 30
0.0
 11
224.26606
 21
-52.58916
 31
0.0
  0
LINE
  5
70C
330
1D
100
AcDbEntity
  8
BLACK
  6
Continuous
100
AcDbLine
 10
210.963213
 20
-55.416728
 30
0.0
 11
210.963224
 21
-55.416773
 31
0.0
  0
LINE
  5
70D
330
1D
100
AcDbEntity
  8
BLACK
  6
Continuous
100
AcDbLine
 10
210.578096
 20
-56.009743
 30
0.0
 11
210.578094
 21
-56.009743
 31
0.0
  0
LINE
  5
70E
330
1D
100
AcDbEntity
  8
BLACK
  6
Continuous
100
AcDbLine
 10
213.280957
 20
-68.725714
 30
0.0
 11
213.280984
 21
-68.725709
 31
0.0
  0
LINE
  5
70F
330
1D
100
AcDbEntity
  8
BLACK
  6
Continuous
100
AcDbLine
 10
227.176794
 20
-66.283233
 30
0.0
 11
227.176778
 21
-66.283177
 31
0.0
  0
LINE
  5
710
330
1D
100
AcDbEntity
  8
BLACK
  6
Continuous
100
AcDbLine
 10
227.561919
 20
-65.690257
 30
0.0
 11
227.561922
 21
-65.690257
 31
0.0
  0
LINE
  5
711
330
1D
100
AcDbEntity
  8
BLACK
  6
Continuous
100
AcDbLine
 10
22.186258
 20
-85.339972
 30
0.0
 11
22.186258
 21
-85.33999899999999
 31
0.0
  0
LINE
  5
712
330
1D
100
AcDbEntity
  8
BLACK
  6
Continuous
100
AcDbLine
 10
212.678096
 20
2.860257
 30
0.0
 11
212.678094
 21
2.860257
 31
0.0
  0
LINE
  5
713
330
1D
100
AcDbEntity
  8
BLACK
  6
Continuous
100
AcDbLine
 10
213.063222
 20
3.453234
 30
0.0
 11
213.063217
 21
3.453271
 31
0.0
  0
LINE
  5
714
330
1D
100
AcDbEntity
  8
BLACK
  6
Continuous
100
AcDbLine
 10
229.661919
 20
-6.820257
 30
0.0
 11
229.661922
 21
-6.820257
 31
0.0
  0
LINE
  5
715
330
1D
100
AcDbEntity
  8
BLACK
  6
Continuous
100
AcDbLine
 10
229.276779
 20
-7.413176
 30
0.0
 11
229.276794
 21
-7.413234
 31
0.0
  0
LINE
  5
716
330
1D
100
AcDbEntity
  8
BLACK
  6
Continuous
100
AcDbLine
 10
215.380983
 20
-9.85571
 30
0.0
 11
215.380957
 21
-9.855715
 31
0.0
  0
LINE
  5
717
330
1D
100
AcDbEntity
  8
BLACK
  6
Continuous
100
AcDbLine
 10
210.020984
 20
-30.46571
 30
0.0
 11
210.020958
 21
-30.465714
 31
0.0
  0
LINE
  5
718
330
1D
100
AcDbEntity
  8
BLACK
  6
Continuous
100
AcDbLine
 10
207.318097
 20
-17.749743
 30
0.0
 11
207.318095
 21
-17.749743
 31
0.0
  0
LINE
  5
719
330
1D
100
AcDbEntity
  8
BLACK
  6
Continuous
100
AcDbLine
 10
207.703223
 20
-17.156765
 30
0.0
 11
207.703215
 21
-17.15673
 31
0.0
  0
LINE
  5
71A
330
1D
100
AcDbEntity
  8
BLACK
  6
Continuous
100
AcDbLine
 10
221.00606
 20
-14.329161
 30
0.0
 11
221.00606
 21
-14.32916
 31
0.0
  0
LINE
  5
71B
330
1D
100
AcDbEntity
  8
BLACK
  6
Continuous
100
AcDbLine
 10
224.301921
 20
-27.430257
 30
0.0
 11
224.301923
 21
-27.430257
 31
0.0
  0
LINE
  5
71C
330
1D
100
AcDbEntity
  8
BLACK
  6
Continuous
100
AcDbLine
 10
223.916787
 20
-28.023176
 30
0.0
 11
223.916795
 21
-28.023233
 31
0.0
  0
LINE
  5
71D
330
1D
100
AcDbEntity
  8
BLACK
  6
Continuous
100
AcDbLine
 10
232.921921
 20
-45.080257
 30
0.0
 11
232.921923
 21
-45.080257
 31
0.0
  0
LINE
  5
71E
330
1D
100
AcDbEntity
  8
BLACK
  6
Continuous
100
AcDbLine
 10
232.536781
 20
-45.673177
 30
0.0
 11
232.536795
 21
-45.673234
 31
0.0
  0
LINE
  5
71F
330
1D
100
AcDbEntity
  8
BLACK
  6
Continuous
100
AcDbLine
 10
218.640983
 20
-48.11571
 30
0.0
 11
218.640958
 21
-48.11571499999999
 31
0.0
  0
LINE
  5
720
330
1D
100
AcDbEntity
  8
BLACK
  6
Continuous
100
AcDbLine
 10
215.938097
 20
-35.399743
 30
0.0
 11
215.938095
 21
-35.399743
 31
0.0
  0
LINE
  5
721
330
1D
100
AcDbEntity
  8
BLACK
  6
Continuous
100
AcDbLine
 10
216.323225
 20
-34.806774
 30
0.0
 11
216.323215
 21
-34.80673
 31
0.0
  0
LINE
  5
722
330
1D
100
AcDbEntity
  8
BLACK
  6
Continuous
100
AcDbLine
 10
173.375659
 20
-19.295387
 30
0.0
 11
173.375645
 21
-19.295319
 31
0.0
  0
LINE
  5
723
330
1D
100
AcDbEntity
  8
BLACK
  6
Continuous
100
AcDbLine
 10
156.776976
 20
-9.021969
 30
0.0
 11
156.776974
 21
-9.021969
 31
0.0
  0
LINE
  5
724
330
1D
100
AcDbEntity
  8
BLACK
  6
Continuous
100
AcDbLine
 10
131.32209
 20
-7.966456
 30
0.0
 11
131.322089
 21
-7.966456
 31
0.0
  0
LINE
  5
725
330
1D
100
AcDbEntity
  8
BLACK
  6
Continuous
100
AcDbLine
 10
131.915103
 20
-7.581410999999999
 30
0.0
 11
131.915122
 21
-7.581321
 31
0.0
  0
LINE
  5
726
330
1D
100
AcDbEntity
  8
BLACK
  6
Continuous
100
AcDbLine
 10
145.217944
 20
-10.408924
 30
0.0
 11
145.217944
 21
-10.408923
 31
0.0
  0
LINE
  5
727
330
1D
100
AcDbEntity
  8
BLACK
  6
Continuous
100
AcDbLine
 10
145.602993
 20
-11.001939
 30
0.0
 11
145.603047
 21
-11.00195
 31
0.0
  0
LINE
  5
728
330
1D
100
AcDbEntity
  8
BLACK
  6
Continuous
100
AcDbLine
 10
142.900194
 20
-23.717859
 30
0.0
 11
142.900197
 21
-23.717859
 31
0.0
  0
LINE
  5
729
330
1D
100
AcDbEntity
  8
BLACK
  6
Continuous
100
AcDbLine
 10
151.416976
 20
-29.631969
 30
0.0
 11
151.416974
 21
-29.631969
 31
0.0
  0
LINE
  5
72A
330
1D
100
AcDbEntity
  8
BLACK
  6
Continuous
100
AcDbLine
 10
168.015645
 20
-39.905318
 30
0.0
 11
168.015659
 21
-39.905387
 31
0.0
  0
LINE
  5
72B
330
1D
100
AcDbEntity
  8
BLACK
  6
Continuous
100
AcDbLine
 10
183.738667
 20
-22.25059
 30
0.0
 11
183.738667
 21
-22.250589
 31
0.0
  0
LINE
  5
72C
330
1D
100
AcDbEntity
  8
BLACK
  6
Continuous
100
AcDbLine
 10
184.331623
 20
-22.635657
 30
0.0
 11
184.331638
 21
-22.635654
 31
0.0
  0
LINE
  5
72D
330
1D
100
AcDbEntity
  8
BLACK
  6
Continuous
100
AcDbLine
 10
172.75356
 20
-38.387146
 30
0.0
 11
172.753534
 21
-38.38715
 31
0.0
  0
LINE
  5
72E
330
1D
100
AcDbEntity
  8
BLACK
  6
Continuous
100
AcDbLine
 10
109.985569
 20
-16.721649
 30
0.0
 11
109.985529
 21
-16.72164
 31
0.0
  0
LINE
  5
72F
330
1D
100
AcDbEntity
  8
BLACK
  6
Continuous
100
AcDbLine
 10
126.969301
 20
-7.041138
 30
0.0
 11
126.96933
 21
-7.041144
 31
0.0
  0
LINE
  5
730
330
1D
100
AcDbEntity
  8
BLACK
  6
Continuous
100
AcDbLine
 10
137.987944
 20
-67.298924
 30
0.0
 11
137.987944
 21
-67.298923
 31
0.0
  0
LINE
  5
731
330
1D
100
AcDbEntity
  8
BLACK
  6
Continuous
100
AcDbLine
 10
138.372993
 20
-67.891939
 30
0.0
 11
138.373047
 21
-67.89195
 31
0.0
  0
LINE
  5
732
330
1D
100
AcDbEntity
  8
BLACK
  6
Continuous
100
AcDbLine
 10
135.670194
 20
-80.60785899999999
 30
0.0
 11
135.670197
 21
-80.60785899999999
 31
0.0
  0
LINE
  5
733
330
1D
100
AcDbEntity
  8
BLACK
  6
Continuous
100
AcDbLine
 10
124.09209
 20
-64.856456
 30
0.0
 11
124.092089
 21
-64.856456
 31
0.0
  0
LINE
  5
734
330
1D
100
AcDbEntity
  8
BLACK
  6
Continuous
100
AcDbLine
 10
124.685103
 20
-64.471411
 30
0.0
 11
124.685122
 21
-64.471321
 31
0.0
  0
LINE
  5
735
330
1D
100
AcDbEntity
  8
BLACK
  6
Continuous
100
AcDbLine
 10
119.739301
 20
-63.931138
 30
0.0
 11
119.73933
 21
-63.931144
 31
0.0
  0
LINE
  5
736
330
1D
100
AcDbEntity
  8
BLACK
  6
Continuous
100
AcDbLine
 10
102.755529
 20
-73.61164
 30
0.0
 11
102.755568
 21
-73.611648
 31
0.0
  0
LINE
  5
737
330
1D
100
AcDbEntity
  8
BLACK
  6
Continuous
100
AcDbLine
 10
186.998667
 20
-60.51059
 30
0.0
 11
186.998667
 21
-60.510589
 31
0.0
  0
LINE
  5
738
330
1D
100
AcDbEntity
  8
BLACK
  6
Continuous
100
AcDbLine
 10
176.013534
 20
-76.64715
 30
0.0
 11
176.01356
 21
-76.64714599999999
 31
0.0
  0
LINE
  5
739
330
1D
100
AcDbEntity
  8
BLACK
  6
Continuous
100
AcDbLine
 10
187.591618
 20
-60.895658
 30
0.0
 11
187.591638
 21
-60.895654
 31
0.0
  0
LINE
  5
73A
330
1D
100
AcDbEntity
  8
BLACK
  6
Continuous
100
AcDbLine
 10
160.036976
 20
-47.281969
 30
0.0
 11
160.036974
 21
-47.281969
 31
0.0
  0
LINE
  5
73B
330
1D
100
AcDbEntity
  8
BLACK
  6
Continuous
100
AcDbLine
 10
176.635659
 20
-57.555387
 30
0.0
 11
176.635645
 21
-57.555319
 31
0.0
  0
LINE
  5
73C
330
1D
100
AcDbEntity
  8
BLACK
  6
Continuous
100
AcDbLine
 10
171.275645
 20
-78.165319
 30
0.0
 11
171.275659
 21
-78.165387
 31
0.0
  0
LINE
  5
73D
330
1D
100
AcDbEntity
  8
BLACK
  6
Continuous
100
AcDbLine
 10
154.676976
 20
-67.891969
 30
0.0
 11
154.676974
 21
-67.891969
 31
0.0
  0
LINE
  5
73E
330
1D
100
AcDbEntity
  8
BLACK
  6
Continuous
100
AcDbLine
 10
166.473412
 20
-84.89304
 30
0.0
 11
166.47341
 21
-84.89304
 31
0.0
  0
LINE
  5
73F
330
1D
100
AcDbEntity
  8
BLACK
  6
Continuous
100
AcDbLine
 10
166.858543
 20
-84.300085
 30
0.0
 11
166.858534
 21
-84.30004199999999
 31
0.0
  0
LINE
  5
740
330
1D
100
AcDbEntity
  8
BLACK
  6
Continuous
100
AcDbLine
 10
130.320193
 20
-59.997859
 30
0.0
 11
130.320197
 21
-59.997859
 31
0.0
  0
LINE
  5
741
330
1D
100
AcDbEntity
  8
BLACK
  6
Continuous
100
AcDbLine
 10
133.023047
 20
-47.28194999999999
 30
0.0
 11
133.022993
 21
-47.281939
 31
0.0
  0
LINE
  5
742
330
1D
100
AcDbEntity
  8
BLACK
  6
Continuous
100
AcDbLine
 10
132.637944
 20
-46.688924
 30
0.0
 11
132.637944
 21
-46.688923
 31
0.0
  0
LINE
  5
743
330
1D
100
AcDbEntity
  8
BLACK
  6
Continuous
100
AcDbLine
 10
119.335122
 20
-43.861321
 30
0.0
 11
119.335103
 21
-43.861411
 31
0.0
  0
LINE
  5
744
330
1D
100
AcDbEntity
  8
BLACK
  6
Continuous
100
AcDbLine
 10
118.74209
 20
-44.24645599999999
 30
0.0
 11
118.742089
 21
-44.24645599999999
 31
0.0
  0
LINE
  5
745
330
1D
100
AcDbEntity
  8
BLACK
  6
Continuous
100
AcDbLine
 10
131.937944
 20
-27.058924
 30
0.0
 11
131.937944
 21
-27.058923
 31
0.0
  0
LINE
  5
746
330
1D
100
AcDbEntity
  8
BLACK
  6
Continuous
100
AcDbLine
 10
132.322993
 20
-27.651939
 30
0.0
 11
132.323047
 21
-27.65195
 31
0.0
  0
LINE
  5
747
330
1D
100
AcDbEntity
  8
BLACK
  6
Continuous
100
AcDbLine
 10
129.620194
 20
-40.367859
 30
0.0
 11
129.620197
 21
-40.367859
 31
0.0
  0
LINE
  5
748
330
1D
100
AcDbEntity
  8
BLACK
  6
Continuous
100
AcDbLine
 10
118.04209
 20
-24.616456
 30
0.0
 11
118.042089
 21
-24.616456
 31
0.0
  0
LINE
  5
749
330
1D
100
AcDbEntity
  8
BLACK
  6
Continuous
100
AcDbLine
 10
118.635103
 20
-24.231411
 30
0.0
 11
118.635122
 21
-24.231321
 31
0.0
  0
LINE
  5
74A
330
1D
100
AcDbEntity
  8
BLACK
  6
Continuous
100
AcDbLine
 10
135.611223
 20
-110.07271
 30
0.0
 11
135.611207
 21
-110.072788
 31
0.0
  0
LINE
  5
74B
330
1D
100
AcDbEntity
  8
BLACK
  6
Continuous
100
AcDbLine
 10
-18.00995
 20
-68.067
 30
0.0
 11
-18.009991
 21
-68.067
 31
0.0
  0
LINE
  5
74C
330
1D
100
AcDbEntity
  8
BLACK
  6
Continuous
100
AcDbLine
 10
208.325344
 20
1.934997
 30
0.0
 11
208.325362
 21
1.935002
 31
0.0
  0
LINE
  5
74D
330
1D
100
AcDbEntity
  8
BLACK
  6
Continuous
100
AcDbLine
 10
211.028206
 20
-10.78096
 30
0.0
 11
211.028208
 21
-10.78096
 31
0.0
  0
LINE
  5
74E
330
1D
100
AcDbEntity
  8
BLACK
  6
Continuous
100
AcDbLine
 10
210.643064
 20
-11.373866
 30
0.0
 11
210.643083
 21
-11.373951
 31
0.0
  0
LINE
  5
74F
330
1D
100
AcDbEntity
  8
BLACK
  6
Continuous
100
AcDbLine
 10
197.34026
 20
-14.20155
 30
0.0
 11
197.34026
 21
-14.201553
 31
0.0
  0
LINE
  5
750
330
1D
100
AcDbEntity
  8
BLACK
  6
Continuous
100
AcDbLine
 10
196.747274
 20
-13.816427
 30
0.0
 11
196.747246
 21
-13.816432
 31
0.0
  0
LINE
  5
751
330
1D
100
AcDbEntity
  8
BLACK
  6
Continuous
100
AcDbLine
 10
194.044406
 20
-1.100562
 30
0.0
 11
194.044404
 21
-1.100562
 31
0.0
  0
LINE
  5
752
330
1D
100
AcDbEntity
  8
BLACK
  6
Continuous
100
AcDbLine
 10
75.42096599999999
 20
3.91575
 30
0.0
 11
75.420965
 21
3.91575
 31
0.0
  0
LINE
  5
753
330
1D
100
AcDbEntity
  8
BLACK
  6
Continuous
100
AcDbLine
 10
105.632765
 20
-15.796452
 30
0.0
 11
105.632767
 21
-15.796452
 31
0.0
  0
LINE
  5
754
330
1D
100
AcDbEntity
  8
BLACK
  6
Continuous
100
AcDbLine
 10
94.054664
 20
-0.045029
 30
0.0
 11
94.05466299999999
 21
-0.045029
 31
0.0
  0
LINE
  5
755
330
1D
100
AcDbEntity
  8
BLACK
  6
Continuous
100
AcDbLine
 10
208.928206
 20
-69.65096
 30
0.0
 11
208.928208
 21
-69.65096
 31
0.0
  0
LINE
  5
756
330
1D
100
AcDbEntity
  8
BLACK
  6
Continuous
100
AcDbLine
 10
208.543064
 20
-70.243866
 30
0.0
 11
208.543083
 21
-70.243951
 31
0.0
  0
LINE
  5
757
330
1D
100
AcDbEntity
  8
BLACK
  6
Continuous
100
AcDbLine
 10
195.24026
 20
-73.07155
 30
0.0
 11
195.24026
 21
-73.071553
 31
0.0
  0
LINE
  5
758
330
1D
100
AcDbEntity
  8
BLACK
  6
Continuous
100
AcDbLine
 10
194.647274
 20
-72.686427
 30
0.0
 11
194.647246
 21
-72.686432
 31
0.0
  0
LINE
  5
759
330
1D
100
AcDbEntity
  8
BLACK
  6
Continuous
100
AcDbLine
 10
191.944406
 20
-59.97056199999999
 30
0.0
 11
191.944404
 21
-59.97056199999999
 31
0.0
  0
LINE
  5
75A
330
1D
100
AcDbEntity
  8
BLACK
  6
Continuous
100
AcDbLine
 10
205.668206
 20
-31.39096
 30
0.0
 11
205.668208
 21
-31.39096
 31
0.0
  0
LINE
  5
75B
330
1D
100
AcDbEntity
  8
BLACK
  6
Continuous
100
AcDbLine
 10
205.283064
 20
-31.983866
 30
0.0
 11
205.283083
 21
-31.983951
 31
0.0
  0
LINE
  5
75C
330
1D
100
AcDbEntity
  8
BLACK
  6
Continuous
100
AcDbLine
 10
191.98026
 20
-34.81155
 30
0.0
 11
191.98026
 21
-34.811553
 31
0.0
  0
LINE
  5
75D
330
1D
100
AcDbEntity
  8
BLACK
  6
Continuous
100
AcDbLine
 10
191.387274
 20
-34.426427
 30
0.0
 11
191.387246
 21
-34.426432
 31
0.0
  0
LINE
  5
75E
330
1D
100
AcDbEntity
  8
BLACK
  6
Continuous
100
AcDbLine
 10
188.684406
 20
-21.710562
 30
0.0
 11
188.684404
 21
-21.710562
 31
0.0
  0
LINE
  5
75F
330
1D
100
AcDbEntity
  8
BLACK
  6
Continuous
100
AcDbLine
 10
214.288206
 20
-49.04096
 30
0.0
 11
214.288208
 21
-49.04096
 31
0.0
  0
LINE
  5
760
330
1D
100
AcDbEntity
  8
BLACK
  6
Continuous
100
AcDbLine
 10
213.903064
 20
-49.633866
 30
0.0
 11
213.903083
 21
-49.633951
 31
0.0
  0
LINE
  5
761
330
1D
100
AcDbEntity
  8
BLACK
  6
Continuous
100
AcDbLine
 10
200.60026
 20
-52.46155
 30
0.0
 11
200.60026
 21
-52.46155299999999
 31
0.0
  0
LINE
  5
762
330
1D
100
AcDbEntity
  8
BLACK
  6
Continuous
100
AcDbLine
 10
200.007274
 20
-52.076427
 30
0.0
 11
200.007246
 21
-52.076432
 31
0.0
  0
LINE
  5
763
330
1D
100
AcDbEntity
  8
BLACK
  6
Continuous
100
AcDbLine
 10
197.304406
 20
-39.360562
 30
0.0
 11
197.304404
 21
-39.360562
 31
0.0
  0
LINE
  5
764
330
1D
100
AcDbEntity
  8
BLACK
  6
Continuous
100
AcDbLine
 10
96.705569
 20
-33.371649
 30
0.0
 11
96.705529
 21
-33.37164
 31
0.0
  0
LINE
  5
765
330
1D
100
AcDbEntity
  8
BLACK
  6
Continuous
100
AcDbLine
 10
113.689301
 20
-23.691138
 30
0.0
 11
113.68933
 21
-23.691144
 31
0.0
  0
LINE
  5
766
330
1D
100
AcDbEntity
  8
BLACK
  6
Continuous
100
AcDbLine
 10
189.098667
 20
-1.64059
 30
0.0
 11
189.098667
 21
-1.640589
 31
0.0
  0
LINE
  5
767
330
1D
100
AcDbEntity
  8
BLACK
  6
Continuous
100
AcDbLine
 10
178.113534
 20
-17.77715
 30
0.0
 11
178.11356
 21
-17.777146
 31
0.0
  0
LINE
  5
768
330
1D
100
AcDbEntity
  8
BLACK
  6
Continuous
100
AcDbLine
 10
189.691618
 20
-2.025658
 30
0.0
 11
189.691638
 21
-2.025654
 31
0.0
  0
LINE
  5
769
330
1D
100
AcDbEntity
  8
BLACK
  6
Continuous
100
AcDbLine
 10
92.35276499999999
 20
-32.446452
 30
0.0
 11
92.352767
 21
-32.446452
 31
0.0
  0
LINE
  5
76A
330
1D
100
AcDbEntity
  8
BLACK
  6
Continuous
100
AcDbLine
 10
80.774664
 20
-16.695029
 30
0.0
 11
80.77466299999999
 21
-16.695029
 31
0.0
  0
LINE
  5
76B
330
1D
100
AcDbEntity
  8
BLACK
  6
Continuous
100
AcDbLine
 10
62.140966
 20
-12.73425
 30
0.0
 11
62.14096499999999
 21
-12.73425
 31
0.0
  0
LINE
  5
76C
330
1D
100
AcDbEntity
  8
BLACK
  6
Continuous
100
AcDbLine
 10
63.38096599999999
 20
-72.96424999999999
 30
0.0
 11
63.380965
 21
-72.96424999999999
 31
0.0
  0
LINE
  5
76D
330
1D
100
AcDbEntity
  8
BLACK
  6
Continuous
100
AcDbLine
 10
77.276778
 20
-75.40676599999999
 30
0.0
 11
77.276778
 21
-75.406764
 31
0.0
  0
LINE
  5
76E
330
1D
100
AcDbEntity
  8
BLACK
  6
Continuous
100
AcDbLine
 10
61.063239
 20
-86.273236
 30
0.0
 11
61.063239
 21
-86.27323899999999
 31
0.0
  0
LINE
  5
76F
330
1D
100
AcDbEntity
  8
BLACK
  6
Continuous
100
AcDbLine
 10
62.84096599999999
 20
-32.36425
 30
0.0
 11
62.840965
 21
-32.36425
 31
0.0
  0
LINE
  5
770
330
1D
100
AcDbEntity
  8
BLACK
  6
Continuous
100
AcDbLine
 10
76.736778
 20
-34.806766
 30
0.0
 11
76.736778
 21
-34.806764
 31
0.0
  0
LINE
  5
771
330
1D
100
AcDbEntity
  8
BLACK
  6
Continuous
100
AcDbLine
 10
46.686258
 20
-52.28999899999999
 30
0.0
 11
46.686258
 21
-52.290076
 31
0.0
  0
LINE
  5
772
330
1D
100
AcDbEntity
  8
BLACK
  6
Continuous
100
AcDbLine
 10
60.286258
 20
-66.289999
 30
0.0
 11
60.286258
 21
-66.28997199999999
 31
0.0
  0
LINE
  5
773
330
1D
100
AcDbEntity
  8
BLACK
  6
Continuous
100
AcDbLine
 10
181.373534
 20
-56.03715
 30
0.0
 11
181.37356
 21
-56.037146
 31
0.0
  0
LINE
  5
774
330
1D
100
AcDbEntity
  8
BLACK
  6
Continuous
100
AcDbLine
 10
192.358667
 20
-39.90059
 30
0.0
 11
192.358667
 21
-39.900589
 31
0.0
  0
LINE
  5
775
330
1D
100
AcDbEntity
  8
BLACK
  6
Continuous
100
AcDbLine
 10
279.436259
 20
-33.265
 30
0.0
 11
279.436259
 21
-33.265077
 31
0.0
  0
ARC
  5
7BE
330
1D
100
AcDbEntity
  8
BLACK
100
AcDbCircle
 10
23.970109
 20
-33.739999
 30
0.0
 40
0.5
100
AcDbArc
 50
359.99988541
 51
90.0
  0
ARC
  5
7BF
330
1D
100
AcDbEntity
  8
BLACK
100
AcDbCircle
 10
23.970109
 20
-46.739999
 30
0.0
 40
0.499999000001
100
AcDbArc
 50
270.0
 51
359.99988541
  0
LINE
  5
7C0
330
1D
100
AcDbEntity
  8
BLACK
  6
Continuous
100
AcDbLine
 10
24.470108
 20
-46.73999999999999
 30
0.0
 11
24.470108
 21
-33.74
 31
0.0
  0
LINE
  5
7C1
330
1D
100
AcDbEntity
  8
BLACK
  6
Continuous
100
AcDbLine
 10
23.970109
 20
-33.239999
 30
0.0
 11
10.370109
 21
-33.239999
 31
0.0
  0
LINE
  5
7C2
330
1D
100
AcDbEntity
  8
BLACK
  6
Continuous
100
AcDbLine
 10
10.370109
 20
-47.239999
 30
0.0
 11
23.970109
 21
-47.239999
 31
0.0
  0
ARC
  5
7C3
330
1D
100
AcDbEntity
  8
BLACK
100
AcDbCircle
 10
10.370109
 20
-46.73999999999999
 30
0.0
 40
0.499999
100
AcDbArc
 50
180.0
 51
270.0
  0
ARC
  5
7C4
330
1D
100
AcDbEntity
  8
BLACK
100
AcDbCircle
 10
10.370109
 20
-33.74
 30
0.0
 40
0.500001
100
AcDbArc
 50
90.0
 51
180.0
  0
LINE
  5
7C5
330
1D
100
AcDbEntity
  8
BLACK
  6
Continuous
100
AcDbLine
 10
9.870108
 20
-33.74
 30
0.0
 11
9.870108
 21
-46.73999999999999
 31
0.0
  0
CIRCLE
  5
7C6
330
1D
100
AcDbEntity
  8
0
100
AcDbCircle
 10
269.824964
 20
-2.139992
 30
0.0
 40
0.9999980000000002
  0
CIRCLE
  5
7C7
330
1D
100
AcDbEntity
  8
0
100
AcDbCircle
 10
307.925077
 20
-2.139999
 30
0.0
 40
0.9999940000000002
  0
LWPOLYLINE
  5
7C8
330
1D
100
AcDbEntity
  8
0
100
AcDbPolyline
 90
8
 70
1
 10
272.0499990000001
 20
4.359999
 10
272.0499990000001
 20
-8.640001
 42
0.414212390803041
 10
272.549999
 20
-9.140001
 10
286.1499989999999
 20
-9.140001
 42
0.4142135623730951
 10
286.6499989999999
 20
-8.640001
 10
286.6499989999999
 20
4.359999
 42
0.4142135623730954
 10
286.1499989999999
 20
4.859999
 10
272.549999
 20
4.859999
 42
0.4142123908030413
  0
LWPOLYLINE
  5
7C9
330
1D
100
AcDbEntity
  8
0
100
AcDbPolyline
 90
8
 70
1
 10
291.099999
 20
4.359999999999999
 10
291.099999
 20
-8.639999999999999
 42
0.4142123908030839
 10
291.599999
 20
-9.139999999999999
 10
305.199999
 20
-9.139999999999999
 42
0.4142135623730951
 10
305.699999
 20
-8.639999999999999
 10
305.699999
 20
4.359999999999999
 42
0.4142135623730951
 10
305.199999
 20
4.859999999999999
 10
291.599999
 20
4.859999999999999
 42
0.4142123908030836
  0
CIRCLE
  5
7CA
330
1D
100
AcDbEntity
  8
0
100
AcDbCircle
 10
301.483747
 20
-59.28988099999999
 30
0.0
 40
1.000002
  0
LWPOLYLINE
  5
7CB
330
1D
100
AcDbEntity
  8
0
100
AcDbPolyline
 90
8
 70
1
 10
277.515
 20
-52.79
 10
277.515
 20
-65.78999999999999
 42
0.4142123908030554
 10
278.015
 20
-66.28999999999999
 10
291.615
 20
-66.28999999999999
 42
0.4142135623730951
 10
292.115
 20
-65.78999999999999
 10
292.115
 20
-52.79
 42
0.4142135623730951
 10
291.615
 20
-52.29
 10
278.015
 20
-52.29
 42
0.4142123908030605
  0
LWPOLYLINE
  5
7CC
330
1D
100
AcDbEntity
  8
0
100
AcDbPolyline
 90
8
 70
1
 10
303.70875
 20
-52.79
 10
303.70875
 20
-65.78999999999999
 42
0.4142123908030345
 10
304.20875
 20
-66.28999999999999
 10
317.8087499999999
 20
-66.28999999999999
 42
0.4142135623730951
 10
318.3087499999999
 20
-65.78999999999999
 10
318.3087499999999
 20
-52.79
 42
0.4142135623730951
 10
317.8087499999999
 20
-52.29
 10
304.20875
 20
-52.29
 42
0.4142123908030397
  0
CIRCLE
  5
7CD
330
1D
100
AcDbEntity
  8
0
100
AcDbCircle
 10
87.180219
 20
-90.49454
 30
0.0
 40
0.9999990000000001
  0
CIRCLE
  5
7CE
330
1D
100
AcDbEntity
  8
0
100
AcDbCircle
 10
119.263487
 20
-97.31404900000001
 30
0.0
 40
1.0
  0
LWPOLYLINE
  5
7CF
330
1D
100
AcDbEntity
  8
0
100
AcDbPolyline
 90
8
 70
1
 10
126.913212
 20
-98.733235
 10
140.21602
 20
-101.560834
 42
0.4142134405809517
 10
140.809049
 20
-101.175716
 10
143.511901
 20
-88.459797
 42
0.4142136841652589
 10
143.126784
 20
-87.866767
 10
129.823976
 20
-85.03916799999999
 42
0.4142122946124177
 10
129.230947
 20
-85.424286
 10
126.528095
 20
-98.140205
 42
0.4142136841652467
  0
LWPOLYLINE
  5
7D0
330
1D
100
AcDbEntity
  8
0
100
AcDbPolyline
 90
8
 70
1
 10
87.97132500000001
 20
-88.66198500000002
 10
90.54566500000001
 20
-90.979872
 10
115.977503
 20
-96.38557499999999
 10
119.272049
 20
-95.31515900000001
 10
121.708358
 20
-83.853225
 42
0.4142134405809212
 10
121.32324
 20
-83.26019600000001
 10
91.00066400000001
 20
-76.814933
 42
0.4142122946124389
 10
90.40763500000003
 20
-77.200051
  0
ENDSEC
  0
SECTION
  2
OBJECTS
  0
DICTIONARY
  5
C
330
0
100
AcDbDictionary
281
1
  3
ACAD_DETAILVIEWSTYLE
350
7B5
  3
ACAD_GROUP
350
D
  3
ACAD_LAYOUT
350
1A
  3
ACAD_MATERIAL
350
7A5
  3
ACAD_MLEADERSTYLE
350
7AB
  3
ACAD_MLINESTYLE
350
17
  3
ACAD_PLOTSETTINGS
350
19
  3
ACAD_PLOTSTYLENAME
350
E
  3
ACAD_SCALELIST
350
776
  3
ACAD_SECTIONVIEWSTYLE
350
7B6
  3
ACAD_TABLESTYLE
350
7A9
  3
ACAD_VISUALSTYLE
350
78C
  3
AcDbVariableDictionary
350
7AD
  3
ACDB_RECOMPOSE_DATA
350
7B1
  3
ACAD_COLOR
350
7B7
  3
EZDXF_META
350
7BC
  0
DICTIONARY
  5
7B5
102
{ACAD_REACTORS
330
C
102
}
330
C
100
AcDbDictionary
281
1
  0
DICTIONARY
  5
D
102
{ACAD_REACTORS
330
C
102
}
330
C
100
AcDbDictionary
281
1
  0
DICTIONARY
  5
1A
102
{ACAD_REACTORS
330
C
102
}
330
C
100
AcDbDictionary
281
1
  3
Layout1
350
1C
  3
Model
350
1E
  0
DICTIONARY
  5
7A5
102
{ACAD_REACTORS
330
C
102
}
330
C
100
AcDbDictionary
281
1
  3
ByBlock
350
7A7
  3
ByLayer
350
7A6
  3
Global
350
7A8
  0
DICTIONARY
  5
7AB
102
{ACAD_REACTORS
330
C
102
}
330
C
100
AcDbDictionary
281
1
  3
Standard
350
7AC
  0
DICTIONARY
  5
17
102
{ACAD_REACTORS
330
C
102
}
330
C
100
AcDbDictionary
281
1
  3
Standard
350
18
  0
DICTIONARY
  5
19
102
{ACAD_REACTORS
330
C
102
}
330
C
100
AcDbDictionary
281
1
  0
ACDBDICTIONARYWDFLT
  5
E
102
{ACAD_REACTORS
330
C
102
}
330
C
100
AcDbDictionary
281
1
  3
Normal
350
F
100
AcDbDictionaryWithDefault
340
F
  0
DICTIONARY
  5
776
102
{ACAD_REACTORS
330
C
102
}
330
C
100
AcDbDictionary
281
1
  3
A0
350
777
  3
A1
350
778
  3
A2
350
779
  3
A3
350
77A
  3
A4
350
77B
  3
A5
350
77C
  3
A6
350
77D
  3
A7
350
77E
  3
A8
350
77F
  3
A9
350
780
  3
B0
350
781
  3
B1
350
782
  3
B2
350
783
  3
B3
350
784
  3
B4
350
785
  3
B5
350
786
  3
B6
350
787
  0
DICTIONARY
  5
7B6
102
{ACAD_REACTORS
330
C
102
}
330
C
100
AcDbDictionary
281
1
  0
DICTIONARY
  5
7A9
102
{ACAD_REACTORS
330
C
102
}
330
C
100
AcDbDictionary
281
1
  3
Standard
350
7AA
  0
DICTIONARY
  5
78C
102
{ACAD_REACTORS
330
C
102
}
330
C
100
AcDbDictionary
281
1
  3
2dWireframe
350
791
  3
Basic
350
794
  3
Brighten
350
798
  3
ColorChange
350
79C
  3
Conceptual
350
796
  3
Dim
350
797
  3
EdgeColorOff
350
79F
  3
Facepattern
350
79B
  3
Flat
350
78D
  3
FlatWithEdges
350
78E
  3
Gouraud
350
78F
  3
GouraudWithEdges
350
790
  3
Hidden
350
793
  3
JitterOff
350
79D
  3
Linepattern
350
79A
  3
OverhangOff
350
79E
  3
Realistic
350
795
  3
Shaded
350
7A4
  3
Shaded with edges
350
7A3
  3
Shades of Gray
350
7A0
  3
Sketchy
350
7A1
  3
Thicken
350
799
  3
Wireframe
350
792
  3
X-Ray
350
7A2
  0
DICTIONARY
  5
7AD
102
{ACAD_REACTORS
330
C
102
}
330
C
100
AcDbDictionary
281
1
  3
CANNOSCALE
350
7AE
  3
CMLEADERSTYLE
350
7B3
  3
CTABLESTYLE
350
7B2
  3
MSLTSCALE
350
7B4
  0
XRECORD
  5
7B1
102
{ACAD_REACTORS
330
C
102
}
330
C
100
AcDbXrecord
280
1
 90
1
330
7AA
  0
LAYOUT
  5
1C
102
{ACAD_REACTORS
330
1A
102
}
330
1A
100
AcDbPlotSettings
  1

  2
none_device
  4

  6

 40
0.0
 41
0.0
 42
0.0
 43
0.0
 44
0.0
 45
0.0
 46
0.0
 47
0.0
 48
0.0
 49
0.0
140
0.0
141
0.0
142
1.0
143
1.0
 70
688
 72
0
 73
0
 74
5
  7

 75
16
 76
0
 77
2
 78
300
147
1.0
148
0.0
149
0.0
100
AcDbLayout
  1
Layout1
 70
1
 71
1
 10
0.0
 20
0.0
 11
12.0
 21
9.0
 12
0.0
 22
0.0
 32
0.0
 14
1e+20
 24
1e+20
 34
1e+20
 15
-1e+20
 25
-1e+20
 35
-1e+20
146
0.0
 13
0.0
 23
0.0
 33
0.0
 16
1.0
 26
0.0
 36
0.0
 17
0.0
 27
1.0
 37
0.0
 76
0
330
1B
  0
LAYOUT
  5
1E
102
{ACAD_REACTORS
330
1A
102
}
330
1A
100
AcDbPlotSettings
  1

  2
none_device
  4
Letter_(8.50_x_11.00_Inches)
  6

 40
6.35
 41
6.35
 42
6.35000508
 43
6.35000508
 44
215.9
 45
279.4
 46
0.0
 47
0.0
 48
0.0
 49
0.0
140
0.0
141
0.0
142
1.0
143
1.0
 70
1712
 72
0
 73
0
 74
0
  7

 75
0
 76
0
 77
2
 78
300
147
1.0
148
0.0
149
0.0
100
AcDbLayout
  1
Model
 70
1
 71
0
 10
0.0
 20
0.0
 11
12.0
 21
9.0
 12
0.0
 22
0.0
 32
0.0
 14
1e+20
 24
1e+20
 34
1e+20
 15
-1e+20
 25
-1e+20
 35
-1e+20
146
0.0
 13
0.0
 23
0.0
 33
0.0
 16
1.0
 26
0.0
 36
0.0
 17
0.0
 27
1.0
 37
0.0
 76
0
330
1D
331
442
  0
MATERIAL
  5
7A7
102
{ACAD_REACTORS
330
7A5
102
}
330
7A5
100
AcDbMaterial
  1
ByBlock
  2

 70
0
 40
1.0
 71
0
 41
1.0
 91
-1023410177
 42
1.0
 72
1
  3

 73
1
 74
1
 75
1
 44
0.5
 73
0
 45
1.0
 46
1.0
 77
1
  4

 78
1
 79
1
170
1
 48
1.0
171
1
  6

172
1
173
1
174
1
140
1.0
141
1.0
175
1
  7

176
1
177
1
178
1
143
1.0
179
1
  8

270
1
271
1
272
1
145
1.0
146
1.0
273
1
  9

274
1
275
1
276
1
 42
1.0
 72
1
  3

 73
1
 74
1
 75
1
 94
127
  0
MATERIAL
  5
7A6
102
{ACAD_REACTORS
330
7A5
102
}
330
7A5
100
AcDbMaterial
  1
ByLayer
  2

 70
0
 40
1.0
 71
0
 41
1.0
 91
-1023410177
 42
1.0
 72
1
  3

 73
1
 74
1
 75
1
 44
0.5
 73
0
 45
1.0
 46
1.0
 77
1
  4

 78
1
 79
1
170
1
 48
1.0
171
1
  6

172
1
173
1
174
1
140
1.0
141
1.0
175
1
  7

176
1
177
1
178
1
143
1.0
179
1
  8

270
1
271
1
272
1
145
1.0
146
1.0
273
1
  9

274
1
275
1
276
1
 42
1.0
 72
1
  3

 73
1
 74
1
 75
1
 94
127
  0
MATERIAL
  5
7A8
102
{ACAD_REACTORS
330
7A5
102
}
330
7A5
100
AcDbMaterial
  1
Global
  2

 70
0
 40
1.0
 71
0
 41
1.0
 91
-1023410177
 42
1.0
 72
1
  3

 73
1
 74
1
 75
1
 44
0.5
 73
0
 45
1.0
 46
1.0
 77
1
  4

 78
1
 79
1
170
1
 48
1.0
171
1
  6

172
1
173
1
174
1
140
1.0
141
1.0
175
1
  7

176
1
177
1
178
1
143
1.0
179
1
  8

270
1
271
1
272
1
145
1.0
146
1.0
273
1
  9

274
1
275
1
276
1
 42
1.0
 72
1
  3

 73
1
 74
1
 75
1
 94
127
  0
MLEADERSTYLE
  5
7AC
102
{ACAD_REACTORS
330
7AB
102
}
330
7AB
100
AcDbMLeaderStyle
179
2
170
2
171
1
172
0
 90
2
 40
0.0
 41
0.0
173
1
 91
-1056964608
340
14
 92
-2
290
1
 42
2.0
291
1
 43
8.0
  3
Standard
341
0
 44
4.0
300

342
11
174
1
175
1
176
0
178
6
 93
-1056964608
 45
4.0
292
0
297
0
 46
4.0
293
1
343
0
 94
-1056964608
 47
1.0
 49
1.0
140
1.0
294
1
141
0.0
177
0
142
1.0
295
0
296
0
143
3.75
271
0
272
9
273
9
298
0
  0
MLINESTYLE
  5
18
102
{ACAD_REACTORS
330
17
102
}
330
17
100
AcDbMlineStyle
  2
Standard
 70
0
  3

 62
256
 51
90.0
 52
90.0
 71
2
 49
0.5
 62
256
  6
BYLAYER
 49
-0.5
 62
256
  6
BYLAYER
  0
ACDBPLACEHOLDER
  5
F
102
{ACAD_REACTORS
330
E
102
}
330
E
  0
SCALE
  5
777
102
{ACAD_REACTORS
330
776
102
}
330
776
100
AcDbScale
 70
0
300
1:1
140
1.0
141
1.0
290
1
  0
SCALE
  5
778
102
{ACAD_REACTORS
330
776
102
}
330
776
100
AcDbScale
 70
0
300
1:2
140
1.0
141
2.0
290
0
  0
SCALE
  5
779
102
{ACAD_REACTORS
330
776
102
}
330
776
100
AcDbScale
 70
0
300
1:4
140
1.0
141
4.0
290
0
  0
SCALE
  5
77A
102
{ACAD_REACTORS
330
776
102
}
330
776
100
AcDbScale
 70
0
300
1:5
140
1.0
141
5.0
290
0
  0
SCALE
  5
77B
102
{ACAD_REACTORS
330
776
102
}
330
776
100
AcDbScale
 70
0
300
1:8
140
1.0
141
8.0
290
0
  0
SCALE
  5
77C
102
{ACAD_REACTORS
330
776
102
}
330
776
100
AcDbScale
 70
0
300
1:10
140
1.0
141
10.0
290
0
  0
SCALE
  5
77D
102
{ACAD_REACTORS
330
776
102
}
330
776
100
AcDbScale
 70
0
300
1:16
140
1.0
141
16.0
290
0
  0
SCALE
  5
77E
102
{ACAD_REACTORS
330
776
102
}
330
776
100
AcDbScale
 70
0
300
1:20
140
1.0
141
20.0
290
0
  0
SCALE
  5
77F
102
{ACAD_REACTORS
330
776
102
}
330
776
100
AcDbScale
 70
0
300
1:30
140
1.0
141
30.0
290
0
  0
SCALE
  5
780
102
{ACAD_REACTORS
330
776
102
}
330
776
100
AcDbScale
 70
0
300
1:40
140
1.0
141
40.0
290
0
  0
SCALE
  5
781
102
{ACAD_REACTORS
330
776
102
}
330
776
100
AcDbScale
 70
0
300
1:50
140
1.0
141
50.0
290
0
  0
SCALE
  5
782
102
{ACAD_REACTORS
330
776
102
}
330
776
100
AcDbScale
 70
0
300
1:100
140
1.0
141
100.0
290
0
  0
SCALE
  5
783
102
{ACAD_REACTORS
330
776
102
}
330
776
100
AcDbScale
 70
0
300
2:1
140
2.0
141
1.0
290
0
  0
SCALE
  5
784
102
{ACAD_REACTORS
330
776
102
}
330
776
100
AcDbScale
 70
0
300
4:1
140
4.0
141
1.0
290
0
  0
SCALE
  5
785
102
{ACAD_REACTORS
330
776
102
}
330
776
100
AcDbScale
 70
0
300
8:1
140
8.0
141
1.0
290
0
  0
SCALE
  5
786
102
{ACAD_REACTORS
330
776
102
}
330
776
100
AcDbScale
 70
0
300
10:1
140
10.0
141
1.0
290
0
  0
SCALE
  5
787
102
{ACAD_REACTORS
330
776
102
}
330
776
100
AcDbScale
 70
0
300
100:1
140
100.0
141
1.0
290
0
  0
TABLESTYLE
  5
7AA
102
{ACAD_XDICTIONARY
360
7AF
102
}
102
{ACAD_REACTORS
330
7A9
102
}
330
7A9
100
AcDbTableStyle
  3
Standard
 70
0
 71
0
 40
0.06
 41
0.06
280
0
281
0
  7
Standard
140
4.5
170
2
 62
0
 63
257
283
0
 90
4
 91
0
  1

274
-2
284
1
 64
0
275
-2
285
1
 65
0
276
-2
286
1
 66
0
277
-2
287
1
 67
0
278
-2
288
1
 68
0
279
-2
289
1
 69
0
  7
Standard
140
6.0
170
5
 62
0
 63
257
283
0
 90
4
 91
0
  1

274
-2
284
1
 64
0
275
-2
285
1
 65
0
276
-2
286
1
 66
0
277
-2
287
1
 67
0
278
-2
288
1
 68
0
279
-2
289
1
 69
0
  7
Standard
140
4.5
170
5
 62
0
 63
257
283
0
 90
4
 91
0
  1

274
-2
284
1
 64
0
275
-2
285
1
 65
0
276
-2
286
1
 66
0
277
-2
287
1
 67
0
278
-2
288
1
 68
0
279
-2
289
1
 69
0
  0
VISUALSTYLE
  5
791
102
{ACAD_REACTORS
330
78C
102
}
330
78C
100
AcDbVisualStyle
  2
2dWireframe
 70
4
177
3
291
0
 70
58
 90
0
176
1
 90
2
176
1
 90
0
176
1
 90
0
176
1
 40
0.6
176
1
 40
30.0
176
1
 62
7
420
16777215
176
1
 90
1
176
1
 90
4
176
1
 62
7
176
1
 62
257
176
1
 90
1
176
1
 90
1
176
1
 40
1.0
176
1
 90
0
176
1
 62
257
176
1
 40
1.0
176
1
 90
1
176
1
 90
6
176
1
 90
2
176
1
 62
7
176
1
 90
5
176
1
 90
0
176
1
 90
0
176
1
290
0
176
1
 90
1
176
1
 40
0.0
176
1
 90
0
176
1
290
1
176
1
290
1
176
1
290
0
176
1
290
0
176
1
290
0
176
1
290
0
176
1
290
0
176
1
290
0
176
1
290
0
176
1
 90
50
176
1
 40
0.0
176
1
 40
1.0
176
1
 90
0
176
1
 62
18
420
0
176
1
 90
50
176
1
 90
3
176
1
 62
5
420
255
176
1
290
0
176
1
 90
50
176
1
 90
50
176
1
 90
50
176
1
290
0
176
1
 90
50
176
1
 62
256
176
0
 40
1.0
176
0
 90
2
176
1
  1
strokes_ogs.tif
176
1
290
0
176
1
 40
1.0
176
1
 40
1.0
176
1
  0
VISUALSTYLE
  5
794
102
{ACAD_REACTORS
330
78C
102
}
330
78C
100
AcDbVisualStyle
  2
Basic
 70
7
177
3
291
1
 70
58
 90
1
176
1
 90
0
176
1
 90
1
176
1
 90
0
176
1
 40
0.6
176
1
 40
30.0
176
1
 62
7
420
16777215
176
1
 90
0
176
1
 90
4
176
1
 62
7
176
1
 62
257
176
1
 90
1
176
1
 90
1
176
1
 40
1.0
176
1
 90
8
176
1
 62
7
176
1
 40
1.0
176
1
 90
1
176
1
 90
6
176
1
 90
2
176
1
 62
7
176
1
 90
5
176
1
 90
0
176
1
 90
0
176
1
290
0
176
1
 90
1
176
1
 40
0.0
176
1
 90
0
176
1
290
0
176
1
290
1
176
1
290
1
176
1
290
0
176
1
290
0
176
1
290
0
176
1
290
0
176
1
290
0
176
1
290
0
176
1
 90
50
176
1
 40
0.0
176
1
 40
1.0
176
1
 90
0
176
1
 62
18
420
0
176
1
 90
50
176
1
 90
3
176
1
 62
5
420
255
176
1
290
0
176
1
 90
50
176
1
 90
50
176
1
 90
50
176
1
290
0
176
1
 90
50
176
1
 62
256
176
0
 40
1.0
176
0
 90
2
176
1
  1
strokes_ogs.tif
176
1
290
0
176
1
 40
1.0
176
1
 40
1.0
176
1
  0
VISUALSTYLE
  5
798
102
{ACAD_REACTORS
330
78C
102
}
330
78C
100
AcDbVisualStyle
  2
Brighten
 70
12
177
3
291
1
 70
58
 90
2
176
1
 90
2
176
1
 90
0
176
1
 90
0
176
1
 40
0.6
176
1
 40
30.0
176
1
 62
7
420
16777215
176
1
 90
1
176
1
 90
4
176
1
 62
7
176
1
 62
257
176
1
 90
1
176
1
 90
1
176
1
 40
1.0
176
1
 90
8
176
1
 62
7
176
1
 40
1.0
176
1
 90
1
176
1
 90
6
176
1
 90
2
176
1
 62
7
176
1
 90
5
176
1
 90
0
176
1
 90
0
176
1
290
0
176
1
 90
1
176
1
 40
50.0
176
1
 90
0
176
1
290
0
176
1
290
1
176
1
290
1
176
1
290
0
176
1
290
0
176
1
290
0
176
1
290
0
176
1
290
0
176
1
290
0
176
1
 90
50
176
1
 40
0.0
176
1
 40
1.0
176
1
 90
0
176
1
 62
18
420
0
176
1
 90
50
176
1
 90
3
176
1
 62
5
420
255
176
1
290
0
176
1
 90
50
176
1
 90
50
176
1
 90
50
176
1
290
0
176
1
 90
50
176
1
 62
256
176
0
 40
1.0
176
0
 90
2
176
1
  1
strokes_ogs.tif
176
1
290
0
176
1
 40
1.0
176
1
 40
1.0
176
1
  0
VISUALSTYLE
  5
79C
102
{ACAD_REACTORS
330
78C
102
}
330
78C
100
AcDbVisualStyle
  2
ColorChange
 70
16
177
3
291
1
 70
58
 90
2
176
1
 90
2
176
1
 90
3
176
1
 90
0
176
1
 40
0.6
176
1
 40
30.0
176
1
 62
8
420
8421504
176
1
 90
1
176
1
 90
4
176
1
 62
7
176
1
 62
257
176
1
 90
1
176
1
 90
1
176
1
 40
1.0
176
1
 90
8
176
1
 62
8
420
8421504
176
1
 40
1.0
176
1
 90
1
176
1
 90
6
176
1
 90
2
176
1
 62
7
176
1
 90
5
176
1
 90
0
176
1
 90
0
176
1
290
0
176
1
 90
1
176
1
 40
0.0
176
1
 90
0
176
1
290
0
176
1
290
1
176
1
290
1
176
1
290
0
176
1
290
0
176
1
290
0
176
1
290
0
176
1
290
0
176
1
290
0
176
1
 90
50
176
1
 40
0.0
176
1
 40
1.0
176
1
 90
0
176
1
 62
18
420
0
176
1
 90
50
176
1
 90
3
176
1
 62
5
420
255
176
1
290
0
176
1
 90
50
176
1
 90
50
176
1
 90
50
176
1
290
0
176
1
 90
50
176
1
 62
256
176
0
 40
1.0
176
0
 90
2
176
1
  1
strokes_ogs.tif
176
1
290
0
176
1
 40
1.0
176
1
 40
1.0
176
1
  0
VISUALSTYLE
  5
796
102
{ACAD_REACTORS
330
78C
102
}
330
78C
100
AcDbVisualStyle
  2
Conceptual
 70
9
177
3
291
0
 70
58
 90
3
176
1
 90
2
176
1
 90
0
176
1
 90
0
176
1
 40
0.6
176
1
 40
30.0
176
1
 62
7
420
16777215
176
1
 90
2
176
1
 90
2
176
1
 62
7
176
1
 62
257
176
1
 90
1
176
1
 90
1
176
1
 40
179.0
176
1
 90
8
176
1
 62
7
176
1
 40
1.0
176
1
 90
1
176
1
 90
6
176
1
 90
2
176
1
 62
7
176
1
 90
3
176
1
 90
0
176
1
 90
0
176
1
290
0
176
1
 90
1
176
1
 40
0.0
176
1
 90
0
176
1
290
0
176
1
290
1
176
1
290
1
176
1
290
0
176
1
290
0
176
1
290
0
176
1
290
0
176
1
290
0
176
1
290
0
176
1
 90
50
176
1
 40
0.0
176
1
 40
1.0
176
1
 90
0
176
1
 62
18
420
0
176
1
 90
50
176
1
 90
3
176
1
 62
5
420
255
176
1
290
0
176
1
 90
50
176
1
 90
50
176
1
 90
50
176
1
290
0
176
1
 90
50
176
1
 62
256
176
0
 40
1.0
176
0
 90
2
176
1
  1
strokes_ogs.tif
176
1
290
0
176
1
 40
1.0
176
1
 40
1.0
176
1
  0
VISUALSTYLE
  5
797
102
{ACAD_REACTORS
330
78C
102
}
330
78C
100
AcDbVisualStyle
  2
Dim
 70
11
177
3
291
1
 70
58
 90
2
176
1
 90
2
176
1
 90
0
176
1
 90
0
176
1
 40
0.6
176
1
 40
30.0
176
1
 62
7
420
16777215
176
1
 90
1
176
1
 90
4
176
1
 62
7
176
1
 62
257
176
1
 90
1
176
1
 90
1
176
1
 40
1.0
176
1
 90
8
176
1
 62
7
176
1
 40
1.0
176
1
 90
1
176
1
 90
6
176
1
 90
2
176
1
 62
7
176
1
 90
5
176
1
 90
0
176
1
 90
0
176
1
290
0
176
1
 90
1
176
1
 40
-50.0
176
1
 90
0
176
1
290
0
176
1
290
1
176
1
290
1
176
1
290
0
176
1
290
0
176
1
290
0
176
1
290
0
176
1
290
0
176
1
290
0
176
1
 90
50
176
1
 40
0.0
176
1
 40
1.0
176
1
 90
0
176
1
 62
18
420
0
176
1
 90
50
176
1
 90
3
176
1
 62
5
420
255
176
1
290
0
176
1
 90
50
176
1
 90
50
176
1
 90
50
176
1
290
0
176
1
 90
50
176
1
 62
256
176
0
 40
1.0
176
0
 90
2
176
1
  1
strokes_ogs.tif
176
1
290
0
176
1
 40
1.0
176
1
 40
1.0
176
1
  0
VISUALSTYLE
  5
79F
102
{ACAD_REACTORS
330
78C
102
}
330
78C
100
AcDbVisualStyle
  2
EdgeColorOff
 70
22
177
3
291
1
 70
58
 90
2
176
0
 90
2
176
0
 90
0
176
0
 90
0
176
0
 40
0.6
176
0
 40
30.0
176
0
 62
7
420
16777215
176
0
 90
1
176
0
 90
4
176
0
 62
7
176
0
 62
257
176
0
 90
1
176
0
 90
1
176
0
 40
1.0
176
0
 90
8
176
2
 62
7
176
0
 40
1.0
176
0
 90
1
176
0
 90
6
176
0
 90
2
176
0
 62
7
176
0
 90
5
176
0
 90
0
176
0
 90
0
176
0
290
0
176
0
 90
1
176
0
 40
0.0
176
0
 90
0
176
0
290
0
176
0
290
1
176
0
290
1
176
0
290
0
176
0
290
0
176
0
290
0
176
0
290
0
176
0
290
0
176
0
290
0
176
0
 90
50
176
0
 40
0.0
176
0
 40
1.0
176
0
 90
0
176
0
 62
18
420
0
176
0
 90
50
176
0
 90
3
176
0
 62
5
420
255
176
0
290
0
176
0
 90
50
176
0
 90
50
176
0
 90
50
176
0
290
0
176
0
 90
50
176
0
 62
256
176
0
 40
1.0
176
0
 90
2
176
0
  1
strokes_ogs.tif
176
0
290
0
176
0
 40
1.0
176
0
 40
1.0
176
0
  0
VISUALSTYLE
  5
79B
102
{ACAD_REACTORS
330
78C
102
}
330
78C
100
AcDbVisualStyle
  2
Facepattern
 70
15
177
3
291
1
 70
58
 90
2
176
1
 90
2
176
1
 90
0
176
1
 90
0
176
1
 40
0.6
176
1
 40
30.0
176
1
 62
7
420
16777215
176
1
 90
1
176
1
 90
4
176
1
 62
7
176
1
 62
257
176
1
 90
1
176
1
 90
1
176
1
 40
1.0
176
1
 90
8
176
1
 62
7
176
1
 40
1.0
176
1
 90
1
176
1
 90
6
176
1
 90
2
176
1
 62
7
176
1
 90
5
176
1
 90
0
176
1
 90
0
176
1
290
0
176
1
 90
1
176
1
 40
0.0
176
1
 90
0
176
1
290
0
176
1
290
1
176
1
290
1
176
1
290
0
176
1
290
0
176
1
290
0
176
1
290
0
176
1
290
0
176
1
290
0
176
1
 90
50
176
1
 40
0.0
176
1
 40
1.0
176
1
 90
0
176
1
 62
18
420
0
176
1
 90
50
176
1
 90
3
176
1
 62
5
420
255
176
1
290
0
176
1
 90
50
176
1
 90
50
176
1
 90
50
176
1
290
0
176
1
 90
50
176
1
 62
256
176
0
 40
1.0
176
0
 90
2
176
1
  1
strokes_ogs.tif
176
1
290
0
176
1
 40
1.0
176
1
 40
1.0
176
1
  0
VISUALSTYLE
  5
78D
102
{ACAD_REACTORS
330
78C
102
}
330
78C
100
AcDbVisualStyle
  2
Flat
 70
0
177
3
291
1
 70
58
 90
2
176
1
 90
1
176
1
 90
1
176
1
 90
2
176
1
 40
0.6
176
1
 40
30.0
176
1
 62
7
420
16777215
176
1
 90
0
176
1
 90
0
176
1
 62
7
176
1
 62
257
176
1
 90
1
176
1
 90
1
176
1
 40
1.0
176
1
 90
8
176
1
 62
7
176
1
 40
1.0
176
1
 90
1
176
1
 90
6
176
1
 90
2
176
1
 62
7
176
1
 90
5
176
1
 90
0
176
1
 90
0
176
1
290
0
176
1
 90
13
176
1
 40
0.0
176
1
 90
0
176
1
290
0
176
1
290
1
176
1
290
1
176
1
290
0
176
1
290
0
176
1
290
0
176
1
290
0
176
1
290
0
176
1
290
0
176
1
 90
50
176
1
 40
0.0
176
1
 40
1.0
176
1
 90
0
176
1
 62
18
420
0
176
1
 90
50
176
1
 90
3
176
1
 62
5
420
255
176
1
290
0
176
1
 90
50
176
1
 90
50
176
1
 90
50
176
1
290
0
176
1
 90
50
176
1
 62
256
176
0
 40
1.0
176
0
 90
2
176
1
  1
strokes_ogs.tif
176
1
290
0
176
1
 40
1.0
176
1
 40
1.0
176
1
  0
VISUALSTYLE
  5
78E
102
{ACAD_REACTORS
330
78C
102
}
330
78C
100
AcDbVisualStyle
  2
FlatWithEdges
 70
1
177
3
291
1
 70
58
 90
2
176
1
 90
1
176
1
 90
1
176
1
 90
2
176
1
 40
0.6
176
1
 40
30.0
176
1
 62
7
420
16777215
176
1
 90
1
176
1
 90
0
176
1
 62
7
176
1
 62
257
176
1
 90
1
176
1
 90
1
176
1
 40
1.0
176
1
 90
0
176
1
 62
257
176
1
 40
1.0
176
1
 90
1
176
1
 90
6
176
1
 90
2
176
1
 62
7
176
1
 90
5
176
1
 90
0
176
1
 90
0
176
1
290
0
176
1
 90
13
176
1
 40
0.0
176
1
 90
0
176
1
290
0
176
1
290
1
176
1
290
1
176
1
290
0
176
1
290
0
176
1
290
0
176
1
290
0
176
1
290
0
176
1
290
0
176
1
 90
50
176
1
 40
0.0
176
1
 40
1.0
176
1
 90
0
176
1
 62
18
420
0
176
1
 90
50
176
1
 90
3
176
1
 62
5
420
255
176
1
290
0
176
1
 90
50
176
1
 90
50
176
1
 90
50
176
1
290
0
176
1
 90
50
176
1
 62
256
176
0
 40
1.0
176
0
 90
2
176
1
  1
strokes_ogs.tif
176
1
290
0
176
1
 40
1.0
176
1
 40
1.0
176
1
  0
VISUALSTYLE
  5
78F
102
{ACAD_REACTORS
330
78C
102
}
330
78C
100
AcDbVisualStyle
  2
Gouraud
 70
2
177
3
291
1
 70
58
 90
2
176
1
 90
2
176
1
 90
1
176
1
 90
2
176
1
 40
0.6
176
1
 40
30.0
176
1
 62
7
420
16777215
176
1
 90
0
176
1
 90
0
176
1
 62
7
176
1
 62
257
176
1
 90
1
176
1
 90
1
176
1
 40
1.0
176
1
 90
0
176
1
 62
7
176
1
 40
1.0
176
1
 90
1
176
1
 90
6
176
1
 90
2
176
1
 62
7
176
1
 90
5
176
1
 90
0
176
1
 90
0
176
1
290
0
176
1
 90
13
176
1
 40
0.0
176
1
 90
0
176
1
290
0
176
1
290
1
176
1
290
1
176
1
290
0
176
1
290
0
176
1
290
0
176
1
290
0
176
1
290
0
176
1
290
0
176
1
 90
50
176
1
 40
0.0
176
1
 40
1.0
176
1
 90
0
176
1
 62
18
420
0
176
1
 90
50
176
1
 90
3
176
1
 62
5
420
255
176
1
290
0
176
1
 90
50
176
1
 90
50
176
1
 90
50
176
1
290
0
176
1
 90
50
176
1
 62
256
176
0
 40
1.0
176
0
 90
2
176
1
  1
strokes_ogs.tif
176
1
290
0
176
1
 40
1.0
176
1
 40
1.0
176
1
  0
VISUALSTYLE
  5
790
102
{ACAD_REACTORS
330
78C
102
}
330
78C
100
AcDbVisualStyle
  2
GouraudWithEdges
 70
3
177
3
291
1
 70
58
 90
2
176
1
 90
2
176
1
 90
1
176
1
 90
2
176
1
 40
0.6
176
1
 40
30.0
176
1
 62
7
420
16777215
176
1
 90
1
176
1
 90
0
176
1
 62
7
176
1
 62
257
176
1
 90
1
176
1
 90
1
176
1
 40
1.0
176
1
 90
0
176
1
 62
257
176
1
 40
1.0
176
1
 90
1
176
1
 90
6
176
1
 90
2
176
1
 62
7
176
1
 90
5
176
1
 90
0
176
1
 90
0
176
1
290
0
176
1
 90
13
176
1
 40
0.0
176
1
 90
0
176
1
290
0
176
1
290
1
176
1
290
1
176
1
290
0
176
1
290
0
176
1
290
0
176
1
290
0
176
1
290
0
176
1
290
0
176
1
 90
50
176
1
 40
0.0
176
1
 40
1.0
176
1
 90
0
176
1
 62
18
420
0
176
1
 90
50
176
1
 90
3
176
1
 62
5
420
255
176
1
290
0
176
1
 90
50
176
1
 90
50
176
1
 90
50
176
1
290
0
176
1
 90
50
176
1
 62
256
176
0
 40
1.0
176
0
 90
2
176
1
  1
strokes_ogs.tif
176
1
290
0
176
1
 40
1.0
176
1
 40
1.0
176
1
  0
VISUALSTYLE
  5
793
102
{ACAD_REACTORS
330
78C
102
}
330
78C
100
AcDbVisualStyle
  2
Hidden
 70
6
177
3
291
0
 70
58
 90
1
176
1
 90
2
176
1
 90
2
176
1
 90
0
176
1
 40
0.6
176
1
 40
30.0
176
1
 62
7
420
16777215
176
1
 90
2
176
1
 90
2
176
1
 62
7
176
1
 62
257
176
1
 90
2
176
1
 90
1
176
1
 40
40.0
176
1
 90
0
176
1
 62
257
176
1
 40
1.0
176
1
 90
1
176
1
 90
6
176
1
 90
2
176
1
 62
7
176
1
 90
3
176
1
 90
0
176
1
 90
0
176
1
290
0
176
1
 90
1
176
1
 40
0.0
176
1
 90
0
176
1
290
0
176
1
290
1
176
1
290
1
176
1
290
0
176
1
290
0
176
1
290
0
176
1
290
0
176
1
290
0
176
1
290
0
176
1
 90
50
176
1
 40
0.0
176
1
 40
1.0
176
1
 90
0
176
1
 62
18
420
0
176
1
 90
50
176
1
 90
3
176
1
 62
5
420
255
176
1
290
0
176
1
 90
50
176
1
 90
50
176
1
 90
50
176
1
290
0
176
1
 90
50
176
1
 62
256
176
0
 40
1.0
176
0
 90
2
176
1
  1
strokes_ogs.tif
176
1
290
0
176
1
 40
1.0
176
1
 40
1.0
176
1
  0
VISUALSTYLE
  5
79D
102
{ACAD_REACTORS
330
78C
102
}
330
78C
100
AcDbVisualStyle
  2
JitterOff
 70
20
177
3
291
1
 70
58
 90
2
176
0
 90
2
176
0
 90
0
176
0
 90
0
176
0
 40
0.6
176
0
 40
30.0
176
0
 62
7
420
16777215
176
0
 90
1
176
0
 90
4
176
0
 62
7
176
0
 62
257
176
0
 90
1
176
0
 90
1
176
0
 40
1.0
176
0
 90
10
176
2
 62
7
176
0
 40
1.0
176
0
 90
1
176
0
 90
6
176
0
 90
2
176
0
 62
7
176
0
 90
5
176
0
 90
0
176
0
 90
0
176
0
290
0
176
0
 90
1
176
0
 40
0.0
176
0
 90
0
176
0
290
0
176
0
290
1
176
0
290
1
176
0
290
0
176
0
290
0
176
0
290
0
176
0
290
0
176
0
290
0
176
0
290
0
176
0
 90
50
176
0
 40
0.0
176
0
 40
1.0
176
0
 90
0
176
0
 62
18
420
0
176
0
 90
50
176
0
 90
3
176
0
 62
5
420
255
176
0
290
0
176
0
 90
50
176
0
 90
50
176
0
 90
50
176
0
290
0
176
0
 90
50
176
0
 62
256
176
0
 40
1.0
176
0
 90
2
176
0
  1
strokes_ogs.tif
176
0
290
0
176
0
 40
1.0
176
0
 40
1.0
176
0
  0
VISUALSTYLE
  5
79A
102
{ACAD_REACTORS
330
78C
102
}
330
78C
100
AcDbVisualStyle
  2
Linepattern
 70
14
177
3
291
1
 70
58
 90
2
176
1
 90
2
176
1
 90
0
176
1
 90
0
176
1
 40
0.6
176
1
 40
30.0
176
1
 62
7
420
16777215
176
1
 90
1
176
1
 90
4
176
1
 62
7
176
1
 62
257
176
1
 90
7
176
1
 90
7
176
1
 40
1.0
176
1
 90
8
176
1
 62
7
176
1
 40
1.0
176
1
 90
1
176
1
 90
6
176
1
 90
2
176
1
 62
7
176
1
 90
5
176
1
 90
0
176
1
 90
0
176
1
290
0
176
1
 90
1
176
1
 40
0.0
176
1
 90
0
176
1
290
0
176
1
290
1
176
1
290
1
176
1
290
0
176
1
290
0
176
1
290
0
176
1
290
0
176
1
290
0
176
1
290
0
176
1
 90
50
176
1
 40
0.0
176
1
 40
1.0
176
1
 90
0
176
1
 62
18
420
0
176
1
 90
50
176
1
 90
3
176
1
 62
5
420
255
176
1
290
0
176
1
 90
50
176
1
 90
50
176
1
 90
50
176
1
290
0
176
1
 90
50
176
1
 62
256
176
0
 40
1.0
176
0
 90
2
176
1
  1
strokes_ogs.tif
176
1
290
0
176
1
 40
1.0
176
1
 40
1.0
176
1
  0
VISUALSTYLE
  5
79E
102
{ACAD_REACTORS
330
78C
102
}
330
78C
100
AcDbVisualStyle
  2
OverhangOff
 70
21
177
3
291
1
 70
58
 90
2
176
0
 90
2
176
0
 90
0
176
0
 90
0
176
0
 40
0.6
176
0
 40
30.0
176
0
 62
7
420
16777215
176
0
 90
1
176
0
 90
4
176
0
 62
7
176
0
 62
257
176
0
 90
1
176
0
 90
1
176
0
 40
1.0
176
0
 90
9
176
2
 62
7
176
0
 40
1.0
176
0
 90
1
176
0
 90
6
176
0
 90
2
176
0
 62
7
176
0
 90
5
176
0
 90
0
176
0
 90
0
176
0
290
0
176
0
 90
1
176
0
 40
0.0
176
0
 90
0
176
0
290
0
176
0
290
1
176
0
290
1
176
0
290
0
176
0
290
0
176
0
290
0
176
0
290
0
176
0
290
0
176
0
290
0
176
0
 90
50
176
0
 40
0.0
176
0
 40
1.0
176
0
 90
0
176
0
 62
18
420
0
176
0
 90
50
176
0
 90
3
176
0
 62
5
420
255
176
0
290
0
176
0
 90
50
176
0
 90
50
176
0
 90
50
176
0
290
0
176
0
 90
50
176
0
 62
256
176
0
 40
1.0
176
0
 90
2
176
0
  1
strokes_ogs.tif
176
0
290
0
176
0
 40
1.0
176
0
 40
1.0
176
0
  0
VISUALSTYLE
  5
795
102
{ACAD_REACTORS
330
78C
102
}
330
78C
100
AcDbVisualStyle
  2
Realistic
 70
8
177
3
291
0
 70
58
 90
2
176
1
 90
3
176
1
 90
0
176
1
 90
2
176
1
 40
0.6
176
1
 40
30.0
176
1
 62
7
420
16777215
176
1
 90
0
176
1
 90
0
176
1
 62
7
176
1
 62
257
176
1
 90
1
176
1
 90
1
176
1
 40
1.0
176
1
 90
8
176
1
 62
257
176
1
 40
1.0
176
1
 90
1
176
1
 90
6
176
1
 90
2
176
1
 62
7
176
1
 90
3
176
1
 90
0
176
1
 90
0
176
1
290
0
176
1
 90
13
176
1
 40
0.0
176
1
 90
0
176
1
290
0
176
1
290
1
176
1
290
1
176
1
290
0
176
1
290
0
176
1
290
0
176
1
290
0
176
1
290
0
176
1
290
0
176
1
 90
50
176
1
 40
0.0
176
1
 40
1.0
176
1
 90
0
176
1
 62
18
420
0
176
1
 90
50
176
1
 90
3
176
1
 62
5
420
255
176
1
290
0
176
1
 90
50
176
1
 90
50
176
1
 90
50
176
1
290
0
176
1
 90
50
176
1
 62
256
176
0
 40
1.0
176
0
 90
2
176
1
  1
strokes_ogs.tif
176
1
290
0
176
1
 40
1.0
176
1
 40
1.0
176
1
  0
VISUALSTYLE
  5
7A4
102
{ACAD_REACTORS
330
78C
102
}
330
78C
100
AcDbVisualStyle
  2
Shaded
 70
27
177
3
291
0
 70
58
 90
2
176
1
 90
2
176
1
 90
1
176
1
 90
2
176
1
 40
0.6
176
1
 40
30.0
176
1
 62
7
420
16777215
176
1
 90
0
176
1
 90
4
176
1
 62
7
176
1
 62
257
176
1
 90
1
176
1
 90
1
176
1
 40
1.0
176
1
 90
8
176
1
 62
257
176
1
 40
1.0
176
1
 90
1
176
1
 90
6
176
1
 90
2
176
1
 62
8
420
7895160
176
1
 90
3
176
1
 90
0
176
1
 90
0
176
1
290
0
176
1
 90
5
176
1
 40
0.0
176
1
 90
0
176
1
290
0
176
1
290
1
176
1
290
1
176
1
290
0
176
1
290
0
176
1
290
0
176
1
290
0
176
1
290
0
176
1
290
0
176
1
 90
50
176
1
 40
0.0
176
1
 40
1.0
176
1
 90
0
176
1
 62
18
420
0
176
1
 90
50
176
1
 90
3
176
1
 62
5
420
255
176
1
290
0
176
1
 90
50
176
1
 90
50
176
1
 90
50
176
1
290
0
176
1
 90
50
176
1
 62
256
176
0
 40
1.0
176
0
 90
2
176
1
  1
strokes_ogs.tif
176
1
290
0
176
1
 40
1.0
176
1
 40
1.0
176
1
  0
VISUALSTYLE
  5
7A3
102
{ACAD_REACTORS
330
78C
102
}
330
78C
100
AcDbVisualStyle
  2
Shaded with edges
 70
26
177
3
291
0
 70
58
 90
2
176
1
 90
2
176
1
 90
1
176
1
 90
2
176
1
 40
0.6
176
1
 40
30.0
176
1
 62
7
420
16777215
176
1
 90
1
176
1
 90
10
176
1
 62
7
176
1
 62
257
176
1
 90
2
176
1
 90
1
176
1
 40
1.0
176
1
 90
8
176
1
 62
257
176
1
 40
1.0
176
1
 90
1
176
1
 90
6
176
1
 90
2
176
1
 62
7
176
1
 90
3
176
1
 90
0
176
1
 90
0
176
1
290
0
176
1
 90
5
176
1
 40
0.0
176
1
 90
0
176
1
290
0
176
1
290
1
176
1
290
1
176
1
290
0
176
1
290
0
176
1
290
0
176
1
290
0
176
1
290
0
176
1
290
0
176
1
 90
50
176
1
 40
0.0
176
1
 40
1.0
176
1
 90
0
176
1
 62
18
420
0
176
1
 90
50
176
1
 90
3
176
1
 62
5
420
255
176
1
290
0
176
1
 90
50
176
1
 90
50
176
1
 90
50
176
1
290
0
176
1
 90
50
176
1
 62
256
176
0
 40
1.0
176
0
 90
2
176
1
  1
strokes_ogs.tif
176
1
290
0
176
1
 40
1.0
176
1
 40
1.0
176
1
  0
VISUALSTYLE
  5
7A0
102
{ACAD_REACTORS
330
78C
102
}
330
78C
100
AcDbVisualStyle
  2
Shades of Gray
 70
23
177
3
291
0
 70
58
 90
2
176
1
 90
2
176
1
 90
3
176
1
 90
0
176
1
 40
0.6
176
1
 40
30.0
176
1
 62
7
420
16777215
176
1
 90
2
176
1
 90
2
176
1
 62
7
176
1
 62
7
176
1
 90
1
176
1
 90
1
176
1
 40
40.0
176
1
 90
8
176
1
 62
7
176
1
 40
1.0
176
1
 90
1
176
1
 90
6
176
1
 90
2
176
1
 62
7
176
1
 90
3
176
1
 90
0
176
1
 90
0
176
1
290
0
176
1
 90
1
176
1
 40
0.0
176
1
 90
0
176
1
290
0
176
1
290
1
176
1
290
1
176
1
290
0
176
1
290
0
176
1
290
0
176
1
290
0
176
1
290
0
176
1
290
0
176
1
 90
50
176
1
 40
0.0
176
1
 40
1.0
176
1
 90
0
176
1
 62
18
420
0
176
1
 90
50
176
1
 90
3
176
1
 62
5
420
255
176
1
290
0
176
1
 90
50
176
1
 90
50
176
1
 90
50
176
1
290
0
176
1
 90
50
176
1
 62
256
176
0
 40
1.0
176
0
 90
2
176
1
  1
strokes_ogs.tif
176
1
290
0
176
1
 40
1.0
176
1
 40
1.0
176
1
  0
VISUALSTYLE
  5
7A1
102
{ACAD_REACTORS
330
78C
102
}
330
78C
100
AcDbVisualStyle
  2
Sketchy
 70
24
177
3
291
0
 70
58
 90
1
176
1
 90
2
176
1
 90
2
176
1
 90
0
176
1
 40
0.6
176
1
 40
30.0
176
1
 62
7
420
16777215
176
1
 90
2
176
1
 90
2
176
1
 62
7
176
1
 62
7
176
1
 90
1
176
1
 90
1
176
1
 40
40.0
176
1
 90
11
176
1
 62
7
176
1
 40
1.0
176
1
 90
1
176
1
 90
6
176
1
 90
2
176
1
 62
7
176
1
 90
6
176
1
 90
0
176
1
 90
0
176
1
290
0
176
1
 90
1
176
1
 40
0.0
176
1
 90
0
176
1
290
0
176
1
290
1
176
1
290
1
176
1
290
0
176
1
290
0
176
1
290
0
176
1
290
0
176
1
290
0
176
1
290
0
176
1
 90
50
176
1
 40
0.0
176
1
 40
1.0
176
1
 90
0
176
1
 62
18
420
0
176
1
 90
50
176
1
 90
3
176
1
 62
5
420
255
176
1
290
0
176
1
 90
50
176
1
 90
50
176
1
 90
50
176
1
290
0
176
1
 90
50
176
1
 62
256
176
0
 40
1.0
176
0
 90
2
176
1
  1
strokes_ogs.tif
176
1
290
0
176
1
 40
1.0
176
1
 40
1.0
176
1
  0
VISUALSTYLE
  5
799
102
{ACAD_REACTORS
330
78C
102
}
330
78C
100
AcDbVisualStyle
  2
Thicken
 70
13
177
3
291
1
 70
58
 90
2
176
1
 90
2
176
1
 90
0
176
1
 90
0
176
1
 40
0.6
176
1
 40
30.0
176
1
 62
7
420
16777215
176
1
 90
1
176
1
 90
4
176
1
 62
7
176
1
 62
257
176
1
 90
1
176
1
 90
1
176
1
 40
1.0
176
1
 90
12
176
1
 62
7
176
1
 40
1.0
176
1
 90
1
176
1
 90
6
176
1
 90
2
176
1
 62
7
176
1
 90
5
176
1
 90
0
176
1
 90
0
176
1
290
0
176
1
 90
1
176
1
 40
0.0
176
1
 90
0
176
1
290
0
176
1
290
1
176
1
290
1
176
1
290
0
176
1
290
0
176
1
290
0
176
1
290
0
176
1
290
0
176
1
290
0
176
1
 90
50
176
1
 40
0.0
176
1
 40
1.0
176
1
 90
0
176
1
 62
18
420
0
176
1
 90
50
176
1
 90
3
176
1
 62
5
420
255
176
1
290
0
176
1
 90
50
176
1
 90
50
176
1
 90
50
176
1
290
0
176
1
 90
50
176
1
 62
256
176
0
 40
1.0
176
0
 90
2
176
1
  1
strokes_ogs.tif
176
1
290
0
176
1
 40
1.0
176
1
 40
1.0
176
1
  0
VISUALSTYLE
  5
792
102
{ACAD_REACTORS
330
78C
102
}
330
78C
100
AcDbVisualStyle
  2
Wireframe
 70
5
177
3
291
0
 70
58
 90
0
176
1
 90
2
176
1
 90
0
176
1
 90
0
176
1
 40
0.6
176
1
 40
30.0
176
1
 62
7
420
16777215
176
1
 90
1
176
1
 90
4
176
1
 62
7
176
1
 62
257
176
1
 90
1
176
1
 90
1
176
1
 40
1.0
176
1
 90
0
176
1
 62
257
176
1
 40
1.0
176
1
 90
1
176
1
 90
6
176
1
 90
2
176
1
 62
7
176
1
 90
3
176
1
 90
0
176
1
 90
0
176
1
290
0
176
1
 90
1
176
1
 40
0.0
176
1
 90
0
176
1
290
0
176
1
290
1
176
1
290
1
176
1
290
0
176
1
290
0
176
1
290
0
176
1
290
0
176
1
290
0
176
1
290
0
176
1
 90
50
176
1
 40
0.0
176
1
 40
1.0
176
1
 90
0
176
1
 62
18
420
0
176
1
 90
50
176
1
 90
3
176
1
 62
5
420
255
176
1
290
0
176
1
 90
50
176
1
 90
50
176
1
 90
50
176
1
290
0
176
1
 90
50
176
1
 62
256
176
0
 40
1.0
176
0
 90
2
176
1
  1
strokes_ogs.tif
176
1
290
0
176
1
 40
1.0
176
1
 40
1.0
176
1
  0
VISUALSTYLE
  5
7A2
102
{ACAD_REACTORS
330
78C
102
}
330
78C
100
AcDbVisualStyle
  2
X-Ray
 70
25
177
3
291
0
 70
58
 90
2
176
1
 90
2
176
1
 90
1
176
1
 90
1
176
1
 40
0.5
176
1
 40
30.0
176
1
 62
7
420
16777215
176
1
 90
1
176
1
 90
0
176
1
 62
7
176
1
 62
257
176
1
 90
1
176
1
 90
1
176
1
 40
1.0
176
1
 90
8
176
1
 62
7
176
1
 40
1.0
176
1
 90
1
176
1
 90
6
176
1
 90
2
176
1
 62
7
176
1
 90
3
176
1
 90
0
176
1
 90
0
176
1
290
0
176
1
 90
13
176
1
 40
0.0
176
1
 90
0
176
1
290
0
176
1
290
1
176
1
290
1
176
1
290
0
176
1
290
0
176
1
290
0
176
1
290
0
176
1
290
0
176
1
290
0
176
1
 90
50
176
1
 40
0.0
176
1
 40
1.0
176
1
 90
0
176
1
 62
18
420
0
176
1
 90
50
176
1
 90
3
176
1
 62
5
420
255
176
1
290
0
176
1
 90
50
176
1
 90
50
176
1
 90
50
176
1
290
0
176
1
 90
50
176
1
 62
256
176
0
 40
1.0
176
0
 90
2
176
1
  1
strokes_ogs.tif
176
1
290
0
176
1
 40
1.0
176
1
 40
1.0
176
1
  0
DICTIONARYVAR
  5
7AE
102
{ACAD_REACTORS
330
7AD
102
}
330
7AD
100
DictionaryVariables
280
0
  1
1:1
  0
DICTIONARYVAR
  5
7B3
102
{ACAD_REACTORS
330
7AD
102
}
330
7AD
100
DictionaryVariables
280
0
  1
Standard
  0
DICTIONARYVAR
  5
7B2
102
{ACAD_REACTORS
330
7AD
102
}
330
7AD
100
DictionaryVariables
280
0
  1
Standard
  0
DICTIONARYVAR
  5
7B4
102
{ACAD_REACTORS
330
7AD
102
}
330
7AD
100
DictionaryVariables
280
0
  1
0
  0
DICTIONARY
  5
7AF
330
7AA
100
AcDbDictionary
280
1
281
1
  3
ACAD_ROUNDTRIP_2008_TABLESTYLE_CELLSTYLEMAP
360
7B0
  0
CELLSTYLEMAP
  5
7B0
102
{ACAD_REACTORS
330
7AF
102
}
330
7AF
100
AcDbCellStyleMap
 90
3
300
CELLSTYLE
  1
TABLEFORMAT_BEGIN
 90
5
170
1
 91
0
 92
32768
 62
257
 93
1
300
CONTENTFORMAT
  1
CONTENTFORMAT_BEGIN
 90
0
 91
0
 92
4
 93
0
300

 40
0.0
140
1.0
 94
5
 62
0
340
11
144
6.0
309
CONTENTFORMAT_END
171
1
301
MARGIN
  1
CELLMARGIN_BEGIN
 40
1.5
 40
1.5
 40
1.5
 40
1.5
 40
1.5
 40
1.5
309
CELLMARGIN_END
 94
6
 95
1
302
GRIDFORMAT
  1
GRIDFORMAT_BEGIN
 90
0
 91
1
 62
0
 92
-2
340
14
 93
0
 40
0.045
309
GRIDFORMAT_END
 95
2
302
GRIDFORMAT
  1
GRIDFORMAT_BEGIN
 90
0
 91
1
 62
0
 92
-2
340
14
 93
0
 40
0.045
309
GRIDFORMAT_END
 95
4
302
GRIDFORMAT
  1
GRIDFORMAT_BEGIN
 90
0
 91
1
 62
0
 92
-2
340
14
 93
0
 40
0.045
309
GRIDFORMAT_END
 95
8
302
GRIDFORMAT
  1
GRIDFORMAT_BEGIN
 90
0
 91
1
 62
0
 92
-2
340
14
 93
0
 40
0.045
309
GRIDFORMAT_END
 95
16
302
GRIDFORMAT
  1
GRIDFORMAT_BEGIN
 90
0
 91
1
 62
0
 92
-2
340
14
 93
0
 40
0.045
309
GRIDFORMAT_END
 95
32
302
GRIDFORMAT
  1
GRIDFORMAT_BEGIN
 90
0
 91
1
 62
0
 92
-2
340
14
 93
0
 40
0.045
309
GRIDFORMAT_END
309
TABLEFORMAT_END
  1
CELLSTYLE_BEGIN
 90
1
 91
1
300
_TITLE
309
CELLSTYLE_END
300
CELLSTYLE
  1
TABLEFORMAT_BEGIN
 90
5
170
1
 91
0
 92
0
 62
257
 93
1
300
CONTENTFORMAT
  1
CONTENTFORMAT_BEGIN
 90
0
 91
0
 92
4
 93
0
300

 40
0.0
140
1.0
 94
5
 62
0
340
11
144
4.5
309
CONTENTFORMAT_END
171
1
301
MARGIN
  1
CELLMARGIN_BEGIN
 40
1.5
 40
1.5
 40
1.5
 40
1.5
 40
1.5
 40
1.5
309
CELLMARGIN_END
 94
6
 95
1
302
GRIDFORMAT
  1
GRIDFORMAT_BEGIN
 90
0
 91
1
 62
0
 92
-2
340
14
 93
0
 40
0.045
309
GRIDFORMAT_END
 95
2
302
GRIDFORMAT
  1
GRIDFORMAT_BEGIN
 90
0
 91
1
 62
0
 92
-2
340
14
 93
0
 40
0.045
309
GRIDFORMAT_END
 95
4
302
GRIDFORMAT
  1
GRIDFORMAT_BEGIN
 90
0
 91
1
 62
0
 92
-2
340
14
 93
0
 40
0.045
309
GRIDFORMAT_END
 95
8
302
GRIDFORMAT
  1
GRIDFORMAT_BEGIN
 90
0
 91
1
 62
0
 92
-2
340
14
 93
0
 40
0.045
309
GRIDFORMAT_END
 95
16
302
GRIDFORMAT
  1
GRIDFORMAT_BEGIN
 90
0
 91
1
 62
0
 92
-2
340
14
 93
0
 40
0.045
309
GRIDFORMAT_END
 95
32
302
GRIDFORMAT
  1
GRIDFORMAT_BEGIN
 90
0
 91
1
 62
0
 92
-2
340
14
 93
0
 40
0.045
309
GRIDFORMAT_END
309
TABLEFORMAT_END
  1
CELLSTYLE_BEGIN
 90
2
 91
1
300
_HEADER
309
CELLSTYLE_END
300
CELLSTYLE
  1
TABLEFORMAT_BEGIN
 90
5
170
1
 91
0
 92
0
 62
257
 93
1
300
CONTENTFORMAT
  1
CONTENTFORMAT_BEGIN
 90
0
 91
0
 92
4
 93
0
300

 40
0.0
140
1.0
 94
2
 62
0
340
11
144
4.5
309
CONTENTFORMAT_END
171
1
301
MARGIN
  1
CELLMARGIN_BEGIN
 40
1.5
 40
1.5
 40
1.5
 40
1.5
 40
1.5
 40
1.5
309
CELLMARGIN_END
 94
6
 95
1
302
GRIDFORMAT
  1
GRIDFORMAT_BEGIN
 90
0
 91
1
 62
0
 92
-2
340
14
 93
0
 40
0.045
309
GRIDFORMAT_END
 95
2
302
GRIDFORMAT
  1
GRIDFORMAT_BEGIN
 90
0
 91
1
 62
0
 92
-2
340
14
 93
0
 40
0.045
309
GRIDFORMAT_END
 95
4
302
GRIDFORMAT
  1
GRIDFORMAT_BEGIN
 90
0
 91
1
 62
0
 92
-2
340
14
 93
0
 40
0.045
309
GRIDFORMAT_END
 95
8
302
GRIDFORMAT
  1
GRIDFORMAT_BEGIN
 90
0
 91
1
 62
0
 92
-2
340
14
 93
0
 40
0.045
309
GRIDFORMAT_END
 95
16
302
GRIDFORMAT
  1
GRIDFORMAT_BEGIN
 90
0
 91
1
 62
0
 92
-2
340
14
 93
0
 40
0.045
309
GRIDFORMAT_END
 95
32
302
GRIDFORMAT
  1
GRIDFORMAT_BEGIN
 90
0
 91
1
 62
0
 92
-2
340
14
 93
0
 40
0.045
309
GRIDFORMAT_END
309
TABLEFORMAT_END
  1
CELLSTYLE_BEGIN
 90
3
 91
2
300
_DATA
309
CELLSTYLE_END
  0
DICTIONARY
  5
7B7
330
C
100
AcDbDictionary
281
1
  0
DICTIONARY
  5
7BC
330
C
100
AcDbDictionary
280
1
281
1
  3
WRITTEN_BY_EZDXF
350
7BD
  0
DICTIONARYVAR
  5
7BD
330
7BC
100
DictionaryVariables
280
0
  1
1.4.3 @ 2025-12-17T10:21:10.626161+00:00
  0
ENDSEC
  0
EOF
