  0
SECTION
  2
HEADER
  9
$ACADVER
  1
AC1032
  9
$ACADMAINTVER
 90
       55
  9
$DWGCODEPAGE
  3
ANSI_1252
  9
$LASTSAVEDBY
  1
cipulot
  9
$REQUIREDVERSIONS
160
                 0
  9
$INSBASE
 10
0.0
 20
0.0
 30
0.0
  9
$EXTMIN
 10
1.000000000000000E+20
 20
1.000000000000000E+20
 30
1.000000000000000E+20
  9
$EXTMAX
 10
-1.000000000000000E+20
 20
-1.000000000000000E+20
 30
-1.000000000000000E+20
  9
$LIMMIN
 10
0.0
 20
0.0
  9
$LIMMAX
 10
12.0
 20
9.0
  9
$ORTHOMODE
 70
     0
  9
$REGENMODE
 70
     1
  9
$FILLMODE
 70
     1
  9
$QTEXTMODE
 70
     0
  9
$MIRRTEXT
 70
     1
  9
$LTSCALE
 40
1.0
  9
$ATTMODE
 70
     1
  9
$TEXTSIZE
 40
0.2
  9
$TRACEWID
 40
0.05
  9
$TEXTSTYLE
  7
Standard
  9
$CLAYER
  8
0
  9
$CELTYPE
  6
ByBlock
  9
$CECOLOR
 62
   256
  9
$CELTSCALE
 40
1.0
  9
$DISPSILH
 70
     0
  9
$DIMSCALE
 40
1.0
  9
$DIMASZ
 40
0.18
  9
$DIMEXO
 40
0.0625
  9
$DIMDLI
 40
0.38
  9
$DIMRND
 40
0.0
  9
$DIMDLE
 40
0.0
  9
$DIMEXE
 40
0.18
  9
$DIMTP
 40
0.0
  9
$DIMTM
 40
0.0
  9
$DIMTXT
 40
0.18
  9
$DIMCEN
 40
0.09
  9
$DIMTSZ
 40
0.0
  9
$DIMTOL
 70
     0
  9
$DIMLIM
 70
     0
  9
$DIMTIH
 70
     1
  9
$DIMTOH
 70
     1
  9
$DIMSE1
 70
     0
  9
$DIMSE2
 70
     0
  9
$DIMTAD
 70
     0
  9
$DIMZIN
 70
     0
  9
$DIMBLK
  1

  9
$DIMASO
 70
     1
  9
$DIMSHO
 70
     1
  9
$DIMPOST
  1

  9
$DIMAPOST
  1

  9
$DIMALT
 70
     0
  9
$DIMALTD
 70
     2
  9
$DIMALTF
 40
25.4
  9
$DIMLFAC
 40
1.0
  9
$DIMTOFL
 70
     0
  9
$DIMTVP
 40
0.0
  9
$DIMTIX
 70
     0
  9
$DIMSOXD
 70
     0
  9
$DIMSAH
 70
     0
  9
$DIMBLK1
  1

  9
$DIMBLK2
  1

  9
$DIMSTYLE
  2
ISO-25
  9
$DIMCLRD
 70
     0
  9
$DIMCLRE
 70
     0
  9
$DIMCLRT
 70
     0
  9
$DIMTFAC
 40
1.0
  9
$DIMGAP
 40
0.09
  9
$DIMJUST
 70
     0
  9
$DIMSD1
 70
     0
  9
$DIMSD2
 70
     0
  9
$DIMTOLJ
 70
     1
  9
$DIMTZIN
 70
     0
  9
$DIMALTZ
 70
     0
  9
$DIMALTTZ
 70
     0
  9
$DIMUPT
 70
     0
  9
$DIMDEC
 70
     4
  9
$DIMTDEC
 70
     4
  9
$DIMALTU
 70
     2
  9
$DIMALTTD
 70
     2
  9
$DIMTXSTY
  7
Standard
  9
$DIMAUNIT
 70
     0
  9
$DIMADEC
 70
     0
  9
$DIMALTRND
 40
0.0
  9
$DIMAZIN
 70
     0
  9
$DIMDSEP
 70
    46
  9
$DIMATFIT
 70
     3
  9
$DIMFRAC
 70
     0
  9
$DIMLDRBLK
  1

  9
$DIMLUNIT
 70
     2
  9
$DIMLWD
 70
    -2
  9
$DIMLWE
 70
    -2
  9
$DIMTMOVE
 70
     2
  9
$DIMFXL
 40
1.0
  9
$DIMFXLON
 70
     0
  9
$DIMJOGANG
 40
0.7853981633974483
  9
$DIMTFILL
 70
     0
  9
$DIMTFILLCLR
 70
     0
  9
$DIMARCSYM
 70
     0
  9
$DIMLTYPE
  6

  9
$DIMLTEX1
  6

  9
$DIMLTEX2
  6

  9
$DIMTXTDIRECTION
 70
     0
  9
$LUNITS
 70
     2
  9
$LUPREC
 70
     4
  9
$SKETCHINC
 40
0.1
  9
$FILLETRAD
 40
0.0
  9
$AUNITS
 70
     0
  9
$AUPREC
 70
     0
  9
$MENU
  1
.
  9
$ELEVATION
 40
0.0
  9
$PELEVATION
 40
0.0
  9
$THICKNESS
 40
0.0
  9
$LIMCHECK
 70
     0
  9
$CHAMFERA
 40
0.0
  9
$CHAMFERB
 40
0.0
  9
$CHAMFERC
 40
0.0
  9
$CHAMFERD
 40
0.0
  9
$SKPOLY
 70
     0
  9
$TDCREATE
 40
2460883.841817026
  9
$TDUCREATE
 40
2460883.800150359
  9
$TDUPDATE
 40
2460883.842488831
  9
$TDUUPDATE
 40
2460883.800822165
  9
$TDINDWG
 40
0.0000000116
  9
$TDUSRTIMER
 40
0.0000000116
  9
$USRTIMER
 70
     1
  9
$ANGBASE
 50
0.0
  9
$ANGDIR
 70
     1
  9
$PDMODE
 70
     0
  9
$PDSIZE
 40
0.0
  9
$PLINEWID
 40
0.0
  9
$SPLFRAME
 70
     0
  9
$SPLINETYPE
 70
     6
  9
$SPLINESEGS
 70
     8
  9
$HANDSEED
  5
762
  9
$SURFTAB1
 70
     6
  9
$SURFTAB2
 70
     6
  9
$SURFTYPE
 70
     6
  9
$SURFU
 70
     6
  9
$SURFV
 70
     6
  9
$UCSBASE
  2

  9
$UCSNAME
  2

  9
$UCSORG
 10
0.0
 20
0.0
 30
0.0
  9
$UCSXDIR
 10
1.0
 20
0.0
 30
0.0
  9
$UCSYDIR
 10
0.0
 20
1.0
 30
0.0
  9
$UCSORTHOREF
  2

  9
$UCSORTHOVIEW
 70
     0
  9
$UCSORGTOP
 10
0.0
 20
0.0
 30
0.0
  9
$UCSORGBOTTOM
 10
0.0
 20
0.0
 30
0.0
  9
$UCSORGLEFT
 10
0.0
 20
0.0
 30
0.0
  9
$UCSORGRIGHT
 10
0.0
 20
0.0
 30
0.0
  9
$UCSORGFRONT
 10
0.0
 20
0.0
 30
0.0
  9
$UCSORGBACK
 10
0.0
 20
0.0
 30
0.0
  9
$PUCSBASE
  2

  9
$PUCSNAME
  2

  9
$PUCSORG
 10
0.0
 20
0.0
 30
0.0
  9
$PUCSXDIR
 10
1.0
 20
0.0
 30
0.0
  9
$PUCSYDIR
 10
0.0
 20
1.0
 30
0.0
  9
$PUCSORTHOREF
  2

  9
$PUCSORTHOVIEW
 70
     0
  9
$PUCSORGTOP
 10
0.0
 20
0.0
 30
0.0
  9
$PUCSORGBOTTOM
 10
0.0
 20
0.0
 30
0.0
  9
$PUCSORGLEFT
 10
0.0
 20
0.0
 30
0.0
  9
$PUCSORGRIGHT
 10
0.0
 20
0.0
 30
0.0
  9
$PUCSORGFRONT
 10
0.0
 20
0.0
 30
0.0
  9
$PUCSORGBACK
 10
0.0
 20
0.0
 30
0.0
  9
$USERI1
 70
     0
  9
$USERI2
 70
     0
  9
$USERI3
 70
     0
  9
$USERI4
 70
     0
  9
$USERI5
 70
     0
  9
$USERR1
 40
0.0
  9
$USERR2
 40
0.0
  9
$USERR3
 40
0.0
  9
$USERR4
 40
0.0
  9
$USERR5
 40
0.0
  9
$WORLDVIEW
 70
     1
  9
$SHADEDGE
 70
     3
  9
$SHADEDIF
 70
    70
  9
$TILEMODE
 70
     1
  9
$MAXACTVP
 70
    64
  9
$PINSBASE
 10
0.0
 20
0.0
 30
0.0
  9
$PLIMCHECK
 70
     0
  9
$PEXTMIN
 10
1.000000000000000E+20
 20
1.000000000000000E+20
 30
1.000000000000000E+20
  9
$PEXTMAX
 10
-1.000000000000000E+20
 20
-1.000000000000000E+20
 30
-1.000000000000000E+20
  9
$PLIMMIN
 10
0.0
 20
0.0
  9
$PLIMMAX
 10
12.0
 20
9.0
  9
$UNITMODE
 70
     0
  9
$VISRETAIN
 70
     1
  9
$PLINEGEN
 70
     0
  9
$PSLTSCALE
 70
     1
  9
$TREEDEPTH
 70
  3020
  9
$CMLSTYLE
  2
Standard
  9
$CMLJUST
 70
     0
  9
$CMLSCALE
 40
1.0
  9
$PROXYGRAPHICS
 70
     1
  9
$MEASUREMENT
 70
     1
  9
$CELWEIGHT
370
    -1
  9
$ENDCAPS
280
     0
  9
$JOINSTYLE
280
     0
  9
$LWDISPLAY
290
     0
  9
$INSUNITS
 70
     0
  9
$HYPERLINKBASE
  1

  9
$STYLESHEET
  1

  9
$XEDIT
290
     1
  9
$CEPSNTYPE
380
     0
  9
$PSTYLEMODE
290
     1
  9
$FINGERPRINTGUID
  2
{943acd51-9050-1841-a575-94e115aba1a9}
  9
$VERSIONGUID
  2
{7F9C3A4A-4611-4CF8-B521-F4A38B835D26}
  9
$EXTNAMES
290
     1
  9
$PSVPSCALE
 40
0.0
  9
$OLESTARTUP
290
     0
  9
$SORTENTS
280
   127
  9
$INDEXCTL
280
     0
  9
$HIDETEXT
280
     1
  9
$XCLIPFRAME
280
     2
  9
$HALOGAP
280
     0
  9
$OBSCOLOR
 70
   257
  9
$OBSLTYPE
280
     0
  9
$INTERSECTIONDISPLAY
280
     0
  9
$INTERSECTIONCOLOR
 70
   257
  9
$DIMASSOC
280
     2
  9
$PROJECTNAME
  1

  9
$CAMERADISPLAY
290
     0
  9
$LENSLENGTH
 40
50.0
  9
$CAMERAHEIGHT
 40
0.0
  9
$STEPSPERSEC
 40
2.0
  9
$STEPSIZE
 40
6.0
  9
$3DDWFPREC
 40
2.0
  9
$PSOLWIDTH
 40
0.25
  9
$PSOLHEIGHT
 40
4.0
  9
$LOFTANG1
 40
1.570796326794897
  9
$LOFTANG2
 40
1.570796326794897
  9
$LOFTMAG1
 40
0.0
  9
$LOFTMAG2
 40
0.0
  9
$LOFTPARAM
 70
     7
  9
$LOFTNORMALS
280
     1
  9
$LATITUDE
 40
37.795
  9
$LONGITUDE
 40
-122.394
  9
$NORTHDIRECTION
 40
0.0
  9
$TIMEZONE
 70
 -8000
  9
$LIGHTGLYPHDISPLAY
280
     1
  9
$TILEMODELIGHTSYNCH
280
     1
  9
$CMATERIAL
347
6E9
  9
$SOLIDHIST
280
     0
  9
$SHOWHIST
280
     1
  9
$DWFFRAME
280
     2
  9
$DGNFRAME
280
     2
  9
$REALWORLDSCALE
290
     1
  9
$INTERFERECOLOR
 62
   256
  9
$CSHADOW
280
     0
  9
$SHADOWPLANELOCATION
 40
0.0
  0
ENDSEC
  0
SECTION
  2
CLASSES
  0
CLASS
  1
ACDBDICTIONARYWDFLT
  2
AcDbDictionaryWithDefault
  3
ObjectDBX Classes
 90
        0
 91
        3
280
     0
281
     0
  0
CLASS
  1
SCALE
  2
AcDbScale
  3
ObjectDBX Classes
 90
     1153
 91
        3
280
     0
281
     0
  0
CLASS
  1
VISUALSTYLE
  2
AcDbVisualStyle
  3
ObjectDBX Classes
 90
     4095
 91
        3
280
     0
281
     0
  0
CLASS
  1
MATERIAL
  2
AcDbMaterial
  3
ObjectDBX Classes
 90
     1153
 91
        3
280
     0
281
     0
  0
CLASS
  1
TABLESTYLE
  2
AcDbTableStyle
  3
ObjectDBX Classes
 90
     4095
 91
        3
280
     0
281
     0
  0
CLASS
  1
MLEADERSTYLE
  2
AcDbMLeaderStyle
  3
ACDB_MLEADERSTYLE_CLASS
 90
     4095
 91
        3
280
     0
281
     0
  0
CLASS
  1
DICTIONARYVAR
  2
AcDbDictionaryVar
  3
ObjectDBX Classes
 90
        0
 91
        3
280
     0
281
     0
  0
CLASS
  1
CELLSTYLEMAP
  2
AcDbCellStyleMap
  3
ObjectDBX Classes
 90
     1152
 91
        3
280
     0
281
     0
  0
CLASS
  1
SUN
  2
AcDbSun
  3
SCENEOE
 90
     1153
 91
        3
280
     0
281
     0
  0
CLASS
  1
MENTALRAYRENDERSETTINGS
  2
AcDbMentalRayRenderSettings
  3
SCENEOE
 90
     1024
 91
        3
280
     0
281
     0
  0
CLASS
  1
ACDBDETAILVIEWSTYLE
  2
AcDbDetailViewStyle
  3
ObjectDBX Classes
 90
     1025
 91
        3
280
     0
281
     0
  0
CLASS
  1
ACDBSECTIONVIEWSTYLE
  2
AcDbSectionViewStyle
  3
ObjectDBX Classes
 90
     1025
 91
        3
280
     0
281
     0
  0
CLASS
  1
RASTERVARIABLES
  2
AcDbRasterVariables
  3
ISM
 90
        0
 91
        3
280
     0
281
     0
  0
CLASS
  1
LAYOUT
  2
AcDbLayout
  3
ObjectDBX Classes
 90
        0
 91
        1
280
     0
281
     0
  0
CLASS
  1
ACDBPLACEHOLDER
  2
AcDbPlaceHolder
  3
ObjectDBX Classes
 90
        0
 91
        1
280
     0
281
     0
  0
ENDSEC
  0
SECTION
  2
TABLES
  0
TABLE
  2
VPORT
  5
8
330
0
100
AcDbSymbolTable
 70
     1
  0
VPORT
  5
442
330
8
100
AcDbSymbolTableRecord
100
AcDbViewportTableRecord
  2
*Active
 70
     0
 10
0.0
 20
0.0
 11
1.0
 21
1.0
 12
344.1869158878504
 22
148.5
 13
0.0
 23
0.0
 14
10.0
 24
10.0
 15
10.0
 25
10.0
 16
0.0
 26
0.0
 36
1.0
 17
0.0
 27
0.0
 37
0.0
 40
297.0
 41
1.972972972850329
 42
50.0
 43
0.0
 44
0.0
 50
0.0
 51
0.0
 71
     0
 72
   100
 73
     1
 74
     3
 75
     0
 76
     0
 77
     0
 78
     0
281
     0
 65
     1
110
0.0
120
0.0
130
0.0
111
1.0
121
0.0
131
0.0
112
0.0
122
1.0
132
0.0
 79
     0
146
0.0
348
6D4
 60
     3
 61
     5
292
     1
282
     1
141
0.0
142
0.0
 63
   250
  0
ENDTAB
  0
TABLE
  2
LTYPE
  5
5
330
0
100
AcDbSymbolTable
 70
     4
  0
LTYPE
  5
14
330
5
100
AcDbSymbolTableRecord
100
AcDbLinetypeTableRecord
  2
ByBlock
 70
     0
  3

 72
    65
 73
     0
 40
0.0
  0
LTYPE
  5
15
330
5
100
AcDbSymbolTableRecord
100
AcDbLinetypeTableRecord
  2
ByLayer
 70
     0
  3

 72
    65
 73
     0
 40
0.0
  0
LTYPE
  5
16
330
5
100
AcDbSymbolTableRecord
100
AcDbLinetypeTableRecord
  2
CONTINUOUS
 70
     0
  3
Solid line
 72
    65
 73
     0
 40
0.0
  0
LTYPE
  5
410
330
5
100
AcDbSymbolTableRecord
100
AcDbLinetypeTableRecord
  2
DASHDOT
 70
     0
  3
Dash Dot ____ _ ____ _
 72
    65
 73
     4
 40
2.0
 49
1.25
 74
     0
 49
-0.25
 74
     0
 49
0.25
 74
     0
 49
-0.25
 74
     0
  0
LTYPE
  5
411
330
5
100
AcDbSymbolTableRecord
100
AcDbLinetypeTableRecord
  2
DASHED
 70
     0
  3
Dashed __ __ __ __ __
 72
    65
 73
     2
 40
0.75
 49
0.5
 74
     0
 49
-0.25
 74
     0
  0
LTYPE
  5
43B
330
5
100
AcDbSymbolTableRecord
100
AcDbLinetypeTableRecord
  2
DOTTED
 70
     0
  3
Dotted .  .  .  .
 72
    65
 73
     2
 40
0.2
 49
0.0
 74
     0
 49
-0.2
 74
     0
  0
ENDTAB
  0
TABLE
  2
LAYER
  5
2
330
0
100
AcDbSymbolTable
 70
     3
  0
LAYER
  5
10
330
2
100
AcDbSymbolTableRecord
100
AcDbLayerTableRecord
  2
0
 70
     0
 62
     7
  6
CONTINUOUS
370
    -3
390
F
347
6EB
348
0
  0
LAYER
  5
440
330
2
100
AcDbSymbolTableRecord
100
AcDbLayerTableRecord
  2
BLACK
 70
     0
 62
     7
  6
CONTINUOUS
370
    -3
390
F
347
6EB
348
0
  0
LAYER
  5
6FB
330
2
100
AcDbSymbolTableRecord
100
AcDbLayerTableRecord
  2
Defpoints
 70
     0
 62
     7
  6
CONTINUOUS
290
     0
370
    -3
390
F
347
6EB
348
0
  0
ENDTAB
  0
TABLE
  2
STYLE
  5
3
330
0
100
AcDbSymbolTable
 70
     5
  0
STYLE
  5
11
330
3
100
AcDbSymbolTableRecord
100
AcDbTextStyleTableRecord
  2
Standard
 70
     0
 40
0.0
 41
1.0
 50
0.0
 71
     0
 42
0.2
  3
txt
  4

  0
STYLE
  5
43C
330
3
100
AcDbSymbolTableRecord
100
AcDbTextStyleTableRecord
  2
KICAD
 70
     0
 40
0.0
 41
1.0
 50
0.0
 71
     0
 42
1.0
  3
isocp.shx
  4

  0
STYLE
  5
43D
330
3
100
AcDbSymbolTableRecord
100
AcDbTextStyleTableRecord
  2
KICADB
 70
     0
 40
0.0
 41
1.0
 50
0.0
 71
     0
 42
1.0
  3
isocp.shx
  4

  0
STYLE
  5
43E
330
3
100
AcDbSymbolTableRecord
100
AcDbTextStyleTableRecord
  2
KICADI
 70
     0
 40
0.0
 41
1.0
 50
15.0
 71
     0
 42
1.0
  3
isocp.shx
  4

  0
STYLE
  5
43F
330
3
100
AcDbSymbolTableRecord
100
AcDbTextStyleTableRecord
  2
KICADBI
 70
     0
 40
0.0
 41
1.0
 50
15.0
 71
     0
 42
1.0
  3
isocp.shx
  4

  0
ENDTAB
  0
TABLE
  2
VIEW
  5
6
330
0
100
AcDbSymbolTable
 70
     0
  0
ENDTAB
  0
TABLE
  2
UCS
  5
7
330
0
100
AcDbSymbolTable
 70
     0
  0
ENDTAB
  0
TABLE
  2
APPID
  5
9
330
0
100
AcDbSymbolTable
 70
     3
  0
APPID
  5
12
330
9
100
AcDbSymbolTableRecord
100
AcDbRegAppTableRecord
  2
ACAD
 70
     0
  0
APPID
  5
707
330
9
100
AcDbSymbolTableRecord
100
AcDbRegAppTableRecord
  2
HATCHBACKGROUNDCOLOR
 70
     0
  0
APPID
  5
708
330
9
100
AcDbSymbolTableRecord
100
AcDbRegAppTableRecord
  2
EZDXF
 70
     0
  0
ENDTAB
  0
TABLE
  2
DIMSTYLE
  5
A
330
0
100
AcDbSymbolTable
 70
     2
100
AcDbDimStyleTable
  0
DIMSTYLE
105
441
330
A
100
AcDbSymbolTableRecord
100
AcDbDimStyleTableRecord
  2
ISO-25
 70
     0
 41
2.5
 42
0.625
 43
3.75
 44
1.25
 49
2.5
 73
     0
 74
     0
 77
     1
 78
     8
 79
     3
140
2.5
141
2.5
143
0.03937007874016
147
0.625
171
     3
172
     1
178
     0
179
     2
271
     2
272
     2
274
     3
278
    44
283
     0
284
     8
340
11
  0
DIMSTYLE
105
6FC
330
A
100
AcDbSymbolTableRecord
100
AcDbDimStyleTableRecord
  2
Standard
 70
     0
 41
2.5
 42
0.625
 43
3.75
 44
1.25
 49
2.5
 73
     0
 74
     0
 77
     1
 78
     8
 79
     3
140
2.5
141
2.5
143
0.03937007874
147
0.625
171
     3
172
     1
178
     0
179
     2
271
     2
272
     2
274
     3
278
    44
283
     0
284
     8
340
11
  0
ENDTAB
  0
TABLE
  2
BLOCK_RECORD
  5
1
330
0
100
AcDbSymbolTable
 70
     0
  0
BLOCK_RECORD
  5
1D
330
1
100
AcDbSymbolTableRecord
100
AcDbBlockTableRecord
  2
*Model_Space
340
1E
 70
     0
280
     1
281
     0
  0
BLOCK_RECORD
  5
1B
330
1
100
AcDbSymbolTableRecord
100
AcDbBlockTableRecord
  2
*Paper_Space
340
1C
 70
     0
280
     1
281
     0
  0
ENDTAB
  0
ENDSEC
  0
SECTION
  2
BLOCKS
  0
BLOCK
  5
6CB
330
1D
100
AcDbEntity
  8
0
100
AcDbBlockBegin
  2
*Model_Space
 70
     0
 10
0.0
 20
0.0
 30
0.0
  3
*Model_Space
  1

  0
ENDBLK
  5
6CC
330
1D
100
AcDbEntity
  8
0
100
AcDbBlockEnd
  0
BLOCK
  5
6CD
330
1B
100
AcDbEntity
 67
     1
  8
0
100
AcDbBlockBegin
  2
*Paper_Space
 70
     0
 10
0.0
 20
0.0
 30
0.0
  3
*Paper_Space
  1

  0
ENDBLK
  5
6CE
330
1B
100
AcDbEntity
 67
     1
  8
0
100
AcDbBlockEnd
  0
ENDSEC
  0
SECTION
  2
ENTITIES
  0
LINE
  5
443
330
1D
100
AcDbEntity
  8
BLACK
  6
Continuous
100
AcDbLine
 10
194.429538
 20
-0.507496
 30
0.0
 11
194.429534
 21
-0.5074759999999999
 31
0.0
  0
LINE
  5
444
330
1D
100
AcDbEntity
  8
BLACK
  6
Continuous
100
AcDbLine
 10
89.70185599999999
 20
0.880127
 30
0.0
 11
89.70188399999999
 21
0.8801209999999999
 31
0.0
  0
LINE
  5
445
330
1D
100
AcDbEntity
  8
BLACK
  6
Continuous
100
AcDbLine
 10
72.718141
 20
-8.800125999999999
 30
0.0
 11
72.718114
 21
-8.80012
 31
0.0
  0
LINE
  5
446
330
1D
100
AcDbEntity
  8
BLACK
  6
Continuous
100
AcDbLine
 10
94.647776
 20
0.340066
 30
0.0
 11
94.64778199999999
 21
0.340095
 31
0.0
  0
LINE
  5
447
330
1D
100
AcDbEntity
  8
BLACK
  6
Continuous
100
AcDbLine
 10
192.329538
 20
-59.377496
 30
0.0
 11
192.329534
 21
-59.37747599999999
 31
0.0
  0
LINE
  5
448
330
1D
100
AcDbEntity
  8
BLACK
  6
Continuous
100
AcDbLine
 10
189.069538
 20
-21.117496
 30
0.0
 11
189.069534
 21
-21.117476
 31
0.0
  0
LINE
  5
449
330
1D
100
AcDbEntity
  8
BLACK
  6
Continuous
100
AcDbLine
 10
197.689538
 20
-38.767496
 30
0.0
 11
197.689534
 21
-38.76747599999999
 31
0.0
  0
LINE
  5
44A
330
1D
100
AcDbEntity
  8
BLACK
  6
Continuous
100
AcDbLine
 10
110.393444
 20
-36.792273
 30
0.0
 11
110.393445
 21
-36.792269
 31
0.0
  0
LINE
  5
44B
330
1D
100
AcDbEntity
  8
BLACK
  6
Continuous
100
AcDbLine
 10
100.001472
 20
-20.27065
 30
0.0
 11
100.001479
 21
-20.270619
 31
0.0
  0
LINE
  5
44C
330
1D
100
AcDbEntity
  8
BLACK
  6
Continuous
100
AcDbLine
 10
267.6
 20
4.359999999999999
 30
0.0
 11
267.599999
 21
4.359999999999999
 31
0.0
  0
LINE
  5
44D
330
1D
100
AcDbEntity
  8
BLACK
  6
Continuous
100
AcDbLine
 10
253.0
 20
-8.639999999999999
 30
0.0
 11
252.999999
 21
-8.639999999999999
 31
0.0
  0
LINE
  5
44E
330
1D
100
AcDbEntity
  8
BLACK
  6
Continuous
100
AcDbLine
 10
81.36777599999999
 20
-16.309934
 30
0.0
 11
81.36778199999999
 21
-16.309905
 31
0.0
  0
LINE
  5
44F
330
1D
100
AcDbEntity
  8
BLACK
  6
Continuous
100
AcDbLine
 10
53.41
 20
-6.5
 30
0.0
 11
53.409999
 21
-6.5
 31
0.0
  0
LINE
  5
450
330
1D
100
AcDbEntity
  8
BLACK
  6
Continuous
100
AcDbLine
 10
68.00999999999999
 20
6.5
 30
0.0
 11
68.009999
 21
6.5
 31
0.0
  0
LINE
  5
451
330
1D
100
AcDbEntity
  8
BLACK
  6
Continuous
100
AcDbLine
 10
76.42185599999999
 20
-15.769873
 30
0.0
 11
76.42188399999999
 21
-15.769879
 31
0.0
  0
LINE
  5
452
330
1D
100
AcDbEntity
  8
BLACK
  6
Continuous
100
AcDbLine
 10
59.43814099999999
 20
-25.450126
 30
0.0
 11
59.438114
 21
-25.45012
 31
0.0
  0
LINE
  5
453
330
1D
100
AcDbEntity
  8
BLACK
  6
Continuous
100
AcDbLine
 10
290.51
 20
-27.69
 30
0.0
 11
290.509999
 21
-27.69
 31
0.0
  0
LINE
  5
454
330
1D
100
AcDbEntity
  8
BLACK
  6
Continuous
100
AcDbLine
 10
305.11
 20
-14.69
 30
0.0
 11
305.109999
 21
-14.69
 31
0.0
  0
LINE
  5
455
330
1D
100
AcDbEntity
  8
BLACK
  6
Continuous
100
AcDbLine
 10
60.678141
 20
-85.680126
 30
0.0
 11
60.678114
 21
-85.68012
 31
0.0
  0
LINE
  5
456
330
1D
100
AcDbEntity
  8
BLACK
  6
Continuous
100
AcDbLine
 10
77.661856
 20
-75.999873
 30
0.0
 11
77.661884
 21
-75.99987899999999
 31
0.0
  0
LINE
  5
457
330
1D
100
AcDbEntity
  8
BLACK
  6
Continuous
100
AcDbLine
 10
248.97
 20
6.5
 30
0.0
 11
248.969999
 21
6.5
 31
0.0
  0
LINE
  5
458
330
1D
100
AcDbEntity
  8
BLACK
  6
Continuous
100
AcDbLine
 10
234.37
 20
-6.5
 30
0.0
 11
234.369999
 21
-6.5
 31
0.0
  0
LINE
  5
459
330
1D
100
AcDbEntity
  8
BLACK
  6
Continuous
100
AcDbLine
 10
309.3656
 20
-85.38799999999999
 30
0.0
 11
309.3656
 21
-85.387999
 31
0.0
  0
LINE
  5
45A
330
1D
100
AcDbEntity
  8
BLACK
  6
Continuous
100
AcDbLine
 10
295.7656
 20
-71.38799999999999
 30
0.0
 11
295.7656
 21
-71.387999
 31
0.0
  0
LINE
  5
45B
330
1D
100
AcDbEntity
  8
BLACK
  6
Continuous
100
AcDbLine
 10
237.63
 20
-46.73999999999999
 30
0.0
 11
237.629999
 21
-46.73999999999999
 31
0.0
  0
LINE
  5
45C
330
1D
100
AcDbEntity
  8
BLACK
  6
Continuous
100
AcDbLine
 10
252.23
 20
-33.74
 30
0.0
 11
252.229999
 21
-33.74
 31
0.0
  0
LINE
  5
45D
330
1D
100
AcDbEntity
  8
BLACK
  6
Continuous
100
AcDbLine
 10
60.138141
 20
-45.080126
 30
0.0
 11
60.13811399999999
 21
-45.08012
 31
0.0
  0
LINE
  5
45E
330
1D
100
AcDbEntity
  8
BLACK
  6
Continuous
100
AcDbLine
 10
77.121856
 20
-35.399873
 30
0.0
 11
77.121884
 21
-35.399879
 31
0.0
  0
LINE
  5
45F
330
1D
100
AcDbEntity
  8
BLACK
  6
Continuous
100
AcDbLine
 10
2.64
 20
-26.05
 30
0.0
 11
2.64
 21
-26.049999
 31
0.0
  0
LINE
  5
460
330
1D
100
AcDbEntity
  8
BLACK
  6
Continuous
100
AcDbLine
 10
87.41777599999999
 20
-56.549934
 30
0.0
 11
87.417782
 21
-56.549905
 31
0.0
  0
LINE
  5
461
330
1D
100
AcDbEntity
  8
BLACK
  6
Continuous
100
AcDbLine
 10
65.488141
 20
-65.69012599999999
 30
0.0
 11
65.488114
 21
-65.69012
 31
0.0
  0
LINE
  5
462
330
1D
100
AcDbEntity
  8
BLACK
  6
Continuous
100
AcDbLine
 10
82.471856
 20
-56.009873
 30
0.0
 11
82.471884
 21
-56.009879
 31
0.0
  0
LINE
  5
463
330
1D
100
AcDbEntity
  8
BLACK
  6
Continuous
100
AcDbLine
 10
82.067776
 20
-35.939934
 30
0.0
 11
82.067782
 21
-35.939905
 31
0.0
  0
LINE
  5
464
330
1D
100
AcDbEntity
  8
BLACK
  6
Continuous
100
AcDbLine
 10
100.701472
 20
-39.90065
 30
0.0
 11
100.701479
 21
-39.900619
 31
0.0
  0
LINE
  5
465
330
1D
100
AcDbEntity
  8
BLACK
  6
Continuous
100
AcDbLine
 10
111.093444
 20
-56.422273
 30
0.0
 11
111.093445
 21
-56.422269
 31
0.0
  0
LINE
  5
466
330
1D
100
AcDbEntity
  8
BLACK
  6
Continuous
100
AcDbLine
 10
159.479817
 20
-21.737858
 30
0.0
 11
159.479811
 21
-21.737859
 31
0.0
  0
LINE
  5
467
330
1D
100
AcDbEntity
  8
BLACK
  6
Continuous
100
AcDbLine
 10
154.119817
 20
-42.347858
 30
0.0
 11
154.119811
 21
-42.347859
 31
0.0
  0
LINE
  5
468
330
1D
100
AcDbEntity
  8
BLACK
  6
Continuous
100
AcDbLine
 10
123.673444
 20
-20.142273
 30
0.0
 11
123.673445
 21
-20.142269
 31
0.0
  0
LINE
  5
469
330
1D
100
AcDbEntity
  8
BLACK
  6
Continuous
100
AcDbLine
 10
113.281472
 20
-3.62065
 30
0.0
 11
113.281479
 21
-3.620619
 31
0.0
  0
LINE
  5
46A
330
1D
100
AcDbEntity
  8
BLACK
  6
Continuous
100
AcDbLine
 10
106.051472
 20
-60.51065
 30
0.0
 11
106.051479
 21
-60.510619
 31
0.0
  0
LINE
  5
46B
330
1D
100
AcDbEntity
  8
BLACK
  6
Continuous
100
AcDbLine
 10
116.443444
 20
-77.032273
 30
0.0
 11
116.443445
 21
-77.032269
 31
0.0
  0
LINE
  5
46C
330
1D
100
AcDbEntity
  8
BLACK
  6
Continuous
100
AcDbLine
 10
162.739817
 20
-59.997858
 30
0.0
 11
162.739811
 21
-59.997859
 31
0.0
  0
LINE
  5
46D
330
1D
100
AcDbEntity
  8
BLACK
  6
Continuous
100
AcDbLine
 10
157.379817
 20
-80.607858
 30
0.0
 11
157.379811
 21
-80.60785899999999
 31
0.0
  0
LINE
  5
46E
330
1D
100
AcDbEntity
  8
BLACK
  6
Continuous
100
AcDbLine
 10
148.569154
 20
-108.757459
 30
0.0
 11
148.569153
 21
-108.757465
 31
0.0
  0
LINE
  5
46F
330
1D
100
AcDbEntity
  8
BLACK
  6
Continuous
100
AcDbLine
 10
129.090132
 20
-108.209203
 30
0.0
 11
129.090127
 21
-108.209227
 31
0.0
  0
LINE
  5
472
330
1D
100
AcDbEntity
  8
BLACK
  6
Continuous
100
AcDbLine
 10
48.87
 20
4.860001
 30
0.0
 11
35.27
 21
4.860001
 31
0.0
  0
ARC
  5
473
330
1D
100
AcDbEntity
  8
BLACK
100
AcDbCircle
 10
48.87
 20
4.359999999999999
 30
0.0
 40
0.500001
100
AcDbArc
 50
0.0
 51
90.0
  0
LINE
  5
474
330
1D
100
AcDbEntity
  8
BLACK
  6
Continuous
100
AcDbLine
 10
49.369999
 20
-8.639999999999999
 30
0.0
 11
49.369999
 21
4.359999999999999
 31
0.0
  0
ARC
  5
475
330
1D
100
AcDbEntity
  8
BLACK
100
AcDbCircle
 10
48.87
 20
-8.639999999999999
 30
0.0
 40
0.499999
100
AcDbArc
 50
270.0
 51
0.0
  0
LINE
  5
476
330
1D
100
AcDbEntity
  8
BLACK
  6
Continuous
100
AcDbLine
 10
35.27
 20
-9.139999
 30
0.0
 11
48.87
 21
-9.139999
 31
0.0
  0
ARC
  5
477
330
1D
100
AcDbEntity
  8
BLACK
100
AcDbCircle
 10
35.27
 20
-8.639999999999999
 30
0.0
 40
0.499999
100
AcDbArc
 50
180.0
 51
270.0
  0
LINE
  5
478
330
1D
100
AcDbEntity
  8
BLACK
  6
Continuous
100
AcDbLine
 10
34.769999
 20
4.359999999999999
 30
0.0
 11
34.769999
 21
-8.639999999999999
 31
0.0
  0
ARC
  5
479
330
1D
100
AcDbEntity
  8
BLACK
100
AcDbCircle
 10
35.27
 20
4.359999999999999
 30
0.0
 40
0.500001
100
AcDbArc
 50
90.0
 51
180.0
  0
LINE
  5
47A
330
1D
100
AcDbEntity
  8
BLACK
  6
Continuous
100
AcDbLine
 10
16.22
 20
-9.139999
 30
0.0
 11
29.82
 21
-9.139999
 31
0.0
  0
ARC
  5
47B
330
1D
100
AcDbEntity
  8
BLACK
100
AcDbCircle
 10
16.22
 20
-8.639999999999999
 30
0.0
 40
0.499999
100
AcDbArc
 50
180.0
 51
270.0
  0
LINE
  5
47C
330
1D
100
AcDbEntity
  8
BLACK
  6
Continuous
100
AcDbLine
 10
15.719999
 20
4.359999999999999
 30
0.0
 11
15.719999
 21
-8.639999999999999
 31
0.0
  0
ARC
  5
47D
330
1D
100
AcDbEntity
  8
BLACK
100
AcDbCircle
 10
16.22
 20
4.359999999999999
 30
0.0
 40
0.500001
100
AcDbArc
 50
90.0
 51
180.0
  0
LINE
  5
47E
330
1D
100
AcDbEntity
  8
BLACK
  6
Continuous
100
AcDbLine
 10
29.82
 20
4.860001
 30
0.0
 11
16.22
 21
4.860001
 31
0.0
  0
ARC
  5
47F
330
1D
100
AcDbEntity
  8
BLACK
100
AcDbCircle
 10
29.82
 20
4.359999999999999
 30
0.0
 40
0.500001
100
AcDbArc
 50
0.0
 51
90.0
  0
LINE
  5
480
330
1D
100
AcDbEntity
  8
BLACK
  6
Continuous
100
AcDbLine
 10
30.319999
 20
-8.639999999999999
 30
0.0
 11
30.319999
 21
4.359999999999999
 31
0.0
  0
ARC
  5
481
330
1D
100
AcDbEntity
  8
BLACK
100
AcDbCircle
 10
29.82
 20
-8.639999999999999
 30
0.0
 40
0.499999
100
AcDbArc
 50
270.0
 51
0.0
  0
LINE
  5
484
330
1D
100
AcDbEntity
  8
BLACK
  6
Continuous
100
AcDbLine
 10
194.044395
 20
-1.100562
 30
0.0
 11
196.747237
 21
-13.816432
 31
0.0
  0
ARC
  5
485
330
1D
100
AcDbEntity
  8
BLACK
100
AcDbCircle
 10
194.5335
 20
-0.9965999999999999
 30
0.0
 40
0.5000317974579217
100
AcDbArc
 50
101.99997035
 51
191.99994653
  0
LINE
  5
486
330
1D
100
AcDbEntity
  8
BLACK
  6
Continuous
100
AcDbLine
 10
207.732354
 20
2.320125
 30
0.0
 11
194.429534
 21
-0.5074759999999999
 31
0.0
  0
ARC
  5
487
330
1D
100
AcDbEntity
  8
BLACK
100
AcDbCircle
 10
207.8363
 20
1.8311
 30
0.0
 40
0.4999502190628583
100
AcDbArc
 50
11.99996382
 51
102.00005912
  0
LINE
  5
488
330
1D
100
AcDbEntity
  8
BLACK
  6
Continuous
100
AcDbLine
 10
211.028199
 20
-10.78096
 30
0.0
 11
208.325329
 21
1.935046
 31
0.0
  0
ARC
  5
489
330
1D
100
AcDbEntity
  8
BLACK
100
AcDbCircle
 10
210.5392
 20
-10.8849
 30
0.0
 40
0.4999235397548308
100
AcDbArc
 50
281.99136869
 51
12.00000604
  0
LINE
  5
48A
330
1D
100
AcDbEntity
  8
BLACK
  6
Continuous
100
AcDbLine
 10
197.340251
 20
-14.201553
 30
0.0
 11
210.643074
 21
-11.373951
 31
0.0
  0
ARC
  5
48B
330
1D
100
AcDbEntity
  8
BLACK
100
AcDbCircle
 10
197.2363
 20
-13.7125
 30
0.0
 40
0.4999786467540389
100
AcDbArc
 50
191.99758447
 51
281.9999524600001
  0
LINE
  5
48D
330
1D
100
AcDbEntity
  8
BLACK
  6
Continuous
100
AcDbLine
 10
189.098658
 20
-1.640589
 30
0.0
 11
175.792593
 21
-4.46888
 31
0.0
  0
ARC
  5
48E
330
1D
100
AcDbEntity
  8
BLACK
100
AcDbCircle
 10
189.2026
 20
-2.1296
 30
0.0
 40
0.4999356933496547
100
AcDbArc
 50
11.99998493
 51
101.99994431
  0
LINE
  5
48F
330
1D
100
AcDbEntity
  8
BLACK
  6
Continuous
100
AcDbLine
 10
192.39448
 20
-14.741643
 30
0.0
 11
189.691614
 21
-2.025657
 31
0.0
  0
ARC
  5
490
330
1D
100
AcDbEntity
  8
BLACK
100
AcDbCircle
 10
191.9054
 20
-14.8456
 30
0.0
 40
0.500006304209257
100
AcDbArc
 50
282.36233295
 51
11.99998171
  0
LINE
  5
491
330
1D
100
AcDbEntity
  8
BLACK
  6
Continuous
100
AcDbLine
 10
178.706555
 20
-18.162268
 30
0.0
 11
192.012448
 21
-15.334013
 31
0.0
  0
ARC
  5
492
330
1D
100
AcDbEntity
  8
BLACK
100
AcDbCircle
 10
178.6026
 20
-17.6732
 30
0.0
 40
0.4999941506147846
100
AcDbArc
 50
191.99931622
 51
282.00004343
  0
LINE
  5
493
330
1D
100
AcDbEntity
  8
BLACK
  6
Continuous
100
AcDbLine
 10
175.41068
 20
-5.061266
 30
0.0
 11
178.113525
 21
-17.77715
 31
0.0
  0
ARC
  5
494
330
1D
100
AcDbEntity
  8
BLACK
100
AcDbCircle
 10
175.8998
 20
-4.9573
 30
0.0
 40
0.5000473013185852
100
AcDbArc
 50
102.37995714
 51
192.0000375
  0
ARC
  5
498
330
1D
100
AcDbEntity
  8
BLACK
100
AcDbCircle
 10
89.2128
 20
0.9841
 30
0.0
 40
0.5000635754151666
100
AcDbArc
 50
347.99765303
 51
78.00000744
  0
LINE
  5
499
330
1D
100
AcDbEntity
  8
BLACK
  6
Continuous
100
AcDbLine
 10
86.999043
 20
-11.835749
 30
0.0
 11
89.70188399999999
 21
0.8801209999999999
 31
0.0
  0
ARC
  5
49A
330
1D
100
AcDbEntity
  8
BLACK
100
AcDbCircle
 10
86.50999999999999
 20
-11.7318
 30
0.0
 40
0.4999684494545631
100
AcDbArc
 50
257.99996199
 51
348.00003347
  0
LINE
  5
49B
330
1D
100
AcDbEntity
  8
BLACK
  6
Continuous
100
AcDbLine
 10
73.10323
 20
-9.393239
 30
0.0
 11
86.40605099999999
 21
-12.22084
 31
0.0
  0
ARC
  5
49C
330
1D
100
AcDbEntity
  8
BLACK
100
AcDbCircle
 10
73.2072
 20
-8.9041
 30
0.0
 40
0.5000667177697392
100
AcDbArc
 50
167.99761243
 51
257.9999668299999
  0
LINE
  5
49D
330
1D
100
AcDbEntity
  8
BLACK
  6
Continuous
100
AcDbLine
 10
75.42095599999999
 20
3.91575
 30
0.0
 11
72.718114
 21
-8.80012
 31
0.0
  0
ARC
  5
49E
330
1D
100
AcDbEntity
  8
BLACK
100
AcDbCircle
 10
75.91
 20
3.8118
 30
0.0
 40
0.499969635513998
100
AcDbArc
 50
78.30311972
 51
167.9999452
  0
LINE
  5
49F
330
1D
100
AcDbEntity
  8
BLACK
  6
Continuous
100
AcDbLine
 10
89.316769
 20
1.473236
 30
0.0
 11
76.011361
 21
4.301388
 31
0.0
  0
ARC
  5
4A0
330
1D
100
AcDbEntity
  8
BLACK
100
AcDbCircle
 10
105.1437
 20
-15.6925
 30
0.0
 40
0.4999837454037881
100
AcDbArc
 50
257.9999592799999
 51
348.00005458
  0
LINE
  5
4A1
330
1D
100
AcDbEntity
  8
BLACK
  6
Continuous
100
AcDbLine
 10
91.737003
 20
-13.353969
 30
0.0
 11
105.039748
 21
-16.181554
 31
0.0
  0
ARC
  5
4A2
330
1D
100
AcDbEntity
  8
BLACK
100
AcDbCircle
 10
91.841
 20
-12.8647
 30
0.0
 40
0.500199490573511
100
AcDbArc
 50
169.03184622
 51
258.00003769
  0
LINE
  5
4A3
330
1D
100
AcDbEntity
  8
BLACK
  6
Continuous
100
AcDbLine
 10
94.054654
 20
-0.045029
 30
0.0
 11
91.349977
 21
-12.769538
 31
0.0
  0
ARC
  5
4A4
330
1D
100
AcDbEntity
  8
BLACK
100
AcDbCircle
 10
94.54379999999999
 20
-0.149
 30
0.0
 40
0.5000737727145865
100
AcDbArc
 50
77.99755506
 51
168.00002151
  0
LINE
  5
4A5
330
1D
100
AcDbEntity
  8
BLACK
  6
Continuous
100
AcDbLine
 10
107.950466
 20
-2.487477
 30
0.0
 11
94.64778199999999
 21
0.340095
 31
0.0
  0
ARC
  5
4A6
330
1D
100
AcDbEntity
  8
BLACK
100
AcDbCircle
 10
107.8465
 20
-2.9766
 30
0.0
 40
0.5000502357613683
100
AcDbArc
 50
348.49951284
 51
78.00003397
  0
LINE
  5
4A7
330
1D
100
AcDbEntity
  8
BLACK
  6
Continuous
100
AcDbLine
 10
105.632758
 20
-15.796452
 30
0.0
 11
108.33651
 21
-3.076298
 31
0.0
  0
ARC
  5
4A9
330
1D
100
AcDbEntity
  8
BLACK
100
AcDbCircle
 10
30.42
 20
-27.69
 30
0.0
 40
0.499999
100
AcDbArc
 50
270.0
 51
0.0
  0
LINE
  5
4AA
330
1D
100
AcDbEntity
  8
BLACK
  6
Continuous
100
AcDbLine
 10
16.82
 20
-28.189999
 30
0.0
 11
30.42
 21
-28.189999
 31
0.0
  0
ARC
  5
4AB
330
1D
100
AcDbEntity
  8
BLACK
100
AcDbCircle
 10
16.82
 20
-27.69
 30
0.0
 40
0.499999
100
AcDbArc
 50
180.0
 51
270.0
  0
LINE
  5
4AC
330
1D
100
AcDbEntity
  8
BLACK
  6
Continuous
100
AcDbLine
 10
16.319999
 20
-14.69
 30
0.0
 11
16.319999
 21
-27.69
 31
0.0
  0
ARC
  5
4AD
330
1D
100
AcDbEntity
  8
BLACK
100
AcDbCircle
 10
16.82
 20
-14.69
 30
0.0
 40
0.500001
100
AcDbArc
 50
90.0
 51
180.0
  0
LINE
  5
4AE
330
1D
100
AcDbEntity
  8
BLACK
  6
Continuous
100
AcDbLine
 10
30.42
 20
-14.189999
 30
0.0
 11
16.82
 21
-14.189999
 31
0.0
  0
ARC
  5
4AF
330
1D
100
AcDbEntity
  8
BLACK
100
AcDbCircle
 10
30.42
 20
-14.69
 30
0.0
 40
0.500001
100
AcDbArc
 50
0.0
 51
90.0
  0
LINE
  5
4B0
330
1D
100
AcDbEntity
  8
BLACK
  6
Continuous
100
AcDbLine
 10
30.919999
 20
-27.69
 30
0.0
 11
30.919999
 21
-14.69
 31
0.0
  0
LINE
  5
4B1
330
1D
100
AcDbEntity
  8
BLACK
  6
Continuous
100
AcDbLine
 10
195.240251
 20
-73.071553
 30
0.0
 11
208.543074
 21
-70.243951
 31
0.0
  0
ARC
  5
4B2
330
1D
100
AcDbEntity
  8
BLACK
100
AcDbCircle
 10
195.1363
 20
-72.5825
 30
0.0
 40
0.4999786467540389
100
AcDbArc
 50
191.99758447
 51
281.9999524600001
  0
LINE
  5
4B3
330
1D
100
AcDbEntity
  8
BLACK
  6
Continuous
100
AcDbLine
 10
191.944395
 20
-59.97056199999999
 30
0.0
 11
194.647237
 21
-72.686432
 31
0.0
  0
ARC
  5
4B4
330
1D
100
AcDbEntity
  8
BLACK
100
AcDbCircle
 10
192.4335
 20
-59.8666
 30
0.0
 40
0.5000317974579217
100
AcDbArc
 50
101.99997035
 51
191.99994653
  0
LINE
  5
4B5
330
1D
100
AcDbEntity
  8
BLACK
  6
Continuous
100
AcDbLine
 10
205.632354
 20
-56.549875
 30
0.0
 11
192.329534
 21
-59.37747599999999
 31
0.0
  0
ARC
  5
4B6
330
1D
100
AcDbEntity
  8
BLACK
100
AcDbCircle
 10
205.7363
 20
-57.0389
 30
0.0
 40
0.4999502190628583
100
AcDbArc
 50
11.99996382
 51
102.00005912
  0
LINE
  5
4B7
330
1D
100
AcDbEntity
  8
BLACK
  6
Continuous
100
AcDbLine
 10
208.928199
 20
-69.65096
 30
0.0
 11
206.225329
 21
-56.934954
 31
0.0
  0
ARC
  5
4B8
330
1D
100
AcDbEntity
  8
BLACK
100
AcDbCircle
 10
208.4392
 20
-69.75489999999999
 30
0.0
 40
0.4999235397548308
100
AcDbArc
 50
281.99136869
 51
12.00000604
  0
ARC
  5
4B9
330
1D
100
AcDbEntity
  8
BLACK
100
AcDbCircle
 10
54.23249999999999
 20
-27.69
 30
0.0
 40
0.499999
100
AcDbArc
 50
270.0
 51
0.0
  0
LINE
  5
4BA
330
1D
100
AcDbEntity
  8
BLACK
  6
Continuous
100
AcDbLine
 10
40.6325
 20
-28.189999
 30
0.0
 11
54.23249999999999
 21
-28.189999
 31
0.0
  0
ARC
  5
4BB
330
1D
100
AcDbEntity
  8
BLACK
100
AcDbCircle
 10
40.6325
 20
-27.69
 30
0.0
 40
0.499999
100
AcDbArc
 50
180.0
 51
270.0
  0
LINE
  5
4BC
330
1D
100
AcDbEntity
  8
BLACK
  6
Continuous
100
AcDbLine
 10
40.132499
 20
-14.69
 30
0.0
 11
40.132499
 21
-27.69
 31
0.0
  0
ARC
  5
4BD
330
1D
100
AcDbEntity
  8
BLACK
100
AcDbCircle
 10
40.6325
 20
-14.69
 30
0.0
 40
0.500001
100
AcDbArc
 50
90.0
 51
180.0
  0
LINE
  5
4BE
330
1D
100
AcDbEntity
  8
BLACK
  6
Continuous
100
AcDbLine
 10
54.23249999999999
 20
-14.189999
 30
0.0
 11
40.6325
 21
-14.189999
 31
0.0
  0
ARC
  5
4BF
330
1D
100
AcDbEntity
  8
BLACK
100
AcDbCircle
 10
54.23249999999999
 20
-14.69
 30
0.0
 40
0.500001
100
AcDbArc
 50
0.0
 51
90.0
  0
LINE
  5
4C0
330
1D
100
AcDbEntity
  8
BLACK
  6
Continuous
100
AcDbLine
 10
54.732499
 20
-27.69
 30
0.0
 11
54.732499
 21
-14.69
 31
0.0
  0
ARC
  5
4C4
330
1D
100
AcDbEntity
  8
BLACK
100
AcDbCircle
 10
205.1792
 20
-31.4949
 30
0.0
 40
0.4999235397548308
100
AcDbArc
 50
281.99136869
 51
12.00000604
  0
LINE
  5
4C5
330
1D
100
AcDbEntity
  8
BLACK
  6
Continuous
100
AcDbLine
 10
191.980251
 20
-34.811553
 30
0.0
 11
205.283074
 21
-31.983951
 31
0.0
  0
ARC
  5
4C6
330
1D
100
AcDbEntity
  8
BLACK
100
AcDbCircle
 10
191.8763
 20
-34.3225
 30
0.0
 40
0.4999786467540389
100
AcDbArc
 50
191.99758447
 51
281.9999524600001
  0
LINE
  5
4C7
330
1D
100
AcDbEntity
  8
BLACK
  6
Continuous
100
AcDbLine
 10
188.684395
 20
-21.710562
 30
0.0
 11
191.387237
 21
-34.426432
 31
0.0
  0
ARC
  5
4C8
330
1D
100
AcDbEntity
  8
BLACK
100
AcDbCircle
 10
189.1735
 20
-21.6066
 30
0.0
 40
0.5000317974579217
100
AcDbArc
 50
101.99997035
 51
191.99994653
  0
LINE
  5
4C9
330
1D
100
AcDbEntity
  8
BLACK
  6
Continuous
100
AcDbLine
 10
202.372354
 20
-18.289875
 30
0.0
 11
189.069534
 21
-21.117476
 31
0.0
  0
ARC
  5
4CA
330
1D
100
AcDbEntity
  8
BLACK
100
AcDbCircle
 10
202.4763
 20
-18.7789
 30
0.0
 40
0.4999502190628583
100
AcDbArc
 50
11.99996382
 51
102.00005912
  0
LINE
  5
4CB
330
1D
100
AcDbEntity
  8
BLACK
  6
Continuous
100
AcDbLine
 10
205.668199
 20
-31.39096
 30
0.0
 11
202.965329
 21
-18.674954
 31
0.0
  0
ARC
  5
4CD
330
1D
100
AcDbEntity
  8
BLACK
100
AcDbCircle
 10
60.2861
 20
-52.7902
 30
0.0
 40
0.500201
100
AcDbArc
 50
0.8374696599999999
 51
90.0
  0
LINE
  5
4CE
330
1D
100
AcDbEntity
  8
BLACK
  6
Continuous
100
AcDbLine
 10
60.786249
 20
-65.78999999999999
 30
0.0
 11
60.786249
 21
-52.782889
 31
0.0
  0
ARC
  5
4CF
330
1D
100
AcDbEntity
  8
BLACK
100
AcDbCircle
 10
60.2863
 20
-65.78999999999999
 30
0.0
 40
0.499949
100
AcDbArc
 50
269.99415582
 51
0.0
  0
LINE
  5
4D0
330
1D
100
AcDbEntity
  8
BLACK
  6
Continuous
100
AcDbLine
 10
46.6864
 20
-66.289999
 30
0.0
 11
60.286249
 21
-66.289999
 31
0.0
  0
ARC
  5
4D1
330
1D
100
AcDbEntity
  8
BLACK
100
AcDbCircle
 10
46.6864
 20
-65.7898
 30
0.0
 40
0.500199
100
AcDbArc
 50
180.79680686
 51
270.0
  0
LINE
  5
4D2
330
1D
100
AcDbEntity
  8
BLACK
  6
Continuous
100
AcDbLine
 10
46.186249
 20
-52.79
 30
0.0
 11
46.186249
 21
-65.796756
 31
0.0
  0
ARC
  5
4D3
330
1D
100
AcDbEntity
  8
BLACK
100
AcDbCircle
 10
46.6862
 20
-52.79
 30
0.0
 40
0.499951
100
AcDbArc
 50
89.99438502
 51
180.0
  0
LINE
  5
4D4
330
1D
100
AcDbEntity
  8
BLACK
  6
Continuous
100
AcDbLine
 10
60.2861
 20
-52.28999899999999
 30
0.0
 11
46.686249
 21
-52.28999899999999
 31
0.0
  0
ARC
  5
4D5
330
1D
100
AcDbEntity
  8
BLACK
100
AcDbCircle
 10
197.7935
 20
-39.2566
 30
0.0
 40
0.5000317974579217
100
AcDbArc
 50
101.99997035
 51
191.99994653
  0
LINE
  5
4D6
330
1D
100
AcDbEntity
  8
BLACK
  6
Continuous
100
AcDbLine
 10
210.992354
 20
-35.939875
 30
0.0
 11
197.689534
 21
-38.76747599999999
 31
0.0
  0
ARC
  5
4D7
330
1D
100
AcDbEntity
  8
BLACK
100
AcDbCircle
 10
211.0963
 20
-36.4289
 30
0.0
 40
0.4999502190628583
100
AcDbArc
 50
11.99996382
 51
102.00005912
  0
LINE
  5
4D8
330
1D
100
AcDbEntity
  8
BLACK
  6
Continuous
100
AcDbLine
 10
214.288199
 20
-49.04096
 30
0.0
 11
211.585329
 21
-36.324954
 31
0.0
  0
ARC
  5
4D9
330
1D
100
AcDbEntity
  8
BLACK
100
AcDbCircle
 10
213.7992
 20
-49.1449
 30
0.0
 40
0.4999235397548308
100
AcDbArc
 50
281.99136869
 51
12.00000604
  0
LINE
  5
4DA
330
1D
100
AcDbEntity
  8
BLACK
  6
Continuous
100
AcDbLine
 10
200.600251
 20
-52.46155299999999
 30
0.0
 11
213.903074
 21
-49.633951
 31
0.0
  0
ARC
  5
4DB
330
1D
100
AcDbEntity
  8
BLACK
100
AcDbCircle
 10
200.4963
 20
-51.9725
 30
0.0
 40
0.4999786467540389
100
AcDbArc
 50
191.99758447
 51
281.9999524600001
  0
LINE
  5
4DC
330
1D
100
AcDbEntity
  8
BLACK
  6
Continuous
100
AcDbLine
 10
197.304395
 20
-39.360562
 30
0.0
 11
200.007237
 21
-52.076432
 31
0.0
  0
LINE
  5
4DD
330
1D
100
AcDbEntity
  8
BLACK
  6
Continuous
100
AcDbLine
 10
97.090645
 20
-33.964672
 30
0.0
 11
110.393445
 21
-36.792269
 31
0.0
  0
ARC
  5
4DE
330
1D
100
AcDbEntity
  8
BLACK
100
AcDbCircle
 10
97.1946
 20
-33.4756
 30
0.0
 40
0.4999980632052488
100
AcDbArc
 50
167.99968203
 51
258.00005187
  0
LINE
  5
4DF
330
1D
100
AcDbEntity
  8
BLACK
  6
Continuous
100
AcDbLine
 10
99.40836999999999
 20
-20.655732
 30
0.0
 11
96.70551999999999
 21
-33.37164
 31
0.0
  0
ARC
  5
4E0
330
1D
100
AcDbEntity
  8
BLACK
100
AcDbCircle
 10
99.8975
 20
-20.7597
 30
0.0
 40
0.5000574986179089
100
AcDbArc
 50
77.99762214
 51
167.99997658
  0
LINE
  5
4E1
330
1D
100
AcDbEntity
  8
BLACK
  6
Continuous
100
AcDbLine
 10
113.304238
 20
-23.098208
 30
0.0
 11
100.001479
 21
-20.270619
 31
0.0
  0
ARC
  5
4E2
330
1D
100
AcDbEntity
  8
BLACK
100
AcDbCircle
 10
113.2003
 20
-23.5872
 30
0.0
 40
0.4999162768984422
100
AcDbArc
 50
348.56367608
 51
78.00005136999998
  0
LINE
  5
4E3
330
1D
100
AcDbEntity
  8
BLACK
  6
Continuous
100
AcDbLine
 10
110.986473
 20
-36.407156
 30
0.0
 11
113.690366
 21
-23.686338
 31
0.0
  0
ARC
  5
4E4
330
1D
100
AcDbEntity
  8
BLACK
100
AcDbCircle
 10
110.4974
 20
-36.3032
 30
0.0
 40
0.4999992492644364
100
AcDbArc
 50
257.9999636
 51
347.9999636
  0
LINE
  5
4E5
330
1D
100
AcDbEntity
  8
BLACK
  6
Continuous
100
AcDbLine
 10
267.599999
 20
-8.639999999999999
 30
0.0
 11
267.599999
 21
4.359999999999999
 31
0.0
  0
ARC
  5
4E6
330
1D
100
AcDbEntity
  8
BLACK
100
AcDbCircle
 10
267.1
 20
-8.639999999999999
 30
0.0
 40
0.499999
100
AcDbArc
 50
270.0
 51
0.0
  0
LINE
  5
4E7
330
1D
100
AcDbEntity
  8
BLACK
  6
Continuous
100
AcDbLine
 10
253.5
 20
-9.139999999999999
 30
0.0
 11
267.1
 21
-9.139999999999999
 31
0.0
  0
ARC
  5
4E8
330
1D
100
AcDbEntity
  8
BLACK
100
AcDbCircle
 10
253.5
 20
-8.639999999999999
 30
0.0
 40
0.5
100
AcDbArc
 50
180.0
 51
270.0
  0
LINE
  5
4E9
330
1D
100
AcDbEntity
  8
BLACK
  6
Continuous
100
AcDbLine
 10
252.999999
 20
4.359999999999999
 30
0.0
 11
252.999999
 21
-8.639999999999999
 31
0.0
  0
ARC
  5
4EA
330
1D
100
AcDbEntity
  8
BLACK
100
AcDbCircle
 10
253.5
 20
4.359999999999999
 30
0.0
 40
0.500001
100
AcDbArc
 50
90.0
 51
180.0
  0
LINE
  5
4EB
330
1D
100
AcDbEntity
  8
BLACK
  6
Continuous
100
AcDbLine
 10
267.1
 20
4.859999999999999
 30
0.0
 11
253.5
 21
4.859999999999999
 31
0.0
  0
ARC
  5
4EC
330
1D
100
AcDbEntity
  8
BLACK
100
AcDbCircle
 10
267.1
 20
4.359999999999999
 30
0.0
 40
0.5
100
AcDbArc
 50
0.0
 51
90.0
  0
LINE
  5
4ED
330
1D
100
AcDbEntity
  8
BLACK
  6
Continuous
100
AcDbLine
 10
80.774654
 20
-16.695029
 30
0.0
 11
78.069977
 21
-29.419538
 31
0.0
  0
ARC
  5
4EE
330
1D
100
AcDbEntity
  8
BLACK
100
AcDbCircle
 10
81.2638
 20
-16.799
 30
0.0
 40
0.5000737727145865
100
AcDbArc
 50
77.99755506
 51
168.00002151
  0
LINE
  5
4EF
330
1D
100
AcDbEntity
  8
BLACK
  6
Continuous
100
AcDbLine
 10
94.67046599999999
 20
-19.137477
 30
0.0
 11
81.36778199999999
 21
-16.309905
 31
0.0
  0
ARC
  5
4F0
330
1D
100
AcDbEntity
  8
BLACK
100
AcDbCircle
 10
94.56649999999999
 20
-19.6266
 30
0.0
 40
0.5000502357613683
100
AcDbArc
 50
348.49951284
 51
78.00003397
  0
LINE
  5
4F1
330
1D
100
AcDbEntity
  8
BLACK
  6
Continuous
100
AcDbLine
 10
92.352758
 20
-32.446452
 30
0.0
 11
95.05650999999999
 21
-19.726298
 31
0.0
  0
ARC
  5
4F2
330
1D
100
AcDbEntity
  8
BLACK
100
AcDbCircle
 10
91.8637
 20
-32.3425
 30
0.0
 40
0.4999837454037881
100
AcDbArc
 50
257.9999592799999
 51
348.00005458
  0
LINE
  5
4F3
330
1D
100
AcDbEntity
  8
BLACK
  6
Continuous
100
AcDbLine
 10
78.457003
 20
-30.003969
 30
0.0
 11
91.759748
 21
-32.831554
 31
0.0
  0
ARC
  5
4F4
330
1D
100
AcDbEntity
  8
BLACK
100
AcDbCircle
 10
78.56099999999999
 20
-29.5147
 30
0.0
 40
0.500199490573511
100
AcDbArc
 50
169.03184622
 51
258.00003769
  0
ARC
  5
4F7
330
1D
100
AcDbEntity
  8
BLACK
100
AcDbCircle
 10
53.91
 20
-6.5
 30
0.0
 40
0.5
100
AcDbArc
 50
180.0
 51
270.0
  0
LINE
  5
4F8
330
1D
100
AcDbEntity
  8
BLACK
  6
Continuous
100
AcDbLine
 10
53.409999
 20
6.5
 30
0.0
 11
53.409999
 21
-6.5
 31
0.0
  0
ARC
  5
4F9
330
1D
100
AcDbEntity
  8
BLACK
100
AcDbCircle
 10
53.91
 20
6.5
 30
0.0
 40
0.500001
100
AcDbArc
 50
90.0
 51
180.0
  0
LINE
  5
4FA
330
1D
100
AcDbEntity
  8
BLACK
  6
Continuous
100
AcDbLine
 10
67.50999999999999
 20
7.0
 30
0.0
 11
53.91
 21
7.0
 31
0.0
  0
ARC
  5
4FB
330
1D
100
AcDbEntity
  8
BLACK
100
AcDbCircle
 10
67.50999999999999
 20
6.5
 30
0.0
 40
0.5
100
AcDbArc
 50
0.0
 51
90.0
  0
LINE
  5
4FC
330
1D
100
AcDbEntity
  8
BLACK
  6
Continuous
100
AcDbLine
 10
68.009999
 20
-6.5
 30
0.0
 11
68.009999
 21
6.5
 31
0.0
  0
ARC
  5
4FD
330
1D
100
AcDbEntity
  8
BLACK
100
AcDbCircle
 10
67.50999999999999
 20
-6.5
 30
0.0
 40
0.499999
100
AcDbArc
 50
270.0
 51
0.0
  0
LINE
  5
4FE
330
1D
100
AcDbEntity
  8
BLACK
  6
Continuous
100
AcDbLine
 10
53.91
 20
-7.0
 30
0.0
 11
67.50999999999999
 21
-7.0
 31
0.0
  0
ARC
  5
4FF
330
1D
100
AcDbEntity
  8
BLACK
100
AcDbCircle
 10
75.9328
 20
-15.6659
 30
0.0
 40
0.5000635754151666
100
AcDbArc
 50
347.99765303
 51
78.00000744
  0
LINE
  5
500
330
1D
100
AcDbEntity
  8
BLACK
  6
Continuous
100
AcDbLine
 10
73.719043
 20
-28.485749
 30
0.0
 11
76.42188399999999
 21
-15.769879
 31
0.0
  0
ARC
  5
501
330
1D
100
AcDbEntity
  8
BLACK
100
AcDbCircle
 10
73.22999999999999
 20
-28.3818
 30
0.0
 40
0.4999684494545631
100
AcDbArc
 50
257.99996199
 51
348.00003347
  0
LINE
  5
502
330
1D
100
AcDbEntity
  8
BLACK
  6
Continuous
100
AcDbLine
 10
59.82323
 20
-26.043239
 30
0.0
 11
73.12605099999999
 21
-28.87084
 31
0.0
  0
ARC
  5
503
330
1D
100
AcDbEntity
  8
BLACK
100
AcDbCircle
 10
59.9272
 20
-25.5541
 30
0.0
 40
0.5000667177697392
100
AcDbArc
 50
167.99761243
 51
257.9999668299999
  0
LINE
  5
504
330
1D
100
AcDbEntity
  8
BLACK
  6
Continuous
100
AcDbLine
 10
62.140956
 20
-12.73425
 30
0.0
 11
59.438114
 21
-25.45012
 31
0.0
  0
ARC
  5
505
330
1D
100
AcDbEntity
  8
BLACK
100
AcDbCircle
 10
62.63
 20
-12.8382
 30
0.0
 40
0.499969635513998
100
AcDbArc
 50
78.30311972
 51
167.9999452
  0
LINE
  5
506
330
1D
100
AcDbEntity
  8
BLACK
  6
Continuous
100
AcDbLine
 10
76.03676899999999
 20
-15.176764
 30
0.0
 11
62.731361
 21
-12.348612
 31
0.0
  0
ARC
  5
509
330
1D
100
AcDbEntity
  8
BLACK
100
AcDbCircle
 10
179.1598
 20
-43.21729999999999
 30
0.0
 40
0.5000473013185852
100
AcDbArc
 50
102.37995714
 51
192.0000375
  0
LINE
  5
50A
330
1D
100
AcDbEntity
  8
BLACK
  6
Continuous
100
AcDbLine
 10
192.358658
 20
-39.900589
 30
0.0
 11
179.052593
 21
-42.72888
 31
0.0
  0
ARC
  5
50B
330
1D
100
AcDbEntity
  8
BLACK
100
AcDbCircle
 10
192.4626
 20
-40.3896
 30
0.0
 40
0.4999356933496547
100
AcDbArc
 50
11.99998493
 51
101.99994431
  0
LINE
  5
50C
330
1D
100
AcDbEntity
  8
BLACK
  6
Continuous
100
AcDbLine
 10
195.65448
 20
-53.00164299999999
 30
0.0
 11
192.951614
 21
-40.285657
 31
0.0
  0
ARC
  5
50D
330
1D
100
AcDbEntity
  8
BLACK
100
AcDbCircle
 10
195.1654
 20
-53.1056
 30
0.0
 40
0.500006304209257
100
AcDbArc
 50
282.36233295
 51
11.99998171
  0
LINE
  5
50E
330
1D
100
AcDbEntity
  8
BLACK
  6
Continuous
100
AcDbLine
 10
181.966555
 20
-56.422268
 30
0.0
 11
195.272448
 21
-53.594013
 31
0.0
  0
ARC
  5
50F
330
1D
100
AcDbEntity
  8
BLACK
100
AcDbCircle
 10
181.8626
 20
-55.9332
 30
0.0
 40
0.4999941506147846
100
AcDbArc
 50
191.99931622
 51
282.00004343
  0
LINE
  5
510
330
1D
100
AcDbEntity
  8
BLACK
  6
Continuous
100
AcDbLine
 10
178.67068
 20
-43.321266
 30
0.0
 11
181.373525
 21
-56.03715
 31
0.0
  0
LINE
  5
512
330
1D
100
AcDbEntity
  8
BLACK
  6
Continuous
100
AcDbLine
 10
291.01
 20
-28.19
 30
0.0
 11
304.61
 21
-28.19
 31
0.0
  0
ARC
  5
513
330
1D
100
AcDbEntity
  8
BLACK
100
AcDbCircle
 10
291.01
 20
-27.69
 30
0.0
 40
0.5
100
AcDbArc
 50
180.0
 51
270.0
  0
LINE
  5
514
330
1D
100
AcDbEntity
  8
BLACK
  6
Continuous
100
AcDbLine
 10
290.509999
 20
-14.69
 30
0.0
 11
290.509999
 21
-27.69
 31
0.0
  0
ARC
  5
515
330
1D
100
AcDbEntity
  8
BLACK
100
AcDbCircle
 10
291.01
 20
-14.69
 30
0.0
 40
0.500001
100
AcDbArc
 50
90.0
 51
180.0
  0
LINE
  5
516
330
1D
100
AcDbEntity
  8
BLACK
  6
Continuous
100
AcDbLine
 10
304.61
 20
-14.19
 30
0.0
 11
291.01
 21
-14.19
 31
0.0
  0
ARC
  5
517
330
1D
100
AcDbEntity
  8
BLACK
100
AcDbCircle
 10
304.61
 20
-14.69
 30
0.0
 40
0.5
100
AcDbArc
 50
0.0
 51
90.0
  0
LINE
  5
518
330
1D
100
AcDbEntity
  8
BLACK
  6
Continuous
100
AcDbLine
 10
305.109999
 20
-27.69
 30
0.0
 11
305.109999
 21
-14.69
 31
0.0
  0
ARC
  5
519
330
1D
100
AcDbEntity
  8
BLACK
100
AcDbCircle
 10
304.61
 20
-27.69
 30
0.0
 40
0.499999
100
AcDbArc
 50
270.0
 51
0.0
  0
LINE
  5
51A
330
1D
100
AcDbEntity
  8
BLACK
  6
Continuous
100
AcDbLine
 10
247.639999
 20
-14.69
 30
0.0
 11
247.639999
 21
-27.69
 31
0.0
  0
ARC
  5
51B
330
1D
100
AcDbEntity
  8
BLACK
100
AcDbCircle
 10
248.14
 20
-14.69
 30
0.0
 40
0.500001
100
AcDbArc
 50
90.0
 51
180.0
  0
LINE
  5
51C
330
1D
100
AcDbEntity
  8
BLACK
  6
Continuous
100
AcDbLine
 10
261.74
 20
-14.189999
 30
0.0
 11
248.14
 21
-14.189999
 31
0.0
  0
ARC
  5
51D
330
1D
100
AcDbEntity
  8
BLACK
100
AcDbCircle
 10
261.74
 20
-14.69
 30
0.0
 40
0.500001
100
AcDbArc
 50
0.0
 51
90.0
  0
LINE
  5
51E
330
1D
100
AcDbEntity
  8
BLACK
  6
Continuous
100
AcDbLine
 10
262.239999
 20
-27.69
 30
0.0
 11
262.239999
 21
-14.69
 31
0.0
  0
ARC
  5
51F
330
1D
100
AcDbEntity
  8
BLACK
100
AcDbCircle
 10
261.74
 20
-27.69
 30
0.0
 40
0.499999
100
AcDbArc
 50
270.0
 51
0.0
  0
LINE
  5
520
330
1D
100
AcDbEntity
  8
BLACK
  6
Continuous
100
AcDbLine
 10
248.14
 20
-28.189999
 30
0.0
 11
261.74
 21
-28.189999
 31
0.0
  0
ARC
  5
521
330
1D
100
AcDbEntity
  8
BLACK
100
AcDbCircle
 10
248.14
 20
-27.69
 30
0.0
 40
0.499999
100
AcDbArc
 50
180.0
 51
270.0
  0
LINE
  5
522
330
1D
100
AcDbEntity
  8
BLACK
  6
Continuous
100
AcDbLine
 10
61.06323
 20
-86.27323899999999
 30
0.0
 11
74.366051
 21
-89.10083999999999
 31
0.0
  0
ARC
  5
523
330
1D
100
AcDbEntity
  8
BLACK
100
AcDbCircle
 10
61.16719999999999
 20
-85.7841
 30
0.0
 40
0.5000667177697392
100
AcDbArc
 50
167.99761243
 51
257.9999668299999
  0
LINE
  5
524
330
1D
100
AcDbEntity
  8
BLACK
  6
Continuous
100
AcDbLine
 10
63.380956
 20
-72.96424999999999
 30
0.0
 11
60.678114
 21
-85.68012
 31
0.0
  0
ARC
  5
525
330
1D
100
AcDbEntity
  8
BLACK
100
AcDbCircle
 10
63.87
 20
-73.06819999999999
 30
0.0
 40
0.499969635513998
100
AcDbArc
 50
78.30311972
 51
167.9999452
  0
LINE
  5
526
330
1D
100
AcDbEntity
  8
BLACK
  6
Continuous
100
AcDbLine
 10
77.276769
 20
-75.406764
 30
0.0
 11
63.97136099999999
 21
-72.57861199999999
 31
0.0
  0
ARC
  5
527
330
1D
100
AcDbEntity
  8
BLACK
100
AcDbCircle
 10
77.1728
 20
-75.8959
 30
0.0
 40
0.5000635754151666
100
AcDbArc
 50
347.99765303
 51
78.00000744
  0
LINE
  5
528
330
1D
100
AcDbEntity
  8
BLACK
  6
Continuous
100
AcDbLine
 10
74.959043
 20
-88.715749
 30
0.0
 11
77.661884
 21
-75.99987899999999
 31
0.0
  0
ARC
  5
529
330
1D
100
AcDbEntity
  8
BLACK
100
AcDbCircle
 10
74.47
 20
-88.6118
 30
0.0
 40
0.4999684494545631
100
AcDbArc
 50
257.99996199
 51
348.00003347
  0
LINE
  5
52C
330
1D
100
AcDbEntity
  8
BLACK
  6
Continuous
100
AcDbLine
 10
243.11
 20
-13.129999
 30
0.0
 11
229.51
 21
-13.129999
 31
0.0
  0
ARC
  5
52D
330
1D
100
AcDbEntity
  8
BLACK
100
AcDbCircle
 10
243.11
 20
-13.63
 30
0.0
 40
0.500001
100
AcDbArc
 50
0.0
 51
90.0
  0
LINE
  5
52E
330
1D
100
AcDbEntity
  8
BLACK
  6
Continuous
100
AcDbLine
 10
243.609999
 20
-26.63
 30
0.0
 11
243.609999
 21
-13.63
 31
0.0
  0
ARC
  5
52F
330
1D
100
AcDbEntity
  8
BLACK
100
AcDbCircle
 10
243.11
 20
-26.63
 30
0.0
 40
0.499999
100
AcDbArc
 50
270.0
 51
0.0
  0
LINE
  5
530
330
1D
100
AcDbEntity
  8
BLACK
  6
Continuous
100
AcDbLine
 10
229.51
 20
-27.129999
 30
0.0
 11
243.11
 21
-27.129999
 31
0.0
  0
ARC
  5
531
330
1D
100
AcDbEntity
  8
BLACK
100
AcDbCircle
 10
229.51
 20
-26.63
 30
0.0
 40
0.499999
100
AcDbArc
 50
180.0
 51
270.0
  0
LINE
  5
532
330
1D
100
AcDbEntity
  8
BLACK
  6
Continuous
100
AcDbLine
 10
229.009999
 20
-13.63
 30
0.0
 11
229.009999
 21
-26.63
 31
0.0
  0
ARC
  5
533
330
1D
100
AcDbEntity
  8
BLACK
100
AcDbCircle
 10
229.51
 20
-13.63
 30
0.0
 40
0.500001
100
AcDbArc
 50
90.0
 51
180.0
  0
LINE
  5
534
330
1D
100
AcDbEntity
  8
BLACK
  6
Continuous
100
AcDbLine
 10
265.42
 20
-52.29
 30
0.0
 11
251.82
 21
-52.29
 31
0.0
  0
ARC
  5
535
330
1D
100
AcDbEntity
  8
BLACK
100
AcDbCircle
 10
265.42
 20
-52.79
 30
0.0
 40
0.5
100
AcDbArc
 50
0.0
 51
90.0
  0
LINE
  5
536
330
1D
100
AcDbEntity
  8
BLACK
  6
Continuous
100
AcDbLine
 10
265.92
 20
-65.78999999999999
 30
0.0
 11
265.92
 21
-52.79
 31
0.0
  0
ARC
  5
537
330
1D
100
AcDbEntity
  8
BLACK
100
AcDbCircle
 10
265.42
 20
-65.78999999999999
 30
0.0
 40
0.5
100
AcDbArc
 50
270.0
 51
0.0
  0
LINE
  5
538
330
1D
100
AcDbEntity
  8
BLACK
  6
Continuous
100
AcDbLine
 10
251.82
 20
-66.28999999999999
 30
0.0
 11
265.42
 21
-66.28999999999999
 31
0.0
  0
ARC
  5
539
330
1D
100
AcDbEntity
  8
BLACK
100
AcDbCircle
 10
251.82
 20
-65.78999999999999
 30
0.0
 40
0.5
100
AcDbArc
 50
180.0
 51
270.0
  0
LINE
  5
53A
330
1D
100
AcDbEntity
  8
BLACK
  6
Continuous
100
AcDbLine
 10
251.32
 20
-52.79
 30
0.0
 11
251.32
 21
-65.78999999999999
 31
0.0
  0
ARC
  5
53B
330
1D
100
AcDbEntity
  8
BLACK
100
AcDbCircle
 10
251.82
 20
-52.79
 30
0.0
 40
0.5
100
AcDbArc
 50
90.0
 51
180.0
  0
ARC
  5
53C
330
1D
100
AcDbEntity
  8
BLACK
100
AcDbCircle
 10
234.87
 20
-6.5
 30
0.0
 40
0.5
100
AcDbArc
 50
180.0
 51
270.0
  0
LINE
  5
53D
330
1D
100
AcDbEntity
  8
BLACK
  6
Continuous
100
AcDbLine
 10
234.369999
 20
6.5
 30
0.0
 11
234.369999
 21
-6.5
 31
0.0
  0
ARC
  5
53E
330
1D
100
AcDbEntity
  8
BLACK
100
AcDbCircle
 10
234.87
 20
6.5
 30
0.0
 40
0.500001
100
AcDbArc
 50
90.0
 51
180.0
  0
LINE
  5
53F
330
1D
100
AcDbEntity
  8
BLACK
  6
Continuous
100
AcDbLine
 10
248.47
 20
7.0
 30
0.0
 11
234.87
 21
7.0
 31
0.0
  0
ARC
  5
540
330
1D
100
AcDbEntity
  8
BLACK
100
AcDbCircle
 10
248.47
 20
6.5
 30
0.0
 40
0.5
100
AcDbArc
 50
0.0
 51
90.0
  0
LINE
  5
541
330
1D
100
AcDbEntity
  8
BLACK
  6
Continuous
100
AcDbLine
 10
248.969999
 20
-6.5
 30
0.0
 11
248.969999
 21
6.5
 31
0.0
  0
ARC
  5
542
330
1D
100
AcDbEntity
  8
BLACK
100
AcDbCircle
 10
248.47
 20
-6.5
 30
0.0
 40
0.499999
100
AcDbArc
 50
270.0
 51
0.0
  0
LINE
  5
543
330
1D
100
AcDbEntity
  8
BLACK
  6
Continuous
100
AcDbLine
 10
234.87
 20
-7.0
 30
0.0
 11
248.47
 21
-7.0
 31
0.0
  0
ARC
  5
546
330
1D
100
AcDbEntity
  8
BLACK
100
AcDbCircle
 10
232.77
 20
-52.79
 30
0.0
 40
0.5
100
AcDbArc
 50
90.0
 51
180.0
  0
LINE
  5
547
330
1D
100
AcDbEntity
  8
BLACK
  6
Continuous
100
AcDbLine
 10
246.37
 20
-52.29
 30
0.0
 11
232.77
 21
-52.29
 31
0.0
  0
ARC
  5
548
330
1D
100
AcDbEntity
  8
BLACK
100
AcDbCircle
 10
246.37
 20
-52.79
 30
0.0
 40
0.5
100
AcDbArc
 50
0.0
 51
90.0
  0
LINE
  5
549
330
1D
100
AcDbEntity
  8
BLACK
  6
Continuous
100
AcDbLine
 10
246.87
 20
-65.78999999999999
 30
0.0
 11
246.87
 21
-52.79
 31
0.0
  0
ARC
  5
54A
330
1D
100
AcDbEntity
  8
BLACK
100
AcDbCircle
 10
246.37
 20
-65.78999999999999
 30
0.0
 40
0.5
100
AcDbArc
 50
270.0
 51
0.0
  0
LINE
  5
54B
330
1D
100
AcDbEntity
  8
BLACK
  6
Continuous
100
AcDbLine
 10
232.77
 20
-66.28999999999999
 30
0.0
 11
246.37
 21
-66.28999999999999
 31
0.0
  0
ARC
  5
54C
330
1D
100
AcDbEntity
  8
BLACK
100
AcDbCircle
 10
232.77
 20
-65.78999999999999
 30
0.0
 40
0.5
100
AcDbArc
 50
180.0
 51
270.0
  0
LINE
  5
54D
330
1D
100
AcDbEntity
  8
BLACK
  6
Continuous
100
AcDbLine
 10
232.27
 20
-52.79
 30
0.0
 11
232.27
 21
-65.78999999999999
 31
0.0
  0
ARC
  5
550
330
1D
100
AcDbEntity
  8
BLACK
100
AcDbCircle
 10
295.7656
 20
-71.88799999999999
 30
0.0
 40
0.5
100
AcDbArc
 50
90.0
 51
180.0
  0
LINE
  5
551
330
1D
100
AcDbEntity
  8
BLACK
  6
Continuous
100
AcDbLine
 10
309.3656
 20
-71.387999
 30
0.0
 11
295.7656
 21
-71.387999
 31
0.0
  0
ARC
  5
552
330
1D
100
AcDbEntity
  8
BLACK
100
AcDbCircle
 10
309.3656
 20
-71.88799999999999
 30
0.0
 40
0.500001
100
AcDbArc
 50
0.0
 51
90.0
  0
LINE
  5
553
330
1D
100
AcDbEntity
  8
BLACK
  6
Continuous
100
AcDbLine
 10
309.8656
 20
-84.88799999999999
 30
0.0
 11
309.8656
 21
-71.88799999999999
 31
0.0
  0
ARC
  5
554
330
1D
100
AcDbEntity
  8
BLACK
100
AcDbCircle
 10
309.3656
 20
-84.88799999999999
 30
0.0
 40
0.5
100
AcDbArc
 50
270.0
 51
0.0
  0
LINE
  5
555
330
1D
100
AcDbEntity
  8
BLACK
  6
Continuous
100
AcDbLine
 10
295.7656
 20
-85.387999
 30
0.0
 11
309.3656
 21
-85.387999
 31
0.0
  0
ARC
  5
556
330
1D
100
AcDbEntity
  8
BLACK
100
AcDbCircle
 10
295.7656
 20
-84.88799999999999
 30
0.0
 40
0.499999
100
AcDbArc
 50
180.0
 51
270.0
  0
LINE
  5
557
330
1D
100
AcDbEntity
  8
BLACK
  6
Continuous
100
AcDbLine
 10
295.2656
 20
-71.88799999999999
 30
0.0
 11
295.2656
 21
-84.88799999999999
 31
0.0
  0
ARC
  5
558
330
1D
100
AcDbEntity
  8
BLACK
100
AcDbCircle
 10
310.4361
 20
-33.7652
 30
0.0
 40
0.5002000099960014
100
AcDbArc
 50
359.20147352
 51
89.98854543
  0
LINE
  5
559
330
1D
100
AcDbEntity
  8
BLACK
  6
Continuous
100
AcDbLine
 10
279.43625
 20
-33.265
 30
0.0
 11
310.4362
 21
-33.265
 31
0.0
  0
ARC
  5
55A
330
1D
100
AcDbEntity
  8
BLACK
100
AcDbCircle
 10
279.4362
 20
-33.765
 30
0.0
 40
0.4999499999999999
100
AcDbArc
 50
89.99427042
 51
180.0
  0
LINE
  5
55B
330
1D
100
AcDbEntity
  8
BLACK
  6
Continuous
100
AcDbLine
 10
278.93625
 20
-45.483
 30
0.0
 11
278.93625
 21
-33.765
 31
0.0
  0
LINE
  5
55C
330
1D
100
AcDbEntity
  8
BLACK
  6
Continuous
100
AcDbLine
 10
281.93625
 20
-47.215
 30
0.0
 11
278.93625
 21
-45.483
 31
0.0
  0
LINE
  5
55D
330
1D
100
AcDbEntity
  8
BLACK
  6
Continuous
100
AcDbLine
 10
307.93625
 20
-47.215
 30
0.0
 11
281.93625
 21
-47.215
 31
0.0
  0
LINE
  5
55E
330
1D
100
AcDbEntity
  8
BLACK
  6
Continuous
100
AcDbLine
 10
310.93625
 20
-45.483
 30
0.0
 11
307.93625
 21
-47.215
 31
0.0
  0
LINE
  5
55F
330
1D
100
AcDbEntity
  8
BLACK
  6
Continuous
100
AcDbLine
 10
310.93625
 20
-33.772171
 30
0.0
 11
310.93625
 21
-45.483
 31
0.0
  0
ARC
  5
560
330
1D
100
AcDbEntity
  8
BLACK
100
AcDbCircle
 10
270.78
 20
-46.73999999999999
 30
0.0
 40
0.5
100
AcDbArc
 50
270.0
 51
0.0
  0
LINE
  5
561
330
1D
100
AcDbEntity
  8
BLACK
  6
Continuous
100
AcDbLine
 10
257.18
 20
-47.23999999999999
 30
0.0
 11
270.78
 21
-47.23999999999999
 31
0.0
  0
ARC
  5
562
330
1D
100
AcDbEntity
  8
BLACK
100
AcDbCircle
 10
257.18
 20
-46.73999999999999
 30
0.0
 40
0.5
100
AcDbArc
 50
180.0
 51
270.0
  0
LINE
  5
563
330
1D
100
AcDbEntity
  8
BLACK
  6
Continuous
100
AcDbLine
 10
256.68
 20
-33.74
 30
0.0
 11
256.68
 21
-46.73999999999999
 31
0.0
  0
ARC
  5
564
330
1D
100
AcDbEntity
  8
BLACK
100
AcDbCircle
 10
257.18
 20
-33.74
 30
0.0
 40
0.5
100
AcDbArc
 50
90.0
 51
180.0
  0
LINE
  5
565
330
1D
100
AcDbEntity
  8
BLACK
  6
Continuous
100
AcDbLine
 10
270.78
 20
-33.24
 30
0.0
 11
257.18
 21
-33.24
 31
0.0
  0
ARC
  5
566
330
1D
100
AcDbEntity
  8
BLACK
100
AcDbCircle
 10
270.78
 20
-33.74
 30
0.0
 40
0.5
100
AcDbArc
 50
0.0
 51
90.0
  0
LINE
  5
567
330
1D
100
AcDbEntity
  8
BLACK
  6
Continuous
100
AcDbLine
 10
271.28
 20
-46.73999999999999
 30
0.0
 11
271.28
 21
-33.74
 31
0.0
  0
ARC
  5
568
330
1D
100
AcDbEntity
  8
BLACK
100
AcDbCircle
 10
251.73
 20
-46.73999999999999
 30
0.0
 40
0.499999
100
AcDbArc
 50
270.0
 51
0.0
  0
LINE
  5
569
330
1D
100
AcDbEntity
  8
BLACK
  6
Continuous
100
AcDbLine
 10
238.13
 20
-47.23999999999999
 30
0.0
 11
251.73
 21
-47.23999999999999
 31
0.0
  0
ARC
  5
56A
330
1D
100
AcDbEntity
  8
BLACK
100
AcDbCircle
 10
238.13
 20
-46.73999999999999
 30
0.0
 40
0.5
100
AcDbArc
 50
180.0
 51
270.0
  0
LINE
  5
56B
330
1D
100
AcDbEntity
  8
BLACK
  6
Continuous
100
AcDbLine
 10
237.629999
 20
-33.74
 30
0.0
 11
237.629999
 21
-46.73999999999999
 31
0.0
  0
ARC
  5
56C
330
1D
100
AcDbEntity
  8
BLACK
100
AcDbCircle
 10
238.13
 20
-33.74
 30
0.0
 40
0.500001
100
AcDbArc
 50
90.0
 51
180.0
  0
LINE
  5
56D
330
1D
100
AcDbEntity
  8
BLACK
  6
Continuous
100
AcDbLine
 10
251.73
 20
-33.24
 30
0.0
 11
238.13
 21
-33.24
 31
0.0
  0
ARC
  5
56E
330
1D
100
AcDbEntity
  8
BLACK
100
AcDbCircle
 10
251.73
 20
-33.74
 30
0.0
 40
0.5
100
AcDbArc
 50
0.0
 51
90.0
  0
LINE
  5
56F
330
1D
100
AcDbEntity
  8
BLACK
  6
Continuous
100
AcDbLine
 10
252.229999
 20
-46.73999999999999
 30
0.0
 11
252.229999
 21
-33.74
 31
0.0
  0
ARC
  5
570
330
1D
100
AcDbEntity
  8
BLACK
100
AcDbCircle
 10
73.92999999999999
 20
-48.0118
 30
0.0
 40
0.4999684494545631
100
AcDbArc
 50
257.99996199
 51
348.00003347
  0
LINE
  5
571
330
1D
100
AcDbEntity
  8
BLACK
  6
Continuous
100
AcDbLine
 10
60.52323
 20
-45.673239
 30
0.0
 11
73.82605099999999
 21
-48.50084
 31
0.0
  0
ARC
  5
572
330
1D
100
AcDbEntity
  8
BLACK
100
AcDbCircle
 10
60.62719999999999
 20
-45.1841
 30
0.0
 40
0.5000667177697392
100
AcDbArc
 50
167.99761243
 51
257.9999668299999
  0
LINE
  5
573
330
1D
100
AcDbEntity
  8
BLACK
  6
Continuous
100
AcDbLine
 10
62.840956
 20
-32.36425
 30
0.0
 11
60.13811399999999
 21
-45.08012
 31
0.0
  0
ARC
  5
574
330
1D
100
AcDbEntity
  8
BLACK
100
AcDbCircle
 10
63.33
 20
-32.4682
 30
0.0
 40
0.499969635513998
100
AcDbArc
 50
78.30311972
 51
167.9999452
  0
LINE
  5
575
330
1D
100
AcDbEntity
  8
BLACK
  6
Continuous
100
AcDbLine
 10
76.736769
 20
-34.806764
 30
0.0
 11
63.431361
 21
-31.978612
 31
0.0
  0
ARC
  5
576
330
1D
100
AcDbEntity
  8
BLACK
100
AcDbCircle
 10
76.6328
 20
-35.2959
 30
0.0
 40
0.5000635754151666
100
AcDbArc
 50
347.99765303
 51
78.00000744
  0
LINE
  5
577
330
1D
100
AcDbEntity
  8
BLACK
  6
Continuous
100
AcDbLine
 10
74.419043
 20
-48.115749
 30
0.0
 11
77.121884
 21
-35.399879
 31
0.0
  0
LINE
  5
578
330
1D
100
AcDbEntity
  8
BLACK
  6
Continuous
100
AcDbLine
 10
-15.029998
 20
-45.099999
 30
0.0
 11
-1.43
 21
-45.099999
 31
0.0
  0
ARC
  5
579
330
1D
100
AcDbEntity
  8
BLACK
100
AcDbCircle
 10
-15.029998
 20
-44.599998
 30
0.0
 40
0.500001
100
AcDbArc
 50
180.0
 51
270.0
  0
LINE
  5
57A
330
1D
100
AcDbEntity
  8
BLACK
  6
Continuous
100
AcDbLine
 10
-15.529999
 20
-31.6
 30
0.0
 11
-15.529999
 21
-44.599998
 31
0.0
  0
ARC
  5
57B
330
1D
100
AcDbEntity
  8
BLACK
100
AcDbCircle
 10
-15.029998
 20
-31.6
 30
0.0
 40
0.500001
100
AcDbArc
 50
90.0
 51
180.0
  0
LINE
  5
57C
330
1D
100
AcDbEntity
  8
BLACK
  6
Continuous
100
AcDbLine
 10
-1.43
 20
-31.099999
 30
0.0
 11
-15.029998
 21
-31.099999
 31
0.0
  0
ARC
  5
57D
330
1D
100
AcDbEntity
  8
BLACK
100
AcDbCircle
 10
-1.43
 20
-31.6
 30
0.0
 40
0.500001
100
AcDbArc
 50
0.0
 51
90.0
  0
LINE
  5
57E
330
1D
100
AcDbEntity
  8
BLACK
  6
Continuous
100
AcDbLine
 10
-0.9299989999999999
 20
-44.599998
 30
0.0
 11
-0.9299989999999999
 21
-31.6
 31
0.0
  0
ARC
  5
57F
330
1D
100
AcDbEntity
  8
BLACK
100
AcDbCircle
 10
-1.43
 20
-44.599998
 30
0.0
 40
0.500001
100
AcDbArc
 50
270.0
 51
0.0
  0
LINE
  5
582
330
1D
100
AcDbEntity
  8
BLACK
  6
Continuous
100
AcDbLine
 10
3.14
 20
-25.55
 30
0.0
 11
3.14
 21
-12.55
 31
0.0
  0
ARC
  5
583
330
1D
100
AcDbEntity
  8
BLACK
100
AcDbCircle
 10
2.64
 20
-25.55
 30
0.0
 40
0.5
100
AcDbArc
 50
270.0
 51
0.0
  0
LINE
  5
584
330
1D
100
AcDbEntity
  8
BLACK
  6
Continuous
100
AcDbLine
 10
-10.959999
 20
-26.049999
 30
0.0
 11
2.64
 21
-26.049999
 31
0.0
  0
ARC
  5
585
330
1D
100
AcDbEntity
  8
BLACK
100
AcDbCircle
 10
-10.959999
 20
-25.549998
 30
0.0
 40
0.500001
100
AcDbArc
 50
180.0
 51
270.0
  0
LINE
  5
586
330
1D
100
AcDbEntity
  8
BLACK
  6
Continuous
100
AcDbLine
 10
-11.46
 20
-12.55
 30
0.0
 11
-11.46
 21
-25.549998
 31
0.0
  0
ARC
  5
587
330
1D
100
AcDbEntity
  8
BLACK
100
AcDbCircle
 10
-10.959999
 20
-12.55
 30
0.0
 40
0.500001
100
AcDbArc
 50
90.0
 51
180.0
  0
LINE
  5
588
330
1D
100
AcDbEntity
  8
BLACK
  6
Continuous
100
AcDbLine
 10
2.64
 20
-12.049999
 30
0.0
 11
-10.959999
 21
-12.049999
 31
0.0
  0
ARC
  5
589
330
1D
100
AcDbEntity
  8
BLACK
100
AcDbCircle
 10
2.64
 20
-12.55
 30
0.0
 40
0.500001
100
AcDbArc
 50
0.0
 51
90.0
  0
LINE
  5
58A
330
1D
100
AcDbEntity
  8
BLACK
  6
Continuous
100
AcDbLine
 10
86.82463399999999
 20
-56.935125
 30
0.0
 11
84.11997699999999
 21
-69.659538
 31
0.0
  0
ARC
  5
58B
330
1D
100
AcDbEntity
  8
BLACK
100
AcDbCircle
 10
87.3138
 20
-57.03899999999999
 30
0.0
 40
0.5000733857955251
100
AcDbArc
 50
77.99755506
 51
168.01125675
  0
LINE
  5
58C
330
1D
100
AcDbEntity
  8
BLACK
  6
Continuous
100
AcDbLine
 10
100.720466
 20
-59.377477
 30
0.0
 11
87.417782
 21
-56.549905
 31
0.0
  0
ARC
  5
58D
330
1D
100
AcDbEntity
  8
BLACK
100
AcDbCircle
 10
100.6165
 20
-59.8666
 30
0.0
 40
0.5000502357613683
100
AcDbArc
 50
348.49951284
 51
78.00003397
  0
LINE
  5
58E
330
1D
100
AcDbEntity
  8
BLACK
  6
Continuous
100
AcDbLine
 10
98.40275799999999
 20
-72.686452
 30
0.0
 11
101.10651
 21
-59.96629799999999
 31
0.0
  0
ARC
  5
58F
330
1D
100
AcDbEntity
  8
BLACK
100
AcDbCircle
 10
97.91369999999999
 20
-72.5825
 30
0.0
 40
0.4999837454037881
100
AcDbArc
 50
257.9999592799999
 51
348.00005458
  0
LINE
  5
590
330
1D
100
AcDbEntity
  8
BLACK
  6
Continuous
100
AcDbLine
 10
84.507003
 20
-70.24396899999999
 30
0.0
 11
97.809748
 21
-73.07155399999999
 31
0.0
  0
ARC
  5
591
330
1D
100
AcDbEntity
  8
BLACK
100
AcDbCircle
 10
84.61099999999999
 20
-69.7547
 30
0.0
 40
0.500199490573511
100
AcDbArc
 50
169.03184622
 51
258.00003769
  0
LINE
  5
593
330
1D
100
AcDbEntity
  8
BLACK
  6
Continuous
100
AcDbLine
 10
82.08667299999999
 20
-55.416743
 30
0.0
 11
68.781361
 21
-52.588612
 31
0.0
  0
ARC
  5
594
330
1D
100
AcDbEntity
  8
BLACK
100
AcDbCircle
 10
81.9828
 20
-55.9059
 30
0.0
 40
0.5000641666606397
100
AcDbArc
 50
347.99765303
 51
78.01126670999999
  0
LINE
  5
595
330
1D
100
AcDbEntity
  8
BLACK
  6
Continuous
100
AcDbLine
 10
79.769043
 20
-68.725749
 30
0.0
 11
82.471884
 21
-56.009879
 31
0.0
  0
ARC
  5
596
330
1D
100
AcDbEntity
  8
BLACK
100
AcDbCircle
 10
79.28
 20
-68.6218
 30
0.0
 40
0.4999684494545631
100
AcDbArc
 50
257.99996199
 51
348.00003347
  0
LINE
  5
597
330
1D
100
AcDbEntity
  8
BLACK
  6
Continuous
100
AcDbLine
 10
65.87332599999999
 20
-66.283259
 30
0.0
 11
79.176051
 21
-69.11084
 31
0.0
  0
ARC
  5
598
330
1D
100
AcDbEntity
  8
BLACK
100
AcDbCircle
 10
65.9772
 20
-65.7941
 30
0.0
 40
0.5000663307572306
100
AcDbArc
 50
167.99761243
 51
258.01120223
  0
LINE
  5
599
330
1D
100
AcDbEntity
  8
BLACK
  6
Continuous
100
AcDbLine
 10
68.190956
 20
-52.97425
 30
0.0
 11
65.488114
 21
-65.69012
 31
0.0
  0
ARC
  5
59A
330
1D
100
AcDbEntity
  8
BLACK
100
AcDbCircle
 10
68.67999999999999
 20
-53.0782
 30
0.0
 40
0.499969635513998
100
AcDbArc
 50
78.30311972
 51
167.9999452
  0
ARC
  5
59B
330
1D
100
AcDbEntity
  8
BLACK
100
AcDbCircle
 10
54.9263
 20
-46.73999999999999
 30
0.0
 40
0.499949
100
AcDbArc
 50
269.99415582
 51
0.0
  0
LINE
  5
59C
330
1D
100
AcDbEntity
  8
BLACK
  6
Continuous
100
AcDbLine
 10
41.3263
 20
-47.239999
 30
0.0
 11
54.926249
 21
-47.239999
 31
0.0
  0
ARC
  5
59D
330
1D
100
AcDbEntity
  8
BLACK
100
AcDbCircle
 10
41.3264
 20
-46.7398
 30
0.0
 40
0.5001990099960214
100
AcDbArc
 50
180.79680686
 51
269.9885454
  0
LINE
  5
59E
330
1D
100
AcDbEntity
  8
BLACK
  6
Continuous
100
AcDbLine
 10
40.826249
 20
-33.74
 30
0.0
 11
40.826249
 21
-46.746756
 31
0.0
  0
ARC
  5
59F
330
1D
100
AcDbEntity
  8
BLACK
100
AcDbCircle
 10
41.3262
 20
-33.74
 30
0.0
 40
0.499951
100
AcDbArc
 50
89.99438502
 51
180.0
  0
LINE
  5
5A0
330
1D
100
AcDbEntity
  8
BLACK
  6
Continuous
100
AcDbLine
 10
54.9261
 20
-33.239999
 30
0.0
 11
41.326249
 21
-33.239999
 31
0.0
  0
ARC
  5
5A1
330
1D
100
AcDbEntity
  8
BLACK
100
AcDbCircle
 10
54.9261
 20
-33.7402
 30
0.0
 40
0.500201
100
AcDbArc
 50
0.8374696599999999
 51
90.0
  0
LINE
  5
5A2
330
1D
100
AcDbEntity
  8
BLACK
  6
Continuous
100
AcDbLine
 10
55.426249
 20
-46.73999999999999
 30
0.0
 11
55.426249
 21
-33.732889
 31
0.0
  0
ARC
  5
5A4
330
1D
100
AcDbEntity
  8
BLACK
100
AcDbCircle
 10
280.79
 20
-14.69
 30
0.0
 40
0.5
100
AcDbArc
 50
0.0
 51
90.0
  0
LINE
  5
5A5
330
1D
100
AcDbEntity
  8
BLACK
  6
Continuous
100
AcDbLine
 10
281.29
 20
-27.69
 30
0.0
 11
281.29
 21
-14.69
 31
0.0
  0
ARC
  5
5A6
330
1D
100
AcDbEntity
  8
BLACK
100
AcDbCircle
 10
280.79
 20
-27.69
 30
0.0
 40
0.5
100
AcDbArc
 50
270.0
 51
0.0
  0
LINE
  5
5A7
330
1D
100
AcDbEntity
  8
BLACK
  6
Continuous
100
AcDbLine
 10
267.19
 20
-28.19
 30
0.0
 11
280.79
 21
-28.19
 31
0.0
  0
ARC
  5
5A8
330
1D
100
AcDbEntity
  8
BLACK
100
AcDbCircle
 10
267.19
 20
-27.69
 30
0.0
 40
0.5
100
AcDbArc
 50
180.0
 51
270.0
  0
LINE
  5
5A9
330
1D
100
AcDbEntity
  8
BLACK
  6
Continuous
100
AcDbLine
 10
266.69
 20
-14.69
 30
0.0
 11
266.69
 21
-27.69
 31
0.0
  0
ARC
  5
5AA
330
1D
100
AcDbEntity
  8
BLACK
100
AcDbCircle
 10
267.19
 20
-14.69
 30
0.0
 40
0.5
100
AcDbArc
 50
90.0
 51
180.0
  0
LINE
  5
5AB
330
1D
100
AcDbEntity
  8
BLACK
  6
Continuous
100
AcDbLine
 10
280.79
 20
-14.19
 30
0.0
 11
267.19
 21
-14.19
 31
0.0
  0
ARC
  5
5AC
330
1D
100
AcDbEntity
  8
BLACK
100
AcDbCircle
 10
81.96379999999999
 20
-36.42899999999999
 30
0.0
 40
0.5000733857955251
100
AcDbArc
 50
77.99755506
 51
168.01125675
  0
LINE
  5
5AD
330
1D
100
AcDbEntity
  8
BLACK
  6
Continuous
100
AcDbLine
 10
95.370466
 20
-38.767477
 30
0.0
 11
82.067782
 21
-35.939905
 31
0.0
  0
ARC
  5
5AE
330
1D
100
AcDbEntity
  8
BLACK
100
AcDbCircle
 10
95.2665
 20
-39.2566
 30
0.0
 40
0.5000502357613683
100
AcDbArc
 50
348.49951284
 51
78.00003397
  0
LINE
  5
5AF
330
1D
100
AcDbEntity
  8
BLACK
  6
Continuous
100
AcDbLine
 10
93.052758
 20
-52.076452
 30
0.0
 11
95.75650999999999
 21
-39.356298
 31
0.0
  0
ARC
  5
5B0
330
1D
100
AcDbEntity
  8
BLACK
100
AcDbCircle
 10
92.5637
 20
-51.9725
 30
0.0
 40
0.4999837454037881
100
AcDbArc
 50
257.9999592799999
 51
348.00005458
  0
LINE
  5
5B1
330
1D
100
AcDbEntity
  8
BLACK
  6
Continuous
100
AcDbLine
 10
79.157003
 20
-49.633969
 30
0.0
 11
92.45974799999999
 21
-52.461554
 31
0.0
  0
ARC
  5
5B2
330
1D
100
AcDbEntity
  8
BLACK
100
AcDbCircle
 10
79.261
 20
-49.1447
 30
0.0
 40
0.500199490573511
100
AcDbArc
 50
169.03184622
 51
258.00003769
  0
LINE
  5
5B3
330
1D
100
AcDbEntity
  8
BLACK
  6
Continuous
100
AcDbLine
 10
81.474634
 20
-36.325125
 30
0.0
 11
78.769977
 21
-49.049538
 31
0.0
  0
ARC
  5
5B4
330
1D
100
AcDbEntity
  8
BLACK
100
AcDbCircle
 10
229.18
 20
-73.06819999999999
 30
0.0
 40
0.499964536864366
100
AcDbArc
 50
11.99996653
 51
102.00006184
  0
LINE
  5
5B5
330
1D
100
AcDbEntity
  8
BLACK
  6
Continuous
100
AcDbLine
 10
232.371913
 20
-85.680257
 30
0.0
 11
229.669043
 21
-72.96425099999999
 31
0.0
  0
ARC
  5
5B6
330
1D
100
AcDbEntity
  8
BLACK
100
AcDbCircle
 10
231.8829
 20
-85.7842
 30
0.0
 40
0.4999378575563167
100
AcDbArc
 50
281.99300661
 51
12.00000876
  0
LINE
  5
5B7
330
1D
100
AcDbEntity
  8
BLACK
  6
Continuous
100
AcDbLine
 10
218.683948
 20
-89.100839
 30
0.0
 11
231.986785
 21
-86.273234
 31
0.0
  0
ARC
  5
5B8
330
1D
100
AcDbEntity
  8
BLACK
100
AcDbCircle
 10
218.58
 20
-88.6118
 30
0.0
 40
0.4999643289525764
100
AcDbArc
 50
191.99594089
 51
281.9999497400001
  0
LINE
  5
5B9
330
1D
100
AcDbEntity
  8
BLACK
  6
Continuous
100
AcDbLine
 10
215.388085
 20
-75.999743
 30
0.0
 11
218.090948
 21
-88.715715
 31
0.0
  0
ARC
  5
5BA
330
1D
100
AcDbEntity
  8
BLACK
100
AcDbCircle
 10
215.8771
 20
-75.8958
 30
0.0
 40
0.4999398138516275
100
AcDbArc
 50
101.99323081
 51
191.9999611
  0
LINE
  5
5BB
330
1D
100
AcDbEntity
  8
BLACK
  6
Continuous
100
AcDbLine
 10
229.076051
 20
-72.579161
 30
0.0
 11
215.773213
 21
-75.40676599999999
 31
0.0
  0
ARC
  5
5BC
330
1D
100
AcDbEntity
  8
BLACK
100
AcDbCircle
 10
6.8
 20
6.5
 30
0.0
 40
0.5
100
AcDbArc
 50
0.0
 51
90.0
  0
LINE
  5
5BD
330
1D
100
AcDbEntity
  8
BLACK
  6
Continuous
100
AcDbLine
 10
7.3
 20
-6.5
 30
0.0
 11
7.3
 21
6.5
 31
0.0
  0
ARC
  5
5BE
330
1D
100
AcDbEntity
  8
BLACK
100
AcDbCircle
 10
6.8
 20
-6.5
 30
0.0
 40
0.5
100
AcDbArc
 50
270.0
 51
0.0
  0
LINE
  5
5BF
330
1D
100
AcDbEntity
  8
BLACK
  6
Continuous
100
AcDbLine
 10
-6.799999
 20
-7.0
 30
0.0
 11
6.8
 21
-7.0
 31
0.0
  0
ARC
  5
5C0
330
1D
100
AcDbEntity
  8
BLACK
100
AcDbCircle
 10
-6.799999
 20
-6.499999
 30
0.0
 40
0.500001
100
AcDbArc
 50
180.0
 51
270.0
  0
LINE
  5
5C1
330
1D
100
AcDbEntity
  8
BLACK
  6
Continuous
100
AcDbLine
 10
-7.3
 20
6.499999
 30
0.0
 11
-7.3
 21
-6.499999
 31
0.0
  0
ARC
  5
5C2
330
1D
100
AcDbEntity
  8
BLACK
100
AcDbCircle
 10
-6.799999
 20
6.499999
 30
0.0
 40
0.500001
100
AcDbArc
 50
90.0
 51
180.0
  0
LINE
  5
5C3
330
1D
100
AcDbEntity
  8
BLACK
  6
Continuous
100
AcDbLine
 10
6.8
 20
7.0
 30
0.0
 11
-6.799999
 21
7.0
 31
0.0
  0
ARC
  5
5C4
330
1D
100
AcDbEntity
  8
BLACK
100
AcDbCircle
 10
111.1974
 20
-55.9332
 30
0.0
 40
0.4999992492644364
100
AcDbArc
 50
257.9999636
 51
347.9999636
  0
LINE
  5
5C5
330
1D
100
AcDbEntity
  8
BLACK
  6
Continuous
100
AcDbLine
 10
97.790645
 20
-53.594672
 30
0.0
 11
111.093445
 21
-56.422269
 31
0.0
  0
ARC
  5
5C6
330
1D
100
AcDbEntity
  8
BLACK
100
AcDbCircle
 10
97.8946
 20
-53.1056
 30
0.0
 40
0.4999980632052488
100
AcDbArc
 50
167.99968203
 51
258.00005187
  0
LINE
  5
5C7
330
1D
100
AcDbEntity
  8
BLACK
  6
Continuous
100
AcDbLine
 10
100.108349
 20
-40.285828
 30
0.0
 11
97.40552
 21
-53.00163999999999
 31
0.0
  0
ARC
  5
5C8
330
1D
100
AcDbEntity
  8
BLACK
100
AcDbCircle
 10
100.5975
 20
-40.3897
 30
0.0
 40
0.5000580898105739
100
AcDbArc
 50
77.99762214
 51
168.01123599
  0
LINE
  5
5C9
330
1D
100
AcDbEntity
  8
BLACK
  6
Continuous
100
AcDbLine
 10
114.004238
 20
-42.728208
 30
0.0
 11
100.701479
 21
-39.900619
 31
0.0
  0
ARC
  5
5CA
330
1D
100
AcDbEntity
  8
BLACK
100
AcDbCircle
 10
113.9003
 20
-43.2172
 30
0.0
 40
0.4999162768984422
100
AcDbArc
 50
348.56367608
 51
78.00005136999998
  0
LINE
  5
5CB
330
1D
100
AcDbEntity
  8
BLACK
  6
Continuous
100
AcDbLine
 10
111.686473
 20
-56.037156
 30
0.0
 11
114.390366
 21
-43.31633799999999
 31
0.0
  0
ARC
  5
5CC
330
1D
100
AcDbEntity
  8
BLACK
100
AcDbCircle
 10
10.3701
 20
-46.73999999999999
 30
0.0
 40
0.499999
100
AcDbArc
 50
180.0
 51
270.0
  0
LINE
  5
5CD
330
1D
100
AcDbEntity
  8
BLACK
  6
Continuous
100
AcDbLine
 10
9.870099
 20
-33.74
 30
0.0
 11
9.870099
 21
-46.73999999999999
 31
0.0
  0
ARC
  5
5CE
330
1D
100
AcDbEntity
  8
BLACK
100
AcDbCircle
 10
10.3701
 20
-33.74
 30
0.0
 40
0.500001
100
AcDbArc
 50
90.0
 51
180.0
  0
LINE
  5
5CF
330
1D
100
AcDbEntity
  8
BLACK
  6
Continuous
100
AcDbLine
 10
28.7325
 20
-33.239999
 30
0.0
 11
10.3701
 21
-33.239999
 31
0.0
  0
ARC
  5
5D0
330
1D
100
AcDbEntity
  8
BLACK
100
AcDbCircle
 10
28.7325
 20
-33.74
 30
0.0
 40
0.500001
100
AcDbArc
 50
0.0
 51
90.0
  0
LINE
  5
5D1
330
1D
100
AcDbEntity
  8
BLACK
  6
Continuous
100
AcDbLine
 10
29.232499
 20
-46.73999999999999
 30
0.0
 11
29.232499
 21
-33.74
 31
0.0
  0
ARC
  5
5D2
330
1D
100
AcDbEntity
  8
BLACK
100
AcDbCircle
 10
28.7325
 20
-46.73999999999999
 30
0.0
 40
0.499999
100
AcDbArc
 50
270.0
 51
0.0
  0
LINE
  5
5D3
330
1D
100
AcDbEntity
  8
BLACK
  6
Continuous
100
AcDbLine
 10
10.3701
 20
-47.239999
 30
0.0
 11
28.7325
 21
-47.239999
 31
0.0
  0
LINE
  5
5D4
330
1D
100
AcDbEntity
  8
BLACK
  6
Continuous
100
AcDbLine
 10
38.529999
 20
-64.532999
 30
0.0
 11
35.529999
 21
-66.264999
 31
0.0
  0
LINE
  5
5D5
330
1D
100
AcDbEntity
  8
BLACK
  6
Continuous
100
AcDbLine
 10
38.529999
 20
-52.815
 30
0.0
 11
38.529999
 21
-64.532999
 31
0.0
  0
ARC
  5
5D6
330
1D
100
AcDbEntity
  8
BLACK
100
AcDbCircle
 10
38.03
 20
-52.815
 30
0.0
 40
0.500001
100
AcDbArc
 50
0.0
 51
90.0
  0
LINE
  5
5D7
330
1D
100
AcDbEntity
  8
BLACK
  6
Continuous
100
AcDbLine
 10
7.029999999999999
 20
-52.314999
 30
0.0
 11
38.03
 21
-52.314999
 31
0.0
  0
ARC
  5
5D8
330
1D
100
AcDbEntity
  8
BLACK
100
AcDbCircle
 10
7.029999999999999
 20
-52.815
 30
0.0
 40
0.500001
100
AcDbArc
 50
90.0
 51
180.0
  0
LINE
  5
5D9
330
1D
100
AcDbEntity
  8
BLACK
  6
Continuous
100
AcDbLine
 10
6.529999
 20
-64.532999
 30
0.0
 11
6.529999
 21
-52.815
 31
0.0
  0
LINE
  5
5DA
330
1D
100
AcDbEntity
  8
BLACK
  6
Continuous
100
AcDbLine
 10
9.529999
 20
-66.264999
 30
0.0
 11
6.529999
 21
-64.532999
 31
0.0
  0
LINE
  5
5DB
330
1D
100
AcDbEntity
  8
BLACK
  6
Continuous
100
AcDbLine
 10
35.529999
 20
-66.264999
 30
0.0
 11
9.529999
 21
-66.264999
 31
0.0
  0
ARC
  5
5DC
330
1D
100
AcDbEntity
  8
BLACK
100
AcDbCircle
 10
224.37
 20
-53.0782
 30
0.0
 40
0.4999655150117856
100
AcDbArc
 50
11.99996653
 51
102.00003801
  0
LINE
  5
5DD
330
1D
100
AcDbEntity
  8
BLACK
  6
Continuous
100
AcDbLine
 10
227.561913
 20
-65.690257
 30
0.0
 11
224.859043
 21
-52.974251
 31
0.0
  0
ARC
  5
5DE
330
1D
100
AcDbEntity
  8
BLACK
100
AcDbCircle
 10
227.0729
 20
-65.7942
 30
0.0
 40
0.4999378575563167
100
AcDbArc
 50
281.99303042
 51
12.00000876
  0
LINE
  5
5DF
330
1D
100
AcDbEntity
  8
BLACK
  6
Continuous
100
AcDbLine
 10
213.873948
 20
-69.110838
 30
0.0
 11
227.176785
 21
-66.283233
 31
0.0
  0
ARC
  5
5E0
330
1D
100
AcDbEntity
  8
BLACK
100
AcDbCircle
 10
213.77
 20
-68.6218
 30
0.0
 40
0.4999633508048364
100
AcDbArc
 50
191.9958288
 51
281.99997357
  0
LINE
  5
5E1
330
1D
100
AcDbEntity
  8
BLACK
  6
Continuous
100
AcDbLine
 10
210.578085
 20
-56.009743
 30
0.0
 11
213.280948
 21
-68.725714
 31
0.0
  0
ARC
  5
5E2
330
1D
100
AcDbEntity
  8
BLACK
100
AcDbCircle
 10
211.0671
 20
-55.9058
 30
0.0
 40
0.4999398138516275
100
AcDbArc
 50
101.993207
 51
191.9999611
  0
LINE
  5
5E3
330
1D
100
AcDbEntity
  8
BLACK
  6
Continuous
100
AcDbLine
 10
224.266051
 20
-52.58916
 30
0.0
 11
210.963213
 21
-55.416765
 31
0.0
  0
ARC
  5
5E4
330
1D
100
AcDbEntity
  8
BLACK
100
AcDbCircle
 10
8.5864
 20
-84.8398
 30
0.0
 40
0.5001990099960214
100
AcDbArc
 50
180.79680686
 51
269.9885454
  0
LINE
  5
5E5
330
1D
100
AcDbEntity
  8
BLACK
  6
Continuous
100
AcDbLine
 10
8.086249
 20
-71.83995999999999
 30
0.0
 11
8.086249
 21
-84.846756
 31
0.0
  0
ARC
  5
5E6
330
1D
100
AcDbEntity
  8
BLACK
100
AcDbCircle
 10
8.58621
 20
-71.83995999999999
 30
0.0
 40
0.499961
100
AcDbArc
 50
90.0
 51
180.0
  0
LINE
  5
5E7
330
1D
100
AcDbEntity
  8
BLACK
  6
Continuous
100
AcDbLine
 10
22.1862
 20
-71.33999899999999
 30
0.0
 11
8.58621
 21
-71.33999899999999
 31
0.0
  0
ARC
  5
5E8
330
1D
100
AcDbEntity
  8
BLACK
100
AcDbCircle
 10
22.1861
 20
-71.8402
 30
0.0
 40
0.5002010099959815
100
AcDbArc
 50
0.8374696599999999
 51
89.98854545
  0
LINE
  5
5E9
330
1D
100
AcDbEntity
  8
BLACK
  6
Continuous
100
AcDbLine
 10
22.686249
 20
-84.83999999999999
 30
0.0
 11
22.686249
 21
-71.832889
 31
0.0
  0
ARC
  5
5EA
330
1D
100
AcDbEntity
  8
BLACK
100
AcDbCircle
 10
22.1863
 20
-84.83999999999999
 30
0.0
 40
0.499949
100
AcDbArc
 50
269.99415582
 51
0.0
  0
LINE
  5
5EB
330
1D
100
AcDbEntity
  8
BLACK
  6
Continuous
100
AcDbLine
 10
8.5863
 20
-85.33999899999999
 30
0.0
 11
22.186249
 21
-85.33999899999999
 31
0.0
  0
ARC
  5
5EC
330
1D
100
AcDbEntity
  8
BLACK
100
AcDbCircle
 10
215.87
 20
-9.7518
 30
0.0
 40
0.4999643289525764
100
AcDbArc
 50
191.99594089
 51
281.9999497400001
  0
LINE
  5
5ED
330
1D
100
AcDbEntity
  8
BLACK
  6
Continuous
100
AcDbLine
 10
212.678085
 20
2.860257
 30
0.0
 11
215.380948
 21
-9.855715
 31
0.0
  0
ARC
  5
5EE
330
1D
100
AcDbEntity
  8
BLACK
100
AcDbCircle
 10
213.1671
 20
2.9642
 30
0.0
 40
0.4999398138516275
100
AcDbArc
 50
101.99323081
 51
191.9999611
  0
LINE
  5
5EF
330
1D
100
AcDbEntity
  8
BLACK
  6
Continuous
100
AcDbLine
 10
226.366051
 20
6.280838999999999
 30
0.0
 11
213.063213
 21
3.453234
 31
0.0
  0
ARC
  5
5F0
330
1D
100
AcDbEntity
  8
BLACK
100
AcDbCircle
 10
226.47
 20
5.791799999999999
 30
0.0
 40
0.499964536864366
100
AcDbArc
 50
11.99996653
 51
102.00006184
  0
LINE
  5
5F1
330
1D
100
AcDbEntity
  8
BLACK
  6
Continuous
100
AcDbLine
 10
229.661913
 20
-6.820257
 30
0.0
 11
226.959043
 21
5.895748999999999
 31
0.0
  0
ARC
  5
5F2
330
1D
100
AcDbEntity
  8
BLACK
100
AcDbCircle
 10
229.1729
 20
-6.9242
 30
0.0
 40
0.4999378575563167
100
AcDbArc
 50
281.99300661
 51
12.00000876
  0
LINE
  5
5F3
330
1D
100
AcDbEntity
  8
BLACK
  6
Continuous
100
AcDbLine
 10
215.973948
 20
-10.240839
 30
0.0
 11
229.276785
 21
-7.413234
 31
0.0
  0
ARC
  5
5F4
330
1D
100
AcDbEntity
  8
BLACK
100
AcDbCircle
 10
223.8129
 20
-27.5342
 30
0.0
 40
0.4999388357039289
100
AcDbArc
 50
281.99314252
 51
11.99998493
  0
LINE
  5
5F5
330
1D
100
AcDbEntity
  8
BLACK
  6
Continuous
100
AcDbLine
 10
210.613948
 20
-30.850838
 30
0.0
 11
223.916786
 21
-28.023233
 31
0.0
  0
ARC
  5
5F6
330
1D
100
AcDbEntity
  8
BLACK
100
AcDbCircle
 10
210.51
 20
-30.3618
 30
0.0
 40
0.4999633508048364
100
AcDbArc
 50
191.99585261
 51
281.99997357
  0
LINE
  5
5F7
330
1D
100
AcDbEntity
  8
BLACK
  6
Continuous
100
AcDbLine
 10
207.318086
 20
-17.749743
 30
0.0
 11
210.020949
 21
-30.465714
 31
0.0
  0
ARC
  5
5F8
330
1D
100
AcDbEntity
  8
BLACK
100
AcDbCircle
 10
207.8071
 20
-17.6458
 30
0.0
 40
0.4999388357039289
100
AcDbArc
 50
101.9930949
 51
191.99998493
  0
LINE
  5
5F9
330
1D
100
AcDbEntity
  8
BLACK
  6
Continuous
100
AcDbLine
 10
221.006051
 20
-14.32916
 30
0.0
 11
207.703214
 21
-17.156765
 31
0.0
  0
ARC
  5
5FA
330
1D
100
AcDbEntity
  8
BLACK
100
AcDbCircle
 10
221.11
 20
-14.8182
 30
0.0
 40
0.4999655150117856
100
AcDbArc
 50
11.9999427
 51
102.00003801
  0
LINE
  5
5FB
330
1D
100
AcDbEntity
  8
BLACK
  6
Continuous
100
AcDbLine
 10
224.301914
 20
-27.430257
 30
0.0
 11
221.599044
 21
-14.714251
 31
0.0
  0
ARC
  5
5FC
330
1D
100
AcDbEntity
  8
BLACK
100
AcDbCircle
 10
229.73
 20
-32.4682
 30
0.0
 40
0.499964536864366
100
AcDbArc
 50
11.9999427
 51
102.00006184
  0
LINE
  5
5FD
330
1D
100
AcDbEntity
  8
BLACK
  6
Continuous
100
AcDbLine
 10
232.921914
 20
-45.080257
 30
0.0
 11
230.219044
 21
-32.364251
 31
0.0
  0
ARC
  5
5FE
330
1D
100
AcDbEntity
  8
BLACK
100
AcDbCircle
 10
232.4329
 20
-45.1842
 30
0.0
 40
0.4999388357039289
100
AcDbArc
 50
281.99311871
 51
11.99998493
  0
LINE
  5
5FF
330
1D
100
AcDbEntity
  8
BLACK
  6
Continuous
100
AcDbLine
 10
219.233949
 20
-48.500839
 30
0.0
 11
232.536786
 21
-45.673234
 31
0.0
  0
ARC
  5
600
330
1D
100
AcDbEntity
  8
BLACK
100
AcDbCircle
 10
219.13
 20
-48.0118
 30
0.0
 40
0.499964536864366
100
AcDbArc
 50
191.99596471
 51
282.00006184
  0
LINE
  5
601
330
1D
100
AcDbEntity
  8
BLACK
  6
Continuous
100
AcDbLine
 10
215.938086
 20
-35.399743
 30
0.0
 11
218.640949
 21
-48.11571499999999
 31
0.0
  0
ARC
  5
602
330
1D
100
AcDbEntity
  8
BLACK
100
AcDbCircle
 10
216.4271
 20
-35.2958
 30
0.0
 40
0.4999388357039289
100
AcDbArc
 50
101.99311871
 51
191.99998493
  0
LINE
  5
603
330
1D
100
AcDbEntity
  8
BLACK
  6
Continuous
100
AcDbLine
 10
229.626051
 20
-31.979161
 30
0.0
 11
216.323214
 21
-34.806766
 31
0.0
  0
LINE
  5
604
330
1D
100
AcDbEntity
  8
BLACK
  6
Continuous
100
AcDbLine
 10
156.776965
 20
-9.021969
 30
0.0
 11
159.479811
 21
-21.737859
 31
0.0
  0
ARC
  5
605
330
1D
100
AcDbEntity
  8
BLACK
100
AcDbCircle
 10
157.2661
 20
-8.918
 30
0.0
 40
0.5000625972675821
100
AcDbArc
 50
102.73362845
 51
192.00001639
  0
LINE
  5
606
330
1D
100
AcDbEntity
  8
BLACK
  6
Continuous
100
AcDbLine
 10
170.464824
 20
-5.601332999999999
 30
0.0
 11
157.155877
 21
-8.430237
 31
0.0
  0
ARC
  5
607
330
1D
100
AcDbEntity
  8
BLACK
100
AcDbCircle
 10
170.5688
 20
-6.0905
 30
0.0
 40
0.5000953533727344
100
AcDbArc
 50
12.65817097
 51
102.0000386
  0
LINE
  5
608
330
1D
100
AcDbEntity
  8
BLACK
  6
Continuous
100
AcDbLine
 10
173.760765
 20
-18.702346
 30
0.0
 11
171.056741
 21
-5.980912
 31
0.0
  0
ARC
  5
609
330
1D
100
AcDbEntity
  8
BLACK
100
AcDbCircle
 10
173.2717
 20
-18.8063
 30
0.0
 40
0.4999910082601486
100
AcDbArc
 50
281.99903035
 51
12.00000282
  0
LINE
  5
60A
330
1D
100
AcDbEntity
  8
BLACK
  6
Continuous
100
AcDbLine
 10
160.072858
 20
-22.122983
 30
0.0
 11
173.37565
 21
-19.295387
 31
0.0
  0
ARC
  5
60B
330
1D
100
AcDbEntity
  8
BLACK
100
AcDbCircle
 10
159.9689
 20
-21.6339
 30
0.0
 40
0.5000094465637624
100
AcDbArc
 50
192.00002232
 51
282.00002232
  0
LINE
  5
60C
330
1D
100
AcDbEntity
  8
BLACK
  6
Continuous
100
AcDbLine
 10
129.004341
 20
-21.275386
 30
0.0
 11
142.307142
 21
-24.102984
 31
0.0
  0
ARC
  5
60D
330
1D
100
AcDbEntity
  8
BLACK
100
AcDbCircle
 10
129.1083
 20
-20.7863
 30
0.0
 40
0.5000125889185191
100
AcDbArc
 50
168.52507273
 51
257.99993707
  0
LINE
  5
60E
330
1D
100
AcDbEntity
  8
BLACK
  6
Continuous
100
AcDbLine
 10
131.32208
 20
-7.966456
 30
0.0
 11
128.618282
 21
-20.686828
 31
0.0
  0
ARC
  5
60F
330
1D
100
AcDbEntity
  8
BLACK
100
AcDbCircle
 10
131.8111
 20
-8.0704
 30
0.0
 40
0.4999449125013675
100
AcDbArc
 50
77.99371778
 51
168.00004594
  0
LINE
  5
610
330
1D
100
AcDbEntity
  8
BLACK
  6
Continuous
100
AcDbLine
 10
145.217935
 20
-10.408923
 30
0.0
 11
131.915113
 21
-7.581321
 31
0.0
  0
ARC
  5
611
330
1D
100
AcDbEntity
  8
BLACK
100
AcDbCircle
 10
145.114
 20
-10.8979
 30
0.0
 40
0.4999009809492276
100
AcDbArc
 50
347.98859316
 51
78.00003025
  0
LINE
  5
612
330
1D
100
AcDbEntity
  8
BLACK
  6
Continuous
100
AcDbLine
 10
142.900188
 20
-23.717859
 30
0.0
 11
145.603038
 21
-11.00195
 31
0.0
  0
ARC
  5
613
330
1D
100
AcDbEntity
  8
BLACK
100
AcDbCircle
 10
142.4111
 20
-23.6139
 30
0.0
 40
0.5000145452134367
100
AcDbArc
 50
258.0000015
 51
347.99998472
  0
LINE
  5
614
330
1D
100
AcDbEntity
  8
BLACK
  6
Continuous
100
AcDbLine
 10
154.712858
 20
-42.732983
 30
0.0
 11
168.01565
 21
-39.905387
 31
0.0
  0
ARC
  5
615
330
1D
100
AcDbEntity
  8
BLACK
100
AcDbCircle
 10
154.6089
 20
-42.2439
 30
0.0
 40
0.5000094465637624
100
AcDbArc
 50
192.00002232
 51
282.00002232
  0
LINE
  5
616
330
1D
100
AcDbEntity
  8
BLACK
  6
Continuous
100
AcDbLine
 10
151.416965
 20
-29.631969
 30
0.0
 11
154.119811
 21
-42.347859
 31
0.0
  0
ARC
  5
617
330
1D
100
AcDbEntity
  8
BLACK
100
AcDbCircle
 10
151.9061
 20
-29.528
 30
0.0
 40
0.5000625972675821
100
AcDbArc
 50
102.73362845
 51
192.00001639
  0
LINE
  5
618
330
1D
100
AcDbEntity
  8
BLACK
  6
Continuous
100
AcDbLine
 10
165.104824
 20
-26.211333
 30
0.0
 11
151.795877
 21
-29.040237
 31
0.0
  0
ARC
  5
619
330
1D
100
AcDbEntity
  8
BLACK
100
AcDbCircle
 10
165.2088
 20
-26.7005
 30
0.0
 40
0.5000953533727344
100
AcDbArc
 50
12.64810553
 51
102.0000386
  0
LINE
  5
61A
330
1D
100
AcDbEntity
  8
BLACK
  6
Continuous
100
AcDbLine
 10
168.400765
 20
-39.312346
 30
0.0
 11
165.696759
 21
-26.590998
 31
0.0
  0
ARC
  5
61B
330
1D
100
AcDbEntity
  8
BLACK
100
AcDbCircle
 10
167.9117
 20
-39.4163
 30
0.0
 40
0.4999910082601486
100
AcDbArc
 50
281.99903035
 51
12.00000282
  0
LINE
  5
61D
330
1D
100
AcDbEntity
  8
BLACK
  6
Continuous
100
AcDbLine
 10
170.05068
 20
-25.671266
 30
0.0
 11
172.753525
 21
-38.38715
 31
0.0
  0
ARC
  5
61E
330
1D
100
AcDbEntity
  8
BLACK
100
AcDbCircle
 10
170.5398
 20
-25.5673
 30
0.0
 40
0.5000473013185852
100
AcDbArc
 50
102.36227163
 51
192.0000375
  0
LINE
  5
61F
330
1D
100
AcDbEntity
  8
BLACK
  6
Continuous
100
AcDbLine
 10
183.738658
 20
-22.250589
 30
0.0
 11
170.432744
 21
-25.078848
 31
0.0
  0
ARC
  5
620
330
1D
100
AcDbEntity
  8
BLACK
100
AcDbCircle
 10
183.8426
 20
-22.7396
 30
0.0
 40
0.4999356933496547
100
AcDbArc
 50
11.99998493
 51
101.99994431
  0
LINE
  5
621
330
1D
100
AcDbEntity
  8
BLACK
  6
Continuous
100
AcDbLine
 10
187.03448
 20
-35.351643
 30
0.0
 11
184.331614
 21
-22.635657
 31
0.0
  0
ARC
  5
622
330
1D
100
AcDbEntity
  8
BLACK
100
AcDbCircle
 10
186.5454
 20
-35.4556
 30
0.0
 40
0.500006304209257
100
AcDbArc
 50
282.34372593
 51
11.99998171
  0
LINE
  5
623
330
1D
100
AcDbEntity
  8
BLACK
  6
Continuous
100
AcDbLine
 10
173.346555
 20
-38.772268
 30
0.0
 11
186.652289
 21
-35.944046
 31
0.0
  0
ARC
  5
624
330
1D
100
AcDbEntity
  8
BLACK
100
AcDbCircle
 10
173.2426
 20
-38.2832
 30
0.0
 40
0.4999941506147846
100
AcDbArc
 50
191.99931622
 51
282.00004343
  0
ARC
  5
625
330
1D
100
AcDbEntity
  8
BLACK
100
AcDbCircle
 10
126.4803
 20
-6.9372
 30
0.0
 40
0.4999157048913346
100
AcDbArc
 50
348.5518548
 51
77.98878875
  0
LINE
  5
626
330
1D
100
AcDbEntity
  8
BLACK
  6
Continuous
100
AcDbLine
 10
124.266473
 20
-19.757156
 30
0.0
 11
126.970345
 21
-7.036439
 31
0.0
  0
ARC
  5
627
330
1D
100
AcDbEntity
  8
BLACK
100
AcDbCircle
 10
123.7774
 20
-19.6532
 30
0.0
 40
0.4999992492644364
100
AcDbArc
 50
257.9999636
 51
347.9999636
  0
LINE
  5
628
330
1D
100
AcDbEntity
  8
BLACK
  6
Continuous
100
AcDbLine
 10
110.370645
 20
-17.314672
 30
0.0
 11
123.673445
 21
-20.142269
 31
0.0
  0
ARC
  5
629
330
1D
100
AcDbEntity
  8
BLACK
100
AcDbCircle
 10
110.4746
 20
-16.8256
 30
0.0
 40
0.4999980632052488
100
AcDbArc
 50
167.99968203
 51
258.00005187
  0
LINE
  5
62A
330
1D
100
AcDbEntity
  8
BLACK
  6
Continuous
100
AcDbLine
 10
112.68837
 20
-4.005732
 30
0.0
 11
109.98552
 21
-16.72164
 31
0.0
  0
ARC
  5
62B
330
1D
100
AcDbEntity
  8
BLACK
100
AcDbCircle
 10
113.1775
 20
-4.1097
 30
0.0
 40
0.5000574986179089
100
AcDbArc
 50
77.99762214
 51
167.99997658
  0
LINE
  5
62C
330
1D
100
AcDbEntity
  8
BLACK
  6
Continuous
100
AcDbLine
 10
126.584334
 20
-6.448229
 30
0.0
 11
113.281479
 21
-3.620619
 31
0.0
  0
LINE
  5
62F
330
1D
100
AcDbEntity
  8
BLACK
  6
Continuous
100
AcDbLine
 10
137.987935
 20
-67.298923
 30
0.0
 11
124.685113
 21
-64.471321
 31
0.0
  0
ARC
  5
630
330
1D
100
AcDbEntity
  8
BLACK
100
AcDbCircle
 10
137.884
 20
-67.7879
 30
0.0
 40
0.4999009809492276
100
AcDbArc
 50
347.98859316
 51
78.00003025
  0
LINE
  5
631
330
1D
100
AcDbEntity
  8
BLACK
  6
Continuous
100
AcDbLine
 10
135.670188
 20
-80.60785899999999
 30
0.0
 11
138.373038
 21
-67.89195
 31
0.0
  0
ARC
  5
632
330
1D
100
AcDbEntity
  8
BLACK
100
AcDbCircle
 10
135.1811
 20
-80.5039
 30
0.0
 40
0.5000145452134367
100
AcDbArc
 50
258.0000015
 51
347.99998472
  0
LINE
  5
633
330
1D
100
AcDbEntity
  8
BLACK
  6
Continuous
100
AcDbLine
 10
121.774341
 20
-78.165386
 30
0.0
 11
135.077142
 21
-80.99298399999999
 31
0.0
  0
ARC
  5
634
330
1D
100
AcDbEntity
  8
BLACK
100
AcDbCircle
 10
121.8783
 20
-77.6763
 30
0.0
 40
0.5000125889185191
100
AcDbArc
 50
168.51242018
 51
257.99993707
  0
LINE
  5
635
330
1D
100
AcDbEntity
  8
BLACK
  6
Continuous
100
AcDbLine
 10
124.09208
 20
-64.856456
 30
0.0
 11
121.388305
 21
-77.57672
 31
0.0
  0
ARC
  5
636
330
1D
100
AcDbEntity
  8
BLACK
100
AcDbCircle
 10
124.5811
 20
-64.96039999999999
 30
0.0
 40
0.4999449125013675
100
AcDbArc
 50
77.99371778
 51
168.00004594
  0
ARC
  5
637
330
1D
100
AcDbEntity
  8
BLACK
100
AcDbCircle
 10
116.5474
 20
-76.5432
 30
0.0
 40
0.4999992492644364
100
AcDbArc
 50
257.9999636
 51
347.9999636
  0
LINE
  5
638
330
1D
100
AcDbEntity
  8
BLACK
  6
Continuous
100
AcDbLine
 10
103.140645
 20
-74.204672
 30
0.0
 11
116.443445
 21
-77.032269
 31
0.0
  0
ARC
  5
639
330
1D
100
AcDbEntity
  8
BLACK
100
AcDbCircle
 10
103.2446
 20
-73.7156
 30
0.0
 40
0.4999980632052488
100
AcDbArc
 50
167.99968203
 51
258.00005187
  0
LINE
  5
63A
330
1D
100
AcDbEntity
  8
BLACK
  6
Continuous
100
AcDbLine
 10
105.458349
 20
-60.89582799999999
 30
0.0
 11
102.75552
 21
-73.61164
 31
0.0
  0
ARC
  5
63B
330
1D
100
AcDbEntity
  8
BLACK
100
AcDbCircle
 10
105.9475
 20
-60.9997
 30
0.0
 40
0.5000580898105739
100
AcDbArc
 50
77.99762214
 51
168.01123599
  0
LINE
  5
63C
330
1D
100
AcDbEntity
  8
BLACK
  6
Continuous
100
AcDbLine
 10
119.354238
 20
-63.33820799999999
 30
0.0
 11
106.051479
 21
-60.510619
 31
0.0
  0
ARC
  5
63D
330
1D
100
AcDbEntity
  8
BLACK
100
AcDbCircle
 10
119.2503
 20
-63.8272
 30
0.0
 40
0.4999162768984422
100
AcDbArc
 50
348.56367608
 51
78.00005136999998
  0
LINE
  5
63E
330
1D
100
AcDbEntity
  8
BLACK
  6
Continuous
100
AcDbLine
 10
117.036473
 20
-76.647156
 30
0.0
 11
119.740366
 21
-63.92633799999999
 31
0.0
  0
LINE
  5
63F
330
1D
100
AcDbEntity
  8
BLACK
  6
Continuous
100
AcDbLine
 10
186.998658
 20
-60.510589
 30
0.0
 11
173.692593
 21
-63.33888
 31
0.0
  0
ARC
  5
640
330
1D
100
AcDbEntity
  8
BLACK
100
AcDbCircle
 10
187.1026
 20
-60.99959999999999
 30
0.0
 40
0.4999356933496547
100
AcDbArc
 50
11.99998493
 51
101.99994431
  0
LINE
  5
641
330
1D
100
AcDbEntity
  8
BLACK
  6
Continuous
100
AcDbLine
 10
190.29448
 20
-73.611643
 30
0.0
 11
187.591614
 21
-60.895657
 31
0.0
  0
ARC
  5
642
330
1D
100
AcDbEntity
  8
BLACK
100
AcDbCircle
 10
189.8054
 20
-73.7156
 30
0.0
 40
0.500006304209257
100
AcDbArc
 50
282.36233295
 51
11.99998171
  0
LINE
  5
643
330
1D
100
AcDbEntity
  8
BLACK
  6
Continuous
100
AcDbLine
 10
176.606555
 20
-77.032268
 30
0.0
 11
189.912448
 21
-74.204013
 31
0.0
  0
ARC
  5
644
330
1D
100
AcDbEntity
  8
BLACK
100
AcDbCircle
 10
176.5026
 20
-76.5432
 30
0.0
 40
0.4999941506147846
100
AcDbArc
 50
191.99931622
 51
282.00004343
  0
LINE
  5
645
330
1D
100
AcDbEntity
  8
BLACK
  6
Continuous
100
AcDbLine
 10
173.31068
 20
-63.93126599999999
 30
0.0
 11
176.013525
 21
-76.64715
 31
0.0
  0
ARC
  5
646
330
1D
100
AcDbEntity
  8
BLACK
100
AcDbCircle
 10
173.7998
 20
-63.82729999999999
 30
0.0
 40
0.5000473013185852
100
AcDbArc
 50
102.37995714
 51
192.0000375
  0
LINE
  5
647
330
1D
100
AcDbEntity
  8
BLACK
  6
Continuous
100
AcDbLine
 10
160.036965
 20
-47.281969
 30
0.0
 11
162.739811
 21
-59.997859
 31
0.0
  0
ARC
  5
648
330
1D
100
AcDbEntity
  8
BLACK
100
AcDbCircle
 10
160.5261
 20
-47.178
 30
0.0
 40
0.5000625972675821
100
AcDbArc
 50
102.73362845
 51
192.00001639
  0
LINE
  5
649
330
1D
100
AcDbEntity
  8
BLACK
  6
Continuous
100
AcDbLine
 10
173.724824
 20
-43.86133299999999
 30
0.0
 11
160.415877
 21
-46.690237
 31
0.0
  0
ARC
  5
64A
330
1D
100
AcDbEntity
  8
BLACK
100
AcDbCircle
 10
173.8288
 20
-44.3505
 30
0.0
 40
0.5000953533727344
100
AcDbArc
 50
12.65817097
 51
102.0000386
  0
LINE
  5
64B
330
1D
100
AcDbEntity
  8
BLACK
  6
Continuous
100
AcDbLine
 10
177.020765
 20
-56.962346
 30
0.0
 11
174.316741
 21
-44.24091199999999
 31
0.0
  0
ARC
  5
64C
330
1D
100
AcDbEntity
  8
BLACK
100
AcDbCircle
 10
176.5317
 20
-57.0663
 30
0.0
 40
0.4999910082601486
100
AcDbArc
 50
281.99903035
 51
12.00000282
  0
LINE
  5
64D
330
1D
100
AcDbEntity
  8
BLACK
  6
Continuous
100
AcDbLine
 10
163.332858
 20
-60.382983
 30
0.0
 11
176.63565
 21
-57.555387
 31
0.0
  0
ARC
  5
64E
330
1D
100
AcDbEntity
  8
BLACK
100
AcDbCircle
 10
163.2289
 20
-59.8939
 30
0.0
 40
0.5000094465637624
100
AcDbArc
 50
192.00002232
 51
282.00002232
  0
ARC
  5
652
330
1D
100
AcDbEntity
  8
BLACK
100
AcDbCircle
 10
155.1661
 20
-67.788
 30
0.0
 40
0.5000625972675821
100
AcDbArc
 50
102.73362845
 51
192.00001639
  0
LINE
  5
653
330
1D
100
AcDbEntity
  8
BLACK
  6
Continuous
100
AcDbLine
 10
168.364824
 20
-64.471333
 30
0.0
 11
155.055877
 21
-67.300237
 31
0.0
  0
ARC
  5
654
330
1D
100
AcDbEntity
  8
BLACK
100
AcDbCircle
 10
168.4688
 20
-64.9605
 30
0.0
 40
0.5000953533727344
100
AcDbArc
 50
12.64810553
 51
102.0000386
  0
LINE
  5
655
330
1D
100
AcDbEntity
  8
BLACK
  6
Continuous
100
AcDbLine
 10
171.660765
 20
-77.572346
 30
0.0
 11
168.956759
 21
-64.850998
 31
0.0
  0
ARC
  5
656
330
1D
100
AcDbEntity
  8
BLACK
100
AcDbCircle
 10
171.1717
 20
-77.6763
 30
0.0
 40
0.4999910082601486
100
AcDbArc
 50
281.99903035
 51
12.00000282
  0
LINE
  5
657
330
1D
100
AcDbEntity
  8
BLACK
  6
Continuous
100
AcDbLine
 10
157.972858
 20
-80.992983
 30
0.0
 11
171.27565
 21
-78.165387
 31
0.0
  0
ARC
  5
658
330
1D
100
AcDbEntity
  8
BLACK
100
AcDbCircle
 10
157.8689
 20
-80.5039
 30
0.0
 40
0.5000094465637624
100
AcDbArc
 50
192.00002232
 51
282.00002232
  0
LINE
  5
659
330
1D
100
AcDbEntity
  8
BLACK
  6
Continuous
100
AcDbLine
 10
154.676965
 20
-67.891969
 30
0.0
 11
157.379811
 21
-80.60785899999999
 31
0.0
  0
LINE
  5
65C
330
1D
100
AcDbEntity
  8
BLACK
  6
Continuous
100
AcDbLine
 10
197.181155
 20
-77.854777
 30
0.0
 11
166.858527
 21
-84.300051
 31
0.0
  0
ARC
  5
65D
330
1D
100
AcDbEntity
  8
BLACK
100
AcDbCircle
 10
197.2851
 20
-78.3438
 30
0.0
 40
0.499948054855702
100
AcDbArc
 50
12.00004234
 51
101.99999468
  0
LINE
  5
65E
330
1D
100
AcDbEntity
  8
BLACK
  6
Continuous
100
AcDbLine
 10
200.210442
 20
-89.70183999999999
 30
0.0
 11
197.774121
 21
-78.23985499999999
 31
0.0
  0
LINE
  5
65F
330
1D
100
AcDbEntity
  8
BLACK
  6
Continuous
100
AcDbLine
 10
197.636102
 20
-92.01972699999999
 30
0.0
 11
200.210442
 21
-89.70183999999999
 31
0.0
  0
LINE
  5
660
330
1D
100
AcDbEntity
  8
BLACK
  6
Continuous
100
AcDbLine
 10
172.204264
 20
-97.42542999999999
 30
0.0
 11
197.636102
 21
-92.01972699999999
 31
0.0
  0
LINE
  5
661
330
1D
100
AcDbEntity
  8
BLACK
  6
Continuous
100
AcDbLine
 10
168.909718
 20
-96.355014
 30
0.0
 11
172.204264
 21
-97.42542999999999
 31
0.0
  0
LINE
  5
662
330
1D
100
AcDbEntity
  8
BLACK
  6
Continuous
100
AcDbLine
 10
166.473401
 20
-84.89304
 30
0.0
 11
168.909718
 21
-96.355014
 31
0.0
  0
ARC
  5
663
330
1D
100
AcDbEntity
  8
BLACK
100
AcDbCircle
 10
166.9624
 20
-84.78909999999999
 30
0.0
 40
0.4999235397548308
100
AcDbArc
 50
101.99130421
 51
192.00000604
  0
ARC
  5
664
330
1D
100
AcDbEntity
  8
BLACK
100
AcDbCircle
 10
116.5283
 20
-57.0663
 30
0.0
 40
0.5000125889185191
100
AcDbArc
 50
168.51242018
 51
257.99993707
  0
LINE
  5
665
330
1D
100
AcDbEntity
  8
BLACK
  6
Continuous
100
AcDbLine
 10
118.74208
 20
-44.24645599999999
 30
0.0
 11
116.038305
 21
-56.96672
 31
0.0
  0
ARC
  5
666
330
1D
100
AcDbEntity
  8
BLACK
100
AcDbCircle
 10
119.2311
 20
-44.3504
 30
0.0
 40
0.4999449125013675
100
AcDbArc
 50
77.99371778
 51
168.00004594
  0
LINE
  5
667
330
1D
100
AcDbEntity
  8
BLACK
  6
Continuous
100
AcDbLine
 10
132.637935
 20
-46.688923
 30
0.0
 11
119.335113
 21
-43.861321
 31
0.0
  0
ARC
  5
668
330
1D
100
AcDbEntity
  8
BLACK
100
AcDbCircle
 10
132.534
 20
-47.1779
 30
0.0
 40
0.4999009809492276
100
AcDbArc
 50
347.98859316
 51
78.00003025
  0
LINE
  5
669
330
1D
100
AcDbEntity
  8
BLACK
  6
Continuous
100
AcDbLine
 10
130.320188
 20
-59.997859
 30
0.0
 11
133.023038
 21
-47.28194999999999
 31
0.0
  0
ARC
  5
66A
330
1D
100
AcDbEntity
  8
BLACK
100
AcDbCircle
 10
129.8311
 20
-59.8939
 30
0.0
 40
0.5000145452134367
100
AcDbArc
 50
258.0000015
 51
347.99998472
  0
LINE
  5
66B
330
1D
100
AcDbEntity
  8
BLACK
  6
Continuous
100
AcDbLine
 10
116.424341
 20
-57.555386
 30
0.0
 11
129.727142
 21
-60.382984
 31
0.0
  0
ARC
  5
66C
330
1D
100
AcDbEntity
  8
BLACK
100
AcDbCircle
 10
118.5311
 20
-24.7204
 30
0.0
 40
0.4999449125013675
100
AcDbArc
 50
77.99371778
 51
168.00004594
  0
LINE
  5
66D
330
1D
100
AcDbEntity
  8
BLACK
  6
Continuous
100
AcDbLine
 10
131.937935
 20
-27.058923
 30
0.0
 11
118.635113
 21
-24.231321
 31
0.0
  0
ARC
  5
66E
330
1D
100
AcDbEntity
  8
BLACK
100
AcDbCircle
 10
131.834
 20
-27.5479
 30
0.0
 40
0.4999009809492276
100
AcDbArc
 50
347.98859316
 51
78.00003025
  0
LINE
  5
66F
330
1D
100
AcDbEntity
  8
BLACK
  6
Continuous
100
AcDbLine
 10
129.620188
 20
-40.367859
 30
0.0
 11
132.323038
 21
-27.65195
 31
0.0
  0
ARC
  5
670
330
1D
100
AcDbEntity
  8
BLACK
100
AcDbCircle
 10
129.1311
 20
-40.2639
 30
0.0
 40
0.5000145452134367
100
AcDbArc
 50
258.0000015
 51
347.99998472
  0
LINE
  5
671
330
1D
100
AcDbEntity
  8
BLACK
  6
Continuous
100
AcDbLine
 10
115.724341
 20
-37.925386
 30
0.0
 11
129.027142
 21
-40.752984
 31
0.0
  0
ARC
  5
672
330
1D
100
AcDbEntity
  8
BLACK
100
AcDbCircle
 10
115.8283
 20
-37.4363
 30
0.0
 40
0.5000125889185191
100
AcDbArc
 50
168.52507273
 51
257.99993707
  0
LINE
  5
673
330
1D
100
AcDbEntity
  8
BLACK
  6
Continuous
100
AcDbLine
 10
118.04208
 20
-24.616456
 30
0.0
 11
115.338282
 21
-37.336828
 31
0.0
  0
LINE
  5
674
330
1D
100
AcDbEntity
  8
BLACK
  6
Continuous
100
AcDbLine
 10
34.3669
 20
14.2996
 30
0.0
 11
1.36685
 21
14.2996
 31
0.0
  0
ARC
  5
675
330
1D
100
AcDbEntity
  8
BLACK
100
AcDbCircle
 10
34.3669
 20
13.2997
 30
0.0
 40
0.9998999999999999
100
AcDbArc
 50
359.99427014
 51
90.0
  0
LINE
  5
676
330
1D
100
AcDbEntity
  8
BLACK
  6
Continuous
100
AcDbLine
 10
35.36685
 20
10.7996
 30
0.0
 11
35.36685
 21
13.2996
 31
0.0
  0
LINE
  5
677
330
1D
100
AcDbEntity
  8
BLACK
  6
Continuous
100
AcDbLine
 10
78.16685
 20
10.7996
 30
0.0
 11
35.36685
 21
10.7996
 31
0.0
  0
LINE
  5
678
330
1D
100
AcDbEntity
  8
BLACK
  6
Continuous
100
AcDbLine
 10
78.16685
 20
13.2995
 30
0.0
 11
78.16685
 21
10.7996
 31
0.0
  0
ARC
  5
679
330
1D
100
AcDbEntity
  8
BLACK
100
AcDbCircle
 10
79.167
 20
13.2995
 30
0.0
 40
1.00015
100
AcDbArc
 50
90.57860983999998
 51
180.0
  0
LINE
  5
67A
330
1D
100
AcDbEntity
  8
BLACK
  6
Continuous
100
AcDbLine
 10
112.1669
 20
14.2996
 30
0.0
 11
79.1569
 21
14.2996
 31
0.0
  0
ARC
  5
67B
330
1D
100
AcDbEntity
  8
BLACK
100
AcDbCircle
 10
112.1669
 20
13.2997
 30
0.0
 40
0.9998999999999999
100
AcDbArc
 50
359.99427014
 51
90.0
  0
LINE
  5
67C
330
1D
100
AcDbEntity
  8
BLACK
  6
Continuous
100
AcDbLine
 10
113.16685
 20
10.7996
 30
0.0
 11
113.16685
 21
13.2996
 31
0.0
  0
LINE
  5
67D
330
1D
100
AcDbEntity
  8
BLACK
  6
Continuous
100
AcDbLine
 10
145.4169
 20
10.7996
 30
0.0
 11
113.16685
 21
10.7996
 31
0.0
  0
ARC
  5
67E
330
1D
100
AcDbEntity
  8
BLACK
100
AcDbCircle
 10
145.4169
 20
9.7997
 30
0.0
 40
0.9998999999999999
100
AcDbArc
 50
359.99427014
 51
90.0
  0
LINE
  5
67F
330
1D
100
AcDbEntity
  8
BLACK
  6
Continuous
100
AcDbLine
 10
146.41685
 20
6.7996
 30
0.0
 11
146.41685
 21
9.7996
 31
0.0
  0
LINE
  5
680
330
1D
100
AcDbEntity
  8
BLACK
  6
Continuous
100
AcDbLine
 10
154.91685
 20
6.7996
 30
0.0
 11
146.41685
 21
6.7996
 31
0.0
  0
LINE
  5
681
330
1D
100
AcDbEntity
  8
BLACK
  6
Continuous
100
AcDbLine
 10
154.91685
 20
9.7995
 30
0.0
 11
154.91685
 21
6.7996
 31
0.0
  0
ARC
  5
682
330
1D
100
AcDbEntity
  8
BLACK
100
AcDbCircle
 10
155.917
 20
9.7995
 30
0.0
 40
1.00015
100
AcDbArc
 50
90.57860983999998
 51
180.0
  0
LINE
  5
683
330
1D
100
AcDbEntity
  8
BLACK
  6
Continuous
100
AcDbLine
 10
188.96685
 20
10.7996
 30
0.0
 11
155.9069
 21
10.7996
 31
0.0
  0
LINE
  5
684
330
1D
100
AcDbEntity
  8
BLACK
  6
Continuous
100
AcDbLine
 10
188.96685
 20
13.2995
 30
0.0
 11
188.96685
 21
10.7996
 31
0.0
  0
ARC
  5
685
330
1D
100
AcDbEntity
  8
BLACK
100
AcDbCircle
 10
189.967
 20
13.2995
 30
0.0
 40
1.00015
100
AcDbArc
 50
90.57860983999998
 51
180.0
  0
LINE
  5
686
330
1D
100
AcDbEntity
  8
BLACK
  6
Continuous
100
AcDbLine
 10
222.9669
 20
14.2996
 30
0.0
 11
189.9569
 21
14.2996
 31
0.0
  0
ARC
  5
687
330
1D
100
AcDbEntity
  8
BLACK
100
AcDbCircle
 10
222.9669
 20
13.2997
 30
0.0
 40
0.9998999999999999
100
AcDbArc
 50
359.99427014
 51
90.0
  0
LINE
  5
688
330
1D
100
AcDbEntity
  8
BLACK
  6
Continuous
100
AcDbLine
 10
223.96685
 20
10.7996
 30
0.0
 11
223.96685
 21
13.2996
 31
0.0
  0
LINE
  5
689
330
1D
100
AcDbEntity
  8
BLACK
  6
Continuous
100
AcDbLine
 10
266.89685
 20
10.7996
 30
0.0
 11
223.96685
 21
10.7996
 31
0.0
  0
LINE
  5
68A
330
1D
100
AcDbEntity
  8
BLACK
  6
Continuous
100
AcDbLine
 10
266.89685
 20
13.2995
 30
0.0
 11
266.89685
 21
10.7996
 31
0.0
  0
ARC
  5
68B
330
1D
100
AcDbEntity
  8
BLACK
100
AcDbCircle
 10
267.897
 20
13.2995
 30
0.0
 40
1.00015
100
AcDbArc
 50
90.57860983999998
 51
180.0
  0
LINE
  5
68C
330
1D
100
AcDbEntity
  8
BLACK
  6
Continuous
100
AcDbLine
 10
300.8969
 20
14.2996
 30
0.0
 11
267.8869
 21
14.2996
 31
0.0
  0
ARC
  5
68D
330
1D
100
AcDbEntity
  8
BLACK
100
AcDbCircle
 10
300.8969
 20
13.2997
 30
0.0
 40
0.9998999999999999
100
AcDbArc
 50
359.99427014
 51
90.0
  0
LINE
  5
68E
330
1D
100
AcDbEntity
  8
BLACK
  6
Continuous
100
AcDbLine
 10
301.89685
 20
10.7996
 30
0.0
 11
301.89685
 21
13.2996
 31
0.0
  0
LINE
  5
68F
330
1D
100
AcDbEntity
  8
BLACK
  6
Continuous
100
AcDbLine
 10
319.8539
 20
10.7996
 30
0.0
 11
301.89685
 21
10.7996
 31
0.0
  0
ARC
  5
690
330
1D
100
AcDbEntity
  8
BLACK
100
AcDbCircle
 10
319.8539
 20
9.7997
 30
0.0
 40
0.9998999999999999
100
AcDbArc
 50
359.99427014
 51
90.0
  0
LINE
  5
691
330
1D
100
AcDbEntity
  8
BLACK
  6
Continuous
100
AcDbLine
 10
320.853848
 20
-88.2191
 30
0.0
 11
320.85385
 21
9.7996
 31
0.0
  0
ARC
  5
692
330
1D
100
AcDbEntity
  8
BLACK
100
AcDbCircle
 10
319.8537
 20
-88.2191
 30
0.0
 40
1.000148
100
AcDbArc
 50
270.42753916
 51
0.0
  0
LINE
  5
693
330
1D
100
AcDbEntity
  8
BLACK
  6
Continuous
100
AcDbLine
 10
305.514982
 20
-89.21943999999999
 30
0.0
 11
319.861163
 21
-89.21921999999999
 31
0.0
  0
LINE
  5
694
330
1D
100
AcDbEntity
  8
BLACK
  6
Continuous
100
AcDbLine
 10
305.514982
 20
-91.71929999999999
 30
0.0
 11
305.514982
 21
-89.21943999999999
 31
0.0
  0
ARC
  5
695
330
1D
100
AcDbEntity
  8
BLACK
100
AcDbCircle
 10
304.5148
 20
-91.71929999999999
 30
0.0
 40
1.000182
100
AcDbArc
 50
270.52445479
 51
0.0
  0
LINE
  5
696
330
1D
100
AcDbEntity
  8
BLACK
  6
Continuous
100
AcDbLine
 10
271.515
 20
-92.71943999999999
 30
0.0
 11
304.523955
 21
-92.71943999999999
 31
0.0
  0
ARC
  5
697
330
1D
100
AcDbEntity
  8
BLACK
100
AcDbCircle
 10
271.515
 20
-91.7194
 30
0.0
 40
1.00004
100
AcDbArc
 50
180.37126477
 51
270.0
  0
LINE
  5
698
330
1D
100
AcDbEntity
  8
BLACK
  6
Continuous
100
AcDbLine
 10
270.514982
 20
-89.21943999999999
 30
0.0
 11
270.514982
 21
-91.72587999999999
 31
0.0
  0
LINE
  5
699
330
1D
100
AcDbEntity
  8
BLACK
  6
Continuous
100
AcDbLine
 10
245.862791
 20
-89.219915
 30
0.0
 11
270.514982
 21
-89.21943999999999
 31
0.0
  0
LINE
  5
69A
330
1D
100
AcDbEntity
  8
BLACK
  6
Continuous
100
AcDbLine
 10
205.485709
 20
-97.69615399999999
 30
0.0
 11
245.862791
 21
-89.219915
 31
0.0
  0
LINE
  5
69B
330
1D
100
AcDbEntity
  8
BLACK
  6
Continuous
100
AcDbLine
 10
205.99865
 20
-100.139576
 30
0.0
 11
205.485709
 21
-97.69615399999999
 31
0.0
  0
ARC
  5
69C
330
1D
100
AcDbEntity
  8
BLACK
100
AcDbCircle
 10
205.0201
 20
-100.345
 30
0.0
 40
0.9998795538843666
100
AcDbArc
 50
281.84884468
 51
11.85576944
  0
LINE
  5
69D
330
1D
100
AcDbEntity
  8
BLACK
  6
Continuous
100
AcDbLine
 10
172.929554
 20
-108.103392
 30
0.0
 11
205.225415
 21
-101.323619
 31
0.0
  0
ARC
  5
69E
330
1D
100
AcDbEntity
  8
BLACK
100
AcDbCircle
 10
172.7241
 20
-107.1247
 30
0.0
 40
1.000024688185247
100
AcDbArc
 50
192.29780348
 51
281.85578011
  0
LINE
  5
69F
330
1D
100
AcDbEntity
  8
BLACK
  6
Continuous
100
AcDbLine
 10
171.229717
 20
-104.88135
 30
0.0
 11
171.747023
 21
-107.337698
 31
0.0
  0
LINE
  5
6A0
330
1D
100
AcDbEntity
  8
BLACK
  6
Continuous
100
AcDbLine
 10
152.690864
 20
-108.762426
 30
0.0
 11
171.229717
 21
-104.88135
 31
0.0
  0
ARC
  5
6A1
330
1D
100
AcDbEntity
  8
BLACK
100
AcDbCircle
 10
150.6418
 20
-98.9746
 30
0.0
 40
10.00001005411355
100
AcDbArc
 50
258.03791283
 51
281.82400779
  0
LINE
  5
6A2
330
1D
100
AcDbEntity
  8
BLACK
  6
Continuous
100
AcDbLine
 10
130.79351
 20
-104.991504
 30
0.0
 11
148.569153
 21
-108.757465
 31
0.0
  0
LINE
  5
6A3
330
1D
100
AcDbEntity
  8
BLACK
  6
Continuous
100
AcDbLine
 10
130.2757
 20
-107.437983
 30
0.0
 11
130.79351
 21
-104.991504
 31
0.0
  0
ARC
  5
6A4
330
1D
100
AcDbEntity
  8
BLACK
100
AcDbCircle
 10
129.2973
 20
-107.2309
 30
0.0
 40
1.000074961634877
100
AcDbArc
 50
258.0435305
 51
348.04944592
  0
LINE
  5
6A5
330
1D
100
AcDbEntity
  8
BLACK
  6
Continuous
100
AcDbLine
 10
96.806063
 20
-101.373357
 30
0.0
 11
129.090127
 21
-108.209227
 31
0.0
  0
ARC
  5
6A6
330
1D
100
AcDbEntity
  8
BLACK
100
AcDbCircle
 10
97.0132
 20
-100.3951
 30
0.0
 40
0.9999462459642517
100
AcDbArc
 50
168.46687902
 51
258.04472219
  0
LINE
  5
6A7
330
1D
100
AcDbEntity
  8
BLACK
  6
Continuous
100
AcDbLine
 10
96.552678
 20
-97.74259099999999
 30
0.0
 11
96.033368
 21
-100.195161
 31
0.0
  0
LINE
  5
6A8
330
1D
100
AcDbEntity
  8
BLACK
  6
Continuous
100
AcDbLine
 10
56.195791
 20
-89.19736999999999
 30
0.0
 11
96.552678
 21
-97.74259099999999
 31
0.0
  0
LINE
  5
6A9
330
1D
100
AcDbEntity
  8
BLACK
  6
Continuous
100
AcDbLine
 10
33.068403
 20
-89.2004
 30
0.0
 11
56.195791
 21
-89.19736999999999
 31
0.0
  0
LINE
  5
6AA
330
1D
100
AcDbEntity
  8
BLACK
  6
Continuous
100
AcDbLine
 10
33.069236
 20
-91.70006699999999
 30
0.0
 11
33.068403
 21
-89.2004
 31
0.0
  0
ARC
  5
6AB
330
1D
100
AcDbEntity
  8
BLACK
100
AcDbCircle
 10
32.0693
 20
-91.7004
 30
0.0
 40
0.9999360554480471
100
AcDbArc
 50
269.9963330699999
 51
0.01908072
  0
LINE
  5
6AC
330
1D
100
AcDbEntity
  8
BLACK
  6
Continuous
100
AcDbLine
 10
-0.983016
 20
-92.7004
 30
0.0
 11
32.069236
 21
-92.7004
 31
0.0
  0
ARC
  5
6AD
330
1D
100
AcDbEntity
  8
BLACK
100
AcDbCircle
 10
-0.983016
 20
-91.700401
 30
0.0
 40
0.999999
100
AcDbArc
 50
180.20374436
 51
270.0
  0
LINE
  5
6AE
330
1D
100
AcDbEntity
  8
BLACK
  6
Continuous
100
AcDbLine
 10
-1.991912
 20
-89.200312
 30
0.0
 11
-1.983009
 21
-91.703957
 31
0.0
  0
LINE
  5
6AF
330
1D
100
AcDbEntity
  8
BLACK
  6
Continuous
100
AcDbLine
 10
-10.801178
 20
-89.200896
 30
0.0
 11
-1.991912
 21
-89.200312
 31
0.0
  0
ARC
  5
6B0
330
1D
100
AcDbEntity
  8
BLACK
100
AcDbCircle
 10
-10.801244
 20
-88.200896
 30
0.0
 40
1.000000002178
100
AcDbArc
 50
179.91703569
 51
270.0037815200001
  0
LINE
  5
6B1
330
1D
100
AcDbEntity
  8
BLACK
  6
Continuous
100
AcDbLine
 10
-11.7804
 20
-73.8004
 30
0.0
 11
-11.801243
 21
-88.19944799999999
 31
0.0
  0
LINE
  5
6B2
330
1D
100
AcDbEntity
  8
BLACK
  6
Continuous
100
AcDbLine
 10
-17.159151
 20
-73.8004
 30
0.0
 11
-11.7804
 21
-73.8004
 31
0.0
  0
ARC
  5
6B3
330
1D
100
AcDbEntity
  8
BLACK
100
AcDbCircle
 10
-17.159151
 20
-72.800401
 30
0.0
 40
0.999999
100
AcDbArc
 50
180.0
 51
270.0
  0
LINE
  5
6B4
330
1D
100
AcDbEntity
  8
BLACK
  6
Continuous
100
AcDbLine
 10
-18.15915
 20
9.799601
 30
0.0
 11
-18.15915
 21
-72.800401
 31
0.0
  0
ARC
  5
6B5
330
1D
100
AcDbEntity
  8
BLACK
100
AcDbCircle
 10
-17.159151
 20
9.799601
 30
0.0
 40
0.999999
100
AcDbArc
 50
90.0
 51
180.0
  0
LINE
  5
6B6
330
1D
100
AcDbEntity
  8
BLACK
  6
Continuous
100
AcDbLine
 10
0.36685
 20
10.7996
 30
0.0
 11
-17.159151
 21
10.7996
 31
0.0
  0
LINE
  5
6B7
330
1D
100
AcDbEntity
  8
BLACK
  6
Continuous
100
AcDbLine
 10
0.36685
 20
13.2996
 30
0.0
 11
0.36685
 21
10.7996
 31
0.0
  0
ARC
  5
6B8
330
1D
100
AcDbEntity
  8
BLACK
100
AcDbCircle
 10
1.36685
 20
13.2996
 30
0.0
 40
1.0
100
AcDbArc
 50
90.0
 51
180.0
  0
LWPOLYLINE
  5
6FF
330
1D
100
AcDbEntity
  8
0
100
AcDbPolyline
 90
        8
 70
     1
 43
0.0
 10
272.874999
 20
4.334999
 10
272.874999
 20
-7.383001
 10
275.874999
 20
-9.115001
 10
301.874999
 20
-9.115001
 10
304.874999
 20
-7.383001
 10
304.874999
 20
4.334999
 42
0.4142135623730951
 10
304.374999
 20
4.834999
 10
273.374999
 20
4.834999
 42
0.4142123908030413
  0
LWPOLYLINE
  5
702
330
1D
100
AcDbEntity
  8
0
100
AcDbPolyline
 90
        8
 70
     1
 43
0.0
 10
278.340002
 20
-52.815002
 10
278.340002
 20
-64.533002
 10
281.340002
 20
-66.26500199999998
 10
307.340002
 20
-66.26500199999998
 10
310.340002
 20
-64.533002
 10
310.340002
 20
-52.815002
 42
0.4142135623730951
 10
309.840002
 20
-52.315002
 10
278.840002
 20
-52.315002
 42
0.4142123908030605
  0
LWPOLYLINE
  5
705
330
1D
100
AcDbEntity
  8
0
100
AcDbPolyline
 90
        8
 70
     1
 43
0.0
 10
85.65634600000001
 20
-88.169921
 10
88.23068599999999
 20
-90.48780800000002
 10
113.662524
 20
-95.893511
 10
116.95707
 20
-94.823095
 10
119.393379
 20
-83.361161
 42
0.4142134405809357
 10
119.008261
 20
-82.768132
 10
88.685685
 20
-76.322869
 42
0.4142122946124442
 10
88.09265599999998
 20
-76.707987
  0
LWPOLYLINE
  5
706
330
1D
100
AcDbEntity
  8
0
100
AcDbPolyline
 90
        8
 70
     1
 43
0.0
 10
124.598235
 20
-98.24116900000001
 10
137.901043
 20
-101.068768
 42
0.4142134405809393
 10
138.494072
 20
-100.68365
 10
141.196924
 20
-87.96773100000001
 42
0.4142136841652874
 10
140.811807
 20
-87.37470100000002
 10
127.508999
 20
-84.547102
 42
0.4142122946124381
 10
126.91597
 20
-84.93222000000002
 10
124.213118
 20
-97.648139
 42
0.4142136841652344
  0
CIRCLE
  5
70B
330
1D
100
AcDbEntity
  8
BLACK
100
AcDbCircle
 10
31.457499
 20
-40.239999
 30
0.0
 40
1.325
  0
CIRCLE
  5
70C
330
1D
100
AcDbEntity
  8
BLACK
100
AcDbCircle
 10
31.457499
 20
-40.239999
 30
0.0
 40
1.775
  0
CIRCLE
  5
70D
330
1D
100
AcDbEntity
  8
BLACK
100
AcDbCircle
 10
90.526893
 20
-5.940363
 30
0.0
 40
1.325
  0
CIRCLE
  5
70E
330
1D
100
AcDbEntity
  8
BLACK
100
AcDbCircle
 10
90.526893
 20
-5.940363
 30
0.0
 40
1.775
  0
CIRCLE
  5
70F
330
1D
100
AcDbEntity
  8
BLACK
100
AcDbCircle
 10
32.545039
 20
-2.139999
 30
0.0
 40
1.325
  0
CIRCLE
  5
710
330
1D
100
AcDbEntity
  8
BLACK
100
AcDbCircle
 10
32.545039
 20
-2.139999
 30
0.0
 40
1.775
  0
CIRCLE
  5
711
330
1D
100
AcDbEntity
  8
BLACK
100
AcDbCircle
 10
209.75328
 20
-62.830337
 30
0.0
 40
1.325
  0
CIRCLE
  5
712
330
1D
100
AcDbEntity
  8
BLACK
100
AcDbCircle
 10
209.75328
 20
-62.830337
 30
0.0
 40
1.775
  0
CIRCLE
  5
713
330
1D
100
AcDbEntity
  8
BLACK
100
AcDbCircle
 10
206.493176
 20
-24.57036
 30
0.0
 40
1.325
  0
CIRCLE
  5
714
330
1D
100
AcDbEntity
  8
BLACK
100
AcDbCircle
 10
206.493176
 20
-24.57036
 30
0.0
 40
1.775
  0
CIRCLE
  5
715
330
1D
100
AcDbEntity
  8
BLACK
100
AcDbCircle
 10
58.61313699999999
 20
-18.62964
 30
0.0
 40
1.325
  0
CIRCLE
  5
716
330
1D
100
AcDbEntity
  8
BLACK
100
AcDbCircle
 10
58.61313699999999
 20
-18.62964
 30
0.0
 40
1.775
  0
CIRCLE
  5
717
330
1D
100
AcDbEntity
  8
BLACK
100
AcDbCircle
 10
38.929998
 20
-66.489997
 30
0.0
 40
1.325
  0
CIRCLE
  5
718
330
1D
100
AcDbEntity
  8
BLACK
100
AcDbCircle
 10
38.929998
 20
-66.489997
 30
0.0
 40
1.775
  0
CIRCLE
  5
719
330
1D
100
AcDbEntity
  8
BLACK
100
AcDbCircle
 10
24.915046
 20
-78.340008
 30
0.0
 40
1.325
  0
CIRCLE
  5
71A
330
1D
100
AcDbEntity
  8
BLACK
100
AcDbCircle
 10
24.915046
 20
-78.340008
 30
0.0
 40
1.775
  0
CIRCLE
  5
71B
330
1D
100
AcDbEntity
  8
BLACK
100
AcDbCircle
 10
114.514275
 20
-30.511791
 30
0.0
 40
1.325
  0
CIRCLE
  5
71C
330
1D
100
AcDbEntity
  8
BLACK
100
AcDbCircle
 10
114.514275
 20
-30.511791
 30
0.0
 40
1.775
  0
CIRCLE
  5
71D
330
1D
100
AcDbEntity
  8
BLACK
100
AcDbCircle
 10
201.00861
 20
-91.532912
 30
0.0
 40
1.325
  0
CIRCLE
  5
71E
330
1D
100
AcDbEntity
  8
BLACK
100
AcDbCircle
 10
201.00861
 20
-91.532912
 30
0.0
 40
1.775
  0
CIRCLE
  5
71F
330
1D
100
AcDbEntity
  8
BLACK
100
AcDbCircle
 10
77.946893
 20
-42.220366
 30
0.0
 40
1.325
  0
CIRCLE
  5
720
330
1D
100
AcDbEntity
  8
BLACK
100
AcDbCircle
 10
77.946893
 20
-42.220366
 30
0.0
 40
1.775
  0
CIRCLE
  5
721
330
1D
100
AcDbEntity
  8
BLACK
100
AcDbCircle
 10
59.85314
 20
-78.85963799999999
 30
0.0
 40
1.325
  0
CIRCLE
  5
722
330
1D
100
AcDbEntity
  8
BLACK
100
AcDbCircle
 10
59.85314
 20
-78.85963799999999
 30
0.0
 40
1.775
  0
CIRCLE
  5
723
330
1D
100
AcDbEntity
  8
BLACK
100
AcDbCircle
 10
233.196897
 20
-78.859641
 30
0.0
 40
1.325
  0
CIRCLE
  5
724
330
1D
100
AcDbEntity
  8
BLACK
100
AcDbCircle
 10
233.196897
 20
-78.859641
 30
0.0
 40
1.775
  0
CIRCLE
  5
725
330
1D
100
AcDbEntity
  8
BLACK
100
AcDbCircle
 10
230.487031
 20
0.000389
 30
0.0
 40
1.325
  0
CIRCLE
  5
726
330
1D
100
AcDbEntity
  8
BLACK
100
AcDbCircle
 10
230.487031
 20
0.000389
 30
0.0
 40
1.775
  0
CIRCLE
  5
727
330
1D
100
AcDbEntity
  8
BLACK
100
AcDbCircle
 10
285.896291
 20
-21.190002
 30
0.0
 40
1.325
  0
CIRCLE
  5
728
330
1D
100
AcDbEntity
  8
BLACK
100
AcDbCircle
 10
285.896291
 20
-21.190002
 30
0.0
 40
1.775
  0
CIRCLE
  5
729
330
1D
100
AcDbEntity
  8
BLACK
100
AcDbCircle
 10
312.090643
 20
-78.388004
 30
0.0
 40
1.325
  0
CIRCLE
  5
72A
330
1D
100
AcDbEntity
  8
BLACK
100
AcDbCircle
 10
312.090643
 20
-78.388004
 30
0.0
 40
1.775
  0
CIRCLE
  5
72B
330
1D
100
AcDbEntity
  8
BLACK
100
AcDbCircle
 10
311.330015
 20
-47.439995
 30
0.0
 40
1.325
  0
CIRCLE
  5
72C
330
1D
100
AcDbEntity
  8
BLACK
100
AcDbCircle
 10
311.330015
 20
-47.439995
 30
0.0
 40
1.775
  0
CIRCLE
  5
72D
330
1D
100
AcDbEntity
  8
BLACK
100
AcDbCircle
 10
174.585759
 20
-11.881792
 30
0.0
 40
1.325
  0
CIRCLE
  5
72E
330
1D
100
AcDbEntity
  8
BLACK
100
AcDbCircle
 10
174.585759
 20
-11.881792
 30
0.0
 40
1.775
  0
CIRCLE
  5
72F
330
1D
100
AcDbEntity
  8
BLACK
100
AcDbCircle
 10
293.040595
 20
-78.388002
 30
0.0
 40
1.325
  0
CIRCLE
  5
730
330
1D
100
AcDbEntity
  8
BLACK
100
AcDbCircle
 10
293.040595
 20
-78.388002
 30
0.0
 40
1.775
  0
CIRCLE
  5
731
330
1D
100
AcDbEntity
  8
BLACK
100
AcDbCircle
 10
278.536254
 20
-47.440001
 30
0.0
 40
1.325
  0
CIRCLE
  5
732
330
1D
100
AcDbEntity
  8
BLACK
100
AcDbCircle
 10
278.536254
 20
-47.440001
 30
0.0
 40
1.775
  0
CIRCLE
  5
733
330
1D
100
AcDbEntity
  8
BLACK
100
AcDbCircle
 10
233.746895
 20
-38.259644
 30
0.0
 40
1.325
  0
CIRCLE
  5
734
330
1D
100
AcDbEntity
  8
BLACK
100
AcDbCircle
 10
233.746895
 20
-38.259644
 30
0.0
 40
1.775
  0
CIRCLE
  5
735
330
1D
100
AcDbEntity
  8
BLACK
100
AcDbCircle
 10
-9.525008999999999
 20
0.0
 30
0.0
 40
1.325
  0
CIRCLE
  5
736
330
1D
100
AcDbEntity
  8
BLACK
100
AcDbCircle
 10
-9.525008999999999
 20
0.0
 30
0.0
 40
1.775
  0
CIRCLE
  5
737
330
1D
100
AcDbEntity
  8
BLACK
100
AcDbCircle
 10
271.7175
 20
-59.290004
 30
0.0
 40
1.325
  0
CIRCLE
  5
738
330
1D
100
AcDbEntity
  8
BLACK
100
AcDbCircle
 10
271.7175
 20
-59.290004
 30
0.0
 40
1.775
  0
CIRCLE
  5
739
330
1D
100
AcDbEntity
  8
BLACK
100
AcDbCircle
 10
7.644799
 20
-40.240002
 30
0.0
 40
1.325
  0
CIRCLE
  5
73A
330
1D
100
AcDbEntity
  8
BLACK
100
AcDbCircle
 10
7.644799
 20
-40.240002
 30
0.0
 40
1.775
  0
CIRCLE
  5
73B
330
1D
100
AcDbEntity
  8
BLACK
100
AcDbCircle
 10
9.332478
 20
-19.999368
 30
0.0
 40
1.325
  0
CIRCLE
  5
73C
330
1D
100
AcDbEntity
  8
BLACK
100
AcDbCircle
 10
9.332478
 20
-19.999368
 30
0.0
 40
1.775
  0
CIRCLE
  5
73D
330
1D
100
AcDbEntity
  8
BLACK
100
AcDbCircle
 10
5.861241
 20
-78.340004
 30
0.0
 40
1.325
  0
CIRCLE
  5
73E
330
1D
100
AcDbEntity
  8
BLACK
100
AcDbCircle
 10
5.861241
 20
-78.340004
 30
0.0
 40
1.775
  0
CIRCLE
  5
73F
330
1D
100
AcDbEntity
  8
BLACK
100
AcDbCircle
 10
146.428168
 20
-17.822555
 30
0.0
 40
1.325
  0
CIRCLE
  5
740
330
1D
100
AcDbEntity
  8
BLACK
100
AcDbCircle
 10
146.428168
 20
-17.822555
 30
0.0
 40
1.775
  0
CIRCLE
  5
741
330
1D
100
AcDbEntity
  8
BLACK
100
AcDbCircle
 10
6.130013
 20
-66.49000699999999
 30
0.0
 40
1.325
  0
CIRCLE
  5
742
330
1D
100
AcDbEntity
  8
BLACK
100
AcDbCircle
 10
6.130013
 20
-66.49000699999999
 30
0.0
 40
1.775
  0
CIRCLE
  5
743
330
1D
100
AcDbEntity
  8
BLACK
100
AcDbCircle
 10
169.225253
 20
-32.491899
 30
0.0
 40
1.325
  0
CIRCLE
  5
744
330
1D
100
AcDbEntity
  8
BLACK
100
AcDbCircle
 10
169.225253
 20
-32.491899
 30
0.0
 40
1.775
  0
CIRCLE
  5
745
330
1D
100
AcDbEntity
  8
BLACK
100
AcDbCircle
 10
120.56427
 20
-70.75179
 30
0.0
 40
1.325
  0
CIRCLE
  5
746
330
1D
100
AcDbEntity
  8
BLACK
100
AcDbCircle
 10
120.56427
 20
-70.75179
 30
0.0
 40
1.775
  0
CIRCLE
  5
747
330
1D
100
AcDbEntity
  8
BLACK
100
AcDbCircle
 10
133.848036
 20
-54.102517
 30
0.0
 40
1.325
  0
CIRCLE
  5
748
330
1D
100
AcDbEntity
  8
BLACK
100
AcDbCircle
 10
133.848036
 20
-54.102517
 30
0.0
 40
1.775
  0
CIRCLE
  5
749
330
1D
100
AcDbEntity
  8
BLACK
100
AcDbCircle
 10
172.485762
 20
-70.751792
 30
0.0
 40
1.325
  0
CIRCLE
  5
74A
330
1D
100
AcDbEntity
  8
BLACK
100
AcDbCircle
 10
172.485762
 20
-70.751792
 30
0.0
 40
1.775
  0
CIRCLE
  5
74B
330
1D
100
AcDbEntity
  8
BLACK
100
AcDbCircle
 10
168.925366
 20
-98.352419
 30
0.0
 40
1.325
  0
CIRCLE
  5
74C
330
1D
100
AcDbEntity
  8
BLACK
100
AcDbCircle
 10
168.925366
 20
-98.352419
 30
0.0
 40
1.775
  0
CIRCLE
  5
74D
330
1D
100
AcDbEntity
  8
BLACK
100
AcDbCircle
 10
159.212005
 20
-54.102521
 30
0.0
 40
1.325
  0
CIRCLE
  5
74E
330
1D
100
AcDbEntity
  8
BLACK
100
AcDbCircle
 10
159.212005
 20
-54.102521
 30
0.0
 40
1.775
  0
CIRCLE
  5
74F
330
1D
100
AcDbEntity
  8
BLACK
100
AcDbCircle
 10
146.539123
 20
-76.27291799999999
 30
0.0
 40
1.325
  0
CIRCLE
  5
750
330
1D
100
AcDbEntity
  8
BLACK
100
AcDbCircle
 10
146.539123
 20
-76.27291799999999
 30
0.0
 40
1.775
  0
CIRCLE
  5
751
330
1D
100
AcDbEntity
  8
BLACK
100
AcDbCircle
 10
144.34401
 20
-95.281876
 30
0.0
 40
1.325
  0
CIRCLE
  5
752
330
1D
100
AcDbEntity
  8
BLACK
100
AcDbCircle
 10
144.34401
 20
-95.281876
 30
0.0
 40
1.775
  0
CIRCLE
  5
753
330
1D
100
AcDbEntity
  8
0
100
AcDbCircle
 10
272.475007
 20
-9.339997
 30
0.0
 40
1.325
  0
CIRCLE
  5
754
330
1D
100
AcDbEntity
  8
0
100
AcDbCircle
 10
272.475007
 20
-9.339997
 30
0.0
 40
1.775
  0
CIRCLE
  5
755
330
1D
100
AcDbEntity
  8
0
100
AcDbCircle
 10
305.275017
 20
-9.339991999999999
 30
0.0
 40
1.325
  0
CIRCLE
  5
756
330
1D
100
AcDbEntity
  8
0
100
AcDbCircle
 10
305.275017
 20
-9.339991999999999
 30
0.0
 40
1.775
  0
CIRCLE
  5
757
330
1D
100
AcDbEntity
  8
0
100
AcDbCircle
 10
277.940016
 20
-66.490003
 30
0.0
 40
1.325
  0
CIRCLE
  5
758
330
1D
100
AcDbEntity
  8
0
100
AcDbCircle
 10
277.940016
 20
-66.490003
 30
0.0
 40
1.775
  0
CIRCLE
  5
759
330
1D
100
AcDbEntity
  8
0
100
AcDbCircle
 10
310.740003
 20
-66.490003
 30
0.0
 40
1.325
  0
CIRCLE
  5
75A
330
1D
100
AcDbEntity
  8
0
100
AcDbCircle
 10
310.740003
 20
-66.490003
 30
0.0
 40
1.775
  0
CIRCLE
  5
75B
330
1D
100
AcDbEntity
  8
0
100
AcDbCircle
 10
84.85105000000001
 20
-89.99946100000001
 30
0.0
 40
1.325
  0
CIRCLE
  5
75C
330
1D
100
AcDbEntity
  8
0
100
AcDbCircle
 10
84.85105000000001
 20
-89.99946100000001
 30
0.0
 40
1.775
  0
CIRCLE
  5
75D
330
1D
100
AcDbEntity
  8
0
100
AcDbCircle
 10
116.93427
 20
-96.81896
 30
0.0
 40
1.325
  0
CIRCLE
  5
75E
330
1D
100
AcDbEntity
  8
0
100
AcDbCircle
 10
116.93427
 20
-96.81896
 30
0.0
 40
1.775
  0
ENDSEC
  0
SECTION
  2
OBJECTS
  0
DICTIONARY
  5
C
330
0
100
AcDbDictionary
281
     1
  3
ACAD_COLOR
350
6FA
  3
ACAD_DETAILVIEWSTYLE
350
6F8
  3
ACAD_GROUP
350
D
  3
ACAD_LAYOUT
350
1A
  3
ACAD_MATERIAL
350
6E8
  3
ACAD_MLEADERSTYLE
350
6EE
  3
ACAD_MLINESTYLE
350
17
  3
ACAD_PLOTSETTINGS
350
19
  3
ACAD_PLOTSTYLENAME
350
E
  3
ACAD_SCALELIST
350
6B9
  3
ACAD_SECTIONVIEWSTYLE
350
6F9
  3
ACAD_TABLESTYLE
350
6EC
  3
ACAD_VISUALSTYLE
350
6CF
  3
AcDbVariableDictionary
350
6F0
  3
ACDB_RECOMPOSE_DATA
350
761
  3
EZDXF_META
350
709
  0
DICTIONARY
  5
6FA
330
C
100
AcDbDictionary
281
     1
  0
DICTIONARY
  5
6F8
102
{ACAD_REACTORS
330
C
102
}
330
C
100
AcDbDictionary
281
     1
  0
DICTIONARY
  5
D
102
{ACAD_REACTORS
330
C
102
}
330
C
100
AcDbDictionary
281
     1
  0
DICTIONARY
  5
1A
102
{ACAD_REACTORS
330
C
102
}
330
C
100
AcDbDictionary
281
     1
  3
Layout1
350
1C
  3
Model
350
1E
  0
DICTIONARY
  5
6E8
102
{ACAD_REACTORS
330
C
102
}
330
C
100
AcDbDictionary
281
     1
  3
ByBlock
350
6EA
  3
ByLayer
350
6E9
  3
Global
350
6EB
  0
DICTIONARY
  5
6EE
102
{ACAD_REACTORS
330
C
102
}
330
C
100
AcDbDictionary
281
     1
  3
Standard
350
6EF
  0
DICTIONARY
  5
17
102
{ACAD_REACTORS
330
C
102
}
330
C
100
AcDbDictionary
281
     1
  3
Standard
350
18
  0
DICTIONARY
  5
19
102
{ACAD_REACTORS
330
C
102
}
330
C
100
AcDbDictionary
281
     1
  0
ACDBDICTIONARYWDFLT
  5
E
102
{ACAD_REACTORS
330
C
102
}
330
C
100
AcDbDictionary
281
     1
  3
Normal
350
F
100
AcDbDictionaryWithDefault
340
F
  0
DICTIONARY
  5
6B9
102
{ACAD_REACTORS
330
C
102
}
330
C
100
AcDbDictionary
281
     1
  3
A0
350
6BA
  3
A1
350
6BB
  3
A2
350
6BC
  3
A3
350
6BD
  3
A4
350
6BE
  3
A5
350
6BF
  3
A6
350
6C0
  3
A7
350
6C1
  3
A8
350
6C2
  3
A9
350
6C3
  3
B0
350
6C4
  3
B1
350
6C5
  3
B2
350
6C6
  3
B3
350
6C7
  3
B4
350
6C8
  3
B5
350
6C9
  3
B6
350
6CA
  0
DICTIONARY
  5
6F9
102
{ACAD_REACTORS
330
C
102
}
330
C
100
AcDbDictionary
281
     1
  0
DICTIONARY
  5
6EC
102
{ACAD_REACTORS
330
C
102
}
330
C
100
AcDbDictionary
281
     1
  3
Standard
350
6ED
  0
DICTIONARY
  5
6CF
102
{ACAD_REACTORS
330
C
102
}
330
C
100
AcDbDictionary
281
     1
  3
2dWireframe
350
6D4
  3
Basic
350
6D7
  3
Brighten
350
6DB
  3
ColorChange
350
6DF
  3
Conceptual
350
6D9
  3
Dim
350
6DA
  3
EdgeColorOff
350
6E2
  3
Facepattern
350
6DE
  3
Flat
350
6D0
  3
FlatWithEdges
350
6D1
  3
Gouraud
350
6D2
  3
GouraudWithEdges
350
6D3
  3
Hidden
350
6D6
  3
JitterOff
350
6E0
  3
Linepattern
350
6DD
  3
OverhangOff
350
6E1
  3
Realistic
350
6D8
  3
Shaded
350
6E7
  3
Shaded with edges
350
6E6
  3
Shades of Gray
350
6E3
  3
Sketchy
350
6E4
  3
Thicken
350
6DC
  3
Wireframe
350
6D5
  3
X-Ray
350
6E5
  0
DICTIONARY
  5
6F0
102
{ACAD_REACTORS
330
C
102
}
330
C
100
AcDbDictionary
281
     1
  3
CANNOSCALE
350
6F1
  3
CMLEADERSTYLE
350
6F6
  3
CTABLESTYLE
350
6F5
  3
MSLTSCALE
350
6F7
  0
XRECORD
  5
761
102
{ACAD_REACTORS
330
C
102
}
330
C
100
AcDbXrecord
280
     1
 90
        1
330
6ED
  0
DICTIONARY
  5
709
330
C
100
AcDbDictionary
281
     1
  3
WRITTEN_BY_EZDXF
350
70A
  0
LAYOUT
  5
1C
102
{ACAD_REACTORS
330
1A
102
}
330
1A
100
AcDbPlotSettings
  1

  2
none_device
  4

  6

 40
0.0
 41
0.0
 42
0.0
 43
0.0
 44
0.0
 45
0.0
 46
0.0
 47
0.0
 48
0.0
 49
0.0
140
0.0
141
0.0
142
1.0
143
1.0
 70
   688
 72
     0
 73
     0
 74
     5
  7

 75
    16
 76
     0
 77
     2
 78
   300
147
1.0
148
0.0
149
0.0
100
AcDbLayout
  1
Layout1
 70
     1
 71
     1
 10
0.0
 20
0.0
 11
12.0
 21
9.0
 12
0.0
 22
0.0
 32
0.0
 14
1.000000000000000E+20
 24
1.000000000000000E+20
 34
1.000000000000000E+20
 15
-1.000000000000000E+20
 25
-1.000000000000000E+20
 35
-1.000000000000000E+20
146
0.0
 13
0.0
 23
0.0
 33
0.0
 16
1.0
 26
0.0
 36
0.0
 17
0.0
 27
1.0
 37
0.0
 76
     0
330
1B
  0
LAYOUT
  5
1E
102
{ACAD_REACTORS
330
1A
102
}
330
1A
100
AcDbPlotSettings
  1

  2
none_device
  4
Letter_(8.50_x_11.00_Inches)
  6

 40
6.35
 41
6.35
 42
6.35000508
 43
6.35000508
 44
215.9
 45
279.4
 46
0.0
 47
0.0
 48
0.0
 49
0.0
140
0.0
141
0.0
142
1.0
143
1.0
 70
  1712
 72
     0
 73
     0
 74
     0
  7

 75
     0
 76
     0
 77
     2
 78
   300
147
1.0
148
0.0
149
0.0
100
AcDbLayout
  1
Model
 70
     1
 71
     0
 10
0.0
 20
0.0
 11
12.0
 21
9.0
 12
0.0
 22
0.0
 32
0.0
 14
1.000000000000000E+20
 24
1.000000000000000E+20
 34
1.000000000000000E+20
 15
-1.000000000000000E+20
 25
-1.000000000000000E+20
 35
-1.000000000000000E+20
146
0.0
 13
0.0
 23
0.0
 33
0.0
 16
1.0
 26
0.0
 36
0.0
 17
0.0
 27
1.0
 37
0.0
 76
     0
330
1D
331
442
  0
MATERIAL
  5
6EA
102
{ACAD_REACTORS
330
6E8
102
}
330
6E8
100
AcDbMaterial
  1
ByBlock
 72
     1
273
     1
 94
      127
  0
MATERIAL
  5
6E9
102
{ACAD_REACTORS
330
6E8
102
}
330
6E8
100
AcDbMaterial
  1
ByLayer
 72
     1
273
     1
 94
      127
  0
MATERIAL
  5
6EB
102
{ACAD_REACTORS
330
6E8
102
}
330
6E8
100
AcDbMaterial
  1
Global
 72
     1
273
     1
 94
      127
  0
MLEADERSTYLE
  5
6EF
102
{ACAD_REACTORS
330
6EE
102
}
330
6EE
100
AcDbMLeaderStyle
179
     2
170
     2
171
     1
172
     0
 90
        2
 40
0.0
 41
0.0
173
     1
 91
-1056964608
340
14
 92
       -2
290
     1
 42
2.0
291
     1
 43
8.0
  3
Standard
341
0
 44
4.0
300

342
11
174
     1
178
     6
175
     1
176
     0
 93
-1056964608
 45
4.0
292
     0
297
     0
 46
4.0
343
0
 94
-1056964608
 47
1.0
 49
1.0
140
1.0
293
     1
141
0.0
294
     1
177
     0
142
1.0
295
     0
296
     0
143
3.75
271
     0
272
     9
273
     9
298
     0
  0
MLINESTYLE
  5
18
102
{ACAD_REACTORS
330
17
102
}
330
17
100
AcDbMlineStyle
  2
Standard
 70
     0
  3

 62
   256
 51
90.0
 52
90.0
 71
     2
 49
0.5
 62
   256
  6
BYLAYER
 49
-0.5
 62
   256
  6
BYLAYER
  0
ACDBPLACEHOLDER
  5
F
102
{ACAD_REACTORS
330
E
102
}
330
E
  0
SCALE
  5
6BA
102
{ACAD_REACTORS
330
6B9
102
}
330
6B9
100
AcDbScale
 70
     0
300
1:1
140
1.0
141
1.0
290
     1
  0
SCALE
  5
6BB
102
{ACAD_REACTORS
330
6B9
102
}
330
6B9
100
AcDbScale
 70
     0
300
1:2
140
1.0
141
2.0
290
     0
  0
SCALE
  5
6BC
102
{ACAD_REACTORS
330
6B9
102
}
330
6B9
100
AcDbScale
 70
     0
300
1:4
140
1.0
141
4.0
290
     0
  0
SCALE
  5
6BD
102
{ACAD_REACTORS
330
6B9
102
}
330
6B9
100
AcDbScale
 70
     0
300
1:5
140
1.0
141
5.0
290
     0
  0
SCALE
  5
6BE
102
{ACAD_REACTORS
330
6B9
102
}
330
6B9
100
AcDbScale
 70
     0
300
1:8
140
1.0
141
8.0
290
     0
  0
SCALE
  5
6BF
102
{ACAD_REACTORS
330
6B9
102
}
330
6B9
100
AcDbScale
 70
     0
300
1:10
140
1.0
141
10.0
290
     0
  0
SCALE
  5
6C0
102
{ACAD_REACTORS
330
6B9
102
}
330
6B9
100
AcDbScale
 70
     0
300
1:16
140
1.0
141
16.0
290
     0
  0
SCALE
  5
6C1
102
{ACAD_REACTORS
330
6B9
102
}
330
6B9
100
AcDbScale
 70
     0
300
1:20
140
1.0
141
20.0
290
     0
  0
SCALE
  5
6C2
102
{ACAD_REACTORS
330
6B9
102
}
330
6B9
100
AcDbScale
 70
     0
300
1:30
140
1.0
141
30.0
290
     0
  0
SCALE
  5
6C3
102
{ACAD_REACTORS
330
6B9
102
}
330
6B9
100
AcDbScale
 70
     0
300
1:40
140
1.0
141
40.0
290
     0
  0
SCALE
  5
6C4
102
{ACAD_REACTORS
330
6B9
102
}
330
6B9
100
AcDbScale
 70
     0
300
1:50
140
1.0
141
50.0
290
     0
  0
SCALE
  5
6C5
102
{ACAD_REACTORS
330
6B9
102
}
330
6B9
100
AcDbScale
 70
     0
300
1:100
140
1.0
141
100.0
290
     0
  0
SCALE
  5
6C6
102
{ACAD_REACTORS
330
6B9
102
}
330
6B9
100
AcDbScale
 70
     0
300
2:1
140
2.0
141
1.0
290
     0
  0
SCALE
  5
6C7
102
{ACAD_REACTORS
330
6B9
102
}
330
6B9
100
AcDbScale
 70
     0
300
4:1
140
4.0
141
1.0
290
     0
  0
SCALE
  5
6C8
102
{ACAD_REACTORS
330
6B9
102
}
330
6B9
100
AcDbScale
 70
     0
300
8:1
140
8.0
141
1.0
290
     0
  0
SCALE
  5
6C9
102
{ACAD_REACTORS
330
6B9
102
}
330
6B9
100
AcDbScale
 70
     0
300
10:1
140
10.0
141
1.0
290
     0
  0
SCALE
  5
6CA
102
{ACAD_REACTORS
330
6B9
102
}
330
6B9
100
AcDbScale
 70
     0
300
100:1
140
100.0
141
1.0
290
     0
  0
TABLESTYLE
  5
6ED
102
{ACAD_REACTORS
330
6EC
102
}
102
{ACAD_XDICTIONARY
360
75F
102
}
330
6EC
100
AcDbTableStyle
  3
Standard
 70
     0
 71
     0
 40
0.06
 41
0.06
280
     0
281
     0
  7
Standard
140
4.5
170
     2
 62
     0
 63
   257
283
     0
 90
        4
 91
        0
  1

274
    -2
284
     1
 64
     0
275
    -2
285
     1
 65
     0
276
    -2
286
     1
 66
     0
277
    -2
287
     1
 67
     0
278
    -2
288
     1
 68
     0
279
    -2
289
     1
 69
     0
  7
Standard
140
6.0
170
     5
 62
     0
 63
   257
283
     0
 90
        4
 91
        0
  1

274
    -2
284
     1
 64
     0
275
    -2
285
     1
 65
     0
276
    -2
286
     1
 66
     0
277
    -2
287
     1
 67
     0
278
    -2
288
     1
 68
     0
279
    -2
289
     1
 69
     0
  7
Standard
140
4.5
170
     5
 62
     0
 63
   257
283
     0
 90
        4
 91
        0
  1

274
    -2
284
     1
 64
     0
275
    -2
285
     1
 65
     0
276
    -2
286
     1
 66
     0
277
    -2
287
     1
 67
     0
278
    -2
288
     1
 68
     0
279
    -2
289
     1
 69
     0
  0
VISUALSTYLE
  5
6D4
102
{ACAD_REACTORS
330
6CF
102
}
330
6CF
100
AcDbVisualStyle
  2
2dWireframe
 70
     4
177
     3
291
     0
 70
    58
 90
        0
176
     1
 90
        2
176
     1
 90
        0
176
     1
 90
        0
176
     1
 40
0.6
176
     1
 40
30.0
176
     1
 62
     7
420
 16777215
176
     1
 90
        1
176
     1
 90
        4
176
     1
 62
     7
176
     1
 62
   257
176
     1
 90
        1
176
     1
 90
        1
176
     1
 40
1.0
176
     1
 90
        0
176
     1
 62
   257
176
     1
 40
1.0
176
     1
 90
        1
176
     1
 90
        6
176
     1
 90
        2
176
     1
 62
     7
176
     1
 90
        5
176
     1
 90
        0
176
     1
 90
        0
176
     1
290
     0
176
     1
 90
        1
176
     1
 40
0.0
176
     1
 90
        0
176
     1
290
     1
176
     1
290
     1
176
     1
290
     0
176
     1
290
     0
176
     1
290
     0
176
     1
290
     0
176
     1
290
     0
176
     1
290
     0
176
     1
290
     0
176
     1
 90
       50
176
     1
 40
0.0
176
     1
 40
1.0
176
     1
 90
        0
176
     1
 62
    18
420
        0
176
     1
 90
       50
176
     1
 90
        3
176
     1
 62
     5
420
      255
176
     1
290
     0
176
     1
 90
       50
176
     1
 90
       50
176
     1
 90
       50
176
     1
290
     0
176
     1
 90
       50
176
     1
 62
   256
176
     0
 40
1.0
176
     0
 90
        2
176
     1
  1
strokes_ogs.tif
176
     1
290
     0
176
     1
 40
1.0
176
     1
 40
1.0
176
     1
  0
VISUALSTYLE
  5
6D7
102
{ACAD_REACTORS
330
6CF
102
}
330
6CF
100
AcDbVisualStyle
  2
Basic
 70
     7
177
     3
291
     1
 70
    58
 90
        1
176
     1
 90
        0
176
     1
 90
        1
176
     1
 90
        0
176
     1
 40
0.6
176
     1
 40
30.0
176
     1
 62
     7
420
 16777215
176
     1
 90
        0
176
     1
 90
        4
176
     1
 62
     7
176
     1
 62
   257
176
     1
 90
        1
176
     1
 90
        1
176
     1
 40
1.0
176
     1
 90
        8
176
     1
 62
     7
176
     1
 40
1.0
176
     1
 90
        1
176
     1
 90
        6
176
     1
 90
        2
176
     1
 62
     7
176
     1
 90
        5
176
     1
 90
        0
176
     1
 90
        0
176
     1
290
     0
176
     1
 90
        1
176
     1
 40
0.0
176
     1
 90
        0
176
     1
290
     0
176
     1
290
     1
176
     1
290
     1
176
     1
290
     0
176
     1
290
     0
176
     1
290
     0
176
     1
290
     0
176
     1
290
     0
176
     1
290
     0
176
     1
 90
       50
176
     1
 40
0.0
176
     1
 40
1.0
176
     1
 90
        0
176
     1
 62
    18
420
        0
176
     1
 90
       50
176
     1
 90
        3
176
     1
 62
     5
420
      255
176
     1
290
     0
176
     1
 90
       50
176
     1
 90
       50
176
     1
 90
       50
176
     1
290
     0
176
     1
 90
       50
176
     1
 62
   256
176
     0
 40
1.0
176
     0
 90
        2
176
     1
  1
strokes_ogs.tif
176
     1
290
     0
176
     1
 40
1.0
176
     1
 40
1.0
176
     1
  0
VISUALSTYLE
  5
6DB
102
{ACAD_REACTORS
330
6CF
102
}
330
6CF
100
AcDbVisualStyle
  2
Brighten
 70
    12
177
     3
291
     1
 70
    58
 90
        2
176
     1
 90
        2
176
     1
 90
        0
176
     1
 90
        0
176
     1
 40
0.6
176
     1
 40
30.0
176
     1
 62
     7
420
 16777215
176
     1
 90
        1
176
     1
 90
        4
176
     1
 62
     7
176
     1
 62
   257
176
     1
 90
        1
176
     1
 90
        1
176
     1
 40
1.0
176
     1
 90
        8
176
     1
 62
     7
176
     1
 40
1.0
176
     1
 90
        1
176
     1
 90
        6
176
     1
 90
        2
176
     1
 62
     7
176
     1
 90
        5
176
     1
 90
        0
176
     1
 90
        0
176
     1
290
     0
176
     1
 90
        1
176
     1
 40
50.0
176
     1
 90
        0
176
     1
290
     0
176
     1
290
     1
176
     1
290
     1
176
     1
290
     0
176
     1
290
     0
176
     1
290
     0
176
     1
290
     0
176
     1
290
     0
176
     1
290
     0
176
     1
 90
       50
176
     1
 40
0.0
176
     1
 40
1.0
176
     1
 90
        0
176
     1
 62
    18
420
        0
176
     1
 90
       50
176
     1
 90
        3
176
     1
 62
     5
420
      255
176
     1
290
     0
176
     1
 90
       50
176
     1
 90
       50
176
     1
 90
       50
176
     1
290
     0
176
     1
 90
       50
176
     1
 62
   256
176
     0
 40
1.0
176
     0
 90
        2
176
     1
  1
strokes_ogs.tif
176
     1
290
     0
176
     1
 40
1.0
176
     1
 40
1.0
176
     1
  0
VISUALSTYLE
  5
6DF
102
{ACAD_REACTORS
330
6CF
102
}
330
6CF
100
AcDbVisualStyle
  2
ColorChange
 70
    16
177
     3
291
     1
 70
    58
 90
        2
176
     1
 90
        2
176
     1
 90
        3
176
     1
 90
        0
176
     1
 40
0.6
176
     1
 40
30.0
176
     1
 62
     8
420
  8421504
176
     1
 90
        1
176
     1
 90
        4
176
     1
 62
     7
176
     1
 62
   257
176
     1
 90
        1
176
     1
 90
        1
176
     1
 40
1.0
176
     1
 90
        8
176
     1
 62
     8
420
  8421504
176
     1
 40
1.0
176
     1
 90
        1
176
     1
 90
        6
176
     1
 90
        2
176
     1
 62
     7
176
     1
 90
        5
176
     1
 90
        0
176
     1
 90
        0
176
     1
290
     0
176
     1
 90
        1
176
     1
 40
0.0
176
     1
 90
        0
176
     1
290
     0
176
     1
290
     1
176
     1
290
     1
176
     1
290
     0
176
     1
290
     0
176
     1
290
     0
176
     1
290
     0
176
     1
290
     0
176
     1
290
     0
176
     1
 90
       50
176
     1
 40
0.0
176
     1
 40
1.0
176
     1
 90
        0
176
     1
 62
    18
420
        0
176
     1
 90
       50
176
     1
 90
        3
176
     1
 62
     5
420
      255
176
     1
290
     0
176
     1
 90
       50
176
     1
 90
       50
176
     1
 90
       50
176
     1
290
     0
176
     1
 90
       50
176
     1
 62
   256
176
     0
 40
1.0
176
     0
 90
        2
176
     1
  1
strokes_ogs.tif
176
     1
290
     0
176
     1
 40
1.0
176
     1
 40
1.0
176
     1
  0
VISUALSTYLE
  5
6D9
102
{ACAD_REACTORS
330
6CF
102
}
330
6CF
100
AcDbVisualStyle
  2
Conceptual
 70
     9
177
     3
291
     0
 70
    58
 90
        3
176
     1
 90
        2
176
     1
 90
        0
176
     1
 90
        0
176
     1
 40
0.6
176
     1
 40
30.0
176
     1
 62
     7
420
 16777215
176
     1
 90
        2
176
     1
 90
        2
176
     1
 62
     7
176
     1
 62
   257
176
     1
 90
        1
176
     1
 90
        1
176
     1
 40
179.0
176
     1
 90
        8
176
     1
 62
     7
176
     1
 40
1.0
176
     1
 90
        1
176
     1
 90
        6
176
     1
 90
        2
176
     1
 62
     7
176
     1
 90
        3
176
     1
 90
        0
176
     1
 90
        0
176
     1
290
     0
176
     1
 90
        1
176
     1
 40
0.0
176
     1
 90
        0
176
     1
290
     0
176
     1
290
     1
176
     1
290
     1
176
     1
290
     0
176
     1
290
     0
176
     1
290
     0
176
     1
290
     0
176
     1
290
     0
176
     1
290
     0
176
     1
 90
       50
176
     1
 40
0.0
176
     1
 40
1.0
176
     1
 90
        0
176
     1
 62
    18
420
        0
176
     1
 90
       50
176
     1
 90
        3
176
     1
 62
     5
420
      255
176
     1
290
     0
176
     1
 90
       50
176
     1
 90
       50
176
     1
 90
       50
176
     1
290
     0
176
     1
 90
       50
176
     1
 62
   256
176
     0
 40
1.0
176
     0
 90
        2
176
     1
  1
strokes_ogs.tif
176
     1
290
     0
176
     1
 40
1.0
176
     1
 40
1.0
176
     1
  0
VISUALSTYLE
  5
6DA
102
{ACAD_REACTORS
330
6CF
102
}
330
6CF
100
AcDbVisualStyle
  2
Dim
 70
    11
177
     3
291
     1
 70
    58
 90
        2
176
     1
 90
        2
176
     1
 90
        0
176
     1
 90
        0
176
     1
 40
0.6
176
     1
 40
30.0
176
     1
 62
     7
420
 16777215
176
     1
 90
        1
176
     1
 90
        4
176
     1
 62
     7
176
     1
 62
   257
176
     1
 90
        1
176
     1
 90
        1
176
     1
 40
1.0
176
     1
 90
        8
176
     1
 62
     7
176
     1
 40
1.0
176
     1
 90
        1
176
     1
 90
        6
176
     1
 90
        2
176
     1
 62
     7
176
     1
 90
        5
176
     1
 90
        0
176
     1
 90
        0
176
     1
290
     0
176
     1
 90
        1
176
     1
 40
-50.0
176
     1
 90
        0
176
     1
290
     0
176
     1
290
     1
176
     1
290
     1
176
     1
290
     0
176
     1
290
     0
176
     1
290
     0
176
     1
290
     0
176
     1
290
     0
176
     1
290
     0
176
     1
 90
       50
176
     1
 40
0.0
176
     1
 40
1.0
176
     1
 90
        0
176
     1
 62
    18
420
        0
176
     1
 90
       50
176
     1
 90
        3
176
     1
 62
     5
420
      255
176
     1
290
     0
176
     1
 90
       50
176
     1
 90
       50
176
     1
 90
       50
176
     1
290
     0
176
     1
 90
       50
176
     1
 62
   256
176
     0
 40
1.0
176
     0
 90
        2
176
     1
  1
strokes_ogs.tif
176
     1
290
     0
176
     1
 40
1.0
176
     1
 40
1.0
176
     1
  0
VISUALSTYLE
  5
6E2
102
{ACAD_REACTORS
330
6CF
102
}
330
6CF
100
AcDbVisualStyle
  2
EdgeColorOff
 70
    22
177
     3
291
     1
 70
    58
 90
        2
176
     0
 90
        2
176
     0
 90
        0
176
     0
 90
        0
176
     0
 40
0.6
176
     0
 40
30.0
176
     0
 62
     7
420
 16777215
176
     0
 90
        1
176
     0
 90
        4
176
     0
 62
     7
176
     0
 62
   257
176
     0
 90
        1
176
     0
 90
        1
176
     0
 40
1.0
176
     0
 90
        8
176
     2
 62
     7
176
     0
 40
1.0
176
     0
 90
        1
176
     0
 90
        6
176
     0
 90
        2
176
     0
 62
     7
176
     0
 90
        5
176
     0
 90
        0
176
     0
 90
        0
176
     0
290
     0
176
     0
 90
        1
176
     0
 40
0.0
176
     0
 90
        0
176
     0
290
     0
176
     0
290
     1
176
     0
290
     1
176
     0
290
     0
176
     0
290
     0
176
     0
290
     0
176
     0
290
     0
176
     0
290
     0
176
     0
290
     0
176
     0
 90
       50
176
     0
 40
0.0
176
     0
 40
1.0
176
     0
 90
        0
176
     0
 62
    18
420
        0
176
     0
 90
       50
176
     0
 90
        3
176
     0
 62
     5
420
      255
176
     0
290
     0
176
     0
 90
       50
176
     0
 90
       50
176
     0
 90
       50
176
     0
290
     0
176
     0
 90
       50
176
     0
 62
   256
176
     0
 40
1.0
176
     0
 90
        2
176
     0
  1
strokes_ogs.tif
176
     0
290
     0
176
     0
 40
1.0
176
     0
 40
1.0
176
     0
  0
VISUALSTYLE
  5
6DE
102
{ACAD_REACTORS
330
6CF
102
}
330
6CF
100
AcDbVisualStyle
  2
Facepattern
 70
    15
177
     3
291
     1
 70
    58
 90
        2
176
     1
 90
        2
176
     1
 90
        0
176
     1
 90
        0
176
     1
 40
0.6
176
     1
 40
30.0
176
     1
 62
     7
420
 16777215
176
     1
 90
        1
176
     1
 90
        4
176
     1
 62
     7
176
     1
 62
   257
176
     1
 90
        1
176
     1
 90
        1
176
     1
 40
1.0
176
     1
 90
        8
176
     1
 62
     7
176
     1
 40
1.0
176
     1
 90
        1
176
     1
 90
        6
176
     1
 90
        2
176
     1
 62
     7
176
     1
 90
        5
176
     1
 90
        0
176
     1
 90
        0
176
     1
290
     0
176
     1
 90
        1
176
     1
 40
0.0
176
     1
 90
        0
176
     1
290
     0
176
     1
290
     1
176
     1
290
     1
176
     1
290
     0
176
     1
290
     0
176
     1
290
     0
176
     1
290
     0
176
     1
290
     0
176
     1
290
     0
176
     1
 90
       50
176
     1
 40
0.0
176
     1
 40
1.0
176
     1
 90
        0
176
     1
 62
    18
420
        0
176
     1
 90
       50
176
     1
 90
        3
176
     1
 62
     5
420
      255
176
     1
290
     0
176
     1
 90
       50
176
     1
 90
       50
176
     1
 90
       50
176
     1
290
     0
176
     1
 90
       50
176
     1
 62
   256
176
     0
 40
1.0
176
     0
 90
        2
176
     1
  1
strokes_ogs.tif
176
     1
290
     0
176
     1
 40
1.0
176
     1
 40
1.0
176
     1
  0
VISUALSTYLE
  5
6D0
102
{ACAD_REACTORS
330
6CF
102
}
330
6CF
100
AcDbVisualStyle
  2
Flat
 70
     0
177
     3
291
     1
 70
    58
 90
        2
176
     1
 90
        1
176
     1
 90
        1
176
     1
 90
        2
176
     1
 40
0.6
176
     1
 40
30.0
176
     1
 62
     7
420
 16777215
176
     1
 90
        0
176
     1
 90
        0
176
     1
 62
     7
176
     1
 62
   257
176
     1
 90
        1
176
     1
 90
        1
176
     1
 40
1.0
176
     1
 90
        8
176
     1
 62
     7
176
     1
 40
1.0
176
     1
 90
        1
176
     1
 90
        6
176
     1
 90
        2
176
     1
 62
     7
176
     1
 90
        5
176
     1
 90
        0
176
     1
 90
        0
176
     1
290
     0
176
     1
 90
       13
176
     1
 40
0.0
176
     1
 90
        0
176
     1
290
     0
176
     1
290
     1
176
     1
290
     1
176
     1
290
     0
176
     1
290
     0
176
     1
290
     0
176
     1
290
     0
176
     1
290
     0
176
     1
290
     0
176
     1
 90
       50
176
     1
 40
0.0
176
     1
 40
1.0
176
     1
 90
        0
176
     1
 62
    18
420
        0
176
     1
 90
       50
176
     1
 90
        3
176
     1
 62
     5
420
      255
176
     1
290
     0
176
     1
 90
       50
176
     1
 90
       50
176
     1
 90
       50
176
     1
290
     0
176
     1
 90
       50
176
     1
 62
   256
176
     0
 40
1.0
176
     0
 90
        2
176
     1
  1
strokes_ogs.tif
176
     1
290
     0
176
     1
 40
1.0
176
     1
 40
1.0
176
     1
  0
VISUALSTYLE
  5
6D1
102
{ACAD_REACTORS
330
6CF
102
}
330
6CF
100
AcDbVisualStyle
  2
FlatWithEdges
 70
     1
177
     3
291
     1
 70
    58
 90
        2
176
     1
 90
        1
176
     1
 90
        1
176
     1
 90
        2
176
     1
 40
0.6
176
     1
 40
30.0
176
     1
 62
     7
420
 16777215
176
     1
 90
        1
176
     1
 90
        0
176
     1
 62
     7
176
     1
 62
   257
176
     1
 90
        1
176
     1
 90
        1
176
     1
 40
1.0
176
     1
 90
        0
176
     1
 62
   257
176
     1
 40
1.0
176
     1
 90
        1
176
     1
 90
        6
176
     1
 90
        2
176
     1
 62
     7
176
     1
 90
        5
176
     1
 90
        0
176
     1
 90
        0
176
     1
290
     0
176
     1
 90
       13
176
     1
 40
0.0
176
     1
 90
        0
176
     1
290
     0
176
     1
290
     1
176
     1
290
     1
176
     1
290
     0
176
     1
290
     0
176
     1
290
     0
176
     1
290
     0
176
     1
290
     0
176
     1
290
     0
176
     1
 90
       50
176
     1
 40
0.0
176
     1
 40
1.0
176
     1
 90
        0
176
     1
 62
    18
420
        0
176
     1
 90
       50
176
     1
 90
        3
176
     1
 62
     5
420
      255
176
     1
290
     0
176
     1
 90
       50
176
     1
 90
       50
176
     1
 90
       50
176
     1
290
     0
176
     1
 90
       50
176
     1
 62
   256
176
     0
 40
1.0
176
     0
 90
        2
176
     1
  1
strokes_ogs.tif
176
     1
290
     0
176
     1
 40
1.0
176
     1
 40
1.0
176
     1
  0
VISUALSTYLE
  5
6D2
102
{ACAD_REACTORS
330
6CF
102
}
330
6CF
100
AcDbVisualStyle
  2
Gouraud
 70
     2
177
     3
291
     1
 70
    58
 90
        2
176
     1
 90
        2
176
     1
 90
        1
176
     1
 90
        2
176
     1
 40
0.6
176
     1
 40
30.0
176
     1
 62
     7
420
 16777215
176
     1
 90
        0
176
     1
 90
        0
176
     1
 62
     7
176
     1
 62
   257
176
     1
 90
        1
176
     1
 90
        1
176
     1
 40
1.0
176
     1
 90
        0
176
     1
 62
     7
176
     1
 40
1.0
176
     1
 90
        1
176
     1
 90
        6
176
     1
 90
        2
176
     1
 62
     7
176
     1
 90
        5
176
     1
 90
        0
176
     1
 90
        0
176
     1
290
     0
176
     1
 90
       13
176
     1
 40
0.0
176
     1
 90
        0
176
     1
290
     0
176
     1
290
     1
176
     1
290
     1
176
     1
290
     0
176
     1
290
     0
176
     1
290
     0
176
     1
290
     0
176
     1
290
     0
176
     1
290
     0
176
     1
 90
       50
176
     1
 40
0.0
176
     1
 40
1.0
176
     1
 90
        0
176
     1
 62
    18
420
        0
176
     1
 90
       50
176
     1
 90
        3
176
     1
 62
     5
420
      255
176
     1
290
     0
176
     1
 90
       50
176
     1
 90
       50
176
     1
 90
       50
176
     1
290
     0
176
     1
 90
       50
176
     1
 62
   256
176
     0
 40
1.0
176
     0
 90
        2
176
     1
  1
strokes_ogs.tif
176
     1
290
     0
176
     1
 40
1.0
176
     1
 40
1.0
176
     1
  0
VISUALSTYLE
  5
6D3
102
{ACAD_REACTORS
330
6CF
102
}
330
6CF
100
AcDbVisualStyle
  2
GouraudWithEdges
 70
     3
177
     3
291
     1
 70
    58
 90
        2
176
     1
 90
        2
176
     1
 90
        1
176
     1
 90
        2
176
     1
 40
0.6
176
     1
 40
30.0
176
     1
 62
     7
420
 16777215
176
     1
 90
        1
176
     1
 90
        0
176
     1
 62
     7
176
     1
 62
   257
176
     1
 90
        1
176
     1
 90
        1
176
     1
 40
1.0
176
     1
 90
        0
176
     1
 62
   257
176
     1
 40
1.0
176
     1
 90
        1
176
     1
 90
        6
176
     1
 90
        2
176
     1
 62
     7
176
     1
 90
        5
176
     1
 90
        0
176
     1
 90
        0
176
     1
290
     0
176
     1
 90
       13
176
     1
 40
0.0
176
     1
 90
        0
176
     1
290
     0
176
     1
290
     1
176
     1
290
     1
176
     1
290
     0
176
     1
290
     0
176
     1
290
     0
176
     1
290
     0
176
     1
290
     0
176
     1
290
     0
176
     1
 90
       50
176
     1
 40
0.0
176
     1
 40
1.0
176
     1
 90
        0
176
     1
 62
    18
420
        0
176
     1
 90
       50
176
     1
 90
        3
176
     1
 62
     5
420
      255
176
     1
290
     0
176
     1
 90
       50
176
     1
 90
       50
176
     1
 90
       50
176
     1
290
     0
176
     1
 90
       50
176
     1
 62
   256
176
     0
 40
1.0
176
     0
 90
        2
176
     1
  1
strokes_ogs.tif
176
     1
290
     0
176
     1
 40
1.0
176
     1
 40
1.0
176
     1
  0
VISUALSTYLE
  5
6D6
102
{ACAD_REACTORS
330
6CF
102
}
330
6CF
100
AcDbVisualStyle
  2
Hidden
 70
     6
177
     3
291
     0
 70
    58
 90
        1
176
     1
 90
        2
176
     1
 90
        2
176
     1
 90
        0
176
     1
 40
0.6
176
     1
 40
30.0
176
     1
 62
     7
420
 16777215
176
     1
 90
        2
176
     1
 90
        2
176
     1
 62
     7
176
     1
 62
   257
176
     1
 90
        2
176
     1
 90
        1
176
     1
 40
40.0
176
     1
 90
        0
176
     1
 62
   257
176
     1
 40
1.0
176
     1
 90
        1
176
     1
 90
        6
176
     1
 90
        2
176
     1
 62
     7
176
     1
 90
        3
176
     1
 90
        0
176
     1
 90
        0
176
     1
290
     0
176
     1
 90
        1
176
     1
 40
0.0
176
     1
 90
        0
176
     1
290
     0
176
     1
290
     1
176
     1
290
     1
176
     1
290
     0
176
     1
290
     0
176
     1
290
     0
176
     1
290
     0
176
     1
290
     0
176
     1
290
     0
176
     1
 90
       50
176
     1
 40
0.0
176
     1
 40
1.0
176
     1
 90
        0
176
     1
 62
    18
420
        0
176
     1
 90
       50
176
     1
 90
        3
176
     1
 62
     5
420
      255
176
     1
290
     0
176
     1
 90
       50
176
     1
 90
       50
176
     1
 90
       50
176
     1
290
     0
176
     1
 90
       50
176
     1
 62
   256
176
     0
 40
1.0
176
     0
 90
        2
176
     1
  1
strokes_ogs.tif
176
     1
290
     0
176
     1
 40
1.0
176
     1
 40
1.0
176
     1
  0
VISUALSTYLE
  5
6E0
102
{ACAD_REACTORS
330
6CF
102
}
330
6CF
100
AcDbVisualStyle
  2
JitterOff
 70
    20
177
     3
291
     1
 70
    58
 90
        2
176
     0
 90
        2
176
     0
 90
        0
176
     0
 90
        0
176
     0
 40
0.6
176
     0
 40
30.0
176
     0
 62
     7
420
 16777215
176
     0
 90
        1
176
     0
 90
        4
176
     0
 62
     7
176
     0
 62
   257
176
     0
 90
        1
176
     0
 90
        1
176
     0
 40
1.0
176
     0
 90
       10
176
     2
 62
     7
176
     0
 40
1.0
176
     0
 90
        1
176
     0
 90
        6
176
     0
 90
        2
176
     0
 62
     7
176
     0
 90
        5
176
     0
 90
        0
176
     0
 90
        0
176
     0
290
     0
176
     0
 90
        1
176
     0
 40
0.0
176
     0
 90
        0
176
     0
290
     0
176
     0
290
     1
176
     0
290
     1
176
     0
290
     0
176
     0
290
     0
176
     0
290
     0
176
     0
290
     0
176
     0
290
     0
176
     0
290
     0
176
     0
 90
       50
176
     0
 40
0.0
176
     0
 40
1.0
176
     0
 90
        0
176
     0
 62
    18
420
        0
176
     0
 90
       50
176
     0
 90
        3
176
     0
 62
     5
420
      255
176
     0
290
     0
176
     0
 90
       50
176
     0
 90
       50
176
     0
 90
       50
176
     0
290
     0
176
     0
 90
       50
176
     0
 62
   256
176
     0
 40
1.0
176
     0
 90
        2
176
     0
  1
strokes_ogs.tif
176
     0
290
     0
176
     0
 40
1.0
176
     0
 40
1.0
176
     0
  0
VISUALSTYLE
  5
6DD
102
{ACAD_REACTORS
330
6CF
102
}
330
6CF
100
AcDbVisualStyle
  2
Linepattern
 70
    14
177
     3
291
     1
 70
    58
 90
        2
176
     1
 90
        2
176
     1
 90
        0
176
     1
 90
        0
176
     1
 40
0.6
176
     1
 40
30.0
176
     1
 62
     7
420
 16777215
176
     1
 90
        1
176
     1
 90
        4
176
     1
 62
     7
176
     1
 62
   257
176
     1
 90
        7
176
     1
 90
        7
176
     1
 40
1.0
176
     1
 90
        8
176
     1
 62
     7
176
     1
 40
1.0
176
     1
 90
        1
176
     1
 90
        6
176
     1
 90
        2
176
     1
 62
     7
176
     1
 90
        5
176
     1
 90
        0
176
     1
 90
        0
176
     1
290
     0
176
     1
 90
        1
176
     1
 40
0.0
176
     1
 90
        0
176
     1
290
     0
176
     1
290
     1
176
     1
290
     1
176
     1
290
     0
176
     1
290
     0
176
     1
290
     0
176
     1
290
     0
176
     1
290
     0
176
     1
290
     0
176
     1
 90
       50
176
     1
 40
0.0
176
     1
 40
1.0
176
     1
 90
        0
176
     1
 62
    18
420
        0
176
     1
 90
       50
176
     1
 90
        3
176
     1
 62
     5
420
      255
176
     1
290
     0
176
     1
 90
       50
176
     1
 90
       50
176
     1
 90
       50
176
     1
290
     0
176
     1
 90
       50
176
     1
 62
   256
176
     0
 40
1.0
176
     0
 90
        2
176
     1
  1
strokes_ogs.tif
176
     1
290
     0
176
     1
 40
1.0
176
     1
 40
1.0
176
     1
  0
VISUALSTYLE
  5
6E1
102
{ACAD_REACTORS
330
6CF
102
}
330
6CF
100
AcDbVisualStyle
  2
OverhangOff
 70
    21
177
     3
291
     1
 70
    58
 90
        2
176
     0
 90
        2
176
     0
 90
        0
176
     0
 90
        0
176
     0
 40
0.6
176
     0
 40
30.0
176
     0
 62
     7
420
 16777215
176
     0
 90
        1
176
     0
 90
        4
176
     0
 62
     7
176
     0
 62
   257
176
     0
 90
        1
176
     0
 90
        1
176
     0
 40
1.0
176
     0
 90
        9
176
     2
 62
     7
176
     0
 40
1.0
176
     0
 90
        1
176
     0
 90
        6
176
     0
 90
        2
176
     0
 62
     7
176
     0
 90
        5
176
     0
 90
        0
176
     0
 90
        0
176
     0
290
     0
176
     0
 90
        1
176
     0
 40
0.0
176
     0
 90
        0
176
     0
290
     0
176
     0
290
     1
176
     0
290
     1
176
     0
290
     0
176
     0
290
     0
176
     0
290
     0
176
     0
290
     0
176
     0
290
     0
176
     0
290
     0
176
     0
 90
       50
176
     0
 40
0.0
176
     0
 40
1.0
176
     0
 90
        0
176
     0
 62
    18
420
        0
176
     0
 90
       50
176
     0
 90
        3
176
     0
 62
     5
420
      255
176
     0
290
     0
176
     0
 90
       50
176
     0
 90
       50
176
     0
 90
       50
176
     0
290
     0
176
     0
 90
       50
176
     0
 62
   256
176
     0
 40
1.0
176
     0
 90
        2
176
     0
  1
strokes_ogs.tif
176
     0
290
     0
176
     0
 40
1.0
176
     0
 40
1.0
176
     0
  0
VISUALSTYLE
  5
6D8
102
{ACAD_REACTORS
330
6CF
102
}
330
6CF
100
AcDbVisualStyle
  2
Realistic
 70
     8
177
     3
291
     0
 70
    58
 90
        2
176
     1
 90
        3
176
     1
 90
        0
176
     1
 90
        2
176
     1
 40
0.6
176
     1
 40
30.0
176
     1
 62
     7
420
 16777215
176
     1
 90
        0
176
     1
 90
        0
176
     1
 62
     7
176
     1
 62
   257
176
     1
 90
        1
176
     1
 90
        1
176
     1
 40
1.0
176
     1
 90
        8
176
     1
 62
   257
176
     1
 40
1.0
176
     1
 90
        1
176
     1
 90
        6
176
     1
 90
        2
176
     1
 62
     7
176
     1
 90
        3
176
     1
 90
        0
176
     1
 90
        0
176
     1
290
     0
176
     1
 90
       13
176
     1
 40
0.0
176
     1
 90
        0
176
     1
290
     0
176
     1
290
     1
176
     1
290
     1
176
     1
290
     0
176
     1
290
     0
176
     1
290
     0
176
     1
290
     0
176
     1
290
     0
176
     1
290
     0
176
     1
 90
       50
176
     1
 40
0.0
176
     1
 40
1.0
176
     1
 90
        0
176
     1
 62
    18
420
        0
176
     1
 90
       50
176
     1
 90
        3
176
     1
 62
     5
420
      255
176
     1
290
     0
176
     1
 90
       50
176
     1
 90
       50
176
     1
 90
       50
176
     1
290
     0
176
     1
 90
       50
176
     1
 62
   256
176
     0
 40
1.0
176
     0
 90
        2
176
     1
  1
strokes_ogs.tif
176
     1
290
     0
176
     1
 40
1.0
176
     1
 40
1.0
176
     1
  0
VISUALSTYLE
  5
6E7
102
{ACAD_REACTORS
330
6CF
102
}
330
6CF
100
AcDbVisualStyle
  2
Shaded
 70
    27
177
     3
291
     0
 70
    58
 90
        2
176
     1
 90
        2
176
     1
 90
        1
176
     1
 90
        2
176
     1
 40
0.6
176
     1
 40
30.0
176
     1
 62
     7
420
 16777215
176
     1
 90
        0
176
     1
 90
        4
176
     1
 62
     7
176
     1
 62
   257
176
     1
 90
        1
176
     1
 90
        1
176
     1
 40
1.0
176
     1
 90
        8
176
     1
 62
   257
176
     1
 40
1.0
176
     1
 90
        1
176
     1
 90
        6
176
     1
 90
        2
176
     1
 62
     8
420
  7895160
176
     1
 90
        3
176
     1
 90
        0
176
     1
 90
        0
176
     1
290
     0
176
     1
 90
        5
176
     1
 40
0.0
176
     1
 90
        0
176
     1
290
     0
176
     1
290
     1
176
     1
290
     1
176
     1
290
     0
176
     1
290
     0
176
     1
290
     0
176
     1
290
     0
176
     1
290
     0
176
     1
290
     0
176
     1
 90
       50
176
     1
 40
0.0
176
     1
 40
1.0
176
     1
 90
        0
176
     1
 62
    18
420
        0
176
     1
 90
       50
176
     1
 90
        3
176
     1
 62
     5
420
      255
176
     1
290
     0
176
     1
 90
       50
176
     1
 90
       50
176
     1
 90
       50
176
     1
290
     0
176
     1
 90
       50
176
     1
 62
   256
176
     0
 40
1.0
176
     0
 90
        2
176
     1
  1
strokes_ogs.tif
176
     1
290
     0
176
     1
 40
1.0
176
     1
 40
1.0
176
     1
  0
VISUALSTYLE
  5
6E6
102
{ACAD_REACTORS
330
6CF
102
}
330
6CF
100
AcDbVisualStyle
  2
Shaded with edges
 70
    26
177
     3
291
     0
 70
    58
 90
        2
176
     1
 90
        2
176
     1
 90
        1
176
     1
 90
        2
176
     1
 40
0.6
176
     1
 40
30.0
176
     1
 62
     7
420
 16777215
176
     1
 90
        1
176
     1
 90
       10
176
     1
 62
     7
176
     1
 62
   257
176
     1
 90
        2
176
     1
 90
        1
176
     1
 40
1.0
176
     1
 90
        8
176
     1
 62
   257
176
     1
 40
1.0
176
     1
 90
        1
176
     1
 90
        6
176
     1
 90
        2
176
     1
 62
     7
176
     1
 90
        3
176
     1
 90
        0
176
     1
 90
        0
176
     1
290
     0
176
     1
 90
        5
176
     1
 40
0.0
176
     1
 90
        0
176
     1
290
     0
176
     1
290
     1
176
     1
290
     1
176
     1
290
     0
176
     1
290
     0
176
     1
290
     0
176
     1
290
     0
176
     1
290
     0
176
     1
290
     0
176
     1
 90
       50
176
     1
 40
0.0
176
     1
 40
1.0
176
     1
 90
        0
176
     1
 62
    18
420
        0
176
     1
 90
       50
176
     1
 90
        3
176
     1
 62
     5
420
      255
176
     1
290
     0
176
     1
 90
       50
176
     1
 90
       50
176
     1
 90
       50
176
     1
290
     0
176
     1
 90
       50
176
     1
 62
   256
176
     0
 40
1.0
176
     0
 90
        2
176
     1
  1
strokes_ogs.tif
176
     1
290
     0
176
     1
 40
1.0
176
     1
 40
1.0
176
     1
  0
VISUALSTYLE
  5
6E3
102
{ACAD_REACTORS
330
6CF
102
}
330
6CF
100
AcDbVisualStyle
  2
Shades of Gray
 70
    23
177
     3
291
     0
 70
    58
 90
        2
176
     1
 90
        2
176
     1
 90
        3
176
     1
 90
        0
176
     1
 40
0.6
176
     1
 40
30.0
176
     1
 62
     7
420
 16777215
176
     1
 90
        2
176
     1
 90
        2
176
     1
 62
     7
176
     1
 62
     7
176
     1
 90
        1
176
     1
 90
        1
176
     1
 40
40.0
176
     1
 90
        8
176
     1
 62
     7
176
     1
 40
1.0
176
     1
 90
        1
176
     1
 90
        6
176
     1
 90
        2
176
     1
 62
     7
176
     1
 90
        3
176
     1
 90
        0
176
     1
 90
        0
176
     1
290
     0
176
     1
 90
        1
176
     1
 40
0.0
176
     1
 90
        0
176
     1
290
     0
176
     1
290
     1
176
     1
290
     1
176
     1
290
     0
176
     1
290
     0
176
     1
290
     0
176
     1
290
     0
176
     1
290
     0
176
     1
290
     0
176
     1
 90
       50
176
     1
 40
0.0
176
     1
 40
1.0
176
     1
 90
        0
176
     1
 62
    18
420
        0
176
     1
 90
       50
176
     1
 90
        3
176
     1
 62
     5
420
      255
176
     1
290
     0
176
     1
 90
       50
176
     1
 90
       50
176
     1
 90
       50
176
     1
290
     0
176
     1
 90
       50
176
     1
 62
   256
176
     0
 40
1.0
176
     0
 90
        2
176
     1
  1
strokes_ogs.tif
176
     1
290
     0
176
     1
 40
1.0
176
     1
 40
1.0
176
     1
  0
VISUALSTYLE
  5
6E4
102
{ACAD_REACTORS
330
6CF
102
}
330
6CF
100
AcDbVisualStyle
  2
Sketchy
 70
    24
177
     3
291
     0
 70
    58
 90
        1
176
     1
 90
        2
176
     1
 90
        2
176
     1
 90
        0
176
     1
 40
0.6
176
     1
 40
30.0
176
     1
 62
     7
420
 16777215
176
     1
 90
        2
176
     1
 90
        2
176
     1
 62
     7
176
     1
 62
     7
176
     1
 90
        1
176
     1
 90
        1
176
     1
 40
40.0
176
     1
 90
       11
176
     1
 62
     7
176
     1
 40
1.0
176
     1
 90
        1
176
     1
 90
        6
176
     1
 90
        2
176
     1
 62
     7
176
     1
 90
        6
176
     1
 90
        0
176
     1
 90
        0
176
     1
290
     0
176
     1
 90
        1
176
     1
 40
0.0
176
     1
 90
        0
176
     1
290
     0
176
     1
290
     1
176
     1
290
     1
176
     1
290
     0
176
     1
290
     0
176
     1
290
     0
176
     1
290
     0
176
     1
290
     0
176
     1
290
     0
176
     1
 90
       50
176
     1
 40
0.0
176
     1
 40
1.0
176
     1
 90
        0
176
     1
 62
    18
420
        0
176
     1
 90
       50
176
     1
 90
        3
176
     1
 62
     5
420
      255
176
     1
290
     0
176
     1
 90
       50
176
     1
 90
       50
176
     1
 90
       50
176
     1
290
     0
176
     1
 90
       50
176
     1
 62
   256
176
     0
 40
1.0
176
     0
 90
        2
176
     1
  1
strokes_ogs.tif
176
     1
290
     0
176
     1
 40
1.0
176
     1
 40
1.0
176
     1
  0
VISUALSTYLE
  5
6DC
102
{ACAD_REACTORS
330
6CF
102
}
330
6CF
100
AcDbVisualStyle
  2
Thicken
 70
    13
177
     3
291
     1
 70
    58
 90
        2
176
     1
 90
        2
176
     1
 90
        0
176
     1
 90
        0
176
     1
 40
0.6
176
     1
 40
30.0
176
     1
 62
     7
420
 16777215
176
     1
 90
        1
176
     1
 90
        4
176
     1
 62
     7
176
     1
 62
   257
176
     1
 90
        1
176
     1
 90
        1
176
     1
 40
1.0
176
     1
 90
       12
176
     1
 62
     7
176
     1
 40
1.0
176
     1
 90
        1
176
     1
 90
        6
176
     1
 90
        2
176
     1
 62
     7
176
     1
 90
        5
176
     1
 90
        0
176
     1
 90
        0
176
     1
290
     0
176
     1
 90
        1
176
     1
 40
0.0
176
     1
 90
        0
176
     1
290
     0
176
     1
290
     1
176
     1
290
     1
176
     1
290
     0
176
     1
290
     0
176
     1
290
     0
176
     1
290
     0
176
     1
290
     0
176
     1
290
     0
176
     1
 90
       50
176
     1
 40
0.0
176
     1
 40
1.0
176
     1
 90
        0
176
     1
 62
    18
420
        0
176
     1
 90
       50
176
     1
 90
        3
176
     1
 62
     5
420
      255
176
     1
290
     0
176
     1
 90
       50
176
     1
 90
       50
176
     1
 90
       50
176
     1
290
     0
176
     1
 90
       50
176
     1
 62
   256
176
     0
 40
1.0
176
     0
 90
        2
176
     1
  1
strokes_ogs.tif
176
     1
290
     0
176
     1
 40
1.0
176
     1
 40
1.0
176
     1
  0
VISUALSTYLE
  5
6D5
102
{ACAD_REACTORS
330
6CF
102
}
330
6CF
100
AcDbVisualStyle
  2
Wireframe
 70
     5
177
     3
291
     0
 70
    58
 90
        0
176
     1
 90
        2
176
     1
 90
        0
176
     1
 90
        0
176
     1
 40
0.6
176
     1
 40
30.0
176
     1
 62
     7
420
 16777215
176
     1
 90
        1
176
     1
 90
        4
176
     1
 62
     7
176
     1
 62
   257
176
     1
 90
        1
176
     1
 90
        1
176
     1
 40
1.0
176
     1
 90
        0
176
     1
 62
   257
176
     1
 40
1.0
176
     1
 90
        1
176
     1
 90
        6
176
     1
 90
        2
176
     1
 62
     7
176
     1
 90
        3
176
     1
 90
        0
176
     1
 90
        0
176
     1
290
     0
176
     1
 90
        1
176
     1
 40
0.0
176
     1
 90
        0
176
     1
290
     0
176
     1
290
     1
176
     1
290
     1
176
     1
290
     0
176
     1
290
     0
176
     1
290
     0
176
     1
290
     0
176
     1
290
     0
176
     1
290
     0
176
     1
 90
       50
176
     1
 40
0.0
176
     1
 40
1.0
176
     1
 90
        0
176
     1
 62
    18
420
        0
176
     1
 90
       50
176
     1
 90
        3
176
     1
 62
     5
420
      255
176
     1
290
     0
176
     1
 90
       50
176
     1
 90
       50
176
     1
 90
       50
176
     1
290
     0
176
     1
 90
       50
176
     1
 62
   256
176
     0
 40
1.0
176
     0
 90
        2
176
     1
  1
strokes_ogs.tif
176
     1
290
     0
176
     1
 40
1.0
176
     1
 40
1.0
176
     1
  0
VISUALSTYLE
  5
6E5
102
{ACAD_REACTORS
330
6CF
102
}
330
6CF
100
AcDbVisualStyle
  2
X-Ray
 70
    25
177
     3
291
     0
 70
    58
 90
        2
176
     1
 90
        2
176
     1
 90
        1
176
     1
 90
        1
176
     1
 40
0.5
176
     1
 40
30.0
176
     1
 62
     7
420
 16777215
176
     1
 90
        1
176
     1
 90
        0
176
     1
 62
     7
176
     1
 62
   257
176
     1
 90
        1
176
     1
 90
        1
176
     1
 40
1.0
176
     1
 90
        8
176
     1
 62
     7
176
     1
 40
1.0
176
     1
 90
        1
176
     1
 90
        6
176
     1
 90
        2
176
     1
 62
     7
176
     1
 90
        3
176
     1
 90
        0
176
     1
 90
        0
176
     1
290
     0
176
     1
 90
       13
176
     1
 40
0.0
176
     1
 90
        0
176
     1
290
     0
176
     1
290
     1
176
     1
290
     1
176
     1
290
     0
176
     1
290
     0
176
     1
290
     0
176
     1
290
     0
176
     1
290
     0
176
     1
290
     0
176
     1
 90
       50
176
     1
 40
0.0
176
     1
 40
1.0
176
     1
 90
        0
176
     1
 62
    18
420
        0
176
     1
 90
       50
176
     1
 90
        3
176
     1
 62
     5
420
      255
176
     1
290
     0
176
     1
 90
       50
176
     1
 90
       50
176
     1
 90
       50
176
     1
290
     0
176
     1
 90
       50
176
     1
 62
   256
176
     0
 40
1.0
176
     0
 90
        2
176
     1
  1
strokes_ogs.tif
176
     1
290
     0
176
     1
 40
1.0
176
     1
 40
1.0
176
     1
  0
DICTIONARYVAR
  5
6F1
102
{ACAD_REACTORS
330
6F0
102
}
330
6F0
100
DictionaryVariables
280
     0
  1
1:1
  0
DICTIONARYVAR
  5
6F6
102
{ACAD_REACTORS
330
6F0
102
}
330
6F0
100
DictionaryVariables
280
     0
  1
Standard
  0
DICTIONARYVAR
  5
6F5
102
{ACAD_REACTORS
330
6F0
102
}
330
6F0
100
DictionaryVariables
280
     0
  1
Standard
  0
DICTIONARYVAR
  5
6F7
102
{ACAD_REACTORS
330
6F0
102
}
330
6F0
100
DictionaryVariables
280
     0
  1
0
  0
DICTIONARYVAR
  5
70A
330
709
100
DictionaryVariables
280
     0
  1
1.3.4 @ 2025-07-26T18:12:33.772909+00:00
  0
DICTIONARY
  5
75F
330
6ED
100
AcDbDictionary
280
     1
281
     1
  3
ACAD_ROUNDTRIP_2008_TABLESTYLE_CELLSTYLEMAP
360
760
  0
CELLSTYLEMAP
  5
760
102
{ACAD_REACTORS
330
75F
102
}
330
75F
100
AcDbCellStyleMap
 90
        3
300
CELLSTYLE
  1
TABLEFORMAT_BEGIN
 90
        5
170
     1
 91
        0
 92
    32768
 62
   257
 93
        1
300
CONTENTFORMAT
  1
CONTENTFORMAT_BEGIN
 90
        0
 91
        0
 92
        4
 93
        0
300

 40
0.0
140
1.0
 94
        5
 62
     0
340
11
144
6.0
309
CONTENTFORMAT_END
171
     1
301
MARGIN
  1
CELLMARGIN_BEGIN
 40
1.5
 40
1.5
 40
1.5
 40
1.5
 40
1.5
 40
1.5
309
CELLMARGIN_END
 94
        6
 95
        1
302
GRIDFORMAT
  1
GRIDFORMAT_BEGIN
 90
        0
 91
        1
 62
     0
 92
       -2
340
14
 93
        0
 40
0.045
309
GRIDFORMAT_END
 95
        2
302
GRIDFORMAT
  1
GRIDFORMAT_BEGIN
 90
        0
 91
        1
 62
     0
 92
       -2
340
14
 93
        0
 40
0.045
309
GRIDFORMAT_END
 95
        4
302
GRIDFORMAT
  1
GRIDFORMAT_BEGIN
 90
        0
 91
        1
 62
     0
 92
       -2
340
14
 93
        0
 40
0.045
309
GRIDFORMAT_END
 95
        8
302
GRIDFORMAT
  1
GRIDFORMAT_BEGIN
 90
        0
 91
        1
 62
     0
 92
       -2
340
14
 93
        0
 40
0.045
309
GRIDFORMAT_END
 95
       16
302
GRIDFORMAT
  1
GRIDFORMAT_BEGIN
 90
        0
 91
        1
 62
     0
 92
       -2
340
14
 93
        0
 40
0.045
309
GRIDFORMAT_END
 95
       32
302
GRIDFORMAT
  1
GRIDFORMAT_BEGIN
 90
        0
 91
        1
 62
     0
 92
       -2
340
14
 93
        0
 40
0.045
309
GRIDFORMAT_END
309
TABLEFORMAT_END
  1
CELLSTYLE_BEGIN
 90
        1
 91
        1
300
_TITLE
309
CELLSTYLE_END
300
CELLSTYLE
  1
TABLEFORMAT_BEGIN
 90
        5
170
     1
 91
        0
 92
        0
 62
   257
 93
        1
300
CONTENTFORMAT
  1
CONTENTFORMAT_BEGIN
 90
        0
 91
        0
 92
        4
 93
        0
300

 40
0.0
140
1.0
 94
        5
 62
     0
340
11
144
4.5
309
CONTENTFORMAT_END
171
     1
301
MARGIN
  1
CELLMARGIN_BEGIN
 40
1.5
 40
1.5
 40
1.5
 40
1.5
 40
1.5
 40
1.5
309
CELLMARGIN_END
 94
        6
 95
        1
302
GRIDFORMAT
  1
GRIDFORMAT_BEGIN
 90
        0
 91
        1
 62
     0
 92
       -2
340
14
 93
        0
 40
0.045
309
GRIDFORMAT_END
 95
        2
302
GRIDFORMAT
  1
GRIDFORMAT_BEGIN
 90
        0
 91
        1
 62
     0
 92
       -2
340
14
 93
        0
 40
0.045
309
GRIDFORMAT_END
 95
        4
302
GRIDFORMAT
  1
GRIDFORMAT_BEGIN
 90
        0
 91
        1
 62
     0
 92
       -2
340
14
 93
        0
 40
0.045
309
GRIDFORMAT_END
 95
        8
302
GRIDFORMAT
  1
GRIDFORMAT_BEGIN
 90
        0
 91
        1
 62
     0
 92
       -2
340
14
 93
        0
 40
0.045
309
GRIDFORMAT_END
 95
       16
302
GRIDFORMAT
  1
GRIDFORMAT_BEGIN
 90
        0
 91
        1
 62
     0
 92
       -2
340
14
 93
        0
 40
0.045
309
GRIDFORMAT_END
 95
       32
302
GRIDFORMAT
  1
GRIDFORMAT_BEGIN
 90
        0
 91
        1
 62
     0
 92
       -2
340
14
 93
        0
 40
0.045
309
GRIDFORMAT_END
309
TABLEFORMAT_END
  1
CELLSTYLE_BEGIN
 90
        2
 91
        1
300
_HEADER
309
CELLSTYLE_END
300
CELLSTYLE
  1
TABLEFORMAT_BEGIN
 90
        5
170
     1
 91
        0
 92
        0
 62
   257
 93
        1
300
CONTENTFORMAT
  1
CONTENTFORMAT_BEGIN
 90
        0
 91
        0
 92
        4
 93
        0
300

 40
0.0
140
1.0
 94
        2
 62
     0
340
11
144
4.5
309
CONTENTFORMAT_END
171
     1
301
MARGIN
  1
CELLMARGIN_BEGIN
 40
1.5
 40
1.5
 40
1.5
 40
1.5
 40
1.5
 40
1.5
309
CELLMARGIN_END
 94
        6
 95
        1
302
GRIDFORMAT
  1
GRIDFORMAT_BEGIN
 90
        0
 91
        1
 62
     0
 92
       -2
340
14
 93
        0
 40
0.045
309
GRIDFORMAT_END
 95
        2
302
GRIDFORMAT
  1
GRIDFORMAT_BEGIN
 90
        0
 91
        1
 62
     0
 92
       -2
340
14
 93
        0
 40
0.045
309
GRIDFORMAT_END
 95
        4
302
GRIDFORMAT
  1
GRIDFORMAT_BEGIN
 90
        0
 91
        1
 62
     0
 92
       -2
340
14
 93
        0
 40
0.045
309
GRIDFORMAT_END
 95
        8
302
GRIDFORMAT
  1
GRIDFORMAT_BEGIN
 90
        0
 91
        1
 62
     0
 92
       -2
340
14
 93
        0
 40
0.045
309
GRIDFORMAT_END
 95
       16
302
GRIDFORMAT
  1
GRIDFORMAT_BEGIN
 90
        0
 91
        1
 62
     0
 92
       -2
340
14
 93
        0
 40
0.045
309
GRIDFORMAT_END
 95
       32
302
GRIDFORMAT
  1
GRIDFORMAT_BEGIN
 90
        0
 91
        1
 62
     0
 92
       -2
340
14
 93
        0
 40
0.045
309
GRIDFORMAT_END
309
TABLEFORMAT_END
  1
CELLSTYLE_BEGIN
 90
        3
 91
        2
300
_DATA
309
CELLSTYLE_END
  0
ENDSEC
  0
EOF
