  0
SECTION
  2
HEADER
  9
$ACADVER
  1
AC1032
  9
$ACADMAINTVER
 90
       55
  9
$DWGCODEPAGE
  3
ANSI_1252
  9
$LASTSAVEDBY
  1
cipulot
  9
$REQUIREDVERSIONS
160
                 0
  9
$INSBASE
 10
0.0
 20
0.0
 30
0.0
  9
$EXTMIN
 10
1.000000000000000E+20
 20
1.000000000000000E+20
 30
1.000000000000000E+20
  9
$EXTMAX
 10
-1.000000000000000E+20
 20
-1.000000000000000E+20
 30
-1.000000000000000E+20
  9
$LIMMIN
 10
0.0
 20
0.0
  9
$LIMMAX
 10
12.0
 20
9.0
  9
$ORTHOMODE
 70
     0
  9
$REGENMODE
 70
     1
  9
$FILLMODE
 70
     1
  9
$QTEXTMODE
 70
     0
  9
$MIRRTEXT
 70
     1
  9
$LTSCALE
 40
1.0
  9
$ATTMODE
 70
     1
  9
$TEXTSIZE
 40
0.2
  9
$TRACEWID
 40
0.05
  9
$TEXTSTYLE
  7
Standard
  9
$CLAYER
  8
0
  9
$CELTYPE
  6
ByBlock
  9
$CECOLOR
 62
   256
  9
$CELTSCALE
 40
1.0
  9
$DISPSILH
 70
     0
  9
$DIMSCALE
 40
1.0
  9
$DIMASZ
 40
0.18
  9
$DIMEXO
 40
0.0625
  9
$DIMDLI
 40
0.38
  9
$DIMRND
 40
0.0
  9
$DIMDLE
 40
0.0
  9
$DIMEXE
 40
0.18
  9
$DIMTP
 40
0.0
  9
$DIMTM
 40
0.0
  9
$DIMTXT
 40
0.18
  9
$DIMCEN
 40
0.09
  9
$DIMTSZ
 40
0.0
  9
$DIMTOL
 70
     0
  9
$DIMLIM
 70
     0
  9
$DIMTIH
 70
     1
  9
$DIMTOH
 70
     1
  9
$DIMSE1
 70
     0
  9
$DIMSE2
 70
     0
  9
$DIMTAD
 70
     0
  9
$DIMZIN
 70
     0
  9
$DIMBLK
  1

  9
$DIMASO
 70
     1
  9
$DIMSHO
 70
     1
  9
$DIMPOST
  1

  9
$DIMAPOST
  1

  9
$DIMALT
 70
     0
  9
$DIMALTD
 70
     2
  9
$DIMALTF
 40
25.4
  9
$DIMLFAC
 40
1.0
  9
$DIMTOFL
 70
     0
  9
$DIMTVP
 40
0.0
  9
$DIMTIX
 70
     0
  9
$DIMSOXD
 70
     0
  9
$DIMSAH
 70
     0
  9
$DIMBLK1
  1

  9
$DIMBLK2
  1

  9
$DIMSTYLE
  2
ISO-25
  9
$DIMCLRD
 70
     0
  9
$DIMCLRE
 70
     0
  9
$DIMCLRT
 70
     0
  9
$DIMTFAC
 40
1.0
  9
$DIMGAP
 40
0.09
  9
$DIMJUST
 70
     0
  9
$DIMSD1
 70
     0
  9
$DIMSD2
 70
     0
  9
$DIMTOLJ
 70
     1
  9
$DIMTZIN
 70
     0
  9
$DIMALTZ
 70
     0
  9
$DIMALTTZ
 70
     0
  9
$DIMUPT
 70
     0
  9
$DIMDEC
 70
     4
  9
$DIMTDEC
 70
     4
  9
$DIMALTU
 70
     2
  9
$DIMALTTD
 70
     2
  9
$DIMTXSTY
  7
Standard
  9
$DIMAUNIT
 70
     0
  9
$DIMADEC
 70
     0
  9
$DIMALTRND
 40
0.0
  9
$DIMAZIN
 70
     0
  9
$DIMDSEP
 70
    46
  9
$DIMATFIT
 70
     3
  9
$DIMFRAC
 70
     0
  9
$DIMLDRBLK
  1

  9
$DIMLUNIT
 70
     2
  9
$DIMLWD
 70
    -2
  9
$DIMLWE
 70
    -2
  9
$DIMTMOVE
 70
     2
  9
$DIMFXL
 40
1.0
  9
$DIMFXLON
 70
     0
  9
$DIMJOGANG
 40
0.7853981633974483
  9
$DIMTFILL
 70
     0
  9
$DIMTFILLCLR
 70
     0
  9
$DIMARCSYM
 70
     0
  9
$DIMLTYPE
  6

  9
$DIMLTEX1
  6

  9
$DIMLTEX2
  6

  9
$DIMTXTDIRECTION
 70
     0
  9
$LUNITS
 70
     2
  9
$LUPREC
 70
     4
  9
$SKETCHINC
 40
0.1
  9
$FILLETRAD
 40
0.0
  9
$AUNITS
 70
     0
  9
$AUPREC
 70
     0
  9
$MENU
  1
.
  9
$ELEVATION
 40
0.0
  9
$PELEVATION
 40
0.0
  9
$THICKNESS
 40
0.0
  9
$LIMCHECK
 70
     0
  9
$CHAMFERA
 40
0.0
  9
$CHAMFERB
 40
0.0
  9
$CHAMFERC
 40
0.0
  9
$CHAMFERD
 40
0.0
  9
$SKPOLY
 70
     0
  9
$TDCREATE
 40
2460882.109949063
  9
$TDUCREATE
 40
2460882.068282396
  9
$TDUPDATE
 40
2460883.842495255
  9
$TDUUPDATE
 40
2460883.800828588
  9
$TDINDWG
 40
0.0000000116
  9
$TDUSRTIMER
 40
0.0000000116
  9
$USRTIMER
 70
     1
  9
$ANGBASE
 50
0.0
  9
$ANGDIR
 70
     1
  9
$PDMODE
 70
     0
  9
$PDSIZE
 40
0.0
  9
$PLINEWID
 40
0.0
  9
$SPLFRAME
 70
     0
  9
$SPLINETYPE
 70
     6
  9
$SPLINESEGS
 70
     8
  9
$HANDSEED
  5
7BE
  9
$SURFTAB1
 70
     6
  9
$SURFTAB2
 70
     6
  9
$SURFTYPE
 70
     6
  9
$SURFU
 70
     6
  9
$SURFV
 70
     6
  9
$UCSBASE
  2

  9
$UCSNAME
  2

  9
$UCSORG
 10
0.0
 20
0.0
 30
0.0
  9
$UCSXDIR
 10
1.0
 20
0.0
 30
0.0
  9
$UCSYDIR
 10
0.0
 20
1.0
 30
0.0
  9
$UCSORTHOREF
  2

  9
$UCSORTHOVIEW
 70
     0
  9
$UCSORGTOP
 10
0.0
 20
0.0
 30
0.0
  9
$UCSORGBOTTOM
 10
0.0
 20
0.0
 30
0.0
  9
$UCSORGLEFT
 10
0.0
 20
0.0
 30
0.0
  9
$UCSORGRIGHT
 10
0.0
 20
0.0
 30
0.0
  9
$UCSORGFRONT
 10
0.0
 20
0.0
 30
0.0
  9
$UCSORGBACK
 10
0.0
 20
0.0
 30
0.0
  9
$PUCSBASE
  2

  9
$PUCSNAME
  2

  9
$PUCSORG
 10
0.0
 20
0.0
 30
0.0
  9
$PUCSXDIR
 10
1.0
 20
0.0
 30
0.0
  9
$PUCSYDIR
 10
0.0
 20
1.0
 30
0.0
  9
$PUCSORTHOREF
  2

  9
$PUCSORTHOVIEW
 70
     0
  9
$PUCSORGTOP
 10
0.0
 20
0.0
 30
0.0
  9
$PUCSORGBOTTOM
 10
0.0
 20
0.0
 30
0.0
  9
$PUCSORGLEFT
 10
0.0
 20
0.0
 30
0.0
  9
$PUCSORGRIGHT
 10
0.0
 20
0.0
 30
0.0
  9
$PUCSORGFRONT
 10
0.0
 20
0.0
 30
0.0
  9
$PUCSORGBACK
 10
0.0
 20
0.0
 30
0.0
  9
$USERI1
 70
     0
  9
$USERI2
 70
     0
  9
$USERI3
 70
     0
  9
$USERI4
 70
     0
  9
$USERI5
 70
     0
  9
$USERR1
 40
0.0
  9
$USERR2
 40
0.0
  9
$USERR3
 40
0.0
  9
$USERR4
 40
0.0
  9
$USERR5
 40
0.0
  9
$WORLDVIEW
 70
     1
  9
$SHADEDGE
 70
     3
  9
$SHADEDIF
 70
    70
  9
$TILEMODE
 70
     1
  9
$MAXACTVP
 70
    64
  9
$PINSBASE
 10
0.0
 20
0.0
 30
0.0
  9
$PLIMCHECK
 70
     0
  9
$PEXTMIN
 10
1.000000000000000E+20
 20
1.000000000000000E+20
 30
1.000000000000000E+20
  9
$PEXTMAX
 10
-1.000000000000000E+20
 20
-1.000000000000000E+20
 30
-1.000000000000000E+20
  9
$PLIMMIN
 10
0.0
 20
0.0
  9
$PLIMMAX
 10
12.0
 20
9.0
  9
$UNITMODE
 70
     0
  9
$VISRETAIN
 70
     1
  9
$PLINEGEN
 70
     0
  9
$PSLTSCALE
 70
     1
  9
$TREEDEPTH
 70
  3020
  9
$CMLSTYLE
  2
Standard
  9
$CMLJUST
 70
     0
  9
$CMLSCALE
 40
1.0
  9
$PROXYGRAPHICS
 70
     1
  9
$MEASUREMENT
 70
     1
  9
$CELWEIGHT
370
    -1
  9
$ENDCAPS
280
     0
  9
$JOINSTYLE
280
     0
  9
$LWDISPLAY
290
     0
  9
$INSUNITS
 70
     4
  9
$HYPERLINKBASE
  1

  9
$STYLESHEET
  1

  9
$XEDIT
290
     1
  9
$CEPSNTYPE
380
     0
  9
$PSTYLEMODE
290
     1
  9
$FINGERPRINTGUID
  2
{59c8fa2e-4dce-b645-9dd3-928d80820664}
  9
$VERSIONGUID
  2
{87643CF4-59EA-493F-B937-0229F6B0CE56}
  9
$EXTNAMES
290
     1
  9
$PSVPSCALE
 40
0.0
  9
$OLESTARTUP
290
     0
  9
$SORTENTS
280
   127
  9
$INDEXCTL
280
     0
  9
$HIDETEXT
280
     1
  9
$XCLIPFRAME
280
     2
  9
$HALOGAP
280
     0
  9
$OBSCOLOR
 70
   257
  9
$OBSLTYPE
280
     0
  9
$INTERSECTIONDISPLAY
280
     0
  9
$INTERSECTIONCOLOR
 70
   257
  9
$DIMASSOC
280
     2
  9
$PROJECTNAME
  1

  9
$CAMERADISPLAY
290
     0
  9
$LENSLENGTH
 40
50.0
  9
$CAMERAHEIGHT
 40
0.0
  9
$STEPSPERSEC
 40
2.0
  9
$STEPSIZE
 40
6.0
  9
$3DDWFPREC
 40
2.0
  9
$PSOLWIDTH
 40
0.25
  9
$PSOLHEIGHT
 40
4.0
  9
$LOFTANG1
 40
1.570796326794897
  9
$LOFTANG2
 40
1.570796326794897
  9
$LOFTMAG1
 40
0.0
  9
$LOFTMAG2
 40
0.0
  9
$LOFTPARAM
 70
     7
  9
$LOFTNORMALS
280
     1
  9
$LATITUDE
 40
37.795
  9
$LONGITUDE
 40
-122.394
  9
$NORTHDIRECTION
 40
0.0
  9
$TIMEZONE
 70
 -8000
  9
$LIGHTGLYPHDISPLAY
280
     1
  9
$TILEMODELIGHTSYNCH
280
     1
  9
$CMATERIAL
347
6F9
  9
$SOLIDHIST
280
     0
  9
$SHOWHIST
280
     1
  9
$DWFFRAME
280
     2
  9
$DGNFRAME
280
     2
  9
$REALWORLDSCALE
290
     1
  9
$INTERFERECOLOR
 62
   256
  9
$CSHADOW
280
     0
  9
$SHADOWPLANELOCATION
 40
0.0
  0
ENDSEC
  0
SECTION
  2
CLASSES
  0
CLASS
  1
ACDBDICTIONARYWDFLT
  2
AcDbDictionaryWithDefault
  3
ObjectDBX Classes
 90
        0
 91
        3
280
     0
281
     0
  0
CLASS
  1
SCALE
  2
AcDbScale
  3
ObjectDBX Classes
 90
     1153
 91
        3
280
     0
281
     0
  0
CLASS
  1
VISUALSTYLE
  2
AcDbVisualStyle
  3
ObjectDBX Classes
 90
     4095
 91
        3
280
     0
281
     0
  0
CLASS
  1
MATERIAL
  2
AcDbMaterial
  3
ObjectDBX Classes
 90
     1153
 91
        3
280
     0
281
     0
  0
CLASS
  1
TABLESTYLE
  2
AcDbTableStyle
  3
ObjectDBX Classes
 90
     4095
 91
        3
280
     0
281
     0
  0
CLASS
  1
MLEADERSTYLE
  2
AcDbMLeaderStyle
  3
ACDB_MLEADERSTYLE_CLASS
 90
     4095
 91
        3
280
     0
281
     0
  0
CLASS
  1
DICTIONARYVAR
  2
AcDbDictionaryVar
  3
ObjectDBX Classes
 90
        0
 91
        3
280
     0
281
     0
  0
CLASS
  1
CELLSTYLEMAP
  2
AcDbCellStyleMap
  3
ObjectDBX Classes
 90
     1152
 91
        3
280
     0
281
     0
  0
CLASS
  1
SUN
  2
AcDbSun
  3
SCENEOE
 90
     1153
 91
        3
280
     0
281
     0
  0
CLASS
  1
MENTALRAYRENDERSETTINGS
  2
AcDbMentalRayRenderSettings
  3
SCENEOE
 90
     1024
 91
        3
280
     0
281
     0
  0
CLASS
  1
ACDBDETAILVIEWSTYLE
  2
AcDbDetailViewStyle
  3
ObjectDBX Classes
 90
     1025
 91
        3
280
     0
281
     0
  0
CLASS
  1
ACDBSECTIONVIEWSTYLE
  2
AcDbSectionViewStyle
  3
ObjectDBX Classes
 90
     1025
 91
        3
280
     0
281
     0
  0
CLASS
  1
RASTERVARIABLES
  2
AcDbRasterVariables
  3
ISM
 90
        0
 91
        3
280
     0
281
     0
  0
CLASS
  1
LAYOUT
  2
AcDbLayout
  3
ObjectDBX Classes
 90
        0
 91
        1
280
     0
281
     0
  0
CLASS
  1
ACDBPLACEHOLDER
  2
AcDbPlaceHolder
  3
ObjectDBX Classes
 90
        0
 91
        1
280
     0
281
     0
  0
ENDSEC
  0
SECTION
  2
TABLES
  0
TABLE
  2
VPORT
  5
8
330
0
100
AcDbSymbolTable
 70
     1
  0
VPORT
  5
442
330
8
100
AcDbSymbolTableRecord
100
AcDbViewportTableRecord
  2
*Active
 70
     0
 10
0.0
 20
0.0
 11
1.0
 21
1.0
 12
344.1869158878504
 22
148.5
 13
0.0
 23
0.0
 14
10.0
 24
10.0
 15
10.0
 25
10.0
 16
0.0
 26
0.0
 36
1.0
 17
0.0
 27
0.0
 37
0.0
 40
297.0
 41
1.972972972850329
 42
50.0
 43
0.0
 44
0.0
 50
0.0
 51
0.0
 71
     0
 72
   100
 73
     1
 74
     3
 75
     0
 76
     0
 77
     0
 78
     0
281
     0
 65
     1
110
0.0
120
0.0
130
0.0
111
1.0
121
0.0
131
0.0
112
0.0
122
1.0
132
0.0
 79
     0
146
0.0
348
6E4
 60
     3
 61
     5
292
     1
282
     1
141
0.0
142
0.0
 63
   250
  0
ENDTAB
  0
TABLE
  2
LTYPE
  5
5
330
0
100
AcDbSymbolTable
 70
     4
  0
LTYPE
  5
14
330
5
100
AcDbSymbolTableRecord
100
AcDbLinetypeTableRecord
  2
ByBlock
 70
     0
  3

 72
    65
 73
     0
 40
0.0
  0
LTYPE
  5
15
330
5
100
AcDbSymbolTableRecord
100
AcDbLinetypeTableRecord
  2
ByLayer
 70
     0
  3

 72
    65
 73
     0
 40
0.0
  0
LTYPE
  5
16
330
5
100
AcDbSymbolTableRecord
100
AcDbLinetypeTableRecord
  2
CONTINUOUS
 70
     0
  3
Solid line
 72
    65
 73
     0
 40
0.0
  0
LTYPE
  5
410
330
5
100
AcDbSymbolTableRecord
100
AcDbLinetypeTableRecord
  2
DASHDOT
 70
     0
  3
Dash Dot ____ _ ____ _
 72
    65
 73
     4
 40
2.0
 49
1.25
 74
     0
 49
-0.25
 74
     0
 49
0.25
 74
     0
 49
-0.25
 74
     0
  0
LTYPE
  5
411
330
5
100
AcDbSymbolTableRecord
100
AcDbLinetypeTableRecord
  2
DASHED
 70
     0
  3
Dashed __ __ __ __ __
 72
    65
 73
     2
 40
0.75
 49
0.5
 74
     0
 49
-0.25
 74
     0
  0
LTYPE
  5
43B
330
5
100
AcDbSymbolTableRecord
100
AcDbLinetypeTableRecord
  2
DOTTED
 70
     0
  3
Dotted .  .  .  .
 72
    65
 73
     2
 40
0.2
 49
0.0
 74
     0
 49
-0.2
 74
     0
  0
ENDTAB
  0
TABLE
  2
LAYER
  5
2
330
0
100
AcDbSymbolTable
 70
     3
  0
LAYER
  5
10
330
2
100
AcDbSymbolTableRecord
100
AcDbLayerTableRecord
  2
0
 70
     0
 62
     7
  6
CONTINUOUS
370
    -3
390
F
347
6FB
348
0
  0
LAYER
  5
440
330
2
100
AcDbSymbolTableRecord
100
AcDbLayerTableRecord
  2
BLACK
 70
     0
 62
     7
  6
CONTINUOUS
370
    -3
390
F
347
6FB
348
0
  0
LAYER
  5
711
330
2
100
AcDbSymbolTableRecord
100
AcDbLayerTableRecord
  2
Defpoints
 70
     0
 62
     7
  6
CONTINUOUS
290
     0
370
    -3
390
F
347
6FB
348
0
  0
ENDTAB
  0
TABLE
  2
STYLE
  5
3
330
0
100
AcDbSymbolTable
 70
     5
  0
STYLE
  5
11
330
3
100
AcDbSymbolTableRecord
100
AcDbTextStyleTableRecord
  2
Standard
 70
     0
 40
0.0
 41
1.0
 50
0.0
 71
     0
 42
0.2
  3
txt
  4

  0
STYLE
  5
43C
330
3
100
AcDbSymbolTableRecord
100
AcDbTextStyleTableRecord
  2
KICAD
 70
     0
 40
0.0
 41
1.0
 50
0.0
 71
     0
 42
1.0
  3
isocp.shx
  4

  0
STYLE
  5
43D
330
3
100
AcDbSymbolTableRecord
100
AcDbTextStyleTableRecord
  2
KICADB
 70
     0
 40
0.0
 41
1.0
 50
0.0
 71
     0
 42
1.0
  3
isocp.shx
  4

  0
STYLE
  5
43E
330
3
100
AcDbSymbolTableRecord
100
AcDbTextStyleTableRecord
  2
KICADI
 70
     0
 40
0.0
 41
1.0
 50
15.0
 71
     0
 42
1.0
  3
isocp.shx
  4

  0
STYLE
  5
43F
330
3
100
AcDbSymbolTableRecord
100
AcDbTextStyleTableRecord
  2
KICADBI
 70
     0
 40
0.0
 41
1.0
 50
15.0
 71
     0
 42
1.0
  3
isocp.shx
  4

  0
ENDTAB
  0
TABLE
  2
VIEW
  5
6
330
0
100
AcDbSymbolTable
 70
     0
  0
ENDTAB
  0
TABLE
  2
UCS
  5
7
330
0
100
AcDbSymbolTable
 70
     0
  0
ENDTAB
  0
TABLE
  2
APPID
  5
9
330
0
100
AcDbSymbolTable
 70
     3
  0
APPID
  5
12
330
9
100
AcDbSymbolTableRecord
100
AcDbRegAppTableRecord
  2
ACAD
 70
     0
  0
APPID
  5
763
330
9
100
AcDbSymbolTableRecord
100
AcDbRegAppTableRecord
  2
HATCHBACKGROUNDCOLOR
 70
     0
  0
APPID
  5
764
330
9
100
AcDbSymbolTableRecord
100
AcDbRegAppTableRecord
  2
EZDXF
 70
     0
  0
ENDTAB
  0
TABLE
  2
DIMSTYLE
  5
A
330
0
100
AcDbSymbolTable
 70
     2
100
AcDbDimStyleTable
  0
DIMSTYLE
105
441
330
A
100
AcDbSymbolTableRecord
100
AcDbDimStyleTableRecord
  2
ISO-25
 70
     0
 41
2.5
 42
0.625
 43
3.75
 44
1.25
 49
2.5
 73
     0
 74
     0
 77
     1
 78
     8
 79
     3
140
2.5
141
2.5
143
0.03937007874016
147
0.625
171
     3
172
     1
178
     0
179
     2
271
     2
272
     2
274
     3
278
    44
283
     0
284
     8
340
11
  0
DIMSTYLE
105
712
330
A
100
AcDbSymbolTableRecord
100
AcDbDimStyleTableRecord
  2
Standard
 70
     0
 41
2.5
 42
0.625
 43
3.75
 44
1.25
 49
2.5
 73
     0
 74
     0
 77
     1
 78
     8
 79
     3
140
2.5
141
2.5
143
0.03937007874
147
0.625
171
     3
172
     1
178
     0
179
     2
271
     2
272
     2
274
     3
278
    44
283
     0
284
     8
340
11
  0
ENDTAB
  0
TABLE
  2
BLOCK_RECORD
  5
1
330
0
100
AcDbSymbolTable
 70
     0
  0
BLOCK_RECORD
  5
1D
330
1
100
AcDbSymbolTableRecord
100
AcDbBlockTableRecord
  2
*Model_Space
340
1E
 70
     0
280
     1
281
     0
  0
BLOCK_RECORD
  5
1B
330
1
100
AcDbSymbolTableRecord
100
AcDbBlockTableRecord
  2
*Paper_Space
340
1C
 70
     0
280
     1
281
     0
  0
ENDTAB
  0
ENDSEC
  0
SECTION
  2
BLOCKS
  0
BLOCK
  5
6DB
330
1D
100
AcDbEntity
  8
0
100
AcDbBlockBegin
  2
*Model_Space
 70
     0
 10
0.0
 20
0.0
 30
0.0
  3
*Model_Space
  1

  0
ENDBLK
  5
6DC
330
1D
100
AcDbEntity
  8
0
100
AcDbBlockEnd
  0
BLOCK
  5
6DD
330
1B
100
AcDbEntity
 67
     1
  8
0
100
AcDbBlockBegin
  2
*Paper_Space
 70
     0
 10
0.0
 20
0.0
 30
0.0
  3
*Paper_Space
  1

  0
ENDBLK
  5
6DE
330
1B
100
AcDbEntity
 67
     1
  8
0
100
AcDbBlockEnd
  0
ENDSEC
  0
SECTION
  2
ENTITIES
  0
ARC
  5
443
330
1D
100
AcDbEntity
  8
BLACK
100
AcDbCircle
 10
64.713888
 20
8.779788
 30
0.0
 40
1.000213000071985
100
AcDbArc
 50
77.99947119
 51
89.9993126
  0
LINE
  5
444
330
1D
100
AcDbEntity
  8
BLACK
  6
Continuous
100
AcDbLine
 10
298.0287
 20
9.780025
 30
0.0
 11
298.0287
 21
9.780001
 31
0.0
  0
LINE
  5
445
330
1D
100
AcDbEntity
  8
BLACK
  6
Continuous
100
AcDbLine
 10
152.179558
 20
-108.040785
 30
0.0
 11
152.179558
 21
-108.040786
 31
0.0
  0
LINE
  5
446
330
1D
100
AcDbEntity
  8
BLACK
  6
Continuous
100
AcDbLine
 10
196.501096
 20
-102.54572
 30
0.0
 11
196.501059
 21
-102.54574
 31
0.0
  0
CIRCLE
  5
447
330
1D
100
AcDbEntity
  8
BLACK
100
AcDbCircle
 10
110.007749
 20
3.24186
 30
0.0
 40
1.75
  0
CIRCLE
  5
448
330
1D
100
AcDbEntity
  8
BLACK
100
AcDbCircle
 10
190.953048
 20
4.922325
 30
0.0
 40
1.75
  0
CIRCLE
  5
449
330
1D
100
AcDbEntity
  8
BLACK
100
AcDbCircle
 10
0.0
 20
12.780001
 30
0.0
 40
1.75
  0
CIRCLE
  5
44A
330
1D
100
AcDbEntity
  8
BLACK
100
AcDbCircle
 10
0.0
 20
-91.11999899999999
 30
0.0
 40
1.75
  0
CIRCLE
  5
44B
330
1D
100
AcDbEntity
  8
BLACK
100
AcDbCircle
 10
302.77875
 20
-91.11999899999999
 30
0.0
 40
1.75
  0
CIRCLE
  5
44C
330
1D
100
AcDbEntity
  8
BLACK
100
AcDbCircle
 10
302.77875
 20
12.780001
 30
0.0
 40
1.75
  0
CIRCLE
  5
44D
330
1D
100
AcDbEntity
  8
BLACK
100
AcDbCircle
 10
103.136518
 20
-101.125318
 30
0.0
 40
1.75
  0
CIRCLE
  5
44E
330
1D
100
AcDbEntity
  8
BLACK
100
AcDbCircle
 10
199.143482
 20
-101.125318
 30
0.0
 40
1.75
  0
LINE
  5
44F
330
1D
100
AcDbEntity
  8
BLACK
  6
Continuous
100
AcDbLine
 10
307.5289
 20
9.780001
 30
0.0
 11
315.3745
 21
9.780001
 31
0.0
  0
ARC
  5
450
330
1D
100
AcDbEntity
  8
BLACK
100
AcDbCircle
 10
298.042791
 20
-89.16789899999999
 30
0.0
 40
0.999900000040504
100
AcDbArc
 50
16.25536174
 51
89.99948429000001
  0
LINE
  5
451
330
1D
100
AcDbEntity
  8
BLACK
  6
Continuous
100
AcDbLine
 10
-12.76
 20
-87.120001
 30
0.0
 11
-12.76
 21
-74.869997
 31
0.0
  0
LINE
  5
452
330
1D
100
AcDbEntity
  8
BLACK
  6
Continuous
100
AcDbLine
 10
-4.75
 20
-88.11999899999999
 30
0.0
 11
-11.760001
 21
-88.11999899999999
 31
0.0
  0
LINE
  5
453
330
1D
100
AcDbEntity
  8
BLACK
  6
Continuous
100
AcDbLine
 10
-2.88
 20
-91.959999
 30
0.0
 11
-3.79
 21
-88.83999999999999
 31
0.0
  0
LINE
  5
454
330
1D
100
AcDbEntity
  8
BLACK
  6
Continuous
100
AcDbLine
 10
3.79
 20
-88.83999899999999
 30
0.0
 11
2.88
 21
-91.959999
 31
0.0
  0
LINE
  5
455
330
1D
100
AcDbEntity
  8
BLACK
  6
Continuous
100
AcDbLine
 10
55.855
 20
-88.11999899999999
 30
0.0
 11
4.75
 21
-88.11999899999999
 31
0.0
  0
LINE
  5
456
330
1D
100
AcDbEntity
  8
BLACK
  6
Continuous
100
AcDbLine
 10
99.11394999999999
 20
-97.203273
 30
0.0
 11
56.894543
 21
-88.229261
 31
0.0
  0
LINE
  5
457
330
1D
100
AcDbEntity
  8
BLACK
  6
Continuous
100
AcDbLine
 10
100.143655
 20
-101.332708
 30
0.0
 11
99.902794
 21
-98.099324
 31
0.0
  0
LINE
  5
458
330
1D
100
AcDbEntity
  8
BLACK
  6
Continuous
100
AcDbLine
 10
107.317709
 20
-99.683177
 30
0.0
 11
105.778941
 21
-102.54574
 31
0.0
  0
LINE
  5
459
330
1D
100
AcDbEntity
  8
BLACK
  6
Continuous
100
AcDbLine
 10
150.100453
 20
-108.040788
 30
0.0
 11
108.401172
 21
-99.17733299999999
 31
0.0
  0
LINE
  5
45A
330
1D
100
AcDbEntity
  8
BLACK
  6
Continuous
100
AcDbLine
 10
193.873608
 20
-99.178443
 30
0.0
 11
152.179558
 21
-108.040786
 31
0.0
  0
LINE
  5
45B
330
1D
100
AcDbEntity
  8
BLACK
  6
Continuous
100
AcDbLine
 10
196.501059
 20
-102.54574
 30
0.0
 11
194.962264
 21
-99.683127
 31
0.0
  0
LINE
  5
45C
330
1D
100
AcDbEntity
  8
BLACK
  6
Continuous
100
AcDbLine
 10
202.376633
 20
-98.107025
 30
0.0
 11
202.135194
 21
-101.348156
 31
0.0
  0
LINE
  5
45D
330
1D
100
AcDbEntity
  8
BLACK
  6
Continuous
100
AcDbLine
 10
245.159621
 20
-88.277264
 30
0.0
 11
203.165824
 21
-97.203321
 31
0.0
  0
ARC
  5
45E
330
1D
100
AcDbEntity
  8
BLACK
100
AcDbCircle
 10
-13.759999
 20
-74.869998
 30
0.0
 40
0.9999990000004999
100
AcDbArc
 50
0.0000573
 51
90.00005729999998
  0
ARC
  5
45F
330
1D
100
AcDbEntity
  8
BLACK
100
AcDbCircle
 10
-11.760001
 20
-87.11999999999999
 30
0.0
 40
0.999999
100
AcDbArc
 50
180.0000573
 51
270.0
  0
ARC
  5
460
330
1D
100
AcDbEntity
  8
BLACK
100
AcDbCircle
 10
-4.750008999999999
 20
-89.11999899999999
 30
0.0
 40
1.0000000000405
100
AcDbArc
 50
16.26000532
 51
89.99948434
  0
ARC
  5
461
330
1D
100
AcDbEntity
  8
BLACK
100
AcDbCircle
 10
0.0
 20
-91.11999899999999
 30
0.0
 40
3.0
100
AcDbArc
 50
196.26020471
 51
343.73979529
  0
ARC
  5
462
330
1D
100
AcDbEntity
  8
BLACK
100
AcDbCircle
 10
4.749991
 20
-89.11999899999999
 30
0.0
 40
0.9999913600031751
100
AcDbArc
 50
89.99948434
 51
163.73965091
  0
ARC
  5
463
330
1D
100
AcDbEntity
  8
BLACK
100
AcDbCircle
 10
55.854991
 20
-93.11949899999999
 30
0.0
 40
4.9995000000081
100
AcDbArc
 50
77.99888098
 51
89.99989686
  0
ARC
  5
464
330
1D
100
AcDbEntity
  8
BLACK
100
AcDbCircle
 10
98.905991
 20
-98.18159899999999
 30
0.0
 40
1.000184336988437
100
AcDbArc
 50
4.71843364
 51
77.99947388999999
  0
ARC
  5
465
330
1D
100
AcDbEntity
  8
BLACK
100
AcDbCircle
 10
103.136491
 20
-101.125299
 30
0.0
 40
3.000032439321449
100
AcDbArc
 50
183.96436365
 51
331.73988231
  0
ARC
  5
466
330
1D
100
AcDbEntity
  8
BLACK
100
AcDbCircle
 10
108.198591
 20
-100.156699
 30
0.0
 40
1.000088087324312
100
AcDbArc
 50
78.31323666
 51
151.73955194
  0
ARC
  5
467
330
1D
100
AcDbEntity
  8
BLACK
100
AcDbCircle
 10
151.139991
 20
-103.150099
 30
0.0
 40
4.999950909567512
100
AcDbArc
 50
258.0001125100001
 51
282.00021969
  0
ARC
  5
468
330
1D
100
AcDbEntity
  8
BLACK
100
AcDbCircle
 10
194.081491
 20
-100.156499
 30
0.0
 40
0.9999044358462462
100
AcDbArc
 50
28.25583474
 51
101.9994832
  0
ARC
  5
469
330
1D
100
AcDbEntity
  8
BLACK
100
AcDbCircle
 10
199.143491
 20
-101.125299
 30
0.0
 40
2.999992013765703
100
AcDbArc
 50
208.26027859
 51
355.73980912
  0
ARC
  5
46A
330
1D
100
AcDbEntity
  8
BLACK
100
AcDbCircle
 10
203.373691
 20
-98.181299
 30
0.0
 40
0.9998206251323284
100
AcDbArc
 50
101.99951564
 51
175.73972518
  0
ARC
  5
46B
330
1D
100
AcDbEntity
  8
BLACK
100
AcDbCircle
 10
246.199191
 20
-93.168099
 30
0.0
 40
5.000097277266214
100
AcDbArc
 50
89.99989686999999
 51
101.99989832
  0
ARC
  5
46C
330
1D
100
AcDbEntity
  8
BLACK
100
AcDbCircle
 10
302.778691
 20
-91.11989899999999
 30
0.0
 40
3.000084560702414
100
AcDbArc
 50
195.80613861
 51
343.73855545
  0
ARC
  5
46D
330
1D
100
AcDbEntity
  8
BLACK
100
AcDbCircle
 10
307.514791
 20
-89.167999
 30
0.0
 40
1.000039560314491
100
AcDbArc
 50
90.40209518000002
 51
163.74123221
  0
ARC
  5
46E
330
1D
100
AcDbEntity
  8
BLACK
100
AcDbCircle
 10
315.374591
 20
-87.168099
 30
0.0
 40
0.9998907079181204
100
AcDbArc
 50
269.99684842
 51
315.00036467
  0
ARC
  5
46F
330
1D
100
AcDbEntity
  8
BLACK
100
AcDbCircle
 10
319.788791
 20
-82.753799
 30
0.0
 40
0.9999589999999999
100
AcDbArc
 50
314.99890607
 51
0.0
  0
ARC
  5
470
330
1D
100
AcDbEntity
  8
BLACK
100
AcDbCircle
 10
319.788791
 20
4.365800999999999
 30
0.0
 40
0.9999614185962377
100
AcDbArc
 50
0.0
 51
44.99963536
  0
ARC
  5
471
330
1D
100
AcDbEntity
  8
BLACK
100
AcDbCircle
 10
315.374391
 20
8.779601
 30
0.0
 40
1.000400005938125
100
AcDbArc
 50
44.54549358000001
 51
89.99375726
  0
ARC
  5
472
330
1D
100
AcDbEntity
  8
BLACK
100
AcDbCircle
 10
307.528891
 20
10.780201
 30
0.0
 40
1.000200000040492
100
AcDbArc
 50
196.6611003
 51
270.00051556
  0
ARC
  5
473
330
1D
100
AcDbEntity
  8
BLACK
100
AcDbCircle
 10
302.778791
 20
12.780001
 30
0.0
 40
3.000039560104833
100
AcDbArc
 50
16.26042396
 51
163.74027428
  0
ARC
  5
474
330
1D
100
AcDbEntity
  8
BLACK
100
AcDbCircle
 10
298.028791
 20
10.780001
 30
0.0
 40
0.9999604403145156
100
AcDbArc
 50
269.99478596
 51
343.73835826
  0
ARC
  5
475
330
1D
100
AcDbEntity
  8
BLACK
100
AcDbCircle
 10
186.722791
 20
1.978401
 30
0.0
 40
0.9998766189745613
100
AcDbArc
 50
281.99381454
 51
355.7398492799999
  0
ARC
  5
476
330
1D
100
AcDbEntity
  8
BLACK
100
AcDbCircle
 10
190.953091
 20
4.922200999999999
 30
0.0
 40
3.000052219414355
100
AcDbArc
 50
27.93940527
 51
175.73979901
  0
ARC
  5
477
330
1D
100
AcDbEntity
  8
BLACK
100
AcDbCircle
 10
146.527391
 20
-2.475599
 30
0.0
 40
5.000351477246374
100
AcDbArc
 50
257.85611742
 51
282.00009922
  0
ARC
  5
478
330
1D
100
AcDbEntity
  8
BLACK
100
AcDbCircle
 10
114.238091
 20
0.297901
 30
0.0
 40
0.9999107205490898
100
AcDbArc
 50
184.25560495
 51
258.00047618
  0
ARC
  5
479
330
1D
100
AcDbEntity
  8
BLACK
100
AcDbCircle
 10
104.945791
 20
2.273001
 30
0.0
 40
0.9998730557190747
100
AcDbArc
 50
257.99450449
 51
331.7400845500001
  0
ARC
  5
47A
330
1D
100
AcDbEntity
  8
BLACK
100
AcDbCircle
 10
4.749991
 20
10.780001
 30
0.0
 40
1.0000000000405
100
AcDbArc
 50
196.26034909
 51
270.00051566
  0
ARC
  5
47B
330
1D
100
AcDbEntity
  8
BLACK
100
AcDbCircle
 10
-17.010006
 20
4.36579
 30
0.0
 40
0.9999940000005
100
AcDbArc
 50
135.00004051
 51
179.9999427
  0
ARC
  5
47C
330
1D
100
AcDbEntity
  8
BLACK
100
AcDbCircle
 10
-17.010001
 20
-72.86999999999999
 30
0.0
 40
0.999999
100
AcDbArc
 50
180.0000573
 51
270.0
  0
ARC
  5
47D
330
1D
100
AcDbEntity
  8
BLACK
100
AcDbCircle
 10
0.0
 20
12.780001
 30
0.0
 40
3.0
100
AcDbArc
 50
16.26020471
 51
163.73979529
  0
ARC
  5
47E
330
1D
100
AcDbEntity
  8
BLACK
100
AcDbCircle
 10
-12.595789
 20
8.780007
 30
0.0
 40
0.9999939454881713
100
AcDbArc
 50
90.00005729999998
 51
135.00004051
  0
ARC
  5
47F
330
1D
100
AcDbEntity
  8
BLACK
100
AcDbCircle
 10
196.015091
 20
3.953701
 30
0.0
 40
1.000085090522302
100
AcDbArc
 50
208.5845207
 51
282.00050476
  0
ARC
  5
480
330
1D
100
AcDbEntity
  8
BLACK
100
AcDbCircle
 10
-4.750008999999999
 20
10.780001
 30
0.0
 40
1.000008920001217
100
AcDbArc
 50
270.00051566
 51
343.73988467
  0
ARC
  5
481
330
1D
100
AcDbEntity
  8
BLACK
100
AcDbCircle
 10
110.007751
 20
3.241861
 30
0.0
 40
3.000002568496233
100
AcDbArc
 50
4.26018237
 51
151.73981416
  0
LINE
  5
482
330
1D
100
AcDbEntity
  8
BLACK
  6
Continuous
100
AcDbLine
 10
305.65875
 20
13.620001
 30
0.0
 11
306.570667
 21
10.493429
 31
0.0
  0
LINE
  5
483
330
1D
100
AcDbEntity
  8
BLACK
  6
Continuous
100
AcDbLine
 10
298.988746
 20
10.499988
 30
0.0
 11
299.898746
 21
13.619988
 31
0.0
  0
LINE
  5
484
330
1D
100
AcDbEntity
  8
BLACK
  6
Continuous
100
AcDbLine
 10
228.23582
 20
9.780001
 30
0.0
 11
298.0287
 21
9.780001
 31
0.0
  0
LINE
  5
485
330
1D
100
AcDbEntity
  8
BLACK
  6
Continuous
100
AcDbLine
 10
196.223029
 20
2.975472
 30
0.0
 11
228.23582
 21
9.780001
 31
0.0
  0
LINE
  5
486
330
1D
100
AcDbEntity
  8
BLACK
  6
Continuous
100
AcDbLine
 10
193.603483
 20
6.327846
 30
0.0
 11
195.136912
 21
3.47521
 31
0.0
  0
LINE
  5
487
330
1D
100
AcDbEntity
  8
BLACK
  6
Continuous
100
AcDbLine
 10
187.719905
 20
1.904125
 30
0.0
 11
187.961328
 21
5.145062999999999
 31
0.0
  0
LINE
  5
488
330
1D
100
AcDbEntity
  8
BLACK
  6
Continuous
100
AcDbLine
 10
147.567031
 20
-7.366679
 30
0.0
 11
186.930582
 21
1.000302
 31
0.0
  0
LINE
  5
489
330
1D
100
AcDbEntity
  8
BLACK
  6
Continuous
100
AcDbLine
 10
114.030206
 20
-0.680161
 30
0.0
 11
145.475479
 21
-7.364059999999999
 31
0.0
  0
LINE
  5
48A
330
1D
100
AcDbEntity
  8
BLACK
  6
Continuous
100
AcDbLine
 10
112.99946
 20
3.464718
 30
0.0
 11
113.240889
 21
0.223698
 31
0.0
  0
LINE
  5
48B
330
1D
100
AcDbEntity
  8
BLACK
  6
Continuous
100
AcDbLine
 10
105.826488
 20
1.799589
 30
0.0
 11
107.365329
 21
4.662291
 31
0.0
  0
LINE
  5
48C
330
1D
100
AcDbEntity
  8
BLACK
  6
Continuous
100
AcDbLine
 10
64.921853
 20
9.758142
 30
0.0
 11
104.737812
 21
1.294998
 31
0.0
  0
LINE
  5
48D
330
1D
100
AcDbEntity
  8
BLACK
  6
Continuous
100
AcDbLine
 10
4.75
 20
9.780001
 30
0.0
 11
64.7139
 21
9.780001
 31
0.0
  0
LINE
  5
48E
330
1D
100
AcDbEntity
  8
BLACK
  6
Continuous
100
AcDbLine
 10
2.88
 20
13.620001
 30
0.0
 11
3.79
 21
10.500001
 31
0.0
  0
LINE
  5
48F
330
1D
100
AcDbEntity
  8
BLACK
  6
Continuous
100
AcDbLine
 10
-3.79
 20
10.5
 30
0.0
 11
-2.88
 21
13.620001
 31
0.0
  0
LINE
  5
490
330
1D
100
AcDbEntity
  8
BLACK
  6
Continuous
100
AcDbLine
 10
-12.59579
 20
9.780001
 30
0.0
 11
-4.75
 21
9.780001
 31
0.0
  0
LINE
  5
491
330
1D
100
AcDbEntity
  8
BLACK
  6
Continuous
100
AcDbLine
 10
-17.717109
 20
5.072892
 30
0.0
 11
-13.302892
 21
9.487109
 31
0.0
  0
LINE
  5
492
330
1D
100
AcDbEntity
  8
BLACK
  6
Continuous
100
AcDbLine
 10
-18.01
 20
-72.870001
 30
0.0
 11
-18.01
 21
4.365791
 31
0.0
  0
LINE
  5
493
330
1D
100
AcDbEntity
  8
BLACK
  6
Continuous
100
AcDbLine
 10
-13.76
 20
-73.86999899999999
 30
0.0
 11
-17.010001
 21
-73.86999899999999
 31
0.0
  0
LINE
  5
494
330
1D
100
AcDbEntity
  8
BLACK
  6
Continuous
100
AcDbLine
 10
306.554746
 20
-88.88801199999999
 30
0.0
 11
305.658754
 21
-91.95998499999999
 31
0.0
  0
LINE
  5
495
330
1D
100
AcDbEntity
  8
BLACK
  6
Continuous
100
AcDbLine
 10
299.892061
 20
-91.937067
 30
0.0
 11
299.00275
 21
-88.887999
 31
0.0
  0
LINE
  5
496
330
1D
100
AcDbEntity
  8
BLACK
  6
Continuous
100
AcDbLine
 10
298.0428
 20
-88.167999
 30
0.0
 11
246.1992
 21
-88.167999
 31
0.0
  0
LINE
  5
497
330
1D
100
AcDbEntity
  8
BLACK
  6
Continuous
100
AcDbLine
 10
320.495857
 20
-83.460892
 30
0.0
 11
316.081625
 21
-87.875124
 31
0.0
  0
LINE
  5
498
330
1D
100
AcDbEntity
  8
BLACK
  6
Continuous
100
AcDbLine
 10
320.78875
 20
4.365800999999999
 30
0.0
 11
320.78875
 21
-82.753799
 31
0.0
  0
LINE
  5
499
330
1D
100
AcDbEntity
  8
BLACK
  6
Continuous
100
AcDbLine
 10
315.374536
 20
-88.167999
 30
0.0
 11
307.507773
 21
-88.167999
 31
0.0
  0
LINE
  5
49A
330
1D
100
AcDbEntity
  8
BLACK
  6
Continuous
100
AcDbLine
 10
316.087382
 20
9.481368999999999
 30
0.0
 11
320.495875
 21
5.072876
 31
0.0
  0
LINE
  5
4B9
330
1D
100
AcDbEntity
  8
BLACK
  6
Continuous
100
AcDbLine
 10
63.014975
 20
-74.445565
 30
0.0
 11
60.946253
 21
-84.178134
 31
0.0
  0
LINE
  5
4BA
330
1D
100
AcDbEntity
  8
BLACK
  6
Continuous
100
AcDbLine
 10
75.79550499999999
 20
-75.04079399999999
 30
0.0
 11
65.476047
 21
-72.847325
 31
0.0
  0
LINE
  5
4BB
330
1D
100
AcDbEntity
  8
BLACK
  6
Continuous
100
AcDbLine
 10
72.86395
 20
-88.832675
 30
0.0
 11
62.544493
 21
-86.639206
 31
0.0
  0
LINE
  5
4BC
330
1D
100
AcDbEntity
  8
BLACK
  6
Continuous
100
AcDbLine
 10
77.393745
 20
-77.50186699999999
 30
0.0
 11
75.325023
 21
-87.23443499999999
 31
0.0
  0
ARC
  5
4BD
330
1D
100
AcDbEntity
  8
BLACK
100
AcDbCircle
 10
65.044634
 20
-74.876986
 30
0.0
 40
2.075003550725155
100
AcDbArc
 50
78.00012866
 51
167.9999011
  0
ARC
  5
4BE
330
1D
100
AcDbEntity
  8
BLACK
100
AcDbCircle
 10
62.97591199999999
 20
-84.609549
 30
0.0
 40
2.075001178604484
100
AcDbArc
 50
168.00006316
 51
257.9999436399999
  0
ARC
  5
4BF
330
1D
100
AcDbEntity
  8
BLACK
100
AcDbCircle
 10
75.364088
 20
-77.07045
 30
0.0
 40
2.074999784632519
100
AcDbArc
 50
347.99999766
 51
77.99999192
  0
ARC
  5
4C0
330
1D
100
AcDbEntity
  8
BLACK
100
AcDbCircle
 10
73.295367
 20
-86.803018
 30
0.0
 40
2.074999784632519
100
AcDbArc
 50
257.99999766
 51
347.99999192
  0
LINE
  5
4C1
330
1D
100
AcDbEntity
  8
BLACK
  6
Continuous
100
AcDbLine
 10
8.036249
 20
-73.364998
 30
0.0
 11
8.036249
 21
-83.314999
 31
0.0
  0
LINE
  5
4C2
330
1D
100
AcDbEntity
  8
BLACK
  6
Continuous
100
AcDbLine
 10
20.661249
 20
-71.289998
 30
0.0
 11
10.111248
 21
-71.289998
 31
0.0
  0
LINE
  5
4C3
330
1D
100
AcDbEntity
  8
BLACK
  6
Continuous
100
AcDbLine
 10
20.661249
 20
-85.38999799999999
 30
0.0
 11
10.111249
 21
-85.38999799999999
 31
0.0
  0
LINE
  5
4C4
330
1D
100
AcDbEntity
  8
BLACK
  6
Continuous
100
AcDbLine
 10
22.736249
 20
-73.364998
 30
0.0
 11
22.736249
 21
-83.314998
 31
0.0
  0
ARC
  5
4C5
330
1D
100
AcDbEntity
  8
BLACK
100
AcDbCircle
 10
10.111253
 20
-73.36500199999999
 30
0.0
 40
2.075004000003855
100
AcDbArc
 50
90.00013806
 51
179.99988955
  0
ARC
  5
4C6
330
1D
100
AcDbEntity
  8
BLACK
100
AcDbCircle
 10
10.111251
 20
-83.314996
 30
0.0
 40
2.075002000000964
100
AcDbArc
 50
180.00008284
 51
269.99994478
  0
ARC
  5
4C7
330
1D
100
AcDbEntity
  8
BLACK
100
AcDbCircle
 10
20.661249
 20
-73.364998
 30
0.0
 40
2.075
100
AcDbArc
 50
0.0
 51
90.0
  0
ARC
  5
4C8
330
1D
100
AcDbEntity
  8
BLACK
100
AcDbCircle
 10
20.661249
 20
-83.314998
 30
0.0
 40
2.075
100
AcDbArc
 50
270.0
 51
0.0
  0
LINE
  5
4C9
330
1D
100
AcDbEntity
  8
BLACK
  6
Continuous
100
AcDbLine
 10
15.669999
 20
2.835002
 30
0.0
 11
15.669999
 21
-7.114999
 31
0.0
  0
LINE
  5
4CA
330
1D
100
AcDbEntity
  8
BLACK
  6
Continuous
100
AcDbLine
 10
28.294999
 20
4.910002
 30
0.0
 11
17.744998
 21
4.910002
 31
0.0
  0
LINE
  5
4CB
330
1D
100
AcDbEntity
  8
BLACK
  6
Continuous
100
AcDbLine
 10
28.294999
 20
-9.189998
 30
0.0
 11
17.744999
 21
-9.189998
 31
0.0
  0
LINE
  5
4CC
330
1D
100
AcDbEntity
  8
BLACK
  6
Continuous
100
AcDbLine
 10
30.369999
 20
2.835002
 30
0.0
 11
30.369999
 21
-7.114998
 31
0.0
  0
ARC
  5
4CD
330
1D
100
AcDbEntity
  8
BLACK
100
AcDbCircle
 10
17.745003
 20
2.834998
 30
0.0
 40
2.075004000003855
100
AcDbArc
 50
90.00013806
 51
179.99988955
  0
ARC
  5
4CE
330
1D
100
AcDbEntity
  8
BLACK
100
AcDbCircle
 10
17.745001
 20
-7.114996
 30
0.0
 40
2.075002000000964
100
AcDbArc
 50
180.00008284
 51
269.99994478
  0
ARC
  5
4CF
330
1D
100
AcDbEntity
  8
BLACK
100
AcDbCircle
 10
28.294999
 20
2.835002
 30
0.0
 40
2.075
100
AcDbArc
 50
0.0
 51
90.0
  0
ARC
  5
4D0
330
1D
100
AcDbEntity
  8
BLACK
100
AcDbCircle
 10
28.294999
 20
-7.114998
 30
0.0
 40
2.075
100
AcDbArc
 50
270.0
 51
0.0
  0
LINE
  5
4D1
330
1D
100
AcDbEntity
  8
BLACK
  6
Continuous
100
AcDbLine
 10
16.269999
 20
-16.214998
 30
0.0
 11
16.269999
 21
-26.164999
 31
0.0
  0
LINE
  5
4D2
330
1D
100
AcDbEntity
  8
BLACK
  6
Continuous
100
AcDbLine
 10
28.894999
 20
-14.139998
 30
0.0
 11
18.344998
 21
-14.139998
 31
0.0
  0
LINE
  5
4D3
330
1D
100
AcDbEntity
  8
BLACK
  6
Continuous
100
AcDbLine
 10
28.894999
 20
-28.239998
 30
0.0
 11
18.344999
 21
-28.239998
 31
0.0
  0
LINE
  5
4D4
330
1D
100
AcDbEntity
  8
BLACK
  6
Continuous
100
AcDbLine
 10
30.969999
 20
-16.214998
 30
0.0
 11
30.969999
 21
-26.164998
 31
0.0
  0
ARC
  5
4D5
330
1D
100
AcDbEntity
  8
BLACK
100
AcDbCircle
 10
18.345003
 20
-16.215002
 30
0.0
 40
2.075004000003855
100
AcDbArc
 50
90.00013806
 51
179.99988955
  0
ARC
  5
4D6
330
1D
100
AcDbEntity
  8
BLACK
100
AcDbCircle
 10
18.345001
 20
-26.164996
 30
0.0
 40
2.075002000000964
100
AcDbArc
 50
180.00008284
 51
269.99994478
  0
ARC
  5
4D7
330
1D
100
AcDbEntity
  8
BLACK
100
AcDbCircle
 10
28.894999
 20
-16.214998
 30
0.0
 40
2.075
100
AcDbArc
 50
0.0
 51
90.0
  0
ARC
  5
4D8
330
1D
100
AcDbEntity
  8
BLACK
100
AcDbCircle
 10
28.894999
 20
-26.164998
 30
0.0
 40
2.075
100
AcDbArc
 50
270.0
 51
0.0
  0
LINE
  5
4D9
330
1D
100
AcDbEntity
  8
BLACK
  6
Continuous
100
AcDbLine
 10
46.136249
 20
-54.314998
 30
0.0
 11
46.136249
 21
-64.264999
 31
0.0
  0
LINE
  5
4DA
330
1D
100
AcDbEntity
  8
BLACK
  6
Continuous
100
AcDbLine
 10
58.761249
 20
-52.239998
 30
0.0
 11
48.211248
 21
-52.239998
 31
0.0
  0
LINE
  5
4DB
330
1D
100
AcDbEntity
  8
BLACK
  6
Continuous
100
AcDbLine
 10
58.761249
 20
-66.339998
 30
0.0
 11
48.211249
 21
-66.339998
 31
0.0
  0
LINE
  5
4DC
330
1D
100
AcDbEntity
  8
BLACK
  6
Continuous
100
AcDbLine
 10
60.836249
 20
-54.314998
 30
0.0
 11
60.836249
 21
-64.26499799999999
 31
0.0
  0
ARC
  5
4DD
330
1D
100
AcDbEntity
  8
BLACK
100
AcDbCircle
 10
48.211253
 20
-54.315002
 30
0.0
 40
2.075004000003855
100
AcDbArc
 50
90.00013806
 51
179.99988955
  0
ARC
  5
4DE
330
1D
100
AcDbEntity
  8
BLACK
100
AcDbCircle
 10
48.211251
 20
-64.264996
 30
0.0
 40
2.075002000000964
100
AcDbArc
 50
180.00008284
 51
269.99994478
  0
ARC
  5
4DF
330
1D
100
AcDbEntity
  8
BLACK
100
AcDbCircle
 10
58.761249
 20
-54.314998
 30
0.0
 40
2.075
100
AcDbArc
 50
0.0
 51
90.0
  0
ARC
  5
4E0
330
1D
100
AcDbEntity
  8
BLACK
100
AcDbCircle
 10
58.761249
 20
-64.26499799999999
 30
0.0
 40
2.075
100
AcDbArc
 50
270.0
 51
0.0
  0
LINE
  5
4E1
330
1D
100
AcDbEntity
  8
BLACK
  6
Continuous
100
AcDbLine
 10
99.74239899999999
 20
-41.767
 30
0.0
 11
97.673677
 21
-51.499569
 31
0.0
  0
LINE
  5
4E2
330
1D
100
AcDbEntity
  8
BLACK
  6
Continuous
100
AcDbLine
 10
112.522929
 20
-42.362229
 30
0.0
 11
102.203471
 21
-40.16876
 31
0.0
  0
LINE
  5
4E3
330
1D
100
AcDbEntity
  8
BLACK
  6
Continuous
100
AcDbLine
 10
109.591374
 20
-56.15411
 30
0.0
 11
99.271917
 21
-53.960641
 31
0.0
  0
LINE
  5
4E4
330
1D
100
AcDbEntity
  8
BLACK
  6
Continuous
100
AcDbLine
 10
114.121169
 20
-44.823302
 30
0.0
 11
112.052447
 21
-54.55587
 31
0.0
  0
ARC
  5
4E5
330
1D
100
AcDbEntity
  8
BLACK
100
AcDbCircle
 10
101.772058
 20
-42.198421
 30
0.0
 40
2.075003550725155
100
AcDbArc
 50
78.00012866
 51
167.9999011
  0
ARC
  5
4E6
330
1D
100
AcDbEntity
  8
BLACK
100
AcDbCircle
 10
99.703336
 20
-51.930984
 30
0.0
 40
2.075001178604484
100
AcDbArc
 50
168.00006316
 51
257.9999436399999
  0
ARC
  5
4E7
330
1D
100
AcDbEntity
  8
BLACK
100
AcDbCircle
 10
112.091512
 20
-44.39188499999999
 30
0.0
 40
2.074999784632519
100
AcDbArc
 50
347.99999766
 51
77.99999192
  0
ARC
  5
4E8
330
1D
100
AcDbEntity
  8
BLACK
100
AcDbCircle
 10
110.022791
 20
-54.124453
 30
0.0
 40
2.074999784632519
100
AcDbArc
 50
257.99999766
 51
347.99999192
  0
LINE
  5
4E9
330
1D
100
AcDbEntity
  8
BLACK
  6
Continuous
100
AcDbLine
 10
112.322399
 20
-5.487
 30
0.0
 11
110.253677
 21
-15.219569
 31
0.0
  0
LINE
  5
4EA
330
1D
100
AcDbEntity
  8
BLACK
  6
Continuous
100
AcDbLine
 10
125.102929
 20
-6.082229
 30
0.0
 11
114.783471
 21
-3.88876
 31
0.0
  0
LINE
  5
4EB
330
1D
100
AcDbEntity
  8
BLACK
  6
Continuous
100
AcDbLine
 10
122.171374
 20
-19.87411
 30
0.0
 11
111.851917
 21
-17.680641
 31
0.0
  0
LINE
  5
4EC
330
1D
100
AcDbEntity
  8
BLACK
  6
Continuous
100
AcDbLine
 10
126.701169
 20
-8.543301999999999
 30
0.0
 11
124.632447
 21
-18.27587
 31
0.0
  0
ARC
  5
4ED
330
1D
100
AcDbEntity
  8
BLACK
100
AcDbCircle
 10
114.352058
 20
-5.918420999999999
 30
0.0
 40
2.075003550725155
100
AcDbArc
 50
78.00012866
 51
167.9999011
  0
ARC
  5
4EE
330
1D
100
AcDbEntity
  8
BLACK
100
AcDbCircle
 10
112.283336
 20
-15.650984
 30
0.0
 40
2.075001178604484
100
AcDbArc
 50
168.00006316
 51
257.9999436399999
  0
ARC
  5
4EF
330
1D
100
AcDbEntity
  8
BLACK
100
AcDbCircle
 10
124.671512
 20
-8.111885
 30
0.0
 40
2.074999784632519
100
AcDbArc
 50
347.99999766
 51
77.99999192
  0
ARC
  5
4F0
330
1D
100
AcDbEntity
  8
BLACK
100
AcDbCircle
 10
122.602791
 20
-17.844453
 30
0.0
 40
2.074999784632519
100
AcDbArc
 50
257.99999766
 51
347.99999192
  0
LINE
  5
4F1
330
1D
100
AcDbEntity
  8
BLACK
  6
Continuous
100
AcDbLine
 10
81.108687
 20
-37.806282
 30
0.0
 11
79.039965
 21
-47.538851
 31
0.0
  0
LINE
  5
4F2
330
1D
100
AcDbEntity
  8
BLACK
  6
Continuous
100
AcDbLine
 10
93.889217
 20
-38.401511
 30
0.0
 11
83.56975899999999
 21
-36.208042
 31
0.0
  0
LINE
  5
4F3
330
1D
100
AcDbEntity
  8
BLACK
  6
Continuous
100
AcDbLine
 10
90.957662
 20
-52.193392
 30
0.0
 11
80.638205
 21
-49.999923
 31
0.0
  0
LINE
  5
4F4
330
1D
100
AcDbEntity
  8
BLACK
  6
Continuous
100
AcDbLine
 10
95.48745699999999
 20
-40.862584
 30
0.0
 11
93.418735
 21
-50.595152
 31
0.0
  0
ARC
  5
4F5
330
1D
100
AcDbEntity
  8
BLACK
100
AcDbCircle
 10
83.138346
 20
-38.237703
 30
0.0
 40
2.075003550725155
100
AcDbArc
 50
78.00012866
 51
167.9999011
  0
ARC
  5
4F6
330
1D
100
AcDbEntity
  8
BLACK
100
AcDbCircle
 10
81.06962399999999
 20
-47.970266
 30
0.0
 40
2.075001178604484
100
AcDbArc
 50
168.00006316
 51
257.9999436399999
  0
ARC
  5
4F7
330
1D
100
AcDbEntity
  8
BLACK
100
AcDbCircle
 10
93.45779999999999
 20
-40.43116699999999
 30
0.0
 40
2.074999784632519
100
AcDbArc
 50
347.99999766
 51
77.99999192
  0
ARC
  5
4F8
330
1D
100
AcDbEntity
  8
BLACK
100
AcDbCircle
 10
91.389079
 20
-50.163735
 30
0.0
 40
2.074999784632519
100
AcDbArc
 50
257.99999766
 51
347.99999192
  0
LINE
  5
4F9
330
1D
100
AcDbEntity
  8
BLACK
  6
Continuous
100
AcDbLine
 10
80.408687
 20
-18.176282
 30
0.0
 11
78.33996499999999
 21
-27.908851
 31
0.0
  0
LINE
  5
4FA
330
1D
100
AcDbEntity
  8
BLACK
  6
Continuous
100
AcDbLine
 10
93.189217
 20
-18.771511
 30
0.0
 11
82.869759
 21
-16.578042
 31
0.0
  0
LINE
  5
4FB
330
1D
100
AcDbEntity
  8
BLACK
  6
Continuous
100
AcDbLine
 10
90.257662
 20
-32.563392
 30
0.0
 11
79.938205
 21
-30.369923
 31
0.0
  0
LINE
  5
4FC
330
1D
100
AcDbEntity
  8
BLACK
  6
Continuous
100
AcDbLine
 10
94.78745699999999
 20
-21.232584
 30
0.0
 11
92.718735
 21
-30.965152
 31
0.0
  0
ARC
  5
4FD
330
1D
100
AcDbEntity
  8
BLACK
100
AcDbCircle
 10
82.438346
 20
-18.607703
 30
0.0
 40
2.075003550725155
100
AcDbArc
 50
78.00012866
 51
167.9999011
  0
ARC
  5
4FE
330
1D
100
AcDbEntity
  8
BLACK
100
AcDbCircle
 10
80.369624
 20
-28.340266
 30
0.0
 40
2.075001178604484
100
AcDbArc
 50
168.00006316
 51
257.9999436399999
  0
ARC
  5
4FF
330
1D
100
AcDbEntity
  8
BLACK
100
AcDbCircle
 10
92.75779999999999
 20
-20.801167
 30
0.0
 40
2.074999784632519
100
AcDbArc
 50
347.99999766
 51
77.99999192
  0
ARC
  5
500
330
1D
100
AcDbEntity
  8
BLACK
100
AcDbCircle
 10
90.68907899999999
 20
-30.533735
 30
0.0
 40
2.074999784632519
100
AcDbArc
 50
257.99999766
 51
347.99999192
  0
LINE
  5
501
330
1D
100
AcDbEntity
  8
BLACK
  6
Continuous
100
AcDbLine
 10
67.824975
 20
-54.455565
 30
0.0
 11
65.756253
 21
-64.18813399999999
 31
0.0
  0
LINE
  5
502
330
1D
100
AcDbEntity
  8
BLACK
  6
Continuous
100
AcDbLine
 10
80.605505
 20
-55.050794
 30
0.0
 11
70.286047
 21
-52.857325
 31
0.0
  0
LINE
  5
503
330
1D
100
AcDbEntity
  8
BLACK
  6
Continuous
100
AcDbLine
 10
77.67394999999999
 20
-68.842675
 30
0.0
 11
67.35449299999999
 21
-66.64920599999999
 31
0.0
  0
LINE
  5
504
330
1D
100
AcDbEntity
  8
BLACK
  6
Continuous
100
AcDbLine
 10
82.203745
 20
-57.511867
 30
0.0
 11
80.13502299999999
 21
-67.244435
 31
0.0
  0
ARC
  5
505
330
1D
100
AcDbEntity
  8
BLACK
100
AcDbCircle
 10
69.85463399999999
 20
-54.886986
 30
0.0
 40
2.075003550725155
100
AcDbArc
 50
78.00012866
 51
167.9999011
  0
ARC
  5
506
330
1D
100
AcDbEntity
  8
BLACK
100
AcDbCircle
 10
67.785912
 20
-64.61954899999999
 30
0.0
 40
2.075001178604484
100
AcDbArc
 50
168.00006316
 51
257.9999436399999
  0
ARC
  5
507
330
1D
100
AcDbEntity
  8
BLACK
100
AcDbCircle
 10
80.174088
 20
-57.08045
 30
0.0
 40
2.074999784632519
100
AcDbArc
 50
347.99999766
 51
77.99999192
  0
ARC
  5
508
330
1D
100
AcDbEntity
  8
BLACK
100
AcDbCircle
 10
78.105367
 20
-66.813018
 30
0.0
 40
2.074999784632519
100
AcDbArc
 50
257.99999766
 51
347.99999192
  0
LINE
  5
509
330
1D
100
AcDbEntity
  8
BLACK
  6
Continuous
100
AcDbLine
 10
61.774975
 20
-14.215565
 30
0.0
 11
59.706253
 21
-23.948134
 31
0.0
  0
LINE
  5
50A
330
1D
100
AcDbEntity
  8
BLACK
  6
Continuous
100
AcDbLine
 10
74.555505
 20
-14.810794
 30
0.0
 11
64.236047
 21
-12.617325
 31
0.0
  0
LINE
  5
50B
330
1D
100
AcDbEntity
  8
BLACK
  6
Continuous
100
AcDbLine
 10
71.62395
 20
-28.602675
 30
0.0
 11
61.30449299999999
 21
-26.409206
 31
0.0
  0
LINE
  5
50C
330
1D
100
AcDbEntity
  8
BLACK
  6
Continuous
100
AcDbLine
 10
76.153745
 20
-17.271867
 30
0.0
 11
74.08502299999999
 21
-27.004435
 31
0.0
  0
ARC
  5
50D
330
1D
100
AcDbEntity
  8
BLACK
100
AcDbCircle
 10
63.804634
 20
-14.646986
 30
0.0
 40
2.075003550725155
100
AcDbArc
 50
78.00012866
 51
167.9999011
  0
ARC
  5
50E
330
1D
100
AcDbEntity
  8
BLACK
100
AcDbCircle
 10
61.735912
 20
-24.379549
 30
0.0
 40
2.075001178604484
100
AcDbArc
 50
168.00006316
 51
257.9999436399999
  0
ARC
  5
50F
330
1D
100
AcDbEntity
  8
BLACK
100
AcDbCircle
 10
74.124088
 20
-16.84045
 30
0.0
 40
2.074999784632519
100
AcDbArc
 50
347.99999766
 51
77.99999192
  0
ARC
  5
510
330
1D
100
AcDbEntity
  8
BLACK
100
AcDbCircle
 10
72.05536699999999
 20
-26.573018
 30
0.0
 40
2.074999784632519
100
AcDbArc
 50
257.99999766
 51
347.99999192
  0
LINE
  5
511
330
1D
100
AcDbEntity
  8
BLACK
  6
Continuous
100
AcDbLine
 10
34.719999
 20
2.835002
 30
0.0
 11
34.719999
 21
-7.114999
 31
0.0
  0
LINE
  5
512
330
1D
100
AcDbEntity
  8
BLACK
  6
Continuous
100
AcDbLine
 10
47.344999
 20
4.910002
 30
0.0
 11
36.794998
 21
4.910002
 31
0.0
  0
LINE
  5
513
330
1D
100
AcDbEntity
  8
BLACK
  6
Continuous
100
AcDbLine
 10
47.344999
 20
-9.189998
 30
0.0
 11
36.794999
 21
-9.189998
 31
0.0
  0
LINE
  5
514
330
1D
100
AcDbEntity
  8
BLACK
  6
Continuous
100
AcDbLine
 10
49.419999
 20
2.835002
 30
0.0
 11
49.419999
 21
-7.114998
 31
0.0
  0
ARC
  5
515
330
1D
100
AcDbEntity
  8
BLACK
100
AcDbCircle
 10
36.795003
 20
2.834998
 30
0.0
 40
2.075004000003855
100
AcDbArc
 50
90.00013806
 51
179.99988955
  0
ARC
  5
516
330
1D
100
AcDbEntity
  8
BLACK
100
AcDbCircle
 10
36.795001
 20
-7.114996
 30
0.0
 40
2.075002000000964
100
AcDbArc
 50
180.00008284
 51
269.99994478
  0
ARC
  5
517
330
1D
100
AcDbEntity
  8
BLACK
100
AcDbCircle
 10
47.344999
 20
2.835002
 30
0.0
 40
2.075
100
AcDbArc
 50
0.0
 51
90.0
  0
ARC
  5
518
330
1D
100
AcDbEntity
  8
BLACK
100
AcDbCircle
 10
47.344999
 20
-7.114998
 30
0.0
 40
2.075
100
AcDbArc
 50
270.0
 51
0.0
  0
LINE
  5
519
330
1D
100
AcDbEntity
  8
BLACK
  6
Continuous
100
AcDbLine
 10
9.820029
 20
-35.264998
 30
0.0
 11
9.820029
 21
-45.214999
 31
0.0
  0
LINE
  5
51A
330
1D
100
AcDbEntity
  8
BLACK
  6
Continuous
100
AcDbLine
 10
27.207499
 20
-33.189998
 30
0.0
 11
11.895028
 21
-33.189998
 31
0.0
  0
LINE
  5
51B
330
1D
100
AcDbEntity
  8
BLACK
  6
Continuous
100
AcDbLine
 10
27.207499
 20
-47.289998
 30
0.0
 11
11.895029
 21
-47.289998
 31
0.0
  0
ARC
  5
51C
330
1D
100
AcDbEntity
  8
BLACK
100
AcDbCircle
 10
11.895031
 20
-45.214996
 30
0.0
 40
2.075002000000964
100
AcDbArc
 50
180.00008284
 51
269.99994478
  0
ARC
  5
51D
330
1D
100
AcDbEntity
  8
BLACK
100
AcDbCircle
 10
11.895033
 20
-35.265002
 30
0.0
 40
2.075004000003855
100
AcDbArc
 50
90.00013806
 51
179.99988955
  0
ARC
  5
51E
330
1D
100
AcDbEntity
  8
BLACK
100
AcDbCircle
 10
27.207499
 20
-45.214998
 30
0.0
 40
2.075
100
AcDbArc
 50
270.0
 51
0.0
  0
ARC
  5
51F
330
1D
100
AcDbEntity
  8
BLACK
100
AcDbCircle
 10
27.207499
 20
-35.264998
 30
0.0
 40
2.075
100
AcDbArc
 50
0.0
 51
90.0
  0
LINE
  5
520
330
1D
100
AcDbEntity
  8
BLACK
  6
Continuous
100
AcDbLine
 10
29.282499
 20
-35.264998
 30
0.0
 11
29.282499
 21
-45.214998
 31
0.0
  0
LINE
  5
521
330
1D
100
AcDbEntity
  8
BLACK
  6
Continuous
100
AcDbLine
 10
40.082499
 20
-16.214998
 30
0.0
 11
40.082499
 21
-26.164999
 31
0.0
  0
LINE
  5
522
330
1D
100
AcDbEntity
  8
BLACK
  6
Continuous
100
AcDbLine
 10
52.707499
 20
-14.139998
 30
0.0
 11
42.157498
 21
-14.139998
 31
0.0
  0
LINE
  5
523
330
1D
100
AcDbEntity
  8
BLACK
  6
Continuous
100
AcDbLine
 10
52.707499
 20
-28.239998
 30
0.0
 11
42.157499
 21
-28.239998
 31
0.0
  0
LINE
  5
524
330
1D
100
AcDbEntity
  8
BLACK
  6
Continuous
100
AcDbLine
 10
54.78249899999999
 20
-16.214998
 30
0.0
 11
54.78249899999999
 21
-26.164998
 31
0.0
  0
ARC
  5
525
330
1D
100
AcDbEntity
  8
BLACK
100
AcDbCircle
 10
42.157503
 20
-16.215002
 30
0.0
 40
2.075004000003855
100
AcDbArc
 50
90.00013806
 51
179.99988955
  0
ARC
  5
526
330
1D
100
AcDbEntity
  8
BLACK
100
AcDbCircle
 10
42.157501
 20
-26.164996
 30
0.0
 40
2.075002000000964
100
AcDbArc
 50
180.00008284
 51
269.99994478
  0
ARC
  5
527
330
1D
100
AcDbEntity
  8
BLACK
100
AcDbCircle
 10
52.707499
 20
-16.214998
 30
0.0
 40
2.075
100
AcDbArc
 50
0.0
 51
90.0
  0
ARC
  5
528
330
1D
100
AcDbEntity
  8
BLACK
100
AcDbCircle
 10
52.707499
 20
-26.164998
 30
0.0
 40
2.075
100
AcDbArc
 50
270.0
 51
0.0
  0
LINE
  5
529
330
1D
100
AcDbEntity
  8
BLACK
  6
Continuous
100
AcDbLine
 10
130.956111
 20
-9.447718
 30
0.0
 11
128.887389
 21
-19.180287
 31
0.0
  0
LINE
  5
52A
330
1D
100
AcDbEntity
  8
BLACK
  6
Continuous
100
AcDbLine
 10
143.736641
 20
-10.042947
 30
0.0
 11
133.417183
 21
-7.849478
 31
0.0
  0
LINE
  5
52B
330
1D
100
AcDbEntity
  8
BLACK
  6
Continuous
100
AcDbLine
 10
140.805086
 20
-23.834828
 30
0.0
 11
130.485629
 21
-21.641359
 31
0.0
  0
LINE
  5
52C
330
1D
100
AcDbEntity
  8
BLACK
  6
Continuous
100
AcDbLine
 10
145.334881
 20
-12.50402
 30
0.0
 11
143.266159
 21
-22.236588
 31
0.0
  0
ARC
  5
52D
330
1D
100
AcDbEntity
  8
BLACK
100
AcDbCircle
 10
132.98577
 20
-9.879139
 30
0.0
 40
2.075003550725155
100
AcDbArc
 50
78.00012866
 51
167.9999011
  0
ARC
  5
52E
330
1D
100
AcDbEntity
  8
BLACK
100
AcDbCircle
 10
130.917048
 20
-19.611702
 30
0.0
 40
2.075001178604484
100
AcDbArc
 50
168.00006316
 51
257.9999436399999
  0
ARC
  5
52F
330
1D
100
AcDbEntity
  8
BLACK
100
AcDbCircle
 10
143.305224
 20
-12.072603
 30
0.0
 40
2.074999784632519
100
AcDbArc
 50
347.99999766
 51
77.99999192
  0
ARC
  5
530
330
1D
100
AcDbEntity
  8
BLACK
100
AcDbCircle
 10
141.236503
 20
-21.805171
 30
0.0
 40
2.074999784632519
100
AcDbArc
 50
257.99999766
 51
347.99999192
  0
LINE
  5
531
330
1D
100
AcDbEntity
  8
BLACK
  6
Continuous
100
AcDbLine
 10
-11.51
 20
-14.074998
 30
0.0
 11
-11.51
 21
-24.024999
 31
0.0
  0
LINE
  5
532
330
1D
100
AcDbEntity
  8
BLACK
  6
Continuous
100
AcDbLine
 10
1.115
 20
-11.999998
 30
0.0
 11
-9.435001
 21
-11.999998
 31
0.0
  0
LINE
  5
533
330
1D
100
AcDbEntity
  8
BLACK
  6
Continuous
100
AcDbLine
 10
1.115
 20
-26.099998
 30
0.0
 11
-9.434999999999999
 21
-26.099998
 31
0.0
  0
LINE
  5
534
330
1D
100
AcDbEntity
  8
BLACK
  6
Continuous
100
AcDbLine
 10
3.19
 20
-14.074998
 30
0.0
 11
3.19
 21
-24.024998
 31
0.0
  0
ARC
  5
535
330
1D
100
AcDbEntity
  8
BLACK
100
AcDbCircle
 10
-9.434996
 20
-14.075002
 30
0.0
 40
2.075004000003855
100
AcDbArc
 50
90.00013806
 51
179.99988955
  0
ARC
  5
536
330
1D
100
AcDbEntity
  8
BLACK
100
AcDbCircle
 10
-9.434998
 20
-24.024996
 30
0.0
 40
2.075002000000964
100
AcDbArc
 50
180.00008284
 51
269.99994478
  0
ARC
  5
537
330
1D
100
AcDbEntity
  8
BLACK
100
AcDbCircle
 10
1.115
 20
-14.074998
 30
0.0
 40
2.075
100
AcDbArc
 50
0.0
 51
90.0
  0
ARC
  5
538
330
1D
100
AcDbEntity
  8
BLACK
100
AcDbCircle
 10
1.115
 20
-24.024998
 30
0.0
 40
2.075
100
AcDbArc
 50
270.0
 51
0.0
  0
LINE
  5
539
330
1D
100
AcDbEntity
  8
BLACK
  6
Continuous
100
AcDbLine
 10
117.676111
 20
-26.097718
 30
0.0
 11
115.607389
 21
-35.830287
 31
0.0
  0
LINE
  5
53A
330
1D
100
AcDbEntity
  8
BLACK
  6
Continuous
100
AcDbLine
 10
130.456641
 20
-26.692947
 30
0.0
 11
120.137183
 21
-24.499478
 31
0.0
  0
LINE
  5
53B
330
1D
100
AcDbEntity
  8
BLACK
  6
Continuous
100
AcDbLine
 10
127.525086
 20
-40.484828
 30
0.0
 11
117.205629
 21
-38.291359
 31
0.0
  0
LINE
  5
53C
330
1D
100
AcDbEntity
  8
BLACK
  6
Continuous
100
AcDbLine
 10
132.054881
 20
-29.15402
 30
0.0
 11
129.986159
 21
-38.886588
 31
0.0
  0
ARC
  5
53D
330
1D
100
AcDbEntity
  8
BLACK
100
AcDbCircle
 10
119.70577
 20
-26.529139
 30
0.0
 40
2.075003550725155
100
AcDbArc
 50
78.00012866
 51
167.9999011
  0
ARC
  5
53E
330
1D
100
AcDbEntity
  8
BLACK
100
AcDbCircle
 10
117.637048
 20
-36.261702
 30
0.0
 40
2.075001178604484
100
AcDbArc
 50
168.00006316
 51
257.9999436399999
  0
ARC
  5
53F
330
1D
100
AcDbEntity
  8
BLACK
100
AcDbCircle
 10
130.025224
 20
-28.722603
 30
0.0
 40
2.074999784632519
100
AcDbArc
 50
347.99999766
 51
77.99999192
  0
ARC
  5
540
330
1D
100
AcDbEntity
  8
BLACK
100
AcDbCircle
 10
127.956503
 20
-38.455171
 30
0.0
 40
2.074999784632519
100
AcDbArc
 50
257.99999766
 51
347.99999192
  0
LINE
  5
541
330
1D
100
AcDbEntity
  8
BLACK
  6
Continuous
100
AcDbLine
 10
99.04239899999999
 20
-22.137
 30
0.0
 11
96.973677
 21
-31.869569
 31
0.0
  0
LINE
  5
542
330
1D
100
AcDbEntity
  8
BLACK
  6
Continuous
100
AcDbLine
 10
111.822929
 20
-22.732229
 30
0.0
 11
101.503471
 21
-20.53876
 31
0.0
  0
LINE
  5
543
330
1D
100
AcDbEntity
  8
BLACK
  6
Continuous
100
AcDbLine
 10
108.891374
 20
-36.52411
 30
0.0
 11
98.571917
 21
-34.330641
 31
0.0
  0
LINE
  5
544
330
1D
100
AcDbEntity
  8
BLACK
  6
Continuous
100
AcDbLine
 10
113.421169
 20
-25.193302
 30
0.0
 11
111.352447
 21
-34.92587
 31
0.0
  0
ARC
  5
545
330
1D
100
AcDbEntity
  8
BLACK
100
AcDbCircle
 10
101.072058
 20
-22.568421
 30
0.0
 40
2.075003550725155
100
AcDbArc
 50
78.00012866
 51
167.9999011
  0
ARC
  5
546
330
1D
100
AcDbEntity
  8
BLACK
100
AcDbCircle
 10
99.00333599999999
 20
-32.300984
 30
0.0
 40
2.075001178604484
100
AcDbArc
 50
168.00006316
 51
257.9999436399999
  0
ARC
  5
547
330
1D
100
AcDbEntity
  8
BLACK
100
AcDbCircle
 10
111.391512
 20
-24.761885
 30
0.0
 40
2.074999784632519
100
AcDbArc
 50
347.99999766
 51
77.99999192
  0
ARC
  5
548
330
1D
100
AcDbEntity
  8
BLACK
100
AcDbCircle
 10
109.322791
 20
-34.494453
 30
0.0
 40
2.074999784632519
100
AcDbArc
 50
257.99999766
 51
347.99999192
  0
LINE
  5
549
330
1D
100
AcDbEntity
  8
BLACK
  6
Continuous
100
AcDbLine
 10
-15.579999
 20
-33.124998
 30
0.0
 11
-15.579999
 21
-43.074999
 31
0.0
  0
LINE
  5
54A
330
1D
100
AcDbEntity
  8
BLACK
  6
Continuous
100
AcDbLine
 10
-2.954999
 20
-31.049998
 30
0.0
 11
-13.505
 21
-31.049998
 31
0.0
  0
LINE
  5
54B
330
1D
100
AcDbEntity
  8
BLACK
  6
Continuous
100
AcDbLine
 10
-2.954999
 20
-45.149998
 30
0.0
 11
-13.504999
 21
-45.149998
 31
0.0
  0
LINE
  5
54C
330
1D
100
AcDbEntity
  8
BLACK
  6
Continuous
100
AcDbLine
 10
-0.879999
 20
-33.124998
 30
0.0
 11
-0.879999
 21
-43.074998
 31
0.0
  0
ARC
  5
54D
330
1D
100
AcDbEntity
  8
BLACK
100
AcDbCircle
 10
-13.504995
 20
-33.12500199999999
 30
0.0
 40
2.075004000003855
100
AcDbArc
 50
90.00013806
 51
179.99988955
  0
ARC
  5
54E
330
1D
100
AcDbEntity
  8
BLACK
100
AcDbCircle
 10
-13.504997
 20
-43.074996
 30
0.0
 40
2.075002000000964
100
AcDbArc
 50
180.00008284
 51
269.99994478
  0
ARC
  5
54F
330
1D
100
AcDbEntity
  8
BLACK
100
AcDbCircle
 10
-2.954999
 20
-33.124998
 30
0.0
 40
2.075
100
AcDbArc
 50
0.0
 51
90.0
  0
ARC
  5
550
330
1D
100
AcDbEntity
  8
BLACK
100
AcDbCircle
 10
-2.954999
 20
-43.074998
 30
0.0
 40
2.075
100
AcDbArc
 50
270.0
 51
0.0
  0
LINE
  5
551
330
1D
100
AcDbEntity
  8
BLACK
  6
Continuous
100
AcDbLine
 10
118.376111
 20
-45.727718
 30
0.0
 11
116.307389
 21
-55.460287
 31
0.0
  0
LINE
  5
552
330
1D
100
AcDbEntity
  8
BLACK
  6
Continuous
100
AcDbLine
 10
131.156641
 20
-46.322947
 30
0.0
 11
120.837183
 21
-44.129478
 31
0.0
  0
LINE
  5
553
330
1D
100
AcDbEntity
  8
BLACK
  6
Continuous
100
AcDbLine
 10
128.225086
 20
-60.114828
 30
0.0
 11
117.905629
 21
-57.921359
 31
0.0
  0
LINE
  5
554
330
1D
100
AcDbEntity
  8
BLACK
  6
Continuous
100
AcDbLine
 10
132.754881
 20
-48.78402
 30
0.0
 11
130.686159
 21
-58.516588
 31
0.0
  0
ARC
  5
555
330
1D
100
AcDbEntity
  8
BLACK
100
AcDbCircle
 10
120.40577
 20
-46.159139
 30
0.0
 40
2.075003550725155
100
AcDbArc
 50
78.00012866
 51
167.9999011
  0
ARC
  5
556
330
1D
100
AcDbEntity
  8
BLACK
100
AcDbCircle
 10
118.337048
 20
-55.891702
 30
0.0
 40
2.075001178604484
100
AcDbArc
 50
168.00006316
 51
257.9999436399999
  0
ARC
  5
557
330
1D
100
AcDbEntity
  8
BLACK
100
AcDbCircle
 10
130.725224
 20
-48.35260299999999
 30
0.0
 40
2.074999784632519
100
AcDbArc
 50
347.99999766
 51
77.99999192
  0
ARC
  5
558
330
1D
100
AcDbEntity
  8
BLACK
100
AcDbCircle
 10
128.656503
 20
-58.085171
 30
0.0
 40
2.074999784632519
100
AcDbArc
 50
257.99999766
 51
347.99999192
  0
LINE
  5
559
330
1D
100
AcDbEntity
  8
BLACK
  6
Continuous
100
AcDbLine
 10
93.688687
 20
-1.526282
 30
0.0
 11
91.619965
 21
-11.258851
 31
0.0
  0
LINE
  5
55A
330
1D
100
AcDbEntity
  8
BLACK
  6
Continuous
100
AcDbLine
 10
106.469217
 20
-2.121511
 30
0.0
 11
96.14975899999999
 21
0.071958
 31
0.0
  0
LINE
  5
55B
330
1D
100
AcDbEntity
  8
BLACK
  6
Continuous
100
AcDbLine
 10
103.537662
 20
-15.913392
 30
0.0
 11
93.218205
 21
-13.719923
 31
0.0
  0
LINE
  5
55C
330
1D
100
AcDbEntity
  8
BLACK
  6
Continuous
100
AcDbLine
 10
108.067457
 20
-4.582584
 30
0.0
 11
105.998735
 21
-14.315152
 31
0.0
  0
ARC
  5
55D
330
1D
100
AcDbEntity
  8
BLACK
100
AcDbCircle
 10
95.718346
 20
-1.957703
 30
0.0
 40
2.075003550725155
100
AcDbArc
 50
78.00012866
 51
167.9999011
  0
ARC
  5
55E
330
1D
100
AcDbEntity
  8
BLACK
100
AcDbCircle
 10
93.649624
 20
-11.690266
 30
0.0
 40
2.075001178604484
100
AcDbArc
 50
168.00006316
 51
257.9999436399999
  0
ARC
  5
55F
330
1D
100
AcDbEntity
  8
BLACK
100
AcDbCircle
 10
106.0378
 20
-4.151167
 30
0.0
 40
2.074999784632519
100
AcDbArc
 50
347.99999766
 51
77.99999192
  0
ARC
  5
560
330
1D
100
AcDbEntity
  8
BLACK
100
AcDbCircle
 10
103.969079
 20
-13.883735
 30
0.0
 40
2.074999784632519
100
AcDbArc
 50
257.99999766
 51
347.99999192
  0
LINE
  5
561
330
1D
100
AcDbEntity
  8
BLACK
  6
Continuous
100
AcDbLine
 10
62.474975
 20
-33.845565
 30
0.0
 11
60.406253
 21
-43.578134
 31
0.0
  0
LINE
  5
562
330
1D
100
AcDbEntity
  8
BLACK
  6
Continuous
100
AcDbLine
 10
75.255505
 20
-34.440794
 30
0.0
 11
64.936047
 21
-32.247325
 31
0.0
  0
LINE
  5
563
330
1D
100
AcDbEntity
  8
BLACK
  6
Continuous
100
AcDbLine
 10
72.32395
 20
-48.232675
 30
0.0
 11
62.004493
 21
-46.039206
 31
0.0
  0
LINE
  5
564
330
1D
100
AcDbEntity
  8
BLACK
  6
Continuous
100
AcDbLine
 10
76.853745
 20
-36.901867
 30
0.0
 11
74.785023
 21
-46.634435
 31
0.0
  0
ARC
  5
565
330
1D
100
AcDbEntity
  8
BLACK
100
AcDbCircle
 10
64.504634
 20
-34.276986
 30
0.0
 40
2.075003550725155
100
AcDbArc
 50
78.00012866
 51
167.9999011
  0
ARC
  5
566
330
1D
100
AcDbEntity
  8
BLACK
100
AcDbCircle
 10
62.43591199999999
 20
-44.009549
 30
0.0
 40
2.075001178604484
100
AcDbArc
 50
168.00006316
 51
257.9999436399999
  0
ARC
  5
567
330
1D
100
AcDbEntity
  8
BLACK
100
AcDbCircle
 10
74.824088
 20
-36.47045
 30
0.0
 40
2.074999784632519
100
AcDbArc
 50
347.99999766
 51
77.99999192
  0
ARC
  5
568
330
1D
100
AcDbEntity
  8
BLACK
100
AcDbCircle
 10
72.75536699999999
 20
-46.203018
 30
0.0
 40
2.074999784632519
100
AcDbArc
 50
257.99999766
 51
347.99999192
  0
LINE
  5
569
330
1D
100
AcDbEntity
  8
BLACK
  6
Continuous
100
AcDbLine
 10
40.776249
 20
-35.264998
 30
0.0
 11
40.776249
 21
-45.214999
 31
0.0
  0
LINE
  5
56A
330
1D
100
AcDbEntity
  8
BLACK
  6
Continuous
100
AcDbLine
 10
53.401249
 20
-33.189998
 30
0.0
 11
42.851248
 21
-33.189998
 31
0.0
  0
LINE
  5
56B
330
1D
100
AcDbEntity
  8
BLACK
  6
Continuous
100
AcDbLine
 10
53.401249
 20
-47.289998
 30
0.0
 11
42.851249
 21
-47.289998
 31
0.0
  0
LINE
  5
56C
330
1D
100
AcDbEntity
  8
BLACK
  6
Continuous
100
AcDbLine
 10
55.476249
 20
-35.264998
 30
0.0
 11
55.476249
 21
-45.214998
 31
0.0
  0
ARC
  5
56D
330
1D
100
AcDbEntity
  8
BLACK
100
AcDbCircle
 10
42.851253
 20
-35.265002
 30
0.0
 40
2.075004000003855
100
AcDbArc
 50
90.00013806
 51
179.99988955
  0
ARC
  5
56E
330
1D
100
AcDbEntity
  8
BLACK
100
AcDbCircle
 10
42.851251
 20
-45.214996
 30
0.0
 40
2.075002000000964
100
AcDbArc
 50
180.00008284
 51
269.99994478
  0
ARC
  5
56F
330
1D
100
AcDbEntity
  8
BLACK
100
AcDbCircle
 10
53.401249
 20
-35.264998
 30
0.0
 40
2.075
100
AcDbArc
 50
0.0
 51
90.0
  0
ARC
  5
570
330
1D
100
AcDbEntity
  8
BLACK
100
AcDbCircle
 10
53.401249
 20
-45.214998
 30
0.0
 40
2.075
100
AcDbArc
 50
270.0
 51
0.0
  0
LINE
  5
571
330
1D
100
AcDbEntity
  8
BLACK
  6
Continuous
100
AcDbLine
 10
105.092399
 20
-62.377
 30
0.0
 11
103.023677
 21
-72.109569
 31
0.0
  0
LINE
  5
572
330
1D
100
AcDbEntity
  8
BLACK
  6
Continuous
100
AcDbLine
 10
117.872929
 20
-62.972229
 30
0.0
 11
107.553471
 21
-60.77876
 31
0.0
  0
LINE
  5
573
330
1D
100
AcDbEntity
  8
BLACK
  6
Continuous
100
AcDbLine
 10
114.941374
 20
-76.76411
 30
0.0
 11
104.621917
 21
-74.570641
 31
0.0
  0
LINE
  5
574
330
1D
100
AcDbEntity
  8
BLACK
  6
Continuous
100
AcDbLine
 10
119.471169
 20
-65.433302
 30
0.0
 11
117.402447
 21
-75.16587
 31
0.0
  0
ARC
  5
575
330
1D
100
AcDbEntity
  8
BLACK
100
AcDbCircle
 10
107.122058
 20
-62.808421
 30
0.0
 40
2.075003550725155
100
AcDbArc
 50
78.00012866
 51
167.9999011
  0
ARC
  5
576
330
1D
100
AcDbEntity
  8
BLACK
100
AcDbCircle
 10
105.053336
 20
-72.540984
 30
0.0
 40
2.075001178604484
100
AcDbArc
 50
168.00006316
 51
257.9999436399999
  0
ARC
  5
577
330
1D
100
AcDbEntity
  8
BLACK
100
AcDbCircle
 10
117.441512
 20
-65.001885
 30
0.0
 40
2.074999784632519
100
AcDbArc
 50
347.99999766
 51
77.99999192
  0
ARC
  5
578
330
1D
100
AcDbEntity
  8
BLACK
100
AcDbCircle
 10
115.372791
 20
-74.734453
 30
0.0
 40
2.074999784632519
100
AcDbArc
 50
257.99999766
 51
347.99999192
  0
LINE
  5
579
330
1D
100
AcDbEntity
  8
BLACK
  6
Continuous
100
AcDbLine
 10
53.35999899999999
 20
4.975001
 30
0.0
 11
53.35999899999999
 21
-4.975
 31
0.0
  0
LINE
  5
57A
330
1D
100
AcDbEntity
  8
BLACK
  6
Continuous
100
AcDbLine
 10
65.984999
 20
7.050001
 30
0.0
 11
55.434998
 21
7.050001
 31
0.0
  0
LINE
  5
57B
330
1D
100
AcDbEntity
  8
BLACK
  6
Continuous
100
AcDbLine
 10
65.984999
 20
-7.049999
 30
0.0
 11
55.434999
 21
-7.049999
 31
0.0
  0
LINE
  5
57C
330
1D
100
AcDbEntity
  8
BLACK
  6
Continuous
100
AcDbLine
 10
68.05999899999999
 20
4.975001
 30
0.0
 11
68.05999899999999
 21
-4.974999
 31
0.0
  0
ARC
  5
57D
330
1D
100
AcDbEntity
  8
BLACK
100
AcDbCircle
 10
55.43500299999999
 20
4.974997
 30
0.0
 40
2.075004000003855
100
AcDbArc
 50
90.00013806
 51
179.99988955
  0
ARC
  5
57E
330
1D
100
AcDbEntity
  8
BLACK
100
AcDbCircle
 10
55.435001
 20
-4.974997
 30
0.0
 40
2.075002000000964
100
AcDbArc
 50
180.00008284
 51
269.99994478
  0
ARC
  5
57F
330
1D
100
AcDbEntity
  8
BLACK
100
AcDbCircle
 10
65.984999
 20
4.975001
 30
0.0
 40
2.075
100
AcDbArc
 50
0.0
 51
90.0
  0
ARC
  5
580
330
1D
100
AcDbEntity
  8
BLACK
100
AcDbCircle
 10
65.984999
 20
-4.974999
 30
0.0
 40
2.075
100
AcDbArc
 50
270.0
 51
0.0
  0
LINE
  5
581
330
1D
100
AcDbEntity
  8
BLACK
  6
Continuous
100
AcDbLine
 10
75.054975
 20
2.434435
 30
0.0
 11
72.98625299999999
 21
-7.298133999999999
 31
0.0
  0
LINE
  5
582
330
1D
100
AcDbEntity
  8
BLACK
  6
Continuous
100
AcDbLine
 10
87.835505
 20
1.839206
 30
0.0
 11
77.516047
 21
4.032675
 31
0.0
  0
LINE
  5
583
330
1D
100
AcDbEntity
  8
BLACK
  6
Continuous
100
AcDbLine
 10
84.90395
 20
-11.952675
 30
0.0
 11
74.584493
 21
-9.759205999999999
 31
0.0
  0
LINE
  5
584
330
1D
100
AcDbEntity
  8
BLACK
  6
Continuous
100
AcDbLine
 10
89.433745
 20
-0.621867
 30
0.0
 11
87.365023
 21
-10.354435
 31
0.0
  0
ARC
  5
585
330
1D
100
AcDbEntity
  8
BLACK
100
AcDbCircle
 10
77.084634
 20
2.003014
 30
0.0
 40
2.075003550725155
100
AcDbArc
 50
78.00012866
 51
167.9999011
  0
ARC
  5
586
330
1D
100
AcDbEntity
  8
BLACK
100
AcDbCircle
 10
75.015912
 20
-7.729549
 30
0.0
 40
2.075001178604484
100
AcDbArc
 50
168.00006316
 51
257.9999436399999
  0
ARC
  5
587
330
1D
100
AcDbEntity
  8
BLACK
100
AcDbCircle
 10
87.404088
 20
-0.19045
 30
0.0
 40
2.074999784632519
100
AcDbArc
 50
347.99999766
 51
77.99999192
  0
ARC
  5
588
330
1D
100
AcDbEntity
  8
BLACK
100
AcDbCircle
 10
85.33536699999999
 20
-9.923017999999999
 30
0.0
 40
2.074999784632519
100
AcDbArc
 50
257.99999766
 51
347.99999192
  0
LINE
  5
589
330
1D
100
AcDbEntity
  8
BLACK
  6
Continuous
100
AcDbLine
 10
86.458687
 20
-58.416282
 30
0.0
 11
84.38996499999999
 21
-68.148851
 31
0.0
  0
LINE
  5
58A
330
1D
100
AcDbEntity
  8
BLACK
  6
Continuous
100
AcDbLine
 10
99.239217
 20
-59.011511
 30
0.0
 11
88.919759
 21
-56.818042
 31
0.0
  0
LINE
  5
58B
330
1D
100
AcDbEntity
  8
BLACK
  6
Continuous
100
AcDbLine
 10
96.307662
 20
-72.803392
 30
0.0
 11
85.988205
 21
-70.609923
 31
0.0
  0
LINE
  5
58C
330
1D
100
AcDbEntity
  8
BLACK
  6
Continuous
100
AcDbLine
 10
100.837457
 20
-61.472584
 30
0.0
 11
98.76873499999999
 21
-71.205152
 31
0.0
  0
ARC
  5
58D
330
1D
100
AcDbEntity
  8
BLACK
100
AcDbCircle
 10
88.48834599999999
 20
-58.847703
 30
0.0
 40
2.075003550725155
100
AcDbArc
 50
78.00012866
 51
167.9999011
  0
ARC
  5
58E
330
1D
100
AcDbEntity
  8
BLACK
100
AcDbCircle
 10
86.419624
 20
-68.580266
 30
0.0
 40
2.075001178604484
100
AcDbArc
 50
168.00006316
 51
257.9999436399999
  0
ARC
  5
58F
330
1D
100
AcDbEntity
  8
BLACK
100
AcDbCircle
 10
98.8078
 20
-61.04116699999999
 30
0.0
 40
2.074999784632519
100
AcDbArc
 50
347.99999766
 51
77.99999192
  0
ARC
  5
590
330
1D
100
AcDbEntity
  8
BLACK
100
AcDbCircle
 10
96.73907899999999
 20
-70.773735
 30
0.0
 40
2.074999784632519
100
AcDbArc
 50
257.99999766
 51
347.99999192
  0
LINE
  5
591
330
1D
100
AcDbEntity
  8
BLACK
  6
Continuous
100
AcDbLine
 10
-7.35
 20
4.975001
 30
0.0
 11
-7.35
 21
-4.975
 31
0.0
  0
LINE
  5
592
330
1D
100
AcDbEntity
  8
BLACK
  6
Continuous
100
AcDbLine
 10
5.274999999999999
 20
7.050001
 30
0.0
 11
-5.275001
 21
7.050001
 31
0.0
  0
LINE
  5
593
330
1D
100
AcDbEntity
  8
BLACK
  6
Continuous
100
AcDbLine
 10
5.274999999999999
 20
-7.049999
 30
0.0
 11
-5.274999999999999
 21
-7.049999
 31
0.0
  0
LINE
  5
594
330
1D
100
AcDbEntity
  8
BLACK
  6
Continuous
100
AcDbLine
 10
7.35
 20
4.975001
 30
0.0
 11
7.35
 21
-4.974999
 31
0.0
  0
ARC
  5
595
330
1D
100
AcDbEntity
  8
BLACK
100
AcDbCircle
 10
-5.274996
 20
4.974997
 30
0.0
 40
2.075004000003855
100
AcDbArc
 50
90.00013806
 51
179.99988955
  0
ARC
  5
596
330
1D
100
AcDbEntity
  8
BLACK
100
AcDbCircle
 10
-5.274998
 20
-4.974997
 30
0.0
 40
2.075002000000964
100
AcDbArc
 50
180.00008284
 51
269.99994478
  0
ARC
  5
597
330
1D
100
AcDbEntity
  8
BLACK
100
AcDbCircle
 10
5.274999999999999
 20
4.975001
 30
0.0
 40
2.075
100
AcDbArc
 50
0.0
 51
90.0
  0
ARC
  5
598
330
1D
100
AcDbEntity
  8
BLACK
100
AcDbCircle
 10
5.274999999999999
 20
-4.974999
 30
0.0
 40
2.075
100
AcDbArc
 50
270.0
 51
0.0
  0
LINE
  5
599
330
1D
100
AcDbEntity
  8
BLACK
  6
Continuous
100
AcDbLine
 10
123.726111
 20
-66.337718
 30
0.0
 11
121.657389
 21
-76.070287
 31
0.0
  0
LINE
  5
59A
330
1D
100
AcDbEntity
  8
BLACK
  6
Continuous
100
AcDbLine
 10
136.506641
 20
-66.932947
 30
0.0
 11
126.187183
 21
-64.73947799999999
 31
0.0
  0
LINE
  5
59B
330
1D
100
AcDbEntity
  8
BLACK
  6
Continuous
100
AcDbLine
 10
133.575086
 20
-80.724828
 30
0.0
 11
123.255629
 21
-78.531359
 31
0.0
  0
LINE
  5
59C
330
1D
100
AcDbEntity
  8
BLACK
  6
Continuous
100
AcDbLine
 10
138.104881
 20
-69.39402
 30
0.0
 11
136.036159
 21
-79.126588
 31
0.0
  0
ARC
  5
59D
330
1D
100
AcDbEntity
  8
BLACK
100
AcDbCircle
 10
125.75577
 20
-66.769139
 30
0.0
 40
2.075003550725155
100
AcDbArc
 50
78.00012866
 51
167.9999011
  0
ARC
  5
59E
330
1D
100
AcDbEntity
  8
BLACK
100
AcDbCircle
 10
123.687048
 20
-76.501702
 30
0.0
 40
2.075001178604484
100
AcDbArc
 50
168.00006316
 51
257.9999436399999
  0
ARC
  5
59F
330
1D
100
AcDbEntity
  8
BLACK
100
AcDbCircle
 10
136.075224
 20
-68.962603
 30
0.0
 40
2.074999784632519
100
AcDbArc
 50
347.99999766
 51
77.99999192
  0
ARC
  5
5A0
330
1D
100
AcDbEntity
  8
BLACK
100
AcDbCircle
 10
134.006503
 20
-78.695171
 30
0.0
 40
2.074999784632519
100
AcDbArc
 50
257.99999766
 51
347.99999192
  0
LINE
  5
5A1
330
1D
100
AcDbEntity
  8
BLACK
  6
Continuous
100
AcDbLine
 10
252.949999
 20
2.835001
 30
0.0
 11
252.949999
 21
-7.114999999999999
 31
0.0
  0
LINE
  5
5A2
330
1D
100
AcDbEntity
  8
BLACK
  6
Continuous
100
AcDbLine
 10
265.574999
 20
4.910000999999999
 30
0.0
 11
255.024998
 21
4.910000999999999
 31
0.0
  0
LINE
  5
5A3
330
1D
100
AcDbEntity
  8
BLACK
  6
Continuous
100
AcDbLine
 10
265.574999
 20
-9.189999
 30
0.0
 11
255.024999
 21
-9.189999
 31
0.0
  0
LINE
  5
5A4
330
1D
100
AcDbEntity
  8
BLACK
  6
Continuous
100
AcDbLine
 10
267.649999
 20
2.835001
 30
0.0
 11
267.649999
 21
-7.114999
 31
0.0
  0
ARC
  5
5A5
330
1D
100
AcDbEntity
  8
BLACK
100
AcDbCircle
 10
255.025003
 20
2.834997
 30
0.0
 40
2.075004000003855
100
AcDbArc
 50
90.00013806
 51
179.99988955
  0
ARC
  5
5A6
330
1D
100
AcDbEntity
  8
BLACK
100
AcDbCircle
 10
255.025001
 20
-7.114997
 30
0.0
 40
2.075002000000964
100
AcDbArc
 50
180.00008284
 51
269.99994478
  0
ARC
  5
5A7
330
1D
100
AcDbEntity
  8
BLACK
100
AcDbCircle
 10
265.574999
 20
2.835001
 30
0.0
 40
2.075
100
AcDbArc
 50
0.0
 51
90.0
  0
ARC
  5
5A8
330
1D
100
AcDbEntity
  8
BLACK
100
AcDbCircle
 10
265.574999
 20
-7.114999
 30
0.0
 40
2.075
100
AcDbArc
 50
270.0
 51
0.0
  0
LINE
  5
5A9
330
1D
100
AcDbEntity
  8
BLACK
  6
Continuous
100
AcDbLine
 10
215.656253
 20
-77.50186599999999
 30
0.0
 11
217.724975
 21
-87.23443499999999
 31
0.0
  0
LINE
  5
5AA
330
1D
100
AcDbEntity
  8
BLACK
  6
Continuous
100
AcDbLine
 10
227.57395
 20
-72.847324
 30
0.0
 11
217.254492
 21
-75.040793
 31
0.0
  0
LINE
  5
5AB
330
1D
100
AcDbEntity
  8
BLACK
  6
Continuous
100
AcDbLine
 10
230.505505
 20
-86.63920499999999
 30
0.0
 11
220.186048
 21
-88.832674
 31
0.0
  0
LINE
  5
5AC
330
1D
100
AcDbEntity
  8
BLACK
  6
Continuous
100
AcDbLine
 10
230.035023
 20
-74.44556399999999
 30
0.0
 11
232.103745
 21
-84.17813199999999
 31
0.0
  0
ARC
  5
5AD
330
1D
100
AcDbEntity
  8
BLACK
100
AcDbCircle
 10
217.685914
 20
-77.070452
 30
0.0
 40
2.075004051638695
100
AcDbArc
 50
102.0001259
 51
191.99989835
  0
ARC
  5
5AE
330
1D
100
AcDbEntity
  8
BLACK
100
AcDbCircle
 10
219.754633
 20
-86.803015
 30
0.0
 40
2.075002303253179
100
AcDbArc
 50
192.00007763
 51
281.99993684
  0
ARC
  5
5AF
330
1D
100
AcDbEntity
  8
BLACK
100
AcDbCircle
 10
228.005367
 20
-74.876981
 30
0.0
 40
2.075000762780101
100
AcDbArc
 50
12.00000808
 51
102.00000234
  0
ARC
  5
5B0
330
1D
100
AcDbEntity
  8
BLACK
100
AcDbCircle
 10
230.074088
 20
-84.609549
 30
0.0
 40
2.075000762780101
100
AcDbArc
 50
282.00000808
 51
12.00000234
  0
LINE
  5
5B1
330
1D
100
AcDbEntity
  8
BLACK
  6
Continuous
100
AcDbLine
 10
178.93883
 20
-44.823301
 30
0.0
 11
181.007552
 21
-54.55587
 31
0.0
  0
LINE
  5
5B2
330
1D
100
AcDbEntity
  8
BLACK
  6
Continuous
100
AcDbLine
 10
190.856527
 20
-40.168759
 30
0.0
 11
180.537069
 21
-42.36222799999999
 31
0.0
  0
LINE
  5
5B3
330
1D
100
AcDbEntity
  8
BLACK
  6
Continuous
100
AcDbLine
 10
193.788082
 20
-53.96064
 30
0.0
 11
183.468625
 21
-56.154109
 31
0.0
  0
LINE
  5
5B4
330
1D
100
AcDbEntity
  8
BLACK
  6
Continuous
100
AcDbLine
 10
193.3176
 20
-41.766999
 30
0.0
 11
195.386322
 21
-51.499567
 31
0.0
  0
ARC
  5
5B5
330
1D
100
AcDbEntity
  8
BLACK
100
AcDbCircle
 10
180.968491
 20
-44.391887
 30
0.0
 40
2.075004051638695
100
AcDbArc
 50
102.0001259
 51
191.99989835
  0
ARC
  5
5B6
330
1D
100
AcDbEntity
  8
BLACK
100
AcDbCircle
 10
183.03721
 20
-54.12445
 30
0.0
 40
2.075002303253179
100
AcDbArc
 50
192.00007763
 51
281.99993684
  0
ARC
  5
5B7
330
1D
100
AcDbEntity
  8
BLACK
100
AcDbCircle
 10
191.287944
 20
-42.19841599999999
 30
0.0
 40
2.075000762780101
100
AcDbArc
 50
12.00000808
 51
102.00000234
  0
ARC
  5
5B8
330
1D
100
AcDbEntity
  8
BLACK
100
AcDbCircle
 10
193.356665
 20
-51.930984
 30
0.0
 40
2.075000762780101
100
AcDbArc
 50
282.00000808
 51
12.00000234
  0
LINE
  5
5B9
330
1D
100
AcDbEntity
  8
BLACK
  6
Continuous
100
AcDbLine
 10
197.572542
 20
-40.862583
 30
0.0
 11
199.641264
 21
-50.595152
 31
0.0
  0
LINE
  5
5BA
330
1D
100
AcDbEntity
  8
BLACK
  6
Continuous
100
AcDbLine
 10
209.490239
 20
-36.208041
 30
0.0
 11
199.170781
 21
-38.40151
 31
0.0
  0
LINE
  5
5BB
330
1D
100
AcDbEntity
  8
BLACK
  6
Continuous
100
AcDbLine
 10
212.421794
 20
-49.999922
 30
0.0
 11
202.102337
 21
-52.193391
 31
0.0
  0
LINE
  5
5BC
330
1D
100
AcDbEntity
  8
BLACK
  6
Continuous
100
AcDbLine
 10
211.951312
 20
-37.806281
 30
0.0
 11
214.020034
 21
-47.538849
 31
0.0
  0
ARC
  5
5BD
330
1D
100
AcDbEntity
  8
BLACK
100
AcDbCircle
 10
199.602203
 20
-40.431169
 30
0.0
 40
2.075004051638695
100
AcDbArc
 50
102.0001259
 51
191.99989835
  0
ARC
  5
5BE
330
1D
100
AcDbEntity
  8
BLACK
100
AcDbCircle
 10
201.670922
 20
-50.163732
 30
0.0
 40
2.075002303253179
100
AcDbArc
 50
192.00007763
 51
281.99993684
  0
ARC
  5
5BF
330
1D
100
AcDbEntity
  8
BLACK
100
AcDbCircle
 10
209.921656
 20
-38.237698
 30
0.0
 40
2.075000762780101
100
AcDbArc
 50
12.00000808
 51
102.00000234
  0
ARC
  5
5C0
330
1D
100
AcDbEntity
  8
BLACK
100
AcDbCircle
 10
211.990377
 20
-47.970266
 30
0.0
 40
2.075000762780101
100
AcDbArc
 50
282.00000808
 51
12.00000234
  0
LINE
  5
5C1
330
1D
100
AcDbEntity
  8
BLACK
  6
Continuous
100
AcDbLine
 10
207.586254
 20
-19.251865
 30
0.0
 11
209.654976
 21
-28.984434
 31
0.0
  0
LINE
  5
5C2
330
1D
100
AcDbEntity
  8
BLACK
  6
Continuous
100
AcDbLine
 10
219.503951
 20
-14.597323
 30
0.0
 11
209.184493
 21
-16.790792
 31
0.0
  0
LINE
  5
5C3
330
1D
100
AcDbEntity
  8
BLACK
  6
Continuous
100
AcDbLine
 10
222.435506
 20
-28.389204
 30
0.0
 11
212.116049
 21
-30.582673
 31
0.0
  0
LINE
  5
5C4
330
1D
100
AcDbEntity
  8
BLACK
  6
Continuous
100
AcDbLine
 10
221.965024
 20
-16.195563
 30
0.0
 11
224.033746
 21
-25.928131
 31
0.0
  0
ARC
  5
5C5
330
1D
100
AcDbEntity
  8
BLACK
100
AcDbCircle
 10
209.615915
 20
-18.820451
 30
0.0
 40
2.075004051638695
100
AcDbArc
 50
102.0001259
 51
191.99989835
  0
ARC
  5
5C6
330
1D
100
AcDbEntity
  8
BLACK
100
AcDbCircle
 10
211.684634
 20
-28.553014
 30
0.0
 40
2.075002303253179
100
AcDbArc
 50
192.00007763
 51
281.99993684
  0
ARC
  5
5C7
330
1D
100
AcDbEntity
  8
BLACK
100
AcDbCircle
 10
219.935368
 20
-16.62698
 30
0.0
 40
2.075000762780101
100
AcDbArc
 50
12.00000808
 51
102.00000234
  0
ARC
  5
5C8
330
1D
100
AcDbEntity
  8
BLACK
100
AcDbCircle
 10
222.004089
 20
-26.359548
 30
0.0
 40
2.075000762780101
100
AcDbArc
 50
282.00000808
 51
12.00000234
  0
LINE
  5
5C9
330
1D
100
AcDbEntity
  8
BLACK
  6
Continuous
100
AcDbLine
 10
256.63
 20
-35.264999
 30
0.0
 11
256.63
 21
-45.215
 31
0.0
  0
LINE
  5
5CA
330
1D
100
AcDbEntity
  8
BLACK
  6
Continuous
100
AcDbLine
 10
269.255
 20
-33.189999
 30
0.0
 11
258.704999
 21
-33.189999
 31
0.0
  0
LINE
  5
5CB
330
1D
100
AcDbEntity
  8
BLACK
  6
Continuous
100
AcDbLine
 10
269.255
 20
-47.28999899999999
 30
0.0
 11
258.705
 21
-47.28999899999999
 31
0.0
  0
LINE
  5
5CC
330
1D
100
AcDbEntity
  8
BLACK
  6
Continuous
100
AcDbLine
 10
271.33
 20
-35.264999
 30
0.0
 11
271.33
 21
-45.214999
 31
0.0
  0
ARC
  5
5CD
330
1D
100
AcDbEntity
  8
BLACK
100
AcDbCircle
 10
258.705004
 20
-35.265003
 30
0.0
 40
2.075004000003855
100
AcDbArc
 50
90.00013806
 51
179.99988955
  0
ARC
  5
5CE
330
1D
100
AcDbEntity
  8
BLACK
100
AcDbCircle
 10
258.705002
 20
-45.214997
 30
0.0
 40
2.075002000000964
100
AcDbArc
 50
180.00008284
 51
269.99994478
  0
ARC
  5
5CF
330
1D
100
AcDbEntity
  8
BLACK
100
AcDbCircle
 10
269.255
 20
-35.264999
 30
0.0
 40
2.075
100
AcDbArc
 50
0.0
 51
90.0
  0
ARC
  5
5D0
330
1D
100
AcDbEntity
  8
BLACK
100
AcDbCircle
 10
269.255
 20
-45.214999
 30
0.0
 40
2.075
100
AcDbArc
 50
270.0
 51
0.0
  0
LINE
  5
5D1
330
1D
100
AcDbEntity
  8
BLACK
  6
Continuous
100
AcDbLine
 10
212.946253
 20
1.358134
 30
0.0
 11
215.014975
 21
-8.374435
 31
0.0
  0
LINE
  5
5D2
330
1D
100
AcDbEntity
  8
BLACK
  6
Continuous
100
AcDbLine
 10
224.86395
 20
6.012676
 30
0.0
 11
214.544492
 21
3.819207
 31
0.0
  0
LINE
  5
5D3
330
1D
100
AcDbEntity
  8
BLACK
  6
Continuous
100
AcDbLine
 10
227.795505
 20
-7.779204999999999
 30
0.0
 11
217.476048
 21
-9.972674
 31
0.0
  0
LINE
  5
5D4
330
1D
100
AcDbEntity
  8
BLACK
  6
Continuous
100
AcDbLine
 10
227.325023
 20
4.414435999999999
 30
0.0
 11
229.393745
 21
-5.318131999999999
 31
0.0
  0
ARC
  5
5D5
330
1D
100
AcDbEntity
  8
BLACK
100
AcDbCircle
 10
214.975914
 20
1.789548
 30
0.0
 40
2.075004051638695
100
AcDbArc
 50
102.0001259
 51
191.99989835
  0
ARC
  5
5D6
330
1D
100
AcDbEntity
  8
BLACK
100
AcDbCircle
 10
217.044633
 20
-7.943015
 30
0.0
 40
2.075002303253179
100
AcDbArc
 50
192.00007763
 51
281.99993684
  0
ARC
  5
5D7
330
1D
100
AcDbEntity
  8
BLACK
100
AcDbCircle
 10
225.295367
 20
3.983019
 30
0.0
 40
2.075000762780101
100
AcDbArc
 50
12.00000808
 51
102.00000234
  0
ARC
  5
5D8
330
1D
100
AcDbEntity
  8
BLACK
100
AcDbCircle
 10
227.364088
 20
-5.749549
 30
0.0
 40
2.075000762780101
100
AcDbArc
 50
282.00000808
 51
12.00000234
  0
LINE
  5
5D9
330
1D
100
AcDbEntity
  8
BLACK
  6
Continuous
100
AcDbLine
 10
216.206254
 20
-36.901866
 30
0.0
 11
218.274976
 21
-46.634435
 31
0.0
  0
LINE
  5
5DA
330
1D
100
AcDbEntity
  8
BLACK
  6
Continuous
100
AcDbLine
 10
228.123951
 20
-32.247324
 30
0.0
 11
217.804493
 21
-34.440793
 31
0.0
  0
LINE
  5
5DB
330
1D
100
AcDbEntity
  8
BLACK
  6
Continuous
100
AcDbLine
 10
231.055506
 20
-46.039205
 30
0.0
 11
220.736049
 21
-48.232674
 31
0.0
  0
LINE
  5
5DC
330
1D
100
AcDbEntity
  8
BLACK
  6
Continuous
100
AcDbLine
 10
230.585024
 20
-33.845564
 30
0.0
 11
232.653746
 21
-43.578132
 31
0.0
  0
ARC
  5
5DD
330
1D
100
AcDbEntity
  8
BLACK
100
AcDbCircle
 10
218.235915
 20
-36.470452
 30
0.0
 40
2.075004051638695
100
AcDbArc
 50
102.0001259
 51
191.99989835
  0
ARC
  5
5DE
330
1D
100
AcDbEntity
  8
BLACK
100
AcDbCircle
 10
220.304634
 20
-46.203015
 30
0.0
 40
2.075002303253179
100
AcDbArc
 50
192.00007763
 51
281.99993684
  0
ARC
  5
5DF
330
1D
100
AcDbEntity
  8
BLACK
100
AcDbCircle
 10
228.555368
 20
-34.276981
 30
0.0
 40
2.075000762780101
100
AcDbArc
 50
12.00000808
 51
102.00000234
  0
ARC
  5
5E0
330
1D
100
AcDbEntity
  8
BLACK
100
AcDbCircle
 10
230.624089
 20
-44.009549
 30
0.0
 40
2.075000762780101
100
AcDbArc
 50
282.00000808
 51
12.00000234
  0
LINE
  5
5E1
330
1D
100
AcDbEntity
  8
BLACK
  6
Continuous
100
AcDbLine
 10
192.212542
 20
-61.472583
 30
0.0
 11
194.281264
 21
-71.205152
 31
0.0
  0
LINE
  5
5E2
330
1D
100
AcDbEntity
  8
BLACK
  6
Continuous
100
AcDbLine
 10
204.130239
 20
-56.818041
 30
0.0
 11
193.810781
 21
-59.01150999999999
 31
0.0
  0
LINE
  5
5E3
330
1D
100
AcDbEntity
  8
BLACK
  6
Continuous
100
AcDbLine
 10
207.061794
 20
-70.609922
 30
0.0
 11
196.742337
 21
-72.80339099999999
 31
0.0
  0
LINE
  5
5E4
330
1D
100
AcDbEntity
  8
BLACK
  6
Continuous
100
AcDbLine
 10
206.591312
 20
-58.416281
 30
0.0
 11
208.660034
 21
-68.148849
 31
0.0
  0
ARC
  5
5E5
330
1D
100
AcDbEntity
  8
BLACK
100
AcDbCircle
 10
194.242203
 20
-61.041169
 30
0.0
 40
2.075004051638695
100
AcDbArc
 50
102.0001259
 51
191.99989835
  0
ARC
  5
5E6
330
1D
100
AcDbEntity
  8
BLACK
100
AcDbCircle
 10
196.310922
 20
-70.773732
 30
0.0
 40
2.075002303253179
100
AcDbArc
 50
192.00007763
 51
281.99993684
  0
ARC
  5
5E7
330
1D
100
AcDbEntity
  8
BLACK
100
AcDbCircle
 10
204.561656
 20
-58.84769799999999
 30
0.0
 40
2.075000762780101
100
AcDbArc
 50
12.00000808
 51
102.00000234
  0
ARC
  5
5E8
330
1D
100
AcDbEntity
  8
BLACK
100
AcDbCircle
 10
206.630377
 20
-68.580266
 30
0.0
 40
2.075000762780101
100
AcDbArc
 50
282.00000808
 51
12.00000234
  0
LINE
  5
5E9
330
1D
100
AcDbEntity
  8
BLACK
  6
Continuous
100
AcDbLine
 10
210.846253
 20
-57.511865
 30
0.0
 11
212.914975
 21
-67.244434
 31
0.0
  0
LINE
  5
5EA
330
1D
100
AcDbEntity
  8
BLACK
  6
Continuous
100
AcDbLine
 10
222.76395
 20
-52.857323
 30
0.0
 11
212.444492
 21
-55.05079199999999
 31
0.0
  0
LINE
  5
5EB
330
1D
100
AcDbEntity
  8
BLACK
  6
Continuous
100
AcDbLine
 10
225.695505
 20
-66.649204
 30
0.0
 11
215.376048
 21
-68.84267299999999
 31
0.0
  0
LINE
  5
5EC
330
1D
100
AcDbEntity
  8
BLACK
  6
Continuous
100
AcDbLine
 10
225.225023
 20
-54.455563
 30
0.0
 11
227.293745
 21
-64.188131
 31
0.0
  0
ARC
  5
5ED
330
1D
100
AcDbEntity
  8
BLACK
100
AcDbCircle
 10
212.875914
 20
-57.080451
 30
0.0
 40
2.075004051638695
100
AcDbArc
 50
102.0001259
 51
191.99989835
  0
ARC
  5
5EE
330
1D
100
AcDbEntity
  8
BLACK
100
AcDbCircle
 10
214.944633
 20
-66.813014
 30
0.0
 40
2.075002303253179
100
AcDbArc
 50
192.00007763
 51
281.99993684
  0
ARC
  5
5EF
330
1D
100
AcDbEntity
  8
BLACK
100
AcDbCircle
 10
223.195367
 20
-54.88697999999999
 30
0.0
 40
2.075000762780101
100
AcDbArc
 50
12.00000808
 51
102.00000234
  0
ARC
  5
5F0
330
1D
100
AcDbEntity
  8
BLACK
100
AcDbCircle
 10
225.264088
 20
-64.619548
 30
0.0
 40
2.075000762780101
100
AcDbArc
 50
282.00000808
 51
12.00000234
  0
LINE
  5
5F1
330
1D
100
AcDbEntity
  8
BLACK
  6
Continuous
100
AcDbLine
 10
157.045118
 20
-10.524019
 30
0.0
 11
159.11384
 21
-20.256588
 31
0.0
  0
LINE
  5
5F2
330
1D
100
AcDbEntity
  8
BLACK
  6
Continuous
100
AcDbLine
 10
168.962815
 20
-5.869477
 30
0.0
 11
158.643357
 21
-8.062946
 31
0.0
  0
LINE
  5
5F3
330
1D
100
AcDbEntity
  8
BLACK
  6
Continuous
100
AcDbLine
 10
171.89437
 20
-19.661358
 30
0.0
 11
161.574913
 21
-21.854827
 31
0.0
  0
LINE
  5
5F4
330
1D
100
AcDbEntity
  8
BLACK
  6
Continuous
100
AcDbLine
 10
171.423888
 20
-7.467716999999999
 30
0.0
 11
173.49261
 21
-17.200285
 31
0.0
  0
ARC
  5
5F5
330
1D
100
AcDbEntity
  8
BLACK
100
AcDbCircle
 10
159.074779
 20
-10.092605
 30
0.0
 40
2.075004051638695
100
AcDbArc
 50
102.0001259
 51
191.99989835
  0
ARC
  5
5F6
330
1D
100
AcDbEntity
  8
BLACK
100
AcDbCircle
 10
161.143498
 20
-19.825168
 30
0.0
 40
2.075002303253179
100
AcDbArc
 50
192.00007763
 51
281.99993684
  0
ARC
  5
5F7
330
1D
100
AcDbEntity
  8
BLACK
100
AcDbCircle
 10
169.394232
 20
-7.899133999999999
 30
0.0
 40
2.075000762780101
100
AcDbArc
 50
12.00000808
 51
102.00000234
  0
ARC
  5
5F8
330
1D
100
AcDbEntity
  8
BLACK
100
AcDbCircle
 10
171.462953
 20
-17.631702
 30
0.0
 40
2.075000762780101
100
AcDbArc
 50
282.00000808
 51
12.00000234
  0
LINE
  5
5F9
330
1D
100
AcDbEntity
  8
BLACK
  6
Continuous
100
AcDbLine
 10
290.459999
 20
-16.214999
 30
0.0
 11
290.459999
 21
-26.165
 31
0.0
  0
LINE
  5
5FA
330
1D
100
AcDbEntity
  8
BLACK
  6
Continuous
100
AcDbLine
 10
303.084999
 20
-14.139999
 30
0.0
 11
292.534998
 21
-14.139999
 31
0.0
  0
LINE
  5
5FB
330
1D
100
AcDbEntity
  8
BLACK
  6
Continuous
100
AcDbLine
 10
303.084999
 20
-28.239999
 30
0.0
 11
292.534999
 21
-28.239999
 31
0.0
  0
LINE
  5
5FC
330
1D
100
AcDbEntity
  8
BLACK
  6
Continuous
100
AcDbLine
 10
305.159999
 20
-16.214999
 30
0.0
 11
305.159999
 21
-26.164999
 31
0.0
  0
ARC
  5
5FD
330
1D
100
AcDbEntity
  8
BLACK
100
AcDbCircle
 10
292.535003
 20
-16.215003
 30
0.0
 40
2.075004000003855
100
AcDbArc
 50
90.00013806
 51
179.99988955
  0
ARC
  5
5FE
330
1D
100
AcDbEntity
  8
BLACK
100
AcDbCircle
 10
292.535001
 20
-26.164997
 30
0.0
 40
2.075002000000964
100
AcDbArc
 50
180.00008284
 51
269.99994478
  0
ARC
  5
5FF
330
1D
100
AcDbEntity
  8
BLACK
100
AcDbCircle
 10
303.084999
 20
-16.214999
 30
0.0
 40
2.075
100
AcDbArc
 50
0.0
 51
90.0
  0
ARC
  5
600
330
1D
100
AcDbEntity
  8
BLACK
100
AcDbCircle
 10
303.084999
 20
-26.164999
 30
0.0
 40
2.075
100
AcDbArc
 50
270.0
 51
0.0
  0
LINE
  5
601
330
1D
100
AcDbEntity
  8
BLACK
  6
Continuous
100
AcDbLine
 10
266.64
 20
-16.214999
 30
0.0
 11
266.64
 21
-26.165
 31
0.0
  0
LINE
  5
602
330
1D
100
AcDbEntity
  8
BLACK
  6
Continuous
100
AcDbLine
 10
279.265
 20
-14.139999
 30
0.0
 11
268.714999
 21
-14.139999
 31
0.0
  0
LINE
  5
603
330
1D
100
AcDbEntity
  8
BLACK
  6
Continuous
100
AcDbLine
 10
279.265
 20
-28.239999
 30
0.0
 11
268.715
 21
-28.239999
 31
0.0
  0
LINE
  5
604
330
1D
100
AcDbEntity
  8
BLACK
  6
Continuous
100
AcDbLine
 10
281.34
 20
-16.214999
 30
0.0
 11
281.34
 21
-26.164999
 31
0.0
  0
ARC
  5
605
330
1D
100
AcDbEntity
  8
BLACK
100
AcDbCircle
 10
268.715004
 20
-16.215003
 30
0.0
 40
2.075004000003855
100
AcDbArc
 50
90.00013806
 51
179.99988955
  0
ARC
  5
606
330
1D
100
AcDbEntity
  8
BLACK
100
AcDbCircle
 10
268.715002
 20
-26.164997
 30
0.0
 40
2.075002000000964
100
AcDbArc
 50
180.00008284
 51
269.99994478
  0
ARC
  5
607
330
1D
100
AcDbEntity
  8
BLACK
100
AcDbCircle
 10
279.265
 20
-16.214999
 30
0.0
 40
2.075
100
AcDbArc
 50
0.0
 51
90.0
  0
ARC
  5
608
330
1D
100
AcDbEntity
  8
BLACK
100
AcDbCircle
 10
279.265
 20
-26.164999
 30
0.0
 40
2.075
100
AcDbArc
 50
270.0
 51
0.0
  0
LINE
  5
609
330
1D
100
AcDbEntity
  8
BLACK
  6
Continuous
100
AcDbLine
 10
151.685118
 20
-31.134019
 30
0.0
 11
153.75384
 21
-40.866588
 31
0.0
  0
LINE
  5
60A
330
1D
100
AcDbEntity
  8
BLACK
  6
Continuous
100
AcDbLine
 10
163.602815
 20
-26.479477
 30
0.0
 11
153.283357
 21
-28.672946
 31
0.0
  0
LINE
  5
60B
330
1D
100
AcDbEntity
  8
BLACK
  6
Continuous
100
AcDbLine
 10
166.53437
 20
-40.271358
 30
0.0
 11
156.214913
 21
-42.464827
 31
0.0
  0
LINE
  5
60C
330
1D
100
AcDbEntity
  8
BLACK
  6
Continuous
100
AcDbLine
 10
166.063888
 20
-28.077717
 30
0.0
 11
168.13261
 21
-37.810285
 31
0.0
  0
ARC
  5
60D
330
1D
100
AcDbEntity
  8
BLACK
100
AcDbCircle
 10
153.714779
 20
-30.702605
 30
0.0
 40
2.075004051638695
100
AcDbArc
 50
102.0001259
 51
191.99989835
  0
ARC
  5
60E
330
1D
100
AcDbEntity
  8
BLACK
100
AcDbCircle
 10
155.783498
 20
-40.435168
 30
0.0
 40
2.075002303253179
100
AcDbArc
 50
192.00007763
 51
281.99993684
  0
ARC
  5
60F
330
1D
100
AcDbEntity
  8
BLACK
100
AcDbCircle
 10
164.034232
 20
-28.509134
 30
0.0
 40
2.075000762780101
100
AcDbArc
 50
12.00000808
 51
102.00000234
  0
ARC
  5
610
330
1D
100
AcDbEntity
  8
BLACK
100
AcDbCircle
 10
166.102953
 20
-38.241702
 30
0.0
 40
2.075000762780101
100
AcDbArc
 50
282.00000808
 51
12.00000234
  0
LINE
  5
611
330
1D
100
AcDbEntity
  8
BLACK
  6
Continuous
100
AcDbLine
 10
232.22
 20
-54.314999
 30
0.0
 11
232.22
 21
-64.265
 31
0.0
  0
LINE
  5
612
330
1D
100
AcDbEntity
  8
BLACK
  6
Continuous
100
AcDbLine
 10
244.845
 20
-52.239999
 30
0.0
 11
234.294999
 21
-52.239999
 31
0.0
  0
LINE
  5
613
330
1D
100
AcDbEntity
  8
BLACK
  6
Continuous
100
AcDbLine
 10
244.845
 20
-66.33999899999999
 30
0.0
 11
234.295
 21
-66.33999899999999
 31
0.0
  0
LINE
  5
614
330
1D
100
AcDbEntity
  8
BLACK
  6
Continuous
100
AcDbLine
 10
246.92
 20
-54.314999
 30
0.0
 11
246.92
 21
-64.264999
 31
0.0
  0
ARC
  5
615
330
1D
100
AcDbEntity
  8
BLACK
100
AcDbCircle
 10
234.295004
 20
-54.315003
 30
0.0
 40
2.075004000003855
100
AcDbArc
 50
90.00013806
 51
179.99988955
  0
ARC
  5
616
330
1D
100
AcDbEntity
  8
BLACK
100
AcDbCircle
 10
234.295002
 20
-64.264997
 30
0.0
 40
2.075002000000964
100
AcDbArc
 50
180.00008284
 51
269.99994478
  0
ARC
  5
617
330
1D
100
AcDbEntity
  8
BLACK
100
AcDbCircle
 10
244.845
 20
-54.314999
 30
0.0
 40
2.075
100
AcDbArc
 50
0.0
 51
90.0
  0
ARC
  5
618
330
1D
100
AcDbEntity
  8
BLACK
100
AcDbCircle
 10
244.845
 20
-64.264999
 30
0.0
 40
2.075
100
AcDbArc
 50
270.0
 51
0.0
  0
LINE
  5
619
330
1D
100
AcDbEntity
  8
BLACK
  6
Continuous
100
AcDbLine
 10
160.305118
 20
-48.784019
 30
0.0
 11
162.37384
 21
-58.516588
 31
0.0
  0
LINE
  5
61A
330
1D
100
AcDbEntity
  8
BLACK
  6
Continuous
100
AcDbLine
 10
172.222815
 20
-44.129477
 30
0.0
 11
161.903357
 21
-46.32294599999999
 31
0.0
  0
LINE
  5
61B
330
1D
100
AcDbEntity
  8
BLACK
  6
Continuous
100
AcDbLine
 10
175.15437
 20
-57.921358
 30
0.0
 11
164.834913
 21
-60.114827
 31
0.0
  0
LINE
  5
61C
330
1D
100
AcDbEntity
  8
BLACK
  6
Continuous
100
AcDbLine
 10
174.683888
 20
-45.727717
 30
0.0
 11
176.75261
 21
-55.460285
 31
0.0
  0
ARC
  5
61D
330
1D
100
AcDbEntity
  8
BLACK
100
AcDbCircle
 10
162.334779
 20
-48.352605
 30
0.0
 40
2.075004051638695
100
AcDbArc
 50
102.0001259
 51
191.99989835
  0
ARC
  5
61E
330
1D
100
AcDbEntity
  8
BLACK
100
AcDbCircle
 10
164.403498
 20
-58.085168
 30
0.0
 40
2.075002303253179
100
AcDbArc
 50
192.00007763
 51
281.99993684
  0
ARC
  5
61F
330
1D
100
AcDbEntity
  8
BLACK
100
AcDbCircle
 10
172.654232
 20
-46.15913399999999
 30
0.0
 40
2.075000762780101
100
AcDbArc
 50
12.00000808
 51
102.00000234
  0
ARC
  5
620
330
1D
100
AcDbEntity
  8
BLACK
100
AcDbCircle
 10
174.722953
 20
-55.891702
 30
0.0
 40
2.075000762780101
100
AcDbArc
 50
282.00000808
 51
12.00000234
  0
LINE
  5
621
330
1D
100
AcDbEntity
  8
BLACK
  6
Continuous
100
AcDbLine
 10
237.579999
 20
-35.264999
 30
0.0
 11
237.579999
 21
-45.215
 31
0.0
  0
LINE
  5
622
330
1D
100
AcDbEntity
  8
BLACK
  6
Continuous
100
AcDbLine
 10
250.204999
 20
-33.189999
 30
0.0
 11
239.654998
 21
-33.189999
 31
0.0
  0
LINE
  5
623
330
1D
100
AcDbEntity
  8
BLACK
  6
Continuous
100
AcDbLine
 10
250.204999
 20
-47.28999899999999
 30
0.0
 11
239.654999
 21
-47.28999899999999
 31
0.0
  0
LINE
  5
624
330
1D
100
AcDbEntity
  8
BLACK
  6
Continuous
100
AcDbLine
 10
252.279999
 20
-35.264999
 30
0.0
 11
252.279999
 21
-45.214999
 31
0.0
  0
ARC
  5
625
330
1D
100
AcDbEntity
  8
BLACK
100
AcDbCircle
 10
239.655003
 20
-35.265003
 30
0.0
 40
2.075004000003855
100
AcDbArc
 50
90.00013806
 51
179.99988955
  0
ARC
  5
626
330
1D
100
AcDbEntity
  8
BLACK
100
AcDbCircle
 10
239.655001
 20
-45.214997
 30
0.0
 40
2.075002000000964
100
AcDbArc
 50
180.00008284
 51
269.99994478
  0
ARC
  5
627
330
1D
100
AcDbEntity
  8
BLACK
100
AcDbCircle
 10
250.204999
 20
-35.264999
 30
0.0
 40
2.075
100
AcDbArc
 50
0.0
 51
90.0
  0
ARC
  5
628
330
1D
100
AcDbEntity
  8
BLACK
100
AcDbCircle
 10
250.204999
 20
-45.214999
 30
0.0
 40
2.075
100
AcDbArc
 50
270.0
 51
0.0
  0
LINE
  5
629
330
1D
100
AcDbEntity
  8
BLACK
  6
Continuous
100
AcDbLine
 10
234.319999
 20
4.975001
 30
0.0
 11
234.319999
 21
-4.975
 31
0.0
  0
LINE
  5
62A
330
1D
100
AcDbEntity
  8
BLACK
  6
Continuous
100
AcDbLine
 10
246.944999
 20
7.050001
 30
0.0
 11
236.394998
 21
7.050001
 31
0.0
  0
LINE
  5
62B
330
1D
100
AcDbEntity
  8
BLACK
  6
Continuous
100
AcDbLine
 10
246.944999
 20
-7.049999
 30
0.0
 11
236.394999
 21
-7.049999
 31
0.0
  0
LINE
  5
62C
330
1D
100
AcDbEntity
  8
BLACK
  6
Continuous
100
AcDbLine
 10
249.019999
 20
4.975001
 30
0.0
 11
249.019999
 21
-4.974999
 31
0.0
  0
ARC
  5
62D
330
1D
100
AcDbEntity
  8
BLACK
100
AcDbCircle
 10
236.395003
 20
4.974997
 30
0.0
 40
2.075004000003855
100
AcDbArc
 50
90.00013806
 51
179.99988955
  0
ARC
  5
62E
330
1D
100
AcDbEntity
  8
BLACK
100
AcDbCircle
 10
236.395001
 20
-4.974997
 30
0.0
 40
2.075002000000964
100
AcDbArc
 50
180.00008284
 51
269.99994478
  0
ARC
  5
62F
330
1D
100
AcDbEntity
  8
BLACK
100
AcDbCircle
 10
246.944999
 20
4.975001
 30
0.0
 40
2.075
100
AcDbArc
 50
0.0
 51
90.0
  0
ARC
  5
630
330
1D
100
AcDbEntity
  8
BLACK
100
AcDbCircle
 10
246.944999
 20
-4.974999
 30
0.0
 40
2.075
100
AcDbArc
 50
270.0
 51
0.0
  0
LINE
  5
631
330
1D
100
AcDbEntity
  8
BLACK
  6
Continuous
100
AcDbLine
 10
170.31883
 20
-27.173301
 30
0.0
 11
172.387552
 21
-36.90587
 31
0.0
  0
LINE
  5
632
330
1D
100
AcDbEntity
  8
BLACK
  6
Continuous
100
AcDbLine
 10
182.236527
 20
-22.518759
 30
0.0
 11
171.917069
 21
-24.712228
 31
0.0
  0
LINE
  5
633
330
1D
100
AcDbEntity
  8
BLACK
  6
Continuous
100
AcDbLine
 10
185.168082
 20
-36.31064
 30
0.0
 11
174.848625
 21
-38.504109
 31
0.0
  0
LINE
  5
634
330
1D
100
AcDbEntity
  8
BLACK
  6
Continuous
100
AcDbLine
 10
184.6976
 20
-24.116999
 30
0.0
 11
186.766322
 21
-33.849567
 31
0.0
  0
ARC
  5
635
330
1D
100
AcDbEntity
  8
BLACK
100
AcDbCircle
 10
172.348491
 20
-26.741887
 30
0.0
 40
2.075004051638695
100
AcDbArc
 50
102.0001259
 51
191.99989835
  0
ARC
  5
636
330
1D
100
AcDbEntity
  8
BLACK
100
AcDbCircle
 10
174.41721
 20
-36.47445
 30
0.0
 40
2.075002303253179
100
AcDbArc
 50
192.00007763
 51
281.99993684
  0
ARC
  5
637
330
1D
100
AcDbEntity
  8
BLACK
100
AcDbCircle
 10
182.667944
 20
-24.548416
 30
0.0
 40
2.075000762780101
100
AcDbArc
 50
12.00000808
 51
102.00000234
  0
ARC
  5
638
330
1D
100
AcDbEntity
  8
BLACK
100
AcDbCircle
 10
184.736665
 20
-34.280984
 30
0.0
 40
2.075000762780101
100
AcDbArc
 50
282.00000808
 51
12.00000234
  0
LINE
  5
639
330
1D
100
AcDbEntity
  8
BLACK
  6
Continuous
100
AcDbLine
 10
173.57883
 20
-65.433301
 30
0.0
 11
175.647552
 21
-75.16587
 31
0.0
  0
LINE
  5
63A
330
1D
100
AcDbEntity
  8
BLACK
  6
Continuous
100
AcDbLine
 10
185.496527
 20
-60.77875899999999
 30
0.0
 11
175.177069
 21
-62.97222799999999
 31
0.0
  0
LINE
  5
63B
330
1D
100
AcDbEntity
  8
BLACK
  6
Continuous
100
AcDbLine
 10
188.428082
 20
-74.57064
 30
0.0
 11
178.108625
 21
-76.76410899999999
 31
0.0
  0
LINE
  5
63C
330
1D
100
AcDbEntity
  8
BLACK
  6
Continuous
100
AcDbLine
 10
187.9576
 20
-62.376999
 30
0.0
 11
190.026322
 21
-72.109567
 31
0.0
  0
ARC
  5
63D
330
1D
100
AcDbEntity
  8
BLACK
100
AcDbCircle
 10
175.608491
 20
-65.001887
 30
0.0
 40
2.075004051638695
100
AcDbArc
 50
102.0001259
 51
191.99989835
  0
ARC
  5
63E
330
1D
100
AcDbEntity
  8
BLACK
100
AcDbCircle
 10
177.67721
 20
-74.73445
 30
0.0
 40
2.075002303253179
100
AcDbArc
 50
192.00007763
 51
281.99993684
  0
ARC
  5
63F
330
1D
100
AcDbEntity
  8
BLACK
100
AcDbCircle
 10
185.927944
 20
-62.80841599999999
 30
0.0
 40
2.075000762780101
100
AcDbArc
 50
12.00000808
 51
102.00000234
  0
ARC
  5
640
330
1D
100
AcDbEntity
  8
BLACK
100
AcDbCircle
 10
187.996665
 20
-72.540984
 30
0.0
 40
2.075000762780101
100
AcDbArc
 50
282.00000808
 51
12.00000234
  0
LINE
  5
641
330
1D
100
AcDbEntity
  8
BLACK
  6
Continuous
100
AcDbLine
 10
188.952542
 20
-23.212583
 30
0.0
 11
191.021264
 21
-32.945152
 31
0.0
  0
LINE
  5
642
330
1D
100
AcDbEntity
  8
BLACK
  6
Continuous
100
AcDbLine
 10
200.870239
 20
-18.558041
 30
0.0
 11
190.550781
 21
-20.75151
 31
0.0
  0
LINE
  5
643
330
1D
100
AcDbEntity
  8
BLACK
  6
Continuous
100
AcDbLine
 10
203.801794
 20
-32.349922
 30
0.0
 11
193.482337
 21
-34.543391
 31
0.0
  0
LINE
  5
644
330
1D
100
AcDbEntity
  8
BLACK
  6
Continuous
100
AcDbLine
 10
203.331312
 20
-20.156281
 30
0.0
 11
205.400034
 21
-29.888849
 31
0.0
  0
ARC
  5
645
330
1D
100
AcDbEntity
  8
BLACK
100
AcDbCircle
 10
190.982203
 20
-22.781169
 30
0.0
 40
2.075004051638695
100
AcDbArc
 50
102.0001259
 51
191.99989835
  0
ARC
  5
646
330
1D
100
AcDbEntity
  8
BLACK
100
AcDbCircle
 10
193.050922
 20
-32.513732
 30
0.0
 40
2.075002303253179
100
AcDbArc
 50
192.00007763
 51
281.99993684
  0
ARC
  5
647
330
1D
100
AcDbEntity
  8
BLACK
100
AcDbCircle
 10
201.301656
 20
-20.587698
 30
0.0
 40
2.075000762780101
100
AcDbArc
 50
12.00000808
 51
102.00000234
  0
ARC
  5
648
330
1D
100
AcDbEntity
  8
BLACK
100
AcDbCircle
 10
203.370377
 20
-30.320266
 30
0.0
 40
2.075000762780101
100
AcDbArc
 50
282.00000808
 51
12.00000234
  0
LINE
  5
649
330
1D
100
AcDbEntity
  8
BLACK
  6
Continuous
100
AcDbLine
 10
228.959999
 20
-15.154998
 30
0.0
 11
228.959999
 21
-25.104999
 31
0.0
  0
LINE
  5
64A
330
1D
100
AcDbEntity
  8
BLACK
  6
Continuous
100
AcDbLine
 10
241.584999
 20
-13.079998
 30
0.0
 11
231.034998
 21
-13.079998
 31
0.0
  0
LINE
  5
64B
330
1D
100
AcDbEntity
  8
BLACK
  6
Continuous
100
AcDbLine
 10
241.584999
 20
-27.179998
 30
0.0
 11
231.034999
 21
-27.179998
 31
0.0
  0
LINE
  5
64C
330
1D
100
AcDbEntity
  8
BLACK
  6
Continuous
100
AcDbLine
 10
243.659999
 20
-15.154998
 30
0.0
 11
243.659999
 21
-25.104998
 31
0.0
  0
ARC
  5
64D
330
1D
100
AcDbEntity
  8
BLACK
100
AcDbCircle
 10
231.035003
 20
-15.155002
 30
0.0
 40
2.075004000003855
100
AcDbArc
 50
90.00013806
 51
179.99988955
  0
ARC
  5
64E
330
1D
100
AcDbEntity
  8
BLACK
100
AcDbCircle
 10
231.035001
 20
-25.104996
 30
0.0
 40
2.075002000000964
100
AcDbArc
 50
180.00008284
 51
269.99994478
  0
ARC
  5
64F
330
1D
100
AcDbEntity
  8
BLACK
100
AcDbCircle
 10
241.584999
 20
-15.154998
 30
0.0
 40
2.075
100
AcDbArc
 50
0.0
 51
90.0
  0
ARC
  5
650
330
1D
100
AcDbEntity
  8
BLACK
100
AcDbCircle
 10
241.584999
 20
-25.104998
 30
0.0
 40
2.075
100
AcDbArc
 50
270.0
 51
0.0
  0
LINE
  5
651
330
1D
100
AcDbEntity
  8
BLACK
  6
Continuous
100
AcDbLine
 10
175.67883
 20
-6.563301
 30
0.0
 11
177.747552
 21
-16.29587
 31
0.0
  0
LINE
  5
652
330
1D
100
AcDbEntity
  8
BLACK
  6
Continuous
100
AcDbLine
 10
187.596527
 20
-1.908759
 30
0.0
 11
177.277069
 21
-4.102228
 31
0.0
  0
LINE
  5
653
330
1D
100
AcDbEntity
  8
BLACK
  6
Continuous
100
AcDbLine
 10
190.528082
 20
-15.70064
 30
0.0
 11
180.208625
 21
-17.894109
 31
0.0
  0
LINE
  5
654
330
1D
100
AcDbEntity
  8
BLACK
  6
Continuous
100
AcDbLine
 10
190.0576
 20
-3.506999
 30
0.0
 11
192.126322
 21
-13.239567
 31
0.0
  0
ARC
  5
655
330
1D
100
AcDbEntity
  8
BLACK
100
AcDbCircle
 10
177.708491
 20
-6.131887
 30
0.0
 40
2.075004051638695
100
AcDbArc
 50
102.0001259
 51
191.99989835
  0
ARC
  5
656
330
1D
100
AcDbEntity
  8
BLACK
100
AcDbCircle
 10
179.77721
 20
-15.86445
 30
0.0
 40
2.075002303253179
100
AcDbArc
 50
192.00007763
 51
281.99993684
  0
ARC
  5
657
330
1D
100
AcDbEntity
  8
BLACK
100
AcDbCircle
 10
188.027944
 20
-3.938416
 30
0.0
 40
2.075000762780101
100
AcDbArc
 50
12.00000808
 51
102.00000234
  0
ARC
  5
658
330
1D
100
AcDbEntity
  8
BLACK
100
AcDbCircle
 10
190.096665
 20
-13.670984
 30
0.0
 40
2.075000762780101
100
AcDbArc
 50
282.00000808
 51
12.00000234
  0
LINE
  5
659
330
1D
100
AcDbEntity
  8
BLACK
  6
Continuous
100
AcDbLine
 10
194.312542
 20
-2.602583
 30
0.0
 11
196.381264
 21
-12.335152
 31
0.0
  0
LINE
  5
65A
330
1D
100
AcDbEntity
  8
BLACK
  6
Continuous
100
AcDbLine
 10
206.230239
 20
2.051959
 30
0.0
 11
195.910781
 21
-0.14151
 31
0.0
  0
LINE
  5
65B
330
1D
100
AcDbEntity
  8
BLACK
  6
Continuous
100
AcDbLine
 10
209.161794
 20
-11.739922
 30
0.0
 11
198.842337
 21
-13.933391
 31
0.0
  0
LINE
  5
65C
330
1D
100
AcDbEntity
  8
BLACK
  6
Continuous
100
AcDbLine
 10
208.691312
 20
0.453719
 30
0.0
 11
210.760034
 21
-9.278849
 31
0.0
  0
ARC
  5
65D
330
1D
100
AcDbEntity
  8
BLACK
100
AcDbCircle
 10
196.342203
 20
-2.171169
 30
0.0
 40
2.075004051638695
100
AcDbArc
 50
102.0001259
 51
191.99989835
  0
ARC
  5
65E
330
1D
100
AcDbEntity
  8
BLACK
100
AcDbCircle
 10
198.410922
 20
-11.903732
 30
0.0
 40
2.075002303253179
100
AcDbArc
 50
192.00007763
 51
281.99993684
  0
ARC
  5
65F
330
1D
100
AcDbEntity
  8
BLACK
100
AcDbCircle
 10
206.661656
 20
0.022302
 30
0.0
 40
2.075000762780101
100
AcDbArc
 50
12.00000808
 51
102.00000234
  0
ARC
  5
660
330
1D
100
AcDbEntity
  8
BLACK
100
AcDbCircle
 10
208.730377
 20
-9.710265999999999
 30
0.0
 40
2.075000762780101
100
AcDbArc
 50
282.00000808
 51
12.00000234
  0
LINE
  5
661
330
1D
100
AcDbEntity
  8
BLACK
  6
Continuous
100
AcDbLine
 10
247.589999
 20
-16.214998
 30
0.0
 11
247.589999
 21
-26.164999
 31
0.0
  0
LINE
  5
662
330
1D
100
AcDbEntity
  8
BLACK
  6
Continuous
100
AcDbLine
 10
260.214999
 20
-14.139998
 30
0.0
 11
249.664998
 21
-14.139998
 31
0.0
  0
LINE
  5
663
330
1D
100
AcDbEntity
  8
BLACK
  6
Continuous
100
AcDbLine
 10
260.214999
 20
-28.239998
 30
0.0
 11
249.664999
 21
-28.239998
 31
0.0
  0
LINE
  5
664
330
1D
100
AcDbEntity
  8
BLACK
  6
Continuous
100
AcDbLine
 10
262.289999
 20
-16.214998
 30
0.0
 11
262.289999
 21
-26.164998
 31
0.0
  0
ARC
  5
665
330
1D
100
AcDbEntity
  8
BLACK
100
AcDbCircle
 10
249.665003
 20
-16.215002
 30
0.0
 40
2.075004000003855
100
AcDbArc
 50
90.00013806
 51
179.99988955
  0
ARC
  5
666
330
1D
100
AcDbEntity
  8
BLACK
100
AcDbCircle
 10
249.665001
 20
-26.164996
 30
0.0
 40
2.075002000000964
100
AcDbArc
 50
180.00008284
 51
269.99994478
  0
ARC
  5
667
330
1D
100
AcDbEntity
  8
BLACK
100
AcDbCircle
 10
260.214999
 20
-16.214998
 30
0.0
 40
2.075
100
AcDbArc
 50
0.0
 51
90.0
  0
ARC
  5
668
330
1D
100
AcDbEntity
  8
BLACK
100
AcDbCircle
 10
260.214999
 20
-26.164998
 30
0.0
 40
2.075
100
AcDbArc
 50
270.0
 51
0.0
  0
LINE
  5
669
330
1D
100
AcDbEntity
  8
BLACK
  6
Continuous
100
AcDbLine
 10
154.945118
 20
-69.394019
 30
0.0
 11
157.01384
 21
-79.126588
 31
0.0
  0
LINE
  5
66A
330
1D
100
AcDbEntity
  8
BLACK
  6
Continuous
100
AcDbLine
 10
166.862815
 20
-64.739477
 30
0.0
 11
156.543357
 21
-66.932946
 31
0.0
  0
LINE
  5
66B
330
1D
100
AcDbEntity
  8
BLACK
  6
Continuous
100
AcDbLine
 10
169.79437
 20
-78.531358
 30
0.0
 11
159.474913
 21
-80.72482699999999
 31
0.0
  0
LINE
  5
66C
330
1D
100
AcDbEntity
  8
BLACK
  6
Continuous
100
AcDbLine
 10
169.323888
 20
-66.337717
 30
0.0
 11
171.39261
 21
-76.070285
 31
0.0
  0
ARC
  5
66D
330
1D
100
AcDbEntity
  8
BLACK
100
AcDbCircle
 10
156.974779
 20
-68.962605
 30
0.0
 40
2.075004051638695
100
AcDbArc
 50
102.0001259
 51
191.99989835
  0
ARC
  5
66E
330
1D
100
AcDbEntity
  8
BLACK
100
AcDbCircle
 10
159.043498
 20
-78.695168
 30
0.0
 40
2.075002303253179
100
AcDbArc
 50
192.00007763
 51
281.99993684
  0
ARC
  5
66F
330
1D
100
AcDbEntity
  8
BLACK
100
AcDbCircle
 10
167.294232
 20
-66.769134
 30
0.0
 40
2.075000762780101
100
AcDbArc
 50
12.00000808
 51
102.00000234
  0
ARC
  5
670
330
1D
100
AcDbEntity
  8
BLACK
100
AcDbCircle
 10
169.362953
 20
-76.501702
 30
0.0
 40
2.075000762780101
100
AcDbArc
 50
282.00000808
 51
12.00000234
  0
LINE
  5
671
330
1D
100
AcDbEntity
  8
BLACK
  6
Continuous
100
AcDbLine
 10
251.27
 20
-54.314999
 30
0.0
 11
251.27
 21
-64.265
 31
0.0
  0
LINE
  5
672
330
1D
100
AcDbEntity
  8
BLACK
  6
Continuous
100
AcDbLine
 10
263.895
 20
-52.239999
 30
0.0
 11
253.344999
 21
-52.239999
 31
0.0
  0
LINE
  5
673
330
1D
100
AcDbEntity
  8
BLACK
  6
Continuous
100
AcDbLine
 10
263.895
 20
-66.33999899999999
 30
0.0
 11
253.345
 21
-66.33999899999999
 31
0.0
  0
LINE
  5
674
330
1D
100
AcDbEntity
  8
BLACK
  6
Continuous
100
AcDbLine
 10
265.97
 20
-54.314999
 30
0.0
 11
265.97
 21
-64.264999
 31
0.0
  0
ARC
  5
675
330
1D
100
AcDbEntity
  8
BLACK
100
AcDbCircle
 10
253.345004
 20
-54.315003
 30
0.0
 40
2.075004000003855
100
AcDbArc
 50
90.00013806
 51
179.99988955
  0
ARC
  5
676
330
1D
100
AcDbEntity
  8
BLACK
100
AcDbCircle
 10
253.345002
 20
-64.264997
 30
0.0
 40
2.075002000000964
100
AcDbArc
 50
180.00008284
 51
269.99994478
  0
ARC
  5
677
330
1D
100
AcDbEntity
  8
BLACK
100
AcDbCircle
 10
263.895
 20
-54.314999
 30
0.0
 40
2.075
100
AcDbArc
 50
0.0
 51
90.0
  0
ARC
  5
678
330
1D
100
AcDbEntity
  8
BLACK
100
AcDbCircle
 10
263.895
 20
-64.264999
 30
0.0
 40
2.075
100
AcDbArc
 50
270.0
 51
0.0
  0
LINE
  5
679
330
1D
100
AcDbEntity
  8
BLACK
  6
Continuous
100
AcDbLine
 10
295.2156
 20
-73.412998
 30
0.0
 11
295.2156
 21
-83.362999
 31
0.0
  0
LINE
  5
67A
330
1D
100
AcDbEntity
  8
BLACK
  6
Continuous
100
AcDbLine
 10
307.8406
 20
-71.337998
 30
0.0
 11
297.290599
 21
-71.337998
 31
0.0
  0
LINE
  5
67B
330
1D
100
AcDbEntity
  8
BLACK
  6
Continuous
100
AcDbLine
 10
307.8406
 20
-85.437998
 30
0.0
 11
297.2906
 21
-85.437998
 31
0.0
  0
LINE
  5
67C
330
1D
100
AcDbEntity
  8
BLACK
  6
Continuous
100
AcDbLine
 10
309.9156
 20
-73.412998
 30
0.0
 11
309.9156
 21
-83.36299799999999
 31
0.0
  0
ARC
  5
67D
330
1D
100
AcDbEntity
  8
BLACK
100
AcDbCircle
 10
297.290604
 20
-73.41300199999999
 30
0.0
 40
2.075004000003855
100
AcDbArc
 50
90.00013806
 51
179.99988955
  0
ARC
  5
67E
330
1D
100
AcDbEntity
  8
BLACK
100
AcDbCircle
 10
297.290602
 20
-83.362996
 30
0.0
 40
2.075002000000964
100
AcDbArc
 50
180.00008284
 51
269.99994478
  0
ARC
  5
67F
330
1D
100
AcDbEntity
  8
BLACK
100
AcDbCircle
 10
307.8406
 20
-73.412998
 30
0.0
 40
2.075
100
AcDbArc
 50
0.0
 51
90.0
  0
ARC
  5
680
330
1D
100
AcDbEntity
  8
BLACK
100
AcDbCircle
 10
307.8406
 20
-83.36299799999999
 30
0.0
 40
2.075
100
AcDbArc
 50
270.0
 51
0.0
  0
LINE
  5
681
330
1D
100
AcDbEntity
  8
BLACK
  6
Continuous
100
AcDbLine
 10
278.860735
 20
-43.49043899999999
 30
0.0
 11
278.860735
 21
-35.889699
 31
0.0
  0
LINE
  5
682
330
1D
100
AcDbEntity
  8
BLACK
  6
Continuous
100
AcDbLine
 10
280.297762
 20
-34.464559
 30
0.0
 11
281.151325
 21
-34.464559
 31
0.0
  0
LINE
  5
683
330
1D
100
AcDbEntity
  8
BLACK
  6
Continuous
100
AcDbLine
 10
280.689825
 20
-44.915439
 30
0.0
 11
280.285725
 21
-44.915439
 31
0.0
  0
LINE
  5
684
330
1D
100
AcDbEntity
  8
BLACK
  6
Continuous
100
AcDbLine
 10
281.151325
 20
-34.464547
 30
0.0
 11
281.151325
 21
-34.464559
 31
0.0
  0
LINE
  5
685
330
1D
100
AcDbEntity
  8
BLACK
  6
Continuous
100
AcDbLine
 10
283.008625
 20
-33.212399
 30
0.0
 11
306.863825
 21
-33.212399
 31
0.0
  0
LINE
  5
686
330
1D
100
AcDbEntity
  8
BLACK
  6
Continuous
100
AcDbLine
 10
283.008625
 20
-33.21241
 30
0.0
 11
283.008625
 21
-33.212399
 31
0.0
  0
LINE
  5
687
330
1D
100
AcDbEntity
  8
BLACK
  6
Continuous
100
AcDbLine
 10
305.811675
 20
-47.251909
 30
0.0
 11
284.060825
 21
-47.251909
 31
0.0
  0
LINE
  5
688
330
1D
100
AcDbEntity
  8
BLACK
  6
Continuous
100
AcDbLine
 10
308.721025
 20
-34.464559
 30
0.0
 11
309.586625
 21
-34.464559
 31
0.0
  0
LINE
  5
689
330
1D
100
AcDbEntity
  8
BLACK
  6
Continuous
100
AcDbLine
 10
309.574708
 20
-44.915439
 30
0.0
 11
309.182575
 21
-44.915439
 31
0.0
  0
LINE
  5
68A
330
1D
100
AcDbEntity
  8
BLACK
  6
Continuous
100
AcDbLine
 10
311.011615
 20
-35.889559
 30
0.0
 11
311.011615
 21
-43.490399
 31
0.0
  0
ARC
  5
68B
330
1D
100
AcDbEntity
  8
BLACK
100
AcDbCircle
 10
280.285817
 20
-35.889591
 30
0.0
 40
1.425082004092396
100
AcDbArc
 50
89.51974267000003
 51
180.00434217
  0
ARC
  5
68C
330
1D
100
AcDbEntity
  8
BLACK
100
AcDbCircle
 10
280.285736
 20
-43.490438
 30
0.0
 40
1.425001000042456
100
AcDbArc
 50
180.00004021
 51
269.99955772
  0
ARC
  5
68D
330
1D
100
AcDbEntity
  8
BLACK
100
AcDbCircle
 10
280.689801
 20
-46.640347
 30
0.0
 40
1.724908000166965
100
AcDbArc
 50
20.54547839
 51
89.9992028
  0
ARC
  5
68E
330
1D
100
AcDbEntity
  8
BLACK
100
AcDbCircle
 10
281.151374
 20
-33.53617
 30
0.0
 40
0.9283764359148717
100
AcDbArc
 50
269.99697591
 51
337.97782841
  0
ARC
  5
68F
330
1D
100
AcDbEntity
  8
BLACK
100
AcDbCircle
 10
283.008524
 20
-34.28735
 30
0.0
 40
1.074940192811674
100
AcDbArc
 50
89.99461656
 51
157.97750247
  0
ARC
  5
690
330
1D
100
AcDbEntity
  8
BLACK
100
AcDbCircle
 10
284.060712
 20
-45.376914
 30
0.0
 40
1.874995003405076
100
AcDbArc
 50
200.54692151
 51
270.00345303
  0
ARC
  5
691
330
1D
100
AcDbEntity
  8
BLACK
100
AcDbCircle
 10
306.86379
 20
-34.287389
 30
0.0
 40
1.074990000569773
100
AcDbArc
 50
22.02370504
 51
89.99813454
  0
ARC
  5
692
330
1D
100
AcDbEntity
  8
BLACK
100
AcDbCircle
 10
305.81159
 20
-45.376829
 30
0.0
 40
1.875082291400833
100
AcDbArc
 50
270.0025973
 51
339.45098232
  0
ARC
  5
693
330
1D
100
AcDbEntity
  8
BLACK
100
AcDbCircle
 10
309.18258
 20
-46.640379
 30
0.0
 40
1.724936068561673
100
AcDbArc
 50
90.00016608000001
 51
159.45408213
  0
ARC
  5
694
330
1D
100
AcDbEntity
  8
BLACK
100
AcDbCircle
 10
308.72105
 20
-33.536099
 30
0.0
 40
0.9284600003365787
100
AcDbArc
 50
202.02452102
 51
269.99845724
  0
ARC
  5
695
330
1D
100
AcDbEntity
  8
BLACK
100
AcDbCircle
 10
309.58665
 20
-35.889499
 30
0.0
 40
1.424940000219307
100
AcDbArc
 50
359.99758749
 51
90.00100523000002
  0
ARC
  5
696
330
1D
100
AcDbEntity
  8
BLACK
100
AcDbCircle
 10
309.58649
 20
-43.490359
 30
0.0
 40
1.425125000561354
100
AcDbArc
 50
269.52631186
 51
359.99839184
  0
LINE
  5
699
330
1D
100
AcDbEntity
  8
BLACK
  6
Continuous
100
AcDbLine
 10
168.421577
 20
-94.421696
 30
0.0
 11
166.841294
 21
-86.98705
 31
0.0
  0
LINE
  5
69A
330
1D
100
AcDbEntity
  8
BLACK
  6
Continuous
100
AcDbLine
 10
167.950616
 20
-85.29427799999999
 30
0.0
 11
168.785526
 21
-85.116812
 31
0.0
  0
LINE
  5
69B
330
1D
100
AcDbEntity
  8
BLACK
  6
Continuous
100
AcDbLine
 10
170.506971
 20
-95.435267
 30
0.0
 11
170.111702
 21
-95.519284
 31
0.0
  0
LINE
  5
69C
330
1D
100
AcDbEntity
  8
BLACK
  6
Continuous
100
AcDbLine
 10
168.785524
 20
-85.116801
 30
0.0
 11
168.785526
 21
-85.116812
 31
0.0
  0
LINE
  5
69D
330
1D
100
AcDbEntity
  8
BLACK
  6
Continuous
100
AcDbLine
 10
170.341901
 20
-83.505861
 30
0.0
 11
193.675808
 21
-78.546086
 31
0.0
  0
LINE
  5
69E
330
1D
100
AcDbEntity
  8
BLACK
  6
Continuous
100
AcDbLine
 10
170.341903
 20
-83.505871
 30
0.0
 11
170.341901
 21
-83.505861
 31
0.0
  0
LINE
  5
69F
330
1D
100
AcDbEntity
  8
BLACK
  6
Continuous
100
AcDbLine
 10
195.565628
 20
-92.497553
 30
0.0
 11
174.290086
 21
-97.019809
 31
0.0
  0
LINE
  5
6A0
330
1D
100
AcDbEntity
  8
BLACK
  6
Continuous
100
AcDbLine
 10
195.752762
 20
-79.384749
 30
0.0
 11
196.599447
 21
-79.204781
 31
0.0
  0
LINE
  5
6A1
330
1D
100
AcDbEntity
  8
BLACK
  6
Continuous
100
AcDbLine
 10
198.76065
 20
-89.429762
 30
0.0
 11
198.377086
 21
-89.511291
 31
0.0
  0
LINE
  5
6A2
330
1D
100
AcDbEntity
  8
BLACK
  6
Continuous
100
AcDbLine
 10
198.289571
 20
-80.302369
 30
0.0
 11
199.869875
 21
-87.737113
 31
0.0
  0
ARC
  5
6A3
330
1D
100
AcDbEntity
  8
BLACK
100
AcDbCircle
 10
168.235212
 20
-86.690653
 30
0.0
 40
1.425081952847976
100
AcDbArc
 50
101.5197107
 51
192.00434885
  0
ARC
  5
6A4
330
1D
100
AcDbEntity
  8
BLACK
100
AcDbCircle
 10
169.815438
 20
-94.12541999999999
 30
0.0
 40
1.425001476557831
100
AcDbArc
 50
192.0000668
 51
281.99956977
  0
ARC
  5
6A5
330
1D
100
AcDbEntity
  8
BLACK
100
AcDbCircle
 10
170.865576
 20
-97.122486
 30
0.0
 40
1.724907388814252
100
AcDbArc
 50
32.54547537999999
 51
101.99920497
  0
ARC
  5
6A6
330
1D
100
AcDbEntity
  8
BLACK
100
AcDbCircle
 10
168.592551
 20
-84.20870099999999
 30
0.0
 40
0.9283764593073222
100
AcDbArc
 50
281.99700495
 51
349.97786988
  0
ARC
  5
6A7
330
1D
100
AcDbEntity
  8
BLACK
100
AcDbCircle
 10
170.565297
 20
-84.55734199999999
 30
0.0
 40
1.074940122623116
100
AcDbArc
 50
101.99462678
 51
169.97750508
  0
ARC
  5
6A8
330
1D
100
AcDbEntity
  8
BLACK
100
AcDbCircle
 10
173.900142
 20
-95.185811
 30
0.0
 40
1.874994663229738
100
AcDbArc
 50
212.54690487
 51
282.0034580100001
  0
ARC
  5
6A9
330
1D
100
AcDbEntity
  8
BLACK
100
AcDbCircle
 10
193.899276
 20
-79.59759199999999
 30
0.0
 40
1.074989681373733
100
AcDbArc
 50
34.02372459
 51
101.9980971
  0
ARC
  5
6AA
330
1D
100
AcDbEntity
  8
BLACK
100
AcDbCircle
 10
195.175694
 20
-90.663466
 30
0.0
 40
1.875081915699951
100
AcDbArc
 50
282.00259355
 51
351.45098855
  0
ARC
  5
6AB
330
1D
100
AcDbEntity
  8
BLACK
100
AcDbCircle
 10
198.735726
 20
-91.19853599999999
 30
0.0
 40
1.724935828051873
100
AcDbArc
 50
102.00016258
 51
171.45407801
  0
ARC
  5
6AC
330
1D
100
AcDbEntity
  8
BLACK
100
AcDbCircle
 10
195.559749
 20
-78.476573
 30
0.0
 40
0.9284598349659504
100
AcDbArc
 50
214.0245006
 51
281.99844459
  0
ARC
  5
6AD
330
1D
100
AcDbEntity
  8
BLACK
100
AcDbCircle
 10
196.895733
 20
-80.59857699999999
 30
0.0
 40
1.42493953675656
100
AcDbArc
 50
11.99758464
 51
102.0010035
  0
ARC
  5
6AE
330
1D
100
AcDbEntity
  8
BLACK
100
AcDbCircle
 10
198.475884
 20
-88.033374
 30
0.0
 40
1.425125078090341
100
AcDbArc
 50
281.52630332
 51
11.99839025
  0
LINE
  5
6B1
330
1D
100
AcDbEntity
  8
BLACK
  6
Continuous
100
AcDbLine
 10
6.454484
 20
-62.54043799999999
 30
0.0
 11
6.454484
 21
-54.939698
 31
0.0
  0
LINE
  5
6B2
330
1D
100
AcDbEntity
  8
BLACK
  6
Continuous
100
AcDbLine
 10
7.891510999999999
 20
-53.514558
 30
0.0
 11
8.745073999999999
 21
-53.514558
 31
0.0
  0
LINE
  5
6B3
330
1D
100
AcDbEntity
  8
BLACK
  6
Continuous
100
AcDbLine
 10
8.283574
 20
-63.965438
 30
0.0
 11
7.879473999999999
 21
-63.965438
 31
0.0
  0
LINE
  5
6B4
330
1D
100
AcDbEntity
  8
BLACK
  6
Continuous
100
AcDbLine
 10
8.745073999999999
 20
-53.514546
 30
0.0
 11
8.745073999999999
 21
-53.514558
 31
0.0
  0
LINE
  5
6B5
330
1D
100
AcDbEntity
  8
BLACK
  6
Continuous
100
AcDbLine
 10
10.602374
 20
-52.262398
 30
0.0
 11
34.457574
 21
-52.262398
 31
0.0
  0
LINE
  5
6B6
330
1D
100
AcDbEntity
  8
BLACK
  6
Continuous
100
AcDbLine
 10
10.602374
 20
-52.262409
 30
0.0
 11
10.602374
 21
-52.262398
 31
0.0
  0
LINE
  5
6B7
330
1D
100
AcDbEntity
  8
BLACK
  6
Continuous
100
AcDbLine
 10
33.405424
 20
-66.301908
 30
0.0
 11
11.654574
 21
-66.301908
 31
0.0
  0
LINE
  5
6B8
330
1D
100
AcDbEntity
  8
BLACK
  6
Continuous
100
AcDbLine
 10
36.314774
 20
-53.514558
 30
0.0
 11
37.180374
 21
-53.514558
 31
0.0
  0
LINE
  5
6B9
330
1D
100
AcDbEntity
  8
BLACK
  6
Continuous
100
AcDbLine
 10
37.168457
 20
-63.965438
 30
0.0
 11
36.776324
 21
-63.965438
 31
0.0
  0
LINE
  5
6BA
330
1D
100
AcDbEntity
  8
BLACK
  6
Continuous
100
AcDbLine
 10
38.605364
 20
-54.939558
 30
0.0
 11
38.605364
 21
-62.540398
 31
0.0
  0
ARC
  5
6BB
330
1D
100
AcDbEntity
  8
BLACK
100
AcDbCircle
 10
7.879566
 20
-54.93959
 30
0.0
 40
1.425082004092396
100
AcDbArc
 50
89.51974267000003
 51
180.00434217
  0
ARC
  5
6BC
330
1D
100
AcDbEntity
  8
BLACK
100
AcDbCircle
 10
7.879485
 20
-62.540437
 30
0.0
 40
1.425001000042456
100
AcDbArc
 50
180.00004021
 51
269.99955772
  0
ARC
  5
6BD
330
1D
100
AcDbEntity
  8
BLACK
100
AcDbCircle
 10
8.28355
 20
-65.69034599999999
 30
0.0
 40
1.724908000166965
100
AcDbArc
 50
20.54547839
 51
89.9992028
  0
ARC
  5
6BE
330
1D
100
AcDbEntity
  8
BLACK
100
AcDbCircle
 10
8.745123
 20
-52.586169
 30
0.0
 40
0.9283764359148717
100
AcDbArc
 50
269.99697591
 51
337.97782841
  0
ARC
  5
6BF
330
1D
100
AcDbEntity
  8
BLACK
100
AcDbCircle
 10
10.602273
 20
-53.337349
 30
0.0
 40
1.074940192811674
100
AcDbArc
 50
89.99461656
 51
157.97750247
  0
ARC
  5
6C0
330
1D
100
AcDbEntity
  8
BLACK
100
AcDbCircle
 10
11.654461
 20
-64.426913
 30
0.0
 40
1.874995003405076
100
AcDbArc
 50
200.54692151
 51
270.00345303
  0
ARC
  5
6C1
330
1D
100
AcDbEntity
  8
BLACK
100
AcDbCircle
 10
34.457539
 20
-53.337388
 30
0.0
 40
1.074990000569773
100
AcDbArc
 50
22.02370504
 51
89.99813454
  0
ARC
  5
6C2
330
1D
100
AcDbEntity
  8
BLACK
100
AcDbCircle
 10
33.405339
 20
-64.426828
 30
0.0
 40
1.875082291400833
100
AcDbArc
 50
270.0025973
 51
339.45098232
  0
ARC
  5
6C3
330
1D
100
AcDbEntity
  8
BLACK
100
AcDbCircle
 10
36.776329
 20
-65.690378
 30
0.0
 40
1.724936068561673
100
AcDbArc
 50
90.00016608000001
 51
159.45408213
  0
ARC
  5
6C4
330
1D
100
AcDbEntity
  8
BLACK
100
AcDbCircle
 10
36.314799
 20
-52.586098
 30
0.0
 40
0.9284600003365787
100
AcDbArc
 50
202.02452102
 51
269.99845724
  0
ARC
  5
6C5
330
1D
100
AcDbEntity
  8
BLACK
100
AcDbCircle
 10
37.180399
 20
-54.939498
 30
0.0
 40
1.424940000219307
100
AcDbArc
 50
359.99758749
 51
90.00100523000002
  0
ARC
  5
6C6
330
1D
100
AcDbEntity
  8
BLACK
100
AcDbCircle
 10
37.180239
 20
-62.540358
 30
0.0
 40
1.425125000561354
100
AcDbArc
 50
269.52631186
 51
359.99839184
  0
LINE
  5
713
330
1D
100
AcDbEntity
  8
BLACK
  6
Continuous
100
AcDbLine
 10
272.799484
 20
-5.39044
 30
0.0
 11
272.799484
 21
2.2103
 31
0.0
  0
LINE
  5
714
330
1D
100
AcDbEntity
  8
BLACK
  6
Continuous
100
AcDbLine
 10
274.236511
 20
3.63544
 30
0.0
 11
275.090074
 21
3.63544
 31
0.0
  0
LINE
  5
715
330
1D
100
AcDbEntity
  8
BLACK
  6
Continuous
100
AcDbLine
 10
274.628574
 20
-6.81544
 30
0.0
 11
274.224474
 21
-6.81544
 31
0.0
  0
LINE
  5
716
330
1D
100
AcDbEntity
  8
BLACK
  6
Continuous
100
AcDbLine
 10
275.090074
 20
3.635452
 30
0.0
 11
275.090074
 21
3.63544
 31
0.0
  0
LINE
  5
717
330
1D
100
AcDbEntity
  8
BLACK
  6
Continuous
100
AcDbLine
 10
276.947374
 20
4.8876
 30
0.0
 11
300.802574
 21
4.8876
 31
0.0
  0
LINE
  5
718
330
1D
100
AcDbEntity
  8
BLACK
  6
Continuous
100
AcDbLine
 10
276.947374
 20
4.887589
 30
0.0
 11
276.947374
 21
4.8876
 31
0.0
  0
LINE
  5
719
330
1D
100
AcDbEntity
  8
BLACK
  6
Continuous
100
AcDbLine
 10
299.750424
 20
-9.151909999999999
 30
0.0
 11
277.999574
 21
-9.151909999999999
 31
0.0
  0
LINE
  5
71A
330
1D
100
AcDbEntity
  8
BLACK
  6
Continuous
100
AcDbLine
 10
302.659774
 20
3.63544
 30
0.0
 11
303.525374
 21
3.63544
 31
0.0
  0
LINE
  5
71B
330
1D
100
AcDbEntity
  8
BLACK
  6
Continuous
100
AcDbLine
 10
303.513457
 20
-6.81544
 30
0.0
 11
303.121324
 21
-6.81544
 31
0.0
  0
LINE
  5
71C
330
1D
100
AcDbEntity
  8
BLACK
  6
Continuous
100
AcDbLine
 10
304.950364
 20
2.21044
 30
0.0
 11
304.950364
 21
-5.3904
 31
0.0
  0
ARC
  5
71D
330
1D
100
AcDbEntity
  8
BLACK
100
AcDbCircle
 10
274.224566
 20
2.210408
 30
0.0
 40
1.425082004092396
100
AcDbArc
 50
89.51974267000003
 51
180.00434217
  0
ARC
  5
71E
330
1D
100
AcDbEntity
  8
BLACK
100
AcDbCircle
 10
274.224485
 20
-5.390439
 30
0.0
 40
1.425001000042456
100
AcDbArc
 50
180.00004021
 51
269.99955772
  0
ARC
  5
71F
330
1D
100
AcDbEntity
  8
BLACK
100
AcDbCircle
 10
274.62855
 20
-8.540348
 30
0.0
 40
1.724908000166965
100
AcDbArc
 50
20.54547839
 51
89.9992028
  0
ARC
  5
720
330
1D
100
AcDbEntity
  8
BLACK
100
AcDbCircle
 10
275.090123
 20
4.563829
 30
0.0
 40
0.9283764359148717
100
AcDbArc
 50
269.99697591
 51
337.97782841
  0
ARC
  5
721
330
1D
100
AcDbEntity
  8
BLACK
100
AcDbCircle
 10
276.947273
 20
3.812649
 30
0.0
 40
1.074940192811674
100
AcDbArc
 50
89.99461656
 51
157.97750247
  0
ARC
  5
722
330
1D
100
AcDbEntity
  8
BLACK
100
AcDbCircle
 10
277.999461
 20
-7.276915
 30
0.0
 40
1.874995003405076
100
AcDbArc
 50
200.54692151
 51
270.00345303
  0
ARC
  5
723
330
1D
100
AcDbEntity
  8
BLACK
100
AcDbCircle
 10
300.802539
 20
3.81261
 30
0.0
 40
1.074990000569773
100
AcDbArc
 50
22.02370504
 51
89.99813454
  0
ARC
  5
724
330
1D
100
AcDbEntity
  8
BLACK
100
AcDbCircle
 10
299.750339
 20
-7.276829999999999
 30
0.0
 40
1.875082291400833
100
AcDbArc
 50
270.0025973
 51
339.45098232
  0
ARC
  5
725
330
1D
100
AcDbEntity
  8
BLACK
100
AcDbCircle
 10
303.121329
 20
-8.540379999999999
 30
0.0
 40
1.724936068561673
100
AcDbArc
 50
90.00016608000001
 51
159.45408213
  0
ARC
  5
726
330
1D
100
AcDbEntity
  8
BLACK
100
AcDbCircle
 10
302.659799
 20
4.563899999999999
 30
0.0
 40
0.9284600003365787
100
AcDbArc
 50
202.02452102
 51
269.99845724
  0
ARC
  5
727
330
1D
100
AcDbEntity
  8
BLACK
100
AcDbCircle
 10
303.525399
 20
2.2105
 30
0.0
 40
1.424940000219307
100
AcDbArc
 50
359.99758749
 51
90.00100523000002
  0
ARC
  5
728
330
1D
100
AcDbEntity
  8
BLACK
100
AcDbCircle
 10
303.525239
 20
-5.390359999999999
 30
0.0
 40
1.425125000561354
100
AcDbArc
 50
269.52631186
 51
359.99839184
  0
LINE
  5
72B
330
1D
100
AcDbEntity
  8
BLACK
  6
Continuous
100
AcDbLine
 10
278.264487
 20
-62.54044099999999
 30
0.0
 11
278.264487
 21
-54.939701
 31
0.0
  0
LINE
  5
72C
330
1D
100
AcDbEntity
  8
BLACK
  6
Continuous
100
AcDbLine
 10
279.701514
 20
-53.514561
 30
0.0
 11
280.555077
 21
-53.514561
 31
0.0
  0
LINE
  5
72D
330
1D
100
AcDbEntity
  8
BLACK
  6
Continuous
100
AcDbLine
 10
280.093577
 20
-63.965441
 30
0.0
 11
279.689477
 21
-63.965441
 31
0.0
  0
LINE
  5
72E
330
1D
100
AcDbEntity
  8
BLACK
  6
Continuous
100
AcDbLine
 10
280.555077
 20
-53.514549
 30
0.0
 11
280.555077
 21
-53.514561
 31
0.0
  0
LINE
  5
72F
330
1D
100
AcDbEntity
  8
BLACK
  6
Continuous
100
AcDbLine
 10
282.412377
 20
-52.262401
 30
0.0
 11
306.267577
 21
-52.262401
 31
0.0
  0
LINE
  5
730
330
1D
100
AcDbEntity
  8
BLACK
  6
Continuous
100
AcDbLine
 10
282.412377
 20
-52.262412
 30
0.0
 11
282.412377
 21
-52.262401
 31
0.0
  0
LINE
  5
731
330
1D
100
AcDbEntity
  8
BLACK
  6
Continuous
100
AcDbLine
 10
305.215427
 20
-66.301911
 30
0.0
 11
283.464577
 21
-66.301911
 31
0.0
  0
LINE
  5
732
330
1D
100
AcDbEntity
  8
BLACK
  6
Continuous
100
AcDbLine
 10
308.124777
 20
-53.514561
 30
0.0
 11
308.990377
 21
-53.514561
 31
0.0
  0
LINE
  5
733
330
1D
100
AcDbEntity
  8
BLACK
  6
Continuous
100
AcDbLine
 10
308.97846
 20
-63.965441
 30
0.0
 11
308.586327
 21
-63.965441
 31
0.0
  0
LINE
  5
734
330
1D
100
AcDbEntity
  8
BLACK
  6
Continuous
100
AcDbLine
 10
310.415367
 20
-54.939561
 30
0.0
 11
310.415367
 21
-62.540401
 31
0.0
  0
ARC
  5
735
330
1D
100
AcDbEntity
  8
BLACK
100
AcDbCircle
 10
279.689569
 20
-54.939593
 30
0.0
 40
1.425082004092396
100
AcDbArc
 50
89.51974267000003
 51
180.00434217
  0
ARC
  5
736
330
1D
100
AcDbEntity
  8
BLACK
100
AcDbCircle
 10
279.689488
 20
-62.54044
 30
0.0
 40
1.425001000042456
100
AcDbArc
 50
180.00004021
 51
269.99955772
  0
ARC
  5
737
330
1D
100
AcDbEntity
  8
BLACK
100
AcDbCircle
 10
280.093553
 20
-65.690349
 30
0.0
 40
1.724908000166965
100
AcDbArc
 50
20.54547839
 51
89.9992028
  0
ARC
  5
738
330
1D
100
AcDbEntity
  8
BLACK
100
AcDbCircle
 10
280.555126
 20
-52.586172
 30
0.0
 40
0.9283764359148717
100
AcDbArc
 50
269.99697591
 51
337.97782841
  0
ARC
  5
739
330
1D
100
AcDbEntity
  8
BLACK
100
AcDbCircle
 10
282.412276
 20
-53.337352
 30
0.0
 40
1.074940192811674
100
AcDbArc
 50
89.99461656
 51
157.97750247
  0
ARC
  5
73A
330
1D
100
AcDbEntity
  8
BLACK
100
AcDbCircle
 10
283.464464
 20
-64.42691599999999
 30
0.0
 40
1.874995003405076
100
AcDbArc
 50
200.54692151
 51
270.00345303
  0
ARC
  5
73B
330
1D
100
AcDbEntity
  8
BLACK
100
AcDbCircle
 10
306.267542
 20
-53.337391
 30
0.0
 40
1.074990000569773
100
AcDbArc
 50
22.02370504
 51
89.99813454
  0
ARC
  5
73C
330
1D
100
AcDbEntity
  8
BLACK
100
AcDbCircle
 10
305.215342
 20
-64.42683099999999
 30
0.0
 40
1.875082291400833
100
AcDbArc
 50
270.0025973
 51
339.45098232
  0
ARC
  5
73D
330
1D
100
AcDbEntity
  8
BLACK
100
AcDbCircle
 10
308.586332
 20
-65.690381
 30
0.0
 40
1.724936068561673
100
AcDbArc
 50
90.00016608000001
 51
159.45408213
  0
ARC
  5
73E
330
1D
100
AcDbEntity
  8
BLACK
100
AcDbCircle
 10
308.124802
 20
-52.586101
 30
0.0
 40
0.9284600003365787
100
AcDbArc
 50
202.02452102
 51
269.99845724
  0
ARC
  5
73F
330
1D
100
AcDbEntity
  8
BLACK
100
AcDbCircle
 10
308.990402
 20
-54.939501
 30
0.0
 40
1.424940000219307
100
AcDbArc
 50
359.99758749
 51
90.00100523000002
  0
ARC
  5
740
330
1D
100
AcDbEntity
  8
BLACK
100
AcDbCircle
 10
308.990242
 20
-62.540361
 30
0.0
 40
1.425125000561354
100
AcDbArc
 50
269.52631186
 51
359.99839184
  0
LINE
  5
743
330
1D
100
AcDbEntity
  8
BLACK
  6
Continuous
100
AcDbLine
 10
85.996758
 20
-86.205202
 30
0.0
 11
87.577041
 21
-78.770556
 31
0.0
  0
LINE
  5
744
330
1D
100
AcDbEntity
  8
BLACK
  6
Continuous
100
AcDbLine
 10
89.27896899999999
 20
-77.675333
 30
0.0
 11
90.113879
 21
-77.85279899999999
 31
0.0
  0
LINE
  5
745
330
1D
100
AcDbEntity
  8
BLACK
  6
Continuous
100
AcDbLine
 10
87.489604
 20
-87.979351
 30
0.0
 11
87.09433399999999
 21
-87.89533399999999
 31
0.0
  0
LINE
  5
746
330
1D
100
AcDbEntity
  8
BLACK
  6
Continuous
100
AcDbLine
 10
90.11388199999999
 20
-77.85278699999999
 30
0.0
 11
90.113879
 21
-77.85279899999999
 31
0.0
  0
LINE
  5
747
330
1D
100
AcDbEntity
  8
BLACK
  6
Continuous
100
AcDbLine
 10
92.19093099999999
 20
-77.014156
 30
0.0
 11
115.524838
 21
-81.973931
 31
0.0
  0
LINE
  5
748
330
1D
100
AcDbEntity
  8
BLACK
  6
Continuous
100
AcDbLine
 10
92.190929
 20
-77.014167
 30
0.0
 11
92.19093099999999
 21
-77.014156
 31
0.0
  0
LINE
  5
749
330
1D
100
AcDbEntity
  8
BLACK
  6
Continuous
100
AcDbLine
 10
111.576702
 20
-95.48789
 30
0.0
 11
90.30116
 21
-90.965634
 31
0.0
  0
LINE
  5
74A
330
1D
100
AcDbEntity
  8
BLACK
  6
Continuous
100
AcDbLine
 10
117.081115
 20
-83.584862
 30
0.0
 11
117.9278
 21
-83.76482999999999
 31
0.0
  0
LINE
  5
74B
330
1D
100
AcDbEntity
  8
BLACK
  6
Continuous
100
AcDbLine
 10
115.743283
 20
-93.984856
 30
0.0
 11
115.359719
 21
-93.90332699999999
 31
0.0
  0
LINE
  5
74C
330
1D
100
AcDbEntity
  8
BLACK
  6
Continuous
100
AcDbLine
 10
119.025376
 20
-85.45496299999999
 30
0.0
 11
117.445073
 21
-92.88970599999999
 31
0.0
  0
ARC
  5
74D
330
1D
100
AcDbEntity
  8
BLACK
100
AcDbCircle
 10
88.971004
 20
-79.06674199999999
 30
0.0
 40
1.425082100078799
100
AcDbArc
 50
77.51974185
 51
168.00432524
  0
ARC
  5
74E
330
1D
100
AcDbEntity
  8
BLACK
100
AcDbCircle
 10
87.39062
 20
-86.501475
 30
0.0
 40
1.425001159886194
100
AcDbArc
 50
168.00005955
 51
257.9995232
  0
ARC
  5
74F
330
1D
100
AcDbEntity
  8
BLACK
100
AcDbCircle
 10
87.130952
 20
-89.666561
 30
0.0
 40
1.724908357334963
100
AcDbArc
 50
8.54548698
 51
77.99920581
  0
ARC
  5
750
330
1D
100
AcDbEntity
  8
BLACK
100
AcDbCircle
 10
90.30695
 20
-76.94470799999999
 30
0.0
 40
0.9283762644989367
100
AcDbArc
 50
257.9969906800001
 51
325.97784425
  0
ARC
  5
751
330
1D
100
AcDbEntity
  8
BLACK
100
AcDbCircle
 10
91.967338
 20
-78.065596
 30
0.0
 40
1.074940539983957
100
AcDbArc
 50
77.99463687
 51
145.97750227
  0
ARC
  5
752
330
1D
100
AcDbEntity
  8
BLACK
100
AcDbCircle
 10
90.690883
 20
-89.13158899999999
 30
0.0
 40
1.874994687660208
100
AcDbArc
 50
188.546909
 51
258.0034463
  0
ARC
  5
753
330
1D
100
AcDbEntity
  8
BLACK
100
AcDbCircle
 10
115.301301
 20
-83.02542299999999
 30
0.0
 40
1.074990333181187
100
AcDbArc
 50
10.02372311
 51
77.99815049999998
  0
ARC
  5
754
330
1D
100
AcDbEntity
  8
BLACK
100
AcDbCircle
 10
111.96647
 20
-93.653767
 30
0.0
 40
1.875082643488548
100
AcDbArc
 50
258.00259669
 51
327.45097307
  0
ARC
  5
755
330
1D
100
AcDbEntity
  8
BLACK
100
AcDbCircle
 10
115.001089
 20
-95.59057399999999
 30
0.0
 40
1.724935945343478
100
AcDbArc
 50
78.00017613
 51
147.45408252
  0
ARC
  5
756
330
1D
100
AcDbEntity
  8
BLACK
100
AcDbCircle
 10
117.274177
 20
-82.67669599999999
 30
0.0
 40
0.9284602411519838
100
AcDbArc
 50
190.02453805
 51
257.99846936
  0
ARC
  5
757
330
1D
100
AcDbEntity
  8
BLACK
100
AcDbCircle
 10
117.631562
 20
-85.158637
 30
0.0
 40
1.424940316607331
100
AcDbArc
 50
347.9975738
 51
78.00097632
  0
ARC
  5
758
330
1D
100
AcDbEntity
  8
BLACK
100
AcDbCircle
 10
116.051098
 20
-92.593367
 30
0.0
 40
1.425125644827852
100
AcDbArc
 50
257.526325
 51
347.99840862
  0
LINE
  5
75B
330
1D
100
AcDbEntity
  8
BLACK
  6
Continuous
100
AcDbLine
 10
126.549997
 20
-86.413499
 30
0.0
 11
124.481275
 21
-96.146068
 31
0.0
  0
LINE
  5
75C
330
1D
100
AcDbEntity
  8
BLACK
  6
Continuous
100
AcDbLine
 10
139.330527
 20
-87.00872799999999
 30
0.0
 11
129.011069
 21
-84.815259
 31
0.0
  0
LINE
  5
75D
330
1D
100
AcDbEntity
  8
BLACK
  6
Continuous
100
AcDbLine
 10
136.398972
 20
-100.800609
 30
0.0
 11
126.079515
 21
-98.60714
 31
0.0
  0
LINE
  5
75E
330
1D
100
AcDbEntity
  8
BLACK
  6
Continuous
100
AcDbLine
 10
140.928767
 20
-89.46980099999999
 30
0.0
 11
138.860045
 21
-99.20236899999999
 31
0.0
  0
ARC
  5
75F
330
1D
100
AcDbEntity
  8
BLACK
100
AcDbCircle
 10
128.579656
 20
-86.84492
 30
0.0
 40
2.075003550725155
100
AcDbArc
 50
78.00012866
 51
167.9999011
  0
ARC
  5
760
330
1D
100
AcDbEntity
  8
BLACK
100
AcDbCircle
 10
126.510934
 20
-96.577483
 30
0.0
 40
2.075001178604484
100
AcDbArc
 50
168.00006316
 51
257.9999436399999
  0
ARC
  5
761
330
1D
100
AcDbEntity
  8
BLACK
100
AcDbCircle
 10
138.89911
 20
-89.038384
 30
0.0
 40
2.074999784632519
100
AcDbArc
 50
347.99999766
 51
77.99999192
  0
ARC
  5
762
330
1D
100
AcDbEntity
  8
BLACK
100
AcDbCircle
 10
136.830389
 20
-98.770952
 30
0.0
 40
2.074999784632519
100
AcDbArc
 50
257.99999766
 51
347.99999192
  0
CIRCLE
  5
767
330
1D
100
AcDbEntity
  8
BLACK
100
AcDbCircle
 10
31.457729
 20
-40.239998
 30
0.0
 40
1.325
  0
CIRCLE
  5
768
330
1D
100
AcDbEntity
  8
BLACK
100
AcDbCircle
 10
31.457729
 20
-40.239998
 30
0.0
 40
1.775
  0
CIRCLE
  5
769
330
1D
100
AcDbEntity
  8
BLACK
100
AcDbCircle
 10
59.85314
 20
-78.85963699999999
 30
0.0
 40
1.325
  0
CIRCLE
  5
76A
330
1D
100
AcDbEntity
  8
BLACK
100
AcDbCircle
 10
59.85314
 20
-78.85963699999999
 30
0.0
 40
1.775
  0
CIRCLE
  5
76B
330
1D
100
AcDbEntity
  8
BLACK
100
AcDbCircle
 10
5.861241
 20
-78.340003
 30
0.0
 40
1.325
  0
CIRCLE
  5
76C
330
1D
100
AcDbEntity
  8
BLACK
100
AcDbCircle
 10
5.861241
 20
-78.340003
 30
0.0
 40
1.775
  0
CIRCLE
  5
76D
330
1D
100
AcDbEntity
  8
BLACK
100
AcDbCircle
 10
24.915046
 20
-78.340007
 30
0.0
 40
1.325
  0
CIRCLE
  5
76E
330
1D
100
AcDbEntity
  8
BLACK
100
AcDbCircle
 10
24.915046
 20
-78.340007
 30
0.0
 40
1.775
  0
CIRCLE
  5
76F
330
1D
100
AcDbEntity
  8
BLACK
100
AcDbCircle
 10
-9.525008999999999
 20
0.000001
 30
0.0
 40
1.325
  0
CIRCLE
  5
770
330
1D
100
AcDbEntity
  8
BLACK
100
AcDbCircle
 10
-9.525008999999999
 20
0.000001
 30
0.0
 40
1.775
  0
CIRCLE
  5
771
330
1D
100
AcDbEntity
  8
BLACK
100
AcDbCircle
 10
146.428168
 20
-17.822554
 30
0.0
 40
1.325
  0
CIRCLE
  5
772
330
1D
100
AcDbEntity
  8
BLACK
100
AcDbCircle
 10
146.428168
 20
-17.822554
 30
0.0
 40
1.775
  0
CIRCLE
  5
773
330
1D
100
AcDbEntity
  8
BLACK
100
AcDbCircle
 10
58.61313699999999
 20
-18.629639
 30
0.0
 40
1.325
  0
CIRCLE
  5
774
330
1D
100
AcDbEntity
  8
BLACK
100
AcDbCircle
 10
58.61313699999999
 20
-18.629639
 30
0.0
 40
1.775
  0
CIRCLE
  5
775
330
1D
100
AcDbEntity
  8
BLACK
100
AcDbCircle
 10
77.946893
 20
-42.220365
 30
0.0
 40
1.325
  0
CIRCLE
  5
776
330
1D
100
AcDbEntity
  8
BLACK
100
AcDbCircle
 10
77.946893
 20
-42.220365
 30
0.0
 40
1.775
  0
CIRCLE
  5
777
330
1D
100
AcDbEntity
  8
BLACK
100
AcDbCircle
 10
114.514275
 20
-30.51179
 30
0.0
 40
1.325
  0
CIRCLE
  5
778
330
1D
100
AcDbEntity
  8
BLACK
100
AcDbCircle
 10
114.514275
 20
-30.51179
 30
0.0
 40
1.775
  0
CIRCLE
  5
779
330
1D
100
AcDbEntity
  8
BLACK
100
AcDbCircle
 10
32.545039
 20
-2.139998
 30
0.0
 40
1.325
  0
CIRCLE
  5
77A
330
1D
100
AcDbEntity
  8
BLACK
100
AcDbCircle
 10
32.545039
 20
-2.139998
 30
0.0
 40
1.775
  0
CIRCLE
  5
77B
330
1D
100
AcDbEntity
  8
BLACK
100
AcDbCircle
 10
9.332478
 20
-19.999367
 30
0.0
 40
1.325
  0
CIRCLE
  5
77C
330
1D
100
AcDbEntity
  8
BLACK
100
AcDbCircle
 10
9.332478
 20
-19.999367
 30
0.0
 40
1.775
  0
CIRCLE
  5
77D
330
1D
100
AcDbEntity
  8
BLACK
100
AcDbCircle
 10
7.644799
 20
-40.240001
 30
0.0
 40
1.325
  0
CIRCLE
  5
77E
330
1D
100
AcDbEntity
  8
BLACK
100
AcDbCircle
 10
7.644799
 20
-40.240001
 30
0.0
 40
1.775
  0
CIRCLE
  5
77F
330
1D
100
AcDbEntity
  8
BLACK
100
AcDbCircle
 10
133.848036
 20
-54.10251599999999
 30
0.0
 40
1.325
  0
CIRCLE
  5
780
330
1D
100
AcDbEntity
  8
BLACK
100
AcDbCircle
 10
133.848036
 20
-54.10251599999999
 30
0.0
 40
1.775
  0
CIRCLE
  5
781
330
1D
100
AcDbEntity
  8
BLACK
100
AcDbCircle
 10
90.526893
 20
-5.940361999999999
 30
0.0
 40
1.325
  0
CIRCLE
  5
782
330
1D
100
AcDbEntity
  8
BLACK
100
AcDbCircle
 10
90.526893
 20
-5.940361999999999
 30
0.0
 40
1.775
  0
CIRCLE
  5
783
330
1D
100
AcDbEntity
  8
BLACK
100
AcDbCircle
 10
146.539123
 20
-76.27291699999999
 30
0.0
 40
1.325
  0
CIRCLE
  5
784
330
1D
100
AcDbEntity
  8
BLACK
100
AcDbCircle
 10
146.539123
 20
-76.27291699999999
 30
0.0
 40
1.775
  0
CIRCLE
  5
785
330
1D
100
AcDbEntity
  8
BLACK
100
AcDbCircle
 10
120.56427
 20
-70.751789
 30
0.0
 40
1.325
  0
CIRCLE
  5
786
330
1D
100
AcDbEntity
  8
BLACK
100
AcDbCircle
 10
120.56427
 20
-70.751789
 30
0.0
 40
1.775
  0
CIRCLE
  5
787
330
1D
100
AcDbEntity
  8
BLACK
100
AcDbCircle
 10
144.34401
 20
-95.281875
 30
0.0
 40
1.325
  0
CIRCLE
  5
788
330
1D
100
AcDbEntity
  8
BLACK
100
AcDbCircle
 10
144.34401
 20
-95.281875
 30
0.0
 40
1.775
  0
CIRCLE
  5
789
330
1D
100
AcDbEntity
  8
BLACK
100
AcDbCircle
 10
209.75328
 20
-62.830336
 30
0.0
 40
1.325
  0
CIRCLE
  5
78A
330
1D
100
AcDbEntity
  8
BLACK
100
AcDbCircle
 10
209.75328
 20
-62.830336
 30
0.0
 40
1.775
  0
CIRCLE
  5
78B
330
1D
100
AcDbEntity
  8
BLACK
100
AcDbCircle
 10
159.212005
 20
-54.10252
 30
0.0
 40
1.325
  0
CIRCLE
  5
78C
330
1D
100
AcDbEntity
  8
BLACK
100
AcDbCircle
 10
159.212005
 20
-54.10252
 30
0.0
 40
1.775
  0
CIRCLE
  5
78D
330
1D
100
AcDbEntity
  8
BLACK
100
AcDbCircle
 10
230.487031
 20
0.00039
 30
0.0
 40
1.325
  0
CIRCLE
  5
78E
330
1D
100
AcDbEntity
  8
BLACK
100
AcDbCircle
 10
230.487031
 20
0.00039
 30
0.0
 40
1.775
  0
CIRCLE
  5
78F
330
1D
100
AcDbEntity
  8
BLACK
100
AcDbCircle
 10
233.196897
 20
-78.85964
 30
0.0
 40
1.325
  0
CIRCLE
  5
790
330
1D
100
AcDbEntity
  8
BLACK
100
AcDbCircle
 10
233.196897
 20
-78.85964
 30
0.0
 40
1.775
  0
CIRCLE
  5
791
330
1D
100
AcDbEntity
  8
BLACK
100
AcDbCircle
 10
174.585759
 20
-11.881791
 30
0.0
 40
1.325
  0
CIRCLE
  5
792
330
1D
100
AcDbEntity
  8
BLACK
100
AcDbCircle
 10
174.585759
 20
-11.881791
 30
0.0
 40
1.775
  0
CIRCLE
  5
793
330
1D
100
AcDbEntity
  8
BLACK
100
AcDbCircle
 10
285.896291
 20
-21.190001
 30
0.0
 40
1.325
  0
CIRCLE
  5
794
330
1D
100
AcDbEntity
  8
BLACK
100
AcDbCircle
 10
285.896291
 20
-21.190001
 30
0.0
 40
1.775
  0
CIRCLE
  5
795
330
1D
100
AcDbEntity
  8
BLACK
100
AcDbCircle
 10
271.7175
 20
-59.290003
 30
0.0
 40
1.325
  0
CIRCLE
  5
796
330
1D
100
AcDbEntity
  8
BLACK
100
AcDbCircle
 10
271.7175
 20
-59.290003
 30
0.0
 40
1.775
  0
CIRCLE
  5
797
330
1D
100
AcDbEntity
  8
BLACK
100
AcDbCircle
 10
233.746895
 20
-38.259643
 30
0.0
 40
1.325
  0
CIRCLE
  5
798
330
1D
100
AcDbEntity
  8
BLACK
100
AcDbCircle
 10
233.746895
 20
-38.259643
 30
0.0
 40
1.775
  0
CIRCLE
  5
799
330
1D
100
AcDbEntity
  8
BLACK
100
AcDbCircle
 10
206.493176
 20
-24.570359
 30
0.0
 40
1.325
  0
CIRCLE
  5
79A
330
1D
100
AcDbEntity
  8
BLACK
100
AcDbCircle
 10
206.493176
 20
-24.570359
 30
0.0
 40
1.775
  0
CIRCLE
  5
79B
330
1D
100
AcDbEntity
  8
BLACK
100
AcDbCircle
 10
169.225253
 20
-32.491898
 30
0.0
 40
1.325
  0
CIRCLE
  5
79C
330
1D
100
AcDbEntity
  8
BLACK
100
AcDbCircle
 10
169.225253
 20
-32.491898
 30
0.0
 40
1.775
  0
CIRCLE
  5
79D
330
1D
100
AcDbEntity
  8
BLACK
100
AcDbCircle
 10
172.485762
 20
-70.751791
 30
0.0
 40
1.325
  0
CIRCLE
  5
79E
330
1D
100
AcDbEntity
  8
BLACK
100
AcDbCircle
 10
172.485762
 20
-70.751791
 30
0.0
 40
1.775
  0
CIRCLE
  5
79F
330
1D
100
AcDbEntity
  8
BLACK
100
AcDbCircle
 10
312.090643
 20
-78.388003
 30
0.0
 40
1.325
  0
CIRCLE
  5
7A0
330
1D
100
AcDbEntity
  8
BLACK
100
AcDbCircle
 10
312.090643
 20
-78.388003
 30
0.0
 40
1.775
  0
CIRCLE
  5
7A1
330
1D
100
AcDbEntity
  8
BLACK
100
AcDbCircle
 10
293.040595
 20
-78.388001
 30
0.0
 40
1.325
  0
CIRCLE
  5
7A2
330
1D
100
AcDbEntity
  8
BLACK
100
AcDbCircle
 10
293.040595
 20
-78.388001
 30
0.0
 40
1.775
  0
CIRCLE
  5
7A3
330
1D
100
AcDbEntity
  8
BLACK
100
AcDbCircle
 10
278.53625
 20
-47.439999
 30
0.0
 40
1.325
  0
CIRCLE
  5
7A4
330
1D
100
AcDbEntity
  8
BLACK
100
AcDbCircle
 10
278.53625
 20
-47.439999
 30
0.0
 40
1.775
  0
CIRCLE
  5
7A5
330
1D
100
AcDbEntity
  8
BLACK
100
AcDbCircle
 10
311.33625
 20
-47.439999
 30
0.0
 40
1.325
  0
CIRCLE
  5
7A6
330
1D
100
AcDbEntity
  8
BLACK
100
AcDbCircle
 10
311.33625
 20
-47.439999
 30
0.0
 40
1.775
  0
CIRCLE
  5
7A7
330
1D
100
AcDbEntity
  8
BLACK
100
AcDbCircle
 10
168.925343
 20
-98.352412
 30
0.0
 40
1.325
  0
CIRCLE
  5
7A8
330
1D
100
AcDbEntity
  8
BLACK
100
AcDbCircle
 10
168.925343
 20
-98.352412
 30
0.0
 40
1.775
  0
CIRCLE
  5
7A9
330
1D
100
AcDbEntity
  8
BLACK
100
AcDbCircle
 10
201.008584
 20
-91.53290899999999
 30
0.0
 40
1.325
  0
CIRCLE
  5
7AA
330
1D
100
AcDbEntity
  8
BLACK
100
AcDbCircle
 10
201.008584
 20
-91.53290899999999
 30
0.0
 40
1.775
  0
CIRCLE
  5
7AB
330
1D
100
AcDbEntity
  8
BLACK
100
AcDbCircle
 10
6.129999
 20
-66.489998
 30
0.0
 40
1.325
  0
CIRCLE
  5
7AC
330
1D
100
AcDbEntity
  8
BLACK
100
AcDbCircle
 10
6.129999
 20
-66.489998
 30
0.0
 40
1.775
  0
CIRCLE
  5
7AD
330
1D
100
AcDbEntity
  8
BLACK
100
AcDbCircle
 10
38.929999
 20
-66.489998
 30
0.0
 40
1.325
  0
CIRCLE
  5
7AE
330
1D
100
AcDbEntity
  8
BLACK
100
AcDbCircle
 10
38.929999
 20
-66.489998
 30
0.0
 40
1.775
  0
CIRCLE
  5
7AF
330
1D
100
AcDbEntity
  8
BLACK
100
AcDbCircle
 10
272.474999
 20
-9.34
 30
0.0
 40
1.325
  0
CIRCLE
  5
7B0
330
1D
100
AcDbEntity
  8
BLACK
100
AcDbCircle
 10
272.474999
 20
-9.34
 30
0.0
 40
1.775
  0
CIRCLE
  5
7B1
330
1D
100
AcDbEntity
  8
BLACK
100
AcDbCircle
 10
305.274999
 20
-9.34
 30
0.0
 40
1.325
  0
CIRCLE
  5
7B2
330
1D
100
AcDbEntity
  8
BLACK
100
AcDbCircle
 10
305.274999
 20
-9.34
 30
0.0
 40
1.775
  0
CIRCLE
  5
7B3
330
1D
100
AcDbEntity
  8
BLACK
100
AcDbCircle
 10
277.940002
 20
-66.49000099999999
 30
0.0
 40
1.325
  0
CIRCLE
  5
7B4
330
1D
100
AcDbEntity
  8
BLACK
100
AcDbCircle
 10
277.940002
 20
-66.49000099999999
 30
0.0
 40
1.775
  0
CIRCLE
  5
7B5
330
1D
100
AcDbEntity
  8
BLACK
100
AcDbCircle
 10
310.740002
 20
-66.49000099999999
 30
0.0
 40
1.325
  0
CIRCLE
  5
7B6
330
1D
100
AcDbEntity
  8
BLACK
100
AcDbCircle
 10
310.740002
 20
-66.49000099999999
 30
0.0
 40
1.775
  0
CIRCLE
  5
7B7
330
1D
100
AcDbEntity
  8
BLACK
100
AcDbCircle
 10
84.858204
 20
-90.00099
 30
0.0
 40
1.325
  0
CIRCLE
  5
7B8
330
1D
100
AcDbEntity
  8
BLACK
100
AcDbCircle
 10
84.858204
 20
-90.00099
 30
0.0
 40
1.775
  0
CIRCLE
  5
7B9
330
1D
100
AcDbEntity
  8
BLACK
100
AcDbCircle
 10
116.941445
 20
-96.820493
 30
0.0
 40
1.325
  0
CIRCLE
  5
7BA
330
1D
100
AcDbEntity
  8
BLACK
100
AcDbCircle
 10
116.941445
 20
-96.820493
 30
0.0
 40
1.775
  0
ENDSEC
  0
SECTION
  2
OBJECTS
  0
DICTIONARY
  5
C
330
0
100
AcDbDictionary
281
     1
  3
ACAD_COLOR
350
710
  3
ACAD_DETAILVIEWSTYLE
350
708
  3
ACAD_GROUP
350
D
  3
ACAD_LAYOUT
350
1A
  3
ACAD_MATERIAL
350
6F8
  3
ACAD_MLEADERSTYLE
350
6FE
  3
ACAD_MLINESTYLE
350
17
  3
ACAD_PLOTSETTINGS
350
19
  3
ACAD_PLOTSTYLENAME
350
E
  3
ACAD_SCALELIST
350
6C9
  3
ACAD_SECTIONVIEWSTYLE
350
709
  3
ACAD_TABLESTYLE
350
6FC
  3
ACAD_VISUALSTYLE
350
6DF
  3
AcDbVariableDictionary
350
700
  3
ACDB_RECOMPOSE_DATA
350
7BD
  3
EZDXF_META
350
765
  0
DICTIONARY
  5
710
330
C
100
AcDbDictionary
281
     1
  0
DICTIONARY
  5
708
102
{ACAD_REACTORS
330
C
102
}
330
C
100
AcDbDictionary
281
     1
  0
DICTIONARY
  5
D
102
{ACAD_REACTORS
330
C
102
}
330
C
100
AcDbDictionary
281
     1
  0
DICTIONARY
  5
1A
102
{ACAD_REACTORS
330
C
102
}
330
C
100
AcDbDictionary
281
     1
  3
Layout1
350
1C
  3
Model
350
1E
  0
DICTIONARY
  5
6F8
102
{ACAD_REACTORS
330
C
102
}
330
C
100
AcDbDictionary
281
     1
  3
ByBlock
350
6FA
  3
ByLayer
350
6F9
  3
Global
350
6FB
  0
DICTIONARY
  5
6FE
102
{ACAD_REACTORS
330
C
102
}
330
C
100
AcDbDictionary
281
     1
  3
Standard
350
6FF
  0
DICTIONARY
  5
17
102
{ACAD_REACTORS
330
C
102
}
330
C
100
AcDbDictionary
281
     1
  3
Standard
350
18
  0
DICTIONARY
  5
19
102
{ACAD_REACTORS
330
C
102
}
330
C
100
AcDbDictionary
281
     1
  0
ACDBDICTIONARYWDFLT
  5
E
102
{ACAD_REACTORS
330
C
102
}
330
C
100
AcDbDictionary
281
     1
  3
Normal
350
F
100
AcDbDictionaryWithDefault
340
F
  0
DICTIONARY
  5
6C9
102
{ACAD_REACTORS
330
C
102
}
330
C
100
AcDbDictionary
281
     1
  3
A0
350
6CA
  3
A1
350
6CB
  3
A2
350
6CC
  3
A3
350
6CD
  3
A4
350
6CE
  3
A5
350
6CF
  3
A6
350
6D0
  3
A7
350
6D1
  3
A8
350
6D2
  3
A9
350
6D3
  3
B0
350
6D4
  3
B1
350
6D5
  3
B2
350
6D6
  3
B3
350
6D7
  3
B4
350
6D8
  3
B5
350
6D9
  3
B6
350
6DA
  0
DICTIONARY
  5
709
102
{ACAD_REACTORS
330
C
102
}
330
C
100
AcDbDictionary
281
     1
  0
DICTIONARY
  5
6FC
102
{ACAD_REACTORS
330
C
102
}
330
C
100
AcDbDictionary
281
     1
  3
Standard
350
6FD
  0
DICTIONARY
  5
6DF
102
{ACAD_REACTORS
330
C
102
}
330
C
100
AcDbDictionary
281
     1
  3
2dWireframe
350
6E4
  3
Basic
350
6E7
  3
Brighten
350
6EB
  3
ColorChange
350
6EF
  3
Conceptual
350
6E9
  3
Dim
350
6EA
  3
EdgeColorOff
350
6F2
  3
Facepattern
350
6EE
  3
Flat
350
6E0
  3
FlatWithEdges
350
6E1
  3
Gouraud
350
6E2
  3
GouraudWithEdges
350
6E3
  3
Hidden
350
6E6
  3
JitterOff
350
6F0
  3
Linepattern
350
6ED
  3
OverhangOff
350
6F1
  3
Realistic
350
6E8
  3
Shaded
350
6F7
  3
Shaded with edges
350
6F6
  3
Shades of Gray
350
6F3
  3
Sketchy
350
6F4
  3
Thicken
350
6EC
  3
Wireframe
350
6E5
  3
X-Ray
350
6F5
  0
DICTIONARY
  5
700
102
{ACAD_REACTORS
330
C
102
}
330
C
100
AcDbDictionary
281
     1
  3
CANNOSCALE
350
701
  3
CMLEADERSTYLE
350
706
  3
CTABLESTYLE
350
705
  3
MSLTSCALE
350
707
  0
XRECORD
  5
7BD
102
{ACAD_REACTORS
330
C
102
}
330
C
100
AcDbXrecord
280
     1
 90
        1
330
6FD
  0
DICTIONARY
  5
765
330
C
100
AcDbDictionary
281
     1
  3
WRITTEN_BY_EZDXF
350
766
  0
LAYOUT
  5
1C
102
{ACAD_REACTORS
330
1A
102
}
330
1A
100
AcDbPlotSettings
  1

  2
none_device
  4

  6

 40
0.0
 41
0.0
 42
0.0
 43
0.0
 44
0.0
 45
0.0
 46
0.0
 47
0.0
 48
0.0
 49
0.0
140
0.0
141
0.0
142
1.0
143
1.0
 70
   688
 72
     0
 73
     0
 74
     5
  7

 75
    16
 76
     0
 77
     2
 78
   300
147
1.0
148
0.0
149
0.0
100
AcDbLayout
  1
Layout1
 70
     1
 71
     1
 10
0.0
 20
0.0
 11
12.0
 21
9.0
 12
0.0
 22
0.0
 32
0.0
 14
1.000000000000000E+20
 24
1.000000000000000E+20
 34
1.000000000000000E+20
 15
-1.000000000000000E+20
 25
-1.000000000000000E+20
 35
-1.000000000000000E+20
146
0.0
 13
0.0
 23
0.0
 33
0.0
 16
1.0
 26
0.0
 36
0.0
 17
0.0
 27
1.0
 37
0.0
 76
     0
330
1B
  0
LAYOUT
  5
1E
102
{ACAD_REACTORS
330
1A
102
}
330
1A
100
AcDbPlotSettings
  1

  2
none_device
  4
Letter_(8.50_x_11.00_Inches)
  6

 40
6.35
 41
6.35
 42
6.35000508
 43
6.35000508
 44
215.9
 45
279.4
 46
0.0
 47
0.0
 48
0.0
 49
0.0
140
0.0
141
0.0
142
1.0
143
1.0
 70
  1712
 72
     0
 73
     0
 74
     0
  7

 75
     0
 76
     0
 77
     2
 78
   300
147
1.0
148
0.0
149
0.0
100
AcDbLayout
  1
Model
 70
     1
 71
     0
 10
0.0
 20
0.0
 11
12.0
 21
9.0
 12
0.0
 22
0.0
 32
0.0
 14
1.000000000000000E+20
 24
1.000000000000000E+20
 34
1.000000000000000E+20
 15
-1.000000000000000E+20
 25
-1.000000000000000E+20
 35
-1.000000000000000E+20
146
0.0
 13
0.0
 23
0.0
 33
0.0
 16
1.0
 26
0.0
 36
0.0
 17
0.0
 27
1.0
 37
0.0
 76
     0
330
1D
331
442
  0
MATERIAL
  5
6FA
102
{ACAD_REACTORS
330
6F8
102
}
330
6F8
100
AcDbMaterial
  1
ByBlock
 72
     1
273
     1
 94
      127
  0
MATERIAL
  5
6F9
102
{ACAD_REACTORS
330
6F8
102
}
330
6F8
100
AcDbMaterial
  1
ByLayer
 72
     1
273
     1
 94
      127
  0
MATERIAL
  5
6FB
102
{ACAD_REACTORS
330
6F8
102
}
330
6F8
100
AcDbMaterial
  1
Global
 72
     1
273
     1
 94
      127
  0
MLEADERSTYLE
  5
6FF
102
{ACAD_REACTORS
330
6FE
102
}
330
6FE
100
AcDbMLeaderStyle
179
     2
170
     2
171
     1
172
     0
 90
        2
 40
0.0
 41
0.0
173
     1
 91
-1056964608
340
14
 92
       -2
290
     1
 42
2.0
291
     1
 43
8.0
  3
Standard
341
0
 44
4.0
300

342
11
174
     1
178
     6
175
     1
176
     0
 93
-1056964608
 45
4.0
292
     0
297
     0
 46
4.0
343
0
 94
-1056964608
 47
1.0
 49
1.0
140
1.0
293
     1
141
0.0
294
     1
177
     0
142
1.0
295
     0
296
     0
143
3.75
271
     0
272
     9
273
     9
298
     0
  0
MLINESTYLE
  5
18
102
{ACAD_REACTORS
330
17
102
}
330
17
100
AcDbMlineStyle
  2
Standard
 70
     0
  3

 62
   256
 51
90.0
 52
90.0
 71
     2
 49
0.5
 62
   256
  6
BYLAYER
 49
-0.5
 62
   256
  6
BYLAYER
  0
ACDBPLACEHOLDER
  5
F
102
{ACAD_REACTORS
330
E
102
}
330
E
  0
SCALE
  5
6CA
102
{ACAD_REACTORS
330
6C9
102
}
330
6C9
100
AcDbScale
 70
     0
300
1:1
140
1.0
141
1.0
290
     1
  0
SCALE
  5
6CB
102
{ACAD_REACTORS
330
6C9
102
}
330
6C9
100
AcDbScale
 70
     0
300
1:2
140
1.0
141
2.0
290
     0
  0
SCALE
  5
6CC
102
{ACAD_REACTORS
330
6C9
102
}
330
6C9
100
AcDbScale
 70
     0
300
1:4
140
1.0
141
4.0
290
     0
  0
SCALE
  5
6CD
102
{ACAD_REACTORS
330
6C9
102
}
330
6C9
100
AcDbScale
 70
     0
300
1:5
140
1.0
141
5.0
290
     0
  0
SCALE
  5
6CE
102
{ACAD_REACTORS
330
6C9
102
}
330
6C9
100
AcDbScale
 70
     0
300
1:8
140
1.0
141
8.0
290
     0
  0
SCALE
  5
6CF
102
{ACAD_REACTORS
330
6C9
102
}
330
6C9
100
AcDbScale
 70
     0
300
1:10
140
1.0
141
10.0
290
     0
  0
SCALE
  5
6D0
102
{ACAD_REACTORS
330
6C9
102
}
330
6C9
100
AcDbScale
 70
     0
300
1:16
140
1.0
141
16.0
290
     0
  0
SCALE
  5
6D1
102
{ACAD_REACTORS
330
6C9
102
}
330
6C9
100
AcDbScale
 70
     0
300
1:20
140
1.0
141
20.0
290
     0
  0
SCALE
  5
6D2
102
{ACAD_REACTORS
330
6C9
102
}
330
6C9
100
AcDbScale
 70
     0
300
1:30
140
1.0
141
30.0
290
     0
  0
SCALE
  5
6D3
102
{ACAD_REACTORS
330
6C9
102
}
330
6C9
100
AcDbScale
 70
     0
300
1:40
140
1.0
141
40.0
290
     0
  0
SCALE
  5
6D4
102
{ACAD_REACTORS
330
6C9
102
}
330
6C9
100
AcDbScale
 70
     0
300
1:50
140
1.0
141
50.0
290
     0
  0
SCALE
  5
6D5
102
{ACAD_REACTORS
330
6C9
102
}
330
6C9
100
AcDbScale
 70
     0
300
1:100
140
1.0
141
100.0
290
     0
  0
SCALE
  5
6D6
102
{ACAD_REACTORS
330
6C9
102
}
330
6C9
100
AcDbScale
 70
     0
300
2:1
140
2.0
141
1.0
290
     0
  0
SCALE
  5
6D7
102
{ACAD_REACTORS
330
6C9
102
}
330
6C9
100
AcDbScale
 70
     0
300
4:1
140
4.0
141
1.0
290
     0
  0
SCALE
  5
6D8
102
{ACAD_REACTORS
330
6C9
102
}
330
6C9
100
AcDbScale
 70
     0
300
8:1
140
8.0
141
1.0
290
     0
  0
SCALE
  5
6D9
102
{ACAD_REACTORS
330
6C9
102
}
330
6C9
100
AcDbScale
 70
     0
300
10:1
140
10.0
141
1.0
290
     0
  0
SCALE
  5
6DA
102
{ACAD_REACTORS
330
6C9
102
}
330
6C9
100
AcDbScale
 70
     0
300
100:1
140
100.0
141
1.0
290
     0
  0
TABLESTYLE
  5
6FD
102
{ACAD_REACTORS
330
6FC
102
}
102
{ACAD_XDICTIONARY
360
7BB
102
}
330
6FC
100
AcDbTableStyle
  3
Standard
 70
     0
 71
     0
 40
0.06
 41
0.06
280
     0
281
     0
  7
Standard
140
4.5
170
     2
 62
     0
 63
   257
283
     0
 90
        4
 91
        0
  1

274
    -2
284
     1
 64
     0
275
    -2
285
     1
 65
     0
276
    -2
286
     1
 66
     0
277
    -2
287
     1
 67
     0
278
    -2
288
     1
 68
     0
279
    -2
289
     1
 69
     0
  7
Standard
140
6.0
170
     5
 62
     0
 63
   257
283
     0
 90
        4
 91
        0
  1

274
    -2
284
     1
 64
     0
275
    -2
285
     1
 65
     0
276
    -2
286
     1
 66
     0
277
    -2
287
     1
 67
     0
278
    -2
288
     1
 68
     0
279
    -2
289
     1
 69
     0
  7
Standard
140
4.5
170
     5
 62
     0
 63
   257
283
     0
 90
        4
 91
        0
  1

274
    -2
284
     1
 64
     0
275
    -2
285
     1
 65
     0
276
    -2
286
     1
 66
     0
277
    -2
287
     1
 67
     0
278
    -2
288
     1
 68
     0
279
    -2
289
     1
 69
     0
  0
VISUALSTYLE
  5
6E4
102
{ACAD_REACTORS
330
6DF
102
}
330
6DF
100
AcDbVisualStyle
  2
2dWireframe
 70
     4
177
     3
291
     0
 70
    58
 90
        0
176
     1
 90
        2
176
     1
 90
        0
176
     1
 90
        0
176
     1
 40
0.6
176
     1
 40
30.0
176
     1
 62
     7
420
 16777215
176
     1
 90
        1
176
     1
 90
        4
176
     1
 62
     7
176
     1
 62
   257
176
     1
 90
        1
176
     1
 90
        1
176
     1
 40
1.0
176
     1
 90
        0
176
     1
 62
   257
176
     1
 40
1.0
176
     1
 90
        1
176
     1
 90
        6
176
     1
 90
        2
176
     1
 62
     7
176
     1
 90
        5
176
     1
 90
        0
176
     1
 90
        0
176
     1
290
     0
176
     1
 90
        1
176
     1
 40
0.0
176
     1
 90
        0
176
     1
290
     1
176
     1
290
     1
176
     1
290
     0
176
     1
290
     0
176
     1
290
     0
176
     1
290
     0
176
     1
290
     0
176
     1
290
     0
176
     1
290
     0
176
     1
 90
       50
176
     1
 40
0.0
176
     1
 40
1.0
176
     1
 90
        0
176
     1
 62
    18
420
        0
176
     1
 90
       50
176
     1
 90
        3
176
     1
 62
     5
420
      255
176
     1
290
     0
176
     1
 90
       50
176
     1
 90
       50
176
     1
 90
       50
176
     1
290
     0
176
     1
 90
       50
176
     1
 62
   256
176
     0
 40
1.0
176
     0
 90
        2
176
     1
  1
strokes_ogs.tif
176
     1
290
     0
176
     1
 40
1.0
176
     1
 40
1.0
176
     1
  0
VISUALSTYLE
  5
6E7
102
{ACAD_REACTORS
330
6DF
102
}
330
6DF
100
AcDbVisualStyle
  2
Basic
 70
     7
177
     3
291
     1
 70
    58
 90
        1
176
     1
 90
        0
176
     1
 90
        1
176
     1
 90
        0
176
     1
 40
0.6
176
     1
 40
30.0
176
     1
 62
     7
420
 16777215
176
     1
 90
        0
176
     1
 90
        4
176
     1
 62
     7
176
     1
 62
   257
176
     1
 90
        1
176
     1
 90
        1
176
     1
 40
1.0
176
     1
 90
        8
176
     1
 62
     7
176
     1
 40
1.0
176
     1
 90
        1
176
     1
 90
        6
176
     1
 90
        2
176
     1
 62
     7
176
     1
 90
        5
176
     1
 90
        0
176
     1
 90
        0
176
     1
290
     0
176
     1
 90
        1
176
     1
 40
0.0
176
     1
 90
        0
176
     1
290
     0
176
     1
290
     1
176
     1
290
     1
176
     1
290
     0
176
     1
290
     0
176
     1
290
     0
176
     1
290
     0
176
     1
290
     0
176
     1
290
     0
176
     1
 90
       50
176
     1
 40
0.0
176
     1
 40
1.0
176
     1
 90
        0
176
     1
 62
    18
420
        0
176
     1
 90
       50
176
     1
 90
        3
176
     1
 62
     5
420
      255
176
     1
290
     0
176
     1
 90
       50
176
     1
 90
       50
176
     1
 90
       50
176
     1
290
     0
176
     1
 90
       50
176
     1
 62
   256
176
     0
 40
1.0
176
     0
 90
        2
176
     1
  1
strokes_ogs.tif
176
     1
290
     0
176
     1
 40
1.0
176
     1
 40
1.0
176
     1
  0
VISUALSTYLE
  5
6EB
102
{ACAD_REACTORS
330
6DF
102
}
330
6DF
100
AcDbVisualStyle
  2
Brighten
 70
    12
177
     3
291
     1
 70
    58
 90
        2
176
     1
 90
        2
176
     1
 90
        0
176
     1
 90
        0
176
     1
 40
0.6
176
     1
 40
30.0
176
     1
 62
     7
420
 16777215
176
     1
 90
        1
176
     1
 90
        4
176
     1
 62
     7
176
     1
 62
   257
176
     1
 90
        1
176
     1
 90
        1
176
     1
 40
1.0
176
     1
 90
        8
176
     1
 62
     7
176
     1
 40
1.0
176
     1
 90
        1
176
     1
 90
        6
176
     1
 90
        2
176
     1
 62
     7
176
     1
 90
        5
176
     1
 90
        0
176
     1
 90
        0
176
     1
290
     0
176
     1
 90
        1
176
     1
 40
50.0
176
     1
 90
        0
176
     1
290
     0
176
     1
290
     1
176
     1
290
     1
176
     1
290
     0
176
     1
290
     0
176
     1
290
     0
176
     1
290
     0
176
     1
290
     0
176
     1
290
     0
176
     1
 90
       50
176
     1
 40
0.0
176
     1
 40
1.0
176
     1
 90
        0
176
     1
 62
    18
420
        0
176
     1
 90
       50
176
     1
 90
        3
176
     1
 62
     5
420
      255
176
     1
290
     0
176
     1
 90
       50
176
     1
 90
       50
176
     1
 90
       50
176
     1
290
     0
176
     1
 90
       50
176
     1
 62
   256
176
     0
 40
1.0
176
     0
 90
        2
176
     1
  1
strokes_ogs.tif
176
     1
290
     0
176
     1
 40
1.0
176
     1
 40
1.0
176
     1
  0
VISUALSTYLE
  5
6EF
102
{ACAD_REACTORS
330
6DF
102
}
330
6DF
100
AcDbVisualStyle
  2
ColorChange
 70
    16
177
     3
291
     1
 70
    58
 90
        2
176
     1
 90
        2
176
     1
 90
        3
176
     1
 90
        0
176
     1
 40
0.6
176
     1
 40
30.0
176
     1
 62
     8
420
  8421504
176
     1
 90
        1
176
     1
 90
        4
176
     1
 62
     7
176
     1
 62
   257
176
     1
 90
        1
176
     1
 90
        1
176
     1
 40
1.0
176
     1
 90
        8
176
     1
 62
     8
420
  8421504
176
     1
 40
1.0
176
     1
 90
        1
176
     1
 90
        6
176
     1
 90
        2
176
     1
 62
     7
176
     1
 90
        5
176
     1
 90
        0
176
     1
 90
        0
176
     1
290
     0
176
     1
 90
        1
176
     1
 40
0.0
176
     1
 90
        0
176
     1
290
     0
176
     1
290
     1
176
     1
290
     1
176
     1
290
     0
176
     1
290
     0
176
     1
290
     0
176
     1
290
     0
176
     1
290
     0
176
     1
290
     0
176
     1
 90
       50
176
     1
 40
0.0
176
     1
 40
1.0
176
     1
 90
        0
176
     1
 62
    18
420
        0
176
     1
 90
       50
176
     1
 90
        3
176
     1
 62
     5
420
      255
176
     1
290
     0
176
     1
 90
       50
176
     1
 90
       50
176
     1
 90
       50
176
     1
290
     0
176
     1
 90
       50
176
     1
 62
   256
176
     0
 40
1.0
176
     0
 90
        2
176
     1
  1
strokes_ogs.tif
176
     1
290
     0
176
     1
 40
1.0
176
     1
 40
1.0
176
     1
  0
VISUALSTYLE
  5
6E9
102
{ACAD_REACTORS
330
6DF
102
}
330
6DF
100
AcDbVisualStyle
  2
Conceptual
 70
     9
177
     3
291
     0
 70
    58
 90
        3
176
     1
 90
        2
176
     1
 90
        0
176
     1
 90
        0
176
     1
 40
0.6
176
     1
 40
30.0
176
     1
 62
     7
420
 16777215
176
     1
 90
        2
176
     1
 90
        2
176
     1
 62
     7
176
     1
 62
   257
176
     1
 90
        1
176
     1
 90
        1
176
     1
 40
179.0
176
     1
 90
        8
176
     1
 62
     7
176
     1
 40
1.0
176
     1
 90
        1
176
     1
 90
        6
176
     1
 90
        2
176
     1
 62
     7
176
     1
 90
        3
176
     1
 90
        0
176
     1
 90
        0
176
     1
290
     0
176
     1
 90
        1
176
     1
 40
0.0
176
     1
 90
        0
176
     1
290
     0
176
     1
290
     1
176
     1
290
     1
176
     1
290
     0
176
     1
290
     0
176
     1
290
     0
176
     1
290
     0
176
     1
290
     0
176
     1
290
     0
176
     1
 90
       50
176
     1
 40
0.0
176
     1
 40
1.0
176
     1
 90
        0
176
     1
 62
    18
420
        0
176
     1
 90
       50
176
     1
 90
        3
176
     1
 62
     5
420
      255
176
     1
290
     0
176
     1
 90
       50
176
     1
 90
       50
176
     1
 90
       50
176
     1
290
     0
176
     1
 90
       50
176
     1
 62
   256
176
     0
 40
1.0
176
     0
 90
        2
176
     1
  1
strokes_ogs.tif
176
     1
290
     0
176
     1
 40
1.0
176
     1
 40
1.0
176
     1
  0
VISUALSTYLE
  5
6EA
102
{ACAD_REACTORS
330
6DF
102
}
330
6DF
100
AcDbVisualStyle
  2
Dim
 70
    11
177
     3
291
     1
 70
    58
 90
        2
176
     1
 90
        2
176
     1
 90
        0
176
     1
 90
        0
176
     1
 40
0.6
176
     1
 40
30.0
176
     1
 62
     7
420
 16777215
176
     1
 90
        1
176
     1
 90
        4
176
     1
 62
     7
176
     1
 62
   257
176
     1
 90
        1
176
     1
 90
        1
176
     1
 40
1.0
176
     1
 90
        8
176
     1
 62
     7
176
     1
 40
1.0
176
     1
 90
        1
176
     1
 90
        6
176
     1
 90
        2
176
     1
 62
     7
176
     1
 90
        5
176
     1
 90
        0
176
     1
 90
        0
176
     1
290
     0
176
     1
 90
        1
176
     1
 40
-50.0
176
     1
 90
        0
176
     1
290
     0
176
     1
290
     1
176
     1
290
     1
176
     1
290
     0
176
     1
290
     0
176
     1
290
     0
176
     1
290
     0
176
     1
290
     0
176
     1
290
     0
176
     1
 90
       50
176
     1
 40
0.0
176
     1
 40
1.0
176
     1
 90
        0
176
     1
 62
    18
420
        0
176
     1
 90
       50
176
     1
 90
        3
176
     1
 62
     5
420
      255
176
     1
290
     0
176
     1
 90
       50
176
     1
 90
       50
176
     1
 90
       50
176
     1
290
     0
176
     1
 90
       50
176
     1
 62
   256
176
     0
 40
1.0
176
     0
 90
        2
176
     1
  1
strokes_ogs.tif
176
     1
290
     0
176
     1
 40
1.0
176
     1
 40
1.0
176
     1
  0
VISUALSTYLE
  5
6F2
102
{ACAD_REACTORS
330
6DF
102
}
330
6DF
100
AcDbVisualStyle
  2
EdgeColorOff
 70
    22
177
     3
291
     1
 70
    58
 90
        2
176
     0
 90
        2
176
     0
 90
        0
176
     0
 90
        0
176
     0
 40
0.6
176
     0
 40
30.0
176
     0
 62
     7
420
 16777215
176
     0
 90
        1
176
     0
 90
        4
176
     0
 62
     7
176
     0
 62
   257
176
     0
 90
        1
176
     0
 90
        1
176
     0
 40
1.0
176
     0
 90
        8
176
     2
 62
     7
176
     0
 40
1.0
176
     0
 90
        1
176
     0
 90
        6
176
     0
 90
        2
176
     0
 62
     7
176
     0
 90
        5
176
     0
 90
        0
176
     0
 90
        0
176
     0
290
     0
176
     0
 90
        1
176
     0
 40
0.0
176
     0
 90
        0
176
     0
290
     0
176
     0
290
     1
176
     0
290
     1
176
     0
290
     0
176
     0
290
     0
176
     0
290
     0
176
     0
290
     0
176
     0
290
     0
176
     0
290
     0
176
     0
 90
       50
176
     0
 40
0.0
176
     0
 40
1.0
176
     0
 90
        0
176
     0
 62
    18
420
        0
176
     0
 90
       50
176
     0
 90
        3
176
     0
 62
     5
420
      255
176
     0
290
     0
176
     0
 90
       50
176
     0
 90
       50
176
     0
 90
       50
176
     0
290
     0
176
     0
 90
       50
176
     0
 62
   256
176
     0
 40
1.0
176
     0
 90
        2
176
     0
  1
strokes_ogs.tif
176
     0
290
     0
176
     0
 40
1.0
176
     0
 40
1.0
176
     0
  0
VISUALSTYLE
  5
6EE
102
{ACAD_REACTORS
330
6DF
102
}
330
6DF
100
AcDbVisualStyle
  2
Facepattern
 70
    15
177
     3
291
     1
 70
    58
 90
        2
176
     1
 90
        2
176
     1
 90
        0
176
     1
 90
        0
176
     1
 40
0.6
176
     1
 40
30.0
176
     1
 62
     7
420
 16777215
176
     1
 90
        1
176
     1
 90
        4
176
     1
 62
     7
176
     1
 62
   257
176
     1
 90
        1
176
     1
 90
        1
176
     1
 40
1.0
176
     1
 90
        8
176
     1
 62
     7
176
     1
 40
1.0
176
     1
 90
        1
176
     1
 90
        6
176
     1
 90
        2
176
     1
 62
     7
176
     1
 90
        5
176
     1
 90
        0
176
     1
 90
        0
176
     1
290
     0
176
     1
 90
        1
176
     1
 40
0.0
176
     1
 90
        0
176
     1
290
     0
176
     1
290
     1
176
     1
290
     1
176
     1
290
     0
176
     1
290
     0
176
     1
290
     0
176
     1
290
     0
176
     1
290
     0
176
     1
290
     0
176
     1
 90
       50
176
     1
 40
0.0
176
     1
 40
1.0
176
     1
 90
        0
176
     1
 62
    18
420
        0
176
     1
 90
       50
176
     1
 90
        3
176
     1
 62
     5
420
      255
176
     1
290
     0
176
     1
 90
       50
176
     1
 90
       50
176
     1
 90
       50
176
     1
290
     0
176
     1
 90
       50
176
     1
 62
   256
176
     0
 40
1.0
176
     0
 90
        2
176
     1
  1
strokes_ogs.tif
176
     1
290
     0
176
     1
 40
1.0
176
     1
 40
1.0
176
     1
  0
VISUALSTYLE
  5
6E0
102
{ACAD_REACTORS
330
6DF
102
}
330
6DF
100
AcDbVisualStyle
  2
Flat
 70
     0
177
     3
291
     1
 70
    58
 90
        2
176
     1
 90
        1
176
     1
 90
        1
176
     1
 90
        2
176
     1
 40
0.6
176
     1
 40
30.0
176
     1
 62
     7
420
 16777215
176
     1
 90
        0
176
     1
 90
        0
176
     1
 62
     7
176
     1
 62
   257
176
     1
 90
        1
176
     1
 90
        1
176
     1
 40
1.0
176
     1
 90
        8
176
     1
 62
     7
176
     1
 40
1.0
176
     1
 90
        1
176
     1
 90
        6
176
     1
 90
        2
176
     1
 62
     7
176
     1
 90
        5
176
     1
 90
        0
176
     1
 90
        0
176
     1
290
     0
176
     1
 90
       13
176
     1
 40
0.0
176
     1
 90
        0
176
     1
290
     0
176
     1
290
     1
176
     1
290
     1
176
     1
290
     0
176
     1
290
     0
176
     1
290
     0
176
     1
290
     0
176
     1
290
     0
176
     1
290
     0
176
     1
 90
       50
176
     1
 40
0.0
176
     1
 40
1.0
176
     1
 90
        0
176
     1
 62
    18
420
        0
176
     1
 90
       50
176
     1
 90
        3
176
     1
 62
     5
420
      255
176
     1
290
     0
176
     1
 90
       50
176
     1
 90
       50
176
     1
 90
       50
176
     1
290
     0
176
     1
 90
       50
176
     1
 62
   256
176
     0
 40
1.0
176
     0
 90
        2
176
     1
  1
strokes_ogs.tif
176
     1
290
     0
176
     1
 40
1.0
176
     1
 40
1.0
176
     1
  0
VISUALSTYLE
  5
6E1
102
{ACAD_REACTORS
330
6DF
102
}
330
6DF
100
AcDbVisualStyle
  2
FlatWithEdges
 70
     1
177
     3
291
     1
 70
    58
 90
        2
176
     1
 90
        1
176
     1
 90
        1
176
     1
 90
        2
176
     1
 40
0.6
176
     1
 40
30.0
176
     1
 62
     7
420
 16777215
176
     1
 90
        1
176
     1
 90
        0
176
     1
 62
     7
176
     1
 62
   257
176
     1
 90
        1
176
     1
 90
        1
176
     1
 40
1.0
176
     1
 90
        0
176
     1
 62
   257
176
     1
 40
1.0
176
     1
 90
        1
176
     1
 90
        6
176
     1
 90
        2
176
     1
 62
     7
176
     1
 90
        5
176
     1
 90
        0
176
     1
 90
        0
176
     1
290
     0
176
     1
 90
       13
176
     1
 40
0.0
176
     1
 90
        0
176
     1
290
     0
176
     1
290
     1
176
     1
290
     1
176
     1
290
     0
176
     1
290
     0
176
     1
290
     0
176
     1
290
     0
176
     1
290
     0
176
     1
290
     0
176
     1
 90
       50
176
     1
 40
0.0
176
     1
 40
1.0
176
     1
 90
        0
176
     1
 62
    18
420
        0
176
     1
 90
       50
176
     1
 90
        3
176
     1
 62
     5
420
      255
176
     1
290
     0
176
     1
 90
       50
176
     1
 90
       50
176
     1
 90
       50
176
     1
290
     0
176
     1
 90
       50
176
     1
 62
   256
176
     0
 40
1.0
176
     0
 90
        2
176
     1
  1
strokes_ogs.tif
176
     1
290
     0
176
     1
 40
1.0
176
     1
 40
1.0
176
     1
  0
VISUALSTYLE
  5
6E2
102
{ACAD_REACTORS
330
6DF
102
}
330
6DF
100
AcDbVisualStyle
  2
Gouraud
 70
     2
177
     3
291
     1
 70
    58
 90
        2
176
     1
 90
        2
176
     1
 90
        1
176
     1
 90
        2
176
     1
 40
0.6
176
     1
 40
30.0
176
     1
 62
     7
420
 16777215
176
     1
 90
        0
176
     1
 90
        0
176
     1
 62
     7
176
     1
 62
   257
176
     1
 90
        1
176
     1
 90
        1
176
     1
 40
1.0
176
     1
 90
        0
176
     1
 62
     7
176
     1
 40
1.0
176
     1
 90
        1
176
     1
 90
        6
176
     1
 90
        2
176
     1
 62
     7
176
     1
 90
        5
176
     1
 90
        0
176
     1
 90
        0
176
     1
290
     0
176
     1
 90
       13
176
     1
 40
0.0
176
     1
 90
        0
176
     1
290
     0
176
     1
290
     1
176
     1
290
     1
176
     1
290
     0
176
     1
290
     0
176
     1
290
     0
176
     1
290
     0
176
     1
290
     0
176
     1
290
     0
176
     1
 90
       50
176
     1
 40
0.0
176
     1
 40
1.0
176
     1
 90
        0
176
     1
 62
    18
420
        0
176
     1
 90
       50
176
     1
 90
        3
176
     1
 62
     5
420
      255
176
     1
290
     0
176
     1
 90
       50
176
     1
 90
       50
176
     1
 90
       50
176
     1
290
     0
176
     1
 90
       50
176
     1
 62
   256
176
     0
 40
1.0
176
     0
 90
        2
176
     1
  1
strokes_ogs.tif
176
     1
290
     0
176
     1
 40
1.0
176
     1
 40
1.0
176
     1
  0
VISUALSTYLE
  5
6E3
102
{ACAD_REACTORS
330
6DF
102
}
330
6DF
100
AcDbVisualStyle
  2
GouraudWithEdges
 70
     3
177
     3
291
     1
 70
    58
 90
        2
176
     1
 90
        2
176
     1
 90
        1
176
     1
 90
        2
176
     1
 40
0.6
176
     1
 40
30.0
176
     1
 62
     7
420
 16777215
176
     1
 90
        1
176
     1
 90
        0
176
     1
 62
     7
176
     1
 62
   257
176
     1
 90
        1
176
     1
 90
        1
176
     1
 40
1.0
176
     1
 90
        0
176
     1
 62
   257
176
     1
 40
1.0
176
     1
 90
        1
176
     1
 90
        6
176
     1
 90
        2
176
     1
 62
     7
176
     1
 90
        5
176
     1
 90
        0
176
     1
 90
        0
176
     1
290
     0
176
     1
 90
       13
176
     1
 40
0.0
176
     1
 90
        0
176
     1
290
     0
176
     1
290
     1
176
     1
290
     1
176
     1
290
     0
176
     1
290
     0
176
     1
290
     0
176
     1
290
     0
176
     1
290
     0
176
     1
290
     0
176
     1
 90
       50
176
     1
 40
0.0
176
     1
 40
1.0
176
     1
 90
        0
176
     1
 62
    18
420
        0
176
     1
 90
       50
176
     1
 90
        3
176
     1
 62
     5
420
      255
176
     1
290
     0
176
     1
 90
       50
176
     1
 90
       50
176
     1
 90
       50
176
     1
290
     0
176
     1
 90
       50
176
     1
 62
   256
176
     0
 40
1.0
176
     0
 90
        2
176
     1
  1
strokes_ogs.tif
176
     1
290
     0
176
     1
 40
1.0
176
     1
 40
1.0
176
     1
  0
VISUALSTYLE
  5
6E6
102
{ACAD_REACTORS
330
6DF
102
}
330
6DF
100
AcDbVisualStyle
  2
Hidden
 70
     6
177
     3
291
     0
 70
    58
 90
        1
176
     1
 90
        2
176
     1
 90
        2
176
     1
 90
        0
176
     1
 40
0.6
176
     1
 40
30.0
176
     1
 62
     7
420
 16777215
176
     1
 90
        2
176
     1
 90
        2
176
     1
 62
     7
176
     1
 62
   257
176
     1
 90
        2
176
     1
 90
        1
176
     1
 40
40.0
176
     1
 90
        0
176
     1
 62
   257
176
     1
 40
1.0
176
     1
 90
        1
176
     1
 90
        6
176
     1
 90
        2
176
     1
 62
     7
176
     1
 90
        3
176
     1
 90
        0
176
     1
 90
        0
176
     1
290
     0
176
     1
 90
        1
176
     1
 40
0.0
176
     1
 90
        0
176
     1
290
     0
176
     1
290
     1
176
     1
290
     1
176
     1
290
     0
176
     1
290
     0
176
     1
290
     0
176
     1
290
     0
176
     1
290
     0
176
     1
290
     0
176
     1
 90
       50
176
     1
 40
0.0
176
     1
 40
1.0
176
     1
 90
        0
176
     1
 62
    18
420
        0
176
     1
 90
       50
176
     1
 90
        3
176
     1
 62
     5
420
      255
176
     1
290
     0
176
     1
 90
       50
176
     1
 90
       50
176
     1
 90
       50
176
     1
290
     0
176
     1
 90
       50
176
     1
 62
   256
176
     0
 40
1.0
176
     0
 90
        2
176
     1
  1
strokes_ogs.tif
176
     1
290
     0
176
     1
 40
1.0
176
     1
 40
1.0
176
     1
  0
VISUALSTYLE
  5
6F0
102
{ACAD_REACTORS
330
6DF
102
}
330
6DF
100
AcDbVisualStyle
  2
JitterOff
 70
    20
177
     3
291
     1
 70
    58
 90
        2
176
     0
 90
        2
176
     0
 90
        0
176
     0
 90
        0
176
     0
 40
0.6
176
     0
 40
30.0
176
     0
 62
     7
420
 16777215
176
     0
 90
        1
176
     0
 90
        4
176
     0
 62
     7
176
     0
 62
   257
176
     0
 90
        1
176
     0
 90
        1
176
     0
 40
1.0
176
     0
 90
       10
176
     2
 62
     7
176
     0
 40
1.0
176
     0
 90
        1
176
     0
 90
        6
176
     0
 90
        2
176
     0
 62
     7
176
     0
 90
        5
176
     0
 90
        0
176
     0
 90
        0
176
     0
290
     0
176
     0
 90
        1
176
     0
 40
0.0
176
     0
 90
        0
176
     0
290
     0
176
     0
290
     1
176
     0
290
     1
176
     0
290
     0
176
     0
290
     0
176
     0
290
     0
176
     0
290
     0
176
     0
290
     0
176
     0
290
     0
176
     0
 90
       50
176
     0
 40
0.0
176
     0
 40
1.0
176
     0
 90
        0
176
     0
 62
    18
420
        0
176
     0
 90
       50
176
     0
 90
        3
176
     0
 62
     5
420
      255
176
     0
290
     0
176
     0
 90
       50
176
     0
 90
       50
176
     0
 90
       50
176
     0
290
     0
176
     0
 90
       50
176
     0
 62
   256
176
     0
 40
1.0
176
     0
 90
        2
176
     0
  1
strokes_ogs.tif
176
     0
290
     0
176
     0
 40
1.0
176
     0
 40
1.0
176
     0
  0
VISUALSTYLE
  5
6ED
102
{ACAD_REACTORS
330
6DF
102
}
330
6DF
100
AcDbVisualStyle
  2
Linepattern
 70
    14
177
     3
291
     1
 70
    58
 90
        2
176
     1
 90
        2
176
     1
 90
        0
176
     1
 90
        0
176
     1
 40
0.6
176
     1
 40
30.0
176
     1
 62
     7
420
 16777215
176
     1
 90
        1
176
     1
 90
        4
176
     1
 62
     7
176
     1
 62
   257
176
     1
 90
        7
176
     1
 90
        7
176
     1
 40
1.0
176
     1
 90
        8
176
     1
 62
     7
176
     1
 40
1.0
176
     1
 90
        1
176
     1
 90
        6
176
     1
 90
        2
176
     1
 62
     7
176
     1
 90
        5
176
     1
 90
        0
176
     1
 90
        0
176
     1
290
     0
176
     1
 90
        1
176
     1
 40
0.0
176
     1
 90
        0
176
     1
290
     0
176
     1
290
     1
176
     1
290
     1
176
     1
290
     0
176
     1
290
     0
176
     1
290
     0
176
     1
290
     0
176
     1
290
     0
176
     1
290
     0
176
     1
 90
       50
176
     1
 40
0.0
176
     1
 40
1.0
176
     1
 90
        0
176
     1
 62
    18
420
        0
176
     1
 90
       50
176
     1
 90
        3
176
     1
 62
     5
420
      255
176
     1
290
     0
176
     1
 90
       50
176
     1
 90
       50
176
     1
 90
       50
176
     1
290
     0
176
     1
 90
       50
176
     1
 62
   256
176
     0
 40
1.0
176
     0
 90
        2
176
     1
  1
strokes_ogs.tif
176
     1
290
     0
176
     1
 40
1.0
176
     1
 40
1.0
176
     1
  0
VISUALSTYLE
  5
6F1
102
{ACAD_REACTORS
330
6DF
102
}
330
6DF
100
AcDbVisualStyle
  2
OverhangOff
 70
    21
177
     3
291
     1
 70
    58
 90
        2
176
     0
 90
        2
176
     0
 90
        0
176
     0
 90
        0
176
     0
 40
0.6
176
     0
 40
30.0
176
     0
 62
     7
420
 16777215
176
     0
 90
        1
176
     0
 90
        4
176
     0
 62
     7
176
     0
 62
   257
176
     0
 90
        1
176
     0
 90
        1
176
     0
 40
1.0
176
     0
 90
        9
176
     2
 62
     7
176
     0
 40
1.0
176
     0
 90
        1
176
     0
 90
        6
176
     0
 90
        2
176
     0
 62
     7
176
     0
 90
        5
176
     0
 90
        0
176
     0
 90
        0
176
     0
290
     0
176
     0
 90
        1
176
     0
 40
0.0
176
     0
 90
        0
176
     0
290
     0
176
     0
290
     1
176
     0
290
     1
176
     0
290
     0
176
     0
290
     0
176
     0
290
     0
176
     0
290
     0
176
     0
290
     0
176
     0
290
     0
176
     0
 90
       50
176
     0
 40
0.0
176
     0
 40
1.0
176
     0
 90
        0
176
     0
 62
    18
420
        0
176
     0
 90
       50
176
     0
 90
        3
176
     0
 62
     5
420
      255
176
     0
290
     0
176
     0
 90
       50
176
     0
 90
       50
176
     0
 90
       50
176
     0
290
     0
176
     0
 90
       50
176
     0
 62
   256
176
     0
 40
1.0
176
     0
 90
        2
176
     0
  1
strokes_ogs.tif
176
     0
290
     0
176
     0
 40
1.0
176
     0
 40
1.0
176
     0
  0
VISUALSTYLE
  5
6E8
102
{ACAD_REACTORS
330
6DF
102
}
330
6DF
100
AcDbVisualStyle
  2
Realistic
 70
     8
177
     3
291
     0
 70
    58
 90
        2
176
     1
 90
        3
176
     1
 90
        0
176
     1
 90
        2
176
     1
 40
0.6
176
     1
 40
30.0
176
     1
 62
     7
420
 16777215
176
     1
 90
        0
176
     1
 90
        0
176
     1
 62
     7
176
     1
 62
   257
176
     1
 90
        1
176
     1
 90
        1
176
     1
 40
1.0
176
     1
 90
        8
176
     1
 62
   257
176
     1
 40
1.0
176
     1
 90
        1
176
     1
 90
        6
176
     1
 90
        2
176
     1
 62
     7
176
     1
 90
        3
176
     1
 90
        0
176
     1
 90
        0
176
     1
290
     0
176
     1
 90
       13
176
     1
 40
0.0
176
     1
 90
        0
176
     1
290
     0
176
     1
290
     1
176
     1
290
     1
176
     1
290
     0
176
     1
290
     0
176
     1
290
     0
176
     1
290
     0
176
     1
290
     0
176
     1
290
     0
176
     1
 90
       50
176
     1
 40
0.0
176
     1
 40
1.0
176
     1
 90
        0
176
     1
 62
    18
420
        0
176
     1
 90
       50
176
     1
 90
        3
176
     1
 62
     5
420
      255
176
     1
290
     0
176
     1
 90
       50
176
     1
 90
       50
176
     1
 90
       50
176
     1
290
     0
176
     1
 90
       50
176
     1
 62
   256
176
     0
 40
1.0
176
     0
 90
        2
176
     1
  1
strokes_ogs.tif
176
     1
290
     0
176
     1
 40
1.0
176
     1
 40
1.0
176
     1
  0
VISUALSTYLE
  5
6F7
102
{ACAD_REACTORS
330
6DF
102
}
330
6DF
100
AcDbVisualStyle
  2
Shaded
 70
    27
177
     3
291
     0
 70
    58
 90
        2
176
     1
 90
        2
176
     1
 90
        1
176
     1
 90
        2
176
     1
 40
0.6
176
     1
 40
30.0
176
     1
 62
     7
420
 16777215
176
     1
 90
        0
176
     1
 90
        4
176
     1
 62
     7
176
     1
 62
   257
176
     1
 90
        1
176
     1
 90
        1
176
     1
 40
1.0
176
     1
 90
        8
176
     1
 62
   257
176
     1
 40
1.0
176
     1
 90
        1
176
     1
 90
        6
176
     1
 90
        2
176
     1
 62
     8
420
  7895160
176
     1
 90
        3
176
     1
 90
        0
176
     1
 90
        0
176
     1
290
     0
176
     1
 90
        5
176
     1
 40
0.0
176
     1
 90
        0
176
     1
290
     0
176
     1
290
     1
176
     1
290
     1
176
     1
290
     0
176
     1
290
     0
176
     1
290
     0
176
     1
290
     0
176
     1
290
     0
176
     1
290
     0
176
     1
 90
       50
176
     1
 40
0.0
176
     1
 40
1.0
176
     1
 90
        0
176
     1
 62
    18
420
        0
176
     1
 90
       50
176
     1
 90
        3
176
     1
 62
     5
420
      255
176
     1
290
     0
176
     1
 90
       50
176
     1
 90
       50
176
     1
 90
       50
176
     1
290
     0
176
     1
 90
       50
176
     1
 62
   256
176
     0
 40
1.0
176
     0
 90
        2
176
     1
  1
strokes_ogs.tif
176
     1
290
     0
176
     1
 40
1.0
176
     1
 40
1.0
176
     1
  0
VISUALSTYLE
  5
6F6
102
{ACAD_REACTORS
330
6DF
102
}
330
6DF
100
AcDbVisualStyle
  2
Shaded with edges
 70
    26
177
     3
291
     0
 70
    58
 90
        2
176
     1
 90
        2
176
     1
 90
        1
176
     1
 90
        2
176
     1
 40
0.6
176
     1
 40
30.0
176
     1
 62
     7
420
 16777215
176
     1
 90
        1
176
     1
 90
       10
176
     1
 62
     7
176
     1
 62
   257
176
     1
 90
        2
176
     1
 90
        1
176
     1
 40
1.0
176
     1
 90
        8
176
     1
 62
   257
176
     1
 40
1.0
176
     1
 90
        1
176
     1
 90
        6
176
     1
 90
        2
176
     1
 62
     7
176
     1
 90
        3
176
     1
 90
        0
176
     1
 90
        0
176
     1
290
     0
176
     1
 90
        5
176
     1
 40
0.0
176
     1
 90
        0
176
     1
290
     0
176
     1
290
     1
176
     1
290
     1
176
     1
290
     0
176
     1
290
     0
176
     1
290
     0
176
     1
290
     0
176
     1
290
     0
176
     1
290
     0
176
     1
 90
       50
176
     1
 40
0.0
176
     1
 40
1.0
176
     1
 90
        0
176
     1
 62
    18
420
        0
176
     1
 90
       50
176
     1
 90
        3
176
     1
 62
     5
420
      255
176
     1
290
     0
176
     1
 90
       50
176
     1
 90
       50
176
     1
 90
       50
176
     1
290
     0
176
     1
 90
       50
176
     1
 62
   256
176
     0
 40
1.0
176
     0
 90
        2
176
     1
  1
strokes_ogs.tif
176
     1
290
     0
176
     1
 40
1.0
176
     1
 40
1.0
176
     1
  0
VISUALSTYLE
  5
6F3
102
{ACAD_REACTORS
330
6DF
102
}
330
6DF
100
AcDbVisualStyle
  2
Shades of Gray
 70
    23
177
     3
291
     0
 70
    58
 90
        2
176
     1
 90
        2
176
     1
 90
        3
176
     1
 90
        0
176
     1
 40
0.6
176
     1
 40
30.0
176
     1
 62
     7
420
 16777215
176
     1
 90
        2
176
     1
 90
        2
176
     1
 62
     7
176
     1
 62
     7
176
     1
 90
        1
176
     1
 90
        1
176
     1
 40
40.0
176
     1
 90
        8
176
     1
 62
     7
176
     1
 40
1.0
176
     1
 90
        1
176
     1
 90
        6
176
     1
 90
        2
176
     1
 62
     7
176
     1
 90
        3
176
     1
 90
        0
176
     1
 90
        0
176
     1
290
     0
176
     1
 90
        1
176
     1
 40
0.0
176
     1
 90
        0
176
     1
290
     0
176
     1
290
     1
176
     1
290
     1
176
     1
290
     0
176
     1
290
     0
176
     1
290
     0
176
     1
290
     0
176
     1
290
     0
176
     1
290
     0
176
     1
 90
       50
176
     1
 40
0.0
176
     1
 40
1.0
176
     1
 90
        0
176
     1
 62
    18
420
        0
176
     1
 90
       50
176
     1
 90
        3
176
     1
 62
     5
420
      255
176
     1
290
     0
176
     1
 90
       50
176
     1
 90
       50
176
     1
 90
       50
176
     1
290
     0
176
     1
 90
       50
176
     1
 62
   256
176
     0
 40
1.0
176
     0
 90
        2
176
     1
  1
strokes_ogs.tif
176
     1
290
     0
176
     1
 40
1.0
176
     1
 40
1.0
176
     1
  0
VISUALSTYLE
  5
6F4
102
{ACAD_REACTORS
330
6DF
102
}
330
6DF
100
AcDbVisualStyle
  2
Sketchy
 70
    24
177
     3
291
     0
 70
    58
 90
        1
176
     1
 90
        2
176
     1
 90
        2
176
     1
 90
        0
176
     1
 40
0.6
176
     1
 40
30.0
176
     1
 62
     7
420
 16777215
176
     1
 90
        2
176
     1
 90
        2
176
     1
 62
     7
176
     1
 62
     7
176
     1
 90
        1
176
     1
 90
        1
176
     1
 40
40.0
176
     1
 90
       11
176
     1
 62
     7
176
     1
 40
1.0
176
     1
 90
        1
176
     1
 90
        6
176
     1
 90
        2
176
     1
 62
     7
176
     1
 90
        6
176
     1
 90
        0
176
     1
 90
        0
176
     1
290
     0
176
     1
 90
        1
176
     1
 40
0.0
176
     1
 90
        0
176
     1
290
     0
176
     1
290
     1
176
     1
290
     1
176
     1
290
     0
176
     1
290
     0
176
     1
290
     0
176
     1
290
     0
176
     1
290
     0
176
     1
290
     0
176
     1
 90
       50
176
     1
 40
0.0
176
     1
 40
1.0
176
     1
 90
        0
176
     1
 62
    18
420
        0
176
     1
 90
       50
176
     1
 90
        3
176
     1
 62
     5
420
      255
176
     1
290
     0
176
     1
 90
       50
176
     1
 90
       50
176
     1
 90
       50
176
     1
290
     0
176
     1
 90
       50
176
     1
 62
   256
176
     0
 40
1.0
176
     0
 90
        2
176
     1
  1
strokes_ogs.tif
176
     1
290
     0
176
     1
 40
1.0
176
     1
 40
1.0
176
     1
  0
VISUALSTYLE
  5
6EC
102
{ACAD_REACTORS
330
6DF
102
}
330
6DF
100
AcDbVisualStyle
  2
Thicken
 70
    13
177
     3
291
     1
 70
    58
 90
        2
176
     1
 90
        2
176
     1
 90
        0
176
     1
 90
        0
176
     1
 40
0.6
176
     1
 40
30.0
176
     1
 62
     7
420
 16777215
176
     1
 90
        1
176
     1
 90
        4
176
     1
 62
     7
176
     1
 62
   257
176
     1
 90
        1
176
     1
 90
        1
176
     1
 40
1.0
176
     1
 90
       12
176
     1
 62
     7
176
     1
 40
1.0
176
     1
 90
        1
176
     1
 90
        6
176
     1
 90
        2
176
     1
 62
     7
176
     1
 90
        5
176
     1
 90
        0
176
     1
 90
        0
176
     1
290
     0
176
     1
 90
        1
176
     1
 40
0.0
176
     1
 90
        0
176
     1
290
     0
176
     1
290
     1
176
     1
290
     1
176
     1
290
     0
176
     1
290
     0
176
     1
290
     0
176
     1
290
     0
176
     1
290
     0
176
     1
290
     0
176
     1
 90
       50
176
     1
 40
0.0
176
     1
 40
1.0
176
     1
 90
        0
176
     1
 62
    18
420
        0
176
     1
 90
       50
176
     1
 90
        3
176
     1
 62
     5
420
      255
176
     1
290
     0
176
     1
 90
       50
176
     1
 90
       50
176
     1
 90
       50
176
     1
290
     0
176
     1
 90
       50
176
     1
 62
   256
176
     0
 40
1.0
176
     0
 90
        2
176
     1
  1
strokes_ogs.tif
176
     1
290
     0
176
     1
 40
1.0
176
     1
 40
1.0
176
     1
  0
VISUALSTYLE
  5
6E5
102
{ACAD_REACTORS
330
6DF
102
}
330
6DF
100
AcDbVisualStyle
  2
Wireframe
 70
     5
177
     3
291
     0
 70
    58
 90
        0
176
     1
 90
        2
176
     1
 90
        0
176
     1
 90
        0
176
     1
 40
0.6
176
     1
 40
30.0
176
     1
 62
     7
420
 16777215
176
     1
 90
        1
176
     1
 90
        4
176
     1
 62
     7
176
     1
 62
   257
176
     1
 90
        1
176
     1
 90
        1
176
     1
 40
1.0
176
     1
 90
        0
176
     1
 62
   257
176
     1
 40
1.0
176
     1
 90
        1
176
     1
 90
        6
176
     1
 90
        2
176
     1
 62
     7
176
     1
 90
        3
176
     1
 90
        0
176
     1
 90
        0
176
     1
290
     0
176
     1
 90
        1
176
     1
 40
0.0
176
     1
 90
        0
176
     1
290
     0
176
     1
290
     1
176
     1
290
     1
176
     1
290
     0
176
     1
290
     0
176
     1
290
     0
176
     1
290
     0
176
     1
290
     0
176
     1
290
     0
176
     1
 90
       50
176
     1
 40
0.0
176
     1
 40
1.0
176
     1
 90
        0
176
     1
 62
    18
420
        0
176
     1
 90
       50
176
     1
 90
        3
176
     1
 62
     5
420
      255
176
     1
290
     0
176
     1
 90
       50
176
     1
 90
       50
176
     1
 90
       50
176
     1
290
     0
176
     1
 90
       50
176
     1
 62
   256
176
     0
 40
1.0
176
     0
 90
        2
176
     1
  1
strokes_ogs.tif
176
     1
290
     0
176
     1
 40
1.0
176
     1
 40
1.0
176
     1
  0
VISUALSTYLE
  5
6F5
102
{ACAD_REACTORS
330
6DF
102
}
330
6DF
100
AcDbVisualStyle
  2
X-Ray
 70
    25
177
     3
291
     0
 70
    58
 90
        2
176
     1
 90
        2
176
     1
 90
        1
176
     1
 90
        1
176
     1
 40
0.5
176
     1
 40
30.0
176
     1
 62
     7
420
 16777215
176
     1
 90
        1
176
     1
 90
        0
176
     1
 62
     7
176
     1
 62
   257
176
     1
 90
        1
176
     1
 90
        1
176
     1
 40
1.0
176
     1
 90
        8
176
     1
 62
     7
176
     1
 40
1.0
176
     1
 90
        1
176
     1
 90
        6
176
     1
 90
        2
176
     1
 62
     7
176
     1
 90
        3
176
     1
 90
        0
176
     1
 90
        0
176
     1
290
     0
176
     1
 90
       13
176
     1
 40
0.0
176
     1
 90
        0
176
     1
290
     0
176
     1
290
     1
176
     1
290
     1
176
     1
290
     0
176
     1
290
     0
176
     1
290
     0
176
     1
290
     0
176
     1
290
     0
176
     1
290
     0
176
     1
 90
       50
176
     1
 40
0.0
176
     1
 40
1.0
176
     1
 90
        0
176
     1
 62
    18
420
        0
176
     1
 90
       50
176
     1
 90
        3
176
     1
 62
     5
420
      255
176
     1
290
     0
176
     1
 90
       50
176
     1
 90
       50
176
     1
 90
       50
176
     1
290
     0
176
     1
 90
       50
176
     1
 62
   256
176
     0
 40
1.0
176
     0
 90
        2
176
     1
  1
strokes_ogs.tif
176
     1
290
     0
176
     1
 40
1.0
176
     1
 40
1.0
176
     1
  0
DICTIONARYVAR
  5
701
102
{ACAD_REACTORS
330
700
102
}
330
700
100
DictionaryVariables
280
     0
  1
1:1
  0
DICTIONARYVAR
  5
706
102
{ACAD_REACTORS
330
700
102
}
330
700
100
DictionaryVariables
280
     0
  1
Standard
  0
DICTIONARYVAR
  5
705
102
{ACAD_REACTORS
330
700
102
}
330
700
100
DictionaryVariables
280
     0
  1
Standard
  0
DICTIONARYVAR
  5
707
102
{ACAD_REACTORS
330
700
102
}
330
700
100
DictionaryVariables
280
     0
  1
0
  0
DICTIONARYVAR
  5
766
330
765
100
DictionaryVariables
280
     0
  1
1.3.4 @ 2025-07-26T18:12:38.094878+00:00
  0
DICTIONARY
  5
7BB
330
6FD
100
AcDbDictionary
280
     1
281
     1
  3
ACAD_ROUNDTRIP_2008_TABLESTYLE_CELLSTYLEMAP
360
7BC
  0
CELLSTYLEMAP
  5
7BC
102
{ACAD_REACTORS
330
7BB
102
}
330
7BB
100
AcDbCellStyleMap
 90
        3
300
CELLSTYLE
  1
TABLEFORMAT_BEGIN
 90
        5
170
     1
 91
        0
 92
    32768
 62
   257
 93
        1
300
CONTENTFORMAT
  1
CONTENTFORMAT_BEGIN
 90
        0
 91
        0
 92
        4
 93
        0
300

 40
0.0
140
1.0
 94
        5
 62
     0
340
11
144
6.0
309
CONTENTFORMAT_END
171
     1
301
MARGIN
  1
CELLMARGIN_BEGIN
 40
1.5
 40
1.5
 40
1.5
 40
1.5
 40
1.5
 40
1.5
309
CELLMARGIN_END
 94
        6
 95
        1
302
GRIDFORMAT
  1
GRIDFORMAT_BEGIN
 90
        0
 91
        1
 62
     0
 92
       -2
340
14
 93
        0
 40
0.045
309
GRIDFORMAT_END
 95
        2
302
GRIDFORMAT
  1
GRIDFORMAT_BEGIN
 90
        0
 91
        1
 62
     0
 92
       -2
340
14
 93
        0
 40
0.045
309
GRIDFORMAT_END
 95
        4
302
GRIDFORMAT
  1
GRIDFORMAT_BEGIN
 90
        0
 91
        1
 62
     0
 92
       -2
340
14
 93
        0
 40
0.045
309
GRIDFORMAT_END
 95
        8
302
GRIDFORMAT
  1
GRIDFORMAT_BEGIN
 90
        0
 91
        1
 62
     0
 92
       -2
340
14
 93
        0
 40
0.045
309
GRIDFORMAT_END
 95
       16
302
GRIDFORMAT
  1
GRIDFORMAT_BEGIN
 90
        0
 91
        1
 62
     0
 92
       -2
340
14
 93
        0
 40
0.045
309
GRIDFORMAT_END
 95
       32
302
GRIDFORMAT
  1
GRIDFORMAT_BEGIN
 90
        0
 91
        1
 62
     0
 92
       -2
340
14
 93
        0
 40
0.045
309
GRIDFORMAT_END
309
TABLEFORMAT_END
  1
CELLSTYLE_BEGIN
 90
        1
 91
        1
300
_TITLE
309
CELLSTYLE_END
300
CELLSTYLE
  1
TABLEFORMAT_BEGIN
 90
        5
170
     1
 91
        0
 92
        0
 62
   257
 93
        1
300
CONTENTFORMAT
  1
CONTENTFORMAT_BEGIN
 90
        0
 91
        0
 92
        4
 93
        0
300

 40
0.0
140
1.0
 94
        5
 62
     0
340
11
144
4.5
309
CONTENTFORMAT_END
171
     1
301
MARGIN
  1
CELLMARGIN_BEGIN
 40
1.5
 40
1.5
 40
1.5
 40
1.5
 40
1.5
 40
1.5
309
CELLMARGIN_END
 94
        6
 95
        1
302
GRIDFORMAT
  1
GRIDFORMAT_BEGIN
 90
        0
 91
        1
 62
     0
 92
       -2
340
14
 93
        0
 40
0.045
309
GRIDFORMAT_END
 95
        2
302
GRIDFORMAT
  1
GRIDFORMAT_BEGIN
 90
        0
 91
        1
 62
     0
 92
       -2
340
14
 93
        0
 40
0.045
309
GRIDFORMAT_END
 95
        4
302
GRIDFORMAT
  1
GRIDFORMAT_BEGIN
 90
        0
 91
        1
 62
     0
 92
       -2
340
14
 93
        0
 40
0.045
309
GRIDFORMAT_END
 95
        8
302
GRIDFORMAT
  1
GRIDFORMAT_BEGIN
 90
        0
 91
        1
 62
     0
 92
       -2
340
14
 93
        0
 40
0.045
309
GRIDFORMAT_END
 95
       16
302
GRIDFORMAT
  1
GRIDFORMAT_BEGIN
 90
        0
 91
        1
 62
     0
 92
       -2
340
14
 93
        0
 40
0.045
309
GRIDFORMAT_END
 95
       32
302
GRIDFORMAT
  1
GRIDFORMAT_BEGIN
 90
        0
 91
        1
 62
     0
 92
       -2
340
14
 93
        0
 40
0.045
309
GRIDFORMAT_END
309
TABLEFORMAT_END
  1
CELLSTYLE_BEGIN
 90
        2
 91
        1
300
_HEADER
309
CELLSTYLE_END
300
CELLSTYLE
  1
TABLEFORMAT_BEGIN
 90
        5
170
     1
 91
        0
 92
        0
 62
   257
 93
        1
300
CONTENTFORMAT
  1
CONTENTFORMAT_BEGIN
 90
        0
 91
        0
 92
        4
 93
        0
300

 40
0.0
140
1.0
 94
        2
 62
     0
340
11
144
4.5
309
CONTENTFORMAT_END
171
     1
301
MARGIN
  1
CELLMARGIN_BEGIN
 40
1.5
 40
1.5
 40
1.5
 40
1.5
 40
1.5
 40
1.5
309
CELLMARGIN_END
 94
        6
 95
        1
302
GRIDFORMAT
  1
GRIDFORMAT_BEGIN
 90
        0
 91
        1
 62
     0
 92
       -2
340
14
 93
        0
 40
0.045
309
GRIDFORMAT_END
 95
        2
302
GRIDFORMAT
  1
GRIDFORMAT_BEGIN
 90
        0
 91
        1
 62
     0
 92
       -2
340
14
 93
        0
 40
0.045
309
GRIDFORMAT_END
 95
        4
302
GRIDFORMAT
  1
GRIDFORMAT_BEGIN
 90
        0
 91
        1
 62
     0
 92
       -2
340
14
 93
        0
 40
0.045
309
GRIDFORMAT_END
 95
        8
302
GRIDFORMAT
  1
GRIDFORMAT_BEGIN
 90
        0
 91
        1
 62
     0
 92
       -2
340
14
 93
        0
 40
0.045
309
GRIDFORMAT_END
 95
       16
302
GRIDFORMAT
  1
GRIDFORMAT_BEGIN
 90
        0
 91
        1
 62
     0
 92
       -2
340
14
 93
        0
 40
0.045
309
GRIDFORMAT_END
 95
       32
302
GRIDFORMAT
  1
GRIDFORMAT_BEGIN
 90
        0
 91
        1
 62
     0
 92
       -2
340
14
 93
        0
 40
0.045
309
GRIDFORMAT_END
309
TABLEFORMAT_END
  1
CELLSTYLE_BEGIN
 90
        3
 91
        2
300
_DATA
309
CELLSTYLE_END
  0
ENDSEC
  0
EOF
