  0
SECTION
  2
HEADER
  9
$ACADVER
  1
AC1032
  9
$ACADMAINTVER
 90
       55
  9
$DWGCODEPAGE
  3
ANSI_1252
  9
$LASTSAVEDBY
  1
cipulot
  9
$REQUIREDVERSIONS
160
                 0
  9
$INSBASE
 10
0.0
 20
0.0
 30
0.0
  9
$EXTMIN
 10
1.000000000000000E+20
 20
1.000000000000000E+20
 30
1.000000000000000E+20
  9
$EXTMAX
 10
-1.000000000000000E+20
 20
-1.000000000000000E+20
 30
-1.000000000000000E+20
  9
$LIMMIN
 10
0.0
 20
0.0
  9
$LIMMAX
 10
12.0
 20
9.0
  9
$ORTHOMODE
 70
     0
  9
$REGENMODE
 70
     1
  9
$FILLMODE
 70
     1
  9
$QTEXTMODE
 70
     0
  9
$MIRRTEXT
 70
     1
  9
$LTSCALE
 40
1.0
  9
$ATTMODE
 70
     1
  9
$TEXTSIZE
 40
0.2
  9
$TRACEWID
 40
0.05
  9
$TEXTSTYLE
  7
Standard
  9
$CLAYER
  8
0
  9
$CELTYPE
  6
ByBlock
  9
$CECOLOR
 62
   256
  9
$CELTSCALE
 40
1.0
  9
$DISPSILH
 70
     0
  9
$DIMSCALE
 40
1.0
  9
$DIMASZ
 40
0.18
  9
$DIMEXO
 40
0.0625
  9
$DIMDLI
 40
0.38
  9
$DIMRND
 40
0.0
  9
$DIMDLE
 40
0.0
  9
$DIMEXE
 40
0.18
  9
$DIMTP
 40
0.0
  9
$DIMTM
 40
0.0
  9
$DIMTXT
 40
0.18
  9
$DIMCEN
 40
0.09
  9
$DIMTSZ
 40
0.0
  9
$DIMTOL
 70
     0
  9
$DIMLIM
 70
     0
  9
$DIMTIH
 70
     1
  9
$DIMTOH
 70
     1
  9
$DIMSE1
 70
     0
  9
$DIMSE2
 70
     0
  9
$DIMTAD
 70
     0
  9
$DIMZIN
 70
     0
  9
$DIMBLK
  1

  9
$DIMASO
 70
     1
  9
$DIMSHO
 70
     1
  9
$DIMPOST
  1

  9
$DIMAPOST
  1

  9
$DIMALT
 70
     0
  9
$DIMALTD
 70
     2
  9
$DIMALTF
 40
25.4
  9
$DIMLFAC
 40
1.0
  9
$DIMTOFL
 70
     0
  9
$DIMTVP
 40
0.0
  9
$DIMTIX
 70
     0
  9
$DIMSOXD
 70
     0
  9
$DIMSAH
 70
     0
  9
$DIMBLK1
  1

  9
$DIMBLK2
  1

  9
$DIMSTYLE
  2
ISO-25
  9
$DIMCLRD
 70
     0
  9
$DIMCLRE
 70
     0
  9
$DIMCLRT
 70
     0
  9
$DIMTFAC
 40
1.0
  9
$DIMGAP
 40
0.09
  9
$DIMJUST
 70
     0
  9
$DIMSD1
 70
     0
  9
$DIMSD2
 70
     0
  9
$DIMTOLJ
 70
     1
  9
$DIMTZIN
 70
     0
  9
$DIMALTZ
 70
     0
  9
$DIMALTTZ
 70
     0
  9
$DIMUPT
 70
     0
  9
$DIMDEC
 70
     4
  9
$DIMTDEC
 70
     4
  9
$DIMALTU
 70
     2
  9
$DIMALTTD
 70
     2
  9
$DIMTXSTY
  7
Standard
  9
$DIMAUNIT
 70
     0
  9
$DIMADEC
 70
     0
  9
$DIMALTRND
 40
0.0
  9
$DIMAZIN
 70
     0
  9
$DIMDSEP
 70
    46
  9
$DIMATFIT
 70
     3
  9
$DIMFRAC
 70
     0
  9
$DIMLDRBLK
  1

  9
$DIMLUNIT
 70
     2
  9
$DIMLWD
 70
    -2
  9
$DIMLWE
 70
    -2
  9
$DIMTMOVE
 70
     2
  9
$DIMFXL
 40
1.0
  9
$DIMFXLON
 70
     0
  9
$DIMJOGANG
 40
0.7853981633974483
  9
$DIMTFILL
 70
     0
  9
$DIMTFILLCLR
 70
     0
  9
$DIMARCSYM
 70
     0
  9
$DIMLTYPE
  6

  9
$DIMLTEX1
  6

  9
$DIMLTEX2
  6

  9
$DIMTXTDIRECTION
 70
     0
  9
$LUNITS
 70
     2
  9
$LUPREC
 70
     4
  9
$SKETCHINC
 40
0.1
  9
$FILLETRAD
 40
0.0
  9
$AUNITS
 70
     0
  9
$AUPREC
 70
     0
  9
$MENU
  1
.
  9
$ELEVATION
 40
0.0
  9
$PELEVATION
 40
0.0
  9
$THICKNESS
 40
0.0
  9
$LIMCHECK
 70
     0
  9
$CHAMFERA
 40
0.0
  9
$CHAMFERB
 40
0.0
  9
$CHAMFERC
 40
0.0
  9
$CHAMFERD
 40
0.0
  9
$SKPOLY
 70
     0
  9
$TDCREATE
 40
2460917.02584978
  9
$TDUCREATE
 40
2460916.984183114
  9
$TDUPDATE
 40
2460917.026468553
  9
$TDUUPDATE
 40
2460916.984801887
  9
$TDINDWG
 40
0.0000000116
  9
$TDUSRTIMER
 40
0.0000000116
  9
$USRTIMER
 70
     1
  9
$ANGBASE
 50
0.0
  9
$ANGDIR
 70
     1
  9
$PDMODE
 70
     0
  9
$PDSIZE
 40
0.0
  9
$PLINEWID
 40
0.0
  9
$SPLFRAME
 70
     0
  9
$SPLINETYPE
 70
     6
  9
$SPLINESEGS
 70
     8
  9
$HANDSEED
  5
7BA
  9
$SURFTAB1
 70
     6
  9
$SURFTAB2
 70
     6
  9
$SURFTYPE
 70
     6
  9
$SURFU
 70
     6
  9
$SURFV
 70
     6
  9
$UCSBASE
  2

  9
$UCSNAME
  2

  9
$UCSORG
 10
0.0
 20
0.0
 30
0.0
  9
$UCSXDIR
 10
1.0
 20
0.0
 30
0.0
  9
$UCSYDIR
 10
0.0
 20
1.0
 30
0.0
  9
$UCSORTHOREF
  2

  9
$UCSORTHOVIEW
 70
     0
  9
$UCSORGTOP
 10
0.0
 20
0.0
 30
0.0
  9
$UCSORGBOTTOM
 10
0.0
 20
0.0
 30
0.0
  9
$UCSORGLEFT
 10
0.0
 20
0.0
 30
0.0
  9
$UCSORGRIGHT
 10
0.0
 20
0.0
 30
0.0
  9
$UCSORGFRONT
 10
0.0
 20
0.0
 30
0.0
  9
$UCSORGBACK
 10
0.0
 20
0.0
 30
0.0
  9
$PUCSBASE
  2

  9
$PUCSNAME
  2

  9
$PUCSORG
 10
0.0
 20
0.0
 30
0.0
  9
$PUCSXDIR
 10
1.0
 20
0.0
 30
0.0
  9
$PUCSYDIR
 10
0.0
 20
1.0
 30
0.0
  9
$PUCSORTHOREF
  2

  9
$PUCSORTHOVIEW
 70
     0
  9
$PUCSORGTOP
 10
0.0
 20
0.0
 30
0.0
  9
$PUCSORGBOTTOM
 10
0.0
 20
0.0
 30
0.0
  9
$PUCSORGLEFT
 10
0.0
 20
0.0
 30
0.0
  9
$PUCSORGRIGHT
 10
0.0
 20
0.0
 30
0.0
  9
$PUCSORGFRONT
 10
0.0
 20
0.0
 30
0.0
  9
$PUCSORGBACK
 10
0.0
 20
0.0
 30
0.0
  9
$USERI1
 70
     0
  9
$USERI2
 70
     0
  9
$USERI3
 70
     0
  9
$USERI4
 70
     0
  9
$USERI5
 70
     0
  9
$USERR1
 40
0.0
  9
$USERR2
 40
0.0
  9
$USERR3
 40
0.0
  9
$USERR4
 40
0.0
  9
$USERR5
 40
0.0
  9
$WORLDVIEW
 70
     1
  9
$SHADEDGE
 70
     3
  9
$SHADEDIF
 70
    70
  9
$TILEMODE
 70
     1
  9
$MAXACTVP
 70
    64
  9
$PINSBASE
 10
0.0
 20
0.0
 30
0.0
  9
$PLIMCHECK
 70
     0
  9
$PEXTMIN
 10
1.000000000000000E+20
 20
1.000000000000000E+20
 30
1.000000000000000E+20
  9
$PEXTMAX
 10
-1.000000000000000E+20
 20
-1.000000000000000E+20
 30
-1.000000000000000E+20
  9
$PLIMMIN
 10
0.0
 20
0.0
  9
$PLIMMAX
 10
12.0
 20
9.0
  9
$UNITMODE
 70
     0
  9
$VISRETAIN
 70
     1
  9
$PLINEGEN
 70
     0
  9
$PSLTSCALE
 70
     1
  9
$TREEDEPTH
 70
  3020
  9
$CMLSTYLE
  2
Standard
  9
$CMLJUST
 70
     0
  9
$CMLSCALE
 40
1.0
  9
$PROXYGRAPHICS
 70
     1
  9
$MEASUREMENT
 70
     1
  9
$CELWEIGHT
370
    -1
  9
$ENDCAPS
280
     0
  9
$JOINSTYLE
280
     0
  9
$LWDISPLAY
290
     0
  9
$INSUNITS
 70
     0
  9
$HYPERLINKBASE
  1

  9
$STYLESHEET
  1

  9
$XEDIT
290
     1
  9
$CEPSNTYPE
380
     0
  9
$PSTYLEMODE
290
     1
  9
$FINGERPRINTGUID
  2
{0aab71e9-aa49-0645-9f11-796573980173}
  9
$VERSIONGUID
  2
{3DAD732A-96CC-4910-8253-63FF704F029F}
  9
$EXTNAMES
290
     1
  9
$PSVPSCALE
 40
0.0
  9
$OLESTARTUP
290
     0
  9
$SORTENTS
280
   127
  9
$INDEXCTL
280
     0
  9
$HIDETEXT
280
     1
  9
$XCLIPFRAME
280
     2
  9
$HALOGAP
280
     0
  9
$OBSCOLOR
 70
   257
  9
$OBSLTYPE
280
     0
  9
$INTERSECTIONDISPLAY
280
     0
  9
$INTERSECTIONCOLOR
 70
   257
  9
$DIMASSOC
280
     2
  9
$PROJECTNAME
  1

  9
$CAMERADISPLAY
290
     0
  9
$LENSLENGTH
 40
50.0
  9
$CAMERAHEIGHT
 40
0.0
  9
$STEPSPERSEC
 40
2.0
  9
$STEPSIZE
 40
6.0
  9
$3DDWFPREC
 40
2.0
  9
$PSOLWIDTH
 40
0.25
  9
$PSOLHEIGHT
 40
4.0
  9
$LOFTANG1
 40
1.570796326794897
  9
$LOFTANG2
 40
1.570796326794897
  9
$LOFTMAG1
 40
0.0
  9
$LOFTMAG2
 40
0.0
  9
$LOFTPARAM
 70
     7
  9
$LOFTNORMALS
280
     1
  9
$LATITUDE
 40
37.795
  9
$LONGITUDE
 40
-122.394
  9
$NORTHDIRECTION
 40
0.0
  9
$TIMEZONE
 70
 -8000
  9
$LIGHTGLYPHDISPLAY
280
     1
  9
$TILEMODELIGHTSYNCH
280
     1
  9
$CMATERIAL
347
756
  9
$SOLIDHIST
280
     0
  9
$SHOWHIST
280
     1
  9
$DWFFRAME
280
     2
  9
$DGNFRAME
280
     2
  9
$REALWORLDSCALE
290
     1
  9
$INTERFERECOLOR
 62
   256
  9
$CSHADOW
280
     0
  9
$SHADOWPLANELOCATION
 40
0.0
  0
ENDSEC
  0
SECTION
  2
CLASSES
  0
CLASS
  1
ACDBDICTIONARYWDFLT
  2
AcDbDictionaryWithDefault
  3
ObjectDBX Classes
 90
        0
 91
        3
280
     0
281
     0
  0
CLASS
  1
SCALE
  2
AcDbScale
  3
ObjectDBX Classes
 90
     1153
 91
        3
280
     0
281
     0
  0
CLASS
  1
VISUALSTYLE
  2
AcDbVisualStyle
  3
ObjectDBX Classes
 90
     4095
 91
        3
280
     0
281
     0
  0
CLASS
  1
MATERIAL
  2
AcDbMaterial
  3
ObjectDBX Classes
 90
     1153
 91
        3
280
     0
281
     0
  0
CLASS
  1
TABLESTYLE
  2
AcDbTableStyle
  3
ObjectDBX Classes
 90
     4095
 91
        3
280
     0
281
     0
  0
CLASS
  1
MLEADERSTYLE
  2
AcDbMLeaderStyle
  3
ACDB_MLEADERSTYLE_CLASS
 90
     4095
 91
        3
280
     0
281
     0
  0
CLASS
  1
DICTIONARYVAR
  2
AcDbDictionaryVar
  3
ObjectDBX Classes
 90
        0
 91
        3
280
     0
281
     0
  0
CLASS
  1
CELLSTYLEMAP
  2
AcDbCellStyleMap
  3
ObjectDBX Classes
 90
     1152
 91
        3
280
     0
281
     0
  0
CLASS
  1
SUN
  2
AcDbSun
  3
SCENEOE
 90
     1153
 91
        3
280
     0
281
     0
  0
CLASS
  1
MENTALRAYRENDERSETTINGS
  2
AcDbMentalRayRenderSettings
  3
SCENEOE
 90
     1024
 91
        3
280
     0
281
     0
  0
CLASS
  1
ACDBDETAILVIEWSTYLE
  2
AcDbDetailViewStyle
  3
ObjectDBX Classes
 90
     1025
 91
        3
280
     0
281
     0
  0
CLASS
  1
ACDBSECTIONVIEWSTYLE
  2
AcDbSectionViewStyle
  3
ObjectDBX Classes
 90
     1025
 91
        3
280
     0
281
     0
  0
CLASS
  1
RASTERVARIABLES
  2
AcDbRasterVariables
  3
ISM
 90
        0
 91
        3
280
     0
281
     0
  0
CLASS
  1
LAYOUT
  2
AcDbLayout
  3
ObjectDBX Classes
 90
        0
 91
        1
280
     0
281
     0
  0
CLASS
  1
ACDBPLACEHOLDER
  2
AcDbPlaceHolder
  3
ObjectDBX Classes
 90
        0
 91
        1
280
     0
281
     0
  0
ENDSEC
  0
SECTION
  2
TABLES
  0
TABLE
  2
VPORT
  5
8
330
0
100
AcDbSymbolTable
 70
     1
  0
VPORT
  5
442
330
8
100
AcDbSymbolTableRecord
100
AcDbViewportTableRecord
  2
*Active
 70
     0
 10
0.0
 20
0.0
 11
1.0
 21
1.0
 12
344.1869158878504
 22
148.5
 13
0.0
 23
0.0
 14
10.0
 24
10.0
 15
10.0
 25
10.0
 16
0.0
 26
0.0
 36
1.0
 17
0.0
 27
0.0
 37
0.0
 40
297.0
 41
1.972972972850329
 42
50.0
 43
0.0
 44
0.0
 50
0.0
 51
0.0
 71
     0
 72
   100
 73
     1
 74
     3
 75
     0
 76
     0
 77
     0
 78
     0
281
     0
 65
     1
110
0.0
120
0.0
130
0.0
111
1.0
121
0.0
131
0.0
112
0.0
122
1.0
132
0.0
 79
     0
146
0.0
348
741
 60
     3
 61
     5
292
     1
282
     1
141
0.0
142
0.0
 63
   250
  0
ENDTAB
  0
TABLE
  2
LTYPE
  5
5
330
0
100
AcDbSymbolTable
 70
     4
  0
LTYPE
  5
14
330
5
100
AcDbSymbolTableRecord
100
AcDbLinetypeTableRecord
  2
ByBlock
 70
     0
  3

 72
    65
 73
     0
 40
0.0
  0
LTYPE
  5
15
330
5
100
AcDbSymbolTableRecord
100
AcDbLinetypeTableRecord
  2
ByLayer
 70
     0
  3

 72
    65
 73
     0
 40
0.0
  0
LTYPE
  5
16
330
5
100
AcDbSymbolTableRecord
100
AcDbLinetypeTableRecord
  2
CONTINUOUS
 70
     0
  3
Solid line
 72
    65
 73
     0
 40
0.0
  0
LTYPE
  5
410
330
5
100
AcDbSymbolTableRecord
100
AcDbLinetypeTableRecord
  2
DASHDOT
 70
     0
  3
Dash Dot ____ _ ____ _
 72
    65
 73
     4
 40
2.0
 49
1.25
 74
     0
 49
-0.25
 74
     0
 49
0.25
 74
     0
 49
-0.25
 74
     0
  0
LTYPE
  5
411
330
5
100
AcDbSymbolTableRecord
100
AcDbLinetypeTableRecord
  2
DASHED
 70
     0
  3
Dashed __ __ __ __ __
 72
    65
 73
     2
 40
0.75
 49
0.5
 74
     0
 49
-0.25
 74
     0
  0
LTYPE
  5
43B
330
5
100
AcDbSymbolTableRecord
100
AcDbLinetypeTableRecord
  2
DOTTED
 70
     0
  3
Dotted .  .  .  .
 72
    65
 73
     2
 40
0.2
 49
0.0
 74
     0
 49
-0.2
 74
     0
  0
ENDTAB
  0
TABLE
  2
LAYER
  5
2
330
0
100
AcDbSymbolTable
 70
     3
  0
LAYER
  5
10
330
2
100
AcDbSymbolTableRecord
100
AcDbLayerTableRecord
  2
0
 70
     0
 62
     7
  6
CONTINUOUS
370
    -3
390
F
347
758
348
0
  0
LAYER
  5
440
330
2
100
AcDbSymbolTableRecord
100
AcDbLayerTableRecord
  2
BLACK
 70
     0
 62
     7
  6
CONTINUOUS
370
    -3
390
F
347
758
348
0
  0
LAYER
  5
768
330
2
100
AcDbSymbolTableRecord
100
AcDbLayerTableRecord
  2
Defpoints
 70
     0
 62
     7
  6
CONTINUOUS
290
     0
370
    -3
390
F
347
758
348
0
  0
ENDTAB
  0
TABLE
  2
STYLE
  5
3
330
0
100
AcDbSymbolTable
 70
     5
  0
STYLE
  5
11
330
3
100
AcDbSymbolTableRecord
100
AcDbTextStyleTableRecord
  2
Standard
 70
     0
 40
0.0
 41
1.0
 50
0.0
 71
     0
 42
0.2
  3
txt
  4

  0
STYLE
  5
43C
330
3
100
AcDbSymbolTableRecord
100
AcDbTextStyleTableRecord
  2
KICAD
 70
     0
 40
0.0
 41
1.0
 50
0.0
 71
     0
 42
1.0
  3
isocp.shx
  4

  0
STYLE
  5
43D
330
3
100
AcDbSymbolTableRecord
100
AcDbTextStyleTableRecord
  2
KICADB
 70
     0
 40
0.0
 41
1.0
 50
0.0
 71
     0
 42
1.0
  3
isocp.shx
  4

  0
STYLE
  5
43E
330
3
100
AcDbSymbolTableRecord
100
AcDbTextStyleTableRecord
  2
KICADI
 70
     0
 40
0.0
 41
1.0
 50
15.0
 71
     0
 42
1.0
  3
isocp.shx
  4

  0
STYLE
  5
43F
330
3
100
AcDbSymbolTableRecord
100
AcDbTextStyleTableRecord
  2
KICADBI
 70
     0
 40
0.0
 41
1.0
 50
15.0
 71
     0
 42
1.0
  3
isocp.shx
  4

  0
ENDTAB
  0
TABLE
  2
VIEW
  5
6
330
0
100
AcDbSymbolTable
 70
     0
  0
ENDTAB
  0
TABLE
  2
UCS
  5
7
330
0
100
AcDbSymbolTable
 70
     0
  0
ENDTAB
  0
TABLE
  2
APPID
  5
9
330
0
100
AcDbSymbolTable
 70
     3
  0
APPID
  5
12
330
9
100
AcDbSymbolTableRecord
100
AcDbRegAppTableRecord
  2
ACAD
 70
     0
  0
APPID
  5
7B3
330
9
100
AcDbSymbolTableRecord
100
AcDbRegAppTableRecord
  2
HATCHBACKGROUNDCOLOR
 70
     0
  0
APPID
  5
7B4
330
9
100
AcDbSymbolTableRecord
100
AcDbRegAppTableRecord
  2
EZDXF
 70
     0
  0
ENDTAB
  0
TABLE
  2
DIMSTYLE
  5
A
330
0
100
AcDbSymbolTable
 70
     2
100
AcDbDimStyleTable
  0
DIMSTYLE
105
441
330
A
100
AcDbSymbolTableRecord
100
AcDbDimStyleTableRecord
  2
ISO-25
 70
     0
 41
2.5
 42
0.625
 43
3.75
 44
1.25
 49
2.5
 73
     0
 74
     0
 77
     1
 78
     8
 79
     3
140
2.5
141
2.5
143
0.03937007874016
147
0.625
171
     3
172
     1
178
     0
179
     2
271
     2
272
     2
274
     3
278
    44
283
     0
284
     8
340
11
  0
DIMSTYLE
105
769
330
A
100
AcDbSymbolTableRecord
100
AcDbDimStyleTableRecord
  2
Standard
 70
     0
 41
2.5
 42
0.625
 43
3.75
 44
1.25
 49
2.5
 73
     0
 74
     0
 77
     1
 78
     8
 79
     3
140
2.5
141
2.5
143
0.03937007874
147
0.625
171
     3
172
     1
178
     0
179
     2
271
     2
272
     2
274
     3
278
    44
283
     0
284
     8
340
11
  0
ENDTAB
  0
TABLE
  2
BLOCK_RECORD
  5
1
330
0
100
AcDbSymbolTable
 70
     0
  0
BLOCK_RECORD
  5
1D
330
1
100
AcDbSymbolTableRecord
100
AcDbBlockTableRecord
  2
*Model_Space
340
1E
 70
     0
280
     1
281
     0
  0
BLOCK_RECORD
  5
1B
330
1
100
AcDbSymbolTableRecord
100
AcDbBlockTableRecord
  2
*Paper_Space
340
1C
 70
     0
280
     1
281
     0
  0
ENDTAB
  0
ENDSEC
  0
SECTION
  2
BLOCKS
  0
BLOCK
  5
738
330
1D
100
AcDbEntity
  8
0
100
AcDbBlockBegin
  2
*Model_Space
 70
     0
 10
0.0
 20
0.0
 30
0.0
  3
*Model_Space
  1

  0
ENDBLK
  5
739
330
1D
100
AcDbEntity
  8
0
100
AcDbBlockEnd
  0
BLOCK
  5
73A
330
1B
100
AcDbEntity
 67
     1
  8
0
100
AcDbBlockBegin
  2
*Paper_Space
 70
     0
 10
0.0
 20
0.0
 30
0.0
  3
*Paper_Space
  1

  0
ENDBLK
  5
73B
330
1B
100
AcDbEntity
 67
     1
  8
0
100
AcDbBlockEnd
  0
ENDSEC
  0
SECTION
  2
ENTITIES
  0
ARC
  5
443
330
1D
100
AcDbEntity
  8
BLACK
100
AcDbCircle
 10
229.84409
 20
-89.795699
 30
0.0
 40
1.000000539954354
100
AcDbArc
 50
282.18166586
 51
101.99948435
  0
LINE
  5
444
330
1D
100
AcDbEntity
  8
BLACK
  6
Continuous
100
AcDbLine
 10
152.752705
 20
-107.204319
 30
0.0
 11
230.055103
 21
-90.773187
 31
0.0
  0
ARC
  5
445
330
1D
100
AcDbEntity
  8
BLACK
100
AcDbCircle
 10
152.54479
 20
-106.226199
 30
0.0
 40
0.9999736904664042
100
AcDbArc
 50
101.99951736
 51
282.00051427
  0
LINE
  5
446
330
1D
100
AcDbEntity
  8
BLACK
  6
Continuous
100
AcDbLine
 10
229.636187
 20
-88.817549
 30
0.0
 11
152.336881
 21
-105.248024
 31
0.0
  0
ARC
  5
447
330
1D
100
AcDbEntity
  8
BLACK
100
AcDbCircle
 10
222.97339
 20
8.626700999999999
 30
0.0
 40
1.000027219258056
100
AcDbArc
 50
281.37812553
 51
101.9995109
  0
LINE
  5
448
330
1D
100
AcDbEntity
  8
BLACK
  6
Continuous
100
AcDbLine
 10
152.97351
 20
-7.274545
 30
0.0
 11
223.170679
 21
7.646325
 31
0.0
  0
ARC
  5
449
330
1D
100
AcDbEntity
  8
BLACK
100
AcDbCircle
 10
-13.230001
 20
10.000001
 30
0.0
 40
1.0
100
AcDbArc
 50
90.0
 51
270.0
  0
LINE
  5
44A
330
1D
100
AcDbEntity
  8
BLACK
  6
Continuous
100
AcDbLine
 10
57.025599
 20
11.000001
 30
0.0
 11
-13.230001
 21
11.000001
 31
0.0
  0
ARC
  5
44B
330
1D
100
AcDbEntity
  8
BLACK
100
AcDbCircle
 10
57.02558999999999
 20
10.000001
 30
0.0
 40
1.0000000000405
100
AcDbArc
 50
270.00051566
 51
89.99948434
  0
LINE
  5
44C
330
1D
100
AcDbEntity
  8
BLACK
  6
Continuous
100
AcDbLine
 10
69.883591
 20
7.648568999999999
 30
0.0
 11
140.096992
 21
-7.275749999999999
 31
0.0
  0
ARC
  5
44D
330
1D
100
AcDbEntity
  8
BLACK
100
AcDbCircle
 10
70.09149
 20
8.626700999999999
 30
0.0
 40
0.9999821016523245
100
AcDbArc
 50
77.99950468999998
 51
258.0005254100001
  0
LINE
  5
44E
330
1D
100
AcDbEntity
  8
BLACK
  6
Continuous
100
AcDbLine
 10
140.507112
 20
-5.318243
 30
0.0
 11
70.299414
 21
9.604864
 31
0.0
  0
ARC
  5
44F
330
1D
100
AcDbEntity
  8
BLACK
100
AcDbCircle
 10
140.29919
 20
-6.296399
 30
0.0
 40
1.000010359156344
100
AcDbArc
 50
258.33455181
 51
77.9995223
  0
LINE
  5
450
330
1D
100
AcDbEntity
  8
BLACK
  6
Continuous
100
AcDbLine
 10
236.039199
 20
9.000001
 30
0.0
 11
316.008799
 21
9.000001
 31
0.0
  0
ARC
  5
451
330
1D
100
AcDbEntity
  8
BLACK
100
AcDbCircle
 10
236.03919
 20
10.000001
 30
0.0
 40
1.0000000000405
100
AcDbArc
 50
89.99948433999998
 51
270.00051566
  0
LINE
  5
452
330
1D
100
AcDbEntity
  8
BLACK
  6
Continuous
100
AcDbLine
 10
316.008799
 20
11.000001
 30
0.0
 11
236.039199
 21
11.000001
 31
0.0
  0
ARC
  5
453
330
1D
100
AcDbEntity
  8
BLACK
100
AcDbCircle
 10
316.00879
 20
10.000001
 30
0.0
 40
1.0000000000405
100
AcDbArc
 50
270.00051566
 51
89.99948434
  0
LINE
  5
454
330
1D
100
AcDbEntity
  8
BLACK
  6
Continuous
100
AcDbLine
 10
316.008799
 20
-87.387999
 30
0.0
 11
242.861699
 21
-87.387999
 31
0.0
  0
ARC
  5
455
330
1D
100
AcDbEntity
  8
BLACK
100
AcDbCircle
 10
316.00879
 20
-88.387999
 30
0.0
 40
1.0000000000405
100
AcDbArc
 50
270.00051566
 51
89.99948434
  0
LINE
  5
456
330
1D
100
AcDbEntity
  8
BLACK
  6
Continuous
100
AcDbLine
 10
242.861699
 20
-89.387999
 30
0.0
 11
316.008799
 21
-89.387999
 31
0.0
  0
ARC
  5
457
330
1D
100
AcDbEntity
  8
BLACK
100
AcDbCircle
 10
242.86169
 20
-88.387999
 30
0.0
 40
1.0000000000405
100
AcDbArc
 50
89.99948433999998
 51
270.00051566
  0
LINE
  5
458
330
1D
100
AcDbEntity
  8
BLACK
  6
Continuous
100
AcDbLine
 10
62.997988
 20
-90.773844
 30
0.0
 11
140.286941
 21
-107.202119
 31
0.0
  0
ARC
  5
459
330
1D
100
AcDbEntity
  8
BLACK
100
AcDbCircle
 10
63.20589
 20
-89.795699
 30
0.0
 40
0.9999954413041091
100
AcDbArc
 50
77.99710187
 51
258.00051213
  0
LINE
  5
45A
330
1D
100
AcDbEntity
  8
BLACK
  6
Continuous
100
AcDbLine
 10
140.713117
 20
-105.248024
 30
0.0
 11
63.413852
 21
-88.81755799999999
 31
0.0
  0
ARC
  5
45B
330
1D
100
AcDbEntity
  8
BLACK
100
AcDbCircle
 10
140.50519
 20
-106.226199
 30
0.0
 40
1.000029983527494
100
AcDbArc
 50
257.39412704
 51
77.99946843
  0
ARC
  5
45C
330
1D
100
AcDbEntity
  8
BLACK
100
AcDbCircle
 10
50.26429
 20
-91.58999899999999
 30
0.0
 40
2.500021
100
AcDbArc
 50
269.83024456
 51
0.0
  0
LINE
  5
45D
330
1D
100
AcDbEntity
  8
BLACK
  6
Continuous
100
AcDbLine
 10
52.764311
 20
-91.190379
 30
0.0
 11
52.764311
 21
-91.58999899999999
 31
0.0
  0
ARC
  5
45E
330
1D
100
AcDbEntity
  8
BLACK
100
AcDbCircle
 10
56.264311
 20
-91.190377
 30
0.0
 40
3.500000000000571
100
AcDbArc
 50
359.99996726
 51
180.00003274
  0
LINE
  5
45F
330
1D
100
AcDbEntity
  8
BLACK
  6
Continuous
100
AcDbLine
 10
59.764311
 20
-92.962845
 30
0.0
 11
59.764311
 21
-91.190379
 31
0.0
  0
ARC
  5
460
330
1D
100
AcDbEntity
  8
BLACK
100
AcDbCircle
 10
62.26429
 20
-92.973699
 30
0.0
 40
2.500029801694372
100
AcDbArc
 50
179.75124412
 51
257.9984400999999
  0
LINE
  5
461
330
1D
100
AcDbEntity
  8
BLACK
  6
Continuous
100
AcDbLine
 10
139.167319
 20
-111.875825
 30
0.0
 11
61.744438
 21
-95.419083
 31
0.0
  0
ARC
  5
462
330
1D
100
AcDbEntity
  8
BLACK
100
AcDbCircle
 10
235.28929
 20
13.500001
 30
0.0
 40
2.500062
100
AcDbArc
 50
90.00142094
 51
180.0
  0
LINE
  5
463
330
1D
100
AcDbEntity
  8
BLACK
  6
Continuous
100
AcDbLine
 10
232.789228
 20
13.165601
 30
0.0
 11
232.789228
 21
13.500001
 31
0.0
  0
ARC
  5
464
330
1D
100
AcDbEntity
  8
BLACK
100
AcDbCircle
 10
229.28919
 20
13.165601
 30
0.0
 40
3.500038
100
AcDbArc
 50
188.4313875
 51
0.0
  0
ARC
  5
465
330
1D
100
AcDbEntity
  8
BLACK
100
AcDbCircle
 10
223.35409
 20
12.285901
 30
0.0
 40
2.499941994662476
100
AcDbArc
 50
8.430439369999998
 51
101.99980864
  0
LINE
  5
466
330
1D
100
AcDbEntity
  8
BLACK
  6
Continuous
100
AcDbLine
 10
154.64504
 20
0.237134
 30
0.0
 11
222.834331
 21
14.731215
 31
0.0
  0
LINE
  5
467
330
1D
100
AcDbEntity
  8
BLACK
  6
Continuous
100
AcDbLine
 10
138.41979
 20
0.237134
 30
0.0
 11
154.64504
 21
0.237134
 31
0.0
  0
LINE
  5
468
330
1D
100
AcDbEntity
  8
BLACK
  6
Continuous
100
AcDbLine
 10
69.748704
 20
14.833624
 30
0.0
 11
138.41979
 21
0.237134
 31
0.0
  0
ARC
  5
469
330
1D
100
AcDbEntity
  8
BLACK
100
AcDbCircle
 10
69.21388999999999
 20
12.391501
 30
0.0
 40
2.500024472183023
100
AcDbArc
 50
77.64748847
 51
171.77436273
  0
ARC
  5
46A
330
1D
100
AcDbEntity
  8
BLACK
100
AcDbCircle
 10
63.27558999999999
 20
13.250001
 30
0.0
 40
3.500011289626649
100
AcDbArc
 50
180.0
 51
351.77330272
  0
LINE
  5
46B
330
1D
100
AcDbEntity
  8
BLACK
  6
Continuous
100
AcDbLine
 10
59.775602
 20
13.500001
 30
0.0
 11
59.775602
 21
13.250001
 31
0.0
  0
ARC
  5
46C
330
1D
100
AcDbEntity
  8
BLACK
100
AcDbCircle
 10
57.27558999999999
 20
13.500001
 30
0.0
 40
2.5000000000162
100
AcDbArc
 50
0.0
 51
89.99979374
  0
ARC
  5
46D
330
1D
100
AcDbEntity
  8
BLACK
100
AcDbCircle
 10
-21.730001
 20
7.000000999999999
 30
0.0
 40
2.5000000000002
100
AcDbArc
 50
90.0
 51
180.00002292
  0
ARC
  5
46E
330
1D
100
AcDbEntity
  8
BLACK
100
AcDbCircle
 10
-13.730001
 20
13.500001
 30
0.0
 40
2.5000000000002
100
AcDbArc
 50
90.0
 51
180.00002292
  0
ARC
  5
46F
330
1D
100
AcDbEntity
  8
BLACK
100
AcDbCircle
 10
-19.73
 20
13.0
 30
0.0
 40
3.499999
100
AcDbArc
 50
270.0
 51
0.0
  0
LINE
  5
470
330
1D
100
AcDbEntity
  8
BLACK
  6
Continuous
100
AcDbLine
 10
-24.230001
 20
-85.33999899999999
 30
0.0
 11
-24.230001
 21
7.0
 31
0.0
  0
LINE
  5
471
330
1D
100
AcDbEntity
  8
BLACK
  6
Continuous
100
AcDbLine
 10
-13.730001
 20
16.000001
 30
0.0
 11
57.275599
 21
16.000001
 31
0.0
  0
LINE
  5
472
330
1D
100
AcDbEntity
  8
BLACK
  6
Continuous
100
AcDbLine
 10
-21.730001
 20
9.500001
 30
0.0
 11
-19.73
 21
9.500001
 31
0.0
  0
LINE
  5
473
330
1D
100
AcDbEntity
  8
BLACK
  6
Continuous
100
AcDbLine
 10
-16.230001
 20
13.0
 30
0.0
 11
-16.230001
 21
13.5
 31
0.0
  0
ARC
  5
474
330
1D
100
AcDbEntity
  8
BLACK
100
AcDbCircle
 10
-13.730001
 20
-91.58999899999999
 30
0.0
 40
2.5000000000002
100
AcDbArc
 50
180.0
 51
270.00002292
  0
LINE
  5
475
330
1D
100
AcDbEntity
  8
BLACK
  6
Continuous
100
AcDbLine
 10
-16.230001
 20
-91.58999899999999
 30
0.0
 11
-16.230001
 21
-91.339998
 31
0.0
  0
LINE
  5
476
330
1D
100
AcDbEntity
  8
BLACK
  6
Continuous
100
AcDbLine
 10
50.25688299999999
 20
-94.08999899999999
 30
0.0
 11
-13.73
 21
-94.08999899999999
 31
0.0
  0
ARC
  5
477
330
1D
100
AcDbEntity
  8
BLACK
100
AcDbCircle
 10
-19.73
 20
-91.339998
 30
0.0
 40
3.499999
100
AcDbArc
 50
0.0
 51
90.0
  0
ARC
  5
478
330
1D
100
AcDbEntity
  8
BLACK
100
AcDbCircle
 10
-21.730001
 20
-85.33999899999999
 30
0.0
 40
2.5000000000002
100
AcDbArc
 50
180.0
 51
270.00002292
  0
LINE
  5
479
330
1D
100
AcDbEntity
  8
BLACK
  6
Continuous
100
AcDbLine
 10
-19.73
 20
-87.83999899999999
 30
0.0
 11
-21.73
 21
-87.83999899999999
 31
0.0
  0
LINE
  5
47A
330
1D
100
AcDbEntity
  8
BLACK
  6
Continuous
100
AcDbLine
 10
152.336893
 20
-105.24808
 30
0.0
 11
152.336881
 21
-105.248024
 31
0.0
  0
LINE
  5
47B
330
1D
100
AcDbEntity
  8
BLACK
  6
Continuous
100
AcDbLine
 10
70.299407
 20
9.604832
 30
0.0
 11
70.299414
 21
9.604864
 31
0.0
  0
LINE
  5
47C
330
1D
100
AcDbEntity
  8
BLACK
  6
Continuous
100
AcDbLine
 10
-13.230001
 20
-89.33999899999999
 30
0.0
 11
49.962499
 21
-89.33999899999999
 31
0.0
  0
ARC
  5
47D
330
1D
100
AcDbEntity
  8
BLACK
100
AcDbCircle
 10
-13.230001
 20
-88.33999899999999
 30
0.0
 40
1.0
100
AcDbArc
 50
90.0
 51
270.0
  0
LINE
  5
47E
330
1D
100
AcDbEntity
  8
BLACK
  6
Continuous
100
AcDbLine
 10
49.962499
 20
-87.33999899999999
 30
0.0
 11
-13.230001
 21
-87.33999899999999
 31
0.0
  0
ARC
  5
47F
330
1D
100
AcDbEntity
  8
BLACK
100
AcDbCircle
 10
49.96249
 20
-88.33999899999999
 30
0.0
 40
1.0000000000405
100
AcDbArc
 50
270.00051566
 51
89.99948434
  0
LINE
  5
480
330
1D
100
AcDbEntity
  8
BLACK
  6
Continuous
100
AcDbLine
 10
-13.230001
 20
9.000001
 30
0.0
 11
57.025599
 21
9.000001
 31
0.0
  0
ARC
  5
481
330
1D
100
AcDbEntity
  8
BLACK
100
AcDbCircle
 10
152.76559
 20
-6.296399
 30
0.0
 40
1.000000161857987
100
AcDbArc
 50
101.99767552
 51
282.00048475
  0
LINE
  5
482
330
1D
100
AcDbEntity
  8
BLACK
  6
Continuous
100
AcDbLine
 10
222.765481
 20
9.604877
 30
0.0
 11
152.557718
 21
-5.318243
 31
0.0
  0
LINE
  5
483
330
1D
100
AcDbEntity
  8
BLACK
  6
Continuous
100
AcDbLine
 10
140.274999
 20
-111.875825
 30
0.0
 11
139.167319
 21
-111.875825
 31
0.0
  0
ARC
  5
484
330
1D
100
AcDbEntity
  8
BLACK
100
AcDbCircle
 10
140.27499
 20
-109.375799
 30
0.0
 40
2.500009
100
AcDbArc
 50
270.00020626
 51
0.0
  0
LINE
  5
485
330
1D
100
AcDbEntity
  8
BLACK
  6
Continuous
100
AcDbLine
 10
142.774999
 20
-108.646829
 30
0.0
 11
142.774999
 21
-109.375799
 31
0.0
  0
ARC
  5
486
330
1D
100
AcDbEntity
  8
BLACK
100
AcDbCircle
 10
146.274999
 20
-108.646833
 30
0.0
 40
3.500000000002286
100
AcDbArc
 50
0.00006548
 51
179.99993452
  0
LINE
  5
487
330
1D
100
AcDbEntity
  8
BLACK
  6
Continuous
100
AcDbLine
 10
149.774999
 20
-109.364845
 30
0.0
 11
149.774999
 21
-108.646829
 31
0.0
  0
ARC
  5
488
330
1D
100
AcDbEntity
  8
BLACK
100
AcDbCircle
 10
152.27499
 20
-109.375799
 30
0.0
 40
2.5000260000162
100
AcDbArc
 50
179.74895352
 51
270.00020626
  0
LINE
  5
489
330
1D
100
AcDbEntity
  8
BLACK
  6
Continuous
100
AcDbLine
 10
153.615748
 20
-111.875825
 30
0.0
 11
152.274999
 21
-111.875825
 31
0.0
  0
LINE
  5
48A
330
1D
100
AcDbEntity
  8
BLACK
  6
Continuous
100
AcDbLine
 10
230.590779
 20
-95.46905699999999
 30
0.0
 11
153.615748
 21
-111.875825
 31
0.0
  0
ARC
  5
48B
330
1D
100
AcDbEntity
  8
BLACK
100
AcDbCircle
 10
230.06969
 20
-93.02399899999999
 30
0.0
 40
2.499936
100
AcDbArc
 50
282.03084413
 51
0.0
  0
LINE
  5
48C
330
1D
100
AcDbEntity
  8
BLACK
  6
Continuous
100
AcDbLine
 10
232.569626
 20
-91.236299
 30
0.0
 11
232.569626
 21
-93.02399899999999
 31
0.0
  0
ARC
  5
48D
330
1D
100
AcDbEntity
  8
BLACK
100
AcDbCircle
 10
236.06959
 20
-91.236299
 30
0.0
 40
3.499964
100
AcDbArc
 50
359.99995089
 51
180.0
  0
LINE
  5
48E
330
1D
100
AcDbEntity
  8
BLACK
  6
Continuous
100
AcDbLine
 10
239.569626
 20
-91.626598
 30
0.0
 11
239.569626
 21
-91.236302
 31
0.0
  0
ARC
  5
48F
330
1D
100
AcDbEntity
  8
BLACK
100
AcDbCircle
 10
242.06959
 20
-91.637999
 30
0.0
 40
2.5000000000162
100
AcDbArc
 50
179.73870638
 51
270.00020626
  0
LINE
  5
490
330
1D
100
AcDbEntity
  8
BLACK
  6
Continuous
100
AcDbLine
 10
316.493047
 20
-94.137999
 30
0.0
 11
242.069599
 21
-94.137999
 31
0.0
  0
ARC
  5
491
330
1D
100
AcDbEntity
  8
BLACK
100
AcDbCircle
 10
316.50859
 20
-91.63789899999999
 30
0.0
 40
2.500159001999873
100
AcDbArc
 50
269.64379952
 51
359.99770831
  0
LINE
  5
492
330
1D
100
AcDbEntity
  8
BLACK
  6
Continuous
100
AcDbLine
 10
319.008749
 20
-91.388099
 30
0.0
 11
319.008749
 21
-91.637999
 31
0.0
  0
ARC
  5
493
330
1D
100
AcDbEntity
  8
BLACK
100
AcDbCircle
 10
322.50889
 20
-91.388099
 30
0.0
 40
3.500141
100
AcDbArc
 50
89.69524714000002
 51
180.0
  0
LINE
  5
494
330
1D
100
AcDbEntity
  8
BLACK
  6
Continuous
100
AcDbLine
 10
324.493047
 20
-87.887999
 30
0.0
 11
322.527507
 21
-87.887999
 31
0.0
  0
ARC
  5
495
330
1D
100
AcDbEntity
  8
BLACK
100
AcDbCircle
 10
324.50859
 20
-85.38789899999999
 30
0.0
 40
2.500159001999873
100
AcDbArc
 50
269.64379952
 51
359.99770831
  0
LINE
  5
496
330
1D
100
AcDbEntity
  8
BLACK
  6
Continuous
100
AcDbLine
 10
327.008749
 20
7.000000999999999
 30
0.0
 11
327.008749
 21
-85.387999
 31
0.0
  0
ARC
  5
497
330
1D
100
AcDbEntity
  8
BLACK
100
AcDbCircle
 10
324.50879
 20
7.000101
 30
0.0
 40
2.499900000016201
100
AcDbArc
 50
359.99770813
 51
89.99979373
  0
LINE
  5
498
330
1D
100
AcDbEntity
  8
BLACK
  6
Continuous
100
AcDbLine
 10
322.508699
 20
9.500001
 30
0.0
 11
324.508799
 21
9.500001
 31
0.0
  0
ARC
  5
499
330
1D
100
AcDbEntity
  8
BLACK
100
AcDbCircle
 10
322.50869
 20
12.999901
 30
0.0
 40
3.499900000011571
100
AcDbArc
 50
179.99836295
 51
270.00014734
  0
LINE
  5
49A
330
1D
100
AcDbEntity
  8
BLACK
  6
Continuous
100
AcDbLine
 10
319.008749
 20
13.500001
 30
0.0
 11
319.008749
 21
13.000001
 31
0.0
  0
ARC
  5
49B
330
1D
100
AcDbEntity
  8
BLACK
100
AcDbCircle
 10
316.50879
 20
13.500101
 30
0.0
 40
2.499900000016201
100
AcDbArc
 50
359.99770813
 51
89.99979373
  0
LINE
  5
49C
330
1D
100
AcDbEntity
  8
BLACK
  6
Continuous
100
AcDbLine
 10
235.289228
 20
16.000001
 30
0.0
 11
316.508799
 21
16.000001
 31
0.0
  0
LINE
  5
49D
330
1D
100
AcDbEntity
  8
BLACK
  6
Continuous
100
AcDbLine
 10
59.775597
 20
13.250001
 30
0.0
 11
59.775602
 21
13.250001
 31
0.0
  0
LINE
  5
49E
330
1D
100
AcDbEntity
  8
BLACK
  6
Continuous
100
AcDbLine
 10
59.775599
 20
13.500001
 30
0.0
 11
59.775602
 21
13.500001
 31
0.0
  0
LINE
  5
49F
330
1D
100
AcDbEntity
  8
BLACK
  6
Continuous
100
AcDbLine
 10
140.274999
 20
-111.875799
 30
0.0
 11
140.274999
 21
-111.875825
 31
0.0
  0
LINE
  5
4A0
330
1D
100
AcDbEntity
  8
BLACK
  6
Continuous
100
AcDbLine
 10
208.691311
 20
0.453719
 30
0.0
 11
208.691312
 21
0.453719
 31
0.0
  0
LINE
  5
4A1
330
1D
100
AcDbEntity
  8
BLACK
  6
Continuous
100
AcDbLine
 10
206.591311
 20
-58.416281
 30
0.0
 11
206.591312
 21
-58.416281
 31
0.0
  0
LINE
  5
4A2
330
1D
100
AcDbEntity
  8
BLACK
  6
Continuous
100
AcDbLine
 10
230.585023
 20
-33.845564
 30
0.0
 11
230.585024
 21
-33.845564
 31
0.0
  0
LINE
  5
4A3
330
1D
100
AcDbEntity
  8
BLACK
  6
Continuous
100
AcDbLine
 10
116.307389
 20
-55.460287
 30
0.0
 11
116.307388
 21
-55.460287
 31
0.0
  0
LINE
  5
4A4
330
1D
100
AcDbEntity
  8
BLACK
  6
Continuous
100
AcDbLine
 10
132.754856
 20
-48.784017
 30
0.0
 11
132.75488
 21
-48.784022
 31
0.0
  0
LINE
  5
4A5
330
1D
100
AcDbEntity
  8
BLACK
  6
Continuous
100
AcDbLine
 10
227.325022
 20
4.414435999999999
 30
0.0
 11
227.325023
 21
4.414435999999999
 31
0.0
  0
LINE
  5
4A6
330
1D
100
AcDbEntity
  8
BLACK
  6
Continuous
100
AcDbLine
 10
269.254999
 20
-47.29
 30
0.0
 11
269.254999
 21
-47.28999899999999
 31
0.0
  0
LINE
  5
4A7
330
1D
100
AcDbEntity
  8
BLACK
  6
Continuous
100
AcDbLine
 10
256.63
 20
-45.215
 30
0.0
 11
256.629999
 21
-45.215
 31
0.0
  0
LINE
  5
4A8
330
1D
100
AcDbEntity
  8
BLACK
  6
Continuous
100
AcDbLine
 10
221.965023
 20
-16.195563
 30
0.0
 11
221.965024
 21
-16.195563
 31
0.0
  0
LINE
  5
4A9
330
1D
100
AcDbEntity
  8
BLACK
  6
Continuous
100
AcDbLine
 10
60.406253
 20
-43.578134
 30
0.0
 11
60.40625199999999
 21
-43.578134
 31
0.0
  0
LINE
  5
4AA
330
1D
100
AcDbEntity
  8
BLACK
  6
Continuous
100
AcDbLine
 10
72.323864
 20
-48.232643
 30
0.0
 11
72.323861
 21
-48.232656
 31
0.0
  0
LINE
  5
4AB
330
1D
100
AcDbEntity
  8
BLACK
  6
Continuous
100
AcDbLine
 10
76.853743
 20
-36.901867
 30
0.0
 11
76.85374399999999
 21
-36.901867
 31
0.0
  0
LINE
  5
4AC
330
1D
100
AcDbEntity
  8
BLACK
  6
Continuous
100
AcDbLine
 10
64.936135
 20
-32.247355
 30
0.0
 11
64.936137
 21
-32.247344
 31
0.0
  0
LINE
  5
4AD
330
1D
100
AcDbEntity
  8
BLACK
  6
Continuous
100
AcDbLine
 10
108.067456
 20
-4.582584
 30
0.0
 11
108.067455
 21
-4.582584
 31
0.0
  0
LINE
  5
4AE
330
1D
100
AcDbEntity
  8
BLACK
  6
Continuous
100
AcDbLine
 10
103.53756
 20
-15.913359
 30
0.0
 11
103.537558
 21
-15.91337
 31
0.0
  0
LINE
  5
4AF
330
1D
100
AcDbEntity
  8
BLACK
  6
Continuous
100
AcDbLine
 10
91.619964
 20
-11.258851
 30
0.0
 11
91.619965
 21
-11.258851
 31
0.0
  0
LINE
  5
4B0
330
1D
100
AcDbEntity
  8
BLACK
  6
Continuous
100
AcDbLine
 10
96.14983199999999
 20
0.071931
 30
0.0
 11
96.149834
 21
0.071942
 31
0.0
  0
LINE
  5
4B1
330
1D
100
AcDbEntity
  8
BLACK
  6
Continuous
100
AcDbLine
 10
244.844999
 20
-66.34
 30
0.0
 11
244.844999
 21
-66.33999899999999
 31
0.0
  0
LINE
  5
4B2
330
1D
100
AcDbEntity
  8
BLACK
  6
Continuous
100
AcDbLine
 10
232.22
 20
-64.265
 30
0.0
 11
232.219999
 21
-64.265
 31
0.0
  0
LINE
  5
4B3
330
1D
100
AcDbEntity
  8
BLACK
  6
Continuous
100
AcDbLine
 10
279.264999
 20
-28.24
 30
0.0
 11
279.264999
 21
-28.239999
 31
0.0
  0
LINE
  5
4B4
330
1D
100
AcDbEntity
  8
BLACK
  6
Continuous
100
AcDbLine
 10
266.64
 20
-26.165
 30
0.0
 11
266.639999
 21
-26.165
 31
0.0
  0
LINE
  5
4B5
330
1D
100
AcDbEntity
  8
BLACK
  6
Continuous
100
AcDbLine
 10
290.46
 20
-26.165
 30
0.0
 11
290.459998
 21
-26.165
 31
0.0
  0
LINE
  5
4B6
330
1D
100
AcDbEntity
  8
BLACK
  6
Continuous
100
AcDbLine
 10
225.225022
 20
-54.455563
 30
0.0
 11
225.225023
 21
-54.455563
 31
0.0
  0
LINE
  5
4B7
330
1D
100
AcDbEntity
  8
BLACK
  6
Continuous
100
AcDbLine
 10
171.91708
 20
-24.712234
 30
0.0
 11
171.917078
 21
-24.712226
 31
0.0
  0
LINE
  5
4B8
330
1D
100
AcDbEntity
  8
BLACK
  6
Continuous
100
AcDbLine
 10
185.168081
 20
-36.31064
 30
0.0
 11
185.168081
 21
-36.310641
 31
0.0
  0
LINE
  5
4B9
330
1D
100
AcDbEntity
  8
BLACK
  6
Continuous
100
AcDbLine
 10
234.32
 20
-4.975
 30
0.0
 11
234.319998
 21
-4.975
 31
0.0
  0
LINE
  5
4BA
330
1D
100
AcDbEntity
  8
BLACK
  6
Continuous
100
AcDbLine
 10
237.58
 20
-45.215
 30
0.0
 11
237.579998
 21
-45.215
 31
0.0
  0
LINE
  5
4BB
330
1D
100
AcDbEntity
  8
BLACK
  6
Continuous
100
AcDbLine
 10
65.756253
 20
-64.18813399999999
 30
0.0
 11
65.756252
 21
-64.18813399999999
 31
0.0
  0
LINE
  5
4BC
330
1D
100
AcDbEntity
  8
BLACK
  6
Continuous
100
AcDbLine
 10
77.673864
 20
-68.842643
 30
0.0
 11
77.673861
 21
-68.84265599999999
 31
0.0
  0
LINE
  5
4BD
330
1D
100
AcDbEntity
  8
BLACK
  6
Continuous
100
AcDbLine
 10
82.203743
 20
-57.511867
 30
0.0
 11
82.203744
 21
-57.511867
 31
0.0
  0
LINE
  5
4BE
330
1D
100
AcDbEntity
  8
BLACK
  6
Continuous
100
AcDbLine
 10
70.286135
 20
-52.857355
 30
0.0
 11
70.286137
 21
-52.857344
 31
0.0
  0
LINE
  5
4BF
330
1D
100
AcDbEntity
  8
BLACK
  6
Continuous
100
AcDbLine
 10
78.33996499999999
 20
-27.908851
 30
0.0
 11
78.339964
 21
-27.908851
 31
0.0
  0
LINE
  5
4C0
330
1D
100
AcDbEntity
  8
BLACK
  6
Continuous
100
AcDbLine
 10
90.25756
 20
-32.563359
 30
0.0
 11
90.25755799999999
 21
-32.56337
 31
0.0
  0
LINE
  5
4C1
330
1D
100
AcDbEntity
  8
BLACK
  6
Continuous
100
AcDbLine
 10
94.787455
 20
-21.232584
 30
0.0
 11
94.78745599999999
 21
-21.232584
 31
0.0
  0
LINE
  5
4C2
330
1D
100
AcDbEntity
  8
BLACK
  6
Continuous
100
AcDbLine
 10
82.869832
 20
-16.578069
 30
0.0
 11
82.869834
 21
-16.578058
 31
0.0
  0
LINE
  5
4C3
330
1D
100
AcDbEntity
  8
BLACK
  6
Continuous
100
AcDbLine
 10
79.039964
 20
-47.538851
 30
0.0
 11
79.039965
 21
-47.538851
 31
0.0
  0
LINE
  5
4C4
330
1D
100
AcDbEntity
  8
BLACK
  6
Continuous
100
AcDbLine
 10
83.56983199999999
 20
-36.208069
 30
0.0
 11
83.569834
 21
-36.208058
 31
0.0
  0
LINE
  5
4C5
330
1D
100
AcDbEntity
  8
BLACK
  6
Continuous
100
AcDbLine
 10
95.487456
 20
-40.862584
 30
0.0
 11
95.487455
 21
-40.862584
 31
0.0
  0
LINE
  5
4C6
330
1D
100
AcDbEntity
  8
BLACK
  6
Continuous
100
AcDbLine
 10
90.95756
 20
-52.193359
 30
0.0
 11
90.95755799999999
 21
-52.19336999999999
 31
0.0
  0
LINE
  5
4C7
330
1D
100
AcDbEntity
  8
BLACK
  6
Continuous
100
AcDbLine
 10
211.951311
 20
-37.806281
 30
0.0
 11
211.951312
 21
-37.806281
 31
0.0
  0
LINE
  5
4C8
330
1D
100
AcDbEntity
  8
BLACK
  6
Continuous
100
AcDbLine
 10
180.53708
 20
-42.362234
 30
0.0
 11
180.537078
 21
-42.362226
 31
0.0
  0
LINE
  5
4C9
330
1D
100
AcDbEntity
  8
BLACK
  6
Continuous
100
AcDbLine
 10
193.788081
 20
-53.96064
 30
0.0
 11
193.788081
 21
-53.960641
 31
0.0
  0
LINE
  5
4CA
330
1D
100
AcDbEntity
  8
BLACK
  6
Continuous
100
AcDbLine
 10
230.035022
 20
-74.44556399999999
 30
0.0
 11
230.035023
 21
-74.44556399999999
 31
0.0
  0
LINE
  5
4CB
330
1D
100
AcDbEntity
  8
BLACK
  6
Continuous
100
AcDbLine
 10
252.95
 20
-7.114999999999999
 30
0.0
 11
252.949998
 21
-7.114999999999999
 31
0.0
  0
LINE
  5
4CC
330
1D
100
AcDbEntity
  8
BLACK
  6
Continuous
100
AcDbLine
 10
121.657389
 20
-76.070287
 30
0.0
 11
121.657388
 21
-76.070287
 31
0.0
  0
LINE
  5
4CD
330
1D
100
AcDbEntity
  8
BLACK
  6
Continuous
100
AcDbLine
 10
138.104856
 20
-69.39401699999999
 30
0.0
 11
138.10488
 21
-69.39402199999999
 31
0.0
  0
LINE
  5
4CE
330
1D
100
AcDbEntity
  8
BLACK
  6
Continuous
100
AcDbLine
 10
5.274998999999999
 20
-7.05
 30
0.0
 11
5.274998999999999
 21
-7.049999
 31
0.0
  0
LINE
  5
4CF
330
1D
100
AcDbEntity
  8
BLACK
  6
Continuous
100
AcDbLine
 10
76.153744
 20
-17.271867
 30
0.0
 11
76.15374299999999
 21
-17.271867
 31
0.0
  0
LINE
  5
4D0
330
1D
100
AcDbEntity
  8
BLACK
  6
Continuous
100
AcDbLine
 10
71.623864
 20
-28.602643
 30
0.0
 11
71.62386099999999
 21
-28.602656
 31
0.0
  0
LINE
  5
4D1
330
1D
100
AcDbEntity
  8
BLACK
  6
Continuous
100
AcDbLine
 10
59.706252
 20
-23.948134
 30
0.0
 11
59.706253
 21
-23.948134
 31
0.0
  0
LINE
  5
4D2
330
1D
100
AcDbEntity
  8
BLACK
  6
Continuous
100
AcDbLine
 10
64.23613499999999
 20
-12.617355
 30
0.0
 11
64.236137
 21
-12.617344
 31
0.0
  0
LINE
  5
4D3
330
1D
100
AcDbEntity
  8
BLACK
  6
Continuous
100
AcDbLine
 10
172.319612
 20
-96.19453899999999
 30
0.0
 11
172.319611
 21
-96.19453999999999
 31
0.0
  0
LINE
  5
4D4
330
1D
100
AcDbEntity
  8
BLACK
  6
Continuous
100
AcDbLine
 10
195.565627
 20
-92.49755499999999
 30
0.0
 11
195.565627
 21
-92.497553
 31
0.0
  0
LINE
  5
4D5
330
1D
100
AcDbEntity
  8
BLACK
  6
Continuous
100
AcDbLine
 10
198.289546
 20
-80.302374
 30
0.0
 11
198.28957
 21
-80.302369
 31
0.0
  0
LINE
  5
4D6
330
1D
100
AcDbEntity
  8
BLACK
  6
Continuous
100
AcDbLine
 10
194.790233
 20
-78.996096
 30
0.0
 11
194.790242
 21
-78.99609
 31
0.0
  0
LINE
  5
4D7
330
1D
100
AcDbEntity
  8
BLACK
  6
Continuous
100
AcDbLine
 10
115.607389
 20
-35.830287
 30
0.0
 11
115.607388
 21
-35.830287
 31
0.0
  0
LINE
  5
4D8
330
1D
100
AcDbEntity
  8
BLACK
  6
Continuous
100
AcDbLine
 10
132.054856
 20
-29.154017
 30
0.0
 11
132.05488
 21
-29.154022
 31
0.0
  0
LINE
  5
4D9
330
1D
100
AcDbEntity
  8
BLACK
  6
Continuous
100
AcDbLine
 10
128.887389
 20
-19.180287
 30
0.0
 11
128.887388
 21
-19.180287
 31
0.0
  0
LINE
  5
4DA
330
1D
100
AcDbEntity
  8
BLACK
  6
Continuous
100
AcDbLine
 10
145.334856
 20
-12.504017
 30
0.0
 11
145.33488
 21
-12.504022
 31
0.0
  0
LINE
  5
4DB
330
1D
100
AcDbEntity
  8
BLACK
  6
Continuous
100
AcDbLine
 10
282.304994
 20
-46.034989
 30
0.0
 11
282.304993
 21
-46.034989
 31
0.0
  0
LINE
  5
4DC
330
1D
100
AcDbEntity
  8
BLACK
  6
Continuous
100
AcDbLine
 10
309.574707
 20
-44.915435
 30
0.0
 11
309.574707
 21
-44.915439
 31
0.0
  0
LINE
  5
4DD
330
1D
100
AcDbEntity
  8
BLACK
  6
Continuous
100
AcDbLine
 10
307.860336
 20
-33.884278
 30
0.0
 11
307.860345
 21
-33.884275
 31
0.0
  0
LINE
  5
4DE
330
1D
100
AcDbEntity
  8
BLACK
  6
Continuous
100
AcDbLine
 10
307.840599
 20
-85.438
 30
0.0
 11
307.840599
 21
-85.437998
 31
0.0
  0
LINE
  5
4DF
330
1D
100
AcDbEntity
  8
BLACK
  6
Continuous
100
AcDbLine
 10
263.894999
 20
-66.34
 30
0.0
 11
263.894999
 21
-66.33999899999999
 31
0.0
  0
LINE
  5
4E0
330
1D
100
AcDbEntity
  8
BLACK
  6
Continuous
100
AcDbLine
 10
251.27
 20
-64.265
 30
0.0
 11
251.269999
 21
-64.265
 31
0.0
  0
LINE
  5
4E1
330
1D
100
AcDbEntity
  8
BLACK
  6
Continuous
100
AcDbLine
 10
35.454085
 20
-52.93427699999999
 30
0.0
 11
35.454094
 21
-52.93427399999999
 31
0.0
  0
LINE
  5
4E2
330
1D
100
AcDbEntity
  8
BLACK
  6
Continuous
100
AcDbLine
 10
9.898743
 20
-65.084988
 30
0.0
 11
9.898742
 21
-65.084988
 31
0.0
  0
LINE
  5
4E3
330
1D
100
AcDbEntity
  8
BLACK
  6
Continuous
100
AcDbLine
 10
36.776399
 20
-63.965455
 30
0.0
 11
36.776399
 21
-63.965438
 31
0.0
  0
LINE
  5
4E4
330
1D
100
AcDbEntity
  8
BLACK
  6
Continuous
100
AcDbLine
 10
38.605338
 20
-54.939558
 30
0.0
 11
38.605363
 21
-54.939558
 31
0.0
  0
LINE
  5
4E5
330
1D
100
AcDbEntity
  8
BLACK
  6
Continuous
100
AcDbLine
 10
177.27708
 20
-4.102234
 30
0.0
 11
177.277078
 21
-4.102226
 31
0.0
  0
LINE
  5
4E6
330
1D
100
AcDbEntity
  8
BLACK
  6
Continuous
100
AcDbLine
 10
190.528081
 20
-15.70064
 30
0.0
 11
190.528081
 21
-15.700641
 31
0.0
  0
LINE
  5
4E7
330
1D
100
AcDbEntity
  8
BLACK
  6
Continuous
100
AcDbLine
 10
203.331311
 20
-20.156281
 30
0.0
 11
203.331312
 21
-20.156281
 31
0.0
  0
LINE
  5
4E8
330
1D
100
AcDbEntity
  8
BLACK
  6
Continuous
100
AcDbLine
 10
188.428081
 20
-74.570641
 30
0.0
 11
188.428081
 21
-74.57064
 31
0.0
  0
LINE
  5
4E9
330
1D
100
AcDbEntity
  8
BLACK
  6
Continuous
100
AcDbLine
 10
175.17708
 20
-62.972235
 30
0.0
 11
175.177078
 21
-62.972226
 31
0.0
  0
LINE
  5
4EA
330
1D
100
AcDbEntity
  8
BLACK
  6
Continuous
100
AcDbLine
 10
84.38996499999999
 20
-68.148851
 30
0.0
 11
84.38996399999999
 21
-68.148851
 31
0.0
  0
LINE
  5
4EB
330
1D
100
AcDbEntity
  8
BLACK
  6
Continuous
100
AcDbLine
 10
96.30756
 20
-72.803359
 30
0.0
 11
96.307558
 21
-72.80337
 31
0.0
  0
LINE
  5
4EC
330
1D
100
AcDbEntity
  8
BLACK
  6
Continuous
100
AcDbLine
 10
100.837455
 20
-61.472584
 30
0.0
 11
100.837456
 21
-61.472584
 31
0.0
  0
LINE
  5
4ED
330
1D
100
AcDbEntity
  8
BLACK
  6
Continuous
100
AcDbLine
 10
88.919832
 20
-56.81806899999999
 30
0.0
 11
88.919834
 21
-56.818058
 31
0.0
  0
LINE
  5
4EE
330
1D
100
AcDbEntity
  8
BLACK
  6
Continuous
100
AcDbLine
 10
72.98625299999999
 20
-7.298133999999999
 30
0.0
 11
72.986252
 21
-7.298133999999999
 31
0.0
  0
LINE
  5
4EF
330
1D
100
AcDbEntity
  8
BLACK
  6
Continuous
100
AcDbLine
 10
84.903864
 20
-11.952643
 30
0.0
 11
84.90386099999999
 21
-11.952656
 31
0.0
  0
LINE
  5
4F0
330
1D
100
AcDbEntity
  8
BLACK
  6
Continuous
100
AcDbLine
 10
89.43374299999999
 20
-0.621867
 30
0.0
 11
89.43374399999999
 21
-0.621867
 31
0.0
  0
LINE
  5
4F1
330
1D
100
AcDbEntity
  8
BLACK
  6
Continuous
100
AcDbLine
 10
77.51613499999999
 20
4.032645
 30
0.0
 11
77.516137
 21
4.032656
 31
0.0
  0
LINE
  5
4F2
330
1D
100
AcDbEntity
  8
BLACK
  6
Continuous
100
AcDbLine
 10
53.36
 20
-4.975
 30
0.0
 11
53.359998
 21
-4.975
 31
0.0
  0
LINE
  5
4F3
330
1D
100
AcDbEntity
  8
BLACK
  6
Continuous
100
AcDbLine
 10
60.946253
 20
-84.178134
 30
0.0
 11
60.94625199999999
 21
-84.178134
 31
0.0
  0
LINE
  5
4F4
330
1D
100
AcDbEntity
  8
BLACK
  6
Continuous
100
AcDbLine
 10
72.86386399999999
 20
-88.83264299999999
 30
0.0
 11
72.863861
 21
-88.832656
 31
0.0
  0
LINE
  5
4F5
330
1D
100
AcDbEntity
  8
BLACK
  6
Continuous
100
AcDbLine
 10
77.393743
 20
-77.50186699999999
 30
0.0
 11
77.393744
 21
-77.50186699999999
 31
0.0
  0
LINE
  5
4F6
330
1D
100
AcDbEntity
  8
BLACK
  6
Continuous
100
AcDbLine
 10
65.476135
 20
-72.847355
 30
0.0
 11
65.476137
 21
-72.84734399999999
 31
0.0
  0
LINE
  5
4F7
330
1D
100
AcDbEntity
  8
BLACK
  6
Continuous
100
AcDbLine
 10
60.706317
 20
-96.96262999999999
 30
0.0
 11
60.706319
 21
-96.96261899999999
 31
0.0
  0
CIRCLE
  5
4F8
330
1D
100
AcDbEntity
  8
BLACK
100
AcDbCircle
 10
38.929998
 20
-66.489998
 30
0.0
 40
1.0
  0
CIRCLE
  5
4F9
330
1D
100
AcDbEntity
  8
BLACK
100
AcDbCircle
 10
6.129998
 20
-66.489998
 30
0.0
 40
1.0
  0
ARC
  5
4FA
330
1D
100
AcDbEntity
  8
BLACK
100
AcDbCircle
 10
37.180339
 20
-62.54046
 30
0.0
 40
1.425024
100
AcDbArc
 50
269.54469209
 51
0.0
  0
ARC
  5
4FB
330
1D
100
AcDbEntity
  8
BLACK
100
AcDbCircle
 10
37.180399
 20
-54.9395
 30
0.0
 40
1.424942
100
AcDbArc
 50
359.99766786
 51
90.0
  0
ARC
  5
4FC
330
1D
100
AcDbEntity
  8
BLACK
100
AcDbCircle
 10
36.314799
 20
-52.58609999999999
 30
0.0
 40
0.928458
100
AcDbArc
 50
202.0244092
 51
270.0
  0
ARC
  5
4FD
330
1D
100
AcDbEntity
  8
BLACK
100
AcDbCircle
 10
36.776399
 20
-65.6905
 30
0.0
 40
1.725045371519254
100
AcDbArc
 50
90.0
 51
159.4511154
  0
ARC
  5
4FE
330
1D
100
AcDbEntity
  8
BLACK
100
AcDbCircle
 10
33.405299
 20
-64.4268
 30
0.0
 40
1.87512863820059
100
AcDbArc
 50
269.73538702
 51
339.45059949
  0
ARC
  5
4FF
330
1D
100
AcDbEntity
  8
BLACK
100
AcDbCircle
 10
34.457499
 20
-53.3375
 30
0.0
 40
1.075102
100
AcDbArc
 50
22.02846853
 51
90.0
  0
ARC
  5
500
330
1D
100
AcDbEntity
  8
BLACK
100
AcDbCircle
 10
11.654459
 20
-64.42690999999999
 30
0.0
 40
1.874998
100
AcDbArc
 50
200.54701807
 51
270.0
  0
ARC
  5
501
330
1D
100
AcDbEntity
  8
BLACK
100
AcDbCircle
 10
10.602229
 20
-53.33723999999999
 30
0.0
 40
1.074859461790238
100
AcDbArc
 50
89.99232400000001
 51
157.98202934
  0
ARC
  5
502
330
1D
100
AcDbEntity
  8
BLACK
100
AcDbCircle
 10
8.745179
 20
-52.58626
 30
0.0
 40
0.9282894749915028
100
AcDbArc
 50
269.99345751
 51
337.9817161199999
  0
ARC
  5
503
330
1D
100
AcDbEntity
  8
BLACK
100
AcDbCircle
 10
8.283548999999999
 20
-65.69035
 30
0.0
 40
1.724912
100
AcDbArc
 50
20.54561447
 51
90.0
  0
ARC
  5
504
330
1D
100
AcDbEntity
  8
BLACK
100
AcDbCircle
 10
7.879499
 20
-62.5404
 30
0.0
 40
1.425038
100
AcDbArc
 50
179.68896083
 51
270.0
  0
ARC
  5
505
330
1D
100
AcDbEntity
  8
BLACK
100
AcDbCircle
 10
7.879549
 20
-54.93958
 30
0.0
 40
1.425066000035086
100
AcDbArc
 50
89.54936987000002
 51
180.00040206
  0
LINE
  5
506
330
1D
100
AcDbEntity
  8
BLACK
  6
Continuous
100
AcDbLine
 10
38.605363
 20
-54.939558
 30
0.0
 11
38.605363
 21
-62.54046
 31
0.0
  0
LINE
  5
507
330
1D
100
AcDbEntity
  8
BLACK
  6
Continuous
100
AcDbLine
 10
37.169015
 20
-63.965438
 30
0.0
 11
36.776399
 21
-63.965438
 31
0.0
  0
LINE
  5
508
330
1D
100
AcDbEntity
  8
BLACK
  6
Continuous
100
AcDbLine
 10
36.314799
 20
-53.514558
 30
0.0
 11
37.180399
 21
-53.514558
 31
0.0
  0
LINE
  5
509
330
1D
100
AcDbEntity
  8
BLACK
  6
Continuous
100
AcDbLine
 10
33.396639
 20
-66.301908
 30
0.0
 11
11.654459
 21
-66.301908
 31
0.0
  0
LINE
  5
50A
330
1D
100
AcDbEntity
  8
BLACK
  6
Continuous
100
AcDbLine
 10
10.602373
 20
-52.262398
 30
0.0
 11
10.602373
 21
-52.26238499999999
 31
0.0
  0
LINE
  5
50B
330
1D
100
AcDbEntity
  8
BLACK
  6
Continuous
100
AcDbLine
 10
10.602373
 20
-52.262398
 30
0.0
 11
34.457499
 21
-52.262398
 31
0.0
  0
LINE
  5
50C
330
1D
100
AcDbEntity
  8
BLACK
  6
Continuous
100
AcDbLine
 10
8.745073
 20
-53.514546
 30
0.0
 11
8.745073
 21
-53.514554
 31
0.0
  0
LINE
  5
50D
330
1D
100
AcDbEntity
  8
BLACK
  6
Continuous
100
AcDbLine
 10
8.283548999999999
 20
-63.965438
 30
0.0
 11
7.879499
 21
-63.965438
 31
0.0
  0
LINE
  5
50E
330
1D
100
AcDbEntity
  8
BLACK
  6
Continuous
100
AcDbLine
 10
7.890757
 20
-53.514558
 30
0.0
 11
8.745073
 21
-53.514558
 31
0.0
  0
LINE
  5
50F
330
1D
100
AcDbEntity
  8
BLACK
  6
Continuous
100
AcDbLine
 10
6.454483
 20
-62.532664
 30
0.0
 11
6.454483
 21
-54.93959
 31
0.0
  0
CIRCLE
  5
510
330
1D
100
AcDbEntity
  8
BLACK
100
AcDbCircle
 10
201.008583
 20
-91.53290899999999
 30
0.0
 40
0.999999
  0
CIRCLE
  5
511
330
1D
100
AcDbEntity
  8
BLACK
100
AcDbCircle
 10
168.925342
 20
-98.352412
 30
0.0
 40
0.999999
  0
ARC
  5
512
330
1D
100
AcDbEntity
  8
BLACK
100
AcDbCircle
 10
198.475899
 20
-88.0334
 30
0.0
 40
1.42511516360363
100
AcDbArc
 50
281.45703778
 51
11.99999576
  0
ARC
  5
513
330
1D
100
AcDbEntity
  8
BLACK
100
AcDbCircle
 10
196.895699
 20
-80.59859999999999
 30
0.0
 40
1.424955295670008
100
AcDbArc
 50
11.99821736
 51
101.99992334
  0
ARC
  5
514
330
1D
100
AcDbEntity
  8
BLACK
100
AcDbCircle
 10
195.559699
 20
-78.4767
 30
0.0
 40
0.9283453913549633
100
AcDbArc
 50
214.01968378
 51
281.99994574
  0
ARC
  5
515
330
1D
100
AcDbEntity
  8
BLACK
100
AcDbCircle
 10
198.735699
 20
-91.1985
 30
0.0
 40
1.724904767346012
100
AcDbArc
 50
102.13794779
 51
171.45513219
  0
ARC
  5
516
330
1D
100
AcDbEntity
  8
BLACK
100
AcDbCircle
 10
195.175699
 20
-90.6635
 30
0.0
 40
1.875070928368578
100
AcDbArc
 50
282.00261756
 51
351.45198868
  0
ARC
  5
517
330
1D
100
AcDbEntity
  8
BLACK
100
AcDbCircle
 10
193.899299
 20
-79.5975
 30
0.0
 40
1.074904203847952
100
AcDbArc
 50
34.02039042
 51
101.9999918
  0
ARC
  5
518
330
1D
100
AcDbEntity
  8
BLACK
100
AcDbCircle
 10
173.900099
 20
-95.18589999999999
 30
0.0
 40
1.874916413207266
100
AcDbArc
 50
212.54530274
 51
281.9999987
  0
ARC
  5
519
330
1D
100
AcDbEntity
  8
BLACK
100
AcDbCircle
 10
170.565299
 20
-84.5573
 30
0.0
 40
1.074935768195477
100
AcDbArc
 50
101.9952446
 51
169.97973742
  0
ARC
  5
51A
330
1D
100
AcDbEntity
  8
BLACK
100
AcDbCircle
 10
168.592599
 20
-84.2087
 30
0.0
 40
0.9283283810947504
100
AcDbArc
 50
281.99408977
 51
349.9772828
  0
ARC
  5
51B
330
1D
100
AcDbEntity
  8
BLACK
100
AcDbCircle
 10
170.865599
 20
-97.1224
 30
0.0
 40
1.724828635926769
100
AcDbArc
 50
32.54348600000001
 51
101.99999871
  0
ARC
  5
51C
330
1D
100
AcDbEntity
  8
BLACK
100
AcDbCircle
 10
169.815399
 20
-94.1255
 30
0.0
 40
1.424931404303379
100
AcDbArc
 50
191.99723804
 51
282.00004532
  0
ARC
  5
51D
330
1D
100
AcDbEntity
  8
BLACK
100
AcDbCircle
 10
168.235299
 20
-86.69069999999999
 30
0.0
 40
1.425158117008074
100
AcDbArc
 50
101.46558802
 51
191.99999861
  0
LINE
  5
51E
330
1D
100
AcDbEntity
  8
BLACK
  6
Continuous
100
AcDbLine
 10
198.28957
 20
-80.302369
 30
0.0
 11
199.869872
 21
-87.737102
 31
0.0
  0
LINE
  5
51F
330
1D
100
AcDbEntity
  8
BLACK
  6
Continuous
100
AcDbLine
 10
198.758974
 20
-89.430118
 30
0.0
 11
198.37301
 21
-89.512157
 31
0.0
  0
LINE
  5
520
330
1D
100
AcDbEntity
  8
BLACK
  6
Continuous
100
AcDbLine
 10
195.752712
 20
-79.384759
 30
0.0
 11
196.599436
 21
-79.20478299999999
 31
0.0
  0
LINE
  5
521
330
1D
100
AcDbEntity
  8
BLACK
  6
Continuous
100
AcDbLine
 10
195.565627
 20
-92.497553
 30
0.0
 11
174.289916
 21
-97.01984499999999
 31
0.0
  0
LINE
  5
522
330
1D
100
AcDbEntity
  8
BLACK
  6
Continuous
100
AcDbLine
 10
170.3419
 20
-83.505861
 30
0.0
 11
170.341894
 21
-83.505833
 31
0.0
  0
LINE
  5
523
330
1D
100
AcDbEntity
  8
BLACK
  6
Continuous
100
AcDbLine
 10
170.3419
 20
-83.505861
 30
0.0
 11
193.675814
 21
-78.54608499999999
 31
0.0
  0
LINE
  5
524
330
1D
100
AcDbEntity
  8
BLACK
  6
Continuous
100
AcDbLine
 10
168.785515
 20
-85.116759
 30
0.0
 11
168.785525
 21
-85.116812
 31
0.0
  0
LINE
  5
525
330
1D
100
AcDbEntity
  8
BLACK
  6
Continuous
100
AcDbLine
 10
170.506987
 20
-95.43526299999999
 30
0.0
 11
170.11166
 21
-95.51929299999999
 31
0.0
  0
LINE
  5
526
330
1D
100
AcDbEntity
  8
BLACK
  6
Continuous
100
AcDbLine
 10
167.952007
 20
-85.293982
 30
0.0
 11
168.785525
 21
-85.116812
 31
0.0
  0
LINE
  5
527
330
1D
100
AcDbEntity
  8
BLACK
  6
Continuous
100
AcDbLine
 10
168.421576
 20
-94.421696
 30
0.0
 11
166.841284
 21
-86.98700699999999
 31
0.0
  0
CIRCLE
  5
528
330
1D
100
AcDbEntity
  8
BLACK
100
AcDbCircle
 10
311.336249
 20
-47.439999
 30
0.0
 40
1.0
  0
CIRCLE
  5
529
330
1D
100
AcDbEntity
  8
BLACK
100
AcDbCircle
 10
278.536249
 20
-47.439999
 30
0.0
 40
1.0
  0
ARC
  5
52A
330
1D
100
AcDbEntity
  8
BLACK
100
AcDbCircle
 10
309.586599
 20
-43.4904
 30
0.0
 40
1.425015
100
AcDbArc
 50
269.52187448
 51
0.0
  0
ARC
  5
52B
330
1D
100
AcDbEntity
  8
BLACK
100
AcDbCircle
 10
309.586499
 20
-35.8897
 30
0.0
 40
1.425141003508425
100
AcDbArc
 50
359.65794571
 51
89.99597964
  0
ARC
  5
52C
330
1D
100
AcDbEntity
  8
BLACK
100
AcDbCircle
 10
308.721099
 20
-33.536
 30
0.0
 40
0.9285589999999999
100
AcDbArc
 50
202.02905277
 51
270.0
  0
ARC
  5
52D
330
1D
100
AcDbEntity
  8
BLACK
100
AcDbCircle
 10
309.182599
 20
-46.6404
 30
0.0
 40
1.724962166549168
100
AcDbArc
 50
90.0
 51
159.45366212
  0
ARC
  5
52E
330
1D
100
AcDbEntity
  8
BLACK
100
AcDbCircle
 10
305.811499
 20
-45.3768
 30
0.0
 40
1.875176744156667
100
AcDbArc
 50
270.0
 51
339.45111786
  0
ARC
  5
52F
330
1D
100
AcDbEntity
  8
BLACK
100
AcDbCircle
 10
306.863799
 20
-34.2874
 30
0.0
 40
1.075001
100
AcDbArc
 50
22.02445785
 51
90.0
  0
ARC
  5
530
330
1D
100
AcDbEntity
  8
BLACK
100
AcDbCircle
 10
284.060699
 20
-45.377
 30
0.0
 40
1.874909
100
AcDbArc
 50
200.54458936
 51
270.0
  0
ARC
  5
531
330
1D
100
AcDbEntity
  8
BLACK
100
AcDbCircle
 10
283.008499
 20
-34.2873
 30
0.0
 40
1.074899196048634
100
AcDbArc
 50
89.99333707000001
 51
157.97949349
  0
ARC
  5
532
330
1D
100
AcDbEntity
  8
BLACK
100
AcDbCircle
 10
281.151399
 20
-33.5362
 30
0.0
 40
0.9283410841204863
100
AcDbArc
 50
269.99537111
 51
337.97894317
  0
ARC
  5
533
330
1D
100
AcDbEntity
  8
BLACK
100
AcDbCircle
 10
280.689799
 20
-46.6404
 30
0.0
 40
1.724961
100
AcDbArc
 50
20.54712688
 51
90.0
  0
ARC
  5
534
330
1D
100
AcDbEntity
  8
BLACK
100
AcDbCircle
 10
280.285699
 20
-43.4904
 30
0.0
 40
1.425039003508676
100
AcDbArc
 50
179.4241123
 51
269.99597935
  0
ARC
  5
535
330
1D
100
AcDbEntity
  8
BLACK
100
AcDbCircle
 10
280.285799
 20
-35.8896
 30
0.0
 40
1.425065
100
AcDbArc
 50
89.66749674
 51
180.0
  0
LINE
  5
536
330
1D
100
AcDbEntity
  8
BLACK
  6
Continuous
100
AcDbLine
 10
311.011614
 20
-35.898208
 30
0.0
 11
311.011614
 21
-43.4904
 31
0.0
  0
LINE
  5
537
330
1D
100
AcDbEntity
  8
BLACK
  6
Continuous
100
AcDbLine
 10
309.574707
 20
-44.915439
 30
0.0
 11
309.182599
 21
-44.915439
 31
0.0
  0
LINE
  5
538
330
1D
100
AcDbEntity
  8
BLACK
  6
Continuous
100
AcDbLine
 10
308.721099
 20
-34.464559
 30
0.0
 11
309.586599
 21
-34.464559
 31
0.0
  0
LINE
  5
539
330
1D
100
AcDbEntity
  8
BLACK
  6
Continuous
100
AcDbLine
 10
305.811499
 20
-47.251909
 30
0.0
 11
284.060699
 21
-47.251909
 31
0.0
  0
LINE
  5
53A
330
1D
100
AcDbEntity
  8
BLACK
  6
Continuous
100
AcDbLine
 10
283.008624
 20
-33.21241
 30
0.0
 11
283.008624
 21
-33.212399
 31
0.0
  0
LINE
  5
53B
330
1D
100
AcDbEntity
  8
BLACK
  6
Continuous
100
AcDbLine
 10
283.008624
 20
-33.212399
 30
0.0
 11
306.863799
 21
-33.212399
 31
0.0
  0
LINE
  5
53C
330
1D
100
AcDbEntity
  8
BLACK
  6
Continuous
100
AcDbLine
 10
281.151324
 20
-34.46453899999999
 30
0.0
 11
281.151324
 21
-34.464559
 31
0.0
  0
LINE
  5
53D
330
1D
100
AcDbEntity
  8
BLACK
  6
Continuous
100
AcDbLine
 10
280.689799
 20
-44.915439
 30
0.0
 11
280.285599
 21
-44.915439
 31
0.0
  0
LINE
  5
53E
330
1D
100
AcDbEntity
  8
BLACK
  6
Continuous
100
AcDbLine
 10
280.294069
 20
-34.464559
 30
0.0
 11
281.151324
 21
-34.464559
 31
0.0
  0
LINE
  5
53F
330
1D
100
AcDbEntity
  8
BLACK
  6
Continuous
100
AcDbLine
 10
278.860734
 20
-43.476077
 30
0.0
 11
278.860734
 21
-35.8896
 31
0.0
  0
ARC
  5
540
330
1D
100
AcDbEntity
  8
BLACK
100
AcDbCircle
 10
307.840599
 20
-83.363
 30
0.0
 40
2.075
100
AcDbArc
 50
270.0
 51
0.0
  0
ARC
  5
541
330
1D
100
AcDbEntity
  8
BLACK
100
AcDbCircle
 10
307.840599
 20
-73.413
 30
0.0
 40
2.075002
100
AcDbArc
 50
0.0
 51
90.0
  0
ARC
  5
542
330
1D
100
AcDbEntity
  8
BLACK
100
AcDbCircle
 10
297.290599
 20
-83.363
 30
0.0
 40
2.074998
100
AcDbArc
 50
180.0
 51
270.0
  0
ARC
  5
543
330
1D
100
AcDbEntity
  8
BLACK
100
AcDbCircle
 10
297.290599
 20
-73.413
 30
0.0
 40
2.075
100
AcDbArc
 50
90.0
 51
180.0
  0
LINE
  5
544
330
1D
100
AcDbEntity
  8
BLACK
  6
Continuous
100
AcDbLine
 10
309.915599
 20
-73.413
 30
0.0
 11
309.915599
 21
-83.363
 31
0.0
  0
LINE
  5
545
330
1D
100
AcDbEntity
  8
BLACK
  6
Continuous
100
AcDbLine
 10
307.840599
 20
-85.437998
 30
0.0
 11
297.290599
 21
-85.437998
 31
0.0
  0
LINE
  5
546
330
1D
100
AcDbEntity
  8
BLACK
  6
Continuous
100
AcDbLine
 10
307.840599
 20
-71.337998
 30
0.0
 11
297.290599
 21
-71.337998
 31
0.0
  0
LINE
  5
547
330
1D
100
AcDbEntity
  8
BLACK
  6
Continuous
100
AcDbLine
 10
295.215599
 20
-73.413
 30
0.0
 11
295.215599
 21
-83.363
 31
0.0
  0
ARC
  5
548
330
1D
100
AcDbEntity
  8
BLACK
100
AcDbCircle
 10
263.894999
 20
-64.265
 30
0.0
 40
2.075
100
AcDbArc
 50
270.0
 51
0.0
  0
ARC
  5
549
330
1D
100
AcDbEntity
  8
BLACK
100
AcDbCircle
 10
263.894999
 20
-54.315
 30
0.0
 40
2.075001
100
AcDbArc
 50
0.0
 51
90.0
  0
ARC
  5
54A
330
1D
100
AcDbEntity
  8
BLACK
100
AcDbCircle
 10
253.344999
 20
-64.265
 30
0.0
 40
2.074999
100
AcDbArc
 50
180.0
 51
270.0
  0
ARC
  5
54B
330
1D
100
AcDbEntity
  8
BLACK
100
AcDbCircle
 10
253.344999
 20
-54.315
 30
0.0
 40
2.075
100
AcDbArc
 50
90.0
 51
180.0
  0
LINE
  5
54C
330
1D
100
AcDbEntity
  8
BLACK
  6
Continuous
100
AcDbLine
 10
265.969999
 20
-54.315
 30
0.0
 11
265.969999
 21
-64.265
 31
0.0
  0
LINE
  5
54D
330
1D
100
AcDbEntity
  8
BLACK
  6
Continuous
100
AcDbLine
 10
263.894999
 20
-66.33999899999999
 30
0.0
 11
253.344999
 21
-66.33999899999999
 31
0.0
  0
LINE
  5
54E
330
1D
100
AcDbEntity
  8
BLACK
  6
Continuous
100
AcDbLine
 10
263.894999
 20
-52.239999
 30
0.0
 11
253.344999
 21
-52.239999
 31
0.0
  0
LINE
  5
54F
330
1D
100
AcDbEntity
  8
BLACK
  6
Continuous
100
AcDbLine
 10
251.269999
 20
-54.315
 30
0.0
 11
251.269999
 21
-64.265
 31
0.0
  0
ARC
  5
550
330
1D
100
AcDbEntity
  8
BLACK
100
AcDbCircle
 10
169.362899
 20
-76.5017
 30
0.0
 40
2.075051957188783
100
AcDbArc
 50
281.6532794500001
 51
12.00001239
  0
ARC
  5
551
330
1D
100
AcDbEntity
  8
BLACK
100
AcDbCircle
 10
167.294199
 20
-66.7692
 30
0.0
 40
2.075059012133631
100
AcDbArc
 50
11.78955239
 51
101.99999922
  0
ARC
  5
552
330
1D
100
AcDbEntity
  8
BLACK
100
AcDbCircle
 10
159.043499
 20
-78.6952
 30
0.0
 40
2.074970170881981
100
AcDbArc
 50
191.99920186
 51
282.00001252
  0
ARC
  5
553
330
1D
100
AcDbEntity
  8
BLACK
100
AcDbCircle
 10
156.974799
 20
-68.9626
 30
0.0
 40
2.075025277880971
100
AcDbArc
 50
102.26977359
 51
191.9999996
  0
LINE
  5
554
330
1D
100
AcDbEntity
  8
BLACK
  6
Continuous
100
AcDbLine
 10
169.325484
 20
-66.345229
 30
0.0
 11
171.392606
 21
-76.070272
 31
0.0
  0
LINE
  5
555
330
1D
100
AcDbEntity
  8
BLACK
  6
Continuous
100
AcDbLine
 10
169.782036
 20
-78.53398
 30
0.0
 11
159.47491
 21
-80.72482699999999
 31
0.0
  0
LINE
  5
556
330
1D
100
AcDbEntity
  8
BLACK
  6
Continuous
100
AcDbLine
 10
166.86277
 20
-64.739486
 30
0.0
 11
156.533825
 21
-66.934972
 31
0.0
  0
LINE
  5
557
330
1D
100
AcDbEntity
  8
BLACK
  6
Continuous
100
AcDbLine
 10
154.945118
 20
-69.39402199999999
 30
0.0
 11
157.013839
 21
-79.126588
 31
0.0
  0
ARC
  5
558
330
1D
100
AcDbEntity
  8
BLACK
100
AcDbCircle
 10
260.214999
 20
-26.165
 30
0.0
 40
2.074999
100
AcDbArc
 50
270.0
 51
0.0
  0
ARC
  5
559
330
1D
100
AcDbEntity
  8
BLACK
100
AcDbCircle
 10
260.214999
 20
-16.215
 30
0.0
 40
2.075002
100
AcDbArc
 50
0.0
 51
90.0
  0
ARC
  5
55A
330
1D
100
AcDbEntity
  8
BLACK
100
AcDbCircle
 10
249.664999
 20
-26.165
 30
0.0
 40
2.074998
100
AcDbArc
 50
180.0
 51
270.0
  0
ARC
  5
55B
330
1D
100
AcDbEntity
  8
BLACK
100
AcDbCircle
 10
249.664999
 20
-16.215
 30
0.0
 40
2.075001
100
AcDbArc
 50
90.0
 51
180.0
  0
LINE
  5
55C
330
1D
100
AcDbEntity
  8
BLACK
  6
Continuous
100
AcDbLine
 10
262.289998
 20
-16.215
 30
0.0
 11
262.289998
 21
-26.165
 31
0.0
  0
LINE
  5
55D
330
1D
100
AcDbEntity
  8
BLACK
  6
Continuous
100
AcDbLine
 10
260.214999
 20
-28.239998
 30
0.0
 11
249.664999
 21
-28.239998
 31
0.0
  0
LINE
  5
55E
330
1D
100
AcDbEntity
  8
BLACK
  6
Continuous
100
AcDbLine
 10
260.214999
 20
-14.139998
 30
0.0
 11
249.664999
 21
-14.139998
 31
0.0
  0
LINE
  5
55F
330
1D
100
AcDbEntity
  8
BLACK
  6
Continuous
100
AcDbLine
 10
247.589998
 20
-16.215
 30
0.0
 11
247.589998
 21
-26.165
 31
0.0
  0
ARC
  5
560
330
1D
100
AcDbEntity
  8
BLACK
100
AcDbCircle
 10
208.730399
 20
-9.7103
 30
0.0
 40
2.074985466831033
100
AcDbArc
 50
281.73024333
 51
12.00000743
  0
ARC
  5
561
330
1D
100
AcDbEntity
  8
BLACK
100
AcDbCircle
 10
206.661699
 20
0.0224
 30
0.0
 40
2.074913877823607
100
AcDbArc
 50
11.99760799
 51
102.00000416
  0
ARC
  5
562
330
1D
100
AcDbEntity
  8
BLACK
100
AcDbCircle
 10
198.410899
 20
-11.9038
 30
0.0
 40
2.074940349219707
100
AcDbArc
 50
191.99836729
 51
281.99998994
  0
ARC
  5
563
330
1D
100
AcDbEntity
  8
BLACK
100
AcDbCircle
 10
196.342299
 20
-2.1712
 30
0.0
 40
2.075092746386291
100
AcDbArc
 50
101.65324566
 51
191.99999883
  0
LINE
  5
564
330
1D
100
AcDbEntity
  8
BLACK
  6
Continuous
100
AcDbLine
 10
208.691311
 20
0.453719
 30
0.0
 11
210.760041
 21
-9.278886
 31
0.0
  0
LINE
  5
565
330
1D
100
AcDbEntity
  8
BLACK
  6
Continuous
100
AcDbLine
 10
209.152252
 20
-11.74195
 30
0.0
 11
198.842303
 21
-13.933398
 31
0.0
  0
LINE
  5
566
330
1D
100
AcDbEntity
  8
BLACK
  6
Continuous
100
AcDbLine
 10
206.2303
 20
2.051972
 30
0.0
 11
195.923155
 21
-0.13888
 31
0.0
  0
LINE
  5
567
330
1D
100
AcDbEntity
  8
BLACK
  6
Continuous
100
AcDbLine
 10
194.312552
 20
-2.602636
 30
0.0
 11
196.381263
 21
-12.335152
 31
0.0
  0
ARC
  5
568
330
1D
100
AcDbEntity
  8
BLACK
100
AcDbCircle
 10
190.096699
 20
-13.671
 30
0.0
 40
2.074970170881981
100
AcDbArc
 50
281.9991488700001
 51
12.00001252
  0
ARC
  5
569
330
1D
100
AcDbEntity
  8
BLACK
100
AcDbCircle
 10
188.027899
 20
-3.9385
 30
0.0
 40
2.075073329935113
100
AcDbArc
 50
11.78957589
 51
101.99999987
  0
ARC
  5
56A
330
1D
100
AcDbEntity
  8
BLACK
100
AcDbCircle
 10
179.777199
 20
-15.8645
 30
0.0
 40
2.074955853080494
100
AcDbArc
 50
191.99878458
 51
282.00001186
  0
ARC
  5
56B
330
1D
100
AcDbEntity
  8
BLACK
100
AcDbCircle
 10
177.708499
 20
-6.1319
 30
0.0
 40
2.075009981931894
100
AcDbArc
 50
102.00000469
 51
192.00000469
  0
LINE
  5
56C
330
1D
100
AcDbEntity
  8
BLACK
  6
Continuous
100
AcDbLine
 10
190.059199
 20
-3.514525
 30
0.0
 11
192.126326
 21
-13.239589
 31
0.0
  0
LINE
  5
56D
330
1D
100
AcDbEntity
  8
BLACK
  6
Continuous
100
AcDbLine
 10
190.528081
 20
-15.70064
 30
0.0
 11
180.208607
 21
-17.894113
 31
0.0
  0
LINE
  5
56E
330
1D
100
AcDbEntity
  8
BLACK
  6
Continuous
100
AcDbLine
 10
187.596467
 20
-1.908772
 30
0.0
 11
177.277078
 21
-4.102226
 31
0.0
  0
LINE
  5
56F
330
1D
100
AcDbEntity
  8
BLACK
  6
Continuous
100
AcDbLine
 10
175.678833
 20
-6.563319
 30
0.0
 11
177.747551
 21
-16.29587
 31
0.0
  0
ARC
  5
570
330
1D
100
AcDbEntity
  8
BLACK
100
AcDbCircle
 10
241.584999
 20
-25.105
 30
0.0
 40
2.074999
100
AcDbArc
 50
270.0
 51
0.0
  0
ARC
  5
571
330
1D
100
AcDbEntity
  8
BLACK
100
AcDbCircle
 10
241.584999
 20
-15.155
 30
0.0
 40
2.075002
100
AcDbArc
 50
0.0
 51
90.0
  0
ARC
  5
572
330
1D
100
AcDbEntity
  8
BLACK
100
AcDbCircle
 10
231.034999
 20
-25.105
 30
0.0
 40
2.074998
100
AcDbArc
 50
180.0
 51
270.0
  0
ARC
  5
573
330
1D
100
AcDbEntity
  8
BLACK
100
AcDbCircle
 10
231.034999
 20
-15.155
 30
0.0
 40
2.075001
100
AcDbArc
 50
90.0
 51
180.0
  0
LINE
  5
574
330
1D
100
AcDbEntity
  8
BLACK
  6
Continuous
100
AcDbLine
 10
243.659998
 20
-15.155
 30
0.0
 11
243.659998
 21
-25.105
 31
0.0
  0
LINE
  5
575
330
1D
100
AcDbEntity
  8
BLACK
  6
Continuous
100
AcDbLine
 10
241.584999
 20
-27.179998
 30
0.0
 11
231.034999
 21
-27.179998
 31
0.0
  0
LINE
  5
576
330
1D
100
AcDbEntity
  8
BLACK
  6
Continuous
100
AcDbLine
 10
241.584999
 20
-13.079998
 30
0.0
 11
231.034999
 21
-13.079998
 31
0.0
  0
LINE
  5
577
330
1D
100
AcDbEntity
  8
BLACK
  6
Continuous
100
AcDbLine
 10
228.959998
 20
-15.155
 30
0.0
 11
228.959998
 21
-25.105
 31
0.0
  0
ARC
  5
578
330
1D
100
AcDbEntity
  8
BLACK
100
AcDbCircle
 10
203.370399
 20
-30.3203
 30
0.0
 40
2.074985466831033
100
AcDbArc
 50
281.73024333
 51
12.00000743
  0
ARC
  5
579
330
1D
100
AcDbEntity
  8
BLACK
100
AcDbCircle
 10
201.301699
 20
-20.5876
 30
0.0
 40
2.074913877823607
100
AcDbArc
 50
11.99760799
 51
102.00000416
  0
ARC
  5
57A
330
1D
100
AcDbEntity
  8
BLACK
100
AcDbCircle
 10
193.050899
 20
-32.5138
 30
0.0
 40
2.074940349219707
100
AcDbArc
 50
191.99836729
 51
281.99998994
  0
ARC
  5
57B
330
1D
100
AcDbEntity
  8
BLACK
100
AcDbCircle
 10
190.982299
 20
-22.7812
 30
0.0
 40
2.075092746386291
100
AcDbArc
 50
101.65324566
 51
191.99999883
  0
LINE
  5
57C
330
1D
100
AcDbEntity
  8
BLACK
  6
Continuous
100
AcDbLine
 10
203.331311
 20
-20.156281
 30
0.0
 11
205.400041
 21
-29.888886
 31
0.0
  0
LINE
  5
57D
330
1D
100
AcDbEntity
  8
BLACK
  6
Continuous
100
AcDbLine
 10
203.792252
 20
-32.35195
 30
0.0
 11
193.482303
 21
-34.543398
 31
0.0
  0
LINE
  5
57E
330
1D
100
AcDbEntity
  8
BLACK
  6
Continuous
100
AcDbLine
 10
200.8703
 20
-18.558028
 30
0.0
 11
190.563155
 21
-20.74888
 31
0.0
  0
LINE
  5
57F
330
1D
100
AcDbEntity
  8
BLACK
  6
Continuous
100
AcDbLine
 10
188.952552
 20
-23.212636
 30
0.0
 11
191.021263
 21
-32.945152
 31
0.0
  0
ARC
  5
580
330
1D
100
AcDbEntity
  8
BLACK
100
AcDbCircle
 10
187.996699
 20
-72.541
 30
0.0
 40
2.074970170881981
100
AcDbArc
 50
281.9991488700001
 51
12.00001252
  0
ARC
  5
581
330
1D
100
AcDbEntity
  8
BLACK
100
AcDbCircle
 10
185.927899
 20
-62.8085
 30
0.0
 40
2.075073329935113
100
AcDbArc
 50
11.79720092
 51
101.99999987
  0
ARC
  5
582
330
1D
100
AcDbEntity
  8
BLACK
100
AcDbCircle
 10
177.677199
 20
-74.7345
 30
0.0
 40
2.074955853080494
100
AcDbArc
 50
191.99878458
 51
282.00001186
  0
ARC
  5
583
330
1D
100
AcDbEntity
  8
BLACK
100
AcDbCircle
 10
175.608499
 20
-65.00189999999999
 30
0.0
 40
2.075009981931894
100
AcDbArc
 50
102.00001043
 51
192.00000469
  0
LINE
  5
584
330
1D
100
AcDbEntity
  8
BLACK
  6
Continuous
100
AcDbLine
 10
187.959141
 20
-62.384255
 30
0.0
 11
190.026326
 21
-72.109589
 31
0.0
  0
LINE
  5
585
330
1D
100
AcDbEntity
  8
BLACK
  6
Continuous
100
AcDbLine
 10
188.428081
 20
-74.57064
 30
0.0
 11
178.108607
 21
-76.764113
 31
0.0
  0
LINE
  5
586
330
1D
100
AcDbEntity
  8
BLACK
  6
Continuous
100
AcDbLine
 10
185.496467
 20
-60.778772
 30
0.0
 11
175.177078
 21
-62.972226
 31
0.0
  0
LINE
  5
587
330
1D
100
AcDbEntity
  8
BLACK
  6
Continuous
100
AcDbLine
 10
173.578833
 20
-65.433319
 30
0.0
 11
175.647551
 21
-75.16587
 31
0.0
  0
ARC
  5
588
330
1D
100
AcDbEntity
  8
BLACK
100
AcDbCircle
 10
184.736699
 20
-34.281
 30
0.0
 40
2.074970170881981
100
AcDbArc
 50
281.9991488700001
 51
12.00001252
  0
ARC
  5
589
330
1D
100
AcDbEntity
  8
BLACK
100
AcDbCircle
 10
182.667899
 20
-24.5485
 30
0.0
 40
2.075073329935113
100
AcDbArc
 50
11.78957589
 51
101.99999987
  0
ARC
  5
58A
330
1D
100
AcDbEntity
  8
BLACK
100
AcDbCircle
 10
174.417199
 20
-36.4745
 30
0.0
 40
2.074955853080494
100
AcDbArc
 50
191.99878458
 51
282.00001186
  0
ARC
  5
58B
330
1D
100
AcDbEntity
  8
BLACK
100
AcDbCircle
 10
172.348499
 20
-26.7419
 30
0.0
 40
2.075009981931894
100
AcDbArc
 50
102.00000469
 51
192.00000469
  0
LINE
  5
58C
330
1D
100
AcDbEntity
  8
BLACK
  6
Continuous
100
AcDbLine
 10
184.699199
 20
-24.124525
 30
0.0
 11
186.766326
 21
-33.849589
 31
0.0
  0
LINE
  5
58D
330
1D
100
AcDbEntity
  8
BLACK
  6
Continuous
100
AcDbLine
 10
185.168081
 20
-36.31064
 30
0.0
 11
174.848607
 21
-38.504113
 31
0.0
  0
LINE
  5
58E
330
1D
100
AcDbEntity
  8
BLACK
  6
Continuous
100
AcDbLine
 10
182.236467
 20
-22.518772
 30
0.0
 11
171.917078
 21
-24.712226
 31
0.0
  0
LINE
  5
58F
330
1D
100
AcDbEntity
  8
BLACK
  6
Continuous
100
AcDbLine
 10
170.318833
 20
-27.173319
 30
0.0
 11
172.387551
 21
-36.90587
 31
0.0
  0
ARC
  5
590
330
1D
100
AcDbEntity
  8
BLACK
100
AcDbCircle
 10
246.944999
 20
-4.975
 30
0.0
 40
2.074999
100
AcDbArc
 50
270.0
 51
0.0
  0
ARC
  5
591
330
1D
100
AcDbEntity
  8
BLACK
100
AcDbCircle
 10
246.944999
 20
4.975
 30
0.0
 40
2.075001
100
AcDbArc
 50
0.0
 51
90.0
  0
ARC
  5
592
330
1D
100
AcDbEntity
  8
BLACK
100
AcDbCircle
 10
236.394999
 20
-4.975
 30
0.0
 40
2.074999
100
AcDbArc
 50
180.0
 51
270.0
  0
ARC
  5
593
330
1D
100
AcDbEntity
  8
BLACK
100
AcDbCircle
 10
236.394999
 20
4.975
 30
0.0
 40
2.075001
100
AcDbArc
 50
90.0
 51
180.0
  0
LINE
  5
594
330
1D
100
AcDbEntity
  8
BLACK
  6
Continuous
100
AcDbLine
 10
249.019998
 20
4.975
 30
0.0
 11
249.019998
 21
-4.975
 31
0.0
  0
LINE
  5
595
330
1D
100
AcDbEntity
  8
BLACK
  6
Continuous
100
AcDbLine
 10
246.944999
 20
-7.049999
 30
0.0
 11
236.394999
 21
-7.049999
 31
0.0
  0
LINE
  5
596
330
1D
100
AcDbEntity
  8
BLACK
  6
Continuous
100
AcDbLine
 10
246.944999
 20
7.050001
 30
0.0
 11
236.394999
 21
7.050001
 31
0.0
  0
LINE
  5
597
330
1D
100
AcDbEntity
  8
BLACK
  6
Continuous
100
AcDbLine
 10
234.319998
 20
4.975
 30
0.0
 11
234.319998
 21
-4.975
 31
0.0
  0
ARC
  5
598
330
1D
100
AcDbEntity
  8
BLACK
100
AcDbCircle
 10
250.204999
 20
-45.215
 30
0.0
 40
2.074999
100
AcDbArc
 50
270.0
 51
0.0
  0
ARC
  5
599
330
1D
100
AcDbEntity
  8
BLACK
100
AcDbCircle
 10
250.204999
 20
-35.265
 30
0.0
 40
2.075001
100
AcDbArc
 50
0.0
 51
90.0
  0
ARC
  5
59A
330
1D
100
AcDbEntity
  8
BLACK
100
AcDbCircle
 10
239.654999
 20
-45.215
 30
0.0
 40
2.074999
100
AcDbArc
 50
180.0
 51
270.0
  0
ARC
  5
59B
330
1D
100
AcDbEntity
  8
BLACK
100
AcDbCircle
 10
239.654999
 20
-35.265
 30
0.0
 40
2.075001
100
AcDbArc
 50
90.0
 51
180.0
  0
LINE
  5
59C
330
1D
100
AcDbEntity
  8
BLACK
  6
Continuous
100
AcDbLine
 10
252.279998
 20
-35.265
 30
0.0
 11
252.279998
 21
-45.215
 31
0.0
  0
LINE
  5
59D
330
1D
100
AcDbEntity
  8
BLACK
  6
Continuous
100
AcDbLine
 10
250.204999
 20
-47.28999899999999
 30
0.0
 11
239.654999
 21
-47.28999899999999
 31
0.0
  0
LINE
  5
59E
330
1D
100
AcDbEntity
  8
BLACK
  6
Continuous
100
AcDbLine
 10
250.204999
 20
-33.189999
 30
0.0
 11
239.654999
 21
-33.189999
 31
0.0
  0
LINE
  5
59F
330
1D
100
AcDbEntity
  8
BLACK
  6
Continuous
100
AcDbLine
 10
237.579998
 20
-35.265
 30
0.0
 11
237.579998
 21
-45.215
 31
0.0
  0
ARC
  5
5A0
330
1D
100
AcDbEntity
  8
BLACK
100
AcDbCircle
 10
174.722899
 20
-55.8917
 30
0.0
 40
2.075051957188783
100
AcDbArc
 50
281.6532524100002
 51
12.00001239
  0
ARC
  5
5A1
330
1D
100
AcDbEntity
  8
BLACK
100
AcDbCircle
 10
172.654199
 20
-46.1592
 30
0.0
 40
2.075059012133631
100
AcDbArc
 50
11.78955239
 51
101.99999922
  0
ARC
  5
5A2
330
1D
100
AcDbEntity
  8
BLACK
100
AcDbCircle
 10
164.403499
 20
-58.0852
 30
0.0
 40
2.074970170881981
100
AcDbArc
 50
191.99920186
 51
282.00001252
  0
ARC
  5
5A3
330
1D
100
AcDbEntity
  8
BLACK
100
AcDbCircle
 10
162.334799
 20
-48.3526
 30
0.0
 40
2.075025277880971
100
AcDbArc
 50
102.26977359
 51
191.9999996
  0
LINE
  5
5A4
330
1D
100
AcDbEntity
  8
BLACK
  6
Continuous
100
AcDbLine
 10
174.685484
 20
-45.735229
 30
0.0
 11
176.752606
 21
-55.460272
 31
0.0
  0
LINE
  5
5A5
330
1D
100
AcDbEntity
  8
BLACK
  6
Continuous
100
AcDbLine
 10
175.142035
 20
-57.92398
 30
0.0
 11
164.83491
 21
-60.114827
 31
0.0
  0
LINE
  5
5A6
330
1D
100
AcDbEntity
  8
BLACK
  6
Continuous
100
AcDbLine
 10
172.22277
 20
-44.129486
 30
0.0
 11
161.893825
 21
-46.324972
 31
0.0
  0
LINE
  5
5A7
330
1D
100
AcDbEntity
  8
BLACK
  6
Continuous
100
AcDbLine
 10
160.305118
 20
-48.784022
 30
0.0
 11
162.373839
 21
-58.516588
 31
0.0
  0
ARC
  5
5A8
330
1D
100
AcDbEntity
  8
BLACK
100
AcDbCircle
 10
244.844999
 20
-64.265
 30
0.0
 40
2.075
100
AcDbArc
 50
270.0
 51
0.0
  0
ARC
  5
5A9
330
1D
100
AcDbEntity
  8
BLACK
100
AcDbCircle
 10
244.844999
 20
-54.315
 30
0.0
 40
2.075001
100
AcDbArc
 50
0.0
 51
90.0
  0
ARC
  5
5AA
330
1D
100
AcDbEntity
  8
BLACK
100
AcDbCircle
 10
234.294999
 20
-64.265
 30
0.0
 40
2.074999
100
AcDbArc
 50
180.0
 51
270.0
  0
ARC
  5
5AB
330
1D
100
AcDbEntity
  8
BLACK
100
AcDbCircle
 10
234.294999
 20
-54.315
 30
0.0
 40
2.075
100
AcDbArc
 50
90.0
 51
180.0
  0
LINE
  5
5AC
330
1D
100
AcDbEntity
  8
BLACK
  6
Continuous
100
AcDbLine
 10
246.919999
 20
-54.315
 30
0.0
 11
246.919999
 21
-64.265
 31
0.0
  0
LINE
  5
5AD
330
1D
100
AcDbEntity
  8
BLACK
  6
Continuous
100
AcDbLine
 10
244.844999
 20
-66.33999899999999
 30
0.0
 11
234.294999
 21
-66.33999899999999
 31
0.0
  0
LINE
  5
5AE
330
1D
100
AcDbEntity
  8
BLACK
  6
Continuous
100
AcDbLine
 10
244.844999
 20
-52.239999
 30
0.0
 11
234.294999
 21
-52.239999
 31
0.0
  0
LINE
  5
5AF
330
1D
100
AcDbEntity
  8
BLACK
  6
Continuous
100
AcDbLine
 10
232.219999
 20
-54.315
 30
0.0
 11
232.219999
 21
-64.265
 31
0.0
  0
ARC
  5
5B0
330
1D
100
AcDbEntity
  8
BLACK
100
AcDbCircle
 10
166.102899
 20
-38.2417
 30
0.0
 40
2.075051957188783
100
AcDbArc
 50
281.6532524100002
 51
12.00001239
  0
ARC
  5
5B1
330
1D
100
AcDbEntity
  8
BLACK
100
AcDbCircle
 10
164.034199
 20
-28.5092
 30
0.0
 40
2.075059012133631
100
AcDbArc
 50
11.78955239
 51
101.99999922
  0
ARC
  5
5B2
330
1D
100
AcDbEntity
  8
BLACK
100
AcDbCircle
 10
155.783499
 20
-40.43519999999999
 30
0.0
 40
2.074970170881981
100
AcDbArc
 50
191.99920186
 51
282.00001252
  0
ARC
  5
5B3
330
1D
100
AcDbEntity
  8
BLACK
100
AcDbCircle
 10
153.714799
 20
-30.7026
 30
0.0
 40
2.075025277880971
100
AcDbArc
 50
102.26977359
 51
191.9999996
  0
LINE
  5
5B4
330
1D
100
AcDbEntity
  8
BLACK
  6
Continuous
100
AcDbLine
 10
166.065484
 20
-28.085229
 30
0.0
 11
168.132606
 21
-37.810272
 31
0.0
  0
LINE
  5
5B5
330
1D
100
AcDbEntity
  8
BLACK
  6
Continuous
100
AcDbLine
 10
166.522035
 20
-40.27398
 30
0.0
 11
156.21491
 21
-42.464827
 31
0.0
  0
LINE
  5
5B6
330
1D
100
AcDbEntity
  8
BLACK
  6
Continuous
100
AcDbLine
 10
163.60277
 20
-26.479486
 30
0.0
 11
153.273825
 21
-28.674972
 31
0.0
  0
LINE
  5
5B7
330
1D
100
AcDbEntity
  8
BLACK
  6
Continuous
100
AcDbLine
 10
151.685118
 20
-31.134022
 30
0.0
 11
153.753839
 21
-40.866588
 31
0.0
  0
ARC
  5
5B8
330
1D
100
AcDbEntity
  8
BLACK
100
AcDbCircle
 10
279.264999
 20
-26.165
 30
0.0
 40
2.075
100
AcDbArc
 50
270.0
 51
0.0
  0
ARC
  5
5B9
330
1D
100
AcDbEntity
  8
BLACK
100
AcDbCircle
 10
279.264999
 20
-16.215
 30
0.0
 40
2.075001
100
AcDbArc
 50
0.0
 51
90.0
  0
ARC
  5
5BA
330
1D
100
AcDbEntity
  8
BLACK
100
AcDbCircle
 10
268.714999
 20
-26.165
 30
0.0
 40
2.074999
100
AcDbArc
 50
180.0
 51
270.0
  0
ARC
  5
5BB
330
1D
100
AcDbEntity
  8
BLACK
100
AcDbCircle
 10
268.714999
 20
-16.215
 30
0.0
 40
2.075
100
AcDbArc
 50
90.0
 51
180.0
  0
LINE
  5
5BC
330
1D
100
AcDbEntity
  8
BLACK
  6
Continuous
100
AcDbLine
 10
281.339999
 20
-16.215
 30
0.0
 11
281.339999
 21
-26.165
 31
0.0
  0
LINE
  5
5BD
330
1D
100
AcDbEntity
  8
BLACK
  6
Continuous
100
AcDbLine
 10
279.264999
 20
-28.239999
 30
0.0
 11
268.714999
 21
-28.239999
 31
0.0
  0
LINE
  5
5BE
330
1D
100
AcDbEntity
  8
BLACK
  6
Continuous
100
AcDbLine
 10
279.264999
 20
-14.139999
 30
0.0
 11
268.714999
 21
-14.139999
 31
0.0
  0
LINE
  5
5BF
330
1D
100
AcDbEntity
  8
BLACK
  6
Continuous
100
AcDbLine
 10
266.639999
 20
-16.215
 30
0.0
 11
266.639999
 21
-26.165
 31
0.0
  0
ARC
  5
5C0
330
1D
100
AcDbEntity
  8
BLACK
100
AcDbCircle
 10
303.084999
 20
-26.165
 30
0.0
 40
2.074999
100
AcDbArc
 50
270.0
 51
0.0
  0
ARC
  5
5C1
330
1D
100
AcDbEntity
  8
BLACK
100
AcDbCircle
 10
303.084999
 20
-16.215
 30
0.0
 40
2.075001
100
AcDbArc
 50
0.0
 51
90.0
  0
ARC
  5
5C2
330
1D
100
AcDbEntity
  8
BLACK
100
AcDbCircle
 10
292.534999
 20
-26.165
 30
0.0
 40
2.074999
100
AcDbArc
 50
180.0
 51
270.0
  0
ARC
  5
5C3
330
1D
100
AcDbEntity
  8
BLACK
100
AcDbCircle
 10
292.534999
 20
-16.215
 30
0.0
 40
2.075001
100
AcDbArc
 50
90.0
 51
180.0
  0
LINE
  5
5C4
330
1D
100
AcDbEntity
  8
BLACK
  6
Continuous
100
AcDbLine
 10
305.159998
 20
-16.215
 30
0.0
 11
305.159998
 21
-26.165
 31
0.0
  0
LINE
  5
5C5
330
1D
100
AcDbEntity
  8
BLACK
  6
Continuous
100
AcDbLine
 10
303.084999
 20
-28.239999
 30
0.0
 11
292.534999
 21
-28.239999
 31
0.0
  0
LINE
  5
5C6
330
1D
100
AcDbEntity
  8
BLACK
  6
Continuous
100
AcDbLine
 10
303.084999
 20
-14.139999
 30
0.0
 11
292.534999
 21
-14.139999
 31
0.0
  0
LINE
  5
5C7
330
1D
100
AcDbEntity
  8
BLACK
  6
Continuous
100
AcDbLine
 10
290.459998
 20
-16.215
 30
0.0
 11
290.459998
 21
-26.165
 31
0.0
  0
ARC
  5
5C8
330
1D
100
AcDbEntity
  8
BLACK
100
AcDbCircle
 10
171.462899
 20
-17.6317
 30
0.0
 40
2.075051957188783
100
AcDbArc
 50
281.6532524100002
 51
12.00001239
  0
ARC
  5
5C9
330
1D
100
AcDbEntity
  8
BLACK
100
AcDbCircle
 10
169.394199
 20
-7.8992
 30
0.0
 40
2.075059012133631
100
AcDbArc
 50
11.78955239
 51
101.99999922
  0
ARC
  5
5CA
330
1D
100
AcDbEntity
  8
BLACK
100
AcDbCircle
 10
161.143499
 20
-19.8252
 30
0.0
 40
2.074970170881981
100
AcDbArc
 50
191.99920186
 51
282.00001252
  0
ARC
  5
5CB
330
1D
100
AcDbEntity
  8
BLACK
100
AcDbCircle
 10
159.074799
 20
-10.0926
 30
0.0
 40
2.075025277880971
100
AcDbArc
 50
102.26977359
 51
191.9999996
  0
LINE
  5
5CC
330
1D
100
AcDbEntity
  8
BLACK
  6
Continuous
100
AcDbLine
 10
171.425484
 20
-7.475229
 30
0.0
 11
173.492606
 21
-17.200272
 31
0.0
  0
LINE
  5
5CD
330
1D
100
AcDbEntity
  8
BLACK
  6
Continuous
100
AcDbLine
 10
171.882035
 20
-19.66398
 30
0.0
 11
161.57491
 21
-21.854827
 31
0.0
  0
LINE
  5
5CE
330
1D
100
AcDbEntity
  8
BLACK
  6
Continuous
100
AcDbLine
 10
168.96277
 20
-5.869485999999999
 30
0.0
 11
158.633825
 21
-8.064972
 31
0.0
  0
LINE
  5
5CF
330
1D
100
AcDbEntity
  8
BLACK
  6
Continuous
100
AcDbLine
 10
157.045118
 20
-10.524022
 30
0.0
 11
159.113839
 21
-20.256588
 31
0.0
  0
ARC
  5
5D0
330
1D
100
AcDbEntity
  8
BLACK
100
AcDbCircle
 10
225.263999
 20
-64.6195
 30
0.0
 40
2.075076472289636
100
AcDbArc
 50
281.8134566499999
 51
12.00000966
  0
ARC
  5
5D1
330
1D
100
AcDbEntity
  8
BLACK
100
AcDbCircle
 10
223.195399
 20
-54.8869
 30
0.0
 40
2.074929173772686
100
AcDbArc
 50
11.99803103
 51
101.99999907
  0
ARC
  5
5D2
330
1D
100
AcDbEntity
  8
BLACK
100
AcDbCircle
 10
214.944599
 20
-66.81309999999999
 30
0.0
 40
2.074925053270599
100
AcDbArc
 50
191.99794426
 51
281.99999503
  0
ARC
  5
5D3
330
1D
100
AcDbEntity
  8
BLACK
100
AcDbCircle
 10
212.875999
 20
-57.0805
 30
0.0
 40
2.075078428584809
100
AcDbArc
 50
102.15909064
 51
191.99999817
  0
LINE
  5
5D4
330
1D
100
AcDbEntity
  8
BLACK
  6
Continuous
100
AcDbLine
 10
225.225022
 20
-54.455563
 30
0.0
 11
227.29373
 21
-64.188067
 31
0.0
  0
LINE
  5
5D5
330
1D
100
AcDbEntity
  8
BLACK
  6
Continuous
100
AcDbLine
 10
225.688821
 20
-66.65062499999999
 30
0.0
 11
215.376
 21
-68.842683
 31
0.0
  0
LINE
  5
5D6
330
1D
100
AcDbEntity
  8
BLACK
  6
Continuous
100
AcDbLine
 10
222.763997
 20
-52.857313
 30
0.0
 11
212.438932
 21
-55.05197399999999
 31
0.0
  0
LINE
  5
5D7
330
1D
100
AcDbEntity
  8
BLACK
  6
Continuous
100
AcDbLine
 10
210.846266
 20
-57.511933
 30
0.0
 11
212.914974
 21
-67.244434
 31
0.0
  0
ARC
  5
5D8
330
1D
100
AcDbEntity
  8
BLACK
100
AcDbCircle
 10
206.630399
 20
-68.5803
 30
0.0
 40
2.074985466831033
100
AcDbArc
 50
281.73024333
 51
12.00000743
  0
ARC
  5
5D9
330
1D
100
AcDbEntity
  8
BLACK
100
AcDbCircle
 10
204.561699
 20
-58.8476
 30
0.0
 40
2.074913877823607
100
AcDbArc
 50
11.99760799
 51
102.00000416
  0
ARC
  5
5DA
330
1D
100
AcDbEntity
  8
BLACK
100
AcDbCircle
 10
196.310899
 20
-70.7738
 30
0.0
 40
2.074940349219707
100
AcDbArc
 50
191.99836729
 51
281.99998994
  0
ARC
  5
5DB
330
1D
100
AcDbEntity
  8
BLACK
100
AcDbCircle
 10
194.242299
 20
-61.0412
 30
0.0
 40
2.075092746386291
100
AcDbArc
 50
101.65324566
 51
191.99999883
  0
LINE
  5
5DC
330
1D
100
AcDbEntity
  8
BLACK
  6
Continuous
100
AcDbLine
 10
206.591311
 20
-58.416281
 30
0.0
 11
208.660041
 21
-68.14888599999999
 31
0.0
  0
LINE
  5
5DD
330
1D
100
AcDbEntity
  8
BLACK
  6
Continuous
100
AcDbLine
 10
207.052252
 20
-70.61195
 30
0.0
 11
196.742303
 21
-72.803398
 31
0.0
  0
LINE
  5
5DE
330
1D
100
AcDbEntity
  8
BLACK
  6
Continuous
100
AcDbLine
 10
204.1303
 20
-56.818028
 30
0.0
 11
193.823155
 21
-59.00888
 31
0.0
  0
LINE
  5
5DF
330
1D
100
AcDbEntity
  8
BLACK
  6
Continuous
100
AcDbLine
 10
192.212552
 20
-61.47263599999999
 30
0.0
 11
194.281263
 21
-71.205152
 31
0.0
  0
ARC
  5
5E0
330
1D
100
AcDbEntity
  8
BLACK
100
AcDbCircle
 10
230.623999
 20
-44.0095
 30
0.0
 40
2.075077450437212
100
AcDbArc
 50
281.81347803
 51
12.00000392
  0
ARC
  5
5E1
330
1D
100
AcDbEntity
  8
BLACK
100
AcDbCircle
 10
228.555399
 20
-34.2769
 30
0.0
 40
2.074928195625092
100
AcDbArc
 50
11.99799828
 51
102.00000481
  0
ARC
  5
5E2
330
1D
100
AcDbEntity
  8
BLACK
100
AcDbCircle
 10
220.304599
 20
-46.2031
 30
0.0
 40
2.074926239329967
100
AcDbArc
 50
191.99797701
 51
282.0000163
  0
ARC
  5
5E3
330
1D
100
AcDbEntity
  8
BLACK
100
AcDbCircle
 10
218.235999
 20
-36.4705
 30
0.0
 40
2.075077450437212
100
AcDbArc
 50
102.16872527
 51
192.00000392
  0
LINE
  5
5E4
330
1D
100
AcDbEntity
  8
BLACK
  6
Continuous
100
AcDbLine
 10
230.585023
 20
-33.845564
 30
0.0
 11
232.653731
 21
-43.578067
 31
0.0
  0
LINE
  5
5E5
330
1D
100
AcDbEntity
  8
BLACK
  6
Continuous
100
AcDbLine
 10
231.048822
 20
-46.040626
 30
0.0
 11
220.736001
 21
-48.232684
 31
0.0
  0
LINE
  5
5E6
330
1D
100
AcDbEntity
  8
BLACK
  6
Continuous
100
AcDbLine
 10
228.123997
 20
-32.247314
 30
0.0
 11
217.798591
 21
-34.442048
 31
0.0
  0
LINE
  5
5E7
330
1D
100
AcDbEntity
  8
BLACK
  6
Continuous
100
AcDbLine
 10
216.206267
 20
-36.901933
 30
0.0
 11
218.274975
 21
-46.634435
 31
0.0
  0
ARC
  5
5E8
330
1D
100
AcDbEntity
  8
BLACK
100
AcDbCircle
 10
227.363999
 20
-5.749499999999999
 30
0.0
 40
2.075076472289636
100
AcDbArc
 50
281.82214827
 51
12.00000966
  0
ARC
  5
5E9
330
1D
100
AcDbEntity
  8
BLACK
100
AcDbCircle
 10
225.295399
 20
3.9831
 30
0.0
 40
2.074928195625092
100
AcDbArc
 50
11.99800402
 51
102.00000481
  0
ARC
  5
5EA
330
1D
100
AcDbEntity
  8
BLACK
100
AcDbCircle
 10
217.044599
 20
-7.943099999999999
 30
0.0
 40
2.074926239329967
100
AcDbArc
 50
191.99797127
 51
282.0000163
  0
ARC
  5
5EB
330
1D
100
AcDbEntity
  8
BLACK
100
AcDbCircle
 10
214.975999
 20
1.7895
 30
0.0
 40
2.075078428584809
100
AcDbArc
 50
102.17786612
 51
191.99999817
  0
LINE
  5
5EC
330
1D
100
AcDbEntity
  8
BLACK
  6
Continuous
100
AcDbLine
 10
227.325022
 20
4.414435999999999
 30
0.0
 11
229.39373
 21
-5.318067
 31
0.0
  0
LINE
  5
5ED
330
1D
100
AcDbEntity
  8
BLACK
  6
Continuous
100
AcDbLine
 10
227.789129
 20
-7.780559999999999
 30
0.0
 11
217.476001
 21
-9.972684
 31
0.0
  0
LINE
  5
5EE
330
1D
100
AcDbEntity
  8
BLACK
  6
Continuous
100
AcDbLine
 10
224.863997
 20
6.012686
 30
0.0
 11
214.538267
 21
3.817884
 31
0.0
  0
LINE
  5
5EF
330
1D
100
AcDbEntity
  8
BLACK
  6
Continuous
100
AcDbLine
 10
212.946266
 20
1.358067
 30
0.0
 11
215.014974
 21
-8.374435
 31
0.0
  0
ARC
  5
5F0
330
1D
100
AcDbEntity
  8
BLACK
100
AcDbCircle
 10
269.254999
 20
-45.215
 30
0.0
 40
2.075
100
AcDbArc
 50
270.0
 51
0.0
  0
ARC
  5
5F1
330
1D
100
AcDbEntity
  8
BLACK
100
AcDbCircle
 10
269.254999
 20
-35.265
 30
0.0
 40
2.075001
100
AcDbArc
 50
0.0
 51
90.0
  0
ARC
  5
5F2
330
1D
100
AcDbEntity
  8
BLACK
100
AcDbCircle
 10
258.704999
 20
-45.215
 30
0.0
 40
2.074999
100
AcDbArc
 50
180.0
 51
270.0
  0
ARC
  5
5F3
330
1D
100
AcDbEntity
  8
BLACK
100
AcDbCircle
 10
258.704999
 20
-35.265
 30
0.0
 40
2.075
100
AcDbArc
 50
90.0
 51
180.0
  0
LINE
  5
5F4
330
1D
100
AcDbEntity
  8
BLACK
  6
Continuous
100
AcDbLine
 10
271.329999
 20
-35.265
 30
0.0
 11
271.329999
 21
-45.215
 31
0.0
  0
LINE
  5
5F5
330
1D
100
AcDbEntity
  8
BLACK
  6
Continuous
100
AcDbLine
 10
269.254999
 20
-47.28999899999999
 30
0.0
 11
258.704999
 21
-47.28999899999999
 31
0.0
  0
LINE
  5
5F6
330
1D
100
AcDbEntity
  8
BLACK
  6
Continuous
100
AcDbLine
 10
269.254999
 20
-33.189999
 30
0.0
 11
258.704999
 21
-33.189999
 31
0.0
  0
LINE
  5
5F7
330
1D
100
AcDbEntity
  8
BLACK
  6
Continuous
100
AcDbLine
 10
256.629999
 20
-35.265
 30
0.0
 11
256.629999
 21
-45.215
 31
0.0
  0
ARC
  5
5F8
330
1D
100
AcDbEntity
  8
BLACK
100
AcDbCircle
 10
222.003999
 20
-26.3595
 30
0.0
 40
2.075077450437212
100
AcDbArc
 50
281.80513334
 51
12.00000392
  0
ARC
  5
5F9
330
1D
100
AcDbEntity
  8
BLACK
100
AcDbCircle
 10
219.935399
 20
-16.6269
 30
0.0
 40
2.074929173772686
100
AcDbArc
 50
11.99802529
 51
101.99999907
  0
ARC
  5
5FA
330
1D
100
AcDbEntity
  8
BLACK
100
AcDbCircle
 10
211.684599
 20
-28.5531
 30
0.0
 40
2.074925053270599
100
AcDbArc
 50
191.99795
 51
281.99999503
  0
ARC
  5
5FB
330
1D
100
AcDbEntity
  8
BLACK
100
AcDbCircle
 10
209.615999
 20
-18.8205
 30
0.0
 40
2.075077450437212
100
AcDbArc
 50
102.14878494
 51
192.00000392
  0
LINE
  5
5FC
330
1D
100
AcDbEntity
  8
BLACK
  6
Continuous
100
AcDbLine
 10
221.965023
 20
-16.195563
 30
0.0
 11
224.033731
 21
-25.928067
 31
0.0
  0
LINE
  5
5FD
330
1D
100
AcDbEntity
  8
BLACK
  6
Continuous
100
AcDbLine
 10
222.428526
 20
-28.390687
 30
0.0
 11
212.116
 21
-30.582683
 31
0.0
  0
LINE
  5
5FE
330
1D
100
AcDbEntity
  8
BLACK
  6
Continuous
100
AcDbLine
 10
219.503997
 20
-14.597313
 30
0.0
 11
209.179297
 21
-16.791896
 31
0.0
  0
LINE
  5
5FF
330
1D
100
AcDbEntity
  8
BLACK
  6
Continuous
100
AcDbLine
 10
207.586267
 20
-19.251933
 30
0.0
 11
209.654975
 21
-28.984434
 31
0.0
  0
ARC
  5
600
330
1D
100
AcDbEntity
  8
BLACK
100
AcDbCircle
 10
211.990399
 20
-47.97029999999999
 30
0.0
 40
2.074985466831033
100
AcDbArc
 50
281.73024333
 51
12.00000743
  0
ARC
  5
601
330
1D
100
AcDbEntity
  8
BLACK
100
AcDbCircle
 10
209.921699
 20
-38.2376
 30
0.0
 40
2.074913877823607
100
AcDbArc
 50
11.99760799
 51
102.00000416
  0
ARC
  5
602
330
1D
100
AcDbEntity
  8
BLACK
100
AcDbCircle
 10
201.670899
 20
-50.16379999999999
 30
0.0
 40
2.074940349219707
100
AcDbArc
 50
191.99836729
 51
281.99998994
  0
ARC
  5
603
330
1D
100
AcDbEntity
  8
BLACK
100
AcDbCircle
 10
199.602299
 20
-40.4312
 30
0.0
 40
2.075092746386291
100
AcDbArc
 50
101.65324566
 51
191.99999883
  0
LINE
  5
604
330
1D
100
AcDbEntity
  8
BLACK
  6
Continuous
100
AcDbLine
 10
211.951311
 20
-37.806281
 30
0.0
 11
214.020041
 21
-47.538886
 31
0.0
  0
LINE
  5
605
330
1D
100
AcDbEntity
  8
BLACK
  6
Continuous
100
AcDbLine
 10
212.412252
 20
-50.00195
 30
0.0
 11
202.102303
 21
-52.19339799999999
 31
0.0
  0
LINE
  5
606
330
1D
100
AcDbEntity
  8
BLACK
  6
Continuous
100
AcDbLine
 10
209.4903
 20
-36.208028
 30
0.0
 11
199.183155
 21
-38.39888
 31
0.0
  0
LINE
  5
607
330
1D
100
AcDbEntity
  8
BLACK
  6
Continuous
100
AcDbLine
 10
197.572552
 20
-40.86263599999999
 30
0.0
 11
199.641263
 21
-50.595152
 31
0.0
  0
ARC
  5
608
330
1D
100
AcDbEntity
  8
BLACK
100
AcDbCircle
 10
193.356699
 20
-51.931
 30
0.0
 40
2.074970170881981
100
AcDbArc
 50
281.9991488700001
 51
12.00001252
  0
ARC
  5
609
330
1D
100
AcDbEntity
  8
BLACK
100
AcDbCircle
 10
191.287899
 20
-42.1985
 30
0.0
 40
2.075073329935113
100
AcDbArc
 50
11.78957589
 51
101.99999987
  0
ARC
  5
60A
330
1D
100
AcDbEntity
  8
BLACK
100
AcDbCircle
 10
183.037199
 20
-54.1245
 30
0.0
 40
2.074955853080494
100
AcDbArc
 50
191.99878458
 51
282.00001186
  0
ARC
  5
60B
330
1D
100
AcDbEntity
  8
BLACK
100
AcDbCircle
 10
180.968499
 20
-44.3919
 30
0.0
 40
2.075009981931894
100
AcDbArc
 50
102.00000469
 51
192.00000469
  0
LINE
  5
60C
330
1D
100
AcDbEntity
  8
BLACK
  6
Continuous
100
AcDbLine
 10
193.319199
 20
-41.774525
 30
0.0
 11
195.386326
 21
-51.499589
 31
0.0
  0
LINE
  5
60D
330
1D
100
AcDbEntity
  8
BLACK
  6
Continuous
100
AcDbLine
 10
193.788081
 20
-53.96064
 30
0.0
 11
183.468607
 21
-56.154113
 31
0.0
  0
LINE
  5
60E
330
1D
100
AcDbEntity
  8
BLACK
  6
Continuous
100
AcDbLine
 10
190.856467
 20
-40.168772
 30
0.0
 11
180.537078
 21
-42.362226
 31
0.0
  0
LINE
  5
60F
330
1D
100
AcDbEntity
  8
BLACK
  6
Continuous
100
AcDbLine
 10
178.938833
 20
-44.823319
 30
0.0
 11
181.007551
 21
-54.55587
 31
0.0
  0
ARC
  5
610
330
1D
100
AcDbEntity
  8
BLACK
100
AcDbCircle
 10
230.073999
 20
-84.6095
 30
0.0
 40
2.075076472289636
100
AcDbArc
 50
281.82214827
 51
12.00000966
  0
ARC
  5
611
330
1D
100
AcDbEntity
  8
BLACK
100
AcDbCircle
 10
228.005399
 20
-74.87689999999999
 30
0.0
 40
2.074928195625092
100
AcDbArc
 50
11.99800402
 51
102.00000481
  0
ARC
  5
612
330
1D
100
AcDbEntity
  8
BLACK
100
AcDbCircle
 10
219.754599
 20
-86.8031
 30
0.0
 40
2.074926239329967
100
AcDbArc
 50
191.99797127
 51
282.0000163
  0
ARC
  5
613
330
1D
100
AcDbEntity
  8
BLACK
100
AcDbCircle
 10
217.685999
 20
-77.0705
 30
0.0
 40
2.075078428584809
100
AcDbArc
 50
102.17786612
 51
191.99999817
  0
LINE
  5
614
330
1D
100
AcDbEntity
  8
BLACK
  6
Continuous
100
AcDbLine
 10
230.035022
 20
-74.44556399999999
 30
0.0
 11
232.10373
 21
-84.178067
 31
0.0
  0
LINE
  5
615
330
1D
100
AcDbEntity
  8
BLACK
  6
Continuous
100
AcDbLine
 10
230.499129
 20
-86.64056
 30
0.0
 11
220.186001
 21
-88.832684
 31
0.0
  0
LINE
  5
616
330
1D
100
AcDbEntity
  8
BLACK
  6
Continuous
100
AcDbLine
 10
227.573997
 20
-72.847314
 30
0.0
 11
217.248267
 21
-75.042116
 31
0.0
  0
LINE
  5
617
330
1D
100
AcDbEntity
  8
BLACK
  6
Continuous
100
AcDbLine
 10
215.656266
 20
-77.501933
 30
0.0
 11
217.724974
 21
-87.23443499999999
 31
0.0
  0
ARC
  5
618
330
1D
100
AcDbEntity
  8
BLACK
100
AcDbCircle
 10
265.574999
 20
-7.114999999999999
 30
0.0
 40
2.074999
100
AcDbArc
 50
270.0
 51
0.0
  0
ARC
  5
619
330
1D
100
AcDbEntity
  8
BLACK
100
AcDbCircle
 10
265.574999
 20
2.835
 30
0.0
 40
2.075001
100
AcDbArc
 50
0.0
 51
90.0
  0
ARC
  5
61A
330
1D
100
AcDbEntity
  8
BLACK
100
AcDbCircle
 10
255.024999
 20
-7.114999999999999
 30
0.0
 40
2.074999
100
AcDbArc
 50
180.0
 51
270.0
  0
ARC
  5
61B
330
1D
100
AcDbEntity
  8
BLACK
100
AcDbCircle
 10
255.024999
 20
2.835
 30
0.0
 40
2.075001
100
AcDbArc
 50
90.0
 51
180.0
  0
LINE
  5
61C
330
1D
100
AcDbEntity
  8
BLACK
  6
Continuous
100
AcDbLine
 10
267.649998
 20
2.835
 30
0.0
 11
267.649998
 21
-7.114999999999999
 31
0.0
  0
LINE
  5
61D
330
1D
100
AcDbEntity
  8
BLACK
  6
Continuous
100
AcDbLine
 10
265.574999
 20
-9.189999
 30
0.0
 11
255.024999
 21
-9.189999
 31
0.0
  0
LINE
  5
61E
330
1D
100
AcDbEntity
  8
BLACK
  6
Continuous
100
AcDbLine
 10
265.574999
 20
4.910000999999999
 30
0.0
 11
255.024999
 21
4.910000999999999
 31
0.0
  0
LINE
  5
61F
330
1D
100
AcDbEntity
  8
BLACK
  6
Continuous
100
AcDbLine
 10
252.949998
 20
2.835
 30
0.0
 11
252.949998
 21
-7.114999999999999
 31
0.0
  0
ARC
  5
620
330
1D
100
AcDbEntity
  8
BLACK
100
AcDbCircle
 10
134.006499
 20
-78.6952
 30
0.0
 40
2.074996642278006
100
AcDbArc
 50
257.7302392400001
 51
348.0000017
  0
ARC
  5
621
330
1D
100
AcDbEntity
  8
BLACK
100
AcDbCircle
 10
136.075199
 20
-68.9626
 30
0.0
 40
2.075001740927704
100
AcDbArc
 50
347.99999766
 51
78.0000034
  0
ARC
  5
622
330
1D
100
AcDbEntity
  8
BLACK
100
AcDbCircle
 10
123.686999
 20
-76.5018
 30
0.0
 40
2.074895439520025
100
AcDbArc
 50
167.99713493
 51
258.00000054
  0
ARC
  5
623
330
1D
100
AcDbEntity
  8
BLACK
100
AcDbCircle
 10
125.755699
 20
-66.7691
 30
0.0
 40
2.074926430287349
100
AcDbArc
 50
78.27033978
 51
167.99730293
  0
LINE
  5
624
330
1D
100
AcDbEntity
  8
BLACK
  6
Continuous
100
AcDbLine
 10
138.10488
 20
-69.39402199999999
 30
0.0
 11
136.036152
 21
-79.126616
 31
0.0
  0
LINE
  5
625
330
1D
100
AcDbEntity
  8
BLACK
  6
Continuous
100
AcDbLine
 10
133.565532
 20
-80.722798
 30
0.0
 11
123.255604
 21
-78.531354
 31
0.0
  0
LINE
  5
626
330
1D
100
AcDbEntity
  8
BLACK
  6
Continuous
100
AcDbLine
 10
136.506616
 20
-66.932942
 30
0.0
 11
126.177535
 21
-64.737428
 31
0.0
  0
LINE
  5
627
330
1D
100
AcDbEntity
  8
BLACK
  6
Continuous
100
AcDbLine
 10
123.726135
 20
-66.337603
 30
0.0
 11
121.657388
 21
-76.070287
 31
0.0
  0
ARC
  5
628
330
1D
100
AcDbEntity
  8
BLACK
100
AcDbCircle
 10
5.274998999999999
 20
-4.975
 30
0.0
 40
2.075
100
AcDbArc
 50
270.0
 51
0.0
  0
ARC
  5
629
330
1D
100
AcDbEntity
  8
BLACK
100
AcDbCircle
 10
5.274998999999999
 20
4.975
 30
0.0
 40
2.075001
100
AcDbArc
 50
0.0
 51
90.0
  0
ARC
  5
62A
330
1D
100
AcDbEntity
  8
BLACK
100
AcDbCircle
 10
-5.274998999999999
 20
-4.974997
 30
0.0
 40
2.075002
100
AcDbArc
 50
180.0
 51
270.0
  0
ARC
  5
62B
330
1D
100
AcDbEntity
  8
BLACK
100
AcDbCircle
 10
-5.274997
 20
4.974997
 30
0.0
 40
2.075004000000241
100
AcDbArc
 50
90.0
 51
180.00002761
  0
LINE
  5
62C
330
1D
100
AcDbEntity
  8
BLACK
  6
Continuous
100
AcDbLine
 10
7.349999
 20
4.975
 30
0.0
 11
7.349999
 21
-4.975
 31
0.0
  0
LINE
  5
62D
330
1D
100
AcDbEntity
  8
BLACK
  6
Continuous
100
AcDbLine
 10
5.274998999999999
 20
-7.049999
 30
0.0
 11
-5.274998999999999
 21
-7.049999
 31
0.0
  0
LINE
  5
62E
330
1D
100
AcDbEntity
  8
BLACK
  6
Continuous
100
AcDbLine
 10
5.274998999999999
 20
7.050001
 30
0.0
 11
-5.274997
 21
7.050001
 31
0.0
  0
LINE
  5
62F
330
1D
100
AcDbEntity
  8
BLACK
  6
Continuous
100
AcDbLine
 10
-7.350001
 20
4.974996
 30
0.0
 11
-7.350001
 21
-4.974997
 31
0.0
  0
ARC
  5
630
330
1D
100
AcDbEntity
  8
BLACK
100
AcDbCircle
 10
96.73899899999999
 20
-70.77369999999999
 30
0.0
 40
2.075084319010194
100
AcDbArc
 50
257.99941494
 51
348.0026898300001
  0
ARC
  5
631
330
1D
100
AcDbEntity
  8
BLACK
100
AcDbCircle
 10
98.80779899999999
 20
-61.0411
 30
0.0
 40
2.074934272422382
100
AcDbArc
 50
347.99818232
 51
78.00000262
  0
ARC
  5
632
330
1D
100
AcDbEntity
  8
BLACK
100
AcDbCircle
 10
86.41959899999999
 20
-68.5803
 30
0.0
 40
2.074962908025346
100
AcDbArc
 50
167.99900132
 51
258.00000132
  0
ARC
  5
633
330
1D
100
AcDbEntity
  8
BLACK
100
AcDbCircle
 10
88.488399
 20
-58.8477
 30
0.0
 40
2.075055683409484
100
AcDbArc
 50
77.99941624
 51
168.00269117
  0
LINE
  5
634
330
1D
100
AcDbEntity
  8
BLACK
  6
Continuous
100
AcDbLine
 10
100.837456
 20
-61.472584
 30
0.0
 11
98.76875799999999
 21
-71.205039
 31
0.0
  0
LINE
  5
635
330
1D
100
AcDbEntity
  8
BLACK
  6
Continuous
100
AcDbLine
 10
96.307558
 20
-72.80337
 30
0.0
 11
85.98819
 21
-70.60992
 31
0.0
  0
LINE
  5
636
330
1D
100
AcDbEntity
  8
BLACK
  6
Continuous
100
AcDbLine
 10
99.23920199999999
 20
-59.011508
 30
0.0
 11
88.919834
 21
-56.818058
 31
0.0
  0
LINE
  5
637
330
1D
100
AcDbEntity
  8
BLACK
  6
Continuous
100
AcDbLine
 10
86.458668
 20
-58.41636699999999
 30
0.0
 11
84.38996399999999
 21
-68.148851
 31
0.0
  0
ARC
  5
638
330
1D
100
AcDbEntity
  8
BLACK
100
AcDbCircle
 10
85.33529899999999
 20
-9.923
 30
0.0
 40
2.075069023052486
100
AcDbArc
 50
257.9994311200001
 51
348.00268476
  0
ARC
  5
639
330
1D
100
AcDbEntity
  8
BLACK
100
AcDbCircle
 10
87.404099
 20
-0.1904
 30
0.0
 40
2.074948590223864
100
AcDbArc
 50
347.9985725700001
 51
78.00000197
  0
ARC
  5
63A
330
1D
100
AcDbEntity
  8
BLACK
100
AcDbCircle
 10
75.01589899999999
 20
-7.7296
 30
0.0
 40
2.074948590223864
100
AcDbArc
 50
167.99861107
 51
258.00000197
  0
ARC
  5
63B
330
1D
100
AcDbEntity
  8
BLACK
100
AcDbCircle
 10
77.084699
 20
2.003
 30
0.0
 40
2.075070979367212
100
AcDbArc
 50
77.99941558999998
 51
168.00269624
  0
LINE
  5
63C
330
1D
100
AcDbEntity
  8
BLACK
  6
Continuous
100
AcDbLine
 10
89.43374399999999
 20
-0.621867
 30
0.0
 11
87.365043
 21
-10.354336
 31
0.0
  0
LINE
  5
63D
330
1D
100
AcDbEntity
  8
BLACK
  6
Continuous
100
AcDbLine
 10
84.90386099999999
 20
-11.952656
 30
0.0
 11
74.584493
 21
-9.759205999999999
 31
0.0
  0
LINE
  5
63E
330
1D
100
AcDbEntity
  8
BLACK
  6
Continuous
100
AcDbLine
 10
87.835505
 20
1.839206
 30
0.0
 11
77.516137
 21
4.032656
 31
0.0
  0
LINE
  5
63F
330
1D
100
AcDbEntity
  8
BLACK
  6
Continuous
100
AcDbLine
 10
75.054953
 20
2.434336
 30
0.0
 11
72.986252
 21
-7.298133999999999
 31
0.0
  0
ARC
  5
640
330
1D
100
AcDbEntity
  8
BLACK
100
AcDbCircle
 10
65.984999
 20
-4.975
 30
0.0
 40
2.074999
100
AcDbArc
 50
270.0
 51
0.0
  0
ARC
  5
641
330
1D
100
AcDbEntity
  8
BLACK
100
AcDbCircle
 10
65.984999
 20
4.975
 30
0.0
 40
2.075001
100
AcDbArc
 50
0.0
 51
90.0
  0
ARC
  5
642
330
1D
100
AcDbEntity
  8
BLACK
100
AcDbCircle
 10
55.434999
 20
-4.975
 30
0.0
 40
2.074999
100
AcDbArc
 50
180.0
 51
270.0
  0
ARC
  5
643
330
1D
100
AcDbEntity
  8
BLACK
100
AcDbCircle
 10
55.434999
 20
4.975
 30
0.0
 40
2.075001
100
AcDbArc
 50
90.0
 51
180.0
  0
LINE
  5
644
330
1D
100
AcDbEntity
  8
BLACK
  6
Continuous
100
AcDbLine
 10
68.059998
 20
4.975
 30
0.0
 11
68.059998
 21
-4.975
 31
0.0
  0
LINE
  5
645
330
1D
100
AcDbEntity
  8
BLACK
  6
Continuous
100
AcDbLine
 10
65.984999
 20
-7.049999
 30
0.0
 11
55.434999
 21
-7.049999
 31
0.0
  0
LINE
  5
646
330
1D
100
AcDbEntity
  8
BLACK
  6
Continuous
100
AcDbLine
 10
65.984999
 20
7.050001
 30
0.0
 11
55.434999
 21
7.050001
 31
0.0
  0
LINE
  5
647
330
1D
100
AcDbEntity
  8
BLACK
  6
Continuous
100
AcDbLine
 10
53.359998
 20
4.975
 30
0.0
 11
53.359998
 21
-4.975
 31
0.0
  0
ARC
  5
648
330
1D
100
AcDbEntity
  8
BLACK
100
AcDbCircle
 10
115.372799
 20
-74.7345
 30
0.0
 40
2.074981346328925
100
AcDbArc
 50
257.7302321700001
 51
347.99999662
  0
ARC
  5
649
330
1D
100
AcDbEntity
  8
BLACK
100
AcDbCircle
 10
117.441499
 20
-65.00189999999999
 30
0.0
 40
2.075017036876806
100
AcDbArc
 50
347.84091713
 51
78.00000849
  0
ARC
  5
64A
330
1D
100
AcDbEntity
  8
BLACK
100
AcDbCircle
 10
105.053299
 20
-72.541
 30
0.0
 40
2.074978203974442
100
AcDbArc
 50
168.14878375
 51
258.0000064
  0
ARC
  5
64B
330
1D
100
AcDbEntity
  8
BLACK
100
AcDbCircle
 10
107.121999
 20
-62.8084
 30
0.0
 40
2.074942704365593
100
AcDbArc
 50
78.27031583999998
 51
167.99731378
  0
LINE
  5
64C
330
1D
100
AcDbEntity
  8
BLACK
  6
Continuous
100
AcDbLine
 10
119.469966
 20
-65.438954
 30
0.0
 11
117.402437
 21
-75.165913
 31
0.0
  0
LINE
  5
64D
330
1D
100
AcDbEntity
  8
BLACK
  6
Continuous
100
AcDbLine
 10
114.931835
 20
-76.76208299999999
 30
0.0
 11
104.621887
 21
-74.570635
 31
0.0
  0
LINE
  5
64E
330
1D
100
AcDbEntity
  8
BLACK
  6
Continuous
100
AcDbLine
 10
117.872919
 20
-62.972227
 30
0.0
 11
107.543839
 21
-60.77671299999999
 31
0.0
  0
LINE
  5
64F
330
1D
100
AcDbEntity
  8
BLACK
  6
Continuous
100
AcDbLine
 10
105.092419
 20
-62.3769
 30
0.0
 11
103.022552
 21
-72.11486
 31
0.0
  0
ARC
  5
650
330
1D
100
AcDbEntity
  8
BLACK
100
AcDbCircle
 10
53.401219
 20
-45.21497
 30
0.0
 40
2.075029
100
AcDbArc
 50
270.0
 51
0.0
  0
ARC
  5
651
330
1D
100
AcDbEntity
  8
BLACK
100
AcDbCircle
 10
53.40129899999999
 20
-35.2649
 30
0.0
 40
2.074902
100
AcDbArc
 50
359.9972939199999
 51
90.0
  0
ARC
  5
652
330
1D
100
AcDbEntity
  8
BLACK
100
AcDbCircle
 10
42.851399
 20
-45.2148
 30
0.0
 40
2.075198
100
AcDbArc
 50
179.62130107
 51
270.0
  0
ARC
  5
653
330
1D
100
AcDbEntity
  8
BLACK
100
AcDbCircle
 10
42.851219
 20
-35.26497
 30
0.0
 40
2.074971
100
AcDbArc
 50
90.0
 51
180.0
  0
LINE
  5
654
330
1D
100
AcDbEntity
  8
BLACK
  6
Continuous
100
AcDbLine
 10
55.476248
 20
-35.264998
 30
0.0
 11
55.476248
 21
-45.21497
 31
0.0
  0
LINE
  5
655
330
1D
100
AcDbEntity
  8
BLACK
  6
Continuous
100
AcDbLine
 10
53.401219
 20
-47.289998
 30
0.0
 11
42.851399
 21
-47.289998
 31
0.0
  0
LINE
  5
656
330
1D
100
AcDbEntity
  8
BLACK
  6
Continuous
100
AcDbLine
 10
53.40129899999999
 20
-33.189998
 30
0.0
 11
42.851219
 21
-33.189998
 31
0.0
  0
LINE
  5
657
330
1D
100
AcDbEntity
  8
BLACK
  6
Continuous
100
AcDbLine
 10
40.776248
 20
-35.26497
 30
0.0
 11
40.776248
 21
-45.20108399999999
 31
0.0
  0
ARC
  5
658
330
1D
100
AcDbEntity
  8
BLACK
100
AcDbCircle
 10
72.755299
 20
-46.203
 30
0.0
 40
2.075069023052486
100
AcDbArc
 50
257.9994311200001
 51
348.00268476
  0
ARC
  5
659
330
1D
100
AcDbEntity
  8
BLACK
100
AcDbCircle
 10
74.82409899999999
 20
-36.4704
 30
0.0
 40
2.074948590223864
100
AcDbArc
 50
347.9985725700001
 51
78.00000197
  0
ARC
  5
65A
330
1D
100
AcDbEntity
  8
BLACK
100
AcDbCircle
 10
62.435899
 20
-44.0096
 30
0.0
 40
2.074948590223864
100
AcDbArc
 50
167.99861107
 51
258.00000197
  0
ARC
  5
65B
330
1D
100
AcDbEntity
  8
BLACK
100
AcDbCircle
 10
64.504699
 20
-34.277
 30
0.0
 40
2.075070979367212
100
AcDbArc
 50
77.99941558999998
 51
168.00269624
  0
LINE
  5
65C
330
1D
100
AcDbEntity
  8
BLACK
  6
Continuous
100
AcDbLine
 10
76.85374399999999
 20
-36.901867
 30
0.0
 11
74.785043
 21
-46.634336
 31
0.0
  0
LINE
  5
65D
330
1D
100
AcDbEntity
  8
BLACK
  6
Continuous
100
AcDbLine
 10
72.323861
 20
-48.232656
 30
0.0
 11
62.004493
 21
-46.039206
 31
0.0
  0
LINE
  5
65E
330
1D
100
AcDbEntity
  8
BLACK
  6
Continuous
100
AcDbLine
 10
75.255505
 20
-34.440794
 30
0.0
 11
64.936137
 21
-32.247344
 31
0.0
  0
LINE
  5
65F
330
1D
100
AcDbEntity
  8
BLACK
  6
Continuous
100
AcDbLine
 10
62.474953
 20
-33.845664
 30
0.0
 11
60.40625199999999
 21
-43.578134
 31
0.0
  0
ARC
  5
660
330
1D
100
AcDbEntity
  8
BLACK
100
AcDbCircle
 10
103.968999
 20
-13.8837
 30
0.0
 40
2.07508450538213
100
AcDbArc
 50
257.99941494
 51
348.00000926
  0
ARC
  5
661
330
1D
100
AcDbEntity
  8
BLACK
100
AcDbCircle
 10
106.037799
 20
-4.1511
 30
0.0
 40
2.074934272422382
100
AcDbArc
 50
347.99818232
 51
78.00000262
  0
ARC
  5
662
330
1D
100
AcDbEntity
  8
BLACK
100
AcDbCircle
 10
93.649599
 20
-11.6903
 30
0.0
 40
2.074962908025346
100
AcDbArc
 50
167.99900132
 51
258.00000132
  0
ARC
  5
663
330
1D
100
AcDbEntity
  8
BLACK
100
AcDbCircle
 10
95.71839899999999
 20
-1.9577
 30
0.0
 40
2.075055869779173
100
AcDbArc
 50
77.99941624
 51
168.00001057
  0
LINE
  5
664
330
1D
100
AcDbEntity
  8
BLACK
  6
Continuous
100
AcDbLine
 10
108.067456
 20
-4.582584
 30
0.0
 11
105.998738
 21
-14.315134
 31
0.0
  0
LINE
  5
665
330
1D
100
AcDbEntity
  8
BLACK
  6
Continuous
100
AcDbLine
 10
103.537558
 20
-15.91337
 30
0.0
 11
93.21818999999999
 21
-13.71992
 31
0.0
  0
LINE
  5
666
330
1D
100
AcDbEntity
  8
BLACK
  6
Continuous
100
AcDbLine
 10
106.469202
 20
-2.121508
 30
0.0
 11
96.149834
 21
0.071942
 31
0.0
  0
LINE
  5
667
330
1D
100
AcDbEntity
  8
BLACK
  6
Continuous
100
AcDbLine
 10
93.688688
 20
-1.526272
 30
0.0
 11
91.619964
 21
-11.258851
 31
0.0
  0
ARC
  5
668
330
1D
100
AcDbEntity
  8
BLACK
100
AcDbCircle
 10
128.656499
 20
-58.0852
 30
0.0
 40
2.074996642278006
100
AcDbArc
 50
257.7302392400001
 51
348.0000017
  0
ARC
  5
669
330
1D
100
AcDbEntity
  8
BLACK
100
AcDbCircle
 10
130.725199
 20
-48.3526
 30
0.0
 40
2.075001740927704
100
AcDbArc
 50
347.99999766
 51
78.0000034
  0
ARC
  5
66A
330
1D
100
AcDbEntity
  8
BLACK
100
AcDbCircle
 10
118.336999
 20
-55.8918
 30
0.0
 40
2.074895439520025
100
AcDbArc
 50
167.99713493
 51
258.00000054
  0
ARC
  5
66B
330
1D
100
AcDbEntity
  8
BLACK
100
AcDbCircle
 10
120.405699
 20
-46.1591
 30
0.0
 40
2.074926430287349
100
AcDbArc
 50
78.27033978
 51
167.99730293
  0
LINE
  5
66C
330
1D
100
AcDbEntity
  8
BLACK
  6
Continuous
100
AcDbLine
 10
132.75488
 20
-48.784022
 30
0.0
 11
130.686152
 21
-58.516616
 31
0.0
  0
LINE
  5
66D
330
1D
100
AcDbEntity
  8
BLACK
  6
Continuous
100
AcDbLine
 10
128.215532
 20
-60.112798
 30
0.0
 11
117.905604
 21
-57.921354
 31
0.0
  0
LINE
  5
66E
330
1D
100
AcDbEntity
  8
BLACK
  6
Continuous
100
AcDbLine
 10
131.156616
 20
-46.322942
 30
0.0
 11
120.827535
 21
-44.12742799999999
 31
0.0
  0
LINE
  5
66F
330
1D
100
AcDbEntity
  8
BLACK
  6
Continuous
100
AcDbLine
 10
118.376135
 20
-45.72760299999999
 30
0.0
 11
116.307388
 21
-55.460287
 31
0.0
  0
ARC
  5
670
330
1D
100
AcDbEntity
  8
BLACK
100
AcDbCircle
 10
-2.954999
 20
-43.074999
 30
0.0
 40
2.074999
100
AcDbArc
 50
270.0
 51
0.0
  0
ARC
  5
671
330
1D
100
AcDbEntity
  8
BLACK
100
AcDbCircle
 10
-2.954999
 20
-33.124997
 30
0.0
 40
2.074999
100
AcDbArc
 50
0.0
 51
90.0
  0
ARC
  5
672
330
1D
100
AcDbEntity
  8
BLACK
100
AcDbCircle
 10
-13.504998
 20
-43.074996
 30
0.0
 40
2.075002
100
AcDbArc
 50
180.0
 51
270.0
  0
ARC
  5
673
330
1D
100
AcDbEntity
  8
BLACK
100
AcDbCircle
 10
-13.504996
 20
-33.12500199999999
 30
0.0
 40
2.075004
100
AcDbArc
 50
90.0
 51
180.0
  0
LINE
  5
674
330
1D
100
AcDbEntity
  8
BLACK
  6
Continuous
100
AcDbLine
 10
-0.88
 20
-33.124997
 30
0.0
 11
-0.88
 21
-43.074999
 31
0.0
  0
LINE
  5
675
330
1D
100
AcDbEntity
  8
BLACK
  6
Continuous
100
AcDbLine
 10
-2.954999
 20
-45.149998
 30
0.0
 11
-13.504998
 21
-45.149998
 31
0.0
  0
LINE
  5
676
330
1D
100
AcDbEntity
  8
BLACK
  6
Continuous
100
AcDbLine
 10
-2.954999
 20
-31.049998
 30
0.0
 11
-13.504996
 21
-31.049998
 31
0.0
  0
LINE
  5
677
330
1D
100
AcDbEntity
  8
BLACK
  6
Continuous
100
AcDbLine
 10
-15.58
 20
-33.12500199999999
 30
0.0
 11
-15.58
 21
-43.074996
 31
0.0
  0
ARC
  5
678
330
1D
100
AcDbEntity
  8
BLACK
100
AcDbCircle
 10
109.322799
 20
-34.4945
 30
0.0
 40
2.074981346328925
100
AcDbArc
 50
257.7302321700001
 51
347.99999662
  0
ARC
  5
679
330
1D
100
AcDbEntity
  8
BLACK
100
AcDbCircle
 10
111.391499
 20
-24.7619
 30
0.0
 40
2.075017036876806
100
AcDbArc
 50
347.84091713
 51
78.00000849
  0
ARC
  5
67A
330
1D
100
AcDbEntity
  8
BLACK
100
AcDbCircle
 10
99.003299
 20
-32.301
 30
0.0
 40
2.074978203974442
100
AcDbArc
 50
168.14878375
 51
258.0000064
  0
ARC
  5
67B
330
1D
100
AcDbEntity
  8
BLACK
100
AcDbCircle
 10
101.071999
 20
-22.5684
 30
0.0
 40
2.074942912323373
100
AcDbArc
 50
77.72501301
 51
167.99728677
  0
LINE
  5
67C
330
1D
100
AcDbEntity
  8
BLACK
  6
Continuous
100
AcDbLine
 10
113.419966
 20
-25.198954
 30
0.0
 11
111.352437
 21
-34.925913
 31
0.0
  0
LINE
  5
67D
330
1D
100
AcDbEntity
  8
BLACK
  6
Continuous
100
AcDbLine
 10
108.881835
 20
-36.52208299999999
 30
0.0
 11
98.57188699999999
 21
-34.330635
 31
0.0
  0
LINE
  5
67E
330
1D
100
AcDbEntity
  8
BLACK
  6
Continuous
100
AcDbLine
 10
111.822919
 20
-22.732227
 30
0.0
 11
101.513156
 21
-20.540819
 31
0.0
  0
LINE
  5
67F
330
1D
100
AcDbEntity
  8
BLACK
  6
Continuous
100
AcDbLine
 10
99.042419
 20
-22.136899
 30
0.0
 11
96.972552
 21
-31.87486
 31
0.0
  0
ARC
  5
680
330
1D
100
AcDbEntity
  8
BLACK
100
AcDbCircle
 10
127.956499
 20
-38.4552
 30
0.0
 40
2.074996642278006
100
AcDbArc
 50
257.7302392400001
 51
348.0000017
  0
ARC
  5
681
330
1D
100
AcDbEntity
  8
BLACK
100
AcDbCircle
 10
130.025199
 20
-28.7226
 30
0.0
 40
2.075001740927704
100
AcDbArc
 50
347.99999766
 51
78.0000034
  0
ARC
  5
682
330
1D
100
AcDbEntity
  8
BLACK
100
AcDbCircle
 10
117.636999
 20
-36.2618
 30
0.0
 40
2.074895439520025
100
AcDbArc
 50
167.99713493
 51
258.00000054
  0
ARC
  5
683
330
1D
100
AcDbEntity
  8
BLACK
100
AcDbCircle
 10
119.705699
 20
-26.5291
 30
0.0
 40
2.074926430287349
100
AcDbArc
 50
78.27033978
 51
167.99730293
  0
LINE
  5
684
330
1D
100
AcDbEntity
  8
BLACK
  6
Continuous
100
AcDbLine
 10
132.05488
 20
-29.154022
 30
0.0
 11
129.986152
 21
-38.886616
 31
0.0
  0
LINE
  5
685
330
1D
100
AcDbEntity
  8
BLACK
  6
Continuous
100
AcDbLine
 10
127.515532
 20
-40.482798
 30
0.0
 11
117.205604
 21
-38.291354
 31
0.0
  0
LINE
  5
686
330
1D
100
AcDbEntity
  8
BLACK
  6
Continuous
100
AcDbLine
 10
130.456616
 20
-26.692942
 30
0.0
 11
120.127535
 21
-24.497428
 31
0.0
  0
LINE
  5
687
330
1D
100
AcDbEntity
  8
BLACK
  6
Continuous
100
AcDbLine
 10
117.676135
 20
-26.097603
 30
0.0
 11
115.607388
 21
-35.830287
 31
0.0
  0
ARC
  5
688
330
1D
100
AcDbEntity
  8
BLACK
100
AcDbCircle
 10
1.115002
 20
-24.025001
 30
0.0
 40
2.074997
100
AcDbArc
 50
270.0000276100001
 51
0.0
  0
ARC
  5
689
330
1D
100
AcDbEntity
  8
BLACK
100
AcDbCircle
 10
1.114999
 20
-14.075
 30
0.0
 40
2.075002
100
AcDbArc
 50
0.0
 51
90.0
  0
ARC
  5
68A
330
1D
100
AcDbEntity
  8
BLACK
100
AcDbCircle
 10
-9.434999
 20
-24.024996
 30
0.0
 40
2.075002
100
AcDbArc
 50
180.0
 51
270.0
  0
ARC
  5
68B
330
1D
100
AcDbEntity
  8
BLACK
100
AcDbCircle
 10
-9.434997
 20
-14.075002
 30
0.0
 40
2.075004
100
AcDbArc
 50
90.0
 51
180.0
  0
LINE
  5
68C
330
1D
100
AcDbEntity
  8
BLACK
  6
Continuous
100
AcDbLine
 10
3.189999
 20
-14.075
 30
0.0
 11
3.189999
 21
-24.025001
 31
0.0
  0
LINE
  5
68D
330
1D
100
AcDbEntity
  8
BLACK
  6
Continuous
100
AcDbLine
 10
1.115003
 20
-26.099998
 30
0.0
 11
-9.434999
 21
-26.099998
 31
0.0
  0
LINE
  5
68E
330
1D
100
AcDbEntity
  8
BLACK
  6
Continuous
100
AcDbLine
 10
1.114999
 20
-11.999998
 30
0.0
 11
-9.434997
 21
-11.999998
 31
0.0
  0
LINE
  5
68F
330
1D
100
AcDbEntity
  8
BLACK
  6
Continuous
100
AcDbLine
 10
-11.510001
 20
-14.075002
 30
0.0
 11
-11.510001
 21
-24.024996
 31
0.0
  0
ARC
  5
690
330
1D
100
AcDbEntity
  8
BLACK
100
AcDbCircle
 10
141.236499
 20
-21.8052
 30
0.0
 40
2.074996642278006
100
AcDbArc
 50
257.7302392400001
 51
348.0000017
  0
ARC
  5
691
330
1D
100
AcDbEntity
  8
BLACK
100
AcDbCircle
 10
143.305199
 20
-12.0726
 30
0.0
 40
2.075001740927704
100
AcDbArc
 50
347.99999766
 51
78.0000034
  0
ARC
  5
692
330
1D
100
AcDbEntity
  8
BLACK
100
AcDbCircle
 10
130.916999
 20
-19.6118
 30
0.0
 40
2.074895439520025
100
AcDbArc
 50
167.99713493
 51
258.00000054
  0
ARC
  5
693
330
1D
100
AcDbEntity
  8
BLACK
100
AcDbCircle
 10
132.985699
 20
-9.8791
 30
0.0
 40
2.074926430287349
100
AcDbArc
 50
78.27033978
 51
167.99730293
  0
LINE
  5
694
330
1D
100
AcDbEntity
  8
BLACK
  6
Continuous
100
AcDbLine
 10
145.33488
 20
-12.504022
 30
0.0
 11
143.266152
 21
-22.236616
 31
0.0
  0
LINE
  5
695
330
1D
100
AcDbEntity
  8
BLACK
  6
Continuous
100
AcDbLine
 10
140.795532
 20
-23.832798
 30
0.0
 11
130.485604
 21
-21.641354
 31
0.0
  0
LINE
  5
696
330
1D
100
AcDbEntity
  8
BLACK
  6
Continuous
100
AcDbLine
 10
143.736616
 20
-10.042942
 30
0.0
 11
133.407535
 21
-7.847428
 31
0.0
  0
LINE
  5
697
330
1D
100
AcDbEntity
  8
BLACK
  6
Continuous
100
AcDbLine
 10
130.956135
 20
-9.447602999999999
 30
0.0
 11
128.887388
 21
-19.180287
 31
0.0
  0
ARC
  5
698
330
1D
100
AcDbEntity
  8
BLACK
100
AcDbCircle
 10
52.707499
 20
-26.165
 30
0.0
 40
2.074999
100
AcDbArc
 50
270.0
 51
0.0
  0
ARC
  5
699
330
1D
100
AcDbEntity
  8
BLACK
100
AcDbCircle
 10
52.707499
 20
-16.215
 30
0.0
 40
2.075002
100
AcDbArc
 50
0.0
 51
90.0
  0
ARC
  5
69A
330
1D
100
AcDbEntity
  8
BLACK
100
AcDbCircle
 10
42.157499
 20
-26.165
 30
0.0
 40
2.074998
100
AcDbArc
 50
180.0
 51
270.0
  0
ARC
  5
69B
330
1D
100
AcDbEntity
  8
BLACK
100
AcDbCircle
 10
42.157499
 20
-16.215
 30
0.0
 40
2.075001
100
AcDbArc
 50
90.0
 51
180.0
  0
LINE
  5
69C
330
1D
100
AcDbEntity
  8
BLACK
  6
Continuous
100
AcDbLine
 10
54.782498
 20
-16.215
 30
0.0
 11
54.782498
 21
-26.165
 31
0.0
  0
LINE
  5
69D
330
1D
100
AcDbEntity
  8
BLACK
  6
Continuous
100
AcDbLine
 10
52.707499
 20
-28.239998
 30
0.0
 11
42.157499
 21
-28.239998
 31
0.0
  0
LINE
  5
69E
330
1D
100
AcDbEntity
  8
BLACK
  6
Continuous
100
AcDbLine
 10
52.707499
 20
-14.139998
 30
0.0
 11
42.157499
 21
-14.139998
 31
0.0
  0
LINE
  5
69F
330
1D
100
AcDbEntity
  8
BLACK
  6
Continuous
100
AcDbLine
 10
40.082498
 20
-16.215
 30
0.0
 11
40.082498
 21
-26.165
 31
0.0
  0
LINE
  5
6A0
330
1D
100
AcDbEntity
  8
BLACK
  6
Continuous
100
AcDbLine
 10
29.282498
 20
-35.265
 30
0.0
 11
29.282498
 21
-45.215
 31
0.0
  0
ARC
  5
6A1
330
1D
100
AcDbEntity
  8
BLACK
100
AcDbCircle
 10
27.207499
 20
-35.265
 30
0.0
 40
2.075002
100
AcDbArc
 50
0.0
 51
90.0
  0
ARC
  5
6A2
330
1D
100
AcDbEntity
  8
BLACK
100
AcDbCircle
 10
27.207499
 20
-45.215
 30
0.0
 40
2.074999
100
AcDbArc
 50
270.0
 51
0.0
  0
ARC
  5
6A3
330
1D
100
AcDbEntity
  8
BLACK
100
AcDbCircle
 10
11.895029
 20
-35.265
 30
0.0
 40
2.075001
100
AcDbArc
 50
90.0
 51
180.0
  0
ARC
  5
6A4
330
1D
100
AcDbEntity
  8
BLACK
100
AcDbCircle
 10
11.895039
 20
-45.21498
 30
0.0
 40
2.075018
100
AcDbArc
 50
180.13803351
 51
270.0
  0
LINE
  5
6A5
330
1D
100
AcDbEntity
  8
BLACK
  6
Continuous
100
AcDbLine
 10
27.207499
 20
-47.289998
 30
0.0
 11
11.895039
 21
-47.289998
 31
0.0
  0
LINE
  5
6A6
330
1D
100
AcDbEntity
  8
BLACK
  6
Continuous
100
AcDbLine
 10
27.207499
 20
-33.189998
 30
0.0
 11
11.895029
 21
-33.189998
 31
0.0
  0
LINE
  5
6A7
330
1D
100
AcDbEntity
  8
BLACK
  6
Continuous
100
AcDbLine
 10
9.820027999999999
 20
-35.265
 30
0.0
 11
9.820027999999999
 21
-45.219979
 31
0.0
  0
ARC
  5
6A8
330
1D
100
AcDbEntity
  8
BLACK
100
AcDbCircle
 10
47.344999
 20
-7.114999999999999
 30
0.0
 40
2.074999
100
AcDbArc
 50
270.0
 51
0.0
  0
ARC
  5
6A9
330
1D
100
AcDbEntity
  8
BLACK
100
AcDbCircle
 10
47.344999
 20
2.835
 30
0.0
 40
2.075002
100
AcDbArc
 50
0.0
 51
90.0
  0
ARC
  5
6AA
330
1D
100
AcDbEntity
  8
BLACK
100
AcDbCircle
 10
36.794999
 20
-7.114999999999999
 30
0.0
 40
2.074998
100
AcDbArc
 50
180.0
 51
270.0
  0
ARC
  5
6AB
330
1D
100
AcDbEntity
  8
BLACK
100
AcDbCircle
 10
36.794999
 20
2.835
 30
0.0
 40
2.075001
100
AcDbArc
 50
90.0
 51
180.0
  0
LINE
  5
6AC
330
1D
100
AcDbEntity
  8
BLACK
  6
Continuous
100
AcDbLine
 10
49.419998
 20
2.835
 30
0.0
 11
49.419998
 21
-7.114999999999999
 31
0.0
  0
LINE
  5
6AD
330
1D
100
AcDbEntity
  8
BLACK
  6
Continuous
100
AcDbLine
 10
47.344999
 20
-9.189998
 30
0.0
 11
36.794999
 21
-9.189998
 31
0.0
  0
LINE
  5
6AE
330
1D
100
AcDbEntity
  8
BLACK
  6
Continuous
100
AcDbLine
 10
47.344999
 20
4.910002
 30
0.0
 11
36.794999
 21
4.910002
 31
0.0
  0
LINE
  5
6AF
330
1D
100
AcDbEntity
  8
BLACK
  6
Continuous
100
AcDbLine
 10
34.719998
 20
2.835
 30
0.0
 11
34.719998
 21
-7.114999999999999
 31
0.0
  0
ARC
  5
6B0
330
1D
100
AcDbEntity
  8
BLACK
100
AcDbCircle
 10
72.05529899999999
 20
-26.573
 30
0.0
 40
2.075069209433025
100
AcDbArc
 50
257.9994311200001
 51
348.00000417
  0
ARC
  5
6B1
330
1D
100
AcDbEntity
  8
BLACK
100
AcDbCircle
 10
74.124099
 20
-16.8404
 30
0.0
 40
2.074948590223864
100
AcDbArc
 50
347.9985725700001
 51
78.00000197
  0
ARC
  5
6B2
330
1D
100
AcDbEntity
  8
BLACK
100
AcDbCircle
 10
61.735899
 20
-24.3796
 30
0.0
 40
2.074948590223864
100
AcDbArc
 50
167.99861107
 51
258.00000197
  0
ARC
  5
6B3
330
1D
100
AcDbEntity
  8
BLACK
100
AcDbCircle
 10
63.804699
 20
-14.647
 30
0.0
 40
2.075071373639953
100
AcDbArc
 50
77.99941558999998
 51
167.99998865
  0
LINE
  5
6B4
330
1D
100
AcDbEntity
  8
BLACK
  6
Continuous
100
AcDbLine
 10
76.153744
 20
-17.271867
 30
0.0
 11
74.08502299999999
 21
-27.004431
 31
0.0
  0
LINE
  5
6B5
330
1D
100
AcDbEntity
  8
BLACK
  6
Continuous
100
AcDbLine
 10
71.62386099999999
 20
-28.602656
 30
0.0
 11
61.30449299999999
 21
-26.409206
 31
0.0
  0
LINE
  5
6B6
330
1D
100
AcDbEntity
  8
BLACK
  6
Continuous
100
AcDbLine
 10
74.555505
 20
-14.810794
 30
0.0
 11
64.236137
 21
-12.617344
 31
0.0
  0
LINE
  5
6B7
330
1D
100
AcDbEntity
  8
BLACK
  6
Continuous
100
AcDbLine
 10
61.774973
 20
-14.215568
 30
0.0
 11
59.706252
 21
-23.948134
 31
0.0
  0
ARC
  5
6B8
330
1D
100
AcDbEntity
  8
BLACK
100
AcDbCircle
 10
78.105299
 20
-66.813
 30
0.0
 40
2.075069023052486
100
AcDbArc
 50
257.9994311200001
 51
348.00268476
  0
ARC
  5
6B9
330
1D
100
AcDbEntity
  8
BLACK
100
AcDbCircle
 10
80.174099
 20
-57.0804
 30
0.0
 40
2.074948590223864
100
AcDbArc
 50
347.9985725700001
 51
78.00000197
  0
ARC
  5
6BA
330
1D
100
AcDbEntity
  8
BLACK
100
AcDbCircle
 10
67.785899
 20
-64.61959999999999
 30
0.0
 40
2.074948590223864
100
AcDbArc
 50
167.99861107
 51
258.00000197
  0
ARC
  5
6BB
330
1D
100
AcDbEntity
  8
BLACK
100
AcDbCircle
 10
69.854699
 20
-54.887
 30
0.0
 40
2.075070979367212
100
AcDbArc
 50
77.99941558999998
 51
168.00269624
  0
LINE
  5
6BC
330
1D
100
AcDbEntity
  8
BLACK
  6
Continuous
100
AcDbLine
 10
82.203744
 20
-57.511867
 30
0.0
 11
80.135043
 21
-67.24433599999999
 31
0.0
  0
LINE
  5
6BD
330
1D
100
AcDbEntity
  8
BLACK
  6
Continuous
100
AcDbLine
 10
77.673861
 20
-68.84265599999999
 30
0.0
 11
67.35449299999999
 21
-66.64920599999999
 31
0.0
  0
LINE
  5
6BE
330
1D
100
AcDbEntity
  8
BLACK
  6
Continuous
100
AcDbLine
 10
80.605505
 20
-55.050794
 30
0.0
 11
70.286137
 21
-52.857344
 31
0.0
  0
LINE
  5
6BF
330
1D
100
AcDbEntity
  8
BLACK
  6
Continuous
100
AcDbLine
 10
67.824953
 20
-54.455664
 30
0.0
 11
65.756252
 21
-64.18813399999999
 31
0.0
  0
ARC
  5
6C0
330
1D
100
AcDbEntity
  8
BLACK
100
AcDbCircle
 10
90.688999
 20
-30.5337
 30
0.0
 40
2.075084319010194
100
AcDbArc
 50
257.99941494
 51
348.0026898300001
  0
ARC
  5
6C1
330
1D
100
AcDbEntity
  8
BLACK
100
AcDbCircle
 10
92.75779899999999
 20
-20.8011
 30
0.0
 40
2.074934272422382
100
AcDbArc
 50
347.99818232
 51
78.00000262
  0
ARC
  5
6C2
330
1D
100
AcDbEntity
  8
BLACK
100
AcDbCircle
 10
80.369599
 20
-28.3403
 30
0.0
 40
2.074962908025346
100
AcDbArc
 50
167.99900132
 51
258.00000132
  0
ARC
  5
6C3
330
1D
100
AcDbEntity
  8
BLACK
100
AcDbCircle
 10
82.43839899999999
 20
-18.6077
 30
0.0
 40
2.075055683409484
100
AcDbArc
 50
77.99941624
 51
168.00269117
  0
LINE
  5
6C4
330
1D
100
AcDbEntity
  8
BLACK
  6
Continuous
100
AcDbLine
 10
94.78745599999999
 20
-21.232584
 30
0.0
 11
92.718758
 21
-30.965039
 31
0.0
  0
LINE
  5
6C5
330
1D
100
AcDbEntity
  8
BLACK
  6
Continuous
100
AcDbLine
 10
90.25755799999999
 20
-32.56337
 30
0.0
 11
79.93818999999999
 21
-30.36992
 31
0.0
  0
LINE
  5
6C6
330
1D
100
AcDbEntity
  8
BLACK
  6
Continuous
100
AcDbLine
 10
93.189202
 20
-18.771508
 30
0.0
 11
82.869834
 21
-16.578058
 31
0.0
  0
LINE
  5
6C7
330
1D
100
AcDbEntity
  8
BLACK
  6
Continuous
100
AcDbLine
 10
80.40866799999999
 20
-18.176367
 30
0.0
 11
78.339964
 21
-27.908851
 31
0.0
  0
ARC
  5
6C8
330
1D
100
AcDbEntity
  8
BLACK
100
AcDbCircle
 10
91.388999
 20
-50.1637
 30
0.0
 40
2.07508450538213
100
AcDbArc
 50
257.99941494
 51
348.00000926
  0
ARC
  5
6C9
330
1D
100
AcDbEntity
  8
BLACK
100
AcDbCircle
 10
93.457799
 20
-40.4311
 30
0.0
 40
2.074934272422382
100
AcDbArc
 50
347.99818232
 51
78.00000262
  0
ARC
  5
6CA
330
1D
100
AcDbEntity
  8
BLACK
100
AcDbCircle
 10
81.069599
 20
-47.97029999999999
 30
0.0
 40
2.074962908025346
100
AcDbArc
 50
167.99900132
 51
258.00000132
  0
ARC
  5
6CB
330
1D
100
AcDbEntity
  8
BLACK
100
AcDbCircle
 10
83.13839899999999
 20
-38.2377
 30
0.0
 40
2.075055869779173
100
AcDbArc
 50
77.99941624
 51
168.00001057
  0
LINE
  5
6CC
330
1D
100
AcDbEntity
  8
BLACK
  6
Continuous
100
AcDbLine
 10
95.487456
 20
-40.862584
 30
0.0
 11
93.41873799999999
 21
-50.59513399999999
 31
0.0
  0
LINE
  5
6CD
330
1D
100
AcDbEntity
  8
BLACK
  6
Continuous
100
AcDbLine
 10
90.95755799999999
 20
-52.19336999999999
 30
0.0
 11
80.63819
 21
-49.99992
 31
0.0
  0
LINE
  5
6CE
330
1D
100
AcDbEntity
  8
BLACK
  6
Continuous
100
AcDbLine
 10
93.889202
 20
-38.401508
 30
0.0
 11
83.569834
 21
-36.208058
 31
0.0
  0
LINE
  5
6CF
330
1D
100
AcDbEntity
  8
BLACK
  6
Continuous
100
AcDbLine
 10
81.108688
 20
-37.806272
 30
0.0
 11
79.039964
 21
-47.538851
 31
0.0
  0
ARC
  5
6D0
330
1D
100
AcDbEntity
  8
BLACK
100
AcDbCircle
 10
122.602799
 20
-17.8445
 30
0.0
 40
2.074981346328925
100
AcDbArc
 50
257.7302321700001
 51
347.99999662
  0
ARC
  5
6D1
330
1D
100
AcDbEntity
  8
BLACK
100
AcDbCircle
 10
124.671499
 20
-8.1119
 30
0.0
 40
2.075017036876806
100
AcDbArc
 50
347.84091713
 51
78.00000849
  0
ARC
  5
6D2
330
1D
100
AcDbEntity
  8
BLACK
100
AcDbCircle
 10
112.283299
 20
-15.651
 30
0.0
 40
2.074978203974442
100
AcDbArc
 50
168.14878375
 51
258.0000064
  0
ARC
  5
6D3
330
1D
100
AcDbEntity
  8
BLACK
100
AcDbCircle
 10
114.351999
 20
-5.9184
 30
0.0
 40
2.074942912323373
100
AcDbArc
 50
77.72501301
 51
167.99728677
  0
LINE
  5
6D4
330
1D
100
AcDbEntity
  8
BLACK
  6
Continuous
100
AcDbLine
 10
126.699966
 20
-8.548954
 30
0.0
 11
124.632437
 21
-18.275913
 31
0.0
  0
LINE
  5
6D5
330
1D
100
AcDbEntity
  8
BLACK
  6
Continuous
100
AcDbLine
 10
122.161835
 20
-19.872083
 30
0.0
 11
111.851887
 21
-17.680635
 31
0.0
  0
LINE
  5
6D6
330
1D
100
AcDbEntity
  8
BLACK
  6
Continuous
100
AcDbLine
 10
125.102919
 20
-6.082227
 30
0.0
 11
114.793156
 21
-3.890819
 31
0.0
  0
LINE
  5
6D7
330
1D
100
AcDbEntity
  8
BLACK
  6
Continuous
100
AcDbLine
 10
112.322419
 20
-5.486899
 30
0.0
 11
110.252552
 21
-15.22486
 31
0.0
  0
ARC
  5
6D8
330
1D
100
AcDbEntity
  8
BLACK
100
AcDbCircle
 10
110.022799
 20
-54.1245
 30
0.0
 40
2.074981346328925
100
AcDbArc
 50
257.7302321700001
 51
347.99999662
  0
ARC
  5
6D9
330
1D
100
AcDbEntity
  8
BLACK
100
AcDbCircle
 10
112.091499
 20
-44.3919
 30
0.0
 40
2.075017036876806
100
AcDbArc
 50
347.84091713
 51
78.00000849
  0
ARC
  5
6DA
330
1D
100
AcDbEntity
  8
BLACK
100
AcDbCircle
 10
99.703299
 20
-51.931
 30
0.0
 40
2.074978203974442
100
AcDbArc
 50
168.14878375
 51
258.0000064
  0
ARC
  5
6DB
330
1D
100
AcDbEntity
  8
BLACK
100
AcDbCircle
 10
101.771999
 20
-42.1984
 30
0.0
 40
2.074942912323373
100
AcDbArc
 50
77.72501301
 51
167.99728677
  0
LINE
  5
6DC
330
1D
100
AcDbEntity
  8
BLACK
  6
Continuous
100
AcDbLine
 10
114.119966
 20
-44.828954
 30
0.0
 11
112.052437
 21
-54.555913
 31
0.0
  0
LINE
  5
6DD
330
1D
100
AcDbEntity
  8
BLACK
  6
Continuous
100
AcDbLine
 10
109.581835
 20
-56.152083
 30
0.0
 11
99.27188699999999
 21
-53.960635
 31
0.0
  0
LINE
  5
6DE
330
1D
100
AcDbEntity
  8
BLACK
  6
Continuous
100
AcDbLine
 10
112.522919
 20
-42.362227
 30
0.0
 11
102.213156
 21
-40.170819
 31
0.0
  0
LINE
  5
6DF
330
1D
100
AcDbEntity
  8
BLACK
  6
Continuous
100
AcDbLine
 10
99.742419
 20
-41.766899
 30
0.0
 11
97.672552
 21
-51.50486
 31
0.0
  0
ARC
  5
6E0
330
1D
100
AcDbEntity
  8
BLACK
100
AcDbCircle
 10
58.76109899999999
 20
-64.2649
 30
0.0
 40
2.075149
100
AcDbArc
 50
269.6050568
 51
0.0
  0
ARC
  5
6E1
330
1D
100
AcDbEntity
  8
BLACK
100
AcDbCircle
 10
58.76129899999999
 20
-54.31489999999999
 30
0.0
 40
2.074902
100
AcDbArc
 50
359.9972939199999
 51
90.0
  0
ARC
  5
6E2
330
1D
100
AcDbEntity
  8
BLACK
100
AcDbCircle
 10
48.211399
 20
-64.2648
 30
0.0
 40
2.075198
100
AcDbArc
 50
179.62130107
 51
270.0
  0
ARC
  5
6E3
330
1D
100
AcDbEntity
  8
BLACK
100
AcDbCircle
 10
48.211219
 20
-54.31497
 30
0.0
 40
2.074971
100
AcDbArc
 50
90.0
 51
180.0
  0
LINE
  5
6E4
330
1D
100
AcDbEntity
  8
BLACK
  6
Continuous
100
AcDbLine
 10
60.836248
 20
-54.314998
 30
0.0
 11
60.836248
 21
-64.2649
 31
0.0
  0
LINE
  5
6E5
330
1D
100
AcDbEntity
  8
BLACK
  6
Continuous
100
AcDbLine
 10
58.746795
 20
-66.339998
 30
0.0
 11
48.211399
 21
-66.339998
 31
0.0
  0
LINE
  5
6E6
330
1D
100
AcDbEntity
  8
BLACK
  6
Continuous
100
AcDbLine
 10
58.76129899999999
 20
-52.239998
 30
0.0
 11
48.211219
 21
-52.239998
 31
0.0
  0
LINE
  5
6E7
330
1D
100
AcDbEntity
  8
BLACK
  6
Continuous
100
AcDbLine
 10
46.13624799999999
 20
-54.31497
 30
0.0
 11
46.13624799999999
 21
-64.25108399999999
 31
0.0
  0
ARC
  5
6E8
330
1D
100
AcDbEntity
  8
BLACK
100
AcDbCircle
 10
28.894999
 20
-26.165
 30
0.0
 40
2.074999
100
AcDbArc
 50
270.0
 51
0.0
  0
ARC
  5
6E9
330
1D
100
AcDbEntity
  8
BLACK
100
AcDbCircle
 10
28.894999
 20
-16.215
 30
0.0
 40
2.075002
100
AcDbArc
 50
0.0
 51
90.0
  0
ARC
  5
6EA
330
1D
100
AcDbEntity
  8
BLACK
100
AcDbCircle
 10
18.344999
 20
-26.165
 30
0.0
 40
2.074998
100
AcDbArc
 50
180.0
 51
270.0
  0
ARC
  5
6EB
330
1D
100
AcDbEntity
  8
BLACK
100
AcDbCircle
 10
18.344999
 20
-16.215
 30
0.0
 40
2.075001
100
AcDbArc
 50
90.0
 51
180.0
  0
LINE
  5
6EC
330
1D
100
AcDbEntity
  8
BLACK
  6
Continuous
100
AcDbLine
 10
30.969998
 20
-16.215
 30
0.0
 11
30.969998
 21
-26.165
 31
0.0
  0
LINE
  5
6ED
330
1D
100
AcDbEntity
  8
BLACK
  6
Continuous
100
AcDbLine
 10
28.894999
 20
-28.239998
 30
0.0
 11
18.344999
 21
-28.239998
 31
0.0
  0
LINE
  5
6EE
330
1D
100
AcDbEntity
  8
BLACK
  6
Continuous
100
AcDbLine
 10
28.894999
 20
-14.139998
 30
0.0
 11
18.344999
 21
-14.139998
 31
0.0
  0
LINE
  5
6EF
330
1D
100
AcDbEntity
  8
BLACK
  6
Continuous
100
AcDbLine
 10
16.269998
 20
-16.215
 30
0.0
 11
16.269998
 21
-26.165
 31
0.0
  0
ARC
  5
6F0
330
1D
100
AcDbEntity
  8
BLACK
100
AcDbCircle
 10
28.294999
 20
-7.114999999999999
 30
0.0
 40
2.074999
100
AcDbArc
 50
270.0
 51
0.0
  0
ARC
  5
6F1
330
1D
100
AcDbEntity
  8
BLACK
100
AcDbCircle
 10
28.294999
 20
2.835
 30
0.0
 40
2.075002
100
AcDbArc
 50
0.0
 51
90.0
  0
ARC
  5
6F2
330
1D
100
AcDbEntity
  8
BLACK
100
AcDbCircle
 10
17.744999
 20
-7.114999999999999
 30
0.0
 40
2.074998
100
AcDbArc
 50
180.0
 51
270.0
  0
ARC
  5
6F3
330
1D
100
AcDbEntity
  8
BLACK
100
AcDbCircle
 10
17.744999
 20
2.835
 30
0.0
 40
2.075001
100
AcDbArc
 50
90.0
 51
180.0
  0
LINE
  5
6F4
330
1D
100
AcDbEntity
  8
BLACK
  6
Continuous
100
AcDbLine
 10
30.369998
 20
2.835
 30
0.0
 11
30.369998
 21
-7.114999999999999
 31
0.0
  0
LINE
  5
6F5
330
1D
100
AcDbEntity
  8
BLACK
  6
Continuous
100
AcDbLine
 10
28.294999
 20
-9.189998
 30
0.0
 11
17.744999
 21
-9.189998
 31
0.0
  0
LINE
  5
6F6
330
1D
100
AcDbEntity
  8
BLACK
  6
Continuous
100
AcDbLine
 10
28.294999
 20
4.910002
 30
0.0
 11
17.744999
 21
4.910002
 31
0.0
  0
LINE
  5
6F7
330
1D
100
AcDbEntity
  8
BLACK
  6
Continuous
100
AcDbLine
 10
15.669998
 20
2.835
 30
0.0
 11
15.669998
 21
-7.114999999999999
 31
0.0
  0
ARC
  5
6F8
330
1D
100
AcDbEntity
  8
BLACK
100
AcDbCircle
 10
20.661249
 20
-83.315
 30
0.0
 40
2.074999
100
AcDbArc
 50
270.0
 51
0.0
  0
ARC
  5
6F9
330
1D
100
AcDbEntity
  8
BLACK
100
AcDbCircle
 10
20.661249
 20
-73.36498999999999
 30
0.0
 40
2.074992
100
AcDbArc
 50
359.9997791
 51
90.0
  0
ARC
  5
6FA
330
1D
100
AcDbEntity
  8
BLACK
100
AcDbCircle
 10
10.111259
 20
-83.31497999999999
 30
0.0
 40
2.075018
100
AcDbArc
 50
180.13803351
 51
270.0
  0
ARC
  5
6FB
330
1D
100
AcDbEntity
  8
BLACK
100
AcDbCircle
 10
10.111249
 20
-73.365
 30
0.0
 40
2.075001
100
AcDbArc
 50
90.0
 51
180.0
  0
LINE
  5
6FC
330
1D
100
AcDbEntity
  8
BLACK
  6
Continuous
100
AcDbLine
 10
22.736248
 20
-73.364998
 30
0.0
 11
22.736248
 21
-83.315
 31
0.0
  0
LINE
  5
6FD
330
1D
100
AcDbEntity
  8
BLACK
  6
Continuous
100
AcDbLine
 10
20.661249
 20
-85.38999799999999
 30
0.0
 11
10.111259
 21
-85.38999799999999
 31
0.0
  0
LINE
  5
6FE
330
1D
100
AcDbEntity
  8
BLACK
  6
Continuous
100
AcDbLine
 10
20.661249
 20
-71.289998
 30
0.0
 11
10.111249
 21
-71.289998
 31
0.0
  0
LINE
  5
6FF
330
1D
100
AcDbEntity
  8
BLACK
  6
Continuous
100
AcDbLine
 10
8.036248
 20
-73.365
 30
0.0
 11
8.036248
 21
-83.31997899999999
 31
0.0
  0
ARC
  5
700
330
1D
100
AcDbEntity
  8
BLACK
100
AcDbCircle
 10
73.295299
 20
-86.803
 30
0.0
 40
2.075069023052486
100
AcDbArc
 50
257.9994311200001
 51
348.00268476
  0
ARC
  5
701
330
1D
100
AcDbEntity
  8
BLACK
100
AcDbCircle
 10
75.364099
 20
-77.07039999999999
 30
0.0
 40
2.074948590223864
100
AcDbArc
 50
347.9985725700001
 51
78.00000197
  0
ARC
  5
702
330
1D
100
AcDbEntity
  8
BLACK
100
AcDbCircle
 10
62.975899
 20
-84.6096
 30
0.0
 40
2.074948590223864
100
AcDbArc
 50
167.99861107
 51
258.00000197
  0
ARC
  5
703
330
1D
100
AcDbEntity
  8
BLACK
100
AcDbCircle
 10
65.044699
 20
-74.877
 30
0.0
 40
2.075070979367212
100
AcDbArc
 50
77.99941558999998
 51
168.00269624
  0
LINE
  5
704
330
1D
100
AcDbEntity
  8
BLACK
  6
Continuous
100
AcDbLine
 10
77.393744
 20
-77.50186699999999
 30
0.0
 11
75.325043
 21
-87.234336
 31
0.0
  0
LINE
  5
705
330
1D
100
AcDbEntity
  8
BLACK
  6
Continuous
100
AcDbLine
 10
72.863861
 20
-88.832656
 30
0.0
 11
62.544493
 21
-86.639206
 31
0.0
  0
LINE
  5
706
330
1D
100
AcDbEntity
  8
BLACK
  6
Continuous
100
AcDbLine
 10
75.79550499999999
 20
-75.04079399999999
 30
0.0
 11
65.476137
 21
-72.84734399999999
 31
0.0
  0
LINE
  5
707
330
1D
100
AcDbEntity
  8
BLACK
  6
Continuous
100
AcDbLine
 10
63.014953
 20
-74.445664
 30
0.0
 11
60.94625199999999
 21
-84.178134
 31
0.0
  0
CIRCLE
  5
708
330
1D
100
AcDbEntity
  8
BLACK
100
AcDbCircle
 10
293.040594
 20
-78.388001
 30
0.0
 40
0.9999939999999999
  0
CIRCLE
  5
709
330
1D
100
AcDbEntity
  8
BLACK
100
AcDbCircle
 10
312.090642
 20
-78.388003
 30
0.0
 40
1.0
  0
CIRCLE
  5
70A
330
1D
100
AcDbEntity
  8
BLACK
100
AcDbCircle
 10
172.485761
 20
-70.751791
 30
0.0
 40
1.000001
  0
CIRCLE
  5
70B
330
1D
100
AcDbEntity
  8
BLACK
100
AcDbCircle
 10
169.225252
 20
-32.491898
 30
0.0
 40
0.999999
  0
CIRCLE
  5
70C
330
1D
100
AcDbEntity
  8
BLACK
100
AcDbCircle
 10
206.493175
 20
-24.570359
 30
0.0
 40
0.9999979999999999
  0
CIRCLE
  5
70D
330
1D
100
AcDbEntity
  8
BLACK
100
AcDbCircle
 10
233.746894
 20
-38.259643
 30
0.0
 40
0.999999
  0
CIRCLE
  5
70E
330
1D
100
AcDbEntity
  8
BLACK
100
AcDbCircle
 10
271.717499
 20
-59.290003
 30
0.0
 40
1.000001
  0
CIRCLE
  5
70F
330
1D
100
AcDbEntity
  8
BLACK
100
AcDbCircle
 10
285.89629
 20
-21.190001
 30
0.0
 40
1.000001
  0
CIRCLE
  5
710
330
1D
100
AcDbEntity
  8
BLACK
100
AcDbCircle
 10
174.585758
 20
-11.881791
 30
0.0
 40
1.0
  0
CIRCLE
  5
711
330
1D
100
AcDbEntity
  8
BLACK
100
AcDbCircle
 10
233.196896
 20
-78.85964
 30
0.0
 40
0.9999969999999999
  0
CIRCLE
  5
712
330
1D
100
AcDbEntity
  8
BLACK
100
AcDbCircle
 10
230.48703
 20
0.00039
 30
0.0
 40
1.000002
  0
CIRCLE
  5
713
330
1D
100
AcDbEntity
  8
BLACK
100
AcDbCircle
 10
159.212004
 20
-54.10252
 30
0.0
 40
0.9999979999999999
  0
CIRCLE
  5
714
330
1D
100
AcDbEntity
  8
BLACK
100
AcDbCircle
 10
209.753279
 20
-62.830336
 30
0.0
 40
1.000001
  0
CIRCLE
  5
715
330
1D
100
AcDbEntity
  8
BLACK
100
AcDbCircle
 10
144.344009
 20
-95.281875
 30
0.0
 40
1.000002
  0
CIRCLE
  5
716
330
1D
100
AcDbEntity
  8
BLACK
100
AcDbCircle
 10
120.564269
 20
-70.751789
 30
0.0
 40
0.9999969999999999
  0
CIRCLE
  5
717
330
1D
100
AcDbEntity
  8
BLACK
100
AcDbCircle
 10
146.539122
 20
-76.27291699999999
 30
0.0
 40
1.000003
  0
CIRCLE
  5
718
330
1D
100
AcDbEntity
  8
BLACK
100
AcDbCircle
 10
90.52689199999999
 20
-5.940361999999999
 30
0.0
 40
0.999999
  0
CIRCLE
  5
719
330
1D
100
AcDbEntity
  8
BLACK
100
AcDbCircle
 10
133.848035
 20
-54.10251599999999
 30
0.0
 40
1.0
  0
CIRCLE
  5
71A
330
1D
100
AcDbEntity
  8
BLACK
100
AcDbCircle
 10
7.644798
 20
-40.240001
 30
0.0
 40
1.0
  0
CIRCLE
  5
71B
330
1D
100
AcDbEntity
  8
BLACK
100
AcDbCircle
 10
9.332476999999999
 20
-19.999367
 30
0.0
 40
0.999996
  0
CIRCLE
  5
71C
330
1D
100
AcDbEntity
  8
BLACK
100
AcDbCircle
 10
32.545038
 20
-2.139998
 30
0.0
 40
1.0
  0
CIRCLE
  5
71D
330
1D
100
AcDbEntity
  8
BLACK
100
AcDbCircle
 10
114.514274
 20
-30.51179
 30
0.0
 40
0.999999
  0
CIRCLE
  5
71E
330
1D
100
AcDbEntity
  8
BLACK
100
AcDbCircle
 10
77.94689199999999
 20
-42.220365
 30
0.0
 40
0.9999969999999999
  0
CIRCLE
  5
71F
330
1D
100
AcDbEntity
  8
BLACK
100
AcDbCircle
 10
58.613136
 20
-18.629639
 30
0.0
 40
1.0
  0
CIRCLE
  5
720
330
1D
100
AcDbEntity
  8
BLACK
100
AcDbCircle
 10
146.428167
 20
-17.822554
 30
0.0
 40
1.000001
  0
CIRCLE
  5
721
330
1D
100
AcDbEntity
  8
BLACK
100
AcDbCircle
 10
-9.52501
 20
0.000001
 30
0.0
 40
1.000004
  0
CIRCLE
  5
722
330
1D
100
AcDbEntity
  8
BLACK
100
AcDbCircle
 10
24.915045
 20
-78.340007
 30
0.0
 40
0.999996
  0
CIRCLE
  5
723
330
1D
100
AcDbEntity
  8
BLACK
100
AcDbCircle
 10
5.86124
 20
-78.340003
 30
0.0
 40
0.999999
  0
CIRCLE
  5
724
330
1D
100
AcDbEntity
  8
BLACK
100
AcDbCircle
 10
59.853139
 20
-78.85963699999999
 30
0.0
 40
0.9999979999999999
  0
CIRCLE
  5
725
330
1D
100
AcDbEntity
  8
BLACK
100
AcDbCircle
 10
31.457728
 20
-40.239998
 30
0.0
 40
1.0
  0
LINE
  5
76A
330
1D
100
AcDbEntity
  8
BLACK
  6
Continuous
100
AcDbLine
 10
272.799484
 20
-5.39044
 30
0.0
 11
272.799484
 21
2.2103
 31
0.0
  0
LINE
  5
76B
330
1D
100
AcDbEntity
  8
BLACK
  6
Continuous
100
AcDbLine
 10
274.236511
 20
3.63544
 30
0.0
 11
275.090074
 21
3.63544
 31
0.0
  0
LINE
  5
76C
330
1D
100
AcDbEntity
  8
BLACK
  6
Continuous
100
AcDbLine
 10
274.628574
 20
-6.81544
 30
0.0
 11
274.224474
 21
-6.81544
 31
0.0
  0
LINE
  5
76D
330
1D
100
AcDbEntity
  8
BLACK
  6
Continuous
100
AcDbLine
 10
275.090074
 20
3.635452
 30
0.0
 11
275.090074
 21
3.63544
 31
0.0
  0
LINE
  5
76E
330
1D
100
AcDbEntity
  8
BLACK
  6
Continuous
100
AcDbLine
 10
276.947374
 20
4.8876
 30
0.0
 11
300.802574
 21
4.8876
 31
0.0
  0
LINE
  5
76F
330
1D
100
AcDbEntity
  8
BLACK
  6
Continuous
100
AcDbLine
 10
276.947374
 20
4.887589
 30
0.0
 11
276.947374
 21
4.8876
 31
0.0
  0
LINE
  5
770
330
1D
100
AcDbEntity
  8
BLACK
  6
Continuous
100
AcDbLine
 10
299.750424
 20
-9.151909999999999
 30
0.0
 11
277.999574
 21
-9.151909999999999
 31
0.0
  0
LINE
  5
771
330
1D
100
AcDbEntity
  8
BLACK
  6
Continuous
100
AcDbLine
 10
302.659774
 20
3.63544
 30
0.0
 11
303.525374
 21
3.63544
 31
0.0
  0
LINE
  5
772
330
1D
100
AcDbEntity
  8
BLACK
  6
Continuous
100
AcDbLine
 10
303.513457
 20
-6.81544
 30
0.0
 11
303.121324
 21
-6.81544
 31
0.0
  0
LINE
  5
773
330
1D
100
AcDbEntity
  8
BLACK
  6
Continuous
100
AcDbLine
 10
304.950364
 20
2.21044
 30
0.0
 11
304.950364
 21
-5.3904
 31
0.0
  0
ARC
  5
774
330
1D
100
AcDbEntity
  8
BLACK
100
AcDbCircle
 10
274.224566
 20
2.210408
 30
0.0
 40
1.425082004092396
100
AcDbArc
 50
89.51974267000003
 51
180.00434217
  0
ARC
  5
775
330
1D
100
AcDbEntity
  8
BLACK
100
AcDbCircle
 10
274.224485
 20
-5.390439
 30
0.0
 40
1.425001000042456
100
AcDbArc
 50
180.00004021
 51
269.99955772
  0
ARC
  5
776
330
1D
100
AcDbEntity
  8
BLACK
100
AcDbCircle
 10
274.62855
 20
-8.540348
 30
0.0
 40
1.724908000166965
100
AcDbArc
 50
20.54547839
 51
89.9992028
  0
ARC
  5
777
330
1D
100
AcDbEntity
  8
BLACK
100
AcDbCircle
 10
275.090123
 20
4.563829
 30
0.0
 40
0.9283764359148717
100
AcDbArc
 50
269.99697591
 51
337.97782841
  0
ARC
  5
778
330
1D
100
AcDbEntity
  8
BLACK
100
AcDbCircle
 10
276.947273
 20
3.812649
 30
0.0
 40
1.074940192811674
100
AcDbArc
 50
89.99461656
 51
157.97750247
  0
ARC
  5
779
330
1D
100
AcDbEntity
  8
BLACK
100
AcDbCircle
 10
277.999461
 20
-7.276915
 30
0.0
 40
1.874995003405076
100
AcDbArc
 50
200.54692151
 51
270.00345303
  0
ARC
  5
77A
330
1D
100
AcDbEntity
  8
BLACK
100
AcDbCircle
 10
300.802539
 20
3.81261
 30
0.0
 40
1.074990000569773
100
AcDbArc
 50
22.02370504
 51
89.99813454
  0
ARC
  5
77B
330
1D
100
AcDbEntity
  8
BLACK
100
AcDbCircle
 10
299.750339
 20
-7.276829999999999
 30
0.0
 40
1.875082291400833
100
AcDbArc
 50
270.0025973
 51
339.45098232
  0
ARC
  5
77C
330
1D
100
AcDbEntity
  8
BLACK
100
AcDbCircle
 10
303.121329
 20
-8.540379999999999
 30
0.0
 40
1.724936068561673
100
AcDbArc
 50
90.00016608000001
 51
159.45408213
  0
ARC
  5
77D
330
1D
100
AcDbEntity
  8
BLACK
100
AcDbCircle
 10
302.659799
 20
4.563899999999999
 30
0.0
 40
0.9284600003365787
100
AcDbArc
 50
202.02452102
 51
269.99845724
  0
ARC
  5
77E
330
1D
100
AcDbEntity
  8
BLACK
100
AcDbCircle
 10
303.525399
 20
2.2105
 30
0.0
 40
1.424940000219307
100
AcDbArc
 50
359.99758749
 51
90.00100523000002
  0
ARC
  5
77F
330
1D
100
AcDbEntity
  8
BLACK
100
AcDbCircle
 10
303.525239
 20
-5.390359999999999
 30
0.0
 40
1.425125000561354
100
AcDbArc
 50
269.52631186
 51
359.99839184
  0
CIRCLE
  5
780
330
1D
100
AcDbEntity
  8
BLACK
100
AcDbCircle
 10
272.474999
 20
-9.34
 30
0.0
 40
1.0
  0
CIRCLE
  5
781
330
1D
100
AcDbEntity
  8
BLACK
100
AcDbCircle
 10
305.274999
 20
-9.34
 30
0.0
 40
1.0
  0
CIRCLE
  5
782
330
1D
100
AcDbEntity
  8
BLACK
100
AcDbCircle
 10
301.483747
 20
-59.28988
 30
0.0
 40
1.000002
  0
LINE
  5
783
330
1D
100
AcDbEntity
  8
BLACK
  6
Continuous
100
AcDbLine
 10
277.465
 20
-54.314999
 30
0.0
 11
277.465
 21
-64.265
 31
0.0
  0
LINE
  5
784
330
1D
100
AcDbEntity
  8
BLACK
  6
Continuous
100
AcDbLine
 10
290.09
 20
-52.239999
 30
0.0
 11
279.539999
 21
-52.239999
 31
0.0
  0
LINE
  5
785
330
1D
100
AcDbEntity
  8
BLACK
  6
Continuous
100
AcDbLine
 10
290.09
 20
-66.33999899999999
 30
0.0
 11
279.54
 21
-66.33999899999999
 31
0.0
  0
LINE
  5
786
330
1D
100
AcDbEntity
  8
BLACK
  6
Continuous
100
AcDbLine
 10
292.165
 20
-54.314999
 30
0.0
 11
292.165
 21
-64.264999
 31
0.0
  0
ARC
  5
787
330
1D
100
AcDbEntity
  8
BLACK
100
AcDbCircle
 10
279.540004
 20
-54.315003
 30
0.0
 40
2.075004000003855
100
AcDbArc
 50
90.00013806
 51
179.99988955
  0
ARC
  5
788
330
1D
100
AcDbEntity
  8
BLACK
100
AcDbCircle
 10
279.540002
 20
-64.264997
 30
0.0
 40
2.075002000000964
100
AcDbArc
 50
180.00008284
 51
269.99994478
  0
ARC
  5
789
330
1D
100
AcDbEntity
  8
BLACK
100
AcDbCircle
 10
290.09
 20
-54.314999
 30
0.0
 40
2.075
100
AcDbArc
 50
0.0
 51
90.0
  0
ARC
  5
78A
330
1D
100
AcDbEntity
  8
BLACK
100
AcDbCircle
 10
290.09
 20
-64.264999
 30
0.0
 40
2.075
100
AcDbArc
 50
270.0
 51
0.0
  0
LINE
  5
78B
330
1D
100
AcDbEntity
  8
BLACK
  6
Continuous
100
AcDbLine
 10
303.65875
 20
-54.314999
 30
0.0
 11
303.65875
 21
-64.265
 31
0.0
  0
LINE
  5
78C
330
1D
100
AcDbEntity
  8
BLACK
  6
Continuous
100
AcDbLine
 10
316.28375
 20
-52.239999
 30
0.0
 11
305.733749
 21
-52.239999
 31
0.0
  0
LINE
  5
78D
330
1D
100
AcDbEntity
  8
BLACK
  6
Continuous
100
AcDbLine
 10
316.28375
 20
-66.33999899999999
 30
0.0
 11
305.73375
 21
-66.33999899999999
 31
0.0
  0
LINE
  5
78E
330
1D
100
AcDbEntity
  8
BLACK
  6
Continuous
100
AcDbLine
 10
318.35875
 20
-54.314999
 30
0.0
 11
318.35875
 21
-64.264999
 31
0.0
  0
ARC
  5
78F
330
1D
100
AcDbEntity
  8
BLACK
100
AcDbCircle
 10
305.733754
 20
-54.315003
 30
0.0
 40
2.075004000003855
100
AcDbArc
 50
90.00013806
 51
179.99988955
  0
ARC
  5
790
330
1D
100
AcDbEntity
  8
BLACK
100
AcDbCircle
 10
305.733752
 20
-64.264997
 30
0.0
 40
2.075002000000964
100
AcDbArc
 50
180.00008284
 51
269.99994478
  0
ARC
  5
791
330
1D
100
AcDbEntity
  8
BLACK
100
AcDbCircle
 10
316.28375
 20
-54.314999
 30
0.0
 40
2.075
100
AcDbArc
 50
0.0
 51
90.0
  0
ARC
  5
792
330
1D
100
AcDbEntity
  8
BLACK
100
AcDbCircle
 10
316.28375
 20
-64.264999
 30
0.0
 40
2.075
100
AcDbArc
 50
270.0
 51
0.0
  0
LINE
  5
793
330
1D
100
AcDbEntity
  8
BLACK
  6
Continuous
100
AcDbLine
 10
88.311737
 20
-86.697266
 30
0.0
 11
89.89202
 21
-79.26262
 31
0.0
  0
LINE
  5
794
330
1D
100
AcDbEntity
  8
BLACK
  6
Continuous
100
AcDbLine
 10
91.593948
 20
-78.167397
 30
0.0
 11
92.42885799999999
 21
-78.34486299999999
 31
0.0
  0
LINE
  5
795
330
1D
100
AcDbEntity
  8
BLACK
  6
Continuous
100
AcDbLine
 10
89.804583
 20
-88.471415
 30
0.0
 11
89.409313
 21
-88.38739799999999
 31
0.0
  0
LINE
  5
796
330
1D
100
AcDbEntity
  8
BLACK
  6
Continuous
100
AcDbLine
 10
92.428861
 20
-78.34485099999999
 30
0.0
 11
92.42885799999999
 21
-78.34486299999999
 31
0.0
  0
LINE
  5
797
330
1D
100
AcDbEntity
  8
BLACK
  6
Continuous
100
AcDbLine
 10
94.50591
 20
-77.50622
 30
0.0
 11
117.839817
 21
-82.46599499999999
 31
0.0
  0
LINE
  5
798
330
1D
100
AcDbEntity
  8
BLACK
  6
Continuous
100
AcDbLine
 10
94.50590799999999
 20
-77.506231
 30
0.0
 11
94.50591
 21
-77.50622
 31
0.0
  0
LINE
  5
799
330
1D
100
AcDbEntity
  8
BLACK
  6
Continuous
100
AcDbLine
 10
113.891681
 20
-95.97995399999999
 30
0.0
 11
92.61613899999999
 21
-91.457698
 31
0.0
  0
LINE
  5
79A
330
1D
100
AcDbEntity
  8
BLACK
  6
Continuous
100
AcDbLine
 10
119.396094
 20
-84.076926
 30
0.0
 11
120.242779
 21
-84.256894
 31
0.0
  0
LINE
  5
79B
330
1D
100
AcDbEntity
  8
BLACK
  6
Continuous
100
AcDbLine
 10
118.058262
 20
-94.47691999999999
 30
0.0
 11
117.674698
 21
-94.39539099999999
 31
0.0
  0
LINE
  5
79C
330
1D
100
AcDbEntity
  8
BLACK
  6
Continuous
100
AcDbLine
 10
121.340355
 20
-85.94702699999999
 30
0.0
 11
119.760052
 21
-93.38176999999999
 31
0.0
  0
ARC
  5
79D
330
1D
100
AcDbEntity
  8
BLACK
100
AcDbCircle
 10
91.285983
 20
-79.55880599999999
 30
0.0
 40
1.425082100078799
100
AcDbArc
 50
77.51974185
 51
168.00432524
  0
ARC
  5
79E
330
1D
100
AcDbEntity
  8
BLACK
100
AcDbCircle
 10
89.70559899999999
 20
-86.993539
 30
0.0
 40
1.425001159886194
100
AcDbArc
 50
168.00005955
 51
257.9995232
  0
ARC
  5
79F
330
1D
100
AcDbEntity
  8
BLACK
100
AcDbCircle
 10
89.445931
 20
-90.158625
 30
0.0
 40
1.724908357334963
100
AcDbArc
 50
8.54548698
 51
77.99920581
  0
ARC
  5
7A0
330
1D
100
AcDbEntity
  8
BLACK
100
AcDbCircle
 10
92.621929
 20
-77.43677199999999
 30
0.0
 40
0.9283762644989367
100
AcDbArc
 50
257.9969906800001
 51
325.97784425
  0
ARC
  5
7A1
330
1D
100
AcDbEntity
  8
BLACK
100
AcDbCircle
 10
94.28231699999999
 20
-78.55766
 30
0.0
 40
1.074940539983957
100
AcDbArc
 50
77.99463687
 51
145.97750227
  0
ARC
  5
7A2
330
1D
100
AcDbEntity
  8
BLACK
100
AcDbCircle
 10
93.005862
 20
-89.62365299999999
 30
0.0
 40
1.874994687660208
100
AcDbArc
 50
188.546909
 51
258.0034463
  0
ARC
  5
7A3
330
1D
100
AcDbEntity
  8
BLACK
100
AcDbCircle
 10
117.61628
 20
-83.517487
 30
0.0
 40
1.074990333181187
100
AcDbArc
 50
10.02372311
 51
77.99815049999998
  0
ARC
  5
7A4
330
1D
100
AcDbEntity
  8
BLACK
100
AcDbCircle
 10
114.281449
 20
-94.145831
 30
0.0
 40
1.875082643488548
100
AcDbArc
 50
258.00259669
 51
327.45097307
  0
ARC
  5
7A5
330
1D
100
AcDbEntity
  8
BLACK
100
AcDbCircle
 10
117.316068
 20
-96.08263799999999
 30
0.0
 40
1.724935945343478
100
AcDbArc
 50
78.00017613
 51
147.45408252
  0
ARC
  5
7A6
330
1D
100
AcDbEntity
  8
BLACK
100
AcDbCircle
 10
119.589156
 20
-83.16875999999999
 30
0.0
 40
0.9284602411519838
100
AcDbArc
 50
190.02453805
 51
257.99846936
  0
ARC
  5
7A7
330
1D
100
AcDbEntity
  8
BLACK
100
AcDbCircle
 10
119.946541
 20
-85.650701
 30
0.0
 40
1.424940316607331
100
AcDbArc
 50
347.9975738
 51
78.00097632
  0
ARC
  5
7A8
330
1D
100
AcDbEntity
  8
BLACK
100
AcDbCircle
 10
118.366077
 20
-93.085431
 30
0.0
 40
1.425125644827852
100
AcDbArc
 50
257.526325
 51
347.99840862
  0
CIRCLE
  5
7A9
330
1D
100
AcDbEntity
  8
BLACK
100
AcDbCircle
 10
87.173183
 20
-90.493054
 30
0.0
 40
1.0
  0
CIRCLE
  5
7AA
330
1D
100
AcDbEntity
  8
BLACK
100
AcDbCircle
 10
119.256424
 20
-97.312557
 30
0.0
 40
1.0
  0
LINE
  5
7AB
330
1D
100
AcDbEntity
  8
BLACK
  6
Continuous
100
AcDbLine
 10
128.864974
 20
-86.905565
 30
0.0
 11
126.796252
 21
-96.638134
 31
0.0
  0
LINE
  5
7AC
330
1D
100
AcDbEntity
  8
BLACK
  6
Continuous
100
AcDbLine
 10
141.645504
 20
-87.500794
 30
0.0
 11
131.326046
 21
-85.30732499999999
 31
0.0
  0
LINE
  5
7AD
330
1D
100
AcDbEntity
  8
BLACK
  6
Continuous
100
AcDbLine
 10
138.713949
 20
-101.292675
 30
0.0
 11
128.394492
 21
-99.099206
 31
0.0
  0
LINE
  5
7AE
330
1D
100
AcDbEntity
  8
BLACK
  6
Continuous
100
AcDbLine
 10
143.243744
 20
-89.961867
 30
0.0
 11
141.175022
 21
-99.694435
 31
0.0
  0
ARC
  5
7AF
330
1D
100
AcDbEntity
  8
BLACK
100
AcDbCircle
 10
130.894633
 20
-87.336986
 30
0.0
 40
2.075003550725155
100
AcDbArc
 50
78.00012866
 51
167.9999011
  0
ARC
  5
7B0
330
1D
100
AcDbEntity
  8
BLACK
100
AcDbCircle
 10
128.825911
 20
-97.069549
 30
0.0
 40
2.075001178604484
100
AcDbArc
 50
168.00006316
 51
257.9999436399999
  0
ARC
  5
7B1
330
1D
100
AcDbEntity
  8
BLACK
100
AcDbCircle
 10
141.214087
 20
-89.53045
 30
0.0
 40
2.074999784632519
100
AcDbArc
 50
347.99999766
 51
77.99999192
  0
ARC
  5
7B2
330
1D
100
AcDbEntity
  8
BLACK
100
AcDbCircle
 10
139.145366
 20
-99.263018
 30
0.0
 40
2.074999784632519
100
AcDbArc
 50
257.99999766
 51
347.99999192
  0
ENDSEC
  0
SECTION
  2
OBJECTS
  0
DICTIONARY
  5
C
330
0
100
AcDbDictionary
281
     1
  3
ACAD_COLOR
350
767
  3
ACAD_DETAILVIEWSTYLE
350
765
  3
ACAD_GROUP
350
D
  3
ACAD_LAYOUT
350
1A
  3
ACAD_MATERIAL
350
755
  3
ACAD_MLEADERSTYLE
350
75B
  3
ACAD_MLINESTYLE
350
17
  3
ACAD_PLOTSETTINGS
350
19
  3
ACAD_PLOTSTYLENAME
350
E
  3
ACAD_SCALELIST
350
726
  3
ACAD_SECTIONVIEWSTYLE
350
766
  3
ACAD_TABLESTYLE
350
759
  3
ACAD_VISUALSTYLE
350
73C
  3
AcDbVariableDictionary
350
75D
  3
ACDB_RECOMPOSE_DATA
350
7B9
  3
EZDXF_META
350
7B5
  0
DICTIONARY
  5
767
330
C
100
AcDbDictionary
281
     1
  0
DICTIONARY
  5
765
102
{ACAD_REACTORS
330
C
102
}
330
C
100
AcDbDictionary
281
     1
  0
DICTIONARY
  5
D
102
{ACAD_REACTORS
330
C
102
}
330
C
100
AcDbDictionary
281
     1
  0
DICTIONARY
  5
1A
102
{ACAD_REACTORS
330
C
102
}
330
C
100
AcDbDictionary
281
     1
  3
Layout1
350
1C
  3
Model
350
1E
  0
DICTIONARY
  5
755
102
{ACAD_REACTORS
330
C
102
}
330
C
100
AcDbDictionary
281
     1
  3
ByBlock
350
757
  3
ByLayer
350
756
  3
Global
350
758
  0
DICTIONARY
  5
75B
102
{ACAD_REACTORS
330
C
102
}
330
C
100
AcDbDictionary
281
     1
  3
Standard
350
75C
  0
DICTIONARY
  5
17
102
{ACAD_REACTORS
330
C
102
}
330
C
100
AcDbDictionary
281
     1
  3
Standard
350
18
  0
DICTIONARY
  5
19
102
{ACAD_REACTORS
330
C
102
}
330
C
100
AcDbDictionary
281
     1
  0
ACDBDICTIONARYWDFLT
  5
E
102
{ACAD_REACTORS
330
C
102
}
330
C
100
AcDbDictionary
281
     1
  3
Normal
350
F
100
AcDbDictionaryWithDefault
340
F
  0
DICTIONARY
  5
726
102
{ACAD_REACTORS
330
C
102
}
330
C
100
AcDbDictionary
281
     1
  3
A0
350
727
  3
A1
350
728
  3
A2
350
729
  3
A3
350
72A
  3
A4
350
72B
  3
A5
350
72C
  3
A6
350
72D
  3
A7
350
72E
  3
A8
350
72F
  3
A9
350
730
  3
B0
350
731
  3
B1
350
732
  3
B2
350
733
  3
B3
350
734
  3
B4
350
735
  3
B5
350
736
  3
B6
350
737
  0
DICTIONARY
  5
766
102
{ACAD_REACTORS
330
C
102
}
330
C
100
AcDbDictionary
281
     1
  0
DICTIONARY
  5
759
102
{ACAD_REACTORS
330
C
102
}
330
C
100
AcDbDictionary
281
     1
  3
Standard
350
75A
  0
DICTIONARY
  5
73C
102
{ACAD_REACTORS
330
C
102
}
330
C
100
AcDbDictionary
281
     1
  3
2dWireframe
350
741
  3
Basic
350
744
  3
Brighten
350
748
  3
ColorChange
350
74C
  3
Conceptual
350
746
  3
Dim
350
747
  3
EdgeColorOff
350
74F
  3
Facepattern
350
74B
  3
Flat
350
73D
  3
FlatWithEdges
350
73E
  3
Gouraud
350
73F
  3
GouraudWithEdges
350
740
  3
Hidden
350
743
  3
JitterOff
350
74D
  3
Linepattern
350
74A
  3
OverhangOff
350
74E
  3
Realistic
350
745
  3
Shaded
350
754
  3
Shaded with edges
350
753
  3
Shades of Gray
350
750
  3
Sketchy
350
751
  3
Thicken
350
749
  3
Wireframe
350
742
  3
X-Ray
350
752
  0
DICTIONARY
  5
75D
102
{ACAD_REACTORS
330
C
102
}
330
C
100
AcDbDictionary
281
     1
  3
CANNOSCALE
350
75E
  3
CMLEADERSTYLE
350
763
  3
CTABLESTYLE
350
762
  3
MSLTSCALE
350
764
  0
XRECORD
  5
7B9
102
{ACAD_REACTORS
330
C
102
}
330
C
100
AcDbXrecord
280
     1
 90
        1
330
75A
  0
DICTIONARY
  5
7B5
330
C
100
AcDbDictionary
281
     1
  3
WRITTEN_BY_EZDXF
350
7B6
  0
LAYOUT
  5
1C
102
{ACAD_REACTORS
330
1A
102
}
330
1A
100
AcDbPlotSettings
  1

  2
none_device
  4

  6

 40
0.0
 41
0.0
 42
0.0
 43
0.0
 44
0.0
 45
0.0
 46
0.0
 47
0.0
 48
0.0
 49
0.0
140
0.0
141
0.0
142
1.0
143
1.0
 70
   688
 72
     0
 73
     0
 74
     5
  7

 75
    16
 76
     0
 77
     2
 78
   300
147
1.0
148
0.0
149
0.0
100
AcDbLayout
  1
Layout1
 70
     1
 71
     1
 10
0.0
 20
0.0
 11
12.0
 21
9.0
 12
0.0
 22
0.0
 32
0.0
 14
1.000000000000000E+20
 24
1.000000000000000E+20
 34
1.000000000000000E+20
 15
-1.000000000000000E+20
 25
-1.000000000000000E+20
 35
-1.000000000000000E+20
146
0.0
 13
0.0
 23
0.0
 33
0.0
 16
1.0
 26
0.0
 36
0.0
 17
0.0
 27
1.0
 37
0.0
 76
     0
330
1B
  0
LAYOUT
  5
1E
102
{ACAD_REACTORS
330
1A
102
}
330
1A
100
AcDbPlotSettings
  1

  2
none_device
  4
Letter_(8.50_x_11.00_Inches)
  6

 40
6.35
 41
6.35
 42
6.35000508
 43
6.35000508
 44
215.9
 45
279.4
 46
0.0
 47
0.0
 48
0.0
 49
0.0
140
0.0
141
0.0
142
1.0
143
1.0
 70
  1712
 72
     0
 73
     0
 74
     0
  7

 75
     0
 76
     0
 77
     2
 78
   300
147
1.0
148
0.0
149
0.0
100
AcDbLayout
  1
Model
 70
     1
 71
     0
 10
0.0
 20
0.0
 11
12.0
 21
9.0
 12
0.0
 22
0.0
 32
0.0
 14
1.000000000000000E+20
 24
1.000000000000000E+20
 34
1.000000000000000E+20
 15
-1.000000000000000E+20
 25
-1.000000000000000E+20
 35
-1.000000000000000E+20
146
0.0
 13
0.0
 23
0.0
 33
0.0
 16
1.0
 26
0.0
 36
0.0
 17
0.0
 27
1.0
 37
0.0
 76
     0
330
1D
331
442
  0
MATERIAL
  5
757
102
{ACAD_REACTORS
330
755
102
}
330
755
100
AcDbMaterial
  1
ByBlock
 72
     1
273
     1
 94
      127
  0
MATERIAL
  5
756
102
{ACAD_REACTORS
330
755
102
}
330
755
100
AcDbMaterial
  1
ByLayer
 72
     1
273
     1
 94
      127
  0
MATERIAL
  5
758
102
{ACAD_REACTORS
330
755
102
}
330
755
100
AcDbMaterial
  1
Global
 72
     1
273
     1
 94
      127
  0
MLEADERSTYLE
  5
75C
102
{ACAD_REACTORS
330
75B
102
}
330
75B
100
AcDbMLeaderStyle
179
     2
170
     2
171
     1
172
     0
 90
        2
 40
0.0
 41
0.0
173
     1
 91
-1056964608
340
14
 92
       -2
290
     1
 42
2.0
291
     1
 43
8.0
  3
Standard
341
0
 44
4.0
300

342
11
174
     1
178
     6
175
     1
176
     0
 93
-1056964608
 45
4.0
292
     0
297
     0
 46
4.0
343
0
 94
-1056964608
 47
1.0
 49
1.0
140
1.0
293
     1
141
0.0
294
     1
177
     0
142
1.0
295
     0
296
     0
143
3.75
271
     0
272
     9
273
     9
298
     0
  0
MLINESTYLE
  5
18
102
{ACAD_REACTORS
330
17
102
}
330
17
100
AcDbMlineStyle
  2
Standard
 70
     0
  3

 62
   256
 51
90.0
 52
90.0
 71
     2
 49
0.5
 62
   256
  6
BYLAYER
 49
-0.5
 62
   256
  6
BYLAYER
  0
ACDBPLACEHOLDER
  5
F
102
{ACAD_REACTORS
330
E
102
}
330
E
  0
SCALE
  5
727
102
{ACAD_REACTORS
330
726
102
}
330
726
100
AcDbScale
 70
     0
300
1:1
140
1.0
141
1.0
290
     1
  0
SCALE
  5
728
102
{ACAD_REACTORS
330
726
102
}
330
726
100
AcDbScale
 70
     0
300
1:2
140
1.0
141
2.0
290
     0
  0
SCALE
  5
729
102
{ACAD_REACTORS
330
726
102
}
330
726
100
AcDbScale
 70
     0
300
1:4
140
1.0
141
4.0
290
     0
  0
SCALE
  5
72A
102
{ACAD_REACTORS
330
726
102
}
330
726
100
AcDbScale
 70
     0
300
1:5
140
1.0
141
5.0
290
     0
  0
SCALE
  5
72B
102
{ACAD_REACTORS
330
726
102
}
330
726
100
AcDbScale
 70
     0
300
1:8
140
1.0
141
8.0
290
     0
  0
SCALE
  5
72C
102
{ACAD_REACTORS
330
726
102
}
330
726
100
AcDbScale
 70
     0
300
1:10
140
1.0
141
10.0
290
     0
  0
SCALE
  5
72D
102
{ACAD_REACTORS
330
726
102
}
330
726
100
AcDbScale
 70
     0
300
1:16
140
1.0
141
16.0
290
     0
  0
SCALE
  5
72E
102
{ACAD_REACTORS
330
726
102
}
330
726
100
AcDbScale
 70
     0
300
1:20
140
1.0
141
20.0
290
     0
  0
SCALE
  5
72F
102
{ACAD_REACTORS
330
726
102
}
330
726
100
AcDbScale
 70
     0
300
1:30
140
1.0
141
30.0
290
     0
  0
SCALE
  5
730
102
{ACAD_REACTORS
330
726
102
}
330
726
100
AcDbScale
 70
     0
300
1:40
140
1.0
141
40.0
290
     0
  0
SCALE
  5
731
102
{ACAD_REACTORS
330
726
102
}
330
726
100
AcDbScale
 70
     0
300
1:50
140
1.0
141
50.0
290
     0
  0
SCALE
  5
732
102
{ACAD_REACTORS
330
726
102
}
330
726
100
AcDbScale
 70
     0
300
1:100
140
1.0
141
100.0
290
     0
  0
SCALE
  5
733
102
{ACAD_REACTORS
330
726
102
}
330
726
100
AcDbScale
 70
     0
300
2:1
140
2.0
141
1.0
290
     0
  0
SCALE
  5
734
102
{ACAD_REACTORS
330
726
102
}
330
726
100
AcDbScale
 70
     0
300
4:1
140
4.0
141
1.0
290
     0
  0
SCALE
  5
735
102
{ACAD_REACTORS
330
726
102
}
330
726
100
AcDbScale
 70
     0
300
8:1
140
8.0
141
1.0
290
     0
  0
SCALE
  5
736
102
{ACAD_REACTORS
330
726
102
}
330
726
100
AcDbScale
 70
     0
300
10:1
140
10.0
141
1.0
290
     0
  0
SCALE
  5
737
102
{ACAD_REACTORS
330
726
102
}
330
726
100
AcDbScale
 70
     0
300
100:1
140
100.0
141
1.0
290
     0
  0
TABLESTYLE
  5
75A
102
{ACAD_REACTORS
330
759
102
}
102
{ACAD_XDICTIONARY
360
7B7
102
}
330
759
100
AcDbTableStyle
  3
Standard
 70
     0
 71
     0
 40
0.06
 41
0.06
280
     0
281
     0
  7
Standard
140
4.5
170
     2
 62
     0
 63
   257
283
     0
 90
        4
 91
        0
  1

274
    -2
284
     1
 64
     0
275
    -2
285
     1
 65
     0
276
    -2
286
     1
 66
     0
277
    -2
287
     1
 67
     0
278
    -2
288
     1
 68
     0
279
    -2
289
     1
 69
     0
  7
Standard
140
6.0
170
     5
 62
     0
 63
   257
283
     0
 90
        4
 91
        0
  1

274
    -2
284
     1
 64
     0
275
    -2
285
     1
 65
     0
276
    -2
286
     1
 66
     0
277
    -2
287
     1
 67
     0
278
    -2
288
     1
 68
     0
279
    -2
289
     1
 69
     0
  7
Standard
140
4.5
170
     5
 62
     0
 63
   257
283
     0
 90
        4
 91
        0
  1

274
    -2
284
     1
 64
     0
275
    -2
285
     1
 65
     0
276
    -2
286
     1
 66
     0
277
    -2
287
     1
 67
     0
278
    -2
288
     1
 68
     0
279
    -2
289
     1
 69
     0
  0
VISUALSTYLE
  5
741
102
{ACAD_REACTORS
330
73C
102
}
330
73C
100
AcDbVisualStyle
  2
2dWireframe
 70
     4
177
     3
291
     0
 70
    58
 90
        0
176
     1
 90
        2
176
     1
 90
        0
176
     1
 90
        0
176
     1
 40
0.6
176
     1
 40
30.0
176
     1
 62
     7
420
 16777215
176
     1
 90
        1
176
     1
 90
        4
176
     1
 62
     7
176
     1
 62
   257
176
     1
 90
        1
176
     1
 90
        1
176
     1
 40
1.0
176
     1
 90
        0
176
     1
 62
   257
176
     1
 40
1.0
176
     1
 90
        1
176
     1
 90
        6
176
     1
 90
        2
176
     1
 62
     7
176
     1
 90
        5
176
     1
 90
        0
176
     1
 90
        0
176
     1
290
     0
176
     1
 90
        1
176
     1
 40
0.0
176
     1
 90
        0
176
     1
290
     1
176
     1
290
     1
176
     1
290
     0
176
     1
290
     0
176
     1
290
     0
176
     1
290
     0
176
     1
290
     0
176
     1
290
     0
176
     1
290
     0
176
     1
 90
       50
176
     1
 40
0.0
176
     1
 40
1.0
176
     1
 90
        0
176
     1
 62
    18
420
        0
176
     1
 90
       50
176
     1
 90
        3
176
     1
 62
     5
420
      255
176
     1
290
     0
176
     1
 90
       50
176
     1
 90
       50
176
     1
 90
       50
176
     1
290
     0
176
     1
 90
       50
176
     1
 62
   256
176
     0
 40
1.0
176
     0
 90
        2
176
     1
  1
strokes_ogs.tif
176
     1
290
     0
176
     1
 40
1.0
176
     1
 40
1.0
176
     1
  0
VISUALSTYLE
  5
744
102
{ACAD_REACTORS
330
73C
102
}
330
73C
100
AcDbVisualStyle
  2
Basic
 70
     7
177
     3
291
     1
 70
    58
 90
        1
176
     1
 90
        0
176
     1
 90
        1
176
     1
 90
        0
176
     1
 40
0.6
176
     1
 40
30.0
176
     1
 62
     7
420
 16777215
176
     1
 90
        0
176
     1
 90
        4
176
     1
 62
     7
176
     1
 62
   257
176
     1
 90
        1
176
     1
 90
        1
176
     1
 40
1.0
176
     1
 90
        8
176
     1
 62
     7
176
     1
 40
1.0
176
     1
 90
        1
176
     1
 90
        6
176
     1
 90
        2
176
     1
 62
     7
176
     1
 90
        5
176
     1
 90
        0
176
     1
 90
        0
176
     1
290
     0
176
     1
 90
        1
176
     1
 40
0.0
176
     1
 90
        0
176
     1
290
     0
176
     1
290
     1
176
     1
290
     1
176
     1
290
     0
176
     1
290
     0
176
     1
290
     0
176
     1
290
     0
176
     1
290
     0
176
     1
290
     0
176
     1
 90
       50
176
     1
 40
0.0
176
     1
 40
1.0
176
     1
 90
        0
176
     1
 62
    18
420
        0
176
     1
 90
       50
176
     1
 90
        3
176
     1
 62
     5
420
      255
176
     1
290
     0
176
     1
 90
       50
176
     1
 90
       50
176
     1
 90
       50
176
     1
290
     0
176
     1
 90
       50
176
     1
 62
   256
176
     0
 40
1.0
176
     0
 90
        2
176
     1
  1
strokes_ogs.tif
176
     1
290
     0
176
     1
 40
1.0
176
     1
 40
1.0
176
     1
  0
VISUALSTYLE
  5
748
102
{ACAD_REACTORS
330
73C
102
}
330
73C
100
AcDbVisualStyle
  2
Brighten
 70
    12
177
     3
291
     1
 70
    58
 90
        2
176
     1
 90
        2
176
     1
 90
        0
176
     1
 90
        0
176
     1
 40
0.6
176
     1
 40
30.0
176
     1
 62
     7
420
 16777215
176
     1
 90
        1
176
     1
 90
        4
176
     1
 62
     7
176
     1
 62
   257
176
     1
 90
        1
176
     1
 90
        1
176
     1
 40
1.0
176
     1
 90
        8
176
     1
 62
     7
176
     1
 40
1.0
176
     1
 90
        1
176
     1
 90
        6
176
     1
 90
        2
176
     1
 62
     7
176
     1
 90
        5
176
     1
 90
        0
176
     1
 90
        0
176
     1
290
     0
176
     1
 90
        1
176
     1
 40
50.0
176
     1
 90
        0
176
     1
290
     0
176
     1
290
     1
176
     1
290
     1
176
     1
290
     0
176
     1
290
     0
176
     1
290
     0
176
     1
290
     0
176
     1
290
     0
176
     1
290
     0
176
     1
 90
       50
176
     1
 40
0.0
176
     1
 40
1.0
176
     1
 90
        0
176
     1
 62
    18
420
        0
176
     1
 90
       50
176
     1
 90
        3
176
     1
 62
     5
420
      255
176
     1
290
     0
176
     1
 90
       50
176
     1
 90
       50
176
     1
 90
       50
176
     1
290
     0
176
     1
 90
       50
176
     1
 62
   256
176
     0
 40
1.0
176
     0
 90
        2
176
     1
  1
strokes_ogs.tif
176
     1
290
     0
176
     1
 40
1.0
176
     1
 40
1.0
176
     1
  0
VISUALSTYLE
  5
74C
102
{ACAD_REACTORS
330
73C
102
}
330
73C
100
AcDbVisualStyle
  2
ColorChange
 70
    16
177
     3
291
     1
 70
    58
 90
        2
176
     1
 90
        2
176
     1
 90
        3
176
     1
 90
        0
176
     1
 40
0.6
176
     1
 40
30.0
176
     1
 62
     8
420
  8421504
176
     1
 90
        1
176
     1
 90
        4
176
     1
 62
     7
176
     1
 62
   257
176
     1
 90
        1
176
     1
 90
        1
176
     1
 40
1.0
176
     1
 90
        8
176
     1
 62
     8
420
  8421504
176
     1
 40
1.0
176
     1
 90
        1
176
     1
 90
        6
176
     1
 90
        2
176
     1
 62
     7
176
     1
 90
        5
176
     1
 90
        0
176
     1
 90
        0
176
     1
290
     0
176
     1
 90
        1
176
     1
 40
0.0
176
     1
 90
        0
176
     1
290
     0
176
     1
290
     1
176
     1
290
     1
176
     1
290
     0
176
     1
290
     0
176
     1
290
     0
176
     1
290
     0
176
     1
290
     0
176
     1
290
     0
176
     1
 90
       50
176
     1
 40
0.0
176
     1
 40
1.0
176
     1
 90
        0
176
     1
 62
    18
420
        0
176
     1
 90
       50
176
     1
 90
        3
176
     1
 62
     5
420
      255
176
     1
290
     0
176
     1
 90
       50
176
     1
 90
       50
176
     1
 90
       50
176
     1
290
     0
176
     1
 90
       50
176
     1
 62
   256
176
     0
 40
1.0
176
     0
 90
        2
176
     1
  1
strokes_ogs.tif
176
     1
290
     0
176
     1
 40
1.0
176
     1
 40
1.0
176
     1
  0
VISUALSTYLE
  5
746
102
{ACAD_REACTORS
330
73C
102
}
330
73C
100
AcDbVisualStyle
  2
Conceptual
 70
     9
177
     3
291
     0
 70
    58
 90
        3
176
     1
 90
        2
176
     1
 90
        0
176
     1
 90
        0
176
     1
 40
0.6
176
     1
 40
30.0
176
     1
 62
     7
420
 16777215
176
     1
 90
        2
176
     1
 90
        2
176
     1
 62
     7
176
     1
 62
   257
176
     1
 90
        1
176
     1
 90
        1
176
     1
 40
179.0
176
     1
 90
        8
176
     1
 62
     7
176
     1
 40
1.0
176
     1
 90
        1
176
     1
 90
        6
176
     1
 90
        2
176
     1
 62
     7
176
     1
 90
        3
176
     1
 90
        0
176
     1
 90
        0
176
     1
290
     0
176
     1
 90
        1
176
     1
 40
0.0
176
     1
 90
        0
176
     1
290
     0
176
     1
290
     1
176
     1
290
     1
176
     1
290
     0
176
     1
290
     0
176
     1
290
     0
176
     1
290
     0
176
     1
290
     0
176
     1
290
     0
176
     1
 90
       50
176
     1
 40
0.0
176
     1
 40
1.0
176
     1
 90
        0
176
     1
 62
    18
420
        0
176
     1
 90
       50
176
     1
 90
        3
176
     1
 62
     5
420
      255
176
     1
290
     0
176
     1
 90
       50
176
     1
 90
       50
176
     1
 90
       50
176
     1
290
     0
176
     1
 90
       50
176
     1
 62
   256
176
     0
 40
1.0
176
     0
 90
        2
176
     1
  1
strokes_ogs.tif
176
     1
290
     0
176
     1
 40
1.0
176
     1
 40
1.0
176
     1
  0
VISUALSTYLE
  5
747
102
{ACAD_REACTORS
330
73C
102
}
330
73C
100
AcDbVisualStyle
  2
Dim
 70
    11
177
     3
291
     1
 70
    58
 90
        2
176
     1
 90
        2
176
     1
 90
        0
176
     1
 90
        0
176
     1
 40
0.6
176
     1
 40
30.0
176
     1
 62
     7
420
 16777215
176
     1
 90
        1
176
     1
 90
        4
176
     1
 62
     7
176
     1
 62
   257
176
     1
 90
        1
176
     1
 90
        1
176
     1
 40
1.0
176
     1
 90
        8
176
     1
 62
     7
176
     1
 40
1.0
176
     1
 90
        1
176
     1
 90
        6
176
     1
 90
        2
176
     1
 62
     7
176
     1
 90
        5
176
     1
 90
        0
176
     1
 90
        0
176
     1
290
     0
176
     1
 90
        1
176
     1
 40
-50.0
176
     1
 90
        0
176
     1
290
     0
176
     1
290
     1
176
     1
290
     1
176
     1
290
     0
176
     1
290
     0
176
     1
290
     0
176
     1
290
     0
176
     1
290
     0
176
     1
290
     0
176
     1
 90
       50
176
     1
 40
0.0
176
     1
 40
1.0
176
     1
 90
        0
176
     1
 62
    18
420
        0
176
     1
 90
       50
176
     1
 90
        3
176
     1
 62
     5
420
      255
176
     1
290
     0
176
     1
 90
       50
176
     1
 90
       50
176
     1
 90
       50
176
     1
290
     0
176
     1
 90
       50
176
     1
 62
   256
176
     0
 40
1.0
176
     0
 90
        2
176
     1
  1
strokes_ogs.tif
176
     1
290
     0
176
     1
 40
1.0
176
     1
 40
1.0
176
     1
  0
VISUALSTYLE
  5
74F
102
{ACAD_REACTORS
330
73C
102
}
330
73C
100
AcDbVisualStyle
  2
EdgeColorOff
 70
    22
177
     3
291
     1
 70
    58
 90
        2
176
     0
 90
        2
176
     0
 90
        0
176
     0
 90
        0
176
     0
 40
0.6
176
     0
 40
30.0
176
     0
 62
     7
420
 16777215
176
     0
 90
        1
176
     0
 90
        4
176
     0
 62
     7
176
     0
 62
   257
176
     0
 90
        1
176
     0
 90
        1
176
     0
 40
1.0
176
     0
 90
        8
176
     2
 62
     7
176
     0
 40
1.0
176
     0
 90
        1
176
     0
 90
        6
176
     0
 90
        2
176
     0
 62
     7
176
     0
 90
        5
176
     0
 90
        0
176
     0
 90
        0
176
     0
290
     0
176
     0
 90
        1
176
     0
 40
0.0
176
     0
 90
        0
176
     0
290
     0
176
     0
290
     1
176
     0
290
     1
176
     0
290
     0
176
     0
290
     0
176
     0
290
     0
176
     0
290
     0
176
     0
290
     0
176
     0
290
     0
176
     0
 90
       50
176
     0
 40
0.0
176
     0
 40
1.0
176
     0
 90
        0
176
     0
 62
    18
420
        0
176
     0
 90
       50
176
     0
 90
        3
176
     0
 62
     5
420
      255
176
     0
290
     0
176
     0
 90
       50
176
     0
 90
       50
176
     0
 90
       50
176
     0
290
     0
176
     0
 90
       50
176
     0
 62
   256
176
     0
 40
1.0
176
     0
 90
        2
176
     0
  1
strokes_ogs.tif
176
     0
290
     0
176
     0
 40
1.0
176
     0
 40
1.0
176
     0
  0
VISUALSTYLE
  5
74B
102
{ACAD_REACTORS
330
73C
102
}
330
73C
100
AcDbVisualStyle
  2
Facepattern
 70
    15
177
     3
291
     1
 70
    58
 90
        2
176
     1
 90
        2
176
     1
 90
        0
176
     1
 90
        0
176
     1
 40
0.6
176
     1
 40
30.0
176
     1
 62
     7
420
 16777215
176
     1
 90
        1
176
     1
 90
        4
176
     1
 62
     7
176
     1
 62
   257
176
     1
 90
        1
176
     1
 90
        1
176
     1
 40
1.0
176
     1
 90
        8
176
     1
 62
     7
176
     1
 40
1.0
176
     1
 90
        1
176
     1
 90
        6
176
     1
 90
        2
176
     1
 62
     7
176
     1
 90
        5
176
     1
 90
        0
176
     1
 90
        0
176
     1
290
     0
176
     1
 90
        1
176
     1
 40
0.0
176
     1
 90
        0
176
     1
290
     0
176
     1
290
     1
176
     1
290
     1
176
     1
290
     0
176
     1
290
     0
176
     1
290
     0
176
     1
290
     0
176
     1
290
     0
176
     1
290
     0
176
     1
 90
       50
176
     1
 40
0.0
176
     1
 40
1.0
176
     1
 90
        0
176
     1
 62
    18
420
        0
176
     1
 90
       50
176
     1
 90
        3
176
     1
 62
     5
420
      255
176
     1
290
     0
176
     1
 90
       50
176
     1
 90
       50
176
     1
 90
       50
176
     1
290
     0
176
     1
 90
       50
176
     1
 62
   256
176
     0
 40
1.0
176
     0
 90
        2
176
     1
  1
strokes_ogs.tif
176
     1
290
     0
176
     1
 40
1.0
176
     1
 40
1.0
176
     1
  0
VISUALSTYLE
  5
73D
102
{ACAD_REACTORS
330
73C
102
}
330
73C
100
AcDbVisualStyle
  2
Flat
 70
     0
177
     3
291
     1
 70
    58
 90
        2
176
     1
 90
        1
176
     1
 90
        1
176
     1
 90
        2
176
     1
 40
0.6
176
     1
 40
30.0
176
     1
 62
     7
420
 16777215
176
     1
 90
        0
176
     1
 90
        0
176
     1
 62
     7
176
     1
 62
   257
176
     1
 90
        1
176
     1
 90
        1
176
     1
 40
1.0
176
     1
 90
        8
176
     1
 62
     7
176
     1
 40
1.0
176
     1
 90
        1
176
     1
 90
        6
176
     1
 90
        2
176
     1
 62
     7
176
     1
 90
        5
176
     1
 90
        0
176
     1
 90
        0
176
     1
290
     0
176
     1
 90
       13
176
     1
 40
0.0
176
     1
 90
        0
176
     1
290
     0
176
     1
290
     1
176
     1
290
     1
176
     1
290
     0
176
     1
290
     0
176
     1
290
     0
176
     1
290
     0
176
     1
290
     0
176
     1
290
     0
176
     1
 90
       50
176
     1
 40
0.0
176
     1
 40
1.0
176
     1
 90
        0
176
     1
 62
    18
420
        0
176
     1
 90
       50
176
     1
 90
        3
176
     1
 62
     5
420
      255
176
     1
290
     0
176
     1
 90
       50
176
     1
 90
       50
176
     1
 90
       50
176
     1
290
     0
176
     1
 90
       50
176
     1
 62
   256
176
     0
 40
1.0
176
     0
 90
        2
176
     1
  1
strokes_ogs.tif
176
     1
290
     0
176
     1
 40
1.0
176
     1
 40
1.0
176
     1
  0
VISUALSTYLE
  5
73E
102
{ACAD_REACTORS
330
73C
102
}
330
73C
100
AcDbVisualStyle
  2
FlatWithEdges
 70
     1
177
     3
291
     1
 70
    58
 90
        2
176
     1
 90
        1
176
     1
 90
        1
176
     1
 90
        2
176
     1
 40
0.6
176
     1
 40
30.0
176
     1
 62
     7
420
 16777215
176
     1
 90
        1
176
     1
 90
        0
176
     1
 62
     7
176
     1
 62
   257
176
     1
 90
        1
176
     1
 90
        1
176
     1
 40
1.0
176
     1
 90
        0
176
     1
 62
   257
176
     1
 40
1.0
176
     1
 90
        1
176
     1
 90
        6
176
     1
 90
        2
176
     1
 62
     7
176
     1
 90
        5
176
     1
 90
        0
176
     1
 90
        0
176
     1
290
     0
176
     1
 90
       13
176
     1
 40
0.0
176
     1
 90
        0
176
     1
290
     0
176
     1
290
     1
176
     1
290
     1
176
     1
290
     0
176
     1
290
     0
176
     1
290
     0
176
     1
290
     0
176
     1
290
     0
176
     1
290
     0
176
     1
 90
       50
176
     1
 40
0.0
176
     1
 40
1.0
176
     1
 90
        0
176
     1
 62
    18
420
        0
176
     1
 90
       50
176
     1
 90
        3
176
     1
 62
     5
420
      255
176
     1
290
     0
176
     1
 90
       50
176
     1
 90
       50
176
     1
 90
       50
176
     1
290
     0
176
     1
 90
       50
176
     1
 62
   256
176
     0
 40
1.0
176
     0
 90
        2
176
     1
  1
strokes_ogs.tif
176
     1
290
     0
176
     1
 40
1.0
176
     1
 40
1.0
176
     1
  0
VISUALSTYLE
  5
73F
102
{ACAD_REACTORS
330
73C
102
}
330
73C
100
AcDbVisualStyle
  2
Gouraud
 70
     2
177
     3
291
     1
 70
    58
 90
        2
176
     1
 90
        2
176
     1
 90
        1
176
     1
 90
        2
176
     1
 40
0.6
176
     1
 40
30.0
176
     1
 62
     7
420
 16777215
176
     1
 90
        0
176
     1
 90
        0
176
     1
 62
     7
176
     1
 62
   257
176
     1
 90
        1
176
     1
 90
        1
176
     1
 40
1.0
176
     1
 90
        0
176
     1
 62
     7
176
     1
 40
1.0
176
     1
 90
        1
176
     1
 90
        6
176
     1
 90
        2
176
     1
 62
     7
176
     1
 90
        5
176
     1
 90
        0
176
     1
 90
        0
176
     1
290
     0
176
     1
 90
       13
176
     1
 40
0.0
176
     1
 90
        0
176
     1
290
     0
176
     1
290
     1
176
     1
290
     1
176
     1
290
     0
176
     1
290
     0
176
     1
290
     0
176
     1
290
     0
176
     1
290
     0
176
     1
290
     0
176
     1
 90
       50
176
     1
 40
0.0
176
     1
 40
1.0
176
     1
 90
        0
176
     1
 62
    18
420
        0
176
     1
 90
       50
176
     1
 90
        3
176
     1
 62
     5
420
      255
176
     1
290
     0
176
     1
 90
       50
176
     1
 90
       50
176
     1
 90
       50
176
     1
290
     0
176
     1
 90
       50
176
     1
 62
   256
176
     0
 40
1.0
176
     0
 90
        2
176
     1
  1
strokes_ogs.tif
176
     1
290
     0
176
     1
 40
1.0
176
     1
 40
1.0
176
     1
  0
VISUALSTYLE
  5
740
102
{ACAD_REACTORS
330
73C
102
}
330
73C
100
AcDbVisualStyle
  2
GouraudWithEdges
 70
     3
177
     3
291
     1
 70
    58
 90
        2
176
     1
 90
        2
176
     1
 90
        1
176
     1
 90
        2
176
     1
 40
0.6
176
     1
 40
30.0
176
     1
 62
     7
420
 16777215
176
     1
 90
        1
176
     1
 90
        0
176
     1
 62
     7
176
     1
 62
   257
176
     1
 90
        1
176
     1
 90
        1
176
     1
 40
1.0
176
     1
 90
        0
176
     1
 62
   257
176
     1
 40
1.0
176
     1
 90
        1
176
     1
 90
        6
176
     1
 90
        2
176
     1
 62
     7
176
     1
 90
        5
176
     1
 90
        0
176
     1
 90
        0
176
     1
290
     0
176
     1
 90
       13
176
     1
 40
0.0
176
     1
 90
        0
176
     1
290
     0
176
     1
290
     1
176
     1
290
     1
176
     1
290
     0
176
     1
290
     0
176
     1
290
     0
176
     1
290
     0
176
     1
290
     0
176
     1
290
     0
176
     1
 90
       50
176
     1
 40
0.0
176
     1
 40
1.0
176
     1
 90
        0
176
     1
 62
    18
420
        0
176
     1
 90
       50
176
     1
 90
        3
176
     1
 62
     5
420
      255
176
     1
290
     0
176
     1
 90
       50
176
     1
 90
       50
176
     1
 90
       50
176
     1
290
     0
176
     1
 90
       50
176
     1
 62
   256
176
     0
 40
1.0
176
     0
 90
        2
176
     1
  1
strokes_ogs.tif
176
     1
290
     0
176
     1
 40
1.0
176
     1
 40
1.0
176
     1
  0
VISUALSTYLE
  5
743
102
{ACAD_REACTORS
330
73C
102
}
330
73C
100
AcDbVisualStyle
  2
Hidden
 70
     6
177
     3
291
     0
 70
    58
 90
        1
176
     1
 90
        2
176
     1
 90
        2
176
     1
 90
        0
176
     1
 40
0.6
176
     1
 40
30.0
176
     1
 62
     7
420
 16777215
176
     1
 90
        2
176
     1
 90
        2
176
     1
 62
     7
176
     1
 62
   257
176
     1
 90
        2
176
     1
 90
        1
176
     1
 40
40.0
176
     1
 90
        0
176
     1
 62
   257
176
     1
 40
1.0
176
     1
 90
        1
176
     1
 90
        6
176
     1
 90
        2
176
     1
 62
     7
176
     1
 90
        3
176
     1
 90
        0
176
     1
 90
        0
176
     1
290
     0
176
     1
 90
        1
176
     1
 40
0.0
176
     1
 90
        0
176
     1
290
     0
176
     1
290
     1
176
     1
290
     1
176
     1
290
     0
176
     1
290
     0
176
     1
290
     0
176
     1
290
     0
176
     1
290
     0
176
     1
290
     0
176
     1
 90
       50
176
     1
 40
0.0
176
     1
 40
1.0
176
     1
 90
        0
176
     1
 62
    18
420
        0
176
     1
 90
       50
176
     1
 90
        3
176
     1
 62
     5
420
      255
176
     1
290
     0
176
     1
 90
       50
176
     1
 90
       50
176
     1
 90
       50
176
     1
290
     0
176
     1
 90
       50
176
     1
 62
   256
176
     0
 40
1.0
176
     0
 90
        2
176
     1
  1
strokes_ogs.tif
176
     1
290
     0
176
     1
 40
1.0
176
     1
 40
1.0
176
     1
  0
VISUALSTYLE
  5
74D
102
{ACAD_REACTORS
330
73C
102
}
330
73C
100
AcDbVisualStyle
  2
JitterOff
 70
    20
177
     3
291
     1
 70
    58
 90
        2
176
     0
 90
        2
176
     0
 90
        0
176
     0
 90
        0
176
     0
 40
0.6
176
     0
 40
30.0
176
     0
 62
     7
420
 16777215
176
     0
 90
        1
176
     0
 90
        4
176
     0
 62
     7
176
     0
 62
   257
176
     0
 90
        1
176
     0
 90
        1
176
     0
 40
1.0
176
     0
 90
       10
176
     2
 62
     7
176
     0
 40
1.0
176
     0
 90
        1
176
     0
 90
        6
176
     0
 90
        2
176
     0
 62
     7
176
     0
 90
        5
176
     0
 90
        0
176
     0
 90
        0
176
     0
290
     0
176
     0
 90
        1
176
     0
 40
0.0
176
     0
 90
        0
176
     0
290
     0
176
     0
290
     1
176
     0
290
     1
176
     0
290
     0
176
     0
290
     0
176
     0
290
     0
176
     0
290
     0
176
     0
290
     0
176
     0
290
     0
176
     0
 90
       50
176
     0
 40
0.0
176
     0
 40
1.0
176
     0
 90
        0
176
     0
 62
    18
420
        0
176
     0
 90
       50
176
     0
 90
        3
176
     0
 62
     5
420
      255
176
     0
290
     0
176
     0
 90
       50
176
     0
 90
       50
176
     0
 90
       50
176
     0
290
     0
176
     0
 90
       50
176
     0
 62
   256
176
     0
 40
1.0
176
     0
 90
        2
176
     0
  1
strokes_ogs.tif
176
     0
290
     0
176
     0
 40
1.0
176
     0
 40
1.0
176
     0
  0
VISUALSTYLE
  5
74A
102
{ACAD_REACTORS
330
73C
102
}
330
73C
100
AcDbVisualStyle
  2
Linepattern
 70
    14
177
     3
291
     1
 70
    58
 90
        2
176
     1
 90
        2
176
     1
 90
        0
176
     1
 90
        0
176
     1
 40
0.6
176
     1
 40
30.0
176
     1
 62
     7
420
 16777215
176
     1
 90
        1
176
     1
 90
        4
176
     1
 62
     7
176
     1
 62
   257
176
     1
 90
        7
176
     1
 90
        7
176
     1
 40
1.0
176
     1
 90
        8
176
     1
 62
     7
176
     1
 40
1.0
176
     1
 90
        1
176
     1
 90
        6
176
     1
 90
        2
176
     1
 62
     7
176
     1
 90
        5
176
     1
 90
        0
176
     1
 90
        0
176
     1
290
     0
176
     1
 90
        1
176
     1
 40
0.0
176
     1
 90
        0
176
     1
290
     0
176
     1
290
     1
176
     1
290
     1
176
     1
290
     0
176
     1
290
     0
176
     1
290
     0
176
     1
290
     0
176
     1
290
     0
176
     1
290
     0
176
     1
 90
       50
176
     1
 40
0.0
176
     1
 40
1.0
176
     1
 90
        0
176
     1
 62
    18
420
        0
176
     1
 90
       50
176
     1
 90
        3
176
     1
 62
     5
420
      255
176
     1
290
     0
176
     1
 90
       50
176
     1
 90
       50
176
     1
 90
       50
176
     1
290
     0
176
     1
 90
       50
176
     1
 62
   256
176
     0
 40
1.0
176
     0
 90
        2
176
     1
  1
strokes_ogs.tif
176
     1
290
     0
176
     1
 40
1.0
176
     1
 40
1.0
176
     1
  0
VISUALSTYLE
  5
74E
102
{ACAD_REACTORS
330
73C
102
}
330
73C
100
AcDbVisualStyle
  2
OverhangOff
 70
    21
177
     3
291
     1
 70
    58
 90
        2
176
     0
 90
        2
176
     0
 90
        0
176
     0
 90
        0
176
     0
 40
0.6
176
     0
 40
30.0
176
     0
 62
     7
420
 16777215
176
     0
 90
        1
176
     0
 90
        4
176
     0
 62
     7
176
     0
 62
   257
176
     0
 90
        1
176
     0
 90
        1
176
     0
 40
1.0
176
     0
 90
        9
176
     2
 62
     7
176
     0
 40
1.0
176
     0
 90
        1
176
     0
 90
        6
176
     0
 90
        2
176
     0
 62
     7
176
     0
 90
        5
176
     0
 90
        0
176
     0
 90
        0
176
     0
290
     0
176
     0
 90
        1
176
     0
 40
0.0
176
     0
 90
        0
176
     0
290
     0
176
     0
290
     1
176
     0
290
     1
176
     0
290
     0
176
     0
290
     0
176
     0
290
     0
176
     0
290
     0
176
     0
290
     0
176
     0
290
     0
176
     0
 90
       50
176
     0
 40
0.0
176
     0
 40
1.0
176
     0
 90
        0
176
     0
 62
    18
420
        0
176
     0
 90
       50
176
     0
 90
        3
176
     0
 62
     5
420
      255
176
     0
290
     0
176
     0
 90
       50
176
     0
 90
       50
176
     0
 90
       50
176
     0
290
     0
176
     0
 90
       50
176
     0
 62
   256
176
     0
 40
1.0
176
     0
 90
        2
176
     0
  1
strokes_ogs.tif
176
     0
290
     0
176
     0
 40
1.0
176
     0
 40
1.0
176
     0
  0
VISUALSTYLE
  5
745
102
{ACAD_REACTORS
330
73C
102
}
330
73C
100
AcDbVisualStyle
  2
Realistic
 70
     8
177
     3
291
     0
 70
    58
 90
        2
176
     1
 90
        3
176
     1
 90
        0
176
     1
 90
        2
176
     1
 40
0.6
176
     1
 40
30.0
176
     1
 62
     7
420
 16777215
176
     1
 90
        0
176
     1
 90
        0
176
     1
 62
     7
176
     1
 62
   257
176
     1
 90
        1
176
     1
 90
        1
176
     1
 40
1.0
176
     1
 90
        8
176
     1
 62
   257
176
     1
 40
1.0
176
     1
 90
        1
176
     1
 90
        6
176
     1
 90
        2
176
     1
 62
     7
176
     1
 90
        3
176
     1
 90
        0
176
     1
 90
        0
176
     1
290
     0
176
     1
 90
       13
176
     1
 40
0.0
176
     1
 90
        0
176
     1
290
     0
176
     1
290
     1
176
     1
290
     1
176
     1
290
     0
176
     1
290
     0
176
     1
290
     0
176
     1
290
     0
176
     1
290
     0
176
     1
290
     0
176
     1
 90
       50
176
     1
 40
0.0
176
     1
 40
1.0
176
     1
 90
        0
176
     1
 62
    18
420
        0
176
     1
 90
       50
176
     1
 90
        3
176
     1
 62
     5
420
      255
176
     1
290
     0
176
     1
 90
       50
176
     1
 90
       50
176
     1
 90
       50
176
     1
290
     0
176
     1
 90
       50
176
     1
 62
   256
176
     0
 40
1.0
176
     0
 90
        2
176
     1
  1
strokes_ogs.tif
176
     1
290
     0
176
     1
 40
1.0
176
     1
 40
1.0
176
     1
  0
VISUALSTYLE
  5
754
102
{ACAD_REACTORS
330
73C
102
}
330
73C
100
AcDbVisualStyle
  2
Shaded
 70
    27
177
     3
291
     0
 70
    58
 90
        2
176
     1
 90
        2
176
     1
 90
        1
176
     1
 90
        2
176
     1
 40
0.6
176
     1
 40
30.0
176
     1
 62
     7
420
 16777215
176
     1
 90
        0
176
     1
 90
        4
176
     1
 62
     7
176
     1
 62
   257
176
     1
 90
        1
176
     1
 90
        1
176
     1
 40
1.0
176
     1
 90
        8
176
     1
 62
   257
176
     1
 40
1.0
176
     1
 90
        1
176
     1
 90
        6
176
     1
 90
        2
176
     1
 62
     8
420
  7895160
176
     1
 90
        3
176
     1
 90
        0
176
     1
 90
        0
176
     1
290
     0
176
     1
 90
        5
176
     1
 40
0.0
176
     1
 90
        0
176
     1
290
     0
176
     1
290
     1
176
     1
290
     1
176
     1
290
     0
176
     1
290
     0
176
     1
290
     0
176
     1
290
     0
176
     1
290
     0
176
     1
290
     0
176
     1
 90
       50
176
     1
 40
0.0
176
     1
 40
1.0
176
     1
 90
        0
176
     1
 62
    18
420
        0
176
     1
 90
       50
176
     1
 90
        3
176
     1
 62
     5
420
      255
176
     1
290
     0
176
     1
 90
       50
176
     1
 90
       50
176
     1
 90
       50
176
     1
290
     0
176
     1
 90
       50
176
     1
 62
   256
176
     0
 40
1.0
176
     0
 90
        2
176
     1
  1
strokes_ogs.tif
176
     1
290
     0
176
     1
 40
1.0
176
     1
 40
1.0
176
     1
  0
VISUALSTYLE
  5
753
102
{ACAD_REACTORS
330
73C
102
}
330
73C
100
AcDbVisualStyle
  2
Shaded with edges
 70
    26
177
     3
291
     0
 70
    58
 90
        2
176
     1
 90
        2
176
     1
 90
        1
176
     1
 90
        2
176
     1
 40
0.6
176
     1
 40
30.0
176
     1
 62
     7
420
 16777215
176
     1
 90
        1
176
     1
 90
       10
176
     1
 62
     7
176
     1
 62
   257
176
     1
 90
        2
176
     1
 90
        1
176
     1
 40
1.0
176
     1
 90
        8
176
     1
 62
   257
176
     1
 40
1.0
176
     1
 90
        1
176
     1
 90
        6
176
     1
 90
        2
176
     1
 62
     7
176
     1
 90
        3
176
     1
 90
        0
176
     1
 90
        0
176
     1
290
     0
176
     1
 90
        5
176
     1
 40
0.0
176
     1
 90
        0
176
     1
290
     0
176
     1
290
     1
176
     1
290
     1
176
     1
290
     0
176
     1
290
     0
176
     1
290
     0
176
     1
290
     0
176
     1
290
     0
176
     1
290
     0
176
     1
 90
       50
176
     1
 40
0.0
176
     1
 40
1.0
176
     1
 90
        0
176
     1
 62
    18
420
        0
176
     1
 90
       50
176
     1
 90
        3
176
     1
 62
     5
420
      255
176
     1
290
     0
176
     1
 90
       50
176
     1
 90
       50
176
     1
 90
       50
176
     1
290
     0
176
     1
 90
       50
176
     1
 62
   256
176
     0
 40
1.0
176
     0
 90
        2
176
     1
  1
strokes_ogs.tif
176
     1
290
     0
176
     1
 40
1.0
176
     1
 40
1.0
176
     1
  0
VISUALSTYLE
  5
750
102
{ACAD_REACTORS
330
73C
102
}
330
73C
100
AcDbVisualStyle
  2
Shades of Gray
 70
    23
177
     3
291
     0
 70
    58
 90
        2
176
     1
 90
        2
176
     1
 90
        3
176
     1
 90
        0
176
     1
 40
0.6
176
     1
 40
30.0
176
     1
 62
     7
420
 16777215
176
     1
 90
        2
176
     1
 90
        2
176
     1
 62
     7
176
     1
 62
     7
176
     1
 90
        1
176
     1
 90
        1
176
     1
 40
40.0
176
     1
 90
        8
176
     1
 62
     7
176
     1
 40
1.0
176
     1
 90
        1
176
     1
 90
        6
176
     1
 90
        2
176
     1
 62
     7
176
     1
 90
        3
176
     1
 90
        0
176
     1
 90
        0
176
     1
290
     0
176
     1
 90
        1
176
     1
 40
0.0
176
     1
 90
        0
176
     1
290
     0
176
     1
290
     1
176
     1
290
     1
176
     1
290
     0
176
     1
290
     0
176
     1
290
     0
176
     1
290
     0
176
     1
290
     0
176
     1
290
     0
176
     1
 90
       50
176
     1
 40
0.0
176
     1
 40
1.0
176
     1
 90
        0
176
     1
 62
    18
420
        0
176
     1
 90
       50
176
     1
 90
        3
176
     1
 62
     5
420
      255
176
     1
290
     0
176
     1
 90
       50
176
     1
 90
       50
176
     1
 90
       50
176
     1
290
     0
176
     1
 90
       50
176
     1
 62
   256
176
     0
 40
1.0
176
     0
 90
        2
176
     1
  1
strokes_ogs.tif
176
     1
290
     0
176
     1
 40
1.0
176
     1
 40
1.0
176
     1
  0
VISUALSTYLE
  5
751
102
{ACAD_REACTORS
330
73C
102
}
330
73C
100
AcDbVisualStyle
  2
Sketchy
 70
    24
177
     3
291
     0
 70
    58
 90
        1
176
     1
 90
        2
176
     1
 90
        2
176
     1
 90
        0
176
     1
 40
0.6
176
     1
 40
30.0
176
     1
 62
     7
420
 16777215
176
     1
 90
        2
176
     1
 90
        2
176
     1
 62
     7
176
     1
 62
     7
176
     1
 90
        1
176
     1
 90
        1
176
     1
 40
40.0
176
     1
 90
       11
176
     1
 62
     7
176
     1
 40
1.0
176
     1
 90
        1
176
     1
 90
        6
176
     1
 90
        2
176
     1
 62
     7
176
     1
 90
        6
176
     1
 90
        0
176
     1
 90
        0
176
     1
290
     0
176
     1
 90
        1
176
     1
 40
0.0
176
     1
 90
        0
176
     1
290
     0
176
     1
290
     1
176
     1
290
     1
176
     1
290
     0
176
     1
290
     0
176
     1
290
     0
176
     1
290
     0
176
     1
290
     0
176
     1
290
     0
176
     1
 90
       50
176
     1
 40
0.0
176
     1
 40
1.0
176
     1
 90
        0
176
     1
 62
    18
420
        0
176
     1
 90
       50
176
     1
 90
        3
176
     1
 62
     5
420
      255
176
     1
290
     0
176
     1
 90
       50
176
     1
 90
       50
176
     1
 90
       50
176
     1
290
     0
176
     1
 90
       50
176
     1
 62
   256
176
     0
 40
1.0
176
     0
 90
        2
176
     1
  1
strokes_ogs.tif
176
     1
290
     0
176
     1
 40
1.0
176
     1
 40
1.0
176
     1
  0
VISUALSTYLE
  5
749
102
{ACAD_REACTORS
330
73C
102
}
330
73C
100
AcDbVisualStyle
  2
Thicken
 70
    13
177
     3
291
     1
 70
    58
 90
        2
176
     1
 90
        2
176
     1
 90
        0
176
     1
 90
        0
176
     1
 40
0.6
176
     1
 40
30.0
176
     1
 62
     7
420
 16777215
176
     1
 90
        1
176
     1
 90
        4
176
     1
 62
     7
176
     1
 62
   257
176
     1
 90
        1
176
     1
 90
        1
176
     1
 40
1.0
176
     1
 90
       12
176
     1
 62
     7
176
     1
 40
1.0
176
     1
 90
        1
176
     1
 90
        6
176
     1
 90
        2
176
     1
 62
     7
176
     1
 90
        5
176
     1
 90
        0
176
     1
 90
        0
176
     1
290
     0
176
     1
 90
        1
176
     1
 40
0.0
176
     1
 90
        0
176
     1
290
     0
176
     1
290
     1
176
     1
290
     1
176
     1
290
     0
176
     1
290
     0
176
     1
290
     0
176
     1
290
     0
176
     1
290
     0
176
     1
290
     0
176
     1
 90
       50
176
     1
 40
0.0
176
     1
 40
1.0
176
     1
 90
        0
176
     1
 62
    18
420
        0
176
     1
 90
       50
176
     1
 90
        3
176
     1
 62
     5
420
      255
176
     1
290
     0
176
     1
 90
       50
176
     1
 90
       50
176
     1
 90
       50
176
     1
290
     0
176
     1
 90
       50
176
     1
 62
   256
176
     0
 40
1.0
176
     0
 90
        2
176
     1
  1
strokes_ogs.tif
176
     1
290
     0
176
     1
 40
1.0
176
     1
 40
1.0
176
     1
  0
VISUALSTYLE
  5
742
102
{ACAD_REACTORS
330
73C
102
}
330
73C
100
AcDbVisualStyle
  2
Wireframe
 70
     5
177
     3
291
     0
 70
    58
 90
        0
176
     1
 90
        2
176
     1
 90
        0
176
     1
 90
        0
176
     1
 40
0.6
176
     1
 40
30.0
176
     1
 62
     7
420
 16777215
176
     1
 90
        1
176
     1
 90
        4
176
     1
 62
     7
176
     1
 62
   257
176
     1
 90
        1
176
     1
 90
        1
176
     1
 40
1.0
176
     1
 90
        0
176
     1
 62
   257
176
     1
 40
1.0
176
     1
 90
        1
176
     1
 90
        6
176
     1
 90
        2
176
     1
 62
     7
176
     1
 90
        3
176
     1
 90
        0
176
     1
 90
        0
176
     1
290
     0
176
     1
 90
        1
176
     1
 40
0.0
176
     1
 90
        0
176
     1
290
     0
176
     1
290
     1
176
     1
290
     1
176
     1
290
     0
176
     1
290
     0
176
     1
290
     0
176
     1
290
     0
176
     1
290
     0
176
     1
290
     0
176
     1
 90
       50
176
     1
 40
0.0
176
     1
 40
1.0
176
     1
 90
        0
176
     1
 62
    18
420
        0
176
     1
 90
       50
176
     1
 90
        3
176
     1
 62
     5
420
      255
176
     1
290
     0
176
     1
 90
       50
176
     1
 90
       50
176
     1
 90
       50
176
     1
290
     0
176
     1
 90
       50
176
     1
 62
   256
176
     0
 40
1.0
176
     0
 90
        2
176
     1
  1
strokes_ogs.tif
176
     1
290
     0
176
     1
 40
1.0
176
     1
 40
1.0
176
     1
  0
VISUALSTYLE
  5
752
102
{ACAD_REACTORS
330
73C
102
}
330
73C
100
AcDbVisualStyle
  2
X-Ray
 70
    25
177
     3
291
     0
 70
    58
 90
        2
176
     1
 90
        2
176
     1
 90
        1
176
     1
 90
        1
176
     1
 40
0.5
176
     1
 40
30.0
176
     1
 62
     7
420
 16777215
176
     1
 90
        1
176
     1
 90
        0
176
     1
 62
     7
176
     1
 62
   257
176
     1
 90
        1
176
     1
 90
        1
176
     1
 40
1.0
176
     1
 90
        8
176
     1
 62
     7
176
     1
 40
1.0
176
     1
 90
        1
176
     1
 90
        6
176
     1
 90
        2
176
     1
 62
     7
176
     1
 90
        3
176
     1
 90
        0
176
     1
 90
        0
176
     1
290
     0
176
     1
 90
       13
176
     1
 40
0.0
176
     1
 90
        0
176
     1
290
     0
176
     1
290
     1
176
     1
290
     1
176
     1
290
     0
176
     1
290
     0
176
     1
290
     0
176
     1
290
     0
176
     1
290
     0
176
     1
290
     0
176
     1
 90
       50
176
     1
 40
0.0
176
     1
 40
1.0
176
     1
 90
        0
176
     1
 62
    18
420
        0
176
     1
 90
       50
176
     1
 90
        3
176
     1
 62
     5
420
      255
176
     1
290
     0
176
     1
 90
       50
176
     1
 90
       50
176
     1
 90
       50
176
     1
290
     0
176
     1
 90
       50
176
     1
 62
   256
176
     0
 40
1.0
176
     0
 90
        2
176
     1
  1
strokes_ogs.tif
176
     1
290
     0
176
     1
 40
1.0
176
     1
 40
1.0
176
     1
  0
DICTIONARYVAR
  5
75E
102
{ACAD_REACTORS
330
75D
102
}
330
75D
100
DictionaryVariables
280
     0
  1
1:1
  0
DICTIONARYVAR
  5
763
102
{ACAD_REACTORS
330
75D
102
}
330
75D
100
DictionaryVariables
280
     0
  1
Standard
  0
DICTIONARYVAR
  5
762
102
{ACAD_REACTORS
330
75D
102
}
330
75D
100
DictionaryVariables
280
     0
  1
Standard
  0
DICTIONARYVAR
  5
764
102
{ACAD_REACTORS
330
75D
102
}
330
75D
100
DictionaryVariables
280
     0
  1
0
  0
DICTIONARYVAR
  5
7B6
330
7B5
100
DictionaryVariables
280
     0
  1
1.3.4 @ 2025-08-28T22:37:24.301163+00:00
  0
DICTIONARY
  5
7B7
330
75A
100
AcDbDictionary
280
     1
281
     1
  3
ACAD_ROUNDTRIP_2008_TABLESTYLE_CELLSTYLEMAP
360
7B8
  0
CELLSTYLEMAP
  5
7B8
102
{ACAD_REACTORS
330
7B7
102
}
330
7B7
100
AcDbCellStyleMap
 90
        3
300
CELLSTYLE
  1
TABLEFORMAT_BEGIN
 90
        5
170
     1
 91
        0
 92
    32768
 62
   257
 93
        1
300
CONTENTFORMAT
  1
CONTENTFORMAT_BEGIN
 90
        0
 91
        0
 92
        4
 93
        0
300

 40
0.0
140
1.0
 94
        5
 62
     0
340
11
144
6.0
309
CONTENTFORMAT_END
171
     1
301
MARGIN
  1
CELLMARGIN_BEGIN
 40
1.5
 40
1.5
 40
1.5
 40
1.5
 40
1.5
 40
1.5
309
CELLMARGIN_END
 94
        6
 95
        1
302
GRIDFORMAT
  1
GRIDFORMAT_BEGIN
 90
        0
 91
        1
 62
     0
 92
       -2
340
14
 93
        0
 40
0.045
309
GRIDFORMAT_END
 95
        2
302
GRIDFORMAT
  1
GRIDFORMAT_BEGIN
 90
        0
 91
        1
 62
     0
 92
       -2
340
14
 93
        0
 40
0.045
309
GRIDFORMAT_END
 95
        4
302
GRIDFORMAT
  1
GRIDFORMAT_BEGIN
 90
        0
 91
        1
 62
     0
 92
       -2
340
14
 93
        0
 40
0.045
309
GRIDFORMAT_END
 95
        8
302
GRIDFORMAT
  1
GRIDFORMAT_BEGIN
 90
        0
 91
        1
 62
     0
 92
       -2
340
14
 93
        0
 40
0.045
309
GRIDFORMAT_END
 95
       16
302
GRIDFORMAT
  1
GRIDFORMAT_BEGIN
 90
        0
 91
        1
 62
     0
 92
       -2
340
14
 93
        0
 40
0.045
309
GRIDFORMAT_END
 95
       32
302
GRIDFORMAT
  1
GRIDFORMAT_BEGIN
 90
        0
 91
        1
 62
     0
 92
       -2
340
14
 93
        0
 40
0.045
309
GRIDFORMAT_END
309
TABLEFORMAT_END
  1
CELLSTYLE_BEGIN
 90
        1
 91
        1
300
_TITLE
309
CELLSTYLE_END
300
CELLSTYLE
  1
TABLEFORMAT_BEGIN
 90
        5
170
     1
 91
        0
 92
        0
 62
   257
 93
        1
300
CONTENTFORMAT
  1
CONTENTFORMAT_BEGIN
 90
        0
 91
        0
 92
        4
 93
        0
300

 40
0.0
140
1.0
 94
        5
 62
     0
340
11
144
4.5
309
CONTENTFORMAT_END
171
     1
301
MARGIN
  1
CELLMARGIN_BEGIN
 40
1.5
 40
1.5
 40
1.5
 40
1.5
 40
1.5
 40
1.5
309
CELLMARGIN_END
 94
        6
 95
        1
302
GRIDFORMAT
  1
GRIDFORMAT_BEGIN
 90
        0
 91
        1
 62
     0
 92
       -2
340
14
 93
        0
 40
0.045
309
GRIDFORMAT_END
 95
        2
302
GRIDFORMAT
  1
GRIDFORMAT_BEGIN
 90
        0
 91
        1
 62
     0
 92
       -2
340
14
 93
        0
 40
0.045
309
GRIDFORMAT_END
 95
        4
302
GRIDFORMAT
  1
GRIDFORMAT_BEGIN
 90
        0
 91
        1
 62
     0
 92
       -2
340
14
 93
        0
 40
0.045
309
GRIDFORMAT_END
 95
        8
302
GRIDFORMAT
  1
GRIDFORMAT_BEGIN
 90
        0
 91
        1
 62
     0
 92
       -2
340
14
 93
        0
 40
0.045
309
GRIDFORMAT_END
 95
       16
302
GRIDFORMAT
  1
GRIDFORMAT_BEGIN
 90
        0
 91
        1
 62
     0
 92
       -2
340
14
 93
        0
 40
0.045
309
GRIDFORMAT_END
 95
       32
302
GRIDFORMAT
  1
GRIDFORMAT_BEGIN
 90
        0
 91
        1
 62
     0
 92
       -2
340
14
 93
        0
 40
0.045
309
GRIDFORMAT_END
309
TABLEFORMAT_END
  1
CELLSTYLE_BEGIN
 90
        2
 91
        1
300
_HEADER
309
CELLSTYLE_END
300
CELLSTYLE
  1
TABLEFORMAT_BEGIN
 90
        5
170
     1
 91
        0
 92
        0
 62
   257
 93
        1
300
CONTENTFORMAT
  1
CONTENTFORMAT_BEGIN
 90
        0
 91
        0
 92
        4
 93
        0
300

 40
0.0
140
1.0
 94
        2
 62
     0
340
11
144
4.5
309
CONTENTFORMAT_END
171
     1
301
MARGIN
  1
CELLMARGIN_BEGIN
 40
1.5
 40
1.5
 40
1.5
 40
1.5
 40
1.5
 40
1.5
309
CELLMARGIN_END
 94
        6
 95
        1
302
GRIDFORMAT
  1
GRIDFORMAT_BEGIN
 90
        0
 91
        1
 62
     0
 92
       -2
340
14
 93
        0
 40
0.045
309
GRIDFORMAT_END
 95
        2
302
GRIDFORMAT
  1
GRIDFORMAT_BEGIN
 90
        0
 91
        1
 62
     0
 92
       -2
340
14
 93
        0
 40
0.045
309
GRIDFORMAT_END
 95
        4
302
GRIDFORMAT
  1
GRIDFORMAT_BEGIN
 90
        0
 91
        1
 62
     0
 92
       -2
340
14
 93
        0
 40
0.045
309
GRIDFORMAT_END
 95
        8
302
GRIDFORMAT
  1
GRIDFORMAT_BEGIN
 90
        0
 91
        1
 62
     0
 92
       -2
340
14
 93
        0
 40
0.045
309
GRIDFORMAT_END
 95
       16
302
GRIDFORMAT
  1
GRIDFORMAT_BEGIN
 90
        0
 91
        1
 62
     0
 92
       -2
340
14
 93
        0
 40
0.045
309
GRIDFORMAT_END
 95
       32
302
GRIDFORMAT
  1
GRIDFORMAT_BEGIN
 90
        0
 91
        1
 62
     0
 92
       -2
340
14
 93
        0
 40
0.045
309
GRIDFORMAT_END
309
TABLEFORMAT_END
  1
CELLSTYLE_BEGIN
 90
        3
 91
        2
300
_DATA
309
CELLSTYLE_END
  0
ENDSEC
  0
EOF
